<svg version="1.1" id="Layer_1" xmlns="http://www.w3.org/2000/svg" x="0" y="0" viewBox="-39.3 358 467.9 267.7" xml:space="preserve"><style type="text/css">.st0-p{fill:#498DCB;}</style><path class="st0-p" d="M91.3 533.5h24.1v12.1H91.3v-12.1zM276 533.5h24.1v12.1H276v-12.1zM-26.5 371.1c.2 0 .2 0 .4.2.2 0 .2.2.4.2 0 .2.2.2.2.4l11.9 23.6V394c0-.4 0-.8.2-1.3l2.3-22.2h4.8l-3.7 35h-2.7c-.4 0-.8 0-1-.2-.2-.2-.6-.4-.8-.8l-11.7-23.6v2l-2.3 22.6h-4.8l3.8-34.7h2.9c-.3.3-.1.3.1.3zM20.2 405.7H16c-.4 0-.8-.2-1.3-.4-.2-.2-.4-.6-.4-1L13 397H1.8l-2.9 7.3c-.2.4-.4.6-.8 1-.4.2-.8.4-1.3.4h-4.4L7 370.9h5.6l7.6 34.8zm-16.8-13h8.8l-2.1-11.9c0-.6-.2-1.3-.4-1.9-.2-.6-.2-1.3-.4-2.1-.2.8-.4 1.5-.8 2.3-.2.6-.4 1.3-.8 1.7l-4.3 11.9zM43.2 370.9l-.6 5h-8.4l-3.1 29.7h-5.4l3.1-29.7h-8.4l.6-5.2 22.2.2zM54.5 400.7c1 0 1.9-.2 2.7-.6.8-.4 1.5-1 2.1-1.9.6-.8 1-1.7 1.5-2.7.4-1 .6-2.3.8-3.6l2.3-20.9h5.4L67 391.9c-.2 2.1-.6 4-1.5 5.6-.6 1.7-1.7 3.3-2.7 4.6-1.3 1.3-2.5 2.3-4 2.9-1.5.6-3.1 1-5 1-1.7 0-3.1-.2-4.4-.8s-2.3-1.5-3.1-2.5-1.5-2.3-2.1-3.8c-.4-1.5-.6-3.1-.6-4.8 0-.6 0-1.5.2-2.3l2.3-20.9h5.4l-2.3 20.9v1.6c0 1 .2 2.1.4 2.9s.6 1.7 1 2.3 1 1 1.7 1.5c.5.6 1.3.6 2.2.6zM77.9 392.1l-1.5 13.6H71l3.8-34.7h8.6c1.7 0 3.3.2 4.6.6 1.3.4 2.3 1 3.1 1.9.8.8 1.5 1.7 1.9 2.7s.6 2.3.6 3.6-.2 2.5-.4 3.8c-.4 1.3-.8 2.3-1.5 3.1-.6 1-1.5 1.9-2.3 2.5s-1.9 1.3-3.1 1.7c.2.2.6.4.8.8s.4.6.6 1.3l5.4 13h-4.8c-.4 0-.8-.2-1.3-.4-.4-.2-.6-.4-.6-.8L82 393.5c-.2-.4-.4-.6-.6-.8-.2-.2-.6-.2-1.3-.2l-2.2-.4zm1.7-16.3l-1.3 11.7h3.1c1 0 2.1-.2 2.9-.6.8-.4 1.5-.8 1.9-1.5.4-.6.8-1.5 1.3-2.3.2-.8.4-1.7.4-2.7 0-1.5-.4-2.7-1.3-3.6-.8-.8-2.1-1.3-3.8-1.3l-3.2.3zM121 405.7h-4.2c-.4 0-.8-.2-1.3-.4-.2-.2-.4-.6-.4-1l-1.3-7.3h-11.3l-2.7 7.3c-.2.4-.4.6-.8 1-.4.2-.8.4-1.3.4h-4.4l14.6-34.7h5.6l7.5 34.7zm-16.9-13.2h8.8l-2.1-11.9c-.2-.6-.2-1.3-.4-1.9-.2-.6-.2-1.3-.4-2.1-.2.8-.4 1.5-.8 2.3-.2.6-.4 1.3-.6 1.9l-4.5 11.7zM129.4 400.4h11.1l-.4 5.2h-16.5l3.8-34.7h5.4l-3.4 29.5z"/><path id="XMLID_1_" class="st0-p" d="M147.6 414c-.6-.2-1-.6-1.5-1-.2-.2-.4-.6-.4-1v-.2h-.2v-.8l.2-.2c.2-.6.6-1.3.8-2.1.8-1.7 1.9-3.3 3.1-5 .8-1.3 1.9-2.5 2.9-3.6l1.3-1.3-1-1.3c-.4-.4-.8-1-1.3-1.5-.6-1-1.3-2.3-1.5-3.8-.2-1.3-.4-2.5-.2-3.8.2-2.9 1.3-5.4 2.9-7.7.4-.6 1-1.3 1.7-1.7 1.5-1.3 2.9-2.3 4.6-3.3 1.3-.8 2.7-1.7 4.4-2.7l4.4-2.5c1.7-.8 2.9-1.7 4.4-2.7 1.3-.8 2.5-1.7 3.3-2.5 1-.8 1.9-1.9 2.9-2.9.8-1 1.7-2.1 2.3-3.1l.2-.2c.2-.2.2-.4.2-.4.2-.2.2-.4.4-.4l.2-.2s.2-.2.6 0c.4.2.4.4.4.4s.2.6.2.8c0 .4 0 .8-.2 1.3l-.2 1.3c0 .4 0 .8-.2 1.3 0 0-.6 5.9-.6 6.5l-.2 1c0 .4 0 1-.2 1.5v1l-.6 5.4v1l-.4 3.8c0 .4-.2 1.7-.2 1.7-.2.8-.2 1.7-.4 2.5-.4 1.5-.6 2.9-1 4.2-.6 1.5-1.3 2.9-1.9 4-.6 1-1.5 2.1-2.1 2.7-1 1-2.1 1.7-3.3 2.3-.8.4-1.9.8-2.9 1-.8.2-1.5.2-2.1.4-.6.2-1.5 0-2.1 0H162l-1.9-.2s-.8-.2-1-.2l-1.5-.2-1.7-.2c-.4.4-.6.8-.8 1.3-.6.8-1 1.9-1.7 3.1-.8 1.9-1.7 4-2.5 6.3-.2.6-.4 1.3-.6 1.7 0 .2-.2.4-.6.6s-.6.2-1 .4h-.2l-.9-.8zm4.6-10.8c-.8 1-1.7 2.1-2.5 3.3-1 1.5-1.7 2.7-2.3 4 0 .2-.2.4-.2.4l-.2.4s.2.4.4.4c.2.2.4.4.6.4.2 0 .4 0 .6-.2v-.2c.2-.6.4-1 .6-1.7.8-2.3 1.7-4.4 2.5-6.3.3-.1.3-.3.5-.5zm4-4.4c.8.2 1.7.2 2.5.4s1.7.2 2.5.2c.6 0 1.5 0 2.1.2h2.3c.6 0 1.5-.2 2.1-.2 1-.2 1.9-.4 2.7-.8 1-.4 2.1-1.3 2.9-1.9.6-.6 1.3-1.5 1.9-2.3.2-.2.2-.4.4-.6l-16.7.6c-.4.8-.8 1.5-1.3 2.3-.4.8-1 1.2-1.4 2.1zm-2.6-16.8c-.6.8-1 1.7-1.5 2.5-.6 1.5-1 3.1-1 5 0 1 0 1.9.2 2.7.2 1 .6 1.9 1 2.7.4.6.8 1 1.3 1.7.2.2 1 1.3 1 1.3s.4-.8.6-1l1-1.9.8-1.7-3.4-11.3zm9.9 4.8c-.4.6-1 1.3-1.5 2.1-.6.8-1 1.9-1.7 2.7-.2.4-.4.6-.6 1 0 0 13.4-.4 14-.4h2.5c.8-1.9 1.3-3.8 1.7-6.1l-14.4.7zm-8.4-6.2c.4 1.5 2.5 8.2 3.3 10.7l.6-1.3c.8-1.5 1.7-2.9 2.7-4.2l.2-.2-2.1-8.8c-1.8 1.5-3.4 2.5-4.7 3.8zm14-.7l-.6.8c-.8 1-1.7 2.1-2.7 2.9-.4.4-.6.8-.8 1l13.6-1v-.4c0-.4.2-1 .2-1.5 0-.4.2-3.1.2-3.1 0 .3-9.2 1.3-9.9 1.3zm-5.8 4.2c.6-.8 1.3-1.7 2.1-2.3.8-1 1.7-1.9 2.5-2.9l-.2-1.7-.6-4.6c-.6.4-3.3 1.9-3.3 1.9-.6.4-1.5.8-2.1 1.3l-.2.2c.3 1.6 1.8 8.1 1.8 8.1zm11.9-10c-.2 0-.6 0-.8.2-.8 1-1.9 2.3-2.9 3.3l-.5.5s7.1-.8 7.5-.8h.6c0-.8.2-2.7.4-3.8l-4.3.6zm-6.5-2.1c.2 1 .2 2.3.4 3.3l.2 1.9c.4-.4.6-.8 1-1 .8-1 1.7-1.9 2.5-2.9l-.6-3.6-.6.4c-.8.6-1.8 1.3-2.9 1.9zm11.7-7.1c-.2.6-.4 1.3-.6 1.7-.8 1.7-2.1 3.3-3.3 5-.2.2-.4.4-.6.8l4-.6.5-6.9zm-6 6.5c.6-1 1.3-1.9 1.9-2.5 1-1.7 1.9-3.1 2.7-4.6-.2 0-.2.2-.2.2-.6.8-1.5 1.5-2.3 2.1s-1.7 1.3-2.5 1.9c-.1.1.4 2.9.4 2.9z"/><path class="st0-p" d="M-15.8 472.2v27.6h-18.4v-82.4h28c5.6 0 10.5.6 14.4 2.1 4 1.5 7.3 3.3 9.8 5.6 2.5 2.3 4.6 5.2 5.9 8.6 1.3 3.3 1.9 6.9 1.9 10.7 0 4.2-.6 7.9-1.9 11.3-1.3 3.3-3.1 6.3-5.9 8.8-2.5 2.5-5.9 4.4-10 5.6-4 1.5-8.8 2.1-14.2 2.1h-9.6zm0-14.4h9.6c4.8 0 8.2-1.3 10.3-3.6 2.1-2.3 3.1-5.6 3.1-10 0-1.9-.2-3.6-.8-5.2-.6-1.5-1.5-2.9-2.5-4-1-1-2.5-1.9-4.2-2.5s-3.8-.8-6.1-.8H-16v26.2l.2-.1zM53.4 469.3v30.5H35v-82.4h26c5.9 0 10.7.6 14.6 1.9 4 1.3 7.3 2.9 9.8 5s4.4 4.8 5.6 7.7 1.7 6.3 1.7 9.6c0 2.7-.4 5.2-1 7.5s-1.7 4.6-3.1 6.7c-1.3 2.1-2.9 3.8-5 5.4-2.1 1.7-4.2 2.9-6.9 4 1.3.6 2.3 1.5 3.3 2.3 1 .8 2.1 2.1 2.9 3.3l16.9 28.7H83.1c-3.1 0-5.2-1.3-6.7-3.6L63.2 472c-.6-1-1.3-1.7-2.1-2.3-.8-.4-1.9-.6-3.3-.6l-4.4.2zm0-13.2h7.3c2.5 0 4.6-.4 6.5-1 1.7-.6 3.1-1.7 4.4-2.7 1-1.3 1.9-2.5 2.5-4.2.4-1.7.8-3.3.8-5 0-3.6-1-6.5-3.3-8.4-2.3-2.1-5.9-3.1-10.5-3.1h-7.3c-.4.1-.4 24.4-.4 24.4zM183.4 458.6c0 5.9-1 11.5-2.9 16.5-1.9 5.2-4.8 9.6-8.4 13.4-3.6 3.8-7.9 6.7-13 9-5 2.1-10.7 3.1-16.9 3.1-6.1 0-11.9-1-16.9-3.1s-9.4-5.2-13-9c-3.6-3.8-6.5-8.2-8.4-13.4-1.9-5-2.9-10.7-2.9-16.5 0-6.1 1-11.5 2.9-16.5 1.9-5.2 4.8-9.6 8.4-13.4 3.6-3.8 8-6.7 13-8.8s10.7-3.1 16.9-3.1c6.3 0 11.7 1 16.9 3.1 5 2.1 9.4 5.2 13 9 3.6 3.8 6.5 8.2 8.4 13.4 1.8 4.8 2.9 10.4 2.9 16.3zm-18.9 0c0-4.2-.4-7.7-1.5-11.1-1-3.1-2.5-6.1-4.4-8.4s-4.2-4-6.9-5.2c-2.7-1.3-5.9-1.9-9.4-1.9s-6.7.6-9.4 1.9-5 2.9-7.1 5.2c-1.9 2.3-3.3 5-4.4 8.4-1 3.3-1.5 6.9-1.5 11.1s.4 7.7 1.5 11.1c1.1 3.4 2.5 6.1 4.4 8.4 1.9 2.3 4.2 4 7.1 5.2 2.7 1.3 5.9 1.7 9.4 1.7s6.7-.6 9.4-1.7c2.7-1.3 5-2.9 6.9-5.2 1.9-2.3 3.3-5 4.4-8.4.9-3.4 1.5-6.9 1.5-11.1zM249.5 417.4v15.1h-22.4v67.4h-18.4v-67.2h-22.4v-15.1c0-.2 63.2-.2 63.2-.2zM309.9 417.4V432h-32.6v19.2h24.9v14.2h-24.9v19.7h32.6v14.6h-51v-82.4l51 .1zM339.6 499.8H321v-82.4h18.6v82.4zM366.8 417.6c.6 0 1 .2 1.5.4.4.2.8.4 1.3.8.4.4.8.8 1.3 1.5l37.7 49.4c-.2-1.7-.2-3.1-.4-4.6 0-1.5-.2-2.9-.2-4.2v-43.5h16.3v82.4H415c-1.5 0-2.5-.2-3.6-.6-1-.4-1.9-1.3-2.9-2.5L371 447.5c.2 1.5.2 2.9.2 4.2 0 1.5.2 2.7.2 3.8v44.4h-16.3v-82.4h9.6c.9-.1 1.5-.1 2.1.1zM22.9 539.8c0 4.8-.8 9-2.3 13.2-1.5 4-3.6 7.5-6.3 10.7-2.7 2.9-5.9 5.4-9.8 7.1-3.8 1.7-7.9 2.5-12.6 2.5s-8.8-.8-12.8-2.5c-3.8-1.7-7.1-4-9.8-7.1-2.7-2.9-4.8-6.5-6.3-10.7-1.5-4-2.3-8.4-2.3-13.2 0-4.8.8-9.2 2.3-13.2s3.6-7.5 6.3-10.7c2.7-2.9 6.1-5.2 9.8-7.1 3.8-1.9 8-2.5 12.8-2.5s8.8.8 12.8 2.5c3.8 1.7 7.1 4 9.8 7.1 2.7 2.9 4.8 6.5 6.3 10.5 1.3 4.2 2.1 8.6 2.1 13.4zm-14.2 0c0-3.1-.4-6.1-1.3-8.8-.8-2.5-1.9-4.8-3.3-6.5-1.5-1.9-3.1-3.1-5.2-4.2-2.1-1-4.4-1.5-7.1-1.5s-5 .4-7.1 1.5c-2.1 1-3.8 2.3-5.2 4.2-1.5 1.9-2.5 4-3.3 6.5s-1.3 5.4-1.3 8.8c0 3.3.4 6.1 1.3 8.8.8 2.5 1.9 4.8 3.3 6.5 1.5 1.9 3.1 3.1 5.2 4.2 2.1 1 4.4 1.5 7.1 1.5s5-.4 7.1-1.5c2.1-.8 3.8-2.3 5.2-4.2 1.5-1.9 2.5-4 3.3-6.5.8-2.8 1.3-5.7 1.3-8.8zM39.8 507.1c.4 0 .8.2 1 .4.4.2.6.4.8.6s.6.6 1 1.3l28.2 39.1c0-1.3-.2-2.5-.2-3.6v-37.8h12.1v65.3h-7.1c-1 0-1.9-.2-2.7-.6-.8-.4-1.5-1-2.1-1.9l-28-38.9c0 1 .2 2.3.2 3.3v38H31v-65.2h8.8zM163.1 507.1v12h-16.7v53.4h-13.8v-53.4h-16.7v-12h47.2zM222.1 572.4h-14v-27.6h-24.3v27.6h-14v-65.3h14v27.2H208v-27.2h14l.1 65.3zM271.9 507.1v11.7h-24.5v15.3H266v11.3h-18.6v15.5h24.5v11.7h-38.3v-65.3h38.3v-.2zM351.2 571.4c-3.3 1-7.1 1.7-10.9 1.7-5 0-9.4-.8-13.4-2.5s-7.5-4-10.3-6.9c-2.9-2.9-5-6.5-6.7-10.7-1.5-4-2.3-8.6-2.3-13.2 0-4.8.8-9.4 2.3-13.4 1.5-4.2 3.6-7.5 6.3-10.5 2.7-2.9 6.1-5.2 10-6.9 4-1.7 8.2-2.5 13-2.5 2.5 0 4.8.2 6.9.6s4.2 1 6.1 1.9c1.9.8 3.6 1.7 5 2.7 1.5 1 2.9 2.3 4 3.6l-4 6.7c-.6 1-1.5 1.7-2.5 1.9-1 .2-2.1 0-3.1-.8-1-.6-2.1-1.3-3.1-1.9-1-.4-1.9-.8-2.9-1.3-1-.4-2.1-.6-3.1-.6-1-.2-2.3-.2-3.8-.2-2.5 0-5 .4-6.9 1.5-2.1 1-3.8 2.3-5.2 4.2s-2.5 4-3.3 6.5-1.3 5.4-1.3 8.6c0 3.6.4 6.5 1.3 9.2.8 2.7 2.1 5 3.8 6.7 1.7 1.9 3.6 3.3 5.6 4.2 2.3 1 4.6 1.5 7.3 1.5 1.7 0 3.1-.2 4.6-.6 1.3-.4 2.7-.8 4-1.5v-9.8h-5.9c-.8 0-1.5-.2-2.1-.8-.4-.4-.8-1.3-.8-1.9v-8.4h21.1v27.6c-3.1 2.3-6.4 4.2-9.7 5.3zM428.6 539.8c0 4.8-.8 9-2.3 13.2-1.5 4-3.6 7.5-6.3 10.7-2.7 2.9-5.9 5.4-9.8 7.1-3.8 1.7-8 2.5-12.8 2.5s-8.8-.8-12.8-2.5c-3.8-1.7-7.1-4-9.8-7.1-2.7-2.9-4.8-6.5-6.3-10.7-1.5-4-2.3-8.4-2.3-13.2 0-4.8.8-9.2 2.3-13.2s3.6-7.5 6.3-10.7c2.7-2.9 6.1-5.2 9.8-7.1 3.8-1.7 8.2-2.5 12.8-2.5 4.6 0 8.8.8 12.8 2.5 3.8 1.7 7.1 4 9.8 7.1 2.7 2.9 4.8 6.5 6.3 10.5 1.6 4.2 2.3 8.6 2.3 13.4zm-14.1 0c0-3.1-.4-6.1-1.3-8.8-.8-2.5-1.9-4.8-3.3-6.5-1.5-1.9-3.1-3.1-5.2-4.2-2.1-1-4.4-1.5-7.1-1.5s-5 .4-7.1 1.5c-2.1 1-3.8 2.3-5.2 4.2-1.5 1.9-2.5 4-3.3 6.5s-1.3 5.4-1.3 8.8c0 3.3.4 6.1 1.3 8.8.8 2.5 1.9 4.8 3.3 6.5 1.5 1.9 3.1 3.1 5.2 4.2 2.1 1 4.4 1.5 7.1 1.5s5-.4 7.1-1.5c2.1-.8 3.8-2.3 5.2-4.2 1.5-1.9 2.5-4 3.3-6.5.9-2.8 1.3-5.7 1.3-8.8z"/><g><path class="st0-p" d="M-38.2 625.5v-36h3.1c.6 0 1.3.4 1.5 1l.4 2.9c.6-.6 1-1.3 1.7-1.9.6-.6 1.3-1 1.9-1.5.6-.4 1.5-.6 2.3-.8.8-.2 1.7-.4 2.5-.4 1.5 0 2.7.2 4 .8 1.3.6 2.1 1.5 2.9 2.7s1.5 2.5 1.9 4.4c.4 1.7.6 3.8.6 5.9 0 2.1-.2 3.8-.8 5.6-.6 1.9-1.3 3.1-2.1 4.4s-2.1 2.3-3.3 2.9c-1.3.6-2.9 1-4.6 1-1.5 0-2.7-.2-3.8-.8-1-.4-1.9-1.3-2.7-2.1v11.5h-5.4v.4h-.1zm11.7-31.8c-1.5 0-2.5.4-3.6.8-1 .6-1.9 1.5-2.7 2.7v12.6c.8 1 1.5 1.7 2.5 2.1.8.4 1.9.6 2.9.6 2.1 0 3.8-.8 4.8-2.5 1.3-1.7 1.7-4 1.7-7.3 0-1.7-.2-3.1-.4-4.2s-.6-2.1-1-2.9-1-1.3-1.9-1.7c-.6-.2-1.5-.2-2.3-.2zM-10 616.5v-27h3.1c.6 0 1 .2 1.3.4.3.2.4.6.4 1l.2 3.6c.8-1.7 1.9-3.1 2.9-4 1-1 2.5-1.5 4-1.5.6 0 1 0 1.5.2.4.2.8.4 1.3.6l-.4 4.2c0 .2-.2.4-.2.6s-.4.2-.6.2-.6 0-1-.2c-.4 0-1-.2-1.5-.2-.8 0-1.5.2-2.1.4-.6.2-1 .6-1.5 1-.4.4-.8 1-1.3 1.7-.4.6-.6 1.3-1 2.1v16.7l-5.1.2zM18.5 589.1c1.9 0 3.6.4 5 1 1.5.6 2.7 1.7 4 2.7 1 1.3 1.9 2.7 2.5 4.4s.8 3.6.8 5.9c0 2.1-.2 4-.8 5.9-.6 1.7-1.5 3.1-2.5 4.4s-2.3 2.1-4 2.7c-1.5.6-3.1 1-5 1s-3.6-.4-5-1c-1.5-.6-2.7-1.7-4-2.7S7.6 610.7 7 609c-.6-1.7-.8-3.6-.8-5.9 0-2.1.2-4 .8-5.9.6-1.7 1.5-3.1 2.5-4.4s2.3-2.1 4-2.7c1.4-.6 3.1-1 5-1zm0 23.5c2.3 0 4-.8 5-2.5s1.7-4 1.7-6.9c0-2.9-.6-5.4-1.7-7.1-1-1.7-2.9-2.5-5-2.5-2.3 0-4 .8-5.2 2.5-1 1.7-1.7 4-1.7 7.1 0 2.9.6 5.4 1.7 6.9 1.2 1.6 2.9 2.5 5.2 2.5zM43.6 616.9c-2.1 0-3.8-.6-4.8-1.9s-1.7-3.1-1.7-5.2v-15.7h-2.7c-.2 0-.6 0-.8-.2s-.4-.4-.4-.8v-2.3l4.2-.6 1.3-7.7c0-.2.2-.6.4-.6.2-.2.4-.2.8-.2h2.7v8.8h7.1v4.2h-7.1V610c0 1 .2 1.7.6 2.3.4.6 1 .8 1.9.8.4 0 .8 0 1-.2s.6-.2.8-.4c.2-.2.4-.2.6-.4.2-.2.2-.2.4-.2s.6.2.6.6l1.7 2.7c-.8.8-1.9 1.5-2.9 1.9-1.4-.4-2.4-.2-3.7-.2zM64.3 589.1c1.5 0 2.9.2 4.4.8 1.3.6 2.5 1.3 3.3 2.3 1 1 1.7 2.3 2.3 3.8s.8 3.1.8 5.2c0 .8 0 1.5-.2 1.7s-.4.4-1 .4H57.6c0 1.5.2 2.9.6 4 .4 1 .8 2.1 1.5 2.7.6.6 1.5 1.3 2.3 1.7.8.4 1.9.6 2.9.6s1.9-.2 2.7-.4c.8-.2 1.5-.6 2.1-.8.6-.2 1-.6 1.5-.8.5-.2.8-.4 1-.4.4 0 .8.2 1 .6l1.5 2.1c-.6.8-1.3 1.5-2.1 2.1-.8.6-1.7 1-2.5 1.3-.8.4-1.9.6-2.7.8s-1.9.2-2.7.2c-1.7 0-3.3-.2-4.8-.8-1.5-.6-2.7-1.5-4-2.7-1-1.3-1.9-2.7-2.5-4.6-.6-1.9-.8-3.8-.8-6.3 0-1.9.2-3.6.8-5.2.6-1.6 1.3-2.9 2.3-4.2 1-1.3 2.3-2.1 3.8-2.9 1.3-.8 2.9-1.2 4.8-1.2zm0 4.2c-1.9 0-3.6.6-4.6 1.7-1 1.3-1.9 2.9-2.1 5h12.6c0-1-.2-1.9-.4-2.7-.2-.8-.6-1.5-1-2.1-.4-.6-1-1-1.9-1.5-.9-.4-1.5-.4-2.6-.4zM86.5 581.4c0 .4 0 1-.2 1.5s-.4.8-.8 1.3c-.4.4-.6.6-1.3.8-.6.2-.8.2-1.5.2-.4 0-.8 0-1.3-.2-.4-.2-.8-.4-1-.8-.4-.4-.6-.8-.8-1.3-.2-.4-.2-1-.2-1.5 0-.6 0-1 .2-1.5.2-.4.4-.8.8-1.3.4-.4.6-.6 1-.8.4-.2.8-.2 1.3-.2s1 0 1.5.2.8.4 1.3.8.6.8.8 1.3c.2.4.2 1.1.2 1.5zm-.8 8.1v27h-5.4v-27h5.4zM92.3 616.5v-27h3.1c.6 0 1.3.4 1.5 1l.4 2.5 1.7-1.7c.6-.4 1.3-.8 1.9-1.3.6-.4 1.5-.6 2.1-.8.8-.2 1.7-.2 2.5-.2 1.5 0 2.7.2 3.8.8 1 .6 1.9 1.3 2.7 2.1.6.8 1.3 1.9 1.7 3.1s.6 2.7.6 4.2v17.2h-5.2v-17.2c0-1.9-.4-3.1-1.3-4.2-.8-1-2.1-1.5-3.6-1.5-1.3 0-2.3.2-3.3.8s-1.9 1.5-2.9 2.3v19.7h-5.7v.2zM146.1 585.6v11.1h9.8v4.2h-9.8V612h-4.4v-11.1h-9.8v-4.2h9.8v-11.1h4.4zM184.6 589.1c1.5 0 2.9.2 4.4.8 1.3.6 2.5 1.3 3.3 2.3 1 1 1.7 2.3 2.3 3.8.6 1.5.8 3.1.8 5.2 0 .8 0 1.5-.2 1.7s-.4.4-1 .4h-16.3c0 1.5.2 2.9.6 4 .4 1 .8 2.1 1.5 2.7.6.6 1.5 1.3 2.3 1.7.8.4 1.9.6 2.9.6s1.9-.2 2.7-.4c.8-.2 1.5-.6 2.1-.8.6-.2 1-.6 1.5-.8.4-.2.8-.4 1-.4.4 0 .8.2 1 .6l1.5 2.1c-.6.8-1.3 1.5-2.1 2.1-.8.6-1.7 1-2.5 1.3-.8.4-1.9.6-2.7.8-.8.2-1.9.2-2.7.2-1.7 0-3.3-.2-4.8-.8-1.5-.6-2.7-1.5-4-2.7-1-1.3-1.9-2.7-2.5-4.6-.6-1.9-.8-3.8-.8-6.3 0-1.9.2-3.6.8-5.2.6-1.7 1.3-2.9 2.3-4.2 1-1.3 2.3-2.1 3.8-2.9 1.3-.8 2.9-1.2 4.8-1.2zm.2 4.2c-1.9 0-3.6.6-4.6 1.7-1 1.3-1.9 2.9-2.1 5h12.6c0-1-.2-1.9-.4-2.7-.2-.8-.6-1.5-1-2.1-.4-.6-1-1-1.9-1.5-.9-.4-1.7-.4-2.6-.4zM206 577.4v39.1h-5.4v-39.1h5.4zM223.1 589.1c1.5 0 2.9.2 4.4.8 1.3.6 2.5 1.3 3.3 2.3 1 1 1.7 2.3 2.3 3.8.6 1.5.8 3.1.8 5.2 0 .8 0 1.5-.2 1.7s-.4.4-1 .4h-16.3c0 1.5.2 2.9.6 4 .4 1 .8 2.1 1.5 2.7.6.6 1.5 1.3 2.3 1.7.8.4 1.9.6 2.9.6s1.9-.2 2.7-.4c.8-.2 1.5-.6 2.1-.8.6-.2 1-.6 1.5-.8.4-.2.8-.4 1-.4.4 0 .8.2 1 .6l1.5 2.1c-.6.8-1.3 1.5-2.1 2.1-.8.6-1.7 1-2.5 1.3-.8.4-1.9.6-2.7.8-.8.2-1.9.2-2.7.2-1.7 0-3.3-.2-4.8-.8-1.5-.6-2.7-1.5-4-2.7-1-1.3-1.9-2.7-2.5-4.6-.6-1.9-.8-3.8-.8-6.3 0-1.9.2-3.6.8-5.2.6-1.7 1.3-2.9 2.3-4.2 1-1.3 2.3-2.1 3.8-2.9 1.3-.8 2.9-1.2 4.8-1.2zm.2 4.2c-1.9 0-3.6.6-4.6 1.7-1 1.3-1.9 2.9-2.1 5h12.6c0-1-.2-1.9-.4-2.7-.2-.8-.6-1.5-1-2.1-.4-.6-1-1-1.9-1.5-.9-.4-1.7-.4-2.6-.4zM256.8 594.8c-.2.2-.4.4-.4.6-.2.2-.4.2-.6.2s-.6-.2-.8-.4c-.2-.2-.6-.4-1-.6s-.8-.4-1.5-.6c-.6-.2-1.3-.4-2.3-.4-1.3 0-2.1.2-3.1.6-.8.4-1.7 1-2.1 1.9-.4.8-1 1.9-1.3 2.9-.2 1-.4 2.5-.4 4s.2 2.9.4 4c.4 1.3.8 2.1 1.3 2.9.6.8 1.3 1.5 2.1 1.9.8.4 1.9.6 2.9.6s1.9-.2 2.5-.4 1.3-.6 1.7-.8c.4-.4.8-.6 1-.8s.6-.4 1-.4.8.2 1 .6l1.5 2.1c-.6.8-1.3 1.5-2.1 2.1-.8.6-1.5 1-2.3 1.3s-1.7.6-2.5.8c-.8.2-1.9.2-2.7.2-1.7 0-3.1-.2-4.4-.8-1.5-.6-2.5-1.5-3.6-2.7-1-1.3-1.9-2.7-2.5-4.4-.6-1.7-.8-3.8-.8-5.9 0-2.1.2-3.8.8-5.4.6-1.7 1.3-3.1 2.3-4.4s2.3-2.1 3.8-2.9c1.5-.6 3.3-1 5.2-1s3.6.4 4.8 1c1.5.6 2.7 1.5 3.8 2.7l-1.7 1.5zM271 616.9c-2.1 0-3.8-.6-4.8-1.9s-1.7-3.1-1.7-5.2v-15.7h-2.7c-.2 0-.6 0-.8-.2-.2-.2-.4-.4-.4-.8v-2.3l4.2-.6 1.3-7.7c0-.2.2-.6.4-.6.2-.2.4-.2.8-.2h2.7v8.8h7.1v4.2H270V610c0 1 .2 1.7.6 2.3s1 .8 1.9.8c.4 0 .8 0 1-.2s.6-.2.8-.4c.2-.2.4-.2.6-.4s.2-.2.4-.2.6.2.6.6l1.7 2.7c-.8.8-1.9 1.5-2.9 1.9-1.4-.4-2.4-.2-3.7-.2zM281.1 616.5v-27h3.1c.6 0 1 .2 1.3.4.3.2.4.6.4 1l.2 3.6c.8-1.7 1.9-3.1 2.9-4 1-1 2.5-1.5 4-1.5.6 0 1 0 1.5.2.4.2.8.4 1.3.6l-.4 4.2c0 .2-.2.4-.2.6s-.4.2-.6.2-.6 0-1-.2c-.4 0-1-.2-1.5-.2-.8 0-1.5.2-2.1.4-.6.2-1 .6-1.5 1-.4.4-.8 1-1.3 1.7-.4.6-.6 1.3-1 2.1v16.7l-5.1.2zM309.5 589.1c1.9 0 3.6.4 5 1 1.5.6 2.7 1.7 4 2.7s1.9 2.7 2.5 4.4.8 3.6.8 5.9c0 2.1-.2 4-.8 5.9-.6 1.7-1.5 3.1-2.5 4.4s-2.3 2.1-4 2.7c-1.5.6-3.1 1-5 1s-3.6-.4-5-1c-1.5-.6-2.7-1.7-4-2.7-1-1.3-1.9-2.7-2.5-4.4-.6-1.7-.8-3.6-.8-5.9 0-2.1.2-4 .8-5.9.6-1.7 1.5-3.1 2.5-4.4s2.3-2.1 4-2.7c1.5-.6 3.1-1 5-1zm0 23.5c2.3 0 4-.8 5-2.5s1.7-4 1.7-6.9c0-2.9-.6-5.4-1.7-7.1-1-1.7-2.9-2.5-5-2.5-2.3 0-4 .8-5.2 2.5-1 1.7-1.7 4-1.7 7.1 0 2.9.6 5.4 1.7 6.9 1.2 1.6 2.9 2.5 5.2 2.5zM332.3 577.4v39.1h-5.2v-39.1h5.2zM347.6 624.3c-.2.4-.4.6-.6 1-.2.4-.6.4-1.3.4h-4l4.6-10.9-10.5-25.1h4.6c.4 0 .8.2 1 .4.2.2.4.4.6.8l6.1 15.3c.2.8.6 1.7.8 2.7.2-.4.2-.8.4-1.3.2-.4.2-.8.4-1.3l5.9-15.3c.2-.4.2-.6.6-.8.2-.2.6-.4.8-.4h4.2l-13.6 34.5zM373.1 616.9c-2.1 0-3.8-.6-4.8-1.9s-1.7-3.1-1.7-5.2v-15.7h-2.7c-.2 0-.6 0-.8-.2s-.4-.4-.4-.8v-2.3l4.2-.6 1.3-7.7c0-.2.2-.6.4-.6.2-.2.4-.2.8-.2h2.7v8.8h7.1v4.2h-7.1V610c0 1 .2 1.7.6 2.3.4.6 1 .8 1.9.8.4 0 .8 0 1-.2s.6-.2.8-.4c.2-.2.4-.2.6-.4.2-.2.2-.2.4-.2s.6.2.6.6l1.7 2.7c-.8.8-1.9 1.5-2.9 1.9-1.2-.4-2.4-.2-3.7-.2zM393.8 589.1c1.5 0 2.9.2 4.4.8 1.3.6 2.5 1.3 3.3 2.3 1 1 1.7 2.3 2.3 3.8.6 1.5.8 3.1.8 5.2 0 .8 0 1.5-.2 1.7s-.4.4-1 .4h-16.3c0 1.5.2 2.9.6 4 .4 1 .8 2.1 1.5 2.7.6.6 1.5 1.3 2.3 1.7.8.4 1.9.6 2.9.6s1.9-.2 2.7-.4c.8-.2 1.5-.6 2.1-.8.6-.2 1-.6 1.5-.8.4-.2.8-.4 1-.4.4 0 .8.2 1 .6l1.5 2.1c-.6.8-1.3 1.5-2.1 2.1-.8.6-1.7 1-2.5 1.3-.8.4-1.9.6-2.7.8-.8.2-1.9.2-2.7.2-1.7 0-3.3-.2-4.8-.8-1.5-.6-2.7-1.5-4-2.7-1-1.3-1.9-2.7-2.5-4.6-.6-1.9-.8-3.8-.8-6.3 0-1.9.2-3.6.8-5.2.6-1.6 1.3-2.9 2.3-4.2 1-1.3 2.3-2.1 3.8-2.9 1.3-.8 3-1.2 4.8-1.2zm.2 4.2c-1.9 0-3.6.6-4.6 1.7-1 1.3-1.9 2.9-2.1 5h12.6c0-1-.2-1.9-.4-2.7-.2-.8-.6-1.5-1-2.1-.4-.6-1-1-1.9-1.5-.9-.4-1.7-.4-2.6-.4zM424.8 594.3c-.2.2-.2.4-.4.6-.2 0-.4.2-.6.2s-.6 0-.8-.2c-.4-.2-.6-.4-1.3-.6-.4-.2-1-.4-1.7-.6-.6-.2-1.3-.2-2.1-.2-.6 0-1.3 0-1.9.2s-1 .4-1.5.6c-.4.2-.6.6-.8 1-.2.4-.2.8-.2 1.3 0 .6.2 1.3.6 1.7s.8.8 1.5 1c.6.2 1.3.6 2.1.8.8.2 1.5.4 2.3.8.8.4 1.7.6 2.3 1 .8.4 1.5.8 2.1 1.5.6.6 1 1.3 1.5 1.9.4.8.6 1.7.6 2.7 0 1.3-.2 2.5-.6 3.6-.4 1-1 2.1-1.9 2.7-.8.8-1.9 1.5-3.1 1.9-1.3.4-2.7.6-4.2.6-.8 0-1.7 0-2.5-.2s-1.7-.4-2.3-.6c-.8-.2-1.5-.6-2.1-1-.6-.4-1.3-.8-1.7-1.3l1.3-2.1.6-.6s.4-.2.8-.2.6.2 1 .4.8.4 1.3.8c.4.2 1 .6 1.7.8.7.2 1.5.4 2.5.4.8 0 1.5 0 2.1-.2s1-.4 1.5-.8c.4-.4.6-.8.8-1.3.2-.4.2-.8.2-1.5 0-.6-.2-1.3-.6-1.7s-.8-.8-1.5-1c-.6-.4-1.3-.6-2.1-.8-.8-.2-1.5-.4-2.3-.8-.8-.4-1.7-.6-2.3-1-.6-.4-1.5-.8-2.1-1.5-.6-.6-1-1.3-1.5-2.1-.4-.8-.6-1.9-.6-2.9s.2-2.1.6-3.1 1-1.9 1.9-2.5c.8-.8 1.7-1.3 2.9-1.7 1.3-.4 2.5-.6 4-.6 1.7 0 3.3.2 4.6.8 1.5.6 2.5 1.5 3.6 2.3l-1.7 1.5z"/></g></svg>