<svg version="1.2" baseProfile="tiny" xmlns="http://www.w3.org/2000/svg" x="0" y="0" viewBox="0 0 223.52 102.89" xml:space="preserve"><linearGradient id="a" gradientUnits="userSpaceOnUse" x1="68.051" y1="83.998" x2="68.051" y2="89.76"><stop offset="0" stop-color="#A1664C"/><stop offset=".215" stop-color="#9F644A"/><stop offset=".419" stop-color="#965E45"/><stop offset=".618" stop-color="#89543C"/><stop offset=".814" stop-color="#76452F"/><stop offset="1" stop-color="#613520"/></linearGradient><path fill="url(#a)" d="M62.3 84h11.51v5.76H62.3V84z"/><linearGradient id="b" gradientUnits="userSpaceOnUse" x1="156.391" y1="83.998" x2="156.391" y2="89.76"><stop offset="0" stop-color="#A1664C"/><stop offset=".215" stop-color="#9F644A"/><stop offset=".419" stop-color="#965E45"/><stop offset=".618" stop-color="#89543C"/><stop offset=".814" stop-color="#76452F"/><stop offset="1" stop-color="#613520"/></linearGradient><path fill="url(#b)" d="M150.64 84h11.51v5.76h-11.51V84z"/><linearGradient id="c" gradientUnits="userSpaceOnUse" x1="9.109" y1="6.34" x2="9.109" y2="22.957"><stop offset="0" stop-color="#A1664C"/><stop offset=".215" stop-color="#9F644A"/><stop offset=".419" stop-color="#965E45"/><stop offset=".618" stop-color="#89543C"/><stop offset=".814" stop-color="#76452F"/><stop offset="1" stop-color="#613520"/></linearGradient><path fill="url(#c)" d="M5.96 6.37c.07.01.14.03.2.07.06.03.11.08.16.14.05.06.1.14.15.25l5.69 11.33c.01-.22.02-.44.04-.65.02-.21.03-.41.05-.59l1.13-10.58h2.31l-1.79 16.6h-1.34c-.2 0-.37-.04-.51-.11-.14-.08-.26-.21-.35-.41L6.05 11.1c-.01.18-.03.36-.04.53-.01.17-.02.34-.04.49L4.83 22.96H2.52L4.3 6.35h1.37c.11 0 .21 0 .29.02z"/><linearGradient id="d" gradientUnits="userSpaceOnUse" x1="21.717" y1="6.326" x2="21.717" y2="22.944"><stop offset="0" stop-color="#A1664C"/><stop offset=".215" stop-color="#9F644A"/><stop offset=".419" stop-color="#965E45"/><stop offset=".618" stop-color="#89543C"/><stop offset=".814" stop-color="#76452F"/><stop offset="1" stop-color="#613520"/></linearGradient><path fill="url(#d)" d="M28.31 22.93h-2.03c-.23 0-.41-.06-.55-.18-.14-.12-.22-.28-.25-.49l-.61-3.47h-5.43l-1.35 3.47c-.08.18-.2.34-.36.47-.17.14-.36.21-.56.21l-2.06.01 7.03-16.62h2.67l3.5 16.6zm-8.05-6.24h4.24L23.51 11c-.05-.27-.11-.57-.16-.87-.05-.31-.1-.65-.15-1.03-.13.38-.25.74-.38 1.06-.12.32-.24.61-.35.85l-2.21 5.68z"/><linearGradient id="e" gradientUnits="userSpaceOnUse" x1="33.855" y1="6.31" x2="33.855" y2="22.923"><stop offset="0" stop-color="#A1664C"/><stop offset=".215" stop-color="#9F644A"/><stop offset=".419" stop-color="#965E45"/><stop offset=".618" stop-color="#89543C"/><stop offset=".814" stop-color="#76452F"/><stop offset="1" stop-color="#613520"/></linearGradient><path fill="url(#e)" d="M39.29 6.31l-.27 2.44-3.99.01-1.52 14.16h-2.6l1.51-14.16-4 .01.26-2.45 10.61-.01z"/><linearGradient id="f" gradientUnits="userSpaceOnUse" x1="45.699" y1="6.293" x2="45.699" y2="23.092"><stop offset="0" stop-color="#A1664C"/><stop offset=".215" stop-color="#9F644A"/><stop offset=".419" stop-color="#965E45"/><stop offset=".618" stop-color="#89543C"/><stop offset=".814" stop-color="#76452F"/><stop offset="1" stop-color="#613520"/></linearGradient><path fill="url(#f)" d="M44.74 20.52c.47 0 .9-.1 1.29-.3.39-.21.74-.49 1.03-.86.29-.37.54-.82.73-1.34.19-.52.32-1.1.39-1.74l1.07-9.98h2.61l-1.06 9.98c-.11.98-.33 1.89-.69 2.72-.35.83-.8 1.56-1.34 2.16-.55.61-1.18 1.08-1.91 1.42-.73.34-1.53.51-2.39.51-.79 0-1.48-.14-2.1-.42-.61-.28-1.13-.67-1.55-1.18-.42-.5-.74-1.11-.96-1.8-.22-.7-.33-1.47-.33-2.32 0-.34.02-.71.06-1.09l1.05-9.98 2.62-.01-1.07 9.97c-.02.14-.02.29-.03.42-.01.14-.01.27-.01.4 0 .52.06.99.17 1.41.11.42.28.78.49 1.08.22.3.49.53.81.69.33.18.7.26 1.12.26z"/><linearGradient id="g" gradientUnits="userSpaceOnUse" x1="57.935" y1="6.288" x2="57.935" y2="22.9"><stop offset="0" stop-color="#A1664C"/><stop offset=".215" stop-color="#9F644A"/><stop offset=".419" stop-color="#965E45"/><stop offset=".618" stop-color="#89543C"/><stop offset=".814" stop-color="#76452F"/><stop offset="1" stop-color="#613520"/></linearGradient><path fill="url(#g)" d="M55.9 16.35l-.7 6.54-2.6.01 1.77-16.61h4.14c.84 0 1.56.1 2.16.3.6.2 1.09.49 1.47.85.39.36.67.79.85 1.3.18.51.27 1.06.27 1.66 0 .64-.08 1.25-.24 1.81-.16.56-.38 1.08-.68 1.54-.29.46-.66.86-1.09 1.21-.43.35-.91.61-1.46.81.15.11.3.24.42.39.13.16.24.34.33.56l2.61 6.19H60.8c-.22 0-.41-.05-.56-.16-.15-.1-.26-.25-.34-.44l-2.14-5.38c-.08-.2-.18-.34-.3-.43-.12-.09-.3-.13-.55-.13H55.9zm.84-7.76l-.61 5.64h1.51c.52 0 .97-.09 1.36-.26.38-.17.69-.41.93-.71.24-.3.43-.66.55-1.06.12-.41.18-.84.18-1.31 0-.72-.2-1.28-.59-1.69-.39-.4-.99-.6-1.8-.6l-1.53-.01z"/><linearGradient id="h" gradientUnits="userSpaceOnUse" x1="69.886" y1="6.266" x2="69.886" y2="22.886"><stop offset="0" stop-color="#A1664C"/><stop offset=".215" stop-color="#9F644A"/><stop offset=".419" stop-color="#965E45"/><stop offset=".618" stop-color="#89543C"/><stop offset=".814" stop-color="#76452F"/><stop offset="1" stop-color="#613520"/></linearGradient><path fill="url(#h)" d="M76.48 22.87l-2.03.01c-.23 0-.41-.06-.55-.19-.13-.12-.22-.29-.25-.49l-.61-3.47H67.6l-1.34 3.47c-.08.17-.2.33-.36.47-.17.14-.36.21-.57.21h-2.05l7.03-16.61 2.67-.01 3.5 16.61zm-8.05-6.24l4.24-.01-.99-5.68c-.05-.28-.11-.57-.16-.87-.06-.31-.11-.65-.15-1.04-.13.38-.25.74-.38 1.07-.12.32-.24.61-.35.85l-2.21 5.68z"/><linearGradient id="i" gradientUnits="userSpaceOnUse" x1="81.734" y1="6.255" x2="81.734" y2="22.87"><stop offset="0" stop-color="#A1664C"/><stop offset=".215" stop-color="#9F644A"/><stop offset=".419" stop-color="#965E45"/><stop offset=".618" stop-color="#89543C"/><stop offset=".814" stop-color="#76452F"/><stop offset="1" stop-color="#613520"/></linearGradient><path fill="url(#i)" d="M80.52 20.4h5.3l-.25 2.47-7.93.01 1.78-16.6 2.61-.01-1.51 14.13z"/><linearGradient id="j" gradientUnits="userSpaceOnUse" x1="88.076" y1="13.421" x2="105.995" y2="13.421"><stop offset="0" stop-color="#A1664C"/><stop offset=".215" stop-color="#9F644A"/><stop offset=".419" stop-color="#965E45"/><stop offset=".618" stop-color="#89543C"/><stop offset=".814" stop-color="#76452F"/><stop offset="1" stop-color="#613520"/></linearGradient><path fill="url(#j)" d="M89.15 26.87l-.06-.04c-.26-.07-.48-.23-.66-.47-.1-.14-.18-.29-.25-.46l-.03-.08-.08-.02v-.37l.06-.06h-.01c.13-.33.28-.64.43-.95.39-.78.87-1.56 1.47-2.39.45-.62.93-1.2 1.41-1.71.15-.16.59-.61.59-.61l-.5-.62c-.2-.24-.38-.48-.55-.74-.34-.53-.59-1.13-.73-1.8-.13-.59-.17-1.2-.13-1.81.09-1.4.56-2.65 1.41-3.73.23-.29.5-.56.82-.85.66-.59 1.37-1.12 2.16-1.63.64-.41 1.34-.82 2.13-1.26l2.13-1.2c.77-.43 1.45-.85 2.11-1.29.62-.42 1.16-.82 1.63-1.22.46-.39.92-.85 1.36-1.37.44-.51.81-1.01 1.12-1.53l.05-.09c.05-.08.09-.16.13-.24.05-.08.1-.17.19-.25l.07-.06s.14-.08.27-.05.22.21.22.21.08.26.07.43c-.02.17-.04.44-.06.6l-.06.58c-.02.18-.04.36-.05.55 0 0-.29 2.84-.31 3.06l-.05.46c-.02.22-.04.46-.07.68-.02.15-.03.3-.04.46l-.26 2.61c-.02.16-.03.31-.04.46l-.17 1.77c-.02.19-.09.77-.09.77-.06.42-.13.84-.21 1.24-.15.73-.33 1.37-.53 1.96-.26.74-.55 1.38-.89 1.95-.31.51-.65.95-1.04 1.34-.46.45-.99.81-1.6 1.1-.43.2-.89.36-1.37.47-.37.08-.7.13-1.03.16-.33.03-.66.05-.99.05-.18 0-.37-.01-.55-.02-.17 0-.35-.01-.53-.03l-.94-.1s-.41-.06-.52-.08l-.68-.11-.82-.15c-.15.2-.26.38-.37.56-.26.42-.51.89-.77 1.45-.42.9-.8 1.89-1.18 3.05-.09.28-.18.56-.26.84-.04.15-.13.25-.26.32-.17.09-.33.15-.49.19l-.1.03h-.5zm2.23-5.21c-.41.5-.81 1.03-1.17 1.58-.46.71-.81 1.33-1.09 1.94-.04.08-.07.16-.11.24l-.08.18c.04.02.09.15.17.24.08.11.17.16.3.17.11 0 .22-.02.34-.07l.03-.1c.08-.27.17-.53.26-.8.37-1.12.76-2.11 1.19-3.03.05-.12.11-.24.16-.35zm1.97-2.07c.41.08.82.15 1.24.22.38.06.77.11 1.16.15.33.03.67.05 1 .07h.33c.29 0 .57-.01.85-.04.34-.03.66-.07.97-.14.46-.1.88-.24 1.26-.41.52-.24.98-.55 1.36-.93.32-.31.61-.67.86-1.08.07-.11.13-.22.2-.33l-8.04.29c-.21.36-.41.72-.61 1.09-.2.37-.39.74-.58 1.11zm-1.23-8.01c-.26.35-.5.75-.7 1.19-.32.73-.49 1.52-.49 2.35 0 .46.04.88.13 1.26.1.5.28.95.52 1.35.16.26.36.53.6.81.08.1.46.56.49.6 0 0 .18-.35.27-.52l.47-.88.43-.76-1.72-5.4zm4.67 2.27c-.23.31-.46.62-.68.95-.28.42-.54.85-.8 1.29-.1.16-.19.32-.28.47 0 0 6.38-.23 6.73-.25.16 0 1.23-.04 1.23-.04.36-.85.64-1.82.85-2.93l-7.05.51zm-4.03-2.92c.22.71 1.24 3.91 1.63 5.14l.34-.58c.41-.69.85-1.36 1.31-1.98l.08-.11-1.02-4.23c-.9.57-1.68 1.15-2.34 1.76zm6.78-.35l-.03.06-.32.35c-.43.47-.85.95-1.27 1.44l-.45.54 6.49-.47.04-.2c.03-.24.06-.48.08-.71.02-.25.14-1.49.14-1.49-.02-.01-4.44.46-4.68.48zm-2.8 2.03c.32-.39.63-.77.96-1.15.41-.46.82-.93 1.23-1.39l-.09-.75-.28-2.16c-.3.17-1.63.91-1.63.91-.34.19-.68.39-1.01.59l-.11.06c.2.81.93 3.89.93 3.89zm5.62-4.78c-.14.02-.29.05-.44.06-.43.54-.9 1.06-1.36 1.58l-.17.19s3.43-.36 3.59-.38l.31-.03c.04-.39.13-1.28.17-1.75l-2.1.33zm-3.04-1.09c.06.54.13 1.08.2 1.62l.12.94c.16-.18.32-.37.49-.55.41-.46.81-.92 1.2-1.39l-.27-1.68-.3.19c-.47.3-.95.59-1.44.87zm5.55-3.32c-.12.31-.23.57-.32.75-.45.82-.98 1.63-1.58 2.42-.09.12-.19.24-.28.36l1.86-.28.32-3.25zm-2.86 3.1c.35-.45.64-.85.91-1.24.51-.75.93-1.47 1.28-2.19-.05.05-.09.1-.14.15-.34.37-.71.72-1.09 1.04-.38.32-.78.62-1.18.9 0 .01.22 1.34.22 1.34z"/><linearGradient id="k" gradientUnits="userSpaceOnUse" x1="16.625" y1="28.516" x2="16.625" y2="67.882"><stop offset="0" stop-color="#A1664C"/><stop offset=".215" stop-color="#9F644A"/><stop offset=".419" stop-color="#965E45"/><stop offset=".618" stop-color="#89543C"/><stop offset=".814" stop-color="#76452F"/><stop offset="1" stop-color="#613520"/></linearGradient><path fill="url(#k)" d="M11.1 54.72v13.16H2.29V28.52h13.39c2.67 0 4.97.33 6.89.98 1.92.66 3.5 1.57 4.74 2.72 1.24 1.15 2.16 2.51 2.75 4.08.59 1.57.89 3.26.89 5.08 0 1.96-.31 3.76-.91 5.4-.61 1.64-1.54 3.04-2.79 4.21s-2.84 2.09-4.76 2.74c-1.92.66-4.19.98-6.81.98H11.1zm0-6.89h4.59c2.29 0 3.94-.57 4.95-1.7 1.01-1.14 1.51-2.72 1.51-4.75 0-.9-.13-1.72-.39-2.46s-.66-1.37-1.19-1.91c-.53-.53-1.2-.94-2.01-1.23-.81-.29-1.77-.43-2.88-.43H11.1v12.48z"/><linearGradient id="l" gradientUnits="userSpaceOnUse" x1="50.97" y1="28.516" x2="50.97" y2="67.882"><stop offset="0" stop-color="#A1664C"/><stop offset=".215" stop-color="#9F644A"/><stop offset=".419" stop-color="#965E45"/><stop offset=".618" stop-color="#89543C"/><stop offset=".814" stop-color="#76452F"/><stop offset="1" stop-color="#613520"/></linearGradient><path fill="url(#l)" d="M44.25 53.32v14.56h-8.81V28.52h12.35c2.75 0 5.08.29 7.02.88 1.94.58 3.52 1.4 4.74 2.45 1.23 1.04 2.11 2.28 2.67 3.7.56 1.42.83 2.97.83 4.65 0 1.28-.17 2.48-.49 3.62-.33 1.13-.82 2.18-1.47 3.15-.65.96-1.45 1.82-2.4 2.58s-2.04 1.38-3.27 1.86c.59.31 1.14.69 1.64 1.15.5.46.96 1 1.35 1.64l8.08 13.7h-7.97c-1.48 0-2.54-.58-3.18-1.73l-6.31-11.43c-.3-.49-.63-.84-.99-1.07-.36-.22-.89-.34-1.56-.34h-2.23zm0-6.3h3.54c1.2 0 2.22-.16 3.06-.47.84-.32 1.53-.75 2.07-1.31.54-.56.93-1.21 1.17-1.96.24-.75.37-1.56.37-2.42 0-1.73-.54-3.08-1.63-4.05-1.08-.97-2.77-1.46-5.04-1.46h-3.54v11.67z"/><linearGradient id="m" gradientUnits="userSpaceOnUse" x1="86.566" y1="28.084" x2="86.566" y2="68.314"><stop offset="0" stop-color="#A1664C"/><stop offset=".215" stop-color="#9F644A"/><stop offset=".419" stop-color="#965E45"/><stop offset=".618" stop-color="#89543C"/><stop offset=".814" stop-color="#76452F"/><stop offset="1" stop-color="#613520"/></linearGradient><path fill="url(#m)" d="M106.29 48.19c0 2.84-.47 5.5-1.42 7.94-.95 2.45-2.28 4.58-4 6.39-1.72 1.81-3.79 3.23-6.21 4.26-2.43 1.03-5.11 1.54-8.07 1.54-2.95 0-5.65-.51-8.08-1.54-2.43-1.03-4.51-2.45-6.24-4.26-1.73-1.81-3.06-3.94-4.01-6.39-.95-2.45-1.42-5.1-1.42-7.94 0-2.85.47-5.49 1.42-7.94s2.28-4.58 4.01-6.38c1.73-1.8 3.81-3.21 6.24-4.24 2.43-1.03 5.12-1.54 8.08-1.54s5.64.52 8.07 1.55c2.42 1.04 4.5 2.46 6.21 4.26 1.72 1.8 3.05 3.93 4 6.38.95 2.44 1.42 5.08 1.42 7.91zm-9.01 0c0-1.95-.24-3.7-.73-5.26-.49-1.55-1.19-2.88-2.1-3.96-.91-1.08-2.03-1.91-3.35-2.49-1.32-.57-2.82-.86-4.51-.86-1.7 0-3.22.29-4.54.86-1.33.58-2.45 1.4-3.36 2.49-.91 1.08-1.61 2.4-2.1 3.96s-.73 3.31-.73 5.26c0 1.96.24 3.72.73 5.28s1.19 2.88 2.1 3.96c.91 1.08 2.03 1.91 3.36 2.48 1.33.56 2.84.85 4.54.85 1.69 0 3.19-.28 4.51-.85 1.32-.57 2.44-1.39 3.35-2.48.91-1.08 1.61-2.4 2.1-3.96.48-1.56.73-3.32.73-5.28z"/><linearGradient id="n" gradientUnits="userSpaceOnUse" x1="122.763" y1="28.516" x2="122.763" y2="67.882"><stop offset="0" stop-color="#A1664C"/><stop offset=".215" stop-color="#9F644A"/><stop offset=".419" stop-color="#965E45"/><stop offset=".618" stop-color="#89543C"/><stop offset=".814" stop-color="#76452F"/><stop offset="1" stop-color="#613520"/></linearGradient><path fill="url(#n)" d="M137.85 28.52v7.24h-10.69v32.13h-8.81V35.76h-10.69v-7.24h30.19z"/><linearGradient id="o" gradientUnits="userSpaceOnUse" x1="154.528" y1="28.516" x2="154.528" y2="67.882"><stop offset="0" stop-color="#A1664C"/><stop offset=".215" stop-color="#9F644A"/><stop offset=".419" stop-color="#965E45"/><stop offset=".618" stop-color="#89543C"/><stop offset=".814" stop-color="#76452F"/><stop offset="1" stop-color="#613520"/></linearGradient><path fill="url(#o)" d="M166.75 28.52v7.02h-15.59v9.19h11.94v6.76h-11.94v9.37h15.59v7.03h-24.44V28.52h24.44z"/><linearGradient id="p" gradientUnits="userSpaceOnUse" x1="176.599" y1="28.516" x2="176.599" y2="67.882"><stop offset="0" stop-color="#A1664C"/><stop offset=".215" stop-color="#9F644A"/><stop offset=".419" stop-color="#965E45"/><stop offset=".618" stop-color="#89543C"/><stop offset=".814" stop-color="#76452F"/><stop offset="1" stop-color="#613520"/></linearGradient><path fill="url(#p)" d="M181.03 67.88h-8.86V28.52h8.86v39.36z"/><linearGradient id="q" gradientUnits="userSpaceOnUse" x1="204.951" y1="28.516" x2="204.951" y2="67.882"><stop offset="0" stop-color="#A1664C"/><stop offset=".215" stop-color="#9F644A"/><stop offset=".419" stop-color="#965E45"/><stop offset=".618" stop-color="#89543C"/><stop offset=".814" stop-color="#76452F"/><stop offset="1" stop-color="#613520"/></linearGradient><path fill="url(#q)" d="M193.98 28.57c.26.04.5.1.71.2.21.1.41.24.6.42s.41.42.65.73l18.04 23.64c-.07-.76-.12-1.49-.16-2.2-.03-.71-.05-1.38-.05-2.01V28.52h7.77v39.37h-4.59c-.68 0-1.25-.11-1.71-.34-.46-.22-.92-.62-1.37-1.17l-17.9-23.45c.05.68.1 1.36.13 2.01.04.66.05 1.27.05 1.85v21.1h-7.77V28.52h4.64c.38 0 .7.01.96.05z"/><linearGradient id="r" gradientUnits="userSpaceOnUse" x1="14.798" y1="71.015" x2="14.798" y2="102.894"><stop offset="0" stop-color="#A1664C"/><stop offset=".215" stop-color="#9F644A"/><stop offset=".419" stop-color="#965E45"/><stop offset=".618" stop-color="#89543C"/><stop offset=".814" stop-color="#76452F"/><stop offset="1" stop-color="#613520"/></linearGradient><path fill="url(#r)" d="M29.6 86.94c0 2.26-.36 4.35-1.07 6.29-.71 1.94-1.71 3.63-3 5.06-1.29 1.44-2.84 2.56-4.66 3.37-1.82.81-3.83 1.22-6.05 1.22s-4.24-.41-6.06-1.22c-1.82-.81-3.39-1.94-4.68-3.37-1.3-1.43-2.3-3.12-3.01-5.06C.35 91.3 0 89.2 0 86.94s.35-4.35 1.06-6.29 1.71-3.63 3.01-5.05c1.3-1.43 2.86-2.55 4.68-3.36 1.82-.81 3.84-1.22 6.06-1.22s4.23.41 6.05 1.23c1.82.82 3.37 1.95 4.66 3.37 1.29 1.43 2.29 3.11 3 5.05.72 1.94 1.08 4.03 1.08 6.27zm-6.77 0c0-1.54-.18-2.93-.55-4.17-.37-1.23-.89-2.28-1.57-3.14-.68-.86-1.52-1.51-2.51-1.97-.99-.46-2.12-.68-3.38-.68-1.28 0-2.41.23-3.41.68-1 .46-1.84 1.11-2.52 1.97-.68.86-1.21 1.9-1.57 3.14-.36 1.24-.55 2.62-.55 4.17 0 1.56.18 2.95.55 4.19.37 1.23.89 2.28 1.57 3.14.68.86 1.52 1.51 2.52 1.96 1 .45 2.13.67 3.41.67 1.26 0 2.39-.23 3.38-.67.99-.45 1.83-1.1 2.51-1.96.68-.86 1.21-1.9 1.57-3.14.37-1.23.55-2.63.55-4.19z"/><linearGradient id="s" gradientUnits="userSpaceOnUse" x1="45.919" y1="71.357" x2="45.919" y2="102.552"><stop offset="0" stop-color="#A1664C"/><stop offset=".215" stop-color="#9F644A"/><stop offset=".419" stop-color="#965E45"/><stop offset=".618" stop-color="#89543C"/><stop offset=".814" stop-color="#76452F"/><stop offset="1" stop-color="#613520"/></linearGradient><path fill="url(#s)" d="M37.69 71.4c.19.03.37.08.53.16.16.08.31.19.45.33s.31.34.49.58L52.68 91.2c-.05-.6-.09-1.18-.12-1.74s-.04-1.1-.04-1.6v-16.5h5.83v31.19h-3.44c-.51 0-.94-.09-1.28-.27-.35-.18-.69-.49-1.03-.93L39.18 82.77c.04.54.07 1.07.1 1.6.03.52.04 1.01.04 1.47v16.72h-5.83v-31.2h3.48c.28 0 .52.01.72.04z"/><linearGradient id="t" gradientUnits="userSpaceOnUse" x1="85.251" y1="71.357" x2="85.251" y2="102.552"><stop offset="0" stop-color="#A1664C"/><stop offset=".215" stop-color="#9F644A"/><stop offset=".419" stop-color="#965E45"/><stop offset=".618" stop-color="#89543C"/><stop offset=".814" stop-color="#76452F"/><stop offset="1" stop-color="#613520"/></linearGradient><path fill="url(#t)" d="M96.57 71.36v5.74h-8.01v25.46h-6.61V77.09h-8.02v-5.74h22.64z"/><linearGradient id="u" gradientUnits="userSpaceOnUse" x1="112.345" y1="71.357" x2="112.345" y2="102.552"><stop offset="0" stop-color="#A1664C"/><stop offset=".215" stop-color="#9F644A"/><stop offset=".419" stop-color="#965E45"/><stop offset=".618" stop-color="#89543C"/><stop offset=".814" stop-color="#76452F"/><stop offset="1" stop-color="#613520"/></linearGradient><path fill="url(#u)" d="M124.78 102.55h-6.65V89.36h-11.57v13.19h-6.65V71.36h6.65V84.4h11.57V71.36h6.65v31.19z"/><linearGradient id="v" gradientUnits="userSpaceOnUse" x1="139.459" y1="71.357" x2="139.459" y2="102.552"><stop offset="0" stop-color="#A1664C"/><stop offset=".215" stop-color="#9F644A"/><stop offset=".419" stop-color="#965E45"/><stop offset=".618" stop-color="#89543C"/><stop offset=".814" stop-color="#76452F"/><stop offset="1" stop-color="#613520"/></linearGradient><path fill="url(#v)" d="M148.63 71.36v5.57h-11.69v7.28h8.95v5.35h-8.95v7.43h11.69v5.57h-18.34v-31.2h18.34z"/><linearGradient id="w" gradientUnits="userSpaceOnUse" x1="178.498" y1="71.015" x2="178.498" y2="102.894"><stop offset="0" stop-color="#A1664C"/><stop offset=".215" stop-color="#9F644A"/><stop offset=".419" stop-color="#965E45"/><stop offset=".618" stop-color="#89543C"/><stop offset=".814" stop-color="#76452F"/><stop offset="1" stop-color="#613520"/></linearGradient><path fill="url(#w)" d="M186.46 102.1c-1.65.53-3.37.79-5.17.79-2.35 0-4.48-.4-6.4-1.21-1.92-.81-3.57-1.92-4.94-3.34-1.37-1.42-2.42-3.1-3.17-5.05-.74-1.95-1.11-4.07-1.11-6.35 0-2.33.35-4.46 1.05-6.41.7-1.95 1.71-3.63 3.02-5.04 1.31-1.41 2.89-2.51 4.75-3.3 1.86-.78 3.93-1.18 6.23-1.18 1.19 0 2.3.11 3.34.32 1.04.21 2 .51 2.88.88.88.37 1.68.81 2.41 1.33.73.51 1.38 1.07 1.95 1.67l-1.92 3.19c-.3.5-.69.81-1.16.92-.48.11-.99-.01-1.53-.39-.52-.34-1.01-.64-1.48-.89-.46-.25-.94-.45-1.42-.61-.48-.16-.99-.27-1.52-.34-.54-.07-1.13-.11-1.8-.11-1.24 0-2.35.24-3.34.72-.99.48-1.83 1.15-2.53 2.02-.7.87-1.23 1.92-1.61 3.14-.38 1.22-.57 2.58-.57 4.08 0 1.66.21 3.13.63 4.41.42 1.28 1.01 2.37 1.77 3.25.76.89 1.67 1.56 2.74 2.02 1.06.46 2.24.7 3.53.7.79 0 1.51-.09 2.16-.26.65-.17 1.27-.4 1.89-.68v-4.73h-2.82c-.42 0-.74-.12-.98-.36-.23-.24-.35-.55-.35-.92v-3.98h10.13v13.17c-1.45 1.17-3.01 2.02-4.66 2.54z"/><linearGradient id="x" gradientUnits="userSpaceOnUse" x1="208.718" y1="71.015" x2="208.718" y2="102.894"><stop offset="0" stop-color="#A1664C"/><stop offset=".215" stop-color="#9F644A"/><stop offset=".419" stop-color="#965E45"/><stop offset=".618" stop-color="#89543C"/><stop offset=".814" stop-color="#76452F"/><stop offset="1" stop-color="#613520"/></linearGradient><path fill="url(#x)" d="M223.52 86.94c0 2.26-.35 4.35-1.06 6.29-.71 1.94-1.71 3.63-3 5.06-1.29 1.44-2.84 2.56-4.66 3.37-1.82.81-3.83 1.22-6.05 1.22-2.22 0-4.24-.41-6.06-1.22-1.83-.81-3.39-1.94-4.68-3.37-1.3-1.43-2.3-3.12-3.01-5.06-.71-1.94-1.07-4.04-1.07-6.29 0-2.26.36-4.35 1.07-6.29.71-1.94 1.71-3.63 3.01-5.05 1.3-1.43 2.86-2.55 4.68-3.36 1.82-.81 3.85-1.22 6.06-1.22 2.21 0 4.23.41 6.05 1.23 1.82.82 3.37 1.95 4.66 3.37 1.29 1.43 2.29 3.11 3 5.05.7 1.94 1.06 4.03 1.06 6.27zm-6.77 0c0-1.54-.18-2.93-.55-4.17-.37-1.23-.89-2.28-1.58-3.14-.68-.86-1.52-1.51-2.51-1.97-.99-.46-2.12-.68-3.38-.68-1.28 0-2.42.23-3.41.68-1 .46-1.84 1.11-2.52 1.97-.68.86-1.21 1.9-1.57 3.14-.36 1.24-.55 2.62-.55 4.17 0 1.56.18 2.95.55 4.19.37 1.23.89 2.28 1.57 3.14.69.86 1.53 1.51 2.52 1.96 1 .45 2.13.67 3.41.67 1.26 0 2.39-.23 3.38-.67.99-.45 1.83-1.1 2.51-1.96.68-.86 1.21-1.9 1.58-3.14.37-1.23.55-2.63.55-4.19z"/></svg>