<svg version="1.1" id="Layer_1" xmlns="http://www.w3.org/2000/svg" x="0" y="0" viewBox="-193 345.073 244.45 133.796" xml:space="preserve"><style type="text/css">.st02{fill:#498DCB;}</style><path class="st02" d="M-130.7 429.11h11.51v5.76h-11.51v-5.76zM-42.36 429.11h11.51v5.76h-11.51v-5.76zM-187.04 351.48c.07.01.14.03.2.07.06.03.11.08.16.14.05.06.1.14.15.25l5.69 11.33c.01-.22.02-.44.04-.65.02-.21.03-.41.05-.59l1.13-10.58h2.31l-1.79 16.6h-1.34c-.2 0-.37-.04-.51-.11-.14-.08-.26-.21-.35-.41l-5.65-11.32c-.01.18-.03.36-.04.53-.01.17-.02.34-.04.49l-1.14 10.84h-2.31l1.78-16.61h1.37c.11 0 .21 0 .29.02zM-164.69 368.04h-2.03c-.23 0-.41-.06-.55-.18-.14-.12-.22-.28-.25-.49l-.61-3.47h-5.43l-1.35 3.47c-.08.18-.2.34-.36.47-.17.14-.36.21-.56.21l-2.06.01 7.03-16.62h2.67l3.5 16.6zm-8.05-6.24h4.24l-.99-5.69c-.05-.27-.11-.57-.16-.87-.05-.31-.1-.65-.15-1.03-.13.38-.25.74-.38 1.06-.12.32-.24.61-.35.85l-2.21 5.68zM-153.71 351.42l-.27 2.44-3.99.01-1.52 14.16h-2.6l1.51-14.16-4 .01.26-2.45 10.61-.01zM-148.26 365.63c.47 0 .9-.1 1.29-.3.39-.21.74-.49 1.03-.86.29-.37.54-.82.73-1.34.19-.52.32-1.1.39-1.74l1.07-9.98h2.61l-1.06 9.98c-.11.98-.33 1.89-.69 2.72-.35.83-.8 1.56-1.34 2.16-.55.61-1.18 1.08-1.91 1.42s-1.53.51-2.39.51c-.79 0-1.48-.14-2.1-.42-.61-.28-1.13-.67-1.55-1.18-.42-.5-.74-1.11-.96-1.8-.22-.7-.33-1.47-.33-2.32 0-.34.02-.71.06-1.09l1.05-9.98 2.62-.01-1.07 9.97c-.02.14-.02.29-.03.42-.01.14-.01.27-.01.4 0 .52.06.99.17 1.41s.28.78.49 1.08c.22.3.49.53.81.69.33.18.7.26 1.12.26zM-137.1 361.46l-.7 6.54-2.6.01 1.77-16.61h4.14c.84 0 1.56.1 2.16.3.6.2 1.09.49 1.47.85.39.36.67.79.85 1.3.18.51.27 1.06.27 1.66 0 .64-.08 1.25-.24 1.81-.16.56-.38 1.08-.68 1.54-.29.46-.66.86-1.09 1.21s-.91.61-1.46.81c.15.11.3.24.42.39.13.16.24.34.33.56l2.61 6.19h-2.35c-.22 0-.41-.05-.56-.16-.15-.1-.26-.25-.34-.44l-2.14-5.38c-.08-.2-.18-.34-.3-.43-.12-.09-.3-.13-.55-.13h-1.01v-.02zm.84-7.76l-.61 5.64h1.51c.52 0 .97-.09 1.36-.26.38-.17.69-.41.93-.71.24-.3.43-.66.55-1.06.12-.41.18-.84.18-1.31 0-.72-.2-1.28-.59-1.69-.39-.4-.99-.6-1.8-.6l-1.53-.01zM-116.52 367.98l-2.03.01c-.23 0-.41-.06-.55-.19-.13-.12-.22-.29-.25-.49l-.61-3.47h-5.44l-1.34 3.47c-.08.17-.2.33-.36.47-.17.14-.36.21-.57.21h-2.05l7.03-16.61 2.67-.01 3.5 16.61zm-8.05-6.24l4.24-.01-.99-5.68c-.05-.28-.11-.57-.16-.87-.06-.31-.11-.65-.15-1.04-.13.38-.25.74-.38 1.07-.12.32-.24.61-.35.85l-2.21 5.68zM-112.48 365.51h5.3l-.25 2.47-7.93.01 1.78-16.6 2.61-.01-1.51 14.13z"/><path id="XMLID_1_" class="st02" d="M-103.85 371.98l-.06-.04c-.26-.07-.48-.23-.66-.47-.1-.14-.18-.29-.25-.46l-.03-.08-.08-.02v-.37l.06-.06h-.01c.13-.33.28-.64.43-.95.39-.78.87-1.56 1.47-2.39.45-.62.93-1.2 1.41-1.71.15-.16.59-.61.59-.61l-.5-.62c-.2-.24-.38-.48-.55-.74-.34-.53-.59-1.13-.73-1.8-.13-.59-.17-1.2-.13-1.81.09-1.4.56-2.65 1.41-3.73.23-.29.5-.56.82-.85.66-.59 1.37-1.12 2.16-1.63.64-.41 1.34-.82 2.13-1.26l2.13-1.2c.77-.43 1.45-.85 2.11-1.29.62-.42 1.16-.82 1.63-1.22.46-.39.92-.85 1.36-1.37.44-.51.81-1.01 1.12-1.53l.05-.09c.05-.08.09-.16.13-.24.05-.08.1-.17.19-.25l.07-.06s.14-.08.27-.05.22.21.22.21.08.26.07.43c-.02.17-.04.44-.06.6l-.06.58c-.02.18-.04.36-.05.55 0 0-.29 2.84-.31 3.06l-.05.46c-.02.22-.04.46-.07.68-.02.15-.03.3-.04.46l-.26 2.61c-.02.16-.03.31-.04.46l-.17 1.77c-.02.19-.09.77-.09.77-.06.42-.13.84-.21 1.24-.15.73-.33 1.37-.53 1.96-.26.74-.55 1.38-.89 1.95-.31.51-.65.95-1.04 1.34-.46.45-.99.81-1.6 1.1-.43.2-.89.36-1.37.47-.37.08-.7.13-1.03.16s-.66.05-.99.05c-.18 0-.37-.01-.55-.02-.17 0-.35-.01-.53-.03l-.94-.1s-.41-.06-.52-.08l-.68-.11-.82-.15c-.15.2-.26.38-.37.56-.26.42-.51.89-.77 1.45-.42.9-.8 1.89-1.18 3.05-.09.28-.18.56-.26.84-.04.15-.13.25-.26.32-.17.09-.33.15-.49.19l-.1.03h-.5v.04zm2.23-5.21c-.41.5-.81 1.03-1.17 1.58-.46.71-.81 1.33-1.09 1.94-.04.08-.07.16-.11.24l-.08.18c.04.02.09.15.17.24.08.11.17.16.3.17.11 0 .22-.02.34-.07l.03-.1c.08-.27.17-.53.26-.8.37-1.12.76-2.11 1.19-3.03.05-.12.11-.24.16-.35zm1.97-2.07c.41.08.82.15 1.24.22.38.06.77.11 1.16.15.33.03.67.05 1 .07h.33c.29 0 .57-.01.85-.04.34-.03.66-.07.97-.14.46-.1.88-.24 1.26-.41.52-.24.98-.55 1.36-.93.32-.31.61-.67.86-1.08.07-.11.13-.22.2-.33l-8.04.29c-.21.36-.41.72-.61 1.09s-.39.74-.58 1.11zm-1.23-8.01c-.26.35-.5.75-.7 1.19-.32.73-.49 1.52-.49 2.35 0 .46.04.88.13 1.26.1.5.28.95.52 1.35.16.26.36.53.6.81.08.1.46.56.49.6 0 0 .18-.35.27-.52l.47-.88.43-.76-1.72-5.4zm4.67 2.27c-.23.31-.46.62-.68.95-.28.42-.54.85-.8 1.29-.1.16-.19.32-.28.47 0 0 6.38-.23 6.73-.25.16 0 1.23-.04 1.23-.04.36-.85.64-1.82.85-2.93l-7.05.51zm-4.03-2.92c.22.71 1.24 3.91 1.63 5.14l.34-.58c.41-.69.85-1.36 1.31-1.98l.08-.11-1.02-4.23c-.9.57-1.68 1.15-2.34 1.76zm6.78-.35l-.03.06-.32.35c-.43.47-.85.95-1.27 1.44l-.45.54 6.49-.47.04-.2c.03-.24.06-.48.08-.71.02-.25.14-1.49.14-1.49-.02-.01-4.44.46-4.68.48zm-2.8 2.03c.32-.39.63-.77.96-1.15.41-.46.82-.93 1.23-1.39l-.09-.75-.28-2.16c-.3.17-1.63.91-1.63.91-.34.19-.68.39-1.01.59l-.11.06c.2.81.93 3.89.93 3.89zm5.62-4.78c-.14.02-.29.05-.44.06-.43.54-.9 1.06-1.36 1.58l-.17.19s3.43-.36 3.59-.38l.31-.03c.04-.39.13-1.28.17-1.75l-2.1.33zm-3.04-1.09c.06.54.13 1.08.2 1.62l.12.94c.16-.18.32-.37.49-.55.41-.46.81-.92 1.2-1.39l-.27-1.68-.3.19c-.47.3-.95.59-1.44.87zm5.55-3.32c-.12.31-.23.57-.32.75-.45.82-.98 1.63-1.58 2.42-.09.12-.19.24-.28.36l1.86-.28.32-3.25zm-2.86 3.1c.35-.45.64-.85.91-1.24.51-.75.93-1.47 1.28-2.19-.05.05-.09.1-.14.15-.34.37-.71.72-1.09 1.04-.38.32-.78.62-1.18.9 0 .01.22 1.34.22 1.34z"/><path class="st02" d="M-181.9 399.83v13.16h-8.81v-39.36h13.39c2.67 0 4.97.33 6.89.98 1.92.66 3.5 1.57 4.74 2.72 1.24 1.15 2.16 2.51 2.75 4.08s.89 3.26.89 5.08c0 1.96-.31 3.76-.91 5.4-.61 1.64-1.54 3.04-2.79 4.21s-2.84 2.09-4.76 2.74c-1.92.66-4.19.98-6.81.98h-4.58v.01zm0-6.89h4.59c2.29 0 3.94-.57 4.95-1.7 1.01-1.14 1.51-2.72 1.51-4.75 0-.9-.13-1.72-.39-2.46s-.66-1.37-1.19-1.91c-.53-.53-1.2-.94-2.01-1.23s-1.77-.43-2.88-.43h-4.58v12.48zM-148.75 398.43v14.56h-8.81v-39.36h12.35c2.75 0 5.08.29 7.02.88 1.94.58 3.52 1.4 4.74 2.45 1.23 1.04 2.11 2.28 2.67 3.7.56 1.42.83 2.97.83 4.65 0 1.28-.17 2.48-.49 3.62-.33 1.13-.82 2.18-1.47 3.15-.65.96-1.45 1.82-2.4 2.58s-2.04 1.38-3.27 1.86c.59.31 1.14.69 1.64 1.15s.96 1 1.35 1.64l8.08 13.7h-7.97c-1.48 0-2.54-.58-3.18-1.73l-6.31-11.43c-.3-.49-.63-.84-.99-1.07-.36-.22-.89-.34-1.56-.34h-2.23v-.01zm0-6.3h3.54c1.2 0 2.22-.16 3.06-.47.84-.32 1.53-.75 2.07-1.31.54-.56.93-1.21 1.17-1.96.24-.75.37-1.56.37-2.42 0-1.73-.54-3.08-1.63-4.05-1.08-.97-2.77-1.46-5.04-1.46h-3.54v11.67zM-86.71 393.3c0 2.84-.47 5.5-1.42 7.94-.95 2.45-2.28 4.58-4 6.39s-3.79 3.23-6.21 4.26c-2.43 1.03-5.11 1.54-8.07 1.54-2.95 0-5.65-.51-8.08-1.54s-4.51-2.45-6.24-4.26c-1.73-1.81-3.06-3.94-4.01-6.39-.95-2.45-1.42-5.1-1.42-7.94 0-2.85.47-5.49 1.42-7.94s2.28-4.58 4.01-6.38c1.73-1.8 3.81-3.21 6.24-4.24 2.43-1.03 5.12-1.54 8.08-1.54s5.64.52 8.07 1.55c2.42 1.04 4.5 2.46 6.21 4.26 1.72 1.8 3.05 3.93 4 6.38.95 2.44 1.42 5.08 1.42 7.91zm-9.01 0c0-1.95-.24-3.7-.73-5.26-.49-1.55-1.19-2.88-2.1-3.96-.91-1.08-2.03-1.91-3.35-2.49-1.32-.57-2.82-.86-4.51-.86-1.7 0-3.22.29-4.54.86-1.33.58-2.45 1.4-3.36 2.49-.91 1.08-1.61 2.4-2.1 3.96s-.73 3.31-.73 5.26c0 1.96.24 3.72.73 5.28s1.19 2.88 2.1 3.96c.91 1.08 2.03 1.91 3.36 2.48 1.33.56 2.84.85 4.54.85 1.69 0 3.19-.28 4.51-.85 1.32-.57 2.44-1.39 3.35-2.48.91-1.08 1.61-2.4 2.1-3.96.48-1.56.73-3.32.73-5.28zM-55.15 373.63v7.24h-10.69V413h-8.81v-32.13h-10.69v-7.24h30.19zM-26.25 373.63v7.02h-15.59v9.19h11.94v6.76h-11.94v9.37h15.59V413h-24.44v-39.37h24.44zM-11.97 412.99h-8.86v-39.36h8.86v39.36zM.98 373.68c.26.04.5.1.71.2s.41.24.6.42.41.42.65.73l18.04 23.64c-.07-.76-.12-1.49-.16-2.2-.03-.71-.05-1.38-.05-2.01v-20.83h7.77V413h-4.59c-.68 0-1.25-.11-1.71-.34-.46-.22-.92-.62-1.37-1.17l-17.9-23.45c.05.68.1 1.36.13 2.01.04.66.05 1.27.05 1.85V413h-7.77v-39.37H.02c.38 0 .7.01.96.05zM-163.4 432.05c0 2.26-.36 4.35-1.07 6.29-.71 1.94-1.71 3.63-3 5.06-1.29 1.44-2.84 2.56-4.66 3.37-1.82.81-3.83 1.22-6.05 1.22s-4.24-.41-6.06-1.22c-1.82-.81-3.39-1.94-4.68-3.37-1.3-1.43-2.3-3.12-3.01-5.06-.72-1.93-1.07-4.03-1.07-6.29s.35-4.35 1.06-6.29c.71-1.94 1.71-3.63 3.01-5.05 1.3-1.43 2.86-2.55 4.68-3.36s3.84-1.22 6.06-1.22 4.23.41 6.05 1.23c1.82.82 3.37 1.95 4.66 3.37 1.29 1.43 2.29 3.11 3 5.05.72 1.94 1.08 4.03 1.08 6.27zm-6.77 0c0-1.54-.18-2.93-.55-4.17-.37-1.23-.89-2.28-1.57-3.14-.68-.86-1.52-1.51-2.51-1.97-.99-.46-2.12-.68-3.38-.68-1.28 0-2.41.23-3.41.68-1 .46-1.84 1.11-2.52 1.97-.68.86-1.21 1.9-1.57 3.14s-.55 2.62-.55 4.17c0 1.56.18 2.95.55 4.19.37 1.23.89 2.28 1.57 3.14.68.86 1.52 1.51 2.52 1.96 1 .45 2.13.67 3.41.67 1.26 0 2.39-.23 3.38-.67.99-.45 1.83-1.1 2.51-1.96.68-.86 1.21-1.9 1.57-3.14.37-1.23.55-2.63.55-4.19zM-155.31 416.51c.19.03.37.08.53.16.16.08.31.19.45.33s.31.34.49.58l13.52 18.73c-.05-.6-.09-1.18-.12-1.74s-.04-1.1-.04-1.6v-16.5h5.83v31.19h-3.44c-.51 0-.94-.09-1.28-.27-.35-.18-.69-.49-1.03-.93l-13.42-18.58c.04.54.07 1.07.1 1.6.03.52.04 1.01.04 1.47v16.72h-5.83v-31.2h3.48c.28 0 .52.01.72.04zM-96.43 416.47v5.74h-8.01v25.46h-6.61V422.2h-8.02v-5.74h22.64v.01zM-68.22 447.66h-6.65v-13.19h-11.57v13.19h-6.65v-31.19h6.65v13.04h11.57v-13.04h6.65v31.19zM-44.37 416.47v5.57h-11.69v7.28h8.95v5.35h-8.95v7.43h11.69v5.57h-18.34v-31.2h18.34zM-6.54 447.21c-1.65.53-3.37.79-5.17.79-2.35 0-4.48-.4-6.4-1.21s-3.57-1.92-4.94-3.34c-1.37-1.42-2.42-3.1-3.17-5.05-.74-1.95-1.11-4.07-1.11-6.35 0-2.33.35-4.46 1.05-6.41.7-1.95 1.71-3.63 3.02-5.04s2.89-2.51 4.75-3.3c1.86-.78 3.93-1.18 6.23-1.18 1.19 0 2.3.11 3.34.32s2 .51 2.88.88 1.68.81 2.41 1.33c.73.51 1.38 1.07 1.95 1.67l-1.92 3.19c-.3.5-.69.81-1.16.92-.48.11-.99-.01-1.53-.39-.52-.34-1.01-.64-1.48-.89-.46-.25-.94-.45-1.42-.61s-.99-.27-1.52-.34c-.54-.07-1.13-.11-1.8-.11-1.24 0-2.35.24-3.34.72-.99.48-1.83 1.15-2.53 2.02-.7.87-1.23 1.92-1.61 3.14s-.57 2.58-.57 4.08c0 1.66.21 3.13.63 4.41s1.01 2.37 1.77 3.25c.76.89 1.67 1.56 2.74 2.02 1.06.46 2.24.7 3.53.7.79 0 1.51-.09 2.16-.26.65-.17 1.27-.4 1.89-.68v-4.73h-2.82c-.42 0-.74-.12-.98-.36-.23-.24-.35-.55-.35-.92v-3.98h10.13v13.17c-1.45 1.17-3.01 2.02-4.66 2.54zM30.52 432.05c0 2.26-.35 4.35-1.06 6.29-.71 1.94-1.71 3.63-3 5.06-1.29 1.44-2.84 2.56-4.66 3.37-1.82.81-3.83 1.22-6.05 1.22s-4.24-.41-6.06-1.22c-1.83-.81-3.39-1.94-4.68-3.37-1.3-1.43-2.3-3.12-3.01-5.06-.71-1.94-1.07-4.04-1.07-6.29 0-2.26.36-4.35 1.07-6.29s1.71-3.63 3.01-5.05c1.3-1.43 2.86-2.55 4.68-3.36 1.82-.81 3.85-1.22 6.06-1.22 2.21 0 4.23.41 6.05 1.23 1.82.82 3.37 1.95 4.66 3.37 1.29 1.43 2.29 3.11 3 5.05.7 1.94 1.06 4.03 1.06 6.27zm-6.77 0c0-1.54-.18-2.93-.55-4.17-.37-1.23-.89-2.28-1.58-3.14-.68-.86-1.52-1.51-2.51-1.97-.99-.46-2.12-.68-3.38-.68-1.28 0-2.42.23-3.41.68-1 .46-1.84 1.11-2.52 1.97-.68.86-1.21 1.9-1.57 3.14s-.55 2.62-.55 4.17c0 1.56.18 2.95.55 4.19.37 1.23.89 2.28 1.57 3.14.69.86 1.53 1.51 2.52 1.96 1 .45 2.13.67 3.41.67 1.26 0 2.39-.23 3.38-.67.99-.45 1.83-1.1 2.51-1.96.68-.86 1.21-1.9 1.58-3.14.37-1.23.55-2.63.55-4.19z"/><g><path class="st02" d="M-170.554 478.87v-17.156h1.547c.35 0 .57.173.666.518l.2 1.35c.255-.31.524-.597.81-.857.286-.26.594-.484.923-.67.33-.185.682-.327 1.06-.43.376-.1.778-.15 1.207-.15.682 0 1.3.146 1.855.436.556.29 1.03.715 1.428 1.27.397.556.704 1.244.923 2.064.218.82.327 1.76.327 2.82 0 .952-.12 1.838-.363 2.658s-.59 1.532-1.04 2.134-1 1.072-1.643 1.413-1.368.51-2.178.51c-.715 0-1.32-.12-1.82-.36-.5-.238-.95-.573-1.346-1.002v5.453h-2.558zm5.557-15.213c-.66 0-1.222.15-1.69.448-.468.3-.903.727-1.31 1.28v5.973c.358.488.75.83 1.173 1.028.425.198.895.297 1.41.297 1 0 1.78-.387 2.338-1.16.56-.775.84-1.93.84-3.46 0-.79-.064-1.467-.19-2.026s-.31-1.016-.548-1.37c-.238-.353-.527-.61-.87-.77-.34-.16-.725-.24-1.153-.24zM-157.12 474.59v-12.876h1.486c.27 0 .456.053.56.157.103.106.174.29.214.55l.143 1.68c.39-.816.853-1.458 1.393-1.925.54-.468 1.186-.7 1.94-.7.26 0 .507.03.736.094.23.062.437.157.62.283l-.18 2.045c-.032.144-.08.242-.148.297s-.157.082-.268.082c-.12 0-.29-.023-.512-.07-.223-.045-.456-.068-.702-.068-.357 0-.675.054-.952.163s-.523.27-.737.48c-.215.21-.404.466-.57.77-.168.303-.322.647-.465 1.034v8.004h-2.56zM-143.51 461.51c.896 0 1.708.157 2.434.468.726.312 1.345.754 1.856 1.326.51.572.905 1.267 1.184 2.082.277.816.416 1.734.416 2.752 0 1.02-.14 1.937-.416 2.752-.278.816-.673 1.514-1.184 2.09-.512.576-1.13 1.02-1.856 1.332-.726.31-1.537.467-2.434.467-.904 0-1.72-.157-2.444-.468-.727-.312-1.347-.756-1.862-1.332s-.912-1.273-1.19-2.09c-.277-.815-.416-1.733-.416-2.752 0-1.018.14-1.936.416-2.752.278-.815.675-1.51 1.19-2.082s1.136-1.015 1.862-1.326c.725-.31 1.54-.467 2.444-.467zm0 11.148c1.095 0 1.91-.39 2.445-1.168.535-.778.803-1.89.803-3.34 0-1.446-.268-2.563-.803-3.35-.535-.787-1.35-1.18-2.445-1.18-1.11 0-1.936.393-2.475 1.18-.54.786-.81 1.903-.81 3.35 0 1.45.27 2.562.81 3.34.54.78 1.365 1.168 2.475 1.168zM-131.504 474.792c-1.007 0-1.783-.3-2.326-.902s-.815-1.45-.815-2.544v-7.5h-1.332c-.143 0-.266-.047-.37-.144s-.153-.242-.153-.436v-1.1l1.963-.302.56-3.724c.04-.144.107-.26.202-.348.096-.088.222-.133.38-.133h1.31v4.228h3.367v1.956h-3.367v7.31c0 .463.107.816.32 1.06s.5.367.857.367c.198 0 .37-.026.512-.08s.266-.115.37-.178c.102-.063.19-.122.267-.177s.15-.082.22-.082c.145 0 .26.084.347.252l.762 1.325c-.398.37-.866.655-1.405.853-.543.2-1.098.3-1.67.3zM-121.617 461.51c.746 0 1.437.13 2.07.386.635.257 1.183.634 1.643 1.13.46.497.818 1.104 1.076 1.824s.387 1.538.387 2.455c0 .42-.044.703-.132.846-.087.145-.246.216-.476.216h-7.793c.03.732.138 1.365.32 1.9.182.534.426.978.73 1.33s.67.618 1.096.79c.424.173.898.26 1.422.26.5 0 .932-.062 1.297-.184.364-.122.682-.257.952-.404.27-.146.5-.28.69-.403s.364-.184.522-.184c.205 0 .364.085.476.254l.726.997c-.302.38-.643.7-1.023.96s-.786.474-1.215.638c-.428.164-.868.282-1.32.354s-.893.107-1.32.107c-.842 0-1.62-.15-2.34-.45s-1.34-.737-1.866-1.318c-.53-.58-.94-1.3-1.24-2.158-.296-.858-.444-1.848-.444-2.967 0-.892.133-1.726.398-2.5.266-.773.646-1.447 1.142-2.02.496-.572 1.1-1.024 1.81-1.356.708-.333 1.51-.5 2.407-.5zm.048 1.97c-.927 0-1.656.282-2.188.847-.53.563-.868 1.354-1.01 2.373h6.03c0-.455-.06-.878-.184-1.27-.123-.39-.304-.73-.54-1.02-.24-.292-.535-.52-.888-.683s-.76-.246-1.22-.246zM-110.968 457.825c0 .244-.046.476-.137.694-.092.22-.217.41-.375.573-.16.165-.344.295-.554.392s-.434.146-.672.146c-.23 0-.446-.048-.648-.145s-.38-.227-.53-.392c-.15-.164-.27-.354-.362-.574-.09-.22-.137-.45-.137-.695 0-.252.046-.487.137-.707.09-.22.212-.41.363-.574.15-.164.327-.294.53-.39s.417-.147.647-.147c.238 0 .462.05.672.146s.395.227.554.39c.158.165.283.356.375.575.09.22.137.455.137.707zm-.428 3.89v12.875h-2.558v-12.876h2.558zM-108.172 474.59v-12.876h1.547c.35 0 .57.173.666.518l.18 1.2c.254-.287.52-.548.803-.784.282-.235.58-.438.898-.605s.657-.3 1.02-.392c.36-.092.75-.138 1.17-.138.667 0 1.252.118 1.756.354s.928.568 1.273.997c.344.43.603.945.778 1.547.174.602.262 1.265.262 1.988v8.192h-2.546v-8.192c0-.867-.188-1.54-.565-2.02-.378-.48-.95-.72-1.72-.72-.572 0-1.102.14-1.59.416-.487.277-.945.656-1.373 1.136v9.38h-2.56zM-82.52 459.82v5.276h4.723v2.045h-4.723v5.29h-2.083v-5.29h-4.7v-2.044h4.7v-5.276h2.083zM-64.09 461.51c.745 0 1.436.13 2.07.386.634.257 1.182.634 1.642 1.13.46.497.818 1.104 1.076 1.824s.387 1.538.387 2.455c0 .42-.043.703-.13.846-.088.145-.247.216-.477.216h-7.793c.03.732.14 1.365.32 1.9.183.534.427.978.732 1.33s.67.618 1.095.79c.424.173.898.26 1.422.26.5 0 .932-.062 1.297-.184.365-.122.683-.257.953-.404.27-.146.5-.28.69-.403s.364-.184.522-.184c.206 0 .365.085.477.254l.726.997c-.302.38-.643.7-1.023.96s-.785.474-1.214.638c-.427.164-.867.282-1.32.354s-.892.107-1.32.107c-.84 0-1.62-.15-2.338-.45s-1.34-.737-1.867-1.318c-.528-.58-.94-1.3-1.238-2.158-.297-.858-.445-1.848-.445-2.967 0-.892.133-1.726.398-2.5.266-.773.646-1.447 1.142-2.02.496-.572 1.1-1.024 1.81-1.356.708-.333 1.512-.5 2.407-.5zm.047 1.97c-.928 0-1.657.282-2.19.847-.53.563-.867 1.354-1.01 2.373h6.032c0-.455-.063-.878-.186-1.27-.123-.39-.304-.73-.54-1.02-.24-.292-.535-.52-.888-.683s-.76-.246-1.22-.246zM-53.93 455.907v18.683h-2.558v-18.683h2.558zM-45.686 461.51c.746 0 1.437.13 2.07.386.635.257 1.183.634 1.643 1.13.46.497.818 1.104 1.076 1.824s.387 1.538.387 2.455c0 .42-.043.703-.13.846-.088.145-.247.216-.477.216h-7.793c.03.732.14 1.365.32 1.9.183.534.427.978.732 1.33s.67.618 1.095.79c.424.173.898.26 1.422.26.5 0 .93-.062 1.296-.184.364-.122.682-.257.952-.404.27-.146.5-.28.69-.403s.364-.184.522-.184c.206 0 .365.085.477.254l.726.997c-.302.38-.643.7-1.023.96s-.785.474-1.214.638c-.428.164-.868.282-1.32.354s-.893.107-1.32.107c-.842 0-1.62-.15-2.34-.45s-1.34-.737-1.866-1.318c-.528-.58-.94-1.3-1.238-2.158-.297-.858-.445-1.848-.445-2.967 0-.892.133-1.726.398-2.5.266-.773.646-1.447 1.142-2.02.496-.572 1.1-1.024 1.81-1.356.708-.333 1.512-.5 2.407-.5zm.048 1.97c-.928 0-1.657.282-2.19.847-.53.563-.867 1.354-1.01 2.373h6.032c0-.455-.062-.878-.185-1.27-.124-.39-.305-.73-.542-1.02-.238-.292-.534-.52-.887-.683s-.758-.246-1.218-.246zM-29.552 464.238c-.08.11-.154.193-.226.253-.07.06-.175.09-.31.09s-.275-.052-.422-.152c-.147-.1-.32-.213-.523-.335-.203-.12-.446-.233-.732-.334-.285-.103-.643-.152-1.07-.152-.556 0-1.04.105-1.458.315-.416.21-.766.51-1.047.902s-.492.867-.63 1.427-.21 1.188-.21 1.887c0 .724.076 1.367.228 1.93.15.565.366 1.04.648 1.428.28.387.622.682 1.022.884.4.202.852.303 1.35.303.493 0 .894-.063 1.203-.19s.567-.264.774-.415c.206-.152.383-.29.53-.417s.303-.19.47-.19c.205 0 .364.085.476.254l.726.997c-.294.38-.62.698-.976.96-.357.26-.734.473-1.13.637s-.81.283-1.238.355c-.428.07-.86.107-1.297.107-.754 0-1.457-.15-2.11-.448-.656-.3-1.227-.732-1.715-1.3-.487-.568-.872-1.263-1.154-2.083-.28-.82-.422-1.756-.422-2.81 0-.95.127-1.83.38-2.644.255-.812.625-1.513 1.113-2.102.487-.59 1.093-1.05 1.814-1.382.723-.333 1.556-.5 2.5-.5.88 0 1.655.152 2.325.455.67.304 1.268.732 1.79 1.288l-.677.983zM-22.817 474.792c-1.007 0-1.783-.3-2.326-.902s-.814-1.45-.814-2.544v-7.5h-1.333c-.143 0-.266-.047-.37-.144-.102-.097-.153-.242-.153-.436v-1.1l1.963-.302.56-3.724c.04-.144.107-.26.202-.348.096-.088.222-.133.38-.133h1.31v4.228h3.367v1.956h-3.37v7.31c0 .463.107.816.32 1.06s.5.367.857.367c.198 0 .37-.026.512-.08s.265-.115.368-.178c.103-.063.192-.122.268-.177s.148-.082.22-.082c.144 0 .258.084.346.252l.762 1.325c-.397.37-.865.655-1.404.853-.54.2-1.096.3-1.667.3zM-18.01 474.59v-12.876h1.487c.27 0 .456.053.56.157.103.106.174.29.214.55l.144 1.68c.39-.816.853-1.458 1.393-1.925.54-.468 1.186-.7 1.94-.7.26 0 .506.03.736.094.23.062.437.157.62.283l-.18 2.045c-.032.144-.082.242-.15.297s-.155.082-.267.082c-.118 0-.29-.023-.512-.07-.222-.045-.456-.068-.7-.068-.358 0-.676.054-.953.163-.277.11-.522.27-.736.48-.215.21-.405.466-.57.77-.168.303-.322.647-.465 1.034v8.004h-2.56zM-4.398 461.51c.896 0 1.707.157 2.434.468.726.312 1.344.754 1.855 1.326s.907 1.267 1.186 2.082c.277.816.416 1.734.416 2.752 0 1.02-.14 1.937-.416 2.752-.278.816-.673 1.514-1.185 2.09s-1.13 1.02-1.854 1.332c-.727.31-1.537.467-2.434.467-.904 0-1.72-.157-2.445-.468-.726-.312-1.347-.756-1.86-1.332-.518-.576-.914-1.273-1.19-2.09-.278-.815-.417-1.733-.417-2.752 0-1.018.14-1.936.416-2.752.277-.815.674-1.51 1.19-2.082.515-.572 1.136-1.015 1.86-1.326.727-.31 1.54-.467 2.446-.467zm0 11.148c1.095 0 1.91-.39 2.445-1.168.535-.778.803-1.89.803-3.34 0-1.446-.268-2.563-.803-3.35-.535-.787-1.35-1.18-2.445-1.18-1.11 0-1.936.393-2.475 1.18-.54.786-.81 1.903-.81 3.35 0 1.45.27 2.562.81 3.34.54.78 1.364 1.168 2.475 1.168zM6.547 455.907v18.683H3.99v-18.683h2.557zM13.793 478.25c-.087.194-.192.346-.315.455s-.312.164-.565.164H11.02l2.238-5.15-4.95-12.006h2.226c.214 0 .38.053.493.157.115.106.2.23.256.374l2.892 7.31c.143.42.262.84.356 1.262.064-.22.13-.434.197-.644.067-.21.142-.42.22-.632l2.773-7.296c.055-.15.148-.278.28-.38.13-.1.274-.15.434-.15h2.046l-6.687 16.537zM26.024 474.792c-1.007 0-1.783-.3-2.326-.902s-.814-1.45-.814-2.544v-7.5H21.55c-.142 0-.265-.047-.368-.144-.103-.097-.154-.242-.154-.436v-1.1l1.963-.302.56-3.724c.04-.144.108-.26.203-.348.096-.088.222-.133.38-.133h1.31v4.228h3.367v1.956h-3.367v7.31c0 .463.107.816.32 1.06s.5.367.857.367c.198 0 .37-.026.512-.08s.266-.115.37-.178c.102-.063.19-.122.267-.177s.147-.082.22-.082c.143 0 .257.084.345.252l.762 1.325c-.397.37-.865.655-1.404.853-.543.2-1.097.3-1.67.3zM35.91 461.51c.747 0 1.438.13 2.07.386.636.257 1.184.634 1.644 1.13.46.497.818 1.104 1.076 1.824s.387 1.538.387 2.455c0 .42-.043.703-.13.846-.088.145-.247.216-.477.216h-7.793c.03.732.14 1.365.32 1.9.183.534.427.978.732 1.33s.67.618 1.094.79c.424.173.898.26 1.422.26.5 0 .932-.062 1.297-.184.364-.122.682-.257.952-.404.27-.146.5-.28.69-.403s.364-.184.522-.184c.206 0 .365.085.477.254l.726.997c-.302.38-.643.7-1.023.96s-.785.474-1.214.638c-.428.164-.868.282-1.32.354s-.893.107-1.32.107c-.842 0-1.62-.15-2.34-.45s-1.34-.737-1.866-1.318c-.528-.58-.94-1.3-1.238-2.158-.298-.858-.446-1.848-.446-2.967 0-.892.133-1.726.398-2.5.266-.773.646-1.447 1.142-2.02.496-.572 1.1-1.024 1.81-1.356.708-.333 1.512-.5 2.407-.5zm.05 1.97c-.93 0-1.658.282-2.19.847-.53.563-.868 1.354-1.01 2.373h6.03c0-.455-.06-.878-.184-1.27-.123-.39-.304-.73-.54-1.02-.24-.292-.535-.52-.888-.683s-.76-.246-1.22-.246zM50.713 464.048c-.063.118-.135.202-.214.253-.08.05-.18.076-.3.076-.134 0-.28-.044-.44-.132-.157-.09-.344-.188-.558-.297-.215-.11-.467-.208-.756-.297-.29-.088-.63-.133-1.018-.133-.317 0-.604.04-.862.12s-.476.193-.654.34-.315.32-.41.52c-.096.197-.144.41-.144.637 0 .303.088.556.262.758.175.2.405.376.69.523s.61.28.976.397c.365.118.737.244 1.118.38s.754.29 1.12.466c.363.177.688.394.975.65.284.257.514.568.688.935.175.365.262.81.262 1.33 0 .607-.103 1.167-.31 1.68-.206.514-.507.96-.903 1.34-.397.378-.89.672-1.48.883-.592.21-1.27.315-2.03.315-.42 0-.826-.04-1.22-.12-.393-.08-.765-.188-1.118-.327-.354-.14-.683-.305-.988-.5-.306-.192-.577-.402-.815-.63l.596-1.035c.07-.126.16-.225.268-.297.107-.07.24-.106.4-.106.166 0 .33.058.493.17.162.114.353.238.57.373.22.135.482.26.792.373.31.113.693.17 1.153.17.38 0 .71-.048.988-.146.277-.097.507-.23.69-.397.182-.168.316-.36.404-.574.087-.215.13-.443.13-.688 0-.33-.087-.598-.26-.81-.176-.21-.408-.39-.697-.542-.29-.15-.62-.285-.987-.403-.37-.118-.744-.244-1.125-.38s-.754-.29-1.123-.466-.698-.402-.987-.676c-.29-.273-.522-.605-.696-.997-.175-.39-.262-.868-.262-1.432 0-.514.097-1.002.29-1.465s.48-.87.858-1.225c.376-.354.84-.633 1.392-.84.55-.205 1.188-.31 1.91-.31.816 0 1.56.14 2.225.418.666.277 1.226.656 1.678 1.136l-.572.986z"/></g></svg>