<svg version="1.1" id="Layer_1" xmlns="http://www.w3.org/2000/svg" x="0" y="0" viewBox="-386.1 690.3 223.6 102.8" xml:space="preserve"><style type="text/css">.st0{fill:url(#SVGID_1_);} .st1{fill:url(#SVGID_2_);} .st2{fill:url(#SVGID_3_);} .st3{fill:url(#SVGID_4_);} .st4{fill:url(#SVGID_5_);} .st5{fill:url(#SVGID_6_);} .st6{fill:url(#SVGID_7_);} .st7{fill:url(#SVGID_8_);} .st8{fill:url(#SVGID_9_);} .st9{fill:url(#XMLID_3_);} .st10{fill:url(#SVGID_10_);} .st11{fill:url(#SVGID_11_);} .st12{fill:url(#SVGID_12_);} .st13{fill:url(#SVGID_13_);} .st14{fill:url(#SVGID_14_);} .st15{fill:url(#SVGID_15_);} .st16{fill:url(#SVGID_16_);} .st17{fill:url(#SVGID_17_);} .st18{fill:url(#SVGID_18_);} .st19{fill:url(#SVGID_19_);} .st20{fill:url(#SVGID_20_);} .st21{fill:url(#SVGID_21_);} .st22{fill:url(#SVGID_22_);} .st23{fill:url(#SVGID_23_);}</style><linearGradient id="SVGID_1_" gradientUnits="userSpaceOnUse" x1="-317.95" y1="777.75" x2="-317.95" y2="771.99" gradientTransform="translate(0 2.22)"><stop offset="0" stop-color="#3C71A1"/><stop offset=".434" stop-color="#619BC7"/><stop offset=".791" stop-color="#79B6E0"/><stop offset="1" stop-color="#82C0E9"/></linearGradient><path class="st0" d="M-323.7 774.2h11.5v5.8h-11.5v-5.8z"/><linearGradient id="SVGID_2_" gradientUnits="userSpaceOnUse" x1="-229.65" y1="777.75" x2="-229.65" y2="771.99" gradientTransform="translate(0 2.22)"><stop offset="0" stop-color="#3C71A1"/><stop offset=".434" stop-color="#619BC7"/><stop offset=".791" stop-color="#79B6E0"/><stop offset="1" stop-color="#82C0E9"/></linearGradient><path class="st1" d="M-235.4 774.2h11.5v5.8h-11.5v-5.8z"/><linearGradient id="SVGID_3_" gradientUnits="userSpaceOnUse" x1="-376.8" y1="710.95" x2="-376.8" y2="694.33" gradientTransform="translate(0 2.22)"><stop offset="0" stop-color="#3C71A1"/><stop offset=".434" stop-color="#619BC7"/><stop offset=".791" stop-color="#79B6E0"/><stop offset="1" stop-color="#82C0E9"/></linearGradient><path class="st2" d="M-380 696.6c.1 0 .1 0 .2.1.1 0 .1.1.2.1 0 .1.1.1.1.2l5.7 11.3v-.6s0-.4.1-.6l1.1-10.6h2.3l-1.8 16.6h-1.3c-.2 0-.4 0-.5-.1-.1-.1-.3-.2-.4-.4l-5.6-11.3v1l-1.1 10.8h-2.3l1.8-16.6h1.4c-.1.1 0 .1.1.1z"/><linearGradient id="SVGID_4_" gradientUnits="userSpaceOnUse" x1="-364.35" y1="710.94" x2="-364.35" y2="694.32" gradientTransform="translate(0 2.22)"><stop offset="0" stop-color="#3C71A1"/><stop offset=".434" stop-color="#619BC7"/><stop offset=".791" stop-color="#79B6E0"/><stop offset="1" stop-color="#82C0E9"/></linearGradient><path class="st3" d="M-357.7 713.1h-2c-.2 0-.4-.1-.6-.2-.2-.1-.2-.3-.2-.5l-.6-3.5h-5.4l-1.4 3.5c-.1.2-.2.3-.4.5-.2.1-.4.2-.6.2h-2.1l7-16.6h2.7l3.6 16.6zm-8-6.2h4.2l-1-5.7c0-.3-.1-.6-.2-.9-.1-.3-.1-.6-.2-1-.1.4-.2.7-.4 1.1-.1.3-.2.6-.4.9l-2 5.6z"/><linearGradient id="SVGID_5_" gradientUnits="userSpaceOnUse" x1="-352.15" y1="710.91" x2="-352.15" y2="694.31" gradientTransform="translate(0 2.22)"><stop offset="0" stop-color="#3C71A1"/><stop offset=".434" stop-color="#619BC7"/><stop offset=".791" stop-color="#79B6E0"/><stop offset="1" stop-color="#82C0E9"/></linearGradient><path class="st4" d="M-346.7 696.5l-.3 2.4h-4l-1.5 14.2h-2.6l1.5-14.2h-4l.3-2.4h10.6z"/><linearGradient id="SVGID_6_" gradientUnits="userSpaceOnUse" x1="-340.35" y1="711.08" x2="-340.35" y2="694.28" gradientTransform="translate(0 2.22)"><stop offset="0" stop-color="#3C71A1"/><stop offset=".434" stop-color="#619BC7"/><stop offset=".791" stop-color="#79B6E0"/><stop offset="1" stop-color="#82C0E9"/></linearGradient><path class="st5" d="M-341.3 710.7c.5 0 .9-.1 1.3-.3.4-.2.7-.5 1-.9.3-.4.5-.8.7-1.3.2-.5.3-1.1.4-1.7l1.1-10h2.6l-1.1 10c-.1 1-.3 1.9-.7 2.7-.3.8-.8 1.6-1.3 2.2-.6.6-1.2 1.1-1.9 1.4-.7.3-1.5.5-2.4.5-.8 0-1.5-.1-2.1-.4-.6-.3-1.1-.7-1.5-1.2-.4-.5-.7-1.1-1-1.8-.2-.7-.3-1.5-.3-2.3 0-.3 0-.7.1-1.1l1.1-10h2.6l-1.1 10v.8c0 .5.1 1 .2 1.4.1.4.3.8.5 1.1.2.3.5.5.8.7.2.1.6.2 1 .2z"/><linearGradient id="SVGID_7_" gradientUnits="userSpaceOnUse" x1="-328" y1="710.9" x2="-328" y2="694.28" gradientTransform="translate(0 2.22)"><stop offset="0" stop-color="#3C71A1"/><stop offset=".434" stop-color="#619BC7"/><stop offset=".791" stop-color="#79B6E0"/><stop offset="1" stop-color="#82C0E9"/></linearGradient><path class="st6" d="M-330.1 706.6l-.7 6.5h-2.6l1.8-16.6h4.1c.8 0 1.6.1 2.2.3.6.2 1.1.5 1.5.9.4.4.7.8.9 1.3.2.5.3 1.1.3 1.7 0 .6-.1 1.2-.2 1.8-.2.6-.4 1.1-.7 1.5-.3.5-.7.9-1.1 1.2-.4.3-.9.6-1.5.8.1.1.3.2.4.4.1.2.2.3.3.6l2.6 6.2h-2.3c-.2 0-.4-.1-.6-.2-.2-.1-.3-.2-.3-.4l-2.1-5.4c-.1-.2-.2-.3-.3-.4-.1-.1-.3-.1-.6-.1l-1.1-.1zm.8-7.8l-.6 5.6h1.5c.5 0 1-.1 1.4-.3.4-.2.7-.4.9-.7.2-.3.4-.7.6-1.1.1-.4.2-.8.2-1.3 0-.7-.2-1.3-.6-1.7-.4-.4-1-.6-1.8-.6l-1.6.1z"/><linearGradient id="SVGID_8_" gradientUnits="userSpaceOnUse" x1="-316.1" y1="710.88" x2="-316.1" y2="694.26" gradientTransform="translate(0 2.22)"><stop offset="0" stop-color="#3C71A1"/><stop offset=".434" stop-color="#619BC7"/><stop offset=".791" stop-color="#79B6E0"/><stop offset="1" stop-color="#82C0E9"/></linearGradient><path class="st7" d="M-309.5 713.1h-2c-.2 0-.4-.1-.6-.2-.1-.1-.2-.3-.2-.5l-.6-3.5h-5.4l-1.3 3.5c-.1.2-.2.3-.4.5-.2.1-.4.2-.6.2h-2.1l7-16.6h2.7l3.5 16.6zm-8.1-6.3h4.2l-1-5.7c-.1-.3-.1-.6-.2-.9s-.1-.6-.2-1c-.1.4-.2.7-.4 1.1l-.3.9-2.1 5.6z"/><linearGradient id="SVGID_9_" gradientUnits="userSpaceOnUse" x1="-304.25" y1="710.88" x2="-304.25" y2="694.28" gradientTransform="translate(0 2.22)"><stop offset="0" stop-color="#3C71A1"/><stop offset=".434" stop-color="#619BC7"/><stop offset=".791" stop-color="#79B6E0"/><stop offset="1" stop-color="#82C0E9"/></linearGradient><path class="st8" d="M-305.5 710.6h5.3l-.2 2.5h-7.9l1.8-16.6h2.6l-1.6 14.1z"/><linearGradient id="XMLID_3_" gradientUnits="userSpaceOnUse" x1="-288.8" y1="714.86" x2="-288.8" y2="687.953" gradientTransform="translate(0 2.22)"><stop offset="0" stop-color="#3C71A1"/><stop offset=".434" stop-color="#619BC7"/><stop offset=".791" stop-color="#79B6E0"/><stop offset="1" stop-color="#82C0E9"/></linearGradient><path id="XMLID_1_" class="st9" d="M-296.8 717.1c-.3-.1-.5-.3-.7-.5-.1-.1-.2-.3-.2-.5v-.1h-.1v-.4l.1-.1c.1-.3.3-.6.4-.9.4-.8.9-1.6 1.5-2.4.4-.6.9-1.2 1.4-1.7l.6-.6-.5-.6c-.2-.2-.4-.5-.6-.7-.3-.5-.6-1.1-.7-1.8-.1-.6-.2-1.2-.1-1.8.1-1.4.6-2.6 1.4-3.7.2-.3.5-.6.8-.9.7-.6 1.4-1.1 2.2-1.6.6-.4 1.3-.8 2.1-1.3l2.1-1.2c.8-.4 1.4-.9 2.1-1.3.6-.4 1.2-.8 1.6-1.2.5-.4.9-.9 1.4-1.4.4-.5.8-1 1.1-1.5l.1-.1c.1-.1.1-.2.1-.2.1-.1.1-.2.2-.2l.1-.1s.1-.1.3 0c.2.1.2.2.2.2s.1.3.1.4c0 .2 0 .4-.1.6l-.1.6c0 .2 0 .4-.1.5 0 0-.3 2.8-.3 3.1l-.1.5c0 .2 0 .5-.1.7v.5l-.3 2.6v.5l-.2 1.8c0 .2-.1.8-.1.8-.1.4-.1.8-.2 1.2-.2.7-.3 1.4-.5 2-.3.7-.6 1.4-.9 2-.3.5-.7.9-1 1.3-.5.4-1 .8-1.6 1.1-.4.2-.9.4-1.4.5-.4.1-.7.1-1 .2-.3.1-.7.1-1 .1h-1.1l-.9-.1s-.4-.1-.5-.1l-.7-.1-.8-.2c-.2.2-.3.4-.4.6-.3.4-.5.9-.8 1.4-.4.9-.8 1.9-1.2 3.1-.1.3-.2.6-.3.8 0 .1-.1.2-.3.3-.2.1-.3.2-.5.2h-.1l-.4-.3zm2.2-5.2c-.4.5-.8 1-1.2 1.6-.5.7-.8 1.3-1.1 1.9 0 .1-.1.2-.1.2l-.1.2.2.2c.1.1.2.2.3.2.1 0 .2 0 .3-.1v-.1c.1-.3.2-.5.3-.8.4-1.1.8-2.1 1.2-3 .1-.1.1-.2.2-.3zm1.9-2.1c.4.1.8.1 1.2.2.4.1.8.1 1.2.1.3 0 .7.1 1 .1h1.1c.3 0 .7-.1 1-.1.5-.1.9-.2 1.3-.4.5-.2 1-.5 1.4-.9.3-.3.6-.7.9-1.1.1-.1.1-.2.2-.3l-8 .3c-.2.4-.4.7-.6 1.1-.3.3-.5.6-.7 1zm-1.2-8c-.3.4-.5.8-.7 1.2-.3.7-.5 1.5-.5 2.4 0 .5 0 .9.1 1.3.1.5.3 1 .5 1.4.2.3.4.5.6.8.1.1.5.6.5.6s.2-.4.3-.5l.5-.9.4-.8-1.7-5.5zm4.7 2.3c-.2.3-.5.6-.7.9-.3.4-.5.9-.8 1.3-.1.2-.2.3-.3.5 0 0 6.4-.2 6.7-.2h1.2c.4-.9.6-1.8.8-2.9l-6.9.4zm-4-3c.2.7 1.2 3.9 1.6 5.1l.3-.6c.4-.7.8-1.4 1.3-2l.1-.1-1-4.2c-.9.6-1.7 1.2-2.3 1.8zm6.7-.3l-.3.4c-.4.5-.8 1-1.3 1.4-.2.2-.3.4-.4.5l6.5-.5v-.2c0-.2.1-.5.1-.7s.1-1.5.1-1.5c0 .1-4.4.6-4.7.6zm-2.8 2c.3-.4.6-.8 1-1.1.4-.5.8-.9 1.2-1.4l-.1-.8-.3-2.2c-.3.2-1.6.9-1.6.9-.3.2-.7.4-1 .6l-.1.1c.2.8.9 3.9.9 3.9zm5.7-4.8c-.1 0-.3.1-.4.1-.4.5-.9 1.1-1.4 1.6l-.2.2s3.4-.4 3.6-.4h.3c0-.4.1-1.3.2-1.8l-2.1.3zm-3.1-1.1c.1.5.1 1.1.2 1.6l.1.9c.2-.2.3-.4.5-.5.4-.5.8-.9 1.2-1.4l-.3-1.7-.3.2c-.4.4-.9.7-1.4.9zm5.6-3.3c-.1.3-.2.6-.3.8-.4.8-1 1.6-1.6 2.4-.1.1-.2.2-.3.4l1.9-.3.3-3.3zm-2.9 3.1l.9-1.2c.5-.8.9-1.5 1.3-2.2l-.1.1c-.3.4-.7.7-1.1 1l-1.2.9c0 .1.2 1.4.2 1.4z"/><linearGradient id="SVGID_10_" gradientUnits="userSpaceOnUse" x1="-369.35" y1="755.88" x2="-369.35" y2="716.52" gradientTransform="translate(0 2.22)"><stop offset="0" stop-color="#3C71A1"/><stop offset=".434" stop-color="#619BC7"/><stop offset=".791" stop-color="#79B6E0"/><stop offset="1" stop-color="#82C0E9"/></linearGradient><path class="st10" d="M-374.9 744.9v13.2h-8.8v-39.4h13.4c2.7 0 5 .3 6.9 1 1.9.7 3.5 1.6 4.7 2.7 1.2 1.1 2.2 2.5 2.8 4.1.6 1.6.9 3.3.9 5.1 0 2-.3 3.8-.9 5.4-.6 1.6-1.5 3-2.8 4.2-1.2 1.2-2.8 2.1-4.8 2.7-1.9.7-4.2 1-6.8 1h-4.6zm0-6.9h4.6c2.3 0 3.9-.6 4.9-1.7 1-1.1 1.5-2.7 1.5-4.8 0-.9-.1-1.7-.4-2.5-.3-.7-.7-1.4-1.2-1.9s-1.2-.9-2-1.2c-.8-.3-1.8-.4-2.9-.4h-4.6V738h.1z"/><linearGradient id="SVGID_11_" gradientUnits="userSpaceOnUse" x1="-335.1" y1="755.88" x2="-335.1" y2="716.48" gradientTransform="translate(0 2.22)"><stop offset="0" stop-color="#3C71A1"/><stop offset=".434" stop-color="#619BC7"/><stop offset=".791" stop-color="#79B6E0"/><stop offset="1" stop-color="#82C0E9"/></linearGradient><path class="st11" d="M-341.8 743.5v14.6h-8.8v-39.4h12.4c2.8 0 5.1.3 7 .9 1.9.6 3.5 1.4 4.7 2.5 1.2 1 2.1 2.3 2.7 3.7s.8 3 .8 4.7c0 1.3-.2 2.5-.5 3.6s-.8 2.2-1.5 3.1c-.6 1-1.4 1.8-2.4 2.6s-2 1.4-3.3 1.9c.6.3 1.1.7 1.6 1.1.5.5 1 1 1.4 1.6l8.1 13.7h-8c-1.5 0-2.5-.6-3.2-1.7l-6.3-11.4c-.3-.5-.6-.8-1-1.1-.4-.2-.9-.3-1.6-.3l-2.1-.1zm0-6.3h3.5c1.2 0 2.2-.2 3.1-.5.8-.3 1.5-.8 2.1-1.3.5-.6.9-1.2 1.2-2 .2-.8.4-1.6.4-2.4 0-1.7-.5-3.1-1.6-4-1.1-1-2.8-1.5-5-1.5h-3.5c-.2.1-.2 11.7-.2 11.7z"/><linearGradient id="SVGID_12_" gradientUnits="userSpaceOnUse" x1="-299.4" y1="756.28" x2="-299.4" y2="716.05" gradientTransform="translate(0 2.22)"><stop offset="0" stop-color="#3C71A1"/><stop offset=".434" stop-color="#619BC7"/><stop offset=".791" stop-color="#79B6E0"/><stop offset="1" stop-color="#82C0E9"/></linearGradient><path class="st12" d="M-279.7 738.4c0 2.8-.5 5.5-1.4 7.9-.9 2.4-2.3 4.6-4 6.4-1.7 1.8-3.8 3.2-6.2 4.3-2.4 1-5.1 1.5-8.1 1.5-2.9 0-5.7-.5-8.1-1.5-2.4-1-4.5-2.4-6.2-4.3-1.7-1.8-3.1-3.9-4-6.4s-1.4-5.1-1.4-7.9c0-2.9.5-5.5 1.4-7.9.9-2.4 2.3-4.6 4-6.4 1.7-1.8 3.8-3.2 6.2-4.2s5.1-1.5 8.1-1.5 5.6.5 8.1 1.6c2.4 1 4.5 2.5 6.2 4.3 1.7 1.8 3.1 3.9 4 6.4.9 2.2 1.4 4.9 1.4 7.7zm-9 0c0-2-.2-3.7-.7-5.3-.5-1.5-1.2-2.9-2.1-4-.9-1.1-2-1.9-3.3-2.5-1.3-.6-2.8-.9-4.5-.9-1.7 0-3.2.3-4.5.9-1.3.6-2.4 1.4-3.4 2.5-.9 1.1-1.6 2.4-2.1 4s-.7 3.3-.7 5.3.2 3.7.7 5.3c.5 1.6 1.2 2.9 2.1 4 .9 1.1 2 1.9 3.4 2.5 1.3.6 2.8.9 4.5.9 1.7 0 3.2-.3 4.5-.9 1.3-.6 2.4-1.4 3.3-2.5.9-1.1 1.6-2.4 2.1-4 .4-1.6.7-3.3.7-5.3z"/><linearGradient id="SVGID_13_" gradientUnits="userSpaceOnUse" x1="-263.2" y1="755.88" x2="-263.2" y2="716.48" gradientTransform="translate(0 2.22)"><stop offset="0" stop-color="#3C71A1"/><stop offset=".434" stop-color="#619BC7"/><stop offset=".791" stop-color="#79B6E0"/><stop offset="1" stop-color="#82C0E9"/></linearGradient><path class="st13" d="M-248.1 718.7v7.2h-10.7v32.2h-8.8V726h-10.7v-7.2c0-.1 30.2-.1 30.2-.1z"/><linearGradient id="SVGID_14_" gradientUnits="userSpaceOnUse" x1="-231.4" y1="755.88" x2="-231.4" y2="716.48" gradientTransform="translate(0 2.22)"><stop offset="0" stop-color="#3C71A1"/><stop offset=".434" stop-color="#619BC7"/><stop offset=".791" stop-color="#79B6E0"/><stop offset="1" stop-color="#82C0E9"/></linearGradient><path class="st14" d="M-219.2 718.7v7h-15.6v9.2h11.9v6.8h-11.9v9.4h15.6v7h-24.4v-39.4h24.4z"/><linearGradient id="SVGID_15_" gradientUnits="userSpaceOnUse" x1="-209.45" y1="755.88" x2="-209.45" y2="716.52" gradientTransform="translate(0 2.22)"><stop offset="0" stop-color="#3C71A1"/><stop offset=".434" stop-color="#619BC7"/><stop offset=".791" stop-color="#79B6E0"/><stop offset="1" stop-color="#82C0E9"/></linearGradient><path class="st15" d="M-205 758.1h-8.9v-39.4h8.9v39.4z"/><linearGradient id="SVGID_16_" gradientUnits="userSpaceOnUse" x1="-181.1" y1="755.88" x2="-181.1" y2="716.48" gradientTransform="translate(0 2.22)"><stop offset="0" stop-color="#3C71A1"/><stop offset=".434" stop-color="#619BC7"/><stop offset=".791" stop-color="#79B6E0"/><stop offset="1" stop-color="#82C0E9"/></linearGradient><path class="st16" d="M-192 718.8c.3 0 .5.1.7.2.2.1.4.2.6.4.2.2.4.4.6.7l18 23.6c-.1-.8-.1-1.5-.2-2.2 0-.7-.1-1.4-.1-2v-20.8h7.8v39.4h-4.4c-.7 0-1.2-.1-1.7-.3s-.9-.6-1.4-1.2l-17.9-23.5c.1.7.1 1.4.1 2 0 .7.1 1.3.1 1.9v21.1h-7.8v-39.4h4.6c.4 0 .7 0 1 .1z"/><linearGradient id="SVGID_17_" gradientUnits="userSpaceOnUse" x1="-371.25" y1="790.88" x2="-371.25" y2="759.02" gradientTransform="translate(0 2.22)"><stop offset="0" stop-color="#3C71A1"/><stop offset=".434" stop-color="#619BC7"/><stop offset=".791" stop-color="#79B6E0"/><stop offset="1" stop-color="#82C0E9"/></linearGradient><path class="st17" d="M-356.4 777.1c0 2.3-.4 4.4-1.1 6.3-.7 1.9-1.7 3.6-3 5.1-1.3 1.4-2.8 2.6-4.7 3.4-1.8.8-3.8 1.2-6 1.2s-4.2-.4-6.1-1.2c-1.8-.8-3.4-1.9-4.7-3.4-1.3-1.4-2.3-3.1-3-5.1-.7-1.9-1.1-4-1.1-6.3s.4-4.4 1.1-6.3c.7-1.9 1.7-3.6 3-5s2.9-2.6 4.7-3.4c1.8-.8 3.8-1.2 6.1-1.2s4.2.4 6.1 1.2c1.8.8 3.4 2 4.7 3.4 1.3 1.4 2.3 3.1 3 5.1.6 1.9 1 4 1 6.2zm-6.8 0c0-1.5-.2-2.9-.6-4.2-.4-1.2-.9-2.3-1.6-3.1-.7-.9-1.5-1.5-2.5-2s-2.1-.7-3.4-.7c-1.3 0-2.4.2-3.4.7s-1.8 1.1-2.5 2c-.7.9-1.2 1.9-1.6 3.1-.4 1.2-.6 2.6-.6 4.2s.2 3 .6 4.2c.4 1.2.9 2.3 1.6 3.1.7.9 1.5 1.5 2.5 2 1 .4 2.1.7 3.4.7s2.4-.2 3.4-.7 1.8-1.1 2.5-2c.7-.9 1.2-1.9 1.6-3.1.4-1.2.6-2.6.6-4.2z"/><linearGradient id="SVGID_18_" gradientUnits="userSpaceOnUse" x1="-340.1" y1="790.58" x2="-340.1" y2="759.38" gradientTransform="translate(0 2.22)"><stop offset="0" stop-color="#3C71A1"/><stop offset=".434" stop-color="#619BC7"/><stop offset=".791" stop-color="#79B6E0"/><stop offset="1" stop-color="#82C0E9"/></linearGradient><path class="st18" d="M-348.3 761.6c.2 0 .4.1.5.2.2.1.3.2.4.3.1.1.3.3.5.6l13.5 18.7c0-.6-.1-1.2-.1-1.7v-18.1h5.8v31.2h-3.4c-.5 0-.9-.1-1.3-.3-.4-.2-.7-.5-1-.9l-13.4-18.6c0 .5.1 1.1.1 1.6v18.2h-5.8v-31.2h4.2z"/><linearGradient id="SVGID_19_" gradientUnits="userSpaceOnUse" x1="-300.7" y1="790.58" x2="-300.7" y2="759.38" gradientTransform="translate(0 2.22)"><stop offset="0" stop-color="#3C71A1"/><stop offset=".434" stop-color="#619BC7"/><stop offset=".791" stop-color="#79B6E0"/><stop offset="1" stop-color="#82C0E9"/></linearGradient><path class="st19" d="M-289.4 761.6v5.7h-8v25.5h-6.6v-25.5h-8v-5.7h22.6z"/><linearGradient id="SVGID_20_" gradientUnits="userSpaceOnUse" x1="-273.7" y1="790.54" x2="-273.7" y2="759.34" gradientTransform="translate(0 2.22)"><stop offset="0" stop-color="#3C71A1"/><stop offset=".434" stop-color="#619BC7"/><stop offset=".791" stop-color="#79B6E0"/><stop offset="1" stop-color="#82C0E9"/></linearGradient><path class="st20" d="M-261.2 792.8h-6.7v-13.2h-11.6v13.2h-6.7v-31.2h6.7v13h11.6v-13h6.7v31.2z"/><linearGradient id="SVGID_21_" gradientUnits="userSpaceOnUse" x1="-246.55" y1="790.55" x2="-246.55" y2="759.35" gradientTransform="translate(0 2.22)"><stop offset="0" stop-color="#3C71A1"/><stop offset=".434" stop-color="#619BC7"/><stop offset=".791" stop-color="#79B6E0"/><stop offset="1" stop-color="#82C0E9"/></linearGradient><path class="st21" d="M-237.4 761.6v5.6h-11.7v7.3h8.9v5.4h-8.9v7.4h11.7v5.6h-18.3v-31.2l18.3-.1z"/><linearGradient id="SVGID_22_" gradientUnits="userSpaceOnUse" x1="-207.5" y1="790.88" x2="-207.5" y2="759" gradientTransform="translate(0 2.22)"><stop offset="0" stop-color="#3C71A1"/><stop offset=".434" stop-color="#619BC7"/><stop offset=".791" stop-color="#79B6E0"/><stop offset="1" stop-color="#82C0E9"/></linearGradient><path class="st22" d="M-199.5 792.3c-1.6.5-3.4.8-5.2.8-2.4 0-4.5-.4-6.4-1.2-1.9-.8-3.6-1.9-4.9-3.3-1.4-1.4-2.4-3.1-3.2-5-.7-2-1.1-4.1-1.1-6.4s.4-4.5 1.1-6.4c.7-1.9 1.7-3.6 3-5s2.9-2.5 4.8-3.3c1.9-.8 3.9-1.2 6.2-1.2 1.2 0 2.3.1 3.3.3 1 .2 2 .5 2.9.9.9.4 1.7.8 2.4 1.3s1.4 1.1 1.9 1.7l-1.9 3.2c-.3.5-.7.8-1.2.9-.5.1-1 0-1.5-.4l-1.5-.9c-.5-.2-.9-.4-1.4-.6s-1-.3-1.5-.3c-.5-.1-1.1-.1-1.8-.1-1.2 0-2.4.2-3.3.7-1 .5-1.8 1.1-2.5 2-.7.9-1.2 1.9-1.6 3.1-.4 1.2-.6 2.6-.6 4.1 0 1.7.2 3.1.6 4.4.4 1.3 1 2.4 1.8 3.2.8.9 1.7 1.6 2.7 2 1.1.5 2.2.7 3.5.7.8 0 1.5-.1 2.2-.3.6-.2 1.3-.4 1.9-.7v-4.7h-2.8c-.4 0-.7-.1-1-.4-.2-.2-.4-.5-.4-.9v-4h10.1v13.2c-1.4 1.2-3 2.1-4.6 2.6z"/><linearGradient id="SVGID_23_" gradientUnits="userSpaceOnUse" x1="-177.3" y1="790.88" x2="-177.3" y2="759.02" gradientTransform="translate(0 2.22)"><stop offset="0" stop-color="#3C71A1"/><stop offset=".434" stop-color="#619BC7"/><stop offset=".791" stop-color="#79B6E0"/><stop offset="1" stop-color="#82C0E9"/></linearGradient><path class="st23" d="M-162.5 777.1c0 2.3-.4 4.4-1.1 6.3-.7 1.9-1.7 3.6-3 5.1-1.3 1.4-2.8 2.6-4.7 3.4-1.9.8-3.7 1.2-5.9 1.2s-4.2-.4-6.1-1.2c-1.8-.8-3.4-1.9-4.7-3.4-1.3-1.4-2.3-3.1-3-5.1-.7-1.9-1.1-4-1.1-6.3s.4-4.4 1.1-6.3c.7-1.9 1.7-3.6 3-5s2.9-2.6 4.7-3.4 3.9-1.2 6.1-1.2 4.2.4 6.1 1.2c1.9.8 3.4 2 4.7 3.4 1.3 1.4 2.3 3.1 3 5.1.6 1.9.9 4 .9 6.2zm-6.7 0c0-1.5-.2-2.9-.6-4.2-.4-1.2-.9-2.3-1.6-3.1-.7-.9-1.5-1.5-2.5-2s-2.1-.7-3.4-.7-2.4.2-3.4.7-1.8 1.1-2.5 2c-.7.9-1.2 1.9-1.6 3.1-.4 1.2-.6 2.6-.6 4.2s.2 3 .6 4.2c.4 1.2.9 2.3 1.6 3.1.7.9 1.5 1.5 2.5 2 1 .4 2.1.7 3.4.7s2.4-.2 3.4-.7 1.8-1.1 2.5-2c.7-.9 1.2-1.9 1.6-3.1.4-1.2.6-2.6.6-4.2z"/></svg>