<svg version="1.1" id="Layer_1" xmlns="http://www.w3.org/2000/svg" x="0" y="0" viewBox="-193 345.1 223.5 102.9" xml:space="preserve"><style type="text/css">.st0{fill:url(#SVGID_1_);} .st1{fill:url(#SVGID_2_);} .st2{fill:url(#SVGID_3_);} .st3{fill:url(#SVGID_4_);} .st4{fill:url(#SVGID_5_);} .st5{fill:url(#SVGID_6_);} .st6{fill:url(#SVGID_7_);} .st7{fill:url(#SVGID_8_);} .st8{fill:url(#SVGID_9_);} .st9{fill:url(#XMLID_3_);} .st10{fill:url(#SVGID_10_);} .st11{fill:url(#SVGID_11_);} .st12{fill:url(#SVGID_12_);} .st13{fill:url(#SVGID_13_);} .st14{fill:url(#SVGID_14_);} .st15{fill:url(#SVGID_15_);} .st16{fill:url(#SVGID_16_);} .st17{fill:url(#SVGID_17_);} .st18{fill:url(#SVGID_18_);} .st19{fill:url(#SVGID_19_);} .st20{fill:url(#SVGID_20_);} .st21{fill:url(#SVGID_21_);} .st22{fill:url(#SVGID_22_);} .st23{fill:url(#SVGID_23_);}</style><linearGradient id="SVGID_1_" gradientUnits="userSpaceOnUse" x1="-124.945" y1="359.35" x2="-124.945" y2="365.11" gradientTransform="matrix(1 0 0 -1 0 794.22)"><stop offset="0" stop-color="#3C71A1"/><stop offset=".434" stop-color="#619BC7"/><stop offset=".791" stop-color="#79B6E0"/><stop offset="1" stop-color="#82C0E9"/></linearGradient><path class="st0" d="M-130.7 429.1h11.5v5.8h-11.5v-5.8z"/><linearGradient id="SVGID_2_" gradientUnits="userSpaceOnUse" x1="-36.605" y1="359.35" x2="-36.605" y2="365.11" gradientTransform="matrix(1 0 0 -1 0 794.22)"><stop offset="0" stop-color="#3C71A1"/><stop offset=".434" stop-color="#619BC7"/><stop offset=".791" stop-color="#79B6E0"/><stop offset="1" stop-color="#82C0E9"/></linearGradient><path class="st1" d="M-42.4 429.1h11.5v5.8h-11.5v-5.8z"/><linearGradient id="SVGID_3_" gradientUnits="userSpaceOnUse" x1="-183.895" y1="426.15" x2="-183.895" y2="442.77" gradientTransform="matrix(1 0 0 -1 0 794.22)"><stop offset="0" stop-color="#3C71A1"/><stop offset=".434" stop-color="#619BC7"/><stop offset=".791" stop-color="#79B6E0"/><stop offset="1" stop-color="#82C0E9"/></linearGradient><path class="st2" d="M-187 351.5c.1 0 .1 0 .2.1.1 0 .1.1.2.1 0 .1.1.1.1.2l5.7 11.3v-.6c0-.2 0-.4.1-.6l1.1-10.6h2.3l-1.8 16.6h-1.3c-.2 0-.4 0-.5-.1-.1-.1-.3-.2-.4-.4l-5.6-11.3v1L-188 368h-2.3l1.8-16.6h1.4c-.1.1 0 .1.1.1z"/><linearGradient id="SVGID_4_" gradientUnits="userSpaceOnUse" x1="-171.29" y1="426.16" x2="-171.29" y2="442.78" gradientTransform="matrix(1 0 0 -1 0 794.22)"><stop offset="0" stop-color="#3C71A1"/><stop offset=".434" stop-color="#619BC7"/><stop offset=".791" stop-color="#79B6E0"/><stop offset="1" stop-color="#82C0E9"/></linearGradient><path class="st3" d="M-164.7 368h-2c-.2 0-.4-.1-.6-.2s-.2-.3-.2-.5l-.6-3.5h-5.4l-1.4 3.5c-.1.2-.2.3-.4.5-.2.1-.4.2-.6.2h-2.1l7-16.6h2.7l3.6 16.6zm-8-6.2h4.2l-1-5.7c0-.3-.1-.6-.2-.9-.1-.3-.1-.6-.2-1-.1.4-.2.7-.4 1.1-.1.3-.2.6-.4.9l-2 5.6z"/><linearGradient id="SVGID_5_" gradientUnits="userSpaceOnUse" x1="-159.145" y1="426.19" x2="-159.145" y2="442.8" gradientTransform="matrix(1 0 0 -1 0 794.22)"><stop offset="0" stop-color="#3C71A1"/><stop offset=".434" stop-color="#619BC7"/><stop offset=".791" stop-color="#79B6E0"/><stop offset="1" stop-color="#82C0E9"/></linearGradient><path class="st4" d="M-153.7 351.4l-.3 2.4h-4l-1.5 14.2h-2.6l1.5-14.2h-4l.3-2.4h10.6z"/><linearGradient id="SVGID_6_" gradientUnits="userSpaceOnUse" x1="-147.305" y1="426.02" x2="-147.305" y2="442.82" gradientTransform="matrix(1 0 0 -1 0 794.22)"><stop offset="0" stop-color="#3C71A1"/><stop offset=".434" stop-color="#619BC7"/><stop offset=".791" stop-color="#79B6E0"/><stop offset="1" stop-color="#82C0E9"/></linearGradient><path class="st5" d="M-148.3 365.6c.5 0 .9-.1 1.3-.3.4-.2.7-.5 1-.9.3-.4.5-.8.7-1.3.2-.5.3-1.1.4-1.7l1.1-10h2.6l-1.1 10c-.1 1-.3 1.9-.7 2.7-.3.8-.8 1.6-1.3 2.2-.6.6-1.2 1.1-1.9 1.4-.7.3-1.5.5-2.4.5-.8 0-1.5-.1-2.1-.4-.6-.3-1.1-.7-1.5-1.2-.4-.5-.7-1.1-1-1.8-.2-.7-.3-1.5-.3-2.3 0-.3 0-.7.1-1.1l1.1-10h2.6l-1.1 10v.8c0 .5.1 1 .2 1.4.1.4.3.8.5 1.1.2.3.5.5.8.7.2.1.6.2 1 .2z"/><linearGradient id="SVGID_7_" gradientUnits="userSpaceOnUse" x1="-135.07" y1="426.2" x2="-135.07" y2="442.82" gradientTransform="matrix(1 0 0 -1 0 794.22)"><stop offset="0" stop-color="#3C71A1"/><stop offset=".434" stop-color="#619BC7"/><stop offset=".791" stop-color="#79B6E0"/><stop offset="1" stop-color="#82C0E9"/></linearGradient><path class="st6" d="M-137.1 361.5l-.7 6.5h-2.6l1.8-16.6h4.1c.8 0 1.6.1 2.2.3.6.2 1.1.5 1.5.9.4.4.7.8.9 1.3.2.5.3 1.1.3 1.7 0 .6-.1 1.2-.2 1.8-.2.6-.4 1.1-.7 1.5-.3.5-.7.9-1.1 1.2s-.9.6-1.5.8c.1.1.3.2.4.4.1.2.2.3.3.6l2.6 6.2h-2.3c-.2 0-.4-.1-.6-.2-.2-.1-.3-.2-.3-.4l-2.1-5.4c-.1-.2-.2-.3-.3-.4-.1-.1-.3-.1-.6-.1l-1.1-.1zm.8-7.8l-.6 5.6h1.5c.5 0 1-.1 1.4-.3.4-.2.7-.4.9-.7.2-.3.4-.7.6-1.1.1-.4.2-.8.2-1.3 0-.7-.2-1.3-.6-1.7-.4-.4-1-.6-1.8-.6l-1.6.1z"/><linearGradient id="SVGID_8_" gradientUnits="userSpaceOnUse" x1="-123.12" y1="426.23" x2="-123.12" y2="442.85" gradientTransform="matrix(1 0 0 -1 0 794.22)"><stop offset="0" stop-color="#3C71A1"/><stop offset=".434" stop-color="#619BC7"/><stop offset=".791" stop-color="#79B6E0"/><stop offset="1" stop-color="#82C0E9"/></linearGradient><path class="st7" d="M-116.5 368h-2c-.2 0-.4-.1-.6-.2-.1-.1-.2-.3-.2-.5l-.6-3.5h-5.4l-1.3 3.5c-.1.2-.2.3-.4.5-.2.1-.4.2-.6.2h-2.1l7-16.6h2.7l3.5 16.6zm-8.1-6.3h4.2l-1-5.7c-.1-.3-.1-.6-.2-.9-.1-.3-.1-.6-.2-1-.1.4-.2.7-.4 1.1l-.3.9-2.1 5.6z"/><linearGradient id="SVGID_9_" gradientUnits="userSpaceOnUse" x1="-111.27" y1="426.23" x2="-111.27" y2="442.84" gradientTransform="matrix(1 0 0 -1 0 794.22)"><stop offset="0" stop-color="#3C71A1"/><stop offset=".434" stop-color="#619BC7"/><stop offset=".791" stop-color="#79B6E0"/><stop offset="1" stop-color="#82C0E9"/></linearGradient><path class="st8" d="M-112.5 365.5h5.3l-.2 2.5h-7.9l1.8-16.6h2.6l-1.6 14.1z"/><linearGradient id="XMLID_3_" gradientUnits="userSpaceOnUse" x1="-95.975" y1="422.24" x2="-95.975" y2="449.147" gradientTransform="matrix(1 0 0 -1 0 794.22)"><stop offset="0" stop-color="#3C71A1"/><stop offset=".434" stop-color="#619BC7"/><stop offset=".791" stop-color="#79B6E0"/><stop offset="1" stop-color="#82C0E9"/></linearGradient><path id="XMLID_1_" class="st9" d="M-103.8 372c-.3-.1-.5-.3-.7-.5-.1-.1-.2-.3-.2-.5v-.1h-.1v-.4l.1-.1c.1-.3.3-.6.4-.9.4-.8.9-1.6 1.5-2.4.4-.6.9-1.2 1.4-1.7l.6-.6-.5-.6c-.2-.2-.4-.5-.6-.7-.3-.5-.6-1.1-.7-1.8-.1-.6-.2-1.2-.1-1.8.1-1.4.6-2.6 1.4-3.7.2-.3.5-.6.8-.9.7-.6 1.4-1.1 2.2-1.6.6-.4 1.3-.8 2.1-1.3l2.1-1.2c.8-.4 1.4-.9 2.1-1.3.6-.4 1.2-.8 1.6-1.2.5-.4.9-.9 1.4-1.4.4-.5.8-1 1.1-1.5l.1-.1c.1-.1.1-.2.1-.2.1-.1.1-.2.2-.2l.1-.1s.1-.1.3 0 .2.2.2.2.1.3.1.4c0 .2 0 .4-.1.6l-.1.6c0 .2 0 .4-.1.5 0 0-.3 2.8-.3 3.1l-.1.5c0 .2 0 .5-.1.7v.5l-.3 2.6v.5l-.2 1.8c0 .2-.1.8-.1.8-.1.4-.1.8-.2 1.2-.2.7-.3 1.4-.5 2-.3.7-.6 1.4-.9 2-.3.5-.7.9-1 1.3-.5.4-1 .8-1.6 1.1-.4.2-.9.4-1.4.5-.4.1-.7.1-1 .2s-.7.1-1 .1h-1.1c-.2 0-.9-.1-.9-.1s-.4-.1-.5-.1l-.7-.1-.8-.2c-.2.2-.3.4-.4.6-.3.4-.5.9-.8 1.4-.4.9-.8 1.9-1.2 3.1-.1.3-.2.6-.3.8 0 .1-.1.2-.3.3-.2.1-.3.2-.5.2h-.1l-.4-.3zm2.2-5.2c-.4.5-.8 1-1.2 1.6-.5.7-.8 1.3-1.1 1.9 0 .1-.1.2-.1.2l-.1.2.2.2c.1.1.2.2.3.2.1 0 .2 0 .3-.1v-.1c.1-.3.2-.5.3-.8.4-1.1.8-2.1 1.2-3 .1-.1.1-.2.2-.3zm1.9-2.1c.4.1.8.1 1.2.2.4.1.8.1 1.2.1.3 0 .7.1 1 .1h1.1c.3 0 .7-.1 1-.1.5-.1.9-.2 1.3-.4.5-.2 1-.5 1.4-.9.3-.3.6-.7.9-1.1.1-.1.1-.2.2-.3l-8 .3c-.2.4-.4.7-.6 1.1-.3.3-.5.6-.7 1zm-1.2-8c-.3.4-.5.8-.7 1.2-.3.7-.5 1.5-.5 2.4 0 .5 0 .9.1 1.3.1.5.3 1 .5 1.4.2.3.4.5.6.8.1.1.5.6.5.6s.2-.4.3-.5l.5-.9.4-.8-1.7-5.5zm4.7 2.3c-.2.3-.5.6-.7.9-.3.4-.5.9-.8 1.3-.1.2-.2.3-.3.5 0 0 6.4-.2 6.7-.2h1.2c.4-.9.6-1.8.8-2.9l-6.9.4zm-4-3c.2.7 1.2 3.9 1.6 5.1l.3-.6c.4-.7.8-1.4 1.3-2l.1-.1-1-4.2c-.9.6-1.7 1.2-2.3 1.8zm6.7-.3l-.3.4c-.4.5-.8 1-1.3 1.4-.2.2-.3.4-.4.5l6.5-.5v-.2c0-.2.1-.5.1-.7 0-.2.1-1.5.1-1.5 0 .1-4.4.6-4.7.6zm-2.8 2c.3-.4.6-.8 1-1.1.4-.5.8-.9 1.2-1.4l-.1-.8-.3-2.2c-.3.2-1.6.9-1.6.9-.3.2-.7.4-1 .6l-.1.1c.2.8.9 3.9.9 3.9zm5.7-4.8c-.1 0-.3.1-.4.1-.4.5-.9 1.1-1.4 1.6l-.2.2s3.4-.4 3.6-.4h.3c0-.4.1-1.3.2-1.8l-2.1.3zm-3.1-1.1c.1.5.1 1.1.2 1.6l.1.9c.2-.2.3-.4.5-.5.4-.5.8-.9 1.2-1.4l-.3-1.7-.3.2c-.4.4-.9.7-1.4.9zm5.6-3.3c-.1.3-.2.6-.3.8-.4.8-1 1.6-1.6 2.4-.1.1-.2.2-.3.4l1.9-.3.3-3.3zm-2.9 3.1l.9-1.2c.5-.8.9-1.5 1.3-2.2l-.1.1c-.3.4-.7.7-1.1 1l-1.2.9c0 .1.2 1.4.2 1.4z"/><linearGradient id="SVGID_10_" gradientUnits="userSpaceOnUse" x1="-176.38" y1="381.23" x2="-176.38" y2="420.59" gradientTransform="matrix(1 0 0 -1 0 794.22)"><stop offset="0" stop-color="#3C71A1"/><stop offset=".434" stop-color="#619BC7"/><stop offset=".791" stop-color="#79B6E0"/><stop offset="1" stop-color="#82C0E9"/></linearGradient><path class="st10" d="M-181.9 399.8V413h-8.8v-39.4h13.4c2.7 0 5 .3 6.9 1 1.9.7 3.5 1.6 4.7 2.7 1.2 1.1 2.2 2.5 2.8 4.1.6 1.6.9 3.3.9 5.1 0 2-.3 3.8-.9 5.4-.6 1.6-1.5 3-2.8 4.2-1.2 1.2-2.8 2.1-4.8 2.7-1.9.7-4.2 1-6.8 1h-4.6zm0-6.9h4.6c2.3 0 3.9-.6 4.9-1.7 1-1.1 1.5-2.7 1.5-4.8 0-.9-.1-1.7-.4-2.5-.3-.7-.7-1.4-1.2-1.9s-1.2-.9-2-1.2-1.8-.4-2.9-.4h-4.6v12.5z"/><linearGradient id="SVGID_11_" gradientUnits="userSpaceOnUse" x1="-142.035" y1="381.21" x2="-142.035" y2="420.59" gradientTransform="matrix(1 0 0 -1 0 794.22)"><stop offset="0" stop-color="#3C71A1"/><stop offset=".434" stop-color="#619BC7"/><stop offset=".791" stop-color="#79B6E0"/><stop offset="1" stop-color="#82C0E9"/></linearGradient><path class="st11" d="M-148.8 398.4V413h-8.8v-39.4h12.4c2.8 0 5.1.3 7 .9 1.9.6 3.5 1.4 4.7 2.5 1.2 1 2.1 2.3 2.7 3.7.6 1.4.8 3 .8 4.7 0 1.3-.2 2.5-.5 3.6s-.8 2.2-1.5 3.1c-.6 1-1.4 1.8-2.4 2.6s-2 1.4-3.3 1.9c.6.3 1.1.7 1.6 1.1.5.5 1 1 1.4 1.6l8.1 13.7h-8c-1.5 0-2.5-.6-3.2-1.7l-6.3-11.4c-.3-.5-.6-.8-1-1.1-.4-.2-.9-.3-1.6-.3l-2.1-.1zm0-6.3h3.5c1.2 0 2.2-.2 3.1-.5.8-.3 1.5-.8 2.1-1.3.5-.6.9-1.2 1.2-2 .2-.8.4-1.6.4-2.4 0-1.7-.5-3.1-1.6-4-1.1-1-2.8-1.5-5-1.5h-3.5c-.2.1-.2 11.7-.2 11.7z"/><linearGradient id="SVGID_12_" gradientUnits="userSpaceOnUse" x1="-106.435" y1="380.79" x2="-106.435" y2="421.02" gradientTransform="matrix(1 0 0 -1 0 794.22)"><stop offset="0" stop-color="#3C71A1"/><stop offset=".434" stop-color="#619BC7"/><stop offset=".791" stop-color="#79B6E0"/><stop offset="1" stop-color="#82C0E9"/></linearGradient><path class="st12" d="M-86.7 393.3c0 2.8-.5 5.5-1.4 7.9-.9 2.4-2.3 4.6-4 6.4s-3.8 3.2-6.2 4.3c-2.4 1-5.1 1.5-8.1 1.5-2.9 0-5.7-.5-8.1-1.5s-4.5-2.4-6.2-4.3c-1.7-1.8-3.1-3.9-4-6.4-.9-2.5-1.4-5.1-1.4-7.9 0-2.9.5-5.5 1.4-7.9s2.3-4.6 4-6.4 3.8-3.2 6.2-4.2 5.1-1.5 8.1-1.5 5.6.5 8.1 1.6c2.4 1 4.5 2.5 6.2 4.3 1.7 1.8 3.1 3.9 4 6.4.9 2.2 1.4 4.9 1.4 7.7zm-9 0c0-2-.2-3.7-.7-5.3-.5-1.5-1.2-2.9-2.1-4-.9-1.1-2-1.9-3.3-2.5-1.3-.6-2.8-.9-4.5-.9-1.7 0-3.2.3-4.5.9-1.3.6-2.4 1.4-3.4 2.5-.9 1.1-1.6 2.4-2.1 4s-.7 3.3-.7 5.3.2 3.7.7 5.3c.5 1.6 1.2 2.9 2.1 4 .9 1.1 2 1.9 3.4 2.5 1.3.6 2.8.9 4.5.9 1.7 0 3.2-.3 4.5-.9s2.4-1.4 3.3-2.5c.9-1.1 1.6-2.4 2.1-4 .4-1.6.7-3.3.7-5.3z"/><linearGradient id="SVGID_13_" gradientUnits="userSpaceOnUse" x1="-70.245" y1="381.22" x2="-70.245" y2="420.59" gradientTransform="matrix(1 0 0 -1 0 794.22)"><stop offset="0" stop-color="#3C71A1"/><stop offset=".434" stop-color="#619BC7"/><stop offset=".791" stop-color="#79B6E0"/><stop offset="1" stop-color="#82C0E9"/></linearGradient><path class="st13" d="M-55.1 373.6v7.2h-10.7V413h-8.8v-32.1h-10.7v-7.2c0-.1 30.2-.1 30.2-.1z"/><linearGradient id="SVGID_14_" gradientUnits="userSpaceOnUse" x1="-38.47" y1="381.22" x2="-38.47" y2="420.59" gradientTransform="matrix(1 0 0 -1 0 794.22)"><stop offset="0" stop-color="#3C71A1"/><stop offset=".434" stop-color="#619BC7"/><stop offset=".791" stop-color="#79B6E0"/><stop offset="1" stop-color="#82C0E9"/></linearGradient><path class="st14" d="M-26.2 373.6v7h-15.6v9.2h11.9v6.8h-11.9v9.4h15.6v7h-24.4v-39.4h24.4z"/><linearGradient id="SVGID_15_" gradientUnits="userSpaceOnUse" x1="-16.4" y1="381.23" x2="-16.4" y2="420.59" gradientTransform="matrix(1 0 0 -1 0 794.22)"><stop offset="0" stop-color="#3C71A1"/><stop offset=".434" stop-color="#619BC7"/><stop offset=".791" stop-color="#79B6E0"/><stop offset="1" stop-color="#82C0E9"/></linearGradient><path class="st15" d="M-12 413h-8.9v-39.4h8.9V413z"/><linearGradient id="SVGID_16_" gradientUnits="userSpaceOnUse" x1="11.96" y1="381.22" x2="11.96" y2="420.59" gradientTransform="matrix(1 0 0 -1 0 794.22)"><stop offset="0" stop-color="#3C71A1"/><stop offset=".434" stop-color="#619BC7"/><stop offset=".791" stop-color="#79B6E0"/><stop offset="1" stop-color="#82C0E9"/></linearGradient><path class="st16" d="M1 373.7c.3 0 .5.1.7.2.2.1.4.2.6.4s.4.4.6.7l18 23.6c-.1-.8-.1-1.5-.2-2.2 0-.7-.1-1.4-.1-2v-20.8h7.8V413H24c-.7 0-1.2-.1-1.7-.3-.5-.2-.9-.6-1.4-1.2L3 388c.1.7.1 1.4.1 2 0 .7.1 1.3.1 1.9V413h-7.8v-39.4H0c.4 0 .7 0 1 .1z"/><linearGradient id="SVGID_17_" gradientUnits="userSpaceOnUse" x1="-178.2" y1="346.23" x2="-178.2" y2="378.09" gradientTransform="matrix(1 0 0 -1 0 794.22)"><stop offset="0" stop-color="#3C71A1"/><stop offset=".434" stop-color="#619BC7"/><stop offset=".791" stop-color="#79B6E0"/><stop offset="1" stop-color="#82C0E9"/></linearGradient><path class="st17" d="M-163.4 432c0 2.3-.4 4.4-1.1 6.3-.7 1.9-1.7 3.6-3 5.1-1.3 1.4-2.8 2.6-4.7 3.4-1.8.8-3.8 1.2-6 1.2s-4.2-.4-6.1-1.2c-1.8-.8-3.4-1.9-4.7-3.4-1.3-1.4-2.3-3.1-3-5.1-.7-1.9-1.1-4-1.1-6.3s.4-4.4 1.1-6.3c.7-1.9 1.7-3.6 3-5s2.9-2.6 4.7-3.4 3.8-1.2 6.1-1.2 4.2.4 6.1 1.2c1.8.8 3.4 2 4.7 3.4 1.3 1.4 2.3 3.1 3 5.1.6 1.9 1 4 1 6.2zm-6.8 0c0-1.5-.2-2.9-.6-4.2-.4-1.2-.9-2.3-1.6-3.1-.7-.9-1.5-1.5-2.5-2s-2.1-.7-3.4-.7c-1.3 0-2.4.2-3.4.7-1 .5-1.8 1.1-2.5 2-.7.9-1.2 1.9-1.6 3.1-.4 1.2-.6 2.6-.6 4.2s.2 3 .6 4.2c.4 1.2.9 2.3 1.6 3.1.7.9 1.5 1.5 2.5 2 1 .4 2.1.7 3.4.7 1.3 0 2.4-.2 3.4-.7 1-.5 1.8-1.1 2.5-2 .7-.9 1.2-1.9 1.6-3.1.4-1.2.6-2.6.6-4.2z"/><linearGradient id="SVGID_18_" gradientUnits="userSpaceOnUse" x1="-147.08" y1="346.55" x2="-147.08" y2="377.75" gradientTransform="matrix(1 0 0 -1 0 794.22)"><stop offset="0" stop-color="#3C71A1"/><stop offset=".434" stop-color="#619BC7"/><stop offset=".791" stop-color="#79B6E0"/><stop offset="1" stop-color="#82C0E9"/></linearGradient><path class="st18" d="M-155.3 416.5c.2 0 .4.1.5.2.2.1.3.2.4.3.1.1.3.3.5.6l13.5 18.7c0-.6-.1-1.2-.1-1.7v-18.1h5.8v31.2h-3.4c-.5 0-.9-.1-1.3-.3-.4-.2-.7-.5-1-.9l-13.4-18.6c0 .5.1 1.1.1 1.6v18.2h-5.8v-31.2h4.2z"/><linearGradient id="SVGID_19_" gradientUnits="userSpaceOnUse" x1="-107.75" y1="346.55" x2="-107.75" y2="377.76" gradientTransform="matrix(1 0 0 -1 0 794.22)"><stop offset="0" stop-color="#3C71A1"/><stop offset=".434" stop-color="#619BC7"/><stop offset=".791" stop-color="#79B6E0"/><stop offset="1" stop-color="#82C0E9"/></linearGradient><path class="st19" d="M-96.4 416.5v5.7h-8v25.5h-6.6v-25.5h-8v-5.7h22.6z"/><linearGradient id="SVGID_20_" gradientUnits="userSpaceOnUse" x1="-80.655" y1="346.56" x2="-80.655" y2="377.75" gradientTransform="matrix(1 0 0 -1 0 794.22)"><stop offset="0" stop-color="#3C71A1"/><stop offset=".434" stop-color="#619BC7"/><stop offset=".791" stop-color="#79B6E0"/><stop offset="1" stop-color="#82C0E9"/></linearGradient><path class="st20" d="M-68.2 447.7h-6.7v-13.2h-11.6v13.2h-6.7v-31.2h6.7v13h11.6v-13h6.7v31.2z"/><linearGradient id="SVGID_21_" gradientUnits="userSpaceOnUse" x1="-53.54" y1="346.55" x2="-53.54" y2="377.75" gradientTransform="matrix(1 0 0 -1 0 794.22)"><stop offset="0" stop-color="#3C71A1"/><stop offset=".434" stop-color="#619BC7"/><stop offset=".791" stop-color="#79B6E0"/><stop offset="1" stop-color="#82C0E9"/></linearGradient><path class="st21" d="M-44.4 416.5v5.6h-11.7v7.3h8.9v5.4h-8.9v7.4h11.7v5.6h-18.3v-31.2h18.3z"/><linearGradient id="SVGID_22_" gradientUnits="userSpaceOnUse" x1="-14.515" y1="346.22" x2="-14.515" y2="378.1" gradientTransform="matrix(1 0 0 -1 0 794.22)"><stop offset="0" stop-color="#3C71A1"/><stop offset=".434" stop-color="#619BC7"/><stop offset=".791" stop-color="#79B6E0"/><stop offset="1" stop-color="#82C0E9"/></linearGradient><path class="st22" d="M-6.5 447.2c-1.6.5-3.4.8-5.2.8-2.4 0-4.5-.4-6.4-1.2s-3.6-1.9-4.9-3.3c-1.4-1.4-2.4-3.1-3.2-5-.7-2-1.1-4.1-1.1-6.4 0-2.3.4-4.5 1.1-6.4.7-1.9 1.7-3.6 3-5s2.9-2.5 4.8-3.3c1.9-.8 3.9-1.2 6.2-1.2 1.2 0 2.3.1 3.3.3s2 .5 2.9.9 1.7.8 2.4 1.3 1.4 1.1 1.9 1.7l-1.9 3.2c-.3.5-.7.8-1.2.9-.5.1-1 0-1.5-.4l-1.5-.9c-.5-.2-.9-.4-1.4-.6s-1-.3-1.5-.3c-.5-.1-1.1-.1-1.8-.1-1.2 0-2.4.2-3.3.7-1 .5-1.8 1.1-2.5 2s-1.2 1.9-1.6 3.1-.6 2.6-.6 4.1c0 1.7.2 3.1.6 4.4.4 1.3 1 2.4 1.8 3.2.8.9 1.7 1.6 2.7 2 1.1.5 2.2.7 3.5.7.8 0 1.5-.1 2.2-.3.6-.2 1.3-.4 1.9-.7v-4.7h-2.8c-.4 0-.7-.1-1-.4-.2-.2-.4-.5-.4-.9v-4h10.1v13.2c-1.4 1.2-3 2.1-4.6 2.6z"/><linearGradient id="SVGID_23_" gradientUnits="userSpaceOnUse" x1="15.725" y1="346.23" x2="15.725" y2="378.09" gradientTransform="matrix(1 0 0 -1 0 794.22)"><stop offset="0" stop-color="#3C71A1"/><stop offset=".434" stop-color="#619BC7"/><stop offset=".791" stop-color="#79B6E0"/><stop offset="1" stop-color="#82C0E9"/></linearGradient><path class="st23" d="M30.5 432c0 2.3-.4 4.4-1.1 6.3-.7 1.9-1.7 3.6-3 5.1-1.3 1.4-2.8 2.6-4.7 3.4S18 448 15.8 448s-4.2-.4-6.1-1.2c-1.8-.8-3.4-1.9-4.7-3.4-1.3-1.4-2.3-3.1-3-5.1-.7-1.9-1.1-4-1.1-6.3s.4-4.4 1.1-6.3 1.7-3.6 3-5 2.9-2.6 4.7-3.4c1.8-.8 3.9-1.2 6.1-1.2 2.2 0 4.2.4 6.1 1.2s3.4 2 4.7 3.4c1.3 1.4 2.3 3.1 3 5.1.6 1.9.9 4 .9 6.2zm-6.7 0c0-1.5-.2-2.9-.6-4.2-.4-1.2-.9-2.3-1.6-3.1-.7-.9-1.5-1.5-2.5-2s-2.1-.7-3.4-.7c-1.3 0-2.4.2-3.4.7-1 .5-1.8 1.1-2.5 2-.7.9-1.2 1.9-1.6 3.1-.4 1.2-.6 2.6-.6 4.2s.2 3 .6 4.2c.4 1.2.9 2.3 1.6 3.1.7.9 1.5 1.5 2.5 2 1 .4 2.1.7 3.4.7 1.3 0 2.4-.2 3.4-.7 1-.5 1.8-1.1 2.5-2 .7-.9 1.2-1.9 1.6-3.1.4-1.2.6-2.6.6-4.2z"/></svg>