<?xml version="1.0" encoding="utf-8"?>
<!-- Generator: Adobe Illustrator 19.0.0, SVG Export Plug-In . SVG Version: 6.00 Build 0)  -->
<svg version="1.1" id="Layer_1" xmlns="http://www.w3.org/2000/svg" xmlns:xlink="http://www.w3.org/1999/xlink" x="0px" y="0px"
	 viewBox="-76 299.2 457.7 194.8" style="enable-background:new -76 299.2 457.7 194.8;" xml:space="preserve">
<style type="text/css">
	.st0-a{fill:#69387f;}
</style>
<g id="XMLID_58_">
</g>
<g id="XMLID_59_">
</g>
<g id="XMLID_60_">
</g>
<g id="XMLID_61_">
</g>
<g id="XMLID_62_">
</g>
<g id="XMLID_63_">
</g>
<g>
	<path class="st0-a" d="M-74.4,483.8v-42.5h5.9v16.6c1.1-1.1,2.3-2,3.6-3c1.3-0.7,3-1.1,4.8-1.1c1.6,0,3,0.3,4.2,0.9
		c1.1,0.7,2,1.3,2.9,2.3c0.7,0.9,1.3,2,1.9,3.4c0.4,1.3,0.7,3,0.7,4.6v18.6H-56V465c0-2-0.4-3.4-1.3-4.6c-0.9-1.1-2.3-1.6-3.9-1.6
		c-1.3,0-2.5,0.3-3.6,0.9c-1.1,0.7-2,1.6-3.2,2.5v21.4h-6.2L-74.4,483.8L-74.4,483.8z"/>
	<path class="st0-a" d="M-35.5,492.3c-0.3,0.4-0.4,0.7-0.7,1.1c-0.3,0.4-0.7,0.4-1.3,0.4h-4.4l5-11.8l-11.4-27.2h5
		c0.4,0,0.9,0.3,1.1,0.4c0.3,0.3,0.4,0.4,0.7,0.9l6.6,16.6c0.3,0.9,0.7,1.9,0.9,3c0.3-0.4,0.3-0.9,0.4-1.3c0.3-0.4,0.3-0.9,0.4-1.3
		l6.3-16.6c0.3-0.4,0.3-0.7,0.7-0.9c0.3-0.3,0.7-0.4,0.9-0.4h4.6L-35.5,492.3z"/>
	<path class="st0-a" d="M2.7,483.8c-0.7,0-1.3-0.4-1.6-1.1l-0.4-3.2c-0.7,0.7-1.1,1.3-1.9,2c-0.7,0.7-1.3,1.1-2,1.6
		c-0.7,0.4-1.6,0.7-2.5,0.9c-0.9,0.3-1.9,0.4-2.7,0.4c-1.6,0-3-0.3-4.3-0.9c-1.3-0.7-2.3-1.6-3.2-3c-0.9-1.4-1.6-2.7-2-4.8
		c-0.4-1.9-0.7-4.2-0.7-6.3c0-2.3,0.3-4.2,0.9-6.2c0.4-1.9,1.3-3.4,2.3-4.8c1.1-1.3,2.3-2.5,3.6-3.2s3.2-1.1,5-1.1
		c1.6,0,3,0.3,4.2,0.9c1.1,0.4,2,1.3,3,2.3v-15.7h5.9v42.5H2.9L2.7,483.8L2.7,483.8z M-6.6,479.3c1.6,0,2.7-0.3,3.9-0.9
		c1.1-0.7,2-1.6,3-3v-13.7c-0.9-1.1-1.9-1.9-2.7-2.3c-0.9-0.4-2-0.7-3.2-0.7c-2.3,0-4.2,0.9-5.2,2.7c-1.3,1.9-1.9,4.3-1.9,7.9
		c0,1.9,0.3,3.4,0.4,4.6c0.3,1.1,0.7,2.3,1.1,3.2c0.4,0.9,1.1,1.3,2,1.9C-8.5,479.3-7.5,479.3-6.6,479.3z"/>
	<path class="st0-a" d="M13.1,483.8v-29.4h3.4c0.7,0,1.1,0.3,1.3,0.4c0.3,0.3,0.4,0.7,0.4,1.1l0.3,3.9c0.9-1.9,2-3.4,3.2-4.3
		c1.1-1.1,2.7-1.6,4.3-1.6c0.7,0,1.1,0,1.6,0.3c0.4,0.3,0.9,0.4,1.3,0.7l-0.4,4.6c0,0.3-0.3,0.4-0.3,0.7s-0.4,0.3-0.7,0.3
		s-0.7,0-1.1-0.3c-0.4,0-1.1-0.3-1.6-0.3c-0.9,0-1.6,0.3-2.3,0.4c-0.7,0.3-1.1,0.7-1.6,1.1c-0.4,0.4-0.9,1.1-1.3,1.9
		c-0.4,0.7-0.7,1.3-1.1,2.3v18.2L13.1,483.8L13.1,483.8z"/>
	<path class="st0-a" d="M50.4,483.8c-0.4,0-0.9,0-1.3-0.3s-0.4-0.4-0.7-1.1l-0.4-2.3c-0.7,0.7-1.3,1.3-2,1.9c-0.7,0.4-1.3,0.9-2,1.3
		c-0.7,0.4-1.6,0.7-2.3,0.9c-0.7,0.3-1.9,0.3-2.7,0.3c-1.1,0-2.3-0.3-3.2-0.4c-0.9-0.3-1.9-0.9-2.5-1.6c-0.7-0.7-1.3-1.3-1.6-2.5
		c-0.4-0.9-0.7-2-0.7-3.4c0-1.1,0.3-2.3,0.9-3.4c0.4-1.1,1.6-2,2.7-3c1.3-0.9,3-1.6,5.2-2c2-0.4,4.8-0.9,7.9-0.9v-1.7
		c0-2-0.4-3.6-1.3-4.8s-2-1.6-3.6-1.6c-1.1,0-2,0.3-2.7,0.4c-0.7,0.3-1.3,0.7-2,0.9c-0.4,0.4-1.1,0.7-1.6,0.9
		c-0.4,0.3-0.9,0.4-1.3,0.4s-0.7,0-0.9-0.3c-0.3-0.3-0.4-0.4-0.7-0.9l-1.1-2c3.2-3.2,6.8-4.6,11.1-4.6c1.6,0,3,0.3,4.3,0.9
		c1.1,0.4,2.3,1.3,3.2,2.3c0.9,0.9,1.6,2.3,1.9,3.6s0.7,3,0.7,4.6V484h-3L50.4,483.8L50.4,483.8z M40.4,479.9c1.6,0,2.7-0.3,3.9-0.9
		c1.1-0.7,2-1.3,3.2-2.5V471c-2,0-3.9,0.3-5.2,0.4c-1.3,0.3-2.5,0.7-3.4,1.1c-0.9,0.4-1.6,0.9-1.9,1.6c-0.3,0.7-0.7,1.1-0.7,2
		c0,0.7,0,1.3,0.3,1.9c0.3,0.4,0.4,0.9,0.9,1.1c0.4,0.3,0.9,0.4,1.3,0.7C39.2,480.1,39.7,479.9,40.4,479.9z"/>
	<path class="st0-a" d="M68.4,484.4c-2.3,0-4.2-0.7-5.2-2c-1.1-1.3-1.9-3.4-1.9-5.6v-17h-3.2c-0.3,0-0.7,0-0.9-0.3
		c-0.3-0.3-0.4-0.4-0.4-0.9v-2.5l4.6-0.7l1.3-8.5c0-0.3,0.3-0.7,0.4-0.7c0.3-0.3,0.4-0.3,0.9-0.3h3v9.5h19.3v28.8h-5.9v-24.3H67
		v16.7c0,1.1,0.3,1.9,0.7,2.5c0.4,0.7,1.1,0.9,2,0.9c0.4,0,0.9,0,1.1-0.3c0.3-0.3,0.7-0.3,0.9-0.4c0.3-0.3,0.4-0.3,0.7-0.4
		c0.3-0.3,0.3-0.3,0.4-0.3c0.3,0,0.7,0.3,0.7,0.7l1.9,3c-0.9,0.9-2,1.6-3.2,2C71,484.1,69.7,484.4,68.4,484.4z M87.4,445.6
		c0,0.4,0,1.1-0.3,1.6c-0.3,0.4-0.4,0.9-0.9,1.3c-0.4,0.4-0.7,0.7-1.3,0.9c-0.4,0.3-0.9,0.3-1.6,0.3c-0.4,0-0.9,0-1.3-0.3
		s-0.9-0.4-1.1-0.9c-0.3-0.4-0.7-0.9-0.9-1.3c-0.3-0.4-0.3-0.9-0.3-1.6s0-1.1,0.3-1.6c0.3-0.4,0.4-0.9,0.9-1.3
		c0.4-0.4,0.7-0.7,1.1-0.9c0.4-0.3,0.9-0.3,1.3-0.3c0.4,0,1.1,0,1.6,0.3c0.4,0.3,0.9,0.4,1.3,0.9c0.4,0.4,0.7,0.9,0.9,1.3
		C87.4,444.5,87.4,445.2,87.4,445.6z"/>
	<path class="st0-a" d="M105.7,454.3c2,0,3.9,0.4,5.5,1.1s3,1.9,4.3,3s2,3,2.7,4.8c0.7,1.9,0.9,3.9,0.9,6.3c0,2.3-0.3,4.3-0.9,6.3
		c-0.7,1.9-1.6,3.4-2.7,4.8c-1.1,1.3-2.5,2.3-4.3,3c-1.6,0.7-3.4,1.1-5.5,1.1c-2,0-3.9-0.4-5.5-1.1s-3-1.9-4.3-3
		c-1.1-1.3-2-3-2.7-4.8c-0.7-1.9-0.9-3.9-0.9-6.3c0-2.3,0.3-4.3,0.9-6.3c0.7-1.9,1.6-3.4,2.7-4.8c1.1-1.3,2.5-2.3,4.3-3
		C101.5,454.6,103.7,454.3,105.7,454.3z M105.7,479.5c2.5,0,4.3-0.9,5.5-2.7c1.1-1.9,1.9-4.3,1.9-7.5s-0.7-5.9-1.9-7.8
		c-1.1-1.9-3.2-2.7-5.5-2.7c-2.5,0-4.3,0.9-5.6,2.7c-1.1,1.9-1.9,4.3-1.9,7.8c0,3.2,0.7,5.9,1.9,7.5
		C101.1,478.6,103,479.5,105.7,479.5z"/>
	<path class="st0-a" d="M124.6,483.8v-29.4h3.4c0.7,0,1.3,0.4,1.6,1.1l0.4,3c0.7-0.7,1.1-1.1,1.9-1.9c0.7-0.4,1.3-0.9,2-1.3
		c0.7-0.4,1.6-0.7,2.3-0.9c0.9-0.3,1.9-0.3,2.7-0.3c1.6,0,3,0.3,4.2,0.9c1.1,0.7,2,1.3,3,2.3c0.7,0.9,1.3,2,1.9,3.4
		c0.4,1.3,0.7,3,0.7,4.6v18.6h-5.6v-18.6c0-2-0.4-3.4-1.3-4.6c-0.9-1.1-2.3-1.6-3.9-1.6c-1.3,0-2.5,0.3-3.6,0.9
		c-1.1,0.7-2,1.6-3.2,2.5v21.3H124.6L124.6,483.8L124.6,483.8z"/>
	<path class="st0-a" d="M182.9,450.4v12.1h10.7v4.6h-10.7v12.1h-4.8v-12.1h-10.7v-4.6h10.7v-12.1L182.9,450.4L182.9,450.4z"/>
	<path class="st0-a" d="M224.8,454.3c1.6,0,3.2,0.3,4.8,0.9c1.3,0.7,2.7,1.3,3.6,2.5c1.1,1.1,1.9,2.5,2.5,4c0.7,1.6,0.9,3.4,0.9,5.6
		c0,0.9,0,1.6-0.3,1.9s-0.4,0.4-1.1,0.4h-17.8c0,1.6,0.3,3.2,0.7,4.3c0.4,1.1,0.9,2.3,1.6,3s1.6,1.3,2.5,1.9c0.9,0.4,2,0.7,3.2,0.7
		s2-0.3,3-0.4c0.9-0.3,1.6-0.7,2.3-0.9c0.7-0.3,1.2-0.7,1.6-0.9c0.4-0.3,0.9-0.4,1.1-0.4c0.4,0,0.9,0.3,1.1,0.7l1.6,2.3
		c-0.7,0.9-1.3,1.6-2.3,2.3c-0.9,0.7-1.9,1.1-2.7,1.3c-0.9,0.4-2,0.7-3,0.9c-0.9,0.3-2,0.3-3,0.3c-1.9,0-3.6-0.3-5.2-0.9
		c-1.6-0.6-3-1.6-4.3-3c-1.1-1.3-2-3-2.7-5s-0.9-4.2-0.9-6.8c0-2,0.3-3.9,0.9-5.6c0.7-1.9,1.3-3.2,2.6-4.6c1.1-1.3,2.5-2.3,4.2-3.2
		C220.9,454.6,222.8,454.3,224.8,454.3z M224.8,458.6c-2,0-3.9,0.7-5,1.9c-1.1,1.3-2,3.2-2.3,5.5h13.7c0-1.1-0.3-2-0.4-3
		c-0.3-0.9-0.7-1.6-1.1-2.3s-1.1-1.1-2-1.6C226.7,458.6,226,458.6,224.8,458.6z"/>
	<path class="st0-a" d="M241.8,483.8v-29.4h3.4c0.7,0,1.3,0.4,1.6,1.1l0.4,2.7c0.7-0.7,1.1-1.1,1.9-1.9c0.7-0.4,1.3-0.9,2-1.3
		c0.7-0.4,1.6-0.7,2.3-0.9c0.9-0.3,1.9-0.3,2.7-0.3c1.6,0,2.9,0.3,4.2,0.9c1.1,0.7,2,1.3,2.9,2.3c0.7,0.9,1.3,2,1.9,3.4
		c0.4,1.3,0.7,3,0.7,4.6v18.6h-6.2V465c0-2-0.4-3.4-1.3-4.6c-0.9-1.1-2.3-1.6-3.9-1.6c-1.3,0-2.5,0.3-3.6,0.9
		c-1.1,0.7-2,1.6-3.2,2.5v21.4L241.8,483.8L241.8,483.8z"/>
	<path class="st0-a" d="M283.9,454.3c1.6,0,3.2,0.3,4.8,0.9c1.3,0.7,2.7,1.3,3.6,2.5c1.1,1.1,1.9,2.5,2.5,4c0.7,1.6,0.9,3.4,0.9,5.6
		c0,0.9,0,1.6-0.3,1.9s-0.4,0.4-1.2,0.4h-17.7c0,1.6,0.3,3.2,0.7,4.3c0.4,1.1,0.9,2.3,1.6,3s1.6,1.3,2.5,1.9c0.9,0.4,2,0.7,3.2,0.7
		c1.1,0,2-0.3,2.9-0.4c0.9-0.3,1.6-0.7,2.3-0.9c0.7-0.3,1.1-0.7,1.6-0.9c0.4-0.3,0.9-0.4,1.1-0.4c0.4,0,0.9,0.3,1.1,0.7l1.6,2.3
		c-0.7,0.9-1.3,1.6-2.3,2.3s-1.9,1.1-2.7,1.3c-0.9,0.4-2,0.7-3,0.9c-0.9,0.3-2,0.3-3,0.3c-1.9,0-3.6-0.3-5.2-0.9
		c-1.6-0.7-3-1.6-4.3-3c-1.1-1.3-2-3-2.7-5s-0.9-4.2-0.9-6.8c0-2,0.3-3.9,0.9-5.6c0.7-1.9,1.3-3.2,2.5-4.6c1.1-1.3,2.5-2.3,4.2-3.2
		C280.1,454.6,281.9,454.3,283.9,454.3z M283.9,458.6c-2,0-3.9,0.7-5,1.9c-1.1,1.3-2,3.2-2.3,5.5h13.7c0-1.1-0.3-2-0.4-3
		c-0.3-0.9-0.7-1.6-1.1-2.3s-1.1-1.1-2-1.6C285.8,458.6,285,458.6,283.9,458.6z"/>
	<path class="st0-a" d="M301,483.8v-29.4h3.4c0.7,0,1.1,0.3,1.3,0.4c0.3,0.3,0.4,0.7,0.4,1.1l0.3,3.9c0.9-1.9,2-3.4,3.2-4.3
		c1.1-1.1,2.7-1.6,4.3-1.6c0.7,0,1.1,0,1.6,0.3c0.4,0.3,0.9,0.4,1.3,0.7l-0.4,4.6c0,0.3-0.3,0.4-0.3,0.7s-0.4,0.3-0.7,0.3
		c-0.3,0-0.7,0-1.1-0.3c-0.4,0-1.2-0.3-1.6-0.3c-0.9,0-1.6,0.3-2.3,0.4c-0.7,0.3-1.1,0.7-1.6,1.1c-0.4,0.4-0.9,1.1-1.3,1.9
		c-0.4,0.7-0.7,1.3-1.1,2.3v18.2L301,483.8L301,483.8z"/>
	<path class="st0-a" d="M330.4,454c1.1,0,2.3,0.3,3.4,0.4c1.1,0.1,2,0.7,3,1.1h7.8v2.3c0,0.7-0.4,1.1-1.3,1.3l-2.7,0.4
		c0.4,1.1,0.7,2.3,0.7,3.6s-0.3,2.7-0.9,3.9c-0.4,1.1-1.3,2.3-2.3,3c-0.9,0.9-2,1.3-3.4,1.9c-1.3,0.4-2.7,0.7-4.3,0.7
		c-0.7,0-1.1,0-1.6,0c-0.4,0-1.1-0.3-1.6-0.3c-0.4,0.3-0.9,0.7-1.1,1.1c-0.3,0.4-0.4,0.7-0.4,1.1c0,0.7,0.3,1.1,0.7,1.3
		c0.4,0.3,1.1,0.4,2,0.7s1.9,0.3,3,0.3s2.3,0,3.4,0.3s2.3,0.3,3.4,0.4c1.2,0.3,2,0.7,3,1.1c0.9,0.4,1.6,1.1,2,2s0.7,2,0.7,3.4
		s-0.3,2.5-0.9,3.6c-0.7,1.1-1.3,2.3-2.5,3.2c-1.1,0.9-2.5,1.6-4.2,2.3c-1.6,0.7-3.4,0.9-5.5,0.9c-2,0-3.9-0.3-5.5-0.7
		s-2.7-0.9-3.9-1.9c-0.9-0.7-1.9-1.6-2.3-2.5s-0.7-1.9-0.7-3c0-1.3,0.4-2.5,1.1-3.6c0.9-0.9,2-1.9,3.4-2.3c-0.7-0.4-1.3-0.9-1.9-1.6
		c-0.4-0.7-0.7-1.6-0.7-2.7c0-0.4,0-0.9,0.3-1.3c0.3-0.4,0.4-0.9,0.7-1.3c0.3-0.4,0.7-0.9,1.1-1.3c0.4-0.4,0.9-0.7,1.6-1.1
		c-1.3-0.9-2.5-1.9-3.2-3.2s-1.1-3-1.1-4.8c0-1.3,0.3-2.7,0.9-3.9c0.4-1.1,1.3-2.3,2.3-3c0.9-0.9,2-1.3,3.4-1.9
		C327.4,454.3,328.7,454,330.4,454z M338.3,485.4c0-0.7-0.3-1.1-0.4-1.6c-0.4-0.4-0.9-0.7-1.3-0.9c-0.7-0.3-1.3-0.4-2-0.4
		c-0.9,0-1.6-0.3-2.5-0.3s-1.9,0-2.7-0.3c-0.9,0-1.9-0.3-2.7-0.3c-0.9,0.4-1.6,1.1-2,1.9c-0.4,0.7-0.9,1.3-0.9,2.3
		c0,0.7,0.3,1.1,0.4,1.6c0.3,0.4,0.7,0.9,1.3,1.3c0.7,0.4,1.3,0.7,2.3,0.9c0.9,0.3,2,0.3,3.2,0.3c2.5,0,4.6-0.4,5.6-1.3
		C337.9,487.7,338.3,486.6,338.3,485.4z M330.4,469.1c1.9,0,3.2-0.4,4.2-1.3c0.9-0.9,1.3-2.3,1.3-3.9c0-1.6-0.4-3-1.3-3.9
		s-2.3-1.3-4.2-1.3c-1.9,0-3.2,0.4-4.2,1.3c-0.9,0.9-1.3,2.3-1.3,3.9c0,0.7,0.3,1.3,0.4,2c0.3,0.7,0.7,1.1,1.1,1.6
		c0.4,0.4,0.9,0.9,1.6,1.1C328.7,468.8,329.4,469.1,330.4,469.1z"/>
	<path class="st0-a" d="M358.1,492.3c-0.3,0.4-0.4,0.7-0.7,1.1c-0.3,0.4-0.7,0.4-1.3,0.4h-4.4l5-11.8l-11.4-27.2h5
		c0.4,0,0.9,0.3,1.1,0.4c0.3,0.3,0.4,0.4,0.7,0.9l6.6,16.6c0.3,0.9,0.7,1.9,0.9,3c0.3-0.4,0.3-0.9,0.4-1.3c0.3-0.4,0.3-0.9,0.4-1.3
		l6.3-16.6c0.3-0.4,0.3-0.7,0.7-0.9c0.3-0.3,0.7-0.4,0.9-0.4h4.6L358.1,492.3z"/>
</g>
<path class="st0-a" d="M-17,395.5c0,3.7-0.3,7.6-1.2,10.9c-0.7,3.4-1.9,6.6-3.4,9.4c-1.5,2.9-3.4,5.6-5.6,7.7c-2,2.2-4.5,4.2-7.2,5.9
	c-2.7,1.5-5.6,2.9-8.6,3.5s-6.2,1.3-9.8,1.3H-76l8.3-68h23.4c4.2,0,7.9,0.7,11.3,2c3.4,1.3,6.2,3.4,8.6,6.1s4.2,5.7,5.6,9.3
	C-17.5,387.1-17,391.1-17,395.5z M-26.6,395.7c0-3.4-0.3-6.4-1.3-9.1s-2-4.9-3.5-7.1c-1.5-1.9-3.5-3.4-5.9-4.4
	c-2.2-1-4.9-1.5-7.7-1.5h-14l-6.4,52.9h14c3.7,0,7.2-0.7,10.3-2c3-1.5,5.7-3.4,7.9-6.1c2.2-2.7,4-5.9,5.1-9.6
	C-27.1,404.8-26.6,400.4-26.6,395.7z"/>
<path class="st0-a" d="M3.7,406l-3.4,28.1h-9.2l8.2-68h18c3.5,0,6.7,0.3,9.4,1.2c2.7,0.7,4.9,1.9,6.6,3.4s3,3.2,3.7,5.1
	c0.7,2,1.3,4.4,1.3,6.7c0,2.7-0.3,5.2-1.2,7.6c-0.7,2.5-1.9,4.5-3.4,6.4s-3.4,3.4-5.6,4.7c-2,1.3-4.5,2.2-7.4,3c1.2,0.7,2,1.7,2.7,3
	L37.5,434h-8.2c-1.7,0-2.9-0.7-3.4-2l-12.1-24.4c-0.3-0.7-1-1.3-1.5-1.7s-1.3-0.3-2.5-0.3L3.7,406L3.7,406z M7.6,373.5l-3.2,25.6
	h8.2c2.7,0,4.9-0.3,7.1-1.2c2.2-0.8,3.5-1.9,5.1-3.2c1.3-1.3,2.2-3,3-4.7c0.7-1.9,1-3.7,1-6.1c0-3.4-1.2-5.9-3.2-7.7
	c-2-1.7-5.2-2.7-9.4-2.7L7.6,373.5L7.6,373.5z"/>
<path class="st0-a" d="M55.6,434.2h-9.5l8.3-68h9.4L55.6,434.2z"/>
<path class="st0-a" d="M86.7,366.4c0.3,0.2,0.7,0.5,1.2,1.3l28.8,51c0-0.7,0.2-1.5,0.2-2.2s0.2-1.3,0.2-2l5.9-48.7h8.2l-8.2,68h-4.7
	c-0.8,0-1.3-0.2-1.9-0.3c-0.3-0.2-1-0.7-1.3-1.3l-28.8-51l-0.3,3.4l-6.1,49.3h-8.1l8.2-68h4.9C85.5,366.2,86.2,366.2,86.7,366.4z"/>
<path class="st0-a" d="M152.9,395.8h3c1.2,0,2-0.2,2.7-0.3c0.7-0.3,1.3-0.7,2-1.5l22.9-25.6c0.7-0.7,1.3-1.5,2-1.7
	c0.8-0.3,1.7-0.3,2.7-0.3h7.9l-26.4,29.3c-1.3,1.5-2.5,2.5-3.7,3.2c0.8,0.3,1.5,0.7,2,1.3c0.5,0.5,1.2,1.3,1.7,2.2l19.9,32.2h-8.1
	c-1.2,0-2-0.2-2.7-0.5c-0.5-0.3-1-0.7-1.3-1.5l-17.2-26.8c-0.3-0.7-1-1.3-1.7-1.7c-0.5-0.3-1.7-0.5-3-0.5h-4l-3.7,31h-9.3l8.3-68.2
	h9.4L152.9,395.8z"/>
<path class="st0-a" d="M254.2,411.7c0.2,0.7,0.3,1.3,0.5,2c0.3-0.7,0.5-1.3,1-2s0.7-1.3,1.2-2l26.1-42.1c0.2-0.3,0.5-0.5,0.7-0.8
	c0.2-0.2,0.3-0.3,0.7-0.5c0.2-0.2,0.5-0.2,0.8-0.2s0.7,0,1.2,0h7.1l-8.3,68h-8.1l6.1-49.3c0.2-0.5,0.2-1.3,0.3-2.2
	c0.2-1,0.3-1.7,0.5-2.5l-25.9,42c-1,1.5-2,2-3.5,2h-1.5c-0.7,0-1.3-0.2-1.9-0.5c-0.5-0.3-1-1-1.2-1.5L234.2,380c0,0.7,0,1.7-0.2,2.5
	c0,0.7,0,1.5-0.2,2l-6.1,49.7h-8.2l8.2-68h7.1c0.7,0,1.5,0,1.9,0.2c0.3,0.2,0.7,0.5,1.3,1.3l16,42.1
	C253.9,410.3,254.1,411.2,254.2,411.7z"/>
<path class="st0-a" d="M310.5,434.2h-9.4l8.3-68h9.4L310.5,434.2z"/>
<path class="st0-a" d="M345.5,397.9l-15.7-31.8h8.2c0.7,0,1.2,0.2,1.5,0.3c0.2,0.2,0.5,0.5,0.7,1.2l11.8,25.3c0.2-0.5,0.5-1.2,1.2-1.9
	l16.7-23.4c0.7-1,1.5-1.5,2.2-1.5h9.6l-23.6,31.3l17.8,36.9h-8.3c-0.7,0-1.2-0.2-1.5-0.5s-0.5-0.7-0.7-1.2l-13.3-29.3
	c-0.2,0.2-0.2,0.5-0.3,0.7s-0.2,0.5-0.3,0.7l-19.9,27.8c-0.7,1.2-1.9,1.7-3,1.7h-9.3L345.5,397.9z"/>
<g>
	<path class="st0-a" d="M-57.1,314c0.2,0,0.3,0.1,0.6,0.2c0.2,0.1,0.2,0.2,0.5,0.3c0.1,0.2,0.2,0.3,0.3,0.6l14.8,29.4
		c0-0.6,0.1-1.2,0.1-1.7c0.1-0.6,0.1-1,0.2-1.5l2.9-27.4h6l-4.6,43h-3.5c-0.6,0-1-0.1-1.4-0.2c-0.3-0.2-0.6-0.6-0.9-1l-14.8-29.5
		c0,0.5-0.1,0.9-0.1,1.4s-0.1,0.9-0.1,1.3L-60,357h-6l4.6-43h3.5C-57.6,314-57.4,314-57.1,314z"/>
	<path class="st0-a" d="M0.8,357h-5.2c-0.6,0-1-0.2-1.5-0.5c-0.3-0.2-0.6-0.7-0.6-1.3l-1.5-9h-14.1l-3.5,9c-0.2,0.5-0.6,0.9-0.9,1.2
		c-0.5,0.3-0.9,0.6-1.5,0.6h-5.3l18.2-43.1h6.9L0.8,357z M-20,340.8h11l-2.5-14.8c-0.2-0.7-0.2-1.5-0.5-2.3
		c-0.2-0.8-0.2-1.7-0.3-2.7c-0.3,1-0.6,1.9-1,2.7c-0.3,0.8-0.6,1.5-0.9,2.2L-20,340.8z"/>
	<path class="st0-a" d="M29.2,313.9l-0.7,6.4H18.2L14.3,357H7.6l3.9-36.7H1.1l0.6-6.4L29.2,313.9L29.2,313.9z"/>
	<path class="st0-a" d="M43.4,350.8c1.2,0,2.3-0.2,3.4-0.8c1-0.6,1.9-1.3,2.7-2.3c0.7-1,1.4-2.2,1.9-3.5c0.6-1.4,0.8-2.8,1-4.5
		l2.8-25.9H62l-2.7,25.9c-0.2,2.5-0.8,4.9-1.8,7.1c-0.9,2.2-2.1,4-3.5,5.6c-1.5,1.5-3.1,2.8-5,3.7s-4,1.4-6.1,1.4
		c-2,0-3.8-0.3-5.4-1c-1.5-0.7-2.9-1.7-4-3.1c-1-1.3-1.9-2.9-2.5-4.7s-0.8-3.8-0.8-6c0-0.9,0.1-1.8,0.2-2.8l2.7-25.9h6.8l-2.8,25.8
		c-0.1,0.3-0.1,0.7-0.1,1s0,0.7,0,1c0,1.4,0.2,2.5,0.5,3.6s0.7,2,1.3,2.8c0.6,0.8,1.3,1.4,2.1,1.8C41.3,350.5,42.2,350.8,43.4,350.8
		z"/>
	<path class="st0-a" d="M72.3,339.9l-1.8,16.9h-6.7l4.6-43h10.7c2.2,0,4.1,0.2,5.6,0.8s2.8,1.3,3.8,2.2s1.7,2.1,2.2,3.4
		c0.5,1.4,0.7,2.7,0.7,4.4s-0.2,3.2-0.6,4.7c-0.3,1.5-1,2.8-1.7,4c-0.7,1.1-1.7,2.3-2.8,3.1c-1,0.9-2.3,1.5-3.8,2.1
		c0.3,0.2,0.8,0.6,1,1c0.3,0.5,0.6,0.9,0.8,1.5l6.8,16.1h-6c-0.6,0-1-0.1-1.5-0.3c-0.3-0.2-0.7-0.6-0.9-1l-5.6-14.1
		c-0.2-0.6-0.5-0.9-0.8-1c-0.2-0.2-0.8-0.4-1.5-0.4C75,339.9,72.3,339.9,72.3,339.9z M74.5,319.9l-1.6,14.6h3.9
		c1.4,0,2.5-0.2,3.6-0.7c1-0.5,1.8-1,2.4-1.8c0.6-0.8,1-1.7,1.5-2.7c0.2-1,0.5-2.2,0.5-3.5c0-1.9-0.6-3.4-1.5-4.4
		c-1-1.1-2.5-1.5-4.7-1.5L74.5,319.9L74.5,319.9z"/>
	<path class="st0-a" d="M125.7,356.8h-5.2c-0.6,0-1-0.2-1.5-0.5c-0.4-0.3-0.6-0.7-0.6-1.3l-1.5-9h-14.1l-3.5,9
		c-0.2,0.5-0.6,0.8-0.9,1.2c-0.5,0.3-0.9,0.6-1.5,0.6h-5.3l18.2-43.1h6.9L125.7,356.8z M104.8,340.7h11l-2.5-14.7
		c-0.1-0.7-0.2-1.5-0.5-2.3c-0.1-0.8-0.2-1.7-0.3-2.7c-0.3,1-0.6,1.9-1,2.7s-0.6,1.5-0.9,2.2L104.8,340.7z"/>
	<path class="st0-a" d="M136.1,350.4h13.8l-0.6,6.5h-20.6l4.6-43h6.8L136.1,350.4z"/>
	<path id="XMLID_2_" class="st0-a" d="M159,366.7l-0.2-0.1c-0.6-0.2-1.2-0.6-1.6-1.2c-0.2-0.4-0.5-0.7-0.6-1.2l-0.2-0.1l-0.2-0.1v-0.9
		l0.2-0.2l0,0c0.3-0.8,0.7-1.6,1-2.3c1-2,2.2-3.9,3.7-6c1.2-1.5,2.3-3,3.5-4.4c0.4-0.5,1.5-1.5,1.5-1.5l-1.3-1.5
		c-0.5-0.6-1-1.2-1.4-1.8c-0.9-1.4-1.5-2.9-1.8-4.5c-0.3-1.5-0.5-3-0.3-4.5c0.2-3.6,1.5-6.7,3.5-9.4c0.6-0.7,1.3-1.5,2.1-2.2
		c1.6-1.5,3.5-2.8,5.4-4.1c1.6-1,3.4-2.1,5.3-3.1l5.3-3.1c1.9-1,3.6-2.2,5.3-3.2c1.5-1,2.9-2.1,4.1-3.1c1.2-1,2.3-2.2,3.5-3.5
		c1-1.3,2.1-2.5,2.8-3.8l0.1-0.2c0.1-0.2,0.2-0.3,0.3-0.6c0.1-0.2,0.2-0.5,0.5-0.6l0.2-0.2c0,0,0.3-0.2,0.7-0.1
		c0.4,0.1,0.6,0.6,0.6,0.6s0.2,0.6,0.2,1c0,0.5-0.1,1-0.2,1.5l-0.2,1.5c0,0.5-0.1,0.9-0.1,1.4c0,0-0.7,7.2-0.8,7.7l-0.1,1.2
		c0,0.6-0.1,1.2-0.2,1.7c0,0.3-0.1,0.7-0.1,1.2l-0.6,6.6c0,0.3-0.1,0.8-0.1,1.2l-0.5,4.4c-0.1,0.5-0.2,1.9-0.2,1.9
		c-0.2,1-0.3,2.1-0.6,3.1c-0.3,1.8-0.8,3.5-1.4,5c-0.6,1.9-1.4,3.5-2.3,4.9c-0.8,1.3-1.6,2.3-2.7,3.4c-1.2,1.2-2.5,2.1-4.1,2.8
		c-1,0.6-2.3,0.9-3.5,1.2c-0.9,0.2-1.8,0.3-2.7,0.3c-0.8,0.1-1.6,0.1-2.5,0.1c-0.5,0-0.9,0-1.4,0s-0.9,0-1.4-0.1
		c-0.5,0-2.3-0.2-2.3-0.2s-1-0.2-1.4-0.2l-1.7-0.2l-2.1-0.3c-0.3,0.6-0.6,1-0.9,1.5c-0.6,1-1.3,2.3-1.9,3.6c-1,2.3-2,4.8-3,7.7
		c-0.2,0.7-0.5,1.5-0.6,2.1c-0.1,0.3-0.3,0.6-0.6,0.8c-0.5,0.2-0.8,0.3-1.3,0.5l-0.2,0.1C160.3,366.7,159,366.7,159,366.7z
		 M164.6,353.7c-1,1.3-2,2.7-2.9,4c-1.2,1.8-2,3.4-2.7,4.9c-0.1,0.2-0.2,0.5-0.2,0.6l-0.2,0.5c0.1,0.1,0.2,0.4,0.5,0.6
		c0.2,0.2,0.5,0.4,0.7,0.5l0,0c0.2,0,0.6-0.1,0.8-0.2l0.1-0.2c0.2-0.6,0.5-1.4,0.6-2c0.9-2.8,1.9-5.3,3-7.6
		C164.4,354.1,164.5,353.9,164.6,353.7z M169.6,348.4c1,0.2,2.1,0.4,3.1,0.6s1.9,0.2,2.9,0.3c0.8,0.1,1.7,0.1,2.5,0.2
		c0.2,0,0.6,0,0.8,0c0.7,0,1.5,0,2.2-0.1c0.8-0.1,1.6-0.2,2.4-0.3c1.2-0.2,2.3-0.6,3.1-1c1.3-0.6,2.4-1.4,3.5-2.3
		c0.8-0.8,1.5-1.7,2.2-2.7c0.2-0.2,0.3-0.6,0.5-0.8l-20.2,0.7c-0.6,0.9-1,1.8-1.5,2.7C170.5,346.6,170.1,347.4,169.6,348.4z
		 M166.5,328.2c-0.6,0.9-1.3,1.9-1.7,3c-0.8,1.8-1.3,3.8-1.3,5.9c0,1.2,0.1,2.2,0.3,3.1c0.2,1.3,0.7,2.3,1.4,3.5
		c0.5,0.6,0.9,1.4,1.5,2.1c0.2,0.2,1.2,1.5,1.3,1.5c0,0,0.5-0.9,0.7-1.3l1.2-2.2l1-1.9L166.5,328.2z M178.3,334
		c-0.6,0.8-1.2,1.5-1.7,2.3c-0.7,1-1.4,2.2-2,3.2c-0.2,0.3-0.5,0.8-0.7,1.2c0,0,16.1-0.6,16.9-0.6c0.3,0,3.1-0.1,3.1-0.1
		c0.9-2.2,1.6-4.5,2.2-7.4L178.3,334z M168.1,326.6c0.6,1.8,3.1,9.8,4.1,13l0.8-1.5c1-1.7,2.2-3.5,3.2-5l0.2-0.2l-2.5-10.6
		C171.7,323.6,169.8,325,168.1,326.6z M185.2,325.7l-0.1,0.2l-0.8,0.9c-1,1.2-2.2,2.3-3.1,3.6c-0.3,0.5-0.7,0.9-1,1.4l16.3-1.2
		l0.1-0.6c0.1-0.6,0.2-1.2,0.2-1.8c0.1-0.6,0.3-3.7,0.3-3.7C197,324.5,185.8,325.7,185.2,325.7z M178.2,330.8c0.8-1,1.6-2,2.4-2.9
		c1-1.2,2.1-2.3,3.1-3.6l-0.2-1.9l-0.7-5.4c-0.7,0.5-4.1,2.3-4.1,2.3c-0.8,0.5-1.7,1-2.5,1.5L176,321
		C176.3,323,178.2,330.8,178.2,330.8z M192.4,318.7c-0.3,0.1-0.7,0.1-1,0.2c-1,1.4-2.3,2.7-3.5,4l-0.5,0.5c0,0,8.6-0.9,9-0.9
		c0.2,0,0.6-0.1,0.8-0.1c0.1-1,0.3-3.2,0.5-4.4L192.4,318.7z M184.6,316.1c0.2,1.4,0.3,2.7,0.6,4.1l0.2,2.3c0.3-0.5,0.8-0.9,1.3-1.4
		c1-1.2,2.1-2.3,3.1-3.6l-0.7-4.3l-0.7,0.5C187.1,314.6,185.8,315.3,184.6,316.1z M198.6,307.6c-0.2,0.8-0.6,1.5-0.8,1.9
		c-1,2.1-2.4,4.1-4,6.1c-0.2,0.2-0.5,0.6-0.7,0.9l4.7-0.7L198.6,307.6z M191.5,315.5c0.9-1,1.6-2.2,2.3-3.1c1.3-1.9,2.3-3.7,3.2-5.5
		c-0.1,0.1-0.2,0.2-0.3,0.3c-0.8,0.9-1.8,1.8-2.7,2.7c-1,0.8-2,1.5-3,2.3C190.9,312.1,191.5,315.5,191.5,315.5z"/>
</g>
</svg>
