<?xml version="1.0" encoding="utf-8"?>
<!-- Generator: Adobe Illustrator 19.0.0, SVG Export Plug-In . SVG Version: 6.00 Build 0)  -->
<svg version="1.2" baseProfile="tiny" id="Layer_1" xmlns="http://www.w3.org/2000/svg" xmlns:xlink="http://www.w3.org/1999/xlink"
	 x="0px" y="0px" viewBox="0 0 299.96 106.84" xml:space="preserve">
<path fill="#77BC1F" d="M14.42,16.65c0.22,0.02,0.42,0.1,0.6,0.2c0.16,0.09,0.32,0.23,0.46,0.4c0.13,0.17,0.28,0.42,0.43,0.73
	l16.28,32.42c0.03-0.63,0.07-1.26,0.12-1.86c0.05-0.6,0.1-1.16,0.16-1.7l3.23-30.27h6.61l-5.12,47.52l-3.84,0.01
	c-0.58,0-1.06-0.11-1.46-0.32c-0.41-0.22-0.74-0.59-1.02-1.16L14.69,30.2c-0.04,0.52-0.08,1.03-0.12,1.53
	c-0.04,0.5-0.07,0.97-0.12,1.41L11.2,64.12l-6.61,0l5.1-47.53h3.91C13.93,16.6,14.21,16.61,14.42,16.65z"/>
<path fill="#77BC1F" d="M78.41,64.05h-5.8c-0.65,0-1.17-0.17-1.55-0.53c-0.4-0.33-0.64-0.81-0.73-1.4L68.6,52.2l-15.56,0.01
	l-3.85,9.93c-0.22,0.51-0.56,0.96-1.03,1.35c-0.49,0.39-1.02,0.59-1.61,0.59l-5.89,0.02l20.12-47.56h7.64L78.41,64.05z M55.37,46.19
	l12.14-0.01l-2.84-16.27c-0.16-0.79-0.32-1.62-0.46-2.49c-0.16-0.89-0.3-1.87-0.45-2.96c-0.36,1.09-0.71,2.11-1.07,3.04
	c-0.36,0.93-0.69,1.74-0.99,2.44L55.37,46.19z"/>
<path fill="#77BC1F" d="M109.82,16.49l-0.76,6.99L97.63,23.5l-4.35,40.52l-7.43,0.01l4.32-40.53l-11.46,0.03l0.74-7L109.82,16.49z"
	/>
<path fill="#77BC1F" d="M125.42,57.15c1.35,0,2.58-0.3,3.71-0.87c1.13-0.59,2.1-1.41,2.95-2.47c0.84-1.06,1.54-2.35,2.08-3.83
	c0.55-1.48,0.93-3.14,1.11-4.97l3.07-28.57l7.47,0l-3.03,28.57c-0.31,2.79-0.95,5.41-1.96,7.79c-1,2.37-2.28,4.45-3.84,6.18
	c-1.57,1.74-3.39,3.08-5.48,4.06c-2.09,0.98-4.37,1.47-6.85,1.47c-2.25,0.01-4.25-0.39-6-1.19c-1.74-0.81-3.23-1.92-4.43-3.36
	c-1.21-1.44-2.12-3.17-2.75-5.17c-0.62-2-0.94-4.21-0.94-6.63c0-0.99,0.06-2.03,0.17-3.11l3-28.56l7.5-0.02l-3.06,28.54
	c-0.05,0.41-0.07,0.82-0.08,1.21c-0.02,0.4-0.03,0.77-0.03,1.16c0,1.49,0.16,2.83,0.49,4.03c0.31,1.21,0.79,2.23,1.41,3.08
	c0.62,0.85,1.39,1.52,2.32,1.98C123.16,56.93,124.23,57.15,125.42,57.15z"/>
<path fill="#77BC1F" d="M157.36,45.22l-2,18.72l-7.43,0.02l5.06-47.53l11.84-0.02c2.41,0,4.47,0.29,6.18,0.86
	c1.71,0.58,3.11,1.4,4.2,2.43c1.11,1.04,1.91,2.28,2.43,3.73c0.52,1.45,0.79,3.02,0.79,4.76c0,1.84-0.22,3.56-0.68,5.17
	c-0.45,1.62-1.08,3.09-1.94,4.4c-0.84,1.33-1.89,2.46-3.11,3.46c-1.23,1-2.62,1.74-4.18,2.31c0.44,0.31,0.85,0.68,1.21,1.1
	c0.37,0.45,0.69,0.97,0.95,1.59l7.46,17.7h-6.72c-0.64,0-1.17-0.13-1.6-0.44c-0.44-0.29-0.76-0.71-0.97-1.25l-6.12-15.41
	c-0.24-0.57-0.52-0.98-0.85-1.23c-0.34-0.25-0.86-0.37-1.58-0.37H157.36z M159.77,23l-1.75,16.13h4.33c1.5,0,2.79-0.25,3.89-0.75
	c1.08-0.5,1.98-1.17,2.67-2.04c0.7-0.86,1.23-1.88,1.57-3.03c0.34-1.16,0.52-2.42,0.52-3.75c-0.01-2.06-0.56-3.67-1.68-4.83
	c-1.11-1.15-2.84-1.73-5.16-1.73L159.77,23z"/>
<path fill="#77BC1F" d="M216.26,63.88l-5.8,0.02c-0.65,0-1.18-0.18-1.57-0.53c-0.38-0.35-0.63-0.82-0.72-1.4l-1.74-9.93l-15.55,0.01
	l-3.84,9.93c-0.22,0.49-0.57,0.95-1.04,1.34c-0.48,0.41-1.03,0.6-1.62,0.6h-5.87l20.11-47.55l7.65-0.01L216.26,63.88z M193.22,46.04
	l12.14-0.03l-2.84-16.25c-0.15-0.8-0.31-1.63-0.46-2.5c-0.15-0.88-0.3-1.86-0.44-2.96c-0.36,1.1-0.72,2.11-1.08,3.05
	c-0.36,0.93-0.68,1.74-0.99,2.43L193.22,46.04z"/>
<path fill="#77BC1F" d="M227.81,56.8l15.17-0.01l-0.7,7.06l-22.69,0.02l5.09-47.52l7.49-0.03L227.81,56.8z"/>
<path fill="#77BC1F" d="M31.24,86.29c0,2.04-0.21,3.97-0.64,5.78c-0.42,1.81-1.03,3.47-1.82,4.99c-0.79,1.51-1.75,2.88-2.87,4.09
	c-1.12,1.21-2.39,2.24-3.78,3.08c-1.4,0.84-2.91,1.48-4.54,1.93s-3.35,0.68-5.17,0.68H0l4.42-36.05h12.41
	c2.21,0,4.21,0.38,5.99,1.13c1.78,0.75,3.29,1.82,4.54,3.19c1.25,1.37,2.2,3.01,2.87,4.91C30.9,81.92,31.24,84.01,31.24,86.29z
	 M26.11,86.41c0-1.77-0.22-3.38-0.66-4.81c-0.44-1.43-1.08-2.65-1.92-3.66c-0.84-1-1.86-1.78-3.07-2.31
	c-1.21-0.54-2.57-0.8-4.11-0.8H8.94l-3.44,27.96h7.42c1.96,0,3.75-0.38,5.37-1.13c1.61-0.75,3-1.83,4.17-3.24
	c1.17-1.41,2.07-3.12,2.71-5.15C25.8,91.25,26.11,88.96,26.11,86.41z"/>
<path fill="#77BC1F" d="M42.09,91.89l-1.82,14.95h-4.94l4.39-36.05h9.54c1.93,0,3.6,0.21,5.01,0.62s2.57,0.99,3.48,1.75
	c0.92,0.75,1.59,1.67,2.03,2.74c0.44,1.07,0.66,2.26,0.66,3.57c0,1.44-0.21,2.79-0.64,4.04c-0.42,1.26-1.04,2.38-1.83,3.37
	s-1.77,1.84-2.91,2.55c-1.14,0.71-2.43,1.24-3.86,1.6c0.58,0.38,1.06,0.92,1.42,1.61l7.49,14.22H55.7c-0.9,0-1.51-0.35-1.82-1.05
	l-6.49-12.76c-0.22-0.42-0.47-0.71-0.75-0.88c-0.28-0.17-0.73-0.25-1.35-0.25H42.09z M44.22,74.73l-1.67,13.52h4.45
	c1.4,0,2.63-0.2,3.69-0.6c1.07-0.4,1.95-0.96,2.66-1.67c0.7-0.71,1.24-1.56,1.61-2.54c0.37-0.98,0.55-2.05,0.55-3.2
	c0-1.78-0.56-3.14-1.67-4.08c-1.12-0.95-2.79-1.42-5.02-1.42H44.22z"/>
<path fill="#77BC1F" d="M69.61,106.84h-5.02l4.39-36.05h4.99L69.61,106.84z"/>
<path fill="#77BC1F" d="M85.96,70.94c0.2,0.1,0.41,0.34,0.62,0.7l15.21,27.05c0.03-0.42,0.07-0.81,0.1-1.18
	c0.03-0.37,0.07-0.72,0.1-1.05l3.14-25.67h4.39l-4.42,36.05h-2.5c-0.4,0-0.72-0.07-0.97-0.21c-0.25-0.14-0.49-0.38-0.72-0.72
	l-15.18-27l-0.15,1.83l-3.17,26.1h-4.39l4.42-36.05h2.57C85.44,70.79,85.76,70.84,85.96,70.94z"/>
<path fill="#77BC1F" d="M120.97,86.54h1.62c0.58,0,1.06-0.08,1.43-0.24c0.37-0.16,0.74-0.43,1.09-0.82l12.06-13.54
	c0.37-0.45,0.74-0.76,1.14-0.92c0.39-0.16,0.85-0.24,1.38-0.24h4.25l-14.03,15.5c-0.66,0.79-1.33,1.34-2,1.66
	c0.43,0.17,0.81,0.4,1.13,0.69c0.32,0.29,0.6,0.68,0.85,1.17l10.51,17.03h-4.3c-0.65,0-1.11-0.09-1.37-0.28
	c-0.27-0.19-0.49-0.44-0.67-0.78l-9.06-14.22c-0.25-0.44-0.54-0.74-0.89-0.92c-0.34-0.18-0.86-0.26-1.56-0.26h-2.05l-2,16.45h-4.94
	l4.39-36.07h4.97L120.97,86.54z"/>
<path fill="#77BC1F" d="M174.67,94.97c0.1,0.36,0.19,0.72,0.27,1.09c0.17-0.37,0.34-0.73,0.51-1.08c0.17-0.35,0.37-0.7,0.59-1.05
	l13.81-22.28c0.15-0.19,0.29-0.33,0.41-0.44c0.12-0.11,0.25-0.2,0.39-0.26c0.13-0.07,0.28-0.11,0.44-0.13
	c0.16-0.02,0.35-0.03,0.56-0.03h3.72l-4.42,36.05h-4.34l3.2-26.07c0.05-0.35,0.11-0.74,0.19-1.17c0.08-0.43,0.16-0.86,0.27-1.29
	l-13.68,22.28c-0.46,0.75-1.11,1.13-1.92,1.13h-0.7c-0.38,0-0.72-0.1-1.01-0.29c-0.29-0.19-0.5-0.47-0.64-0.84l-8.44-22.31
	c-0.02,0.44-0.04,0.86-0.05,1.28c-0.02,0.42-0.04,0.8-0.08,1.13l-3.17,26.15h-4.39l4.42-36.05h3.67c0.43,0,0.75,0.05,0.96,0.15
	c0.21,0.1,0.43,0.34,0.66,0.7l8.46,22.28C174.46,94.26,174.57,94.61,174.67,94.97z"/>
<path fill="#77BC1F" d="M204.41,106.84h-5.02l4.39-36.05h4.99L204.41,106.84z"/>
<path fill="#77BC1F" d="M222.85,87.59l-8.34-16.81h4.49c0.37,0,0.62,0.05,0.77,0.16c0.15,0.11,0.29,0.3,0.42,0.56l6.24,13.39
	c0.13-0.29,0.32-0.61,0.55-0.98l8.84-12.38c0.35-0.5,0.76-0.75,1.22-0.75h5.14l-12.46,16.58l9.37,19.47h-4.45
	c-0.37,0-0.64-0.1-0.82-0.29c-0.19-0.19-0.33-0.41-0.45-0.64l-7.11-15.52c-0.07,0.13-0.14,0.27-0.21,0.4
	c-0.07,0.13-0.15,0.26-0.24,0.38l-10.54,14.74c-0.43,0.62-0.98,0.93-1.65,0.93h-4.94L222.85,87.59z"/>
<path id="XMLID_41_" fill="#77BC1F" d="M253.09,74.81l-0.16-0.1c-0.71-0.2-1.34-0.64-1.83-1.31c-0.28-0.38-0.5-0.8-0.68-1.28
	l-0.08-0.23l-0.23-0.05v-1.04l0.17-0.18l-0.02-0.01c0.36-0.92,0.78-1.79,1.2-2.65c1.09-2.17,2.43-4.34,4.09-6.64
	c1.26-1.73,2.58-3.33,3.91-4.76c0.43-0.46,1.65-1.7,1.65-1.7l-1.4-1.72c-0.55-0.66-1.07-1.33-1.54-2.05c-0.95-1.47-1.64-3.16-2.03-5
	c-0.35-1.64-0.47-3.34-0.37-5.04c0.24-3.89,1.56-7.38,3.93-10.38c0.65-0.79,1.39-1.56,2.29-2.35c1.81-1.61,3.77-3.09,6-4.51
	c1.79-1.14,3.73-2.29,5.93-3.52l5.93-3.35c2.13-1.2,4.05-2.37,5.86-3.59c1.73-1.17,3.22-2.29,4.54-3.39
	c1.29-1.09,2.57-2.37,3.79-3.8c1.23-1.43,2.26-2.82,3.13-4.25l0.14-0.24c0.13-0.22,0.26-0.43,0.37-0.65
	c0.13-0.23,0.28-0.48,0.54-0.7l0.19-0.16c0,0,0.38-0.21,0.75-0.13s0.6,0.58,0.6,0.58s0.24,0.73,0.19,1.2s-0.12,1.21-0.17,1.67
	l-0.16,1.61c-0.05,0.51-0.1,1.01-0.14,1.52c0,0-0.8,7.91-0.85,8.52l-0.14,1.28c-0.05,0.62-0.12,1.27-0.18,1.9
	c-0.05,0.42-0.09,0.84-0.11,1.27l-0.71,7.27c-0.05,0.43-0.09,0.86-0.12,1.28l-0.47,4.92c-0.06,0.54-0.26,2.15-0.26,2.15
	c-0.16,1.17-0.36,2.33-0.59,3.46c-0.43,2.03-0.91,3.81-1.48,5.46c-0.72,2.07-1.53,3.84-2.48,5.43c-0.85,1.43-1.8,2.65-2.88,3.72
	c-1.29,1.26-2.75,2.27-4.45,3.07c-1.2,0.57-2.48,1-3.82,1.3c-1.02,0.22-1.96,0.37-2.86,0.44c-0.9,0.09-1.83,0.14-2.75,0.14
	c-0.51,0-1.02-0.01-1.53-0.04c-0.48-0.01-0.98-0.04-1.47-0.08c-0.52-0.05-2.63-0.27-2.63-0.27s-1.13-0.16-1.46-0.21l-1.88-0.31
	l-2.29-0.43c-0.42,0.56-0.73,1.05-1.04,1.56c-0.72,1.17-1.42,2.48-2.14,4.04c-1.16,2.49-2.24,5.27-3.3,8.49
	c-0.25,0.78-0.49,1.56-0.73,2.35c-0.12,0.41-0.36,0.71-0.73,0.9c-0.47,0.25-0.91,0.42-1.35,0.51l-0.29,0.08H253.09z M259.3,60.33
	c-1.15,1.39-2.24,2.86-3.25,4.38c-1.28,1.97-2.25,3.69-3.03,5.41c-0.12,0.23-0.21,0.45-0.3,0.67l-0.21,0.5
	c0.11,0.06,0.25,0.41,0.46,0.68c0.23,0.3,0.48,0.44,0.82,0.47l0,0c0.32,0,0.62-0.07,0.95-0.21l0.08-0.28
	c0.23-0.74,0.47-1.48,0.72-2.22c1.03-3.11,2.11-5.87,3.3-8.42C259,60.97,259.15,60.64,259.3,60.33z M264.78,54.57
	c1.14,0.21,2.29,0.42,3.44,0.61c1.07,0.17,2.15,0.31,3.23,0.43c0.91,0.08,1.85,0.15,2.78,0.19c0.3,0.01,0.61,0.01,0.92,0.01
	c0.8,0,1.59-0.03,2.38-0.1c0.94-0.07,1.84-0.2,2.69-0.39c1.27-0.27,2.45-0.66,3.5-1.15c1.44-0.66,2.72-1.53,3.78-2.57
	c0.9-0.87,1.7-1.88,2.4-3c0.19-0.3,0.37-0.61,0.55-0.92l-22.36,0.81c-0.57,1-1.14,2.01-1.69,3.03
	C265.83,52.52,265.3,53.54,264.78,54.57z M261.36,32.3c-0.72,0.98-1.4,2.09-1.94,3.32c-0.9,2.02-1.35,4.22-1.35,6.53
	c0,1.29,0.12,2.44,0.37,3.51c0.29,1.38,0.78,2.64,1.46,3.75c0.45,0.73,0.99,1.47,1.66,2.26c0.23,0.26,1.28,1.55,1.36,1.66
	c0,0,0.5-0.99,0.75-1.45l1.31-2.44l1.2-2.12L261.36,32.3z M274.35,38.61c-0.63,0.86-1.27,1.74-1.9,2.64
	c-0.78,1.16-1.5,2.37-2.22,3.59c-0.26,0.44-0.52,0.88-0.78,1.31c0,0,17.74-0.64,18.73-0.68c0.44-0.01,3.42-0.12,3.42-0.12
	c1-2.37,1.78-5.05,2.36-8.16L274.35,38.61z M263.13,30.49c0.61,1.97,3.44,10.88,4.55,14.29l0.94-1.61c1.13-1.93,2.36-3.78,3.65-5.5
	l0.22-0.3l-2.83-11.79C267.13,27.17,264.99,28.78,263.13,30.49z M282.01,29.51l-0.07,0.16l-0.88,0.99
	c-1.18,1.32-2.37,2.65-3.53,4.02c-0.41,0.5-0.83,1-1.24,1.51l18.04-1.3l0.08-0.6c0.08-0.66,0.16-1.33,0.23-1.99
	c0.07-0.7,0.38-4.14,0.38-4.14C294.96,28.15,282.67,29.43,282.01,29.51z M274.23,35.14c0.88-1.09,1.77-2.15,2.66-3.19
	c1.14-1.29,2.28-2.58,3.43-3.86l-0.25-2.08l-0.77-6c-0.83,0.47-4.54,2.53-4.54,2.53c-0.94,0.53-1.88,1.09-2.82,1.64l-0.3,0.18
	C272.18,26.58,274.23,35.14,274.23,35.14z M289.86,21.86c-0.4,0.06-0.81,0.13-1.22,0.18c-1.2,1.49-2.5,2.95-3.79,4.4l-0.48,0.53
	c0,0,9.55-0.99,10-1.05c0.3-0.02,0.59-0.05,0.87-0.08c0.12-1.07,0.36-3.57,0.47-4.86L289.86,21.86z M281.39,18.82
	c0.18,1.5,0.37,3,0.57,4.51l0.33,2.62c0.44-0.51,0.9-1.02,1.35-1.54c1.14-1.27,2.26-2.56,3.35-3.87l-0.75-4.68l-0.83,0.54
	C284.09,17.24,282.74,18.04,281.39,18.82z M296.84,9.57c-0.32,0.86-0.63,1.59-0.89,2.08c-1.25,2.28-2.73,4.54-4.4,6.74
	c-0.26,0.34-0.52,0.68-0.78,1.01l5.17-0.78L296.84,9.57z M288.87,18.22c0.97-1.25,1.79-2.36,2.54-3.46
	c1.42-2.08,2.59-4.08,3.57-6.09c-0.13,0.14-0.26,0.28-0.4,0.42c-0.94,1.02-1.96,1.99-3.03,2.88c-1.07,0.88-2.17,1.72-3.29,2.51
	C288.27,14.5,288.87,18.22,288.87,18.22z"/>
<g id="XMLID_58_">
</g>
<g id="XMLID_59_">
</g>
<g id="XMLID_60_">
</g>
<g id="XMLID_61_">
</g>
<g id="XMLID_62_">
</g>
<g id="XMLID_63_">
</g>
</svg>
