<?xml version="1.0" encoding="utf-8"?>
<!-- Generator: Adobe Illustrator 19.0.0, SVG Export Plug-In . SVG Version: 6.00 Build 0)  -->
<svg version="1.1" id="Layer_1" xmlns="http://www.w3.org/2000/svg" xmlns:xlink="http://www.w3.org/1999/xlink" x="0px" y="0px"
	 viewBox="-155 343.2 300 138.5" style="enable-background:new -155 343.2 300 138.5;" xml:space="preserve">
<style type="text/css">
	.st0{fill:#77BC1F;}
</style>
<path class="st0" d="M-140.6,359.8c0.2,0,0.4,0.1,0.6,0.2c0.2,0.1,0.3,0.2,0.5,0.4c0.1,0.2,0.3,0.4,0.4,0.7l16.3,32.4
	c0-0.6,0.1-1.3,0.1-1.9c0.1-0.6,0.1-1.2,0.2-1.7l3.2-30.3h6.6l-5.1,47.5l-3.8,0c-0.6,0-1.1-0.1-1.5-0.3c-0.4-0.2-0.7-0.6-1-1.2
	l-16.2-32.4c0,0.5-0.1,1-0.1,1.5c0,0.5-0.1,1-0.1,1.4l-3.2,31h-6.6l5.1-47.5h3.9C-141.1,359.8-140.8,359.8-140.6,359.8z"/>
<path class="st0" d="M-76.6,407.2h-5.8c-0.7,0-1.2-0.2-1.6-0.5c-0.4-0.3-0.6-0.8-0.7-1.4l-1.7-9.9l-15.6,0l-3.8,9.9
	c-0.2,0.5-0.6,1-1,1.3c-0.5,0.4-1,0.6-1.6,0.6l-5.9,0l20.1-47.6h7.6L-76.6,407.2z M-99.6,389.4l12.1,0l-2.8-16.3
	c-0.2-0.8-0.3-1.6-0.5-2.5c-0.2-0.9-0.3-1.9-0.4-3c-0.4,1.1-0.7,2.1-1.1,3s-0.7,1.7-1,2.4L-99.6,389.4z"/>
<path class="st0" d="M-45.2,359.6l-0.8,7l-11.4,0l-4.3,40.5l-7.4,0l4.3-40.5l-11.5,0l0.7-7L-45.2,359.6z"/>
<path class="st0" d="M-29.6,400.3c1.3,0,2.6-0.3,3.7-0.9c1.1-0.6,2.1-1.4,2.9-2.5c0.8-1.1,1.5-2.4,2.1-3.8c0.6-1.5,0.9-3.1,1.1-5
	l3.1-28.6h7.5l-3,28.6c-0.3,2.8-0.9,5.4-2,7.8c-1,2.4-2.3,4.4-3.8,6.2c-1.6,1.7-3.4,3.1-5.5,4.1s-4.4,1.5-6.8,1.5
	c-2.2,0-4.2-0.4-6-1.2c-1.7-0.8-3.2-1.9-4.4-3.4c-1.2-1.4-2.1-3.2-2.8-5.2c-0.6-2-0.9-4.2-0.9-6.6c0-1,0.1-2,0.2-3.1l3-28.6l7.5,0
	l-3.1,28.5c-0.1,0.4-0.1,0.8-0.1,1.2c0,0.4,0,0.8,0,1.2c0,1.5,0.2,2.8,0.5,4c0.3,1.2,0.8,2.2,1.4,3.1c0.6,0.9,1.4,1.5,2.3,2
	C-31.8,400.1-30.8,400.3-29.6,400.3z"/>
<path class="st0" d="M2.4,388.4l-2,18.7l-7.4,0l5.1-47.5l11.8,0c2.4,0,4.5,0.3,6.2,0.9c1.7,0.6,3.1,1.4,4.2,2.4
	c1.1,1,1.9,2.3,2.4,3.7c0.5,1.5,0.8,3,0.8,4.8c0,1.8-0.2,3.6-0.7,5.2c-0.4,1.6-1.1,3.1-1.9,4.4c-0.8,1.3-1.9,2.5-3.1,3.5
	c-1.2,1-2.6,1.7-4.2,2.3c0.4,0.3,0.9,0.7,1.2,1.1c0.4,0.5,0.7,1,0.9,1.6l7.5,17.7h-6.7c-0.6,0-1.2-0.1-1.6-0.4
	c-0.4-0.3-0.8-0.7-1-1.2L7.7,390c-0.2-0.6-0.5-1-0.9-1.2c-0.3-0.2-0.9-0.4-1.6-0.4C5.3,388.4,2.4,388.4,2.4,388.4z M4.8,366.2
	L3,382.3h4.3c1.5,0,2.8-0.2,3.9-0.8c1.1-0.5,2-1.2,2.7-2c0.7-0.9,1.2-1.9,1.6-3c0.3-1.2,0.5-2.4,0.5-3.8c0-2.1-0.6-3.7-1.7-4.8
	c-1.1-1.2-2.8-1.7-5.2-1.7H4.8z"/>
<path class="st0" d="M61.3,407l-5.8,0c-0.6,0-1.2-0.2-1.6-0.5c-0.4-0.3-0.6-0.8-0.7-1.4l-1.7-9.9l-15.6,0l-3.8,9.9
	c-0.2,0.5-0.6,0.9-1,1.3c-0.5,0.4-1,0.6-1.6,0.6h-5.9l20.1-47.6l7.6,0L61.3,407z M38.2,389.2l12.1,0l-2.8-16.2
	c-0.1-0.8-0.3-1.6-0.5-2.5c-0.1-0.9-0.3-1.9-0.4-3c-0.4,1.1-0.7,2.1-1.1,3c-0.4,0.9-0.7,1.7-1,2.4L38.2,389.2z"/>
<path class="st0" d="M72.8,400l15.2,0l-0.7,7.1l-22.7,0l5.1-47.5l7.5,0L72.8,400z"/>
<path class="st0" d="M-123.8,429.5c0,2-0.2,4-0.6,5.8c-0.4,1.8-1,3.5-1.8,5c-0.8,1.5-1.8,2.9-2.9,4.1c-1.1,1.2-2.4,2.2-3.8,3.1
	c-1.4,0.8-2.9,1.5-4.5,1.9c-1.6,0.4-3.3,0.7-5.2,0.7H-155l4.4-36h12.4c2.2,0,4.2,0.4,6,1.1s3.3,1.8,4.5,3.2c1.2,1.4,2.2,3,2.9,4.9
	C-124.1,425.1-123.8,427.2-123.8,429.5z M-128.9,429.6c0-1.8-0.2-3.4-0.7-4.8s-1.1-2.6-1.9-3.7c-0.8-1-1.9-1.8-3.1-2.3
	c-1.2-0.5-2.6-0.8-4.1-0.8h-7.4l-3.4,28h7.4c2,0,3.8-0.4,5.4-1.1c1.6-0.8,3-1.8,4.2-3.2s2.1-3.1,2.7-5.1
	C-129.2,434.4-128.9,432.1-128.9,429.6z"/>
<path class="st0" d="M-112.9,435.1l-1.8,14.9h-4.9l4.4-36h9.5c1.9,0,3.6,0.2,5,0.6s2.6,1,3.5,1.8c0.9,0.8,1.6,1.7,2,2.7
	c0.4,1.1,0.7,2.3,0.7,3.6c0,1.4-0.2,2.8-0.6,4c-0.4,1.3-1,2.4-1.8,3.4c-0.8,1-1.8,1.8-2.9,2.5c-1.1,0.7-2.4,1.2-3.9,1.6
	c0.6,0.4,1.1,0.9,1.4,1.6l7.5,14.2h-4.4c-0.9,0-1.5-0.4-1.8-1.1l-6.5-12.8c-0.2-0.4-0.5-0.7-0.8-0.9c-0.3-0.2-0.7-0.2-1.3-0.2
	L-112.9,435.1L-112.9,435.1z M-110.8,417.9l-1.7,13.5h4.4c1.4,0,2.6-0.2,3.7-0.6c1.1-0.4,1.9-1,2.7-1.7c0.7-0.7,1.2-1.6,1.6-2.5
	c0.4-1,0.5-2,0.5-3.2c0-1.8-0.6-3.1-1.7-4.1c-1.1-0.9-2.8-1.4-5-1.4L-110.8,417.9L-110.8,417.9z"/>
<path class="st0" d="M-85.4,450h-5l4.4-36h5L-85.4,450z"/>
<path class="st0" d="M-69,414.1c0.2,0.1,0.4,0.3,0.6,0.7l15.2,27c0-0.4,0.1-0.8,0.1-1.2s0.1-0.7,0.1-1.1l3.1-25.7h4.4l-4.4,36h-2.5
	c-0.4,0-0.7-0.1-1-0.2c-0.2-0.1-0.5-0.4-0.7-0.7l-15.2-27l-0.2,1.8l-3.2,26.1H-77l4.4-36h2.6C-69.6,414-69.2,414-69,414.1z"/>
<path class="st0" d="M-34,429.7h1.6c0.6,0,1.1-0.1,1.4-0.2c0.4-0.2,0.7-0.4,1.1-0.8l12.1-13.5c0.4-0.4,0.7-0.8,1.1-0.9
	c0.4-0.2,0.9-0.2,1.4-0.2h4.2l-14,15.5c-0.7,0.8-1.3,1.3-2,1.7c0.4,0.2,0.8,0.4,1.1,0.7c0.3,0.3,0.6,0.7,0.9,1.2l10.5,17h-4.3
	c-0.6,0-1.1-0.1-1.4-0.3c-0.3-0.2-0.5-0.4-0.7-0.8l-9.1-14.2c-0.2-0.4-0.5-0.7-0.9-0.9c-0.3-0.2-0.9-0.3-1.6-0.3h-2.1l-2,16.4h-4.9
	l4.4-36.1h5L-34,429.7z"/>
<path class="st0" d="M19.7,438.1c0.1,0.4,0.2,0.7,0.3,1.1c0.2-0.4,0.3-0.7,0.5-1.1c0.2-0.4,0.4-0.7,0.6-1.1l13.8-22.3
	c0.1-0.2,0.3-0.3,0.4-0.4c0.1-0.1,0.2-0.2,0.4-0.3c0.1-0.1,0.3-0.1,0.4-0.1c0.2,0,0.4,0,0.6,0h3.7l-4.4,36h-4.3l3.2-26.1
	c0.1-0.3,0.1-0.7,0.2-1.2s0.2-0.9,0.3-1.3l-13.7,22.3c-0.5,0.8-1.1,1.1-1.9,1.1H19c-0.4,0-0.7-0.1-1-0.3s-0.5-0.5-0.6-0.8l-8.4-22.3
	c0,0.4,0,0.9-0.1,1.3c0,0.4,0,0.8-0.1,1.1L5.6,450H1.2l4.4-36h3.7c0.4,0,0.8,0,1,0.1s0.4,0.3,0.7,0.7l8.5,22.3
	C19.5,437.4,19.6,437.8,19.7,438.1z"/>
<path class="st0" d="M49.4,450h-5l4.4-36h5L49.4,450z"/>
<path class="st0" d="M67.9,430.8l-8.3-16.8H64c0.4,0,0.6,0.1,0.8,0.2c0.1,0.1,0.3,0.3,0.4,0.6l6.2,13.4c0.1-0.3,0.3-0.6,0.6-1
	l8.8-12.4c0.4-0.5,0.8-0.8,1.2-0.8h5.1l-12.5,16.6l9.4,19.5h-4.4c-0.4,0-0.6-0.1-0.8-0.3c-0.2-0.2-0.3-0.4-0.4-0.6l-7.1-15.5
	c-0.1,0.1-0.1,0.3-0.2,0.4s-0.1,0.3-0.2,0.4l-10.5,14.7c-0.4,0.6-1,0.9-1.6,0.9h-4.9L67.9,430.8z"/>
<path id="XMLID_41_" class="st0" d="M98.1,418l-0.2-0.1c-0.7-0.2-1.3-0.6-1.8-1.3c-0.3-0.4-0.5-0.8-0.7-1.3l-0.1-0.2l-0.2-0.1v-1
	l0.2-0.2l0,0c0.4-0.9,0.8-1.8,1.2-2.6c1.1-2.2,2.4-4.3,4.1-6.6c1.3-1.7,2.6-3.3,3.9-4.8c0.4-0.5,1.6-1.7,1.6-1.7l-1.4-1.7
	c-0.5-0.7-1.1-1.3-1.5-2c-1-1.5-1.6-3.2-2-5c-0.4-1.6-0.5-3.3-0.4-5c0.2-3.9,1.6-7.4,3.9-10.4c0.6-0.8,1.4-1.6,2.3-2.4
	c1.8-1.6,3.8-3.1,6-4.5c1.8-1.1,3.7-2.3,5.9-3.5l5.9-3.4c2.1-1.2,4-2.4,5.9-3.6c1.7-1.2,3.2-2.3,4.5-3.4c1.3-1.1,2.6-2.4,3.8-3.8
	c1.2-1.4,2.3-2.8,3.1-4.2l0.1-0.2c0.1-0.2,0.3-0.4,0.4-0.6c0.1-0.2,0.3-0.5,0.5-0.7l0.2-0.2c0,0,0.4-0.2,0.8-0.1
	c0.4,0.1,0.6,0.6,0.6,0.6s0.2,0.7,0.2,1.2s-0.1,1.2-0.2,1.7l-0.2,1.6c0,0.5-0.1,1-0.1,1.5c0,0-0.8,7.9-0.9,8.5l-0.1,1.3
	c0,0.6-0.1,1.3-0.2,1.9c0,0.4-0.1,0.8-0.1,1.3l-0.7,7.3c0,0.4-0.1,0.9-0.1,1.3l-0.5,4.9c-0.1,0.5-0.3,2.1-0.3,2.1
	c-0.2,1.2-0.4,2.3-0.6,3.5c-0.4,2-0.9,3.8-1.5,5.5c-0.7,2.1-1.5,3.8-2.5,5.4c-0.9,1.4-1.8,2.6-2.9,3.7c-1.3,1.3-2.8,2.3-4.5,3.1
	c-1.2,0.6-2.5,1-3.8,1.3c-1,0.2-2,0.4-2.9,0.4c-0.9,0.1-1.8,0.1-2.8,0.1c-0.5,0-1,0-1.5,0c-0.5,0-1,0-1.5-0.1
	c-0.5,0-2.6-0.3-2.6-0.3s-1.1-0.2-1.5-0.2l-1.9-0.3l-2.3-0.4c-0.4,0.6-0.7,1.1-1,1.6c-0.7,1.2-1.4,2.5-2.1,4
	c-1.2,2.5-2.2,5.3-3.3,8.5c-0.2,0.8-0.5,1.6-0.7,2.3c-0.1,0.4-0.4,0.7-0.7,0.9c-0.5,0.2-0.9,0.4-1.4,0.5l-0.3,0.1
	C99.5,418,98.1,418,98.1,418z M104.3,403.5c-1.1,1.4-2.2,2.9-3.2,4.4c-1.3,2-2.2,3.7-3,5.4c-0.1,0.2-0.2,0.5-0.3,0.7l-0.2,0.5
	c0.1,0.1,0.2,0.4,0.5,0.7c0.2,0.3,0.5,0.4,0.8,0.5l0,0c0.3,0,0.6-0.1,0.9-0.2l0.1-0.3c0.2-0.7,0.5-1.5,0.7-2.2
	c1-3.1,2.1-5.9,3.3-8.4C104,404.1,104.1,403.8,104.3,403.5z M109.8,397.7c1.1,0.2,2.3,0.4,3.4,0.6c1.1,0.2,2.1,0.3,3.2,0.4
	c0.9,0.1,1.9,0.1,2.8,0.2c0.3,0,0.6,0,0.9,0c0.8,0,1.6,0,2.4-0.1c0.9-0.1,1.8-0.2,2.7-0.4c1.3-0.3,2.5-0.7,3.5-1.1
	c1.4-0.7,2.7-1.5,3.8-2.6c0.9-0.9,1.7-1.9,2.4-3c0.2-0.3,0.4-0.6,0.5-0.9l-22.4,0.8c-0.6,1-1.1,2-1.7,3
	C110.8,395.7,110.3,396.7,109.8,397.7z M106.4,375.5c-0.7,1-1.4,2.1-1.9,3.3c-0.9,2-1.4,4.2-1.4,6.5c0,1.3,0.1,2.4,0.4,3.5
	c0.3,1.4,0.8,2.6,1.5,3.8c0.5,0.7,1,1.5,1.7,2.3c0.2,0.3,1.3,1.6,1.4,1.7c0,0,0.5-1,0.8-1.4l1.3-2.4l1.2-2.1L106.4,375.5z
	 M119.4,381.8c-0.6,0.9-1.3,1.7-1.9,2.6c-0.8,1.2-1.5,2.4-2.2,3.6c-0.3,0.4-0.5,0.9-0.8,1.3c0,0,17.7-0.6,18.7-0.7
	c0.4,0,3.4-0.1,3.4-0.1c1-2.4,1.8-5,2.4-8.2L119.4,381.8z M108.1,373.6c0.6,2,3.4,10.9,4.5,14.3l0.9-1.6c1.1-1.9,2.4-3.8,3.6-5.5
	l0.2-0.3l-2.8-11.8C112.1,370.3,110,371.9,108.1,373.6z M127,372.7l-0.1,0.2l-0.9,1c-1.2,1.3-2.4,2.6-3.5,4c-0.4,0.5-0.8,1-1.2,1.5
	l18-1.3l0.1-0.6c0.1-0.7,0.2-1.3,0.2-2c0.1-0.7,0.4-4.1,0.4-4.1C140,371.3,127.7,372.6,127,372.7z M119.2,378.3
	c0.9-1.1,1.8-2.2,2.7-3.2c1.1-1.3,2.3-2.6,3.4-3.9l-0.2-2.1l-0.8-6c-0.8,0.5-4.5,2.5-4.5,2.5c-0.9,0.5-1.9,1.1-2.8,1.6l-0.3,0.2
	C117.2,369.7,119.2,378.3,119.2,378.3z M134.9,365c-0.4,0.1-0.8,0.1-1.2,0.2c-1.2,1.5-2.5,2.9-3.8,4.4l-0.5,0.5c0,0,9.5-1,10-1
	c0.3,0,0.6-0.1,0.9-0.1c0.1-1.1,0.4-3.6,0.5-4.9L134.9,365z M126.4,362c0.2,1.5,0.4,3,0.6,4.5l0.3,2.6c0.4-0.5,0.9-1,1.4-1.5
	c1.1-1.3,2.3-2.6,3.4-3.9l-0.8-4.7l-0.8,0.5C129.1,360.4,127.7,361.2,126.4,362z M141.8,352.7c-0.3,0.9-0.6,1.6-0.9,2.1
	c-1.2,2.3-2.7,4.5-4.4,6.7c-0.3,0.3-0.5,0.7-0.8,1l5.2-0.8L141.8,352.7z M133.9,361.4c1-1.2,1.8-2.4,2.5-3.5
	c1.4-2.1,2.6-4.1,3.6-6.1c-0.1,0.1-0.3,0.3-0.4,0.4c-0.9,1-2,2-3,2.9c-1.1,0.9-2.2,1.7-3.3,2.5C133.3,357.7,133.9,361.4,133.9,361.4
	z"/>
<g id="XMLID_58_">
</g>
<g id="XMLID_59_">
</g>
<g id="XMLID_60_">
</g>
<g id="XMLID_61_">
</g>
<g id="XMLID_62_">
</g>
<g id="XMLID_63_">
</g>
<g>
	<path class="st0" d="M-51.9,477.1v-18.7h2.6v7.3c0.5-0.5,1-0.9,1.6-1.3c0.6-0.3,1.3-0.5,2.1-0.5c0.7,0,1.3,0.1,1.8,0.4
		s0.9,0.6,1.3,1c0.3,0.4,0.6,0.9,0.8,1.5c0.2,0.6,0.3,1.3,0.3,2v8.2h-2.5v-8.2c0-0.9-0.2-1.5-0.6-2c-0.4-0.5-1-0.7-1.7-0.7
		c-0.6,0-1.1,0.1-1.6,0.4c-0.5,0.3-0.9,0.7-1.4,1.1v9.4H-51.9z"/>
	<path class="st0" d="M-34.8,480.8c-0.1,0.2-0.2,0.3-0.3,0.5s-0.3,0.2-0.6,0.2h-1.9l2.2-5.2l-5-12h2.2c0.2,0,0.4,0.1,0.5,0.2
		c0.1,0.1,0.2,0.2,0.3,0.4l2.9,7.3c0.1,0.4,0.3,0.8,0.4,1.3c0.1-0.2,0.1-0.4,0.2-0.6c0.1-0.2,0.1-0.4,0.2-0.6l2.8-7.3
		c0.1-0.2,0.1-0.3,0.3-0.4c0.1-0.1,0.3-0.2,0.4-0.2h2L-34.8,480.8z"/>
	<path class="st0" d="M-18,477.1c-0.3,0-0.6-0.2-0.7-0.5l-0.2-1.4c-0.3,0.3-0.5,0.6-0.8,0.9c-0.3,0.3-0.6,0.5-0.9,0.7
		c-0.3,0.2-0.7,0.3-1.1,0.4c-0.4,0.1-0.8,0.2-1.2,0.2c-0.7,0-1.3-0.1-1.9-0.4c-0.6-0.3-1-0.7-1.4-1.3s-0.7-1.2-0.9-2.1
		c-0.2-0.8-0.3-1.8-0.3-2.8c0-1,0.1-1.8,0.4-2.7c0.2-0.8,0.6-1.5,1-2.1c0.5-0.6,1-1.1,1.6-1.4s1.4-0.5,2.2-0.5
		c0.7,0,1.3,0.1,1.8,0.4c0.5,0.2,0.9,0.6,1.3,1v-6.9h2.6v18.7H-18z M-22.1,475.1c0.7,0,1.2-0.1,1.7-0.4c0.5-0.3,0.9-0.7,1.3-1.3v-6
		c-0.4-0.5-0.8-0.8-1.2-1c-0.4-0.2-0.9-0.3-1.4-0.3c-1,0-1.8,0.4-2.3,1.2c-0.6,0.8-0.8,1.9-0.8,3.5c0,0.8,0.1,1.5,0.2,2
		s0.3,1,0.5,1.4c0.2,0.4,0.5,0.6,0.9,0.8C-22.9,475.1-22.5,475.1-22.1,475.1z"/>
	<path class="st0" d="M-13.4,477.1v-12.9h1.5c0.3,0,0.5,0.1,0.6,0.2c0.1,0.1,0.2,0.3,0.2,0.5l0.1,1.7c0.4-0.8,0.9-1.5,1.4-1.9
		c0.5-0.5,1.2-0.7,1.9-0.7c0.3,0,0.5,0,0.7,0.1c0.2,0.1,0.4,0.2,0.6,0.3l-0.2,2c0,0.1-0.1,0.2-0.1,0.3s-0.2,0.1-0.3,0.1
		c-0.1,0-0.3,0-0.5-0.1c-0.2,0-0.5-0.1-0.7-0.1c-0.4,0-0.7,0.1-1,0.2c-0.3,0.1-0.5,0.3-0.7,0.5c-0.2,0.2-0.4,0.5-0.6,0.8
		c-0.2,0.3-0.3,0.6-0.5,1v8H-13.4z"/>
	<path class="st0" d="M3,477.1c-0.2,0-0.4,0-0.6-0.1s-0.2-0.2-0.3-0.5l-0.2-1c-0.3,0.3-0.6,0.6-0.9,0.8c-0.3,0.2-0.6,0.4-0.9,0.6
		c-0.3,0.2-0.7,0.3-1,0.4s-0.8,0.1-1.2,0.1c-0.5,0-1-0.1-1.4-0.2c-0.4-0.1-0.8-0.4-1.1-0.7c-0.3-0.3-0.6-0.6-0.7-1.1
		c-0.2-0.4-0.3-0.9-0.3-1.5c0-0.5,0.1-1,0.4-1.5c0.2-0.5,0.7-0.9,1.2-1.3c0.6-0.4,1.3-0.7,2.3-0.9c0.9-0.2,2.1-0.4,3.5-0.4V469
		c0-0.9-0.2-1.6-0.6-2.1c-0.4-0.5-0.9-0.7-1.6-0.7c-0.5,0-0.9,0.1-1.2,0.2s-0.6,0.3-0.9,0.4c-0.2,0.2-0.5,0.3-0.7,0.4
		s-0.4,0.2-0.6,0.2c-0.2,0-0.3,0-0.4-0.1s-0.2-0.2-0.3-0.4l-0.5-0.9c1.4-1.4,3-2,4.9-2c0.7,0,1.3,0.1,1.9,0.4c0.5,0.2,1,0.6,1.4,1
		s0.7,1,0.8,1.6s0.3,1.3,0.3,2v8.2H3z M-1.4,475.4c0.7,0,1.2-0.1,1.7-0.4c0.5-0.3,0.9-0.6,1.4-1.1v-2.4c-0.9,0-1.7,0.1-2.3,0.2
		c-0.6,0.1-1.1,0.3-1.5,0.5c-0.4,0.2-0.7,0.4-0.8,0.7s-0.3,0.5-0.3,0.9c0,0.3,0,0.6,0.1,0.8c0.1,0.2,0.2,0.4,0.4,0.5
		c0.2,0.1,0.4,0.2,0.6,0.3C-1.9,475.4-1.7,475.4-1.4,475.4z"/>
	<path class="st0" d="M10.9,477.3c-1,0-1.8-0.3-2.3-0.9s-0.8-1.5-0.8-2.5v-7.5H6.4c-0.1,0-0.3,0-0.4-0.1c-0.1-0.1-0.2-0.2-0.2-0.4
		v-1.1l2-0.3l0.6-3.7c0-0.1,0.1-0.3,0.2-0.3c0.1-0.1,0.2-0.1,0.4-0.1h1.3v4.2h8.5v12.7h-2.6v-10.7h-5.9v7.3c0,0.5,0.1,0.8,0.3,1.1
		s0.5,0.4,0.9,0.4c0.2,0,0.4,0,0.5-0.1s0.3-0.1,0.4-0.2c0.1-0.1,0.2-0.1,0.3-0.2s0.1-0.1,0.2-0.1c0.1,0,0.3,0.1,0.3,0.3l0.8,1.3
		c-0.4,0.4-0.9,0.7-1.4,0.9C12,477.2,11.5,477.3,10.9,477.3z M19.3,460.3c0,0.2,0,0.5-0.1,0.7c-0.1,0.2-0.2,0.4-0.4,0.6
		c-0.2,0.2-0.3,0.3-0.6,0.4c-0.2,0.1-0.4,0.1-0.7,0.1c-0.2,0-0.4,0-0.6-0.1s-0.4-0.2-0.5-0.4s-0.3-0.4-0.4-0.6
		c-0.1-0.2-0.1-0.4-0.1-0.7c0-0.3,0-0.5,0.1-0.7c0.1-0.2,0.2-0.4,0.4-0.6s0.3-0.3,0.5-0.4s0.4-0.1,0.6-0.1c0.2,0,0.5,0,0.7,0.1
		c0.2,0.1,0.4,0.2,0.6,0.4c0.2,0.2,0.3,0.4,0.4,0.6C19.3,459.8,19.3,460.1,19.3,460.3z"/>
	<path class="st0" d="M27.3,464.1c0.9,0,1.7,0.2,2.4,0.5c0.7,0.3,1.3,0.8,1.9,1.3s0.9,1.3,1.2,2.1c0.3,0.8,0.4,1.7,0.4,2.8
		c0,1-0.1,1.9-0.4,2.8c-0.3,0.8-0.7,1.5-1.2,2.1s-1.1,1-1.9,1.3c-0.7,0.3-1.5,0.5-2.4,0.5c-0.9,0-1.7-0.2-2.4-0.5
		c-0.7-0.3-1.3-0.8-1.9-1.3c-0.5-0.6-0.9-1.3-1.2-2.1c-0.3-0.8-0.4-1.7-0.4-2.8c0-1,0.1-1.9,0.4-2.8c0.3-0.8,0.7-1.5,1.2-2.1
		c0.5-0.6,1.1-1,1.9-1.3C25.5,464.2,26.4,464.1,27.3,464.1z M27.3,475.2c1.1,0,1.9-0.4,2.4-1.2c0.5-0.8,0.8-1.9,0.8-3.3
		c0-1.4-0.3-2.6-0.8-3.4c-0.5-0.8-1.4-1.2-2.4-1.2c-1.1,0-1.9,0.4-2.5,1.2c-0.5,0.8-0.8,1.9-0.8,3.4c0,1.4,0.3,2.6,0.8,3.3
		C25.3,474.8,26.1,475.2,27.3,475.2z"/>
	<path class="st0" d="M35.6,477.1v-12.9h1.5c0.3,0,0.6,0.2,0.7,0.5L38,466c0.3-0.3,0.5-0.5,0.8-0.8c0.3-0.2,0.6-0.4,0.9-0.6
		s0.7-0.3,1-0.4c0.4-0.1,0.8-0.1,1.2-0.1c0.7,0,1.3,0.1,1.8,0.4s0.9,0.6,1.3,1c0.3,0.4,0.6,0.9,0.8,1.5c0.2,0.6,0.3,1.3,0.3,2v8.2
		h-2.5v-8.2c0-0.9-0.2-1.5-0.6-2c-0.4-0.5-1-0.7-1.7-0.7c-0.6,0-1.1,0.1-1.6,0.4c-0.5,0.3-0.9,0.7-1.4,1.1v9.4H35.6z"/>
	<path class="st0" d="M61.3,462.4v5.3H66v2h-4.7v5.3h-2.1v-5.3h-4.7v-2h4.7v-5.3H61.3z"/>
	<path class="st0" d="M79.7,464.1c0.7,0,1.4,0.1,2.1,0.4c0.6,0.3,1.2,0.6,1.6,1.1c0.5,0.5,0.8,1.1,1.1,1.8s0.4,1.5,0.4,2.5
		c0,0.4,0,0.7-0.1,0.8c-0.1,0.1-0.2,0.2-0.5,0.2h-7.8c0,0.7,0.1,1.4,0.3,1.9c0.2,0.5,0.4,1,0.7,1.3s0.7,0.6,1.1,0.8
		c0.4,0.2,0.9,0.3,1.4,0.3c0.5,0,0.9-0.1,1.3-0.2c0.4-0.1,0.7-0.3,1-0.4c0.3-0.1,0.5-0.3,0.7-0.4s0.4-0.2,0.5-0.2
		c0.2,0,0.4,0.1,0.5,0.3l0.7,1c-0.3,0.4-0.6,0.7-1,1s-0.8,0.5-1.2,0.6c-0.4,0.2-0.9,0.3-1.3,0.4s-0.9,0.1-1.3,0.1
		c-0.8,0-1.6-0.1-2.3-0.4s-1.3-0.7-1.9-1.3c-0.5-0.6-0.9-1.3-1.2-2.2c-0.3-0.9-0.4-1.8-0.4-3c0-0.9,0.1-1.7,0.4-2.5
		c0.3-0.8,0.6-1.4,1.1-2c0.5-0.6,1.1-1,1.8-1.4C78,464.2,78.8,464.1,79.7,464.1z M79.7,466c-0.9,0-1.7,0.3-2.2,0.8
		c-0.5,0.6-0.9,1.4-1,2.4h6c0-0.5-0.1-0.9-0.2-1.3c-0.1-0.4-0.3-0.7-0.5-1c-0.2-0.3-0.5-0.5-0.9-0.7S80.2,466,79.7,466z"/>
	<path class="st0" d="M87.2,477.1v-12.9h1.5c0.3,0,0.6,0.2,0.7,0.5l0.2,1.2c0.3-0.3,0.5-0.5,0.8-0.8c0.3-0.2,0.6-0.4,0.9-0.6
		s0.7-0.3,1-0.4c0.4-0.1,0.8-0.1,1.2-0.1c0.7,0,1.3,0.1,1.8,0.4s0.9,0.6,1.3,1c0.3,0.4,0.6,0.9,0.8,1.5c0.2,0.6,0.3,1.3,0.3,2v8.2
		H95v-8.2c0-0.9-0.2-1.5-0.6-2c-0.4-0.5-1-0.7-1.7-0.7c-0.6,0-1.1,0.1-1.6,0.4c-0.5,0.3-0.9,0.7-1.4,1.1v9.4H87.2z"/>
	<path class="st0" d="M105.7,464.1c0.7,0,1.4,0.1,2.1,0.4c0.6,0.3,1.2,0.6,1.6,1.1c0.5,0.5,0.8,1.1,1.1,1.8s0.4,1.5,0.4,2.5
		c0,0.4,0,0.7-0.1,0.8c-0.1,0.1-0.2,0.2-0.5,0.2h-7.8c0,0.7,0.1,1.4,0.3,1.9c0.2,0.5,0.4,1,0.7,1.3s0.7,0.6,1.1,0.8
		c0.4,0.2,0.9,0.3,1.4,0.3c0.5,0,0.9-0.1,1.3-0.2c0.4-0.1,0.7-0.3,1-0.4c0.3-0.1,0.5-0.3,0.7-0.4s0.4-0.2,0.5-0.2
		c0.2,0,0.4,0.1,0.5,0.3l0.7,1c-0.3,0.4-0.6,0.7-1,1s-0.8,0.5-1.2,0.6c-0.4,0.2-0.9,0.3-1.3,0.4s-0.9,0.1-1.3,0.1
		c-0.8,0-1.6-0.1-2.3-0.4s-1.3-0.7-1.9-1.3c-0.5-0.6-0.9-1.3-1.2-2.2c-0.3-0.9-0.4-1.8-0.4-3c0-0.9,0.1-1.7,0.4-2.5
		c0.3-0.8,0.6-1.4,1.1-2c0.5-0.6,1.1-1,1.8-1.4C104,464.2,104.8,464.1,105.7,464.1z M105.7,466c-0.9,0-1.7,0.3-2.2,0.8
		c-0.5,0.6-0.9,1.4-1,2.4h6c0-0.5-0.1-0.9-0.2-1.3c-0.1-0.4-0.3-0.7-0.5-1c-0.2-0.3-0.5-0.5-0.9-0.7S106.2,466,105.7,466z"/>
	<path class="st0" d="M113.2,477.1v-12.9h1.5c0.3,0,0.5,0.1,0.6,0.2c0.1,0.1,0.2,0.3,0.2,0.5l0.1,1.7c0.4-0.8,0.9-1.5,1.4-1.9
		c0.5-0.5,1.2-0.7,1.9-0.7c0.3,0,0.5,0,0.7,0.1c0.2,0.1,0.4,0.2,0.6,0.3l-0.2,2c0,0.1-0.1,0.2-0.1,0.3s-0.2,0.1-0.3,0.1
		c-0.1,0-0.3,0-0.5-0.1c-0.2,0-0.5-0.1-0.7-0.1c-0.4,0-0.7,0.1-1,0.2c-0.3,0.1-0.5,0.3-0.7,0.5c-0.2,0.2-0.4,0.5-0.6,0.8
		c-0.2,0.3-0.3,0.6-0.5,1v8H113.2z"/>
	<path class="st0" d="M126.1,464c0.5,0,1,0.1,1.5,0.2c0.5,0.1,0.9,0.3,1.3,0.5h3.4v1c0,0.3-0.2,0.5-0.6,0.6l-1.2,0.2
		c0.2,0.5,0.3,1,0.3,1.6c0,0.6-0.1,1.2-0.4,1.7c-0.2,0.5-0.6,1-1,1.3c-0.4,0.4-0.9,0.6-1.5,0.8c-0.6,0.2-1.2,0.3-1.9,0.3
		c-0.3,0-0.5,0-0.7,0c-0.2,0-0.5-0.1-0.7-0.1c-0.2,0.1-0.4,0.3-0.5,0.5c-0.1,0.2-0.2,0.3-0.2,0.5c0,0.3,0.1,0.5,0.3,0.6
		c0.2,0.1,0.5,0.2,0.9,0.3c0.4,0.1,0.8,0.1,1.3,0.1c0.5,0,1,0,1.5,0.1s1,0.1,1.5,0.2c0.5,0.1,0.9,0.3,1.3,0.5
		c0.4,0.2,0.7,0.5,0.9,0.9c0.2,0.4,0.3,0.9,0.3,1.5c0,0.6-0.1,1.1-0.4,1.6c-0.3,0.5-0.6,1-1.1,1.4c-0.5,0.4-1.1,0.7-1.8,1
		s-1.5,0.4-2.4,0.4c-0.9,0-1.7-0.1-2.4-0.3c-0.7-0.2-1.2-0.4-1.7-0.8c-0.4-0.3-0.8-0.7-1-1.1c-0.2-0.4-0.3-0.8-0.3-1.3
		c0-0.6,0.2-1.1,0.5-1.6c0.4-0.4,0.9-0.8,1.5-1c-0.3-0.2-0.6-0.4-0.8-0.7c-0.2-0.3-0.3-0.7-0.3-1.2c0-0.2,0-0.4,0.1-0.6
		c0.1-0.2,0.2-0.4,0.3-0.6c0.1-0.2,0.3-0.4,0.5-0.6c0.2-0.2,0.4-0.3,0.7-0.5c-0.6-0.4-1.1-0.8-1.4-1.4s-0.5-1.3-0.5-2.1
		c0-0.6,0.1-1.2,0.4-1.7c0.2-0.5,0.6-1,1-1.3c0.4-0.4,0.9-0.6,1.5-0.8C124.8,464.1,125.4,464,126.1,464z M129.6,477.8
		c0-0.3-0.1-0.5-0.2-0.7c-0.2-0.2-0.4-0.3-0.6-0.4c-0.3-0.1-0.6-0.2-0.9-0.2c-0.4,0-0.7-0.1-1.1-0.1c-0.4,0-0.8,0-1.2-0.1
		c-0.4,0-0.8-0.1-1.2-0.1c-0.4,0.2-0.7,0.5-0.9,0.8c-0.2,0.3-0.4,0.6-0.4,1c0,0.3,0.1,0.5,0.2,0.7s0.3,0.4,0.6,0.6
		c0.3,0.2,0.6,0.3,1,0.4c0.4,0.1,0.9,0.1,1.4,0.1c1.1,0,2-0.2,2.5-0.6C129.4,478.8,129.6,478.3,129.6,477.8z M126.1,470.6
		c0.8,0,1.4-0.2,1.8-0.6c0.4-0.4,0.6-1,0.6-1.7c0-0.7-0.2-1.3-0.6-1.7c-0.4-0.4-1-0.6-1.8-0.6c-0.8,0-1.4,0.2-1.8,0.6
		c-0.4,0.4-0.6,1-0.6,1.7c0,0.3,0.1,0.6,0.2,0.9c0.1,0.3,0.3,0.5,0.5,0.7c0.2,0.2,0.4,0.4,0.7,0.5
		C125.4,470.5,125.7,470.6,126.1,470.6z"/>
	<path class="st0" d="M138.3,480.8c-0.1,0.2-0.2,0.3-0.3,0.5s-0.3,0.2-0.6,0.2h-1.9l2.2-5.2l-5-12h2.2c0.2,0,0.4,0.1,0.5,0.2
		c0.1,0.1,0.2,0.2,0.3,0.4l2.9,7.3c0.1,0.4,0.3,0.8,0.4,1.3c0.1-0.2,0.1-0.4,0.2-0.6c0.1-0.2,0.1-0.4,0.2-0.6l2.8-7.3
		c0.1-0.2,0.1-0.3,0.3-0.4c0.1-0.1,0.3-0.2,0.4-0.2h2L138.3,480.8z"/>
</g>
</svg>
