<?xml version="1.0" encoding="utf-8"?>
<!-- Generator: Adobe Illustrator 19.0.0, SVG Export Plug-In . SVG Version: 6.00 Build 0)  -->
<svg version="1.1" id="Layer_1" xmlns="http://www.w3.org/2000/svg" xmlns:xlink="http://www.w3.org/1999/xlink" x="0px" y="0px"
	 viewBox="-137 312.4 336.7 168.6" style="enable-background:new -137 312.4 336.7 168.6;" xml:space="preserve">
<style type="text/css">
	.st0-orange{fill:#F98414;}
</style>
<g id="XMLID_58_">
</g>
<g id="XMLID_59_">
</g>
<g id="XMLID_60_">
</g>
<g id="XMLID_61_">
</g>
<g id="XMLID_62_">
</g>
<g id="XMLID_63_">
</g>
<g>
	<g>
		<path class="st0-orange" d="M-120.8,330.6c0.2,0,0.4,0.1,0.7,0.2c0.3,0.1,0.3,0.2,0.6,0.4c0.1,0.2,0.3,0.4,0.4,0.8l18.3,36.4
			c0-0.7,0.1-1.5,0.1-2.1c0.1-0.7,0.1-1.3,0.2-1.9l3.6-34h7.4l-5.7,53.3h-4.3c-0.7,0-1.2-0.1-1.7-0.3c-0.4-0.2-0.8-0.7-1.1-1.3
			l-18.2-36.4c0,0.6-0.1,1.1-0.1,1.7s-0.1,1.1-0.1,1.6l-3.6,34.8h-7.4l5.7-53.3h4.4C-121.4,330.6-121.1,330.6-120.8,330.6z"/>
		<path class="st0-orange" d="M-49,383.8h-6.5c-0.8,0-1.3-0.2-1.8-0.6c-0.4-0.3-0.7-0.9-0.8-1.6l-1.9-11.1h-17.5l-4.3,11.1
			c-0.2,0.6-0.7,1.1-1.1,1.5c-0.6,0.4-1.1,0.7-1.8,0.7h-6.6l22.6-53.4h8.5L-49,383.8z M-74.8,363.8h13.6l-3.1-18.3
			c-0.2-0.9-0.3-1.8-0.6-2.8c-0.2-1-0.3-2.1-0.4-3.4c-0.4,1.2-0.8,2.4-1.2,3.4s-0.8,1.9-1.1,2.7L-74.8,363.8z"/>
		<path class="st0-orange" d="M-13.7,330.4l-0.9,7.9h-12.8l-4.8,45.5h-8.3l4.8-45.5h-12.9l0.8-7.9H-13.7z"/>
		<path class="st0-orange" d="M3.8,376.1c1.5,0,2.9-0.3,4.2-1c1.2-0.7,2.4-1.6,3.3-2.8c0.9-1.2,1.7-2.7,2.4-4.3c0.7-1.7,1-3.5,1.2-5.6
			l3.5-32.1h8.4l-3.4,32.1c-0.3,3.1-1,6.1-2.2,8.8c-1.1,2.7-2.6,4.9-4.3,7c-1.8,1.9-3.8,3.5-6.2,4.6s-4.9,1.7-7.6,1.7
			c-2.5,0-4.7-0.4-6.7-1.3c-1.9-0.9-3.6-2.1-4.9-3.8c-1.3-1.6-2.4-3.6-3.1-5.8c-0.7-2.2-1-4.7-1-7.4c0-1.1,0.1-2.2,0.2-3.5l3.4-32.1
			h8.4l-3.5,32c-0.1,0.4-0.1,0.9-0.1,1.3c0,0.4,0,0.9,0,1.3c0,1.7,0.2,3.1,0.6,4.5s0.9,2.5,1.6,3.5s1.6,1.7,2.6,2.2
			C1.3,375.8,2.4,376.1,3.8,376.1z"/>
		<path class="st0-orange" d="M39.7,362.7l-2.2,21h-8.3l5.7-53.3h13.2c2.7,0,5.1,0.3,7,1c1.9,0.7,3.5,1.6,4.7,2.7c1.2,1.1,2.1,2.6,2.7,4.2
			c0.6,1.7,0.9,3.4,0.9,5.4s-0.2,4-0.8,5.8c-0.4,1.8-1.2,3.5-2.1,4.9s-2.1,2.8-3.5,3.9c-1.3,1.1-2.9,1.9-4.7,2.6
			c0.4,0.3,1,0.8,1.3,1.2c0.4,0.6,0.8,1.1,1,1.8l8.4,19.9h-7.5c-0.7,0-1.3-0.1-1.8-0.4c-0.4-0.3-0.9-0.8-1.1-1.3l-7-17.5
			c-0.2-0.7-0.6-1.1-1-1.3c-0.3-0.2-1-0.4-1.8-0.4C43,362.7,39.7,362.7,39.7,362.7z M42.4,337.8l-2,18.1h4.8c1.7,0,3.1-0.2,4.4-0.9
			c1.2-0.6,2.2-1.3,3-2.2c0.8-1,1.3-2.1,1.8-3.4c0.3-1.3,0.6-2.7,0.6-4.3c0-2.4-0.7-4.2-1.9-5.4c-1.2-1.3-3.1-1.9-5.8-1.9
			L42.4,337.8L42.4,337.8z"/>
		<path class="st0-orange" d="M105.9,383.6h-6.5c-0.7,0-1.3-0.2-1.8-0.6c-0.5-0.4-0.7-0.9-0.8-1.6l-1.9-11.1H77.4l-4.3,11.1
			c-0.2,0.6-0.7,1-1.1,1.5c-0.6,0.4-1.1,0.7-1.8,0.7h-6.6l22.6-53.4h8.5L105.9,383.6z M79.9,363.6h13.6l-3.1-18.2
			c-0.1-0.9-0.3-1.8-0.6-2.8c-0.1-1-0.3-2.1-0.4-3.4c-0.4,1.2-0.8,2.4-1.2,3.4c-0.4,1-0.8,1.9-1.1,2.7L79.9,363.6z"/>
		<path class="st0-orange" d="M118.8,375.7h17.1l-0.8,8h-25.5l5.7-53.3h8.4L118.8,375.7z"/>
		<path class="st0-orange" d="M-102,408.9c0,2.2-0.2,4.5-0.7,6.5c-0.4,2-1.1,3.9-2,5.6s-2,3.3-3.3,4.6s-2.7,2.5-4.3,3.5
			c-1.6,0.9-3.3,1.7-5.1,2.1s-3.7,0.8-5.8,0.8H-137l4.9-40.4h13.9c2.5,0,4.7,0.4,6.7,1.2c2,0.8,3.7,2,5.1,3.6s2.5,3.4,3.3,5.5
			C-102.3,403.9-102,406.3-102,408.9z M-107.7,409c0-2-0.2-3.8-0.8-5.4s-1.2-2.9-2.1-4.2c-0.9-1.1-2.1-2-3.5-2.6
			c-1.3-0.6-2.9-0.9-4.6-0.9h-8.3l-3.8,31.4h8.3c2.2,0,4.3-0.4,6.1-1.2c1.8-0.9,3.4-2,4.7-3.6s2.4-3.5,3-5.7
			C-108,414.4-107.7,411.8-107.7,409z"/>
		<path class="st0-orange" d="M-89.7,415.1l-2,16.7h-5.5l4.9-40.4h10.7c2.1,0,4,0.2,5.6,0.7c1.6,0.4,2.9,1.1,3.9,2c1,0.9,1.8,1.9,2.2,3
			c0.4,1.2,0.8,2.6,0.8,4c0,1.6-0.2,3.1-0.7,4.5c-0.4,1.5-1.1,2.7-2,3.8s-2,2-3.3,2.8c-1.2,0.8-2.7,1.3-4.4,1.8
			c0.7,0.4,1.2,1,1.6,1.8l8.4,15.9h-4.9c-1,0-1.7-0.4-2-1.2l-7.3-14.4c-0.2-0.4-0.6-0.8-0.9-1c-0.3-0.2-0.8-0.2-1.5-0.2L-89.7,415.1
			L-89.7,415.1z M-87.4,395.8l-1.9,15.2h4.9c1.6,0,2.9-0.2,4.2-0.7s2.1-1.1,3-1.9c0.8-0.8,1.3-1.8,1.8-2.8c0.4-1.1,0.6-2.2,0.6-3.6
			c0-2-0.7-3.5-1.9-4.6c-1.2-1-3.1-1.6-5.6-1.6H-87.4L-87.4,395.8z"/>
		<path class="st0-orange" d="M-58.9,431.9h-5.6l4.9-40.4h5.6L-58.9,431.9z"/>
		<path class="st0-orange" d="M-40.4,391.6c0.2,0.1,0.4,0.3,0.7,0.8l17.1,30.3c0-0.4,0.1-0.9,0.1-1.3s0.1-0.8,0.1-1.2l3.5-28.9h4.9
			l-4.9,40.4h-2.8c-0.5,0-0.8-0.1-1.1-0.2c-0.2-0.1-0.6-0.4-0.8-0.8l-17.1-30.3l-0.2,2l-3.6,29.3h-4.8l4.9-40.4h2.9
			C-41.1,391.5-40.7,391.5-40.4,391.6z"/>
		<path class="st0-orange" d="M-1.1,409.1h1.8c0.7,0,1.2-0.1,1.6-0.2c0.4-0.2,0.8-0.4,1.2-0.9l13.6-15.2c0.4-0.4,0.8-0.9,1.2-1
			c0.5-0.2,1-0.2,1.6-0.2h4.7L8.9,409c-0.8,0.9-1.5,1.5-2.2,1.9c0.5,0.2,0.9,0.4,1.2,0.8c0.3,0.3,0.7,0.8,1,1.3l11.8,19.1h-4.8
			c-0.7,0-1.2-0.1-1.6-0.3c-0.3-0.2-0.6-0.4-0.8-0.9L3.3,415c-0.2-0.4-0.6-0.8-1-1c-0.3-0.2-1-0.3-1.8-0.3h-2.4l-2.2,18.4h-5.5
			l4.9-40.5h5.6L-1.1,409.1z"/>
		<path class="st0-orange" d="M59.1,418.5c0.1,0.4,0.2,0.8,0.3,1.2c0.2-0.4,0.3-0.8,0.6-1.2s0.4-0.8,0.7-1.2l15.5-25
			c0.1-0.2,0.3-0.3,0.4-0.4s0.2-0.2,0.4-0.3c0.1-0.1,0.3-0.1,0.5-0.1s0.4,0,0.7,0h4.2l-4.9,40.4h-4.8l3.6-29.3
			c0.1-0.3,0.1-0.8,0.2-1.3c0.1-0.6,0.2-1,0.3-1.5l-15.4,25c-0.6,0.9-1.2,1.2-2.1,1.2h-0.9c-0.4,0-0.8-0.1-1.1-0.3
			c-0.3-0.2-0.6-0.6-0.7-0.9l-9.4-25c0,0.4,0,1-0.1,1.5c0,0.4,0,0.9-0.1,1.2L43.4,432h-4.9l4.9-40.4h4.2c0.4,0,0.9,0,1.1,0.1
			s0.4,0.3,0.8,0.8l9.5,25C58.9,417.7,59,418.2,59.1,418.5z"/>
		<path class="st0-orange" d="M92.5,431.9h-5.6l4.9-40.4h5.6L92.5,431.9z"/>
		<path class="st0-orange" d="M113.3,410.3l-9.3-18.9h4.9c0.4,0,0.7,0.1,0.9,0.2c0.1,0.1,0.3,0.3,0.4,0.7l7,15c0.1-0.3,0.3-0.7,0.7-1.1
			l9.9-13.9c0.4-0.6,0.9-0.9,1.3-0.9h5.7l-14,18.6l10.6,21.9h-4.9c-0.4,0-0.7-0.1-0.9-0.3c-0.2-0.2-0.3-0.5-0.4-0.7l-8-17.4
			c-0.1,0.1-0.1,0.3-0.2,0.4s-0.1,0.3-0.2,0.4L105,430.8c-0.4,0.7-1.1,1-1.8,1h-5.5L113.3,410.3z"/>
		<path id="XMLID_41_" class="st0-orange" d="M147.2,395.9l-0.2-0.1c-0.8-0.2-1.5-0.7-2-1.5c-0.3-0.5-0.6-0.9-0.8-1.5l-0.2-0.1l-0.2-0.1
			v-1.1l0.2-0.2l0,0c0.4-1,0.9-2,1.3-2.9c1.2-2.5,2.7-4.8,4.6-7.4c1.5-1.9,2.9-3.7,4.4-5.4c0.5-0.6,1.8-1.9,1.8-1.9l-1.6-1.9
			c-0.6-0.8-1.2-1.5-1.7-2.2c-1.1-1.7-1.8-3.6-2.2-5.6c-0.4-1.8-0.6-3.7-0.4-5.6c0.2-4.4,1.8-8.3,4.4-11.7c0.7-0.9,1.6-1.8,2.6-2.7
			c2-1.8,4.3-3.5,6.7-5.1c2-1.2,4.2-2.6,6.6-3.9l6.6-3.8c2.4-1.3,4.5-2.7,6.6-4c1.9-1.3,3.6-2.6,5.1-3.8c1.5-1.2,2.9-2.7,4.3-4.3
			c1.3-1.6,2.6-3.1,3.5-4.7l0.1-0.2c0.1-0.2,0.3-0.4,0.4-0.7c0.1-0.3,0.3-0.6,0.6-0.8l0.2-0.2c0,0,0.4-0.2,0.9-0.1
			c0.5,0.1,0.7,0.7,0.7,0.7s0.2,0.8,0.2,1.3c0,0.6-0.1,1.3-0.2,1.9l-0.2,1.8c0,0.6-0.1,1.1-0.1,1.7c0,0-0.9,8.9-1,9.5l-0.1,1.5
			c0,0.7-0.1,1.5-0.2,2.1c0,0.4-0.1,0.9-0.1,1.5l-0.8,8.2c0,0.4-0.1,1-0.1,1.5l-0.6,5.5c-0.1,0.6-0.3,2.4-0.3,2.4
			c-0.2,1.3-0.4,2.6-0.7,3.9c-0.4,2.2-1,4.3-1.7,6.2c-0.8,2.4-1.7,4.3-2.8,6.1c-1,1.6-2,2.9-3.3,4.2c-1.5,1.5-3.1,2.6-5.1,3.5
			c-1.3,0.7-2.8,1.1-4.3,1.5c-1.1,0.2-2.2,0.4-3.3,0.4c-1,0.1-2,0.1-3.1,0.1c-0.6,0-1.1,0-1.7,0s-1.1,0-1.7-0.1
			c-0.6,0-2.9-0.3-2.9-0.3s-1.2-0.2-1.7-0.2l-2.1-0.3l-2.6-0.4c-0.4,0.7-0.8,1.2-1.1,1.8c-0.8,1.3-1.6,2.8-2.4,4.5
			c-1.3,2.8-2.5,5.9-3.7,9.5c-0.2,0.9-0.6,1.8-0.8,2.6c-0.1,0.4-0.4,0.8-0.8,1c-0.6,0.2-1,0.4-1.6,0.6l-0.3,0.1
			C148.7,395.9,147.2,395.9,147.2,395.9z M154.1,379.7c-1.2,1.6-2.5,3.3-3.6,4.9c-1.5,2.2-2.5,4.2-3.4,6.1c-0.1,0.2-0.2,0.6-0.3,0.8
			l-0.2,0.6c0.1,0.1,0.2,0.4,0.6,0.8c0.2,0.3,0.6,0.5,0.9,0.6l0,0c0.3,0,0.7-0.1,1-0.2l0.1-0.3c0.2-0.8,0.6-1.7,0.8-2.5
			c1.1-3.5,2.4-6.6,3.7-9.4C153.8,380.3,153.9,380,154.1,379.7z M160.3,373.2c1.2,0.2,2.6,0.4,3.8,0.7c1.2,0.2,2.4,0.3,3.6,0.4
			c1,0.1,2.1,0.1,3.1,0.2c0.3,0,0.7,0,1,0c0.9,0,1.8,0,2.7-0.1c1-0.1,2-0.2,3-0.4c1.5-0.3,2.8-0.8,3.9-1.2c1.6-0.8,3-1.7,4.3-2.9
			c1-1,1.9-2.1,2.7-3.4c0.2-0.3,0.4-0.7,0.6-1l-25.1,0.9c-0.7,1.1-1.2,2.2-1.9,3.4C161.4,370.9,160.9,372,160.3,373.2z M156.5,348.2
			c-0.8,1.1-1.6,2.4-2.1,3.7c-1,2.2-1.6,4.7-1.6,7.3c0,1.5,0.1,2.7,0.4,3.9c0.3,1.6,0.9,2.9,1.7,4.3c0.6,0.8,1.1,1.7,1.9,2.6
			c0.2,0.3,1.5,1.8,1.6,1.9c0,0,0.6-1.1,0.9-1.6l1.5-2.7l1.3-2.4L156.5,348.2z M171.1,355.3c-0.7,1-1.5,1.9-2.1,2.9
			c-0.9,1.3-1.7,2.7-2.5,4c-0.3,0.4-0.6,1-0.9,1.5c0,0,19.9-0.7,21-0.8c0.4,0,3.8-0.1,3.8-0.1c1.1-2.7,2-5.6,2.7-9.2L171.1,355.3z
			 M158.4,346.1c0.7,2.2,3.8,12.2,5.1,16.1l1-1.8c1.2-2.1,2.7-4.3,4-6.2l0.2-0.3l-3.1-13.2C162.9,342.4,160.5,344.2,158.4,346.1z
			 M179.6,345.1l-0.1,0.2l-1,1.1c-1.3,1.5-2.7,2.9-3.9,4.5c-0.4,0.6-0.9,1.1-1.3,1.7l20.2-1.5l0.1-0.7c0.1-0.8,0.2-1.5,0.2-2.2
			c0.1-0.8,0.4-4.6,0.4-4.6C194.2,343.5,180.4,345,179.6,345.1z M170.9,351.4c1-1.2,2-2.5,3-3.6c1.2-1.5,2.6-2.9,3.8-4.4l-0.2-2.4
			l-0.9-6.7c-0.9,0.6-5.1,2.8-5.1,2.8c-1,0.6-2.1,1.2-3.1,1.8l-0.3,0.2C168.6,341.7,170.9,351.4,170.9,351.4z M188.5,336.4
			c-0.4,0.1-0.9,0.1-1.3,0.2c-1.3,1.7-2.8,3.3-4.3,4.9l-0.6,0.6c0,0,10.7-1.1,11.2-1.1c0.3,0,0.7-0.1,1-0.1c0.1-1.2,0.4-4,0.6-5.5
			L188.5,336.4z M178.9,333.1c0.2,1.7,0.4,3.4,0.7,5.1l0.3,2.9c0.4-0.6,1-1.1,1.6-1.7c1.2-1.5,2.6-2.9,3.8-4.4l-0.9-5.3l-0.9,0.6
			C182,331.3,180.4,332.2,178.9,333.1z M196.2,322.6c-0.3,1-0.7,1.8-1,2.4c-1.3,2.6-3,5.1-4.9,7.5c-0.3,0.3-0.6,0.8-0.9,1.1l5.8-0.9
			L196.2,322.6z M187.4,332.4c1.1-1.3,2-2.7,2.8-3.9c1.6-2.4,2.9-4.6,4-6.8c-0.1,0.1-0.3,0.3-0.4,0.4c-1,1.1-2.2,2.2-3.4,3.3
			c-1.2,1-2.5,1.9-3.7,2.8C186.7,328.2,187.4,332.4,187.4,332.4z"/>
	</g>
	<g>
		<path class="st0-orange" d="M-134.7,472.9v-31.7h4.4v12.4c0.8-0.8,1.7-1.5,2.7-2.2c1-0.5,2.2-0.8,3.6-0.8c1.2,0,2.2,0.2,3.1,0.7
			c0.8,0.5,1.5,1,2.2,1.7c0.5,0.7,1,1.5,1.4,2.5c0.3,1,0.5,2.2,0.5,3.4v13.8h-4.2v-13.9c0-1.5-0.3-2.5-1-3.4
			c-0.7-0.8-1.7-1.2-2.9-1.2c-1,0-1.9,0.2-2.7,0.7s-1.5,1.2-2.4,1.9v15.9h-4.6L-134.7,472.9L-134.7,472.9z"/>
		<path class="st0-orange" d="M-105.7,479.2c-0.2,0.3-0.3,0.5-0.5,0.8s-0.5,0.3-1,0.3h-3.2l3.7-8.8l-8.5-20.3h3.7c0.3,0,0.7,0.2,0.8,0.3
			c0.2,0.2,0.3,0.3,0.5,0.7l4.9,12.4c0.2,0.7,0.5,1.4,0.7,2.2c0.2-0.3,0.2-0.7,0.3-1c0.2-0.3,0.2-0.7,0.3-1l4.7-12.4
			c0.2-0.3,0.2-0.5,0.5-0.7c0.2-0.2,0.5-0.3,0.7-0.3h3.4L-105.7,479.2z"/>
		<path class="st0-orange" d="M-77.2,472.9c-0.5,0-1-0.3-1.2-0.8l-0.3-2.4c-0.5,0.5-0.8,1-1.4,1.5c-0.5,0.5-1,0.8-1.5,1.2
			c-0.5,0.3-1.2,0.5-1.9,0.7s-1.4,0.3-2,0.3c-1.2,0-2.2-0.2-3.2-0.7s-1.7-1.2-2.4-2.2s-1.2-2-1.5-3.6c-0.3-1.4-0.5-3.1-0.5-4.7
			c0-1.7,0.2-3.1,0.7-4.6c0.3-1.4,1-2.5,1.7-3.6c0.8-1,1.7-1.9,2.7-2.4s2.4-0.8,3.7-0.8c1.2,0,2.2,0.2,3.1,0.7
			c0.8,0.3,1.5,1,2.2,1.7v-11.7h4.4v31.7h-2.5L-77.2,472.9L-77.2,472.9z M-84.1,469.5c1.2,0,2-0.2,2.9-0.7c0.8-0.5,1.5-1.2,2.2-2.2
			v-10.2c-0.7-0.8-1.4-1.4-2-1.7c-0.7-0.3-1.5-0.5-2.4-0.5c-1.7,0-3.1,0.7-3.9,2c-1,1.4-1.4,3.2-1.4,5.9c0,1.4,0.2,2.5,0.3,3.4
			c0.2,0.8,0.5,1.7,0.8,2.4c0.3,0.7,0.8,1,1.5,1.4C-85.5,469.5-84.8,469.5-84.1,469.5z"/>
		<path class="st0-orange" d="M-69.4,472.9V451h2.5c0.5,0,0.8,0.2,1,0.3c0.2,0.2,0.3,0.5,0.3,0.8l0.2,2.9c0.7-1.4,1.5-2.5,2.4-3.2
			c0.8-0.8,2-1.2,3.2-1.2c0.5,0,0.8,0,1.2,0.2c0.3,0.2,0.7,0.3,1,0.5l-0.3,3.4c0,0.2-0.2,0.3-0.2,0.5s-0.3,0.2-0.5,0.2
			s-0.5,0-0.8-0.2c-0.3,0-0.8-0.2-1.2-0.2c-0.7,0-1.2,0.2-1.7,0.3c-0.5,0.2-0.8,0.5-1.2,0.8c-0.3,0.3-0.7,0.8-1,1.4
			c-0.3,0.5-0.5,1-0.8,1.7v13.6L-69.4,472.9L-69.4,472.9z"/>
		<path class="st0-orange" d="M-41.6,472.9c-0.3,0-0.7,0-1-0.2s-0.3-0.3-0.5-0.8l-0.3-1.7c-0.5,0.5-1,1-1.5,1.4c-0.5,0.3-1,0.7-1.5,1
			s-1.2,0.5-1.7,0.7s-1.4,0.2-2,0.2c-0.8,0-1.7-0.2-2.4-0.3c-0.7-0.2-1.4-0.7-1.9-1.2s-1-1-1.2-1.9c-0.3-0.7-0.5-1.5-0.5-2.5
			c0-0.8,0.2-1.7,0.7-2.5c0.3-0.8,1.2-1.5,2-2.2c1-0.7,2.2-1.2,3.9-1.5c1.5-0.3,3.6-0.7,5.9-0.7v-1.4c0-1.5-0.3-2.7-1-3.6
			s-1.5-1.2-2.7-1.2c-0.8,0-1.5,0.2-2,0.3c-0.5,0.2-1,0.5-1.5,0.7c-0.3,0.3-0.8,0.5-1.2,0.7c-0.3,0.2-0.7,0.3-1,0.3s-0.5,0-0.7-0.2
			s-0.3-0.3-0.5-0.7l-0.8-1.5c2.4-2.4,5.1-3.4,8.3-3.4c1.2,0,2.2,0.2,3.2,0.7c0.8,0.3,1.7,1,2.4,1.7s1.2,1.7,1.4,2.7
			s0.5,2.2,0.5,3.4v13.9h-2.2L-41.6,472.9L-41.6,472.9z M-49.1,470c1.2,0,2-0.2,2.9-0.7c0.8-0.5,1.5-1,2.4-1.9v-4.1
			c-1.5,0-2.9,0.2-3.9,0.3c-1,0.2-1.9,0.5-2.5,0.8c-0.7,0.3-1.2,0.7-1.4,1.2s-0.5,0.8-0.5,1.5c0,0.5,0,1,0.2,1.4
			c0.2,0.3,0.3,0.7,0.7,0.8c0.3,0.2,0.7,0.3,1,0.5C-49.9,470-49.6,470-49.1,470z"/>
		<path class="st0-orange" d="M-28.2,473.3c-1.7,0-3.1-0.5-3.9-1.5s-1.4-2.5-1.4-4.2v-12.7h-2.4c-0.2,0-0.5,0-0.7-0.2s-0.3-0.3-0.3-0.7
			v-1.9l3.4-0.5l1-6.3c0-0.2,0.2-0.5,0.3-0.5c0.2-0.2,0.3-0.2,0.7-0.2h2.2v7.1h14.4v21.5h-4.4v-18.1h-10v12.4c0,0.8,0.2,1.4,0.5,1.9
			s0.8,0.7,1.5,0.7c0.3,0,0.7,0,0.8-0.2c0.2-0.2,0.5-0.2,0.7-0.3c0.2-0.2,0.3-0.2,0.5-0.3c0.2-0.2,0.2-0.2,0.3-0.2
			c0.2,0,0.5,0.2,0.5,0.5l1.4,2.2c-0.7,0.7-1.5,1.2-2.4,1.5C-26.3,473.1-27.2,473.3-28.2,473.3z M-14,444.4c0,0.3,0,0.8-0.2,1.2
			c-0.2,0.3-0.3,0.7-0.7,1c-0.3,0.3-0.5,0.5-1,0.7c-0.3,0.2-0.7,0.2-1.2,0.2c-0.3,0-0.7,0-1-0.2s-0.7-0.3-0.8-0.7
			c-0.2-0.3-0.5-0.7-0.7-1s-0.2-0.7-0.2-1.2s0-0.8,0.2-1.2c0.2-0.3,0.3-0.7,0.7-1c0.3-0.3,0.5-0.5,0.8-0.7s0.7-0.2,1-0.2
			s0.8,0,1.2,0.2c0.3,0.2,0.7,0.3,1,0.7c0.3,0.3,0.5,0.7,0.7,1C-14,443.6-14,444.1-14,444.4z"/>
		<path class="st0-orange" d="M-0.4,450.9c1.5,0,2.9,0.3,4.1,0.8s2.2,1.4,3.2,2.2c1,0.8,1.5,2.2,2,3.6s0.7,2.9,0.7,4.7
			c0,1.7-0.2,3.2-0.7,4.7c-0.5,1.4-1.2,2.5-2,3.6c-0.8,1-1.9,1.7-3.2,2.2c-1.2,0.5-2.5,0.8-4.1,0.8c-1.5,0-2.9-0.3-4.1-0.8
			s-2.2-1.4-3.2-2.2c-0.8-1-1.5-2.2-2-3.6s-0.7-2.9-0.7-4.7c0-1.7,0.2-3.2,0.7-4.7c0.5-1.4,1.2-2.5,2-3.6c0.8-1,1.9-1.7,3.2-2.2
			C-3.5,451.1-1.9,450.9-0.4,450.9z M-0.4,469.7c1.9,0,3.2-0.7,4.1-2c0.8-1.4,1.4-3.2,1.4-5.6s-0.5-4.4-1.4-5.8
			c-0.8-1.4-2.4-2-4.1-2c-1.9,0-3.2,0.7-4.2,2c-0.8,1.4-1.4,3.2-1.4,5.8c0,2.4,0.5,4.4,1.4,5.6C-3.8,469-2.4,469.7-0.4,469.7z"/>
		<path class="st0-orange" d="M13.7,472.9V451h2.5c0.5,0,1,0.3,1.2,0.8l0.3,2.2c0.5-0.5,0.8-0.8,1.4-1.4c0.5-0.3,1-0.7,1.5-1
			s1.2-0.5,1.7-0.7c0.7-0.2,1.4-0.2,2-0.2c1.2,0,2.2,0.2,3.1,0.7c0.8,0.5,1.5,1,2.2,1.7c0.5,0.7,1,1.5,1.4,2.5
			c0.3,1,0.5,2.2,0.5,3.4v13.9h-4.2V459c0-1.5-0.3-2.5-1-3.4c-0.7-0.8-1.7-1.2-2.9-1.2c-1,0-1.9,0.2-2.7,0.7
			c-0.8,0.5-1.5,1.2-2.4,1.9v15.9H13.7L13.7,472.9L13.7,472.9z"/>
		<path class="st0-orange" d="M57.2,448v9h8v3.4h-8v9h-3.6v-9h-8V457h8v-9H57.2z"/>
		<path class="st0-orange" d="M88.4,450.9c1.2,0,2.4,0.2,3.6,0.7c1,0.5,2,1,2.7,1.9c0.8,0.8,1.4,1.9,1.9,3c0.5,1.2,0.7,2.5,0.7,4.2
			c0,0.7,0,1.2-0.2,1.4c-0.2,0.2-0.3,0.3-0.8,0.3H83c0,1.2,0.2,2.4,0.5,3.2c0.3,0.8,0.7,1.7,1.2,2.2s1.2,1,1.9,1.4
			c0.7,0.3,1.5,0.5,2.4,0.5s1.5-0.2,2.2-0.3c0.7-0.2,1.2-0.5,1.7-0.7s0.9-0.5,1.2-0.7c0.3-0.2,0.7-0.3,0.8-0.3
			c0.3,0,0.7,0.2,0.8,0.5l1.2,1.7c-0.5,0.7-1,1.2-1.7,1.7s-1.4,0.8-2,1c-0.7,0.3-1.5,0.5-2.2,0.7s-1.5,0.2-2.2,0.2
			c-1.4,0-2.7-0.2-3.9-0.7c-1.2-0.5-2.2-1.2-3.2-2.2c-0.8-1-1.5-2.2-2-3.7s-0.7-3.1-0.7-5.1c0-1.5,0.2-2.9,0.7-4.2
			c0.5-1.4,1-2.4,1.9-3.4c0.8-1,1.9-1.7,3.1-2.4C85.5,451.1,86.9,450.9,88.4,450.9z M88.4,454.1c-1.5,0-2.9,0.5-3.7,1.4
			c-0.8,1-1.5,2.4-1.7,4.1h10.2c0-0.8-0.2-1.5-0.3-2.2c-0.2-0.7-0.5-1.2-0.8-1.7s-0.8-0.8-1.5-1.2C89.8,454.1,89.3,454.1,88.4,454.1
			z"/>
		<path class="st0-orange" d="M101.1,472.9V451h2.5c0.5,0,1,0.3,1.2,0.8l0.3,2c0.5-0.5,0.8-0.8,1.4-1.4c0.5-0.3,1-0.7,1.5-1
			s1.2-0.5,1.7-0.7c0.7-0.2,1.4-0.2,2-0.2c1.2,0,2.2,0.2,3.1,0.7c0.8,0.5,1.5,1,2.2,1.7c0.5,0.7,1,1.5,1.4,2.5
			c0.3,1,0.5,2.2,0.5,3.4v13.9h-4.6v-13.9c0-1.5-0.3-2.5-1-3.4c-0.7-0.8-1.7-1.2-2.9-1.2c-1,0-1.9,0.2-2.7,0.7
			c-0.8,0.5-1.5,1.2-2.4,1.9v15.9L101.1,472.9L101.1,472.9z"/>
		<path class="st0-orange" d="M132.5,450.9c1.2,0,2.4,0.2,3.6,0.7c1,0.5,2,1,2.7,1.9c0.8,0.8,1.4,1.9,1.9,3c0.5,1.2,0.7,2.5,0.7,4.2
			c0,0.7,0,1.2-0.2,1.4c-0.2,0.2-0.3,0.3-0.9,0.3h-13.2c0,1.2,0.2,2.4,0.5,3.2c0.3,0.8,0.7,1.7,1.2,2.2s1.2,1,1.9,1.4
			c0.7,0.3,1.5,0.5,2.4,0.5c0.8,0,1.5-0.2,2.2-0.3c0.7-0.2,1.2-0.5,1.7-0.7s0.8-0.5,1.2-0.7c0.3-0.2,0.7-0.3,0.8-0.3
			c0.3,0,0.7,0.2,0.8,0.5l1.2,1.7c-0.5,0.7-1,1.2-1.7,1.7s-1.4,0.8-2,1c-0.7,0.3-1.5,0.5-2.2,0.7s-1.5,0.2-2.2,0.2
			c-1.4,0-2.7-0.2-3.9-0.7c-1.2-0.5-2.2-1.2-3.2-2.2c-0.8-1-1.5-2.2-2-3.7s-0.7-3.1-0.7-5.1c0-1.5,0.2-2.9,0.7-4.2
			c0.5-1.4,1-2.4,1.9-3.4c0.8-1,1.9-1.7,3.1-2.4C129.6,451.1,131,450.9,132.5,450.9z M132.5,454.1c-1.5,0-2.9,0.5-3.7,1.4
			c-0.8,1-1.5,2.4-1.7,4.1h10.2c0-0.8-0.2-1.5-0.3-2.2c-0.2-0.7-0.5-1.2-0.8-1.7s-0.8-0.8-1.5-1.2
			C133.9,454.1,133.3,454.1,132.5,454.1z"/>
		<path class="st0-orange" d="M145.2,472.9V451h2.5c0.5,0,0.8,0.2,1,0.3c0.2,0.2,0.3,0.5,0.3,0.8l0.2,2.9c0.7-1.4,1.5-2.5,2.4-3.2
			c0.8-0.8,2-1.2,3.2-1.2c0.5,0,0.8,0,1.2,0.2c0.3,0.2,0.7,0.3,1,0.5l-0.3,3.4c0,0.2-0.2,0.3-0.2,0.5s-0.3,0.2-0.5,0.2
			s-0.5,0-0.8-0.2c-0.3,0-0.9-0.2-1.2-0.2c-0.7,0-1.2,0.2-1.7,0.3c-0.5,0.2-0.8,0.5-1.2,0.8c-0.3,0.3-0.7,0.8-1,1.4
			c-0.3,0.5-0.5,1-0.8,1.7v13.6L145.2,472.9L145.2,472.9z"/>
		<path class="st0-orange" d="M167.1,450.7c0.8,0,1.7,0.2,2.5,0.3s1.5,0.5,2.2,0.8h5.8v1.7c0,0.5-0.3,0.8-1,1l-2,0.3
			c0.3,0.8,0.5,1.7,0.5,2.7s-0.2,2-0.7,2.9c-0.3,0.8-1,1.7-1.7,2.2c-0.7,0.7-1.5,1-2.5,1.4c-1,0.3-2,0.5-3.2,0.5c-0.5,0-0.8,0-1.2,0
			c-0.3,0-0.8-0.2-1.2-0.2c-0.3,0.2-0.7,0.5-0.8,0.8c-0.2,0.3-0.3,0.5-0.3,0.8c0,0.5,0.2,0.8,0.5,1s0.8,0.3,1.5,0.5s1.4,0.2,2.2,0.2
			s1.7,0,2.5,0.2s1.7,0.2,2.5,0.3c0.9,0.2,1.5,0.5,2.2,0.8s1.2,0.8,1.5,1.5s0.5,1.5,0.5,2.5s-0.2,1.9-0.7,2.7
			c-0.5,0.8-1,1.7-1.9,2.4c-0.8,0.7-1.9,1.2-3.1,1.7s-2.5,0.7-4.1,0.7c-1.5,0-2.9-0.2-4.1-0.5s-2-0.7-2.9-1.4
			c-0.7-0.5-1.4-1.2-1.7-1.9c-0.3-0.7-0.5-1.4-0.5-2.2c0-1,0.3-1.9,0.8-2.7c0.7-0.7,1.5-1.4,2.5-1.7c-0.5-0.3-1-0.7-1.4-1.2
			c-0.3-0.5-0.5-1.2-0.5-2c0-0.3,0-0.7,0.2-1s0.3-0.7,0.5-1s0.5-0.7,0.8-1s0.7-0.5,1.2-0.8c-1-0.7-1.9-1.4-2.4-2.4s-0.8-2.2-0.8-3.6
			c0-1,0.2-2,0.7-2.9c0.3-0.8,1-1.7,1.7-2.2c0.7-0.7,1.5-1,2.5-1.4C164.9,450.9,165.9,450.7,167.1,450.7z M173,474.1
			c0-0.5-0.2-0.8-0.3-1.2c-0.3-0.3-0.7-0.5-1-0.7c-0.5-0.2-1-0.3-1.5-0.3c-0.7,0-1.2-0.2-1.9-0.2c-0.7,0-1.4,0-2-0.2
			c-0.7,0-1.4-0.2-2-0.2c-0.7,0.3-1.2,0.8-1.5,1.4c-0.3,0.5-0.7,1-0.7,1.7c0,0.5,0.2,0.8,0.3,1.2c0.2,0.3,0.5,0.7,1,1s1,0.5,1.7,0.7
			s1.5,0.2,2.4,0.2c1.9,0,3.4-0.3,4.2-1C172.7,475.8,173,475,173,474.1z M167.1,461.9c1.4,0,2.4-0.3,3.1-1s1-1.7,1-2.9
			c0-1.2-0.3-2.2-1-2.9s-1.7-1-3.1-1s-2.4,0.3-3.1,1s-1,1.7-1,2.9c0,0.5,0.2,1,0.3,1.5c0.2,0.5,0.5,0.8,0.8,1.2
			c0.3,0.3,0.7,0.7,1.2,0.8C165.9,461.7,166.4,461.9,167.1,461.9z"/>
		<path class="st0-orange" d="M187.8,479.2c-0.2,0.3-0.3,0.5-0.5,0.8s-0.5,0.3-1,0.3H183l3.7-8.8l-8.5-20.3h3.7c0.3,0,0.7,0.2,0.8,0.3
			c0.2,0.2,0.3,0.3,0.5,0.7l4.9,12.4c0.2,0.7,0.5,1.4,0.7,2.2c0.2-0.3,0.2-0.7,0.3-1c0.2-0.3,0.2-0.7,0.3-1l4.7-12.4
			c0.2-0.3,0.2-0.5,0.5-0.7c0.2-0.2,0.5-0.3,0.7-0.3h3.4L187.8,479.2z"/>
	</g>
</g>
</svg>
