<?xml version="1.0" encoding="utf-8"?>
<!-- Generator: Adobe Illustrator 18.1.1, SVG Export Plug-In . SVG Version: 6.00 Build 0)  -->
<svg version="1.2" baseProfile="tiny" id="Layer_1" xmlns="http://www.w3.org/2000/svg" xmlns:xlink="http://www.w3.org/1999/xlink"
	 x="0px" y="0px" viewBox="0 0 720 215.53" xml:space="preserve">
<path fill="#FFFFFF" d="M248.84,173.58c0,2.25-0.84,3.67-2.49,4.27c-0.51,0.27-2.3,0.41-5.38,0.41c-3.08,0-4.62-1.55-4.62-4.68
	v-33.43c0-3.51-2.09-5.82-6.28-6.92c-2.76-0.55-6.25-0.83-10.47-0.83H182.9v41.19c0,3.12-1.54,4.68-4.61,4.68
	c-3.08,0-4.88-0.14-5.39-0.41c-1.66-0.59-2.49-2.01-2.49-4.27v-62.79c0-2.29,0.82-3.71,2.49-4.26c0.63-0.23,2.43-0.36,5.39-0.36
	c3.07,0,4.61,1.54,4.61,4.62v11.18h33.73c9.99,0,16.98,0.79,21.01,2.37c7.45,2.69,11.19,7.9,11.19,15.62V173.58z"/>
<path fill="#FFFFFF" d="M336.96,177.37c0,7.69-4.65,12.72-13.97,15.09c-3.42,0.99-11.06,1.49-22.91,1.49c-1.92,0-3.23-0.58-3.9-1.73
	c-0.51-0.76-0.77-2.22-0.77-4.4c0-3.13,1.56-4.7,4.67-4.7h1.61h1h0.6c0.4,0,0.61,0.01,0.65,0.05c0.87,0.04,1.61,0.07,2.23,0.09
	c0.61,0.02,1.13,0.04,1.57,0.04c11.12,0,16.68-1.84,16.68-5.51h-37.28c-18.78,0-28.16-5.64-28.16-16.91v-34.69
	c0-2.25,0.82-3.67,2.48-4.26c0.51-0.27,2.32-0.42,5.39-0.42c3.07,0,4.62,1.57,4.62,4.68v34.69c0,4.33,5.23,6.5,15.68,6.5h37.28
	v-41.19c0-3.11,1.56-4.68,4.68-4.68c3.08,0,4.88,0.14,5.39,0.42c1.66,0.59,2.48,2.01,2.48,4.26V177.37z"/>
<path fill="#FFFFFF" d="M431.73,160.8c0,6.08-3.77,10.69-11.31,13.85c-5.33,2.4-11.74,3.61-19.23,3.61h-19.06
	c-19.3,0-29.26-5.34-29.89-16.03c-0.11-1.9-0.17-4.38-0.17-7.46c0-6.2,0.13-11.25,0.35-15.15c0.72-11.75,10.56-17.64,29.53-17.64
	h37.29v-11.07c0-3.11,1.54-4.67,4.62-4.67c2.21,0,3.98,0.16,5.32,0.47c1.7,0.59,2.55,1.99,2.55,4.2V160.8z M419.25,160.57v-28.11
	h-37.59c-11.17,0-16.75,2.46-16.75,7.4v20.12c0,3.67,2.12,6.04,6.34,7.11c1.82,0.47,5.39,0.71,10.71,0.71h17.99
	C412.81,167.78,419.25,165.38,419.25,160.57z"/>
<path fill="#FFFFFF" d="M479.99,127.42c0,3.12-1.85,4.67-5.56,4.67c-0.51,0-1.25-0.03-2.22-0.09c-0.96-0.06-1.7-0.09-2.22-0.09
	c-9.58,0-14.38,2.39-14.38,7.16v34.5c0,2.29-0.87,3.73-2.6,4.32c-0.71,0.23-2.52,0.35-5.45,0.35c-2.95,0-4.43-1.58-4.43-4.73v-34.44
	c0-7.42,3.81-12.45,11.42-15.09c4.66-1.66,11.58-2.49,20.77-2.49C478.44,121.5,479.99,123.48,479.99,127.42z"/>
<path fill="#FFFFFF" d="M558.11,161.21c0,11.36-8.52,17.04-25.56,17.04h-30.54c-6.56,0-12.22-1.2-17-3.61
	c-6.42-3.08-9.64-7.35-9.64-12.84v-7.22c0-5.92,3.06-10.36,9.17-13.31c4.54-2.29,10.22-3.44,17.05-3.44h44.15
	c-0.67-3.98-6.31-5.98-16.92-5.98c-0.43,0-0.96,0.01-1.57,0.03c-0.61,0.02-1.31,0.06-2.1,0.1c-0.04,0.03-0.23,0.06-0.59,0.06h-0.54
	h-0.95h-1.47c-3.08,0-4.61-1.96-4.61-5.86c0-3.11,1.53-4.68,4.61-4.68c9.98,0,17.62,0.7,22.9,2.07c9.08,2.56,13.62,7.69,13.62,15.39
	V161.21z M545.86,158.26c0-0.56-0.01-1.25-0.03-2.08c-0.03-0.83-0.05-1.79-0.09-2.89c-0.04-1.11-0.07-2.08-0.1-2.91
	c-0.01-0.82-0.02-1.52-0.02-2.06h-44.33c-2.6,0-5.28,0.47-8.04,1.42c-3.59,1.22-5.39,2.82-5.39,4.79v7.16
	c0,2.09,1.86,3.69,5.57,4.79c2.38,0.88,5.1,1.31,8.23,1.31h31.01c4.66,0,7.85-0.46,9.59-1.36
	C544.66,165.2,545.86,162.48,545.86,158.26z"/>
<path fill="#FFFFFF" d="M609.77,127.78c0,3.08-1.55,4.62-4.68,4.62h-19.76v41.19c0,3.12-1.54,4.68-4.62,4.68
	c-3.04,0-4.82-0.14-5.33-0.41c-1.69-0.63-2.54-2.06-2.54-4.27V132.4c-1.66,0-3.01-0.03-4.05-0.1c-1.05-0.05-1.79-0.12-2.22-0.2
	c-1.97-0.67-2.96-2.31-2.96-4.91c0-2.61,0.99-4.24,2.96-4.91c0.43-0.08,1.17-0.15,2.22-0.21c1.04-0.05,2.39-0.09,4.05-0.09v-11.18
	c0-3.08,1.55-4.62,4.62-4.62c3.04,0,4.81,0.14,5.33,0.42c1.69,0.59,2.54,1.99,2.54,4.2v11.18h19.76
	C608.22,121.98,609.77,123.91,609.77,127.78z"/>
<path fill="#FFFFFF" d="M692.04,150.85c0,3.44-1.17,5.15-3.49,5.15h-62.08v0.42c0,5.36,3.15,8.81,9.47,10.36
	c1.39,0.31,3.39,0.56,6.01,0.74c2.62,0.18,5.96,0.27,10.03,0.27c3.07,0,4.62,1.94,4.62,5.8c0,3.12-1.55,4.68-4.62,4.68
	c-4.19,0-7.61-0.02-10.27-0.09c-2.66-0.06-4.68-0.17-6.06-0.32c-6.86-0.72-11.92-2.33-15.15-4.85c-4.62-3.59-6.93-7.81-6.93-12.67
	v-20.89c0-6.54,3.55-11.41,10.65-14.56c4.85-2.29,11.28-3.43,19.29-3.43h23.32c6.55,0,11.97,1.09,16.27,3.26
	c5.96,2.76,8.94,6.92,8.94,12.49V150.85z M679.84,145.18v-6.98c0-4.26-8.46-6.39-25.38-6.39c-9.99,0-16.83,0.36-20.54,1.06
	c-5.25,0.99-7.88,2.92-7.88,5.8v6.51H679.84z"/>
<path fill="#FFFFFF" d="M720,98.17c0,7.4-5.81,13.21-13.37,13.21c-7.48,0-13.45-5.81-13.45-13.21c0-7.24,5.97-13.05,13.45-13.05
	C714.19,85.12,720,90.93,720,98.17z M696.53,98.17c0,5.81,4.3,10.42,10.18,10.42c5.73,0,9.94-4.62,9.94-10.35
	c0-5.81-4.22-10.5-10.02-10.5C700.83,87.75,696.53,92.44,696.53,98.17z M704.57,105.01h-3.02V91.97c1.19-0.24,2.86-0.4,5.01-0.4
	c2.47,0,3.59,0.4,4.54,0.96c0.71,0.56,1.27,1.59,1.27,2.86c0,1.43-1.12,2.55-2.71,3.02v0.16c1.28,0.48,1.99,1.43,2.39,3.18
	c0.4,1.99,0.64,2.79,0.95,3.26h-3.26c-0.4-0.48-0.64-1.67-1.03-3.18c-0.23-1.43-1.03-2.07-2.71-2.07h-1.43V105.01z M704.65,97.61
	h1.43c1.67,0,3.02-0.56,3.02-1.91c0-1.2-0.87-1.99-2.78-1.99c-0.8,0-1.36,0.08-1.67,0.16V97.61z"/>
<path fill-rule="evenodd" fill="#FFFFFF" d="M74.1,0c0.49,0.43,0.57,1.03,0.76,1.57c5.4,15.62,12.88,30.19,22.29,43.77
	c4.51,6.51,9.58,12.6,14.5,18.8c7.66,9.65,15.53,19.14,22.26,29.48c5.69,8.74,10.35,17.98,13.03,28.12
	c1.69,6.36,2.83,12.82,3.12,19.4c0.38,8.63-1.46,16.89-4.36,24.97c-3.78,10.51-9.51,19.79-17.63,27.45
	c-12.1,11.42-26.3,18.92-42.87,21.18c-15.82,2.16-31.12-0.06-45.53-7.22c-7.28-3.62-13.72-8.44-19.57-14.07
	c-3.83-3.69-7.48-7.5-10.25-12.1c-4.41-7.33-7.03-15.3-8.5-23.67c-1.05-5.97-1.56-12-1.3-18.05c0.71-16.66,5.05-32.14,14.35-46.21
	c6.98-10.56,14.82-20.42,22.78-30.21c6.64-8.17,13.21-16.41,18.74-25.39C62.93,26.48,68.8,14.58,73.13,1.95
	C73.36,1.28,73.34,0.45,74.1,0z M48.85,121.63c0,0.02,0,0.04,0,0.06c11.13,0,22.26,0,33.39,0c0.75,0,1.5,0.03,2.24-0.05
	c2.93-0.32,5.19-2.58,5.24-5.46c0.07-4.18,0.05-8.37-0.04-12.55c-0.05-2.47-1.51-4.15-3.9-4.87c-0.87-0.26-1.75-0.34-2.65-0.34
	c-22.49,0-44.97,0.01-67.46-0.04c-1.49,0-2.28,0.52-2.98,1.78c-6.28,11.21-9.5,23.32-10.38,36.05c-0.56,8.14-0.1,16.26,1.69,24.26
	c2.05,9.14,5.4,17.68,11.32,25.08c1.1,1.38,2.26,2.05,4.13,2.05c20.92-0.06,41.83-0.03,62.75-0.02c0.67,0,1.35,0.03,2.02-0.03
	c3.15-0.31,5.44-2.49,5.5-5.45c0.08-4.18,0.05-8.37-0.03-12.55c-0.05-2.47-1.5-4.15-3.88-4.89c-1.09-0.34-2.2-0.34-3.32-0.34
	c-22.19,0-44.37,0-66.56,0c-0.52,0-1.05,0.01-1.57,0c-1.75-0.04-1.77-0.03-2.24-1.79c-0.46-1.73-0.92-3.46-1.29-5.21
	c-0.61-2.83-0.58-2.84,2.29-2.84c19.5,0.01,38.99,0.03,58.49,0.05c0.82,0,1.64,0.09,2.46,0.11c3.43,0.09,6.88,0.37,10.29-0.09
	c3.8-0.52,5.43-2.59,5.42-6.41c-0.01-3.14-0.18-6.28,0.01-9.41c0.31-5.24-2.31-7.33-7.18-7.3c-23.08,0.13-46.17,0.06-69.25,0.06
	c-0.52,0-1.05,0.02-1.57,0c-1.53-0.06-1.71-0.17-1.44-1.73c0.4-2.35,0.97-4.67,1.48-7c0.16-0.74,0.59-1.17,1.42-1.11
	c0.59,0.04,1.19,0,1.79,0C26.29,121.63,37.57,121.63,48.85,121.63z M128.45,154.86c0.45,0,0.9,0,1.34,0c5.15,0,10.3-0.03,15.45,0.02
	c1.17,0.01,1.79-0.27,1.88-1.56c0.09-1.33,0.46-2.64,0.58-3.97c0.5-5.44,0.4-10.86-0.53-16.27c-0.19-1.12-0.64-1.48-1.75-1.47
	c-11.04,0.03-22.09-0.02-33.13,0.04c-4.16,0.02-6.33,2.25-6.41,6.4c-0.06,3.51-0.07,7.02,0,10.52c0.09,4.24,2.2,6.27,6.44,6.28
	C117.7,154.87,123.08,154.86,128.45,154.86z"/>
</svg>
