<?xml version="1.0" encoding="utf-8"?>
<!-- Generator: Adobe Illustrator 19.0.0, SVG Export Plug-In . SVG Version: 6.00 Build 0)  -->
<svg version="1.2" baseProfile="tiny" id="Art" xmlns="http://www.w3.org/2000/svg" xmlns:xlink="http://www.w3.org/1999/xlink"
	 x="0px" y="0px" viewBox="0 0 606.04 82.68" xml:space="preserve">
<path id="XMLID_206_" fill="#FFFFFF" d="M50.93,45.63c-0.3-7.14-0.5-15.62-0.5-24.35h-0.2c-1.9,7.54-4.34,16.06-6.61,22.97
	l-7.14,23.24H26.04l-6.27-22.97c-1.9-7.04-3.77-15.42-5.3-23.24h-0.2c-0.22,7.97-0.53,17.16-0.81,24.54l-1.23,22.61H0L3.72,8.98
	h17.67l5.76,19.92c1.9,6.8,3.65,14.19,4.95,21.23h0.35c1.53-6.93,3.55-14.66,5.61-21.39l6.2-19.76h17.38l3.16,59.45H51.87
	L50.93,45.63z"/>
<path id="XMLID_203_" fill="#FFFFFF" d="M88.61,53.19l-4.12,15.24H70.78L88.73,8.98h17.3l18.31,59.45h-14.3l-4.52-15.24H88.61z
	 M103.53,43.1l-3.63-12.58c-1.01-3.5-2.02-8-2.91-11.49h-0.21c-0.82,3.56-1.82,8.05-2.64,11.49L90.54,43.1H103.53z"/>
<path id="XMLID_200_" fill="#FFFFFF" d="M132.2,9.86c4.89-0.88,11.21-1.27,17.89-1.27c11.29,0,18.57,1.84,24.18,6.14
	c6.07,4.6,9.94,12.01,9.94,22.62c0,11.39-4.1,19.18-9.74,24.02c-6.14,5.23-15.68,7.73-27.2,7.73c-6.8,0-11.86-0.46-15.06-0.89V9.86z
	 M145.45,58.31c1.13,0.25,3.11,0.25,4.63,0.25c12.06,0.11,20.03-6.65,20.03-20.77c0-12.82-7.19-18.94-18.7-18.94
	c-2.85,0-4.84,0.28-5.96,0.56V58.31z"/>
<path id="XMLID_198_" fill="#FFFFFF" d="M227.82,43.32h-21.58V57.4h24.13v11.03h-37.41V8.98h36.23V20h-22.96v12.36h21.58V43.32z"/>
<path id="XMLID_196_" fill="#FFFFFF" d="M423.58,8.98v22.96h21.87V8.98h13.28v59.45h-13.28V43.66h-21.87v24.77h-13.24V8.98H423.58z"
	/>
<path id="XMLID_194_" fill="#FFFFFF" d="M505.24,43.32h-21.55V57.4h24.06v11.03H470.4V8.98h36.17V20h-22.88v12.36h21.55V43.32z"/>
<path id="XMLID_191_" fill="#FFFFFF" d="M516.87,9.86c4.29-0.76,10.59-1.27,17.68-1.27c8.7,0,14.77,1.27,19,4.66
	c3.53,2.88,5.5,7.05,5.5,12.5c0,7.49-5.3,12.69-10.36,14.59v0.22c4.04,1.7,6.3,5.57,7.86,11.02c1.76,6.81,3.52,14.55,4.69,16.86
	h-13.6c-0.87-1.65-2.35-6.56-4.03-13.89c-1.63-7.47-4.16-9.36-9.63-9.47h-3.91v23.35h-13.2V9.86z M530.06,35.41h5.22
	c6.61,0,10.5-3.39,10.5-8.6c0-5.4-3.65-8.2-9.7-8.2c-3.3,0-5.12,0.17-6.02,0.4V35.41z"/>
<path id="XMLID_189_" fill="#FFFFFF" d="M603.49,43.32h-21.59V57.4h24.16v11.03h-37.41V8.98h36.18V20h-22.93v12.36h21.59V43.32z"/>
<polygon id="XMLID_188_" fill="#B22435" points="387.66,82.68 387.66,0 253.3,0 253.3,82.68 "/>
<polygon id="XMLID_187_" fill="#3D3C6F" points="253.3,0 310.61,0 310.61,44.51 253.3,44.51 "/>
<polygon id="XMLID_186_" fill="#FFFFFF" points="259.64,2.61 257.64,2.61 257.02,0.75 256.41,2.61 254.38,2.61 256.01,3.8 
	255.33,5.77 257.03,4.54 258.67,5.76 258.01,3.81 "/>
<polygon id="XMLID_185_" fill="#FFFFFF" points="269.52,2.61 267.51,2.61 266.88,0.75 266.27,2.61 264.24,2.61 265.87,3.8 
	265.2,5.77 266.89,4.54 268.54,5.76 267.88,3.81 "/>
<polygon id="XMLID_184_" fill="#FFFFFF" points="279.38,2.61 277.38,2.61 276.75,0.75 276.14,2.61 274.11,2.61 275.75,3.8 
	275.07,5.77 276.75,4.54 278.4,5.76 277.75,3.81 "/>
<polygon id="XMLID_183_" fill="#FFFFFF" points="289.24,2.61 287.24,2.61 286.62,0.75 286.01,2.61 283.98,2.61 285.61,3.8 
	284.93,5.77 286.63,4.54 288.27,5.76 287.61,3.81 "/>
<polygon id="XMLID_182_" fill="#FFFFFF" points="299.11,2.61 297.11,2.61 296.48,0.75 295.87,2.61 293.84,2.61 295.47,3.8 
	294.8,5.77 296.49,4.54 298.13,5.76 297.47,3.81 "/>
<polygon id="XMLID_181_" fill="#FFFFFF" points="308.98,2.61 306.98,2.61 306.35,0.75 305.74,2.61 303.7,2.61 305.34,3.8 
	304.66,5.77 306.35,4.54 308,5.76 307.35,3.81 "/>
<polygon id="XMLID_180_" fill="#FFFFFF" points="259.64,12.19 257.64,12.19 257.02,10.32 256.41,12.19 254.38,12.19 256.01,13.37 
	255.33,15.34 257.03,14.11 258.67,15.33 258.01,13.38 "/>
<polygon id="XMLID_179_" fill="#FFFFFF" points="269.52,12.19 267.51,12.19 266.88,10.32 266.27,12.19 264.24,12.19 265.87,13.37 
	265.2,15.34 266.89,14.11 268.54,15.33 267.88,13.38 "/>
<polygon id="XMLID_178_" fill="#FFFFFF" points="279.38,12.19 277.38,12.19 276.75,10.32 276.14,12.19 274.11,12.19 275.75,13.37 
	275.07,15.34 276.75,14.11 278.4,15.33 277.75,13.38 "/>
<polygon id="XMLID_177_" fill="#FFFFFF" points="289.24,12.19 287.24,12.19 286.62,10.32 286.01,12.19 283.98,12.19 285.61,13.37 
	284.93,15.34 286.63,14.11 288.27,15.33 287.61,13.38 "/>
<polygon id="XMLID_176_" fill="#FFFFFF" points="299.11,12.19 297.11,12.19 296.48,10.32 295.87,12.19 293.84,12.19 295.47,13.37 
	294.8,15.34 296.49,14.11 298.13,15.33 297.47,13.38 "/>
<polygon id="XMLID_175_" fill="#FFFFFF" points="308.98,12.19 306.98,12.19 306.35,10.32 305.74,12.19 303.7,12.19 305.34,13.37 
	304.66,15.34 306.35,14.11 308,15.33 307.35,13.38 "/>
<polygon id="XMLID_174_" fill="#FFFFFF" points="259.64,21.76 257.64,21.76 257.02,19.9 256.41,21.76 254.38,21.76 256.01,22.94 
	255.33,24.91 257.03,23.68 258.67,24.9 258.01,22.95 "/>
<polygon id="XMLID_173_" fill="#FFFFFF" points="269.52,21.76 267.51,21.76 266.88,19.9 266.27,21.76 264.24,21.76 265.87,22.94 
	265.2,24.91 266.89,23.68 268.54,24.9 267.88,22.95 "/>
<polygon id="XMLID_172_" fill="#FFFFFF" points="279.38,21.76 277.38,21.76 276.75,19.9 276.14,21.76 274.11,21.76 275.75,22.94 
	275.07,24.91 276.75,23.68 278.4,24.9 277.75,22.95 "/>
<polygon id="XMLID_171_" fill="#FFFFFF" points="289.24,21.76 287.24,21.76 286.62,19.9 286.01,21.76 283.98,21.76 285.61,22.94 
	284.93,24.91 286.63,23.68 288.27,24.9 287.61,22.95 "/>
<polygon id="XMLID_170_" fill="#FFFFFF" points="299.11,21.76 297.11,21.76 296.48,19.9 295.87,21.76 293.84,21.76 295.47,22.94 
	294.8,24.91 296.49,23.68 298.13,24.9 297.47,22.95 "/>
<polygon id="XMLID_169_" fill="#FFFFFF" points="308.98,21.76 306.98,21.76 306.35,19.9 305.74,21.76 303.7,21.76 305.34,22.94 
	304.66,24.91 306.35,23.68 308,24.9 307.35,22.95 "/>
<polygon id="XMLID_168_" fill="#FFFFFF" points="259.64,31.33 257.64,31.33 257.02,29.47 256.41,31.33 254.38,31.33 256.01,32.51 
	255.33,34.48 257.03,33.25 258.67,34.47 258.01,32.52 "/>
<polygon id="XMLID_167_" fill="#FFFFFF" points="269.52,31.33 267.51,31.33 266.88,29.47 266.27,31.33 264.24,31.33 265.87,32.51 
	265.2,34.48 266.89,33.25 268.54,34.47 267.88,32.52 "/>
<polygon id="XMLID_166_" fill="#FFFFFF" points="279.38,31.33 277.38,31.33 276.75,29.47 276.14,31.33 274.11,31.33 275.75,32.51 
	275.07,34.48 276.75,33.25 278.4,34.47 277.75,32.52 "/>
<polygon id="XMLID_165_" fill="#FFFFFF" points="289.24,31.33 287.24,31.33 286.62,29.47 286.01,31.33 283.98,31.33 285.61,32.51 
	284.93,34.48 286.63,33.25 288.27,34.47 287.61,32.52 "/>
<polygon id="XMLID_164_" fill="#FFFFFF" points="299.11,31.33 297.11,31.33 296.48,29.47 295.87,31.33 293.84,31.33 295.47,32.51 
	294.8,34.48 296.49,33.25 298.13,34.47 297.47,32.52 "/>
<polygon id="XMLID_163_" fill="#FFFFFF" points="308.98,31.33 306.98,31.33 306.35,29.47 305.74,31.33 303.7,31.33 305.34,32.51 
	304.66,34.48 306.35,33.25 308,34.47 307.35,32.52 "/>
<polygon id="XMLID_162_" fill="#FFFFFF" points="264.35,7.4 262.34,7.4 261.72,5.54 261.11,7.4 259.07,7.4 260.71,8.59 
	260.03,10.56 261.72,9.33 263.36,10.54 262.72,8.6 "/>
<polygon id="XMLID_161_" fill="#FFFFFF" points="274.21,7.4 272.21,7.4 271.58,5.54 270.97,7.4 268.95,7.4 270.57,8.59 269.9,10.56 
	271.59,9.33 273.24,10.54 272.58,8.6 "/>
<polygon id="XMLID_160_" fill="#FFFFFF" points="284.08,7.4 282.07,7.4 281.44,5.54 280.84,7.4 278.81,7.4 280.44,8.59 
	279.76,10.56 281.46,9.33 283.1,10.54 282.44,8.6 "/>
<polygon id="XMLID_159_" fill="#FFFFFF" points="293.94,7.4 291.94,7.4 291.31,5.54 290.71,7.4 288.67,7.4 290.31,8.59 
	289.63,10.56 291.32,9.33 292.96,10.54 292.31,8.6 "/>
<polygon id="XMLID_158_" fill="#FFFFFF" points="303.81,7.4 301.8,7.4 301.18,5.54 300.57,7.4 298.54,7.4 300.17,8.59 299.49,10.56 
	301.19,9.33 302.83,10.54 302.18,8.6 "/>
<polygon id="XMLID_157_" fill="#FFFFFF" points="264.35,16.97 262.34,16.97 261.72,15.11 261.11,16.97 259.07,16.97 260.71,18.16 
	260.03,20.13 261.72,18.9 263.36,20.12 262.72,18.17 "/>
<polygon id="XMLID_156_" fill="#FFFFFF" points="274.21,16.97 272.21,16.97 271.58,15.11 270.97,16.97 268.95,16.97 270.57,18.16 
	269.9,20.13 271.59,18.9 273.24,20.12 272.58,18.17 "/>
<polygon id="XMLID_155_" fill="#FFFFFF" points="284.08,16.97 282.07,16.97 281.44,15.11 280.84,16.97 278.81,16.97 280.44,18.16 
	279.76,20.13 281.46,18.9 283.1,20.12 282.44,18.17 "/>
<polygon id="XMLID_154_" fill="#FFFFFF" points="293.94,16.97 291.94,16.97 291.31,15.11 290.71,16.97 288.67,16.97 290.31,18.16 
	289.63,20.13 291.32,18.9 292.96,20.12 292.31,18.17 "/>
<polygon id="XMLID_153_" fill="#FFFFFF" points="303.81,16.97 301.8,16.97 301.18,15.11 300.57,16.97 298.54,16.97 300.17,18.16 
	299.49,20.13 301.19,18.9 302.83,20.12 302.18,18.17 "/>
<polygon id="XMLID_152_" fill="#FFFFFF" points="264.35,26.54 262.34,26.54 261.72,24.68 261.11,26.54 259.07,26.54 260.71,27.73 
	260.03,29.7 261.72,28.47 263.36,29.69 262.72,27.74 "/>
<polygon id="XMLID_151_" fill="#FFFFFF" points="274.21,26.54 272.21,26.54 271.58,24.68 270.97,26.54 268.95,26.54 270.57,27.73 
	269.9,29.7 271.59,28.47 273.24,29.69 272.58,27.74 "/>
<polygon id="XMLID_150_" fill="#FFFFFF" points="284.08,26.54 282.07,26.54 281.44,24.68 280.84,26.54 278.81,26.54 280.44,27.73 
	279.76,29.7 281.46,28.47 283.1,29.69 282.44,27.74 "/>
<polygon id="XMLID_149_" fill="#FFFFFF" points="293.94,26.54 291.94,26.54 291.31,24.68 290.71,26.54 288.67,26.54 290.31,27.73 
	289.63,29.7 291.32,28.47 292.96,29.69 292.31,27.74 "/>
<polygon id="XMLID_148_" fill="#FFFFFF" points="303.81,26.54 301.8,26.54 301.18,24.68 300.57,26.54 298.54,26.54 300.17,27.73 
	299.49,29.7 301.19,28.47 302.83,29.69 302.18,27.74 "/>
<polygon id="XMLID_147_" fill="#FFFFFF" points="264.35,36.11 262.34,36.11 261.72,34.26 261.11,36.11 259.07,36.11 260.71,37.3 
	260.03,39.27 261.72,38.04 263.36,39.26 262.72,37.31 "/>
<polygon id="XMLID_146_" fill="#FFFFFF" points="274.21,36.11 272.21,36.11 271.58,34.26 270.97,36.11 268.95,36.11 270.57,37.3 
	269.9,39.27 271.59,38.04 273.24,39.26 272.58,37.31 "/>
<polygon id="XMLID_145_" fill="#FFFFFF" points="284.08,36.11 282.07,36.11 281.44,34.26 280.84,36.11 278.81,36.11 280.44,37.3 
	279.76,39.27 281.46,38.04 283.1,39.26 282.44,37.31 "/>
<polygon id="XMLID_144_" fill="#FFFFFF" points="293.94,36.11 291.94,36.11 291.31,34.26 290.71,36.11 288.67,36.11 290.31,37.3 
	289.63,39.27 291.32,38.04 292.96,39.26 292.31,37.31 "/>
<polygon id="XMLID_143_" fill="#FFFFFF" points="303.81,36.11 301.8,36.11 301.18,34.26 300.57,36.11 298.54,36.11 300.17,37.3 
	299.49,39.27 301.19,38.04 302.83,39.26 302.18,37.31 "/>
<polygon id="XMLID_142_" fill="#FFFFFF" points="259.64,40.9 257.64,40.9 257.02,39.04 256.41,40.9 254.38,40.9 256.01,42.09 
	255.33,44.06 257.03,42.82 258.67,44.04 258.01,42.09 "/>
<polygon id="XMLID_141_" fill="#FFFFFF" points="269.52,40.9 267.51,40.9 266.88,39.04 266.27,40.9 264.24,40.9 265.87,42.09 
	265.2,44.06 266.89,42.82 268.54,44.04 267.88,42.09 "/>
<polygon id="XMLID_140_" fill="#FFFFFF" points="279.38,40.9 277.38,40.9 276.75,39.04 276.14,40.9 274.11,40.9 275.75,42.09 
	275.07,44.06 276.75,42.82 278.4,44.04 277.75,42.09 "/>
<polygon id="XMLID_139_" fill="#FFFFFF" points="289.24,40.9 287.24,40.9 286.62,39.04 286.01,40.9 283.98,40.9 285.61,42.09 
	284.93,44.06 286.63,42.82 288.27,44.04 287.61,42.09 "/>
<polygon id="XMLID_138_" fill="#FFFFFF" points="299.11,40.9 297.11,40.9 296.48,39.04 295.87,40.9 293.84,40.9 295.47,42.09 
	294.8,44.06 296.49,42.82 298.13,44.04 297.47,42.09 "/>
<polygon id="XMLID_137_" fill="#FFFFFF" points="308.98,40.9 306.98,40.9 306.35,39.04 305.74,40.9 303.7,40.9 305.34,42.09 
	304.66,44.06 306.35,42.82 308,44.04 307.35,42.09 "/>
<polygon id="XMLID_136_" fill="#FFFFFF" points="310.67,6.36 387.66,6.36 387.66,12.72 310.67,12.72 "/>
<polygon id="XMLID_135_" fill="#FFFFFF" points="310.67,19.08 387.66,19.08 387.66,25.44 310.67,25.44 "/>
<polygon id="XMLID_134_" fill="#FFFFFF" points="310.67,31.8 387.66,31.8 387.66,38.16 310.67,38.16 "/>
<polygon id="XMLID_133_" fill="#FFFFFF" points="253.3,44.52 387.66,44.52 387.66,50.88 253.3,50.88 "/>
<polygon id="XMLID_132_" fill="#FFFFFF" points="253.3,57.24 387.66,57.24 387.66,63.6 253.3,63.6 "/>
<polygon id="XMLID_131_" fill="#FFFFFF" points="253.3,69.96 387.66,69.96 387.66,76.32 253.3,76.32 "/>
<g id="XMLID_247_">
</g>
<g id="XMLID_248_">
</g>
<g id="XMLID_249_">
</g>
<g id="XMLID_250_">
</g>
<g id="XMLID_251_">
</g>
<g id="XMLID_252_">
</g>
</svg>
