<?xml version="1.0" encoding="utf-8"?>
<!-- Generator: Adobe Illustrator 19.0.0, SVG Export Plug-In . SVG Version: 6.00 Build 0)  -->
<svg version="1.2" baseProfile="tiny" id="Art" xmlns="http://www.w3.org/2000/svg" xmlns:xlink="http://www.w3.org/1999/xlink"
	 x="0px" y="0px" viewBox="-2 355.32 606.04 82.68" xml:space="preserve">
<path id="XMLID_206_" fill="#58595B" d="M48.93,400.95c-0.3-7.14-0.5-15.62-0.5-24.35h-0.2c-1.9,7.54-4.34,16.06-6.61,22.97
	l-7.14,23.24H24.04l-6.27-22.97c-1.9-7.04-3.77-15.42-5.3-23.24h-0.2c-0.22,7.97-0.53,17.16-0.81,24.54l-1.23,22.61H-2l3.72-59.45
	h17.67l5.76,19.92c1.9,6.8,3.65,14.19,4.95,21.23h0.35c1.53-6.93,3.55-14.66,5.61-21.39l6.2-19.76h17.38l3.16,59.45H49.87
	L48.93,400.95z"/>
<path id="XMLID_203_" fill="#58595B" d="M86.61,408.51l-4.12,15.24H68.78l17.95-59.45h17.3l18.31,59.45h-14.3l-4.52-15.24
	C103.52,408.51,86.61,408.51,86.61,408.51z M101.53,398.42l-3.63-12.58c-1.01-3.5-2.02-8-2.91-11.49h-0.21
	c-0.82,3.56-1.82,8.05-2.64,11.49l-3.6,12.58H101.53z"/>
<path id="XMLID_200_" fill="#58595B" d="M130.2,365.18c4.89-0.88,11.21-1.27,17.89-1.27c11.29,0,18.57,1.84,24.18,6.14
	c6.07,4.6,9.94,12.01,9.94,22.62c0,11.39-4.1,19.18-9.74,24.02c-6.14,5.23-15.68,7.73-27.2,7.73c-6.8,0-11.86-0.46-15.06-0.89
	L130.2,365.18L130.2,365.18z M143.45,413.63c1.13,0.25,3.11,0.25,4.63,0.25c12.06,0.11,20.03-6.65,20.03-20.77
	c0-12.82-7.19-18.94-18.7-18.94c-2.85,0-4.84,0.28-5.96,0.56V413.63z"/>
<path id="XMLID_198_" fill="#58595B" d="M225.82,398.64h-21.58v14.08h24.13v11.03h-37.41V364.3h36.23v11.02h-22.96v12.36h21.58
	L225.82,398.64L225.82,398.64z"/>
<path id="XMLID_196_" fill="#58595B" d="M421.58,364.3v22.96h21.87V364.3h13.28v59.45h-13.28v-24.77h-21.87v24.77h-13.24V364.3
	H421.58z"/>
<path id="XMLID_194_" fill="#58595B" d="M503.24,398.64h-21.55v14.08h24.06v11.03H468.4V364.3h36.17v11.02h-22.88v12.36h21.55
	V398.64z"/>
<path id="XMLID_191_" fill="#58595B" d="M514.87,365.18c4.29-0.76,10.59-1.27,17.68-1.27c8.7,0,14.77,1.27,19,4.66
	c3.53,2.88,5.5,7.05,5.5,12.5c0,7.49-5.3,12.69-10.36,14.59v0.22c4.04,1.7,6.3,5.57,7.86,11.02c1.76,6.81,3.52,14.55,4.69,16.86
	h-13.6c-0.87-1.65-2.35-6.56-4.03-13.89c-1.63-7.47-4.16-9.36-9.63-9.47h-3.91v23.35h-13.2V365.18z M528.06,390.73h5.22
	c6.61,0,10.5-3.39,10.5-8.6c0-5.4-3.65-8.2-9.7-8.2c-3.3,0-5.12,0.17-6.02,0.4L528.06,390.73L528.06,390.73z"/>
<path id="XMLID_189_" fill="#58595B" d="M601.49,398.64H579.9v14.08h24.16v11.03h-37.41V364.3h36.18v11.02H579.9v12.36h21.59V398.64
	z"/>
<polygon id="XMLID_188_" fill="#B22435" points="385.66,438 385.66,355.32 251.3,355.32 251.3,438 "/>
<polygon id="XMLID_187_" fill="#3D3C6F" points="251.3,355.32 308.61,355.32 308.61,399.83 251.3,399.83 "/>
<polygon id="XMLID_186_" fill="#FFFFFF" points="257.64,357.93 255.64,357.93 255.02,356.07 254.41,357.93 252.38,357.93 
	254.01,359.12 253.33,361.09 255.03,359.86 256.67,361.08 256.01,359.13 "/>
<polygon id="XMLID_185_" fill="#FFFFFF" points="267.52,357.93 265.51,357.93 264.88,356.07 264.27,357.93 262.24,357.93 
	263.87,359.12 263.2,361.09 264.89,359.86 266.54,361.08 265.88,359.13 "/>
<polygon id="XMLID_184_" fill="#FFFFFF" points="277.38,357.93 275.38,357.93 274.75,356.07 274.14,357.93 272.11,357.93 
	273.75,359.12 273.07,361.09 274.75,359.86 276.4,361.08 275.75,359.13 "/>
<polygon id="XMLID_183_" fill="#FFFFFF" points="287.24,357.93 285.24,357.93 284.62,356.07 284.01,357.93 281.98,357.93 
	283.61,359.12 282.93,361.09 284.63,359.86 286.27,361.08 285.61,359.13 "/>
<polygon id="XMLID_182_" fill="#FFFFFF" points="297.11,357.93 295.11,357.93 294.48,356.07 293.87,357.93 291.84,357.93 
	293.47,359.12 292.8,361.09 294.49,359.86 296.13,361.08 295.47,359.13 "/>
<polygon id="XMLID_181_" fill="#FFFFFF" points="306.98,357.93 304.98,357.93 304.35,356.07 303.74,357.93 301.7,357.93 
	303.34,359.12 302.66,361.09 304.35,359.86 306,361.08 305.35,359.13 "/>
<polygon id="XMLID_180_" fill="#FFFFFF" points="257.64,367.51 255.64,367.51 255.02,365.64 254.41,367.51 252.38,367.51 
	254.01,368.69 253.33,370.66 255.03,369.43 256.67,370.65 256.01,368.7 "/>
<polygon id="XMLID_179_" fill="#FFFFFF" points="267.52,367.51 265.51,367.51 264.88,365.64 264.27,367.51 262.24,367.51 
	263.87,368.69 263.2,370.66 264.89,369.43 266.54,370.65 265.88,368.7 "/>
<polygon id="XMLID_178_" fill="#FFFFFF" points="277.38,367.51 275.38,367.51 274.75,365.64 274.14,367.51 272.11,367.51 
	273.75,368.69 273.07,370.66 274.75,369.43 276.4,370.65 275.75,368.7 "/>
<polygon id="XMLID_177_" fill="#FFFFFF" points="287.24,367.51 285.24,367.51 284.62,365.64 284.01,367.51 281.98,367.51 
	283.61,368.69 282.93,370.66 284.63,369.43 286.27,370.65 285.61,368.7 "/>
<polygon id="XMLID_176_" fill="#FFFFFF" points="297.11,367.51 295.11,367.51 294.48,365.64 293.87,367.51 291.84,367.51 
	293.47,368.69 292.8,370.66 294.49,369.43 296.13,370.65 295.47,368.7 "/>
<polygon id="XMLID_175_" fill="#FFFFFF" points="306.98,367.51 304.98,367.51 304.35,365.64 303.74,367.51 301.7,367.51 
	303.34,368.69 302.66,370.66 304.35,369.43 306,370.65 305.35,368.7 "/>
<polygon id="XMLID_174_" fill="#FFFFFF" points="257.64,377.08 255.64,377.08 255.02,375.22 254.41,377.08 252.38,377.08 
	254.01,378.26 253.33,380.23 255.03,379 256.67,380.22 256.01,378.27 "/>
<polygon id="XMLID_173_" fill="#FFFFFF" points="267.52,377.08 265.51,377.08 264.88,375.22 264.27,377.08 262.24,377.08 
	263.87,378.26 263.2,380.23 264.89,379 266.54,380.22 265.88,378.27 "/>
<polygon id="XMLID_172_" fill="#FFFFFF" points="277.38,377.08 275.38,377.08 274.75,375.22 274.14,377.08 272.11,377.08 
	273.75,378.26 273.07,380.23 274.75,379 276.4,380.22 275.75,378.27 "/>
<polygon id="XMLID_171_" fill="#FFFFFF" points="287.24,377.08 285.24,377.08 284.62,375.22 284.01,377.08 281.98,377.08 
	283.61,378.26 282.93,380.23 284.63,379 286.27,380.22 285.61,378.27 "/>
<polygon id="XMLID_170_" fill="#FFFFFF" points="297.11,377.08 295.11,377.08 294.48,375.22 293.87,377.08 291.84,377.08 
	293.47,378.26 292.8,380.23 294.49,379 296.13,380.22 295.47,378.27 "/>
<polygon id="XMLID_169_" fill="#FFFFFF" points="306.98,377.08 304.98,377.08 304.35,375.22 303.74,377.08 301.7,377.08 
	303.34,378.26 302.66,380.23 304.35,379 306,380.22 305.35,378.27 "/>
<polygon id="XMLID_168_" fill="#FFFFFF" points="257.64,386.65 255.64,386.65 255.02,384.79 254.41,386.65 252.38,386.65 
	254.01,387.83 253.33,389.8 255.03,388.57 256.67,389.79 256.01,387.84 "/>
<polygon id="XMLID_167_" fill="#FFFFFF" points="267.52,386.65 265.51,386.65 264.88,384.79 264.27,386.65 262.24,386.65 
	263.87,387.83 263.2,389.8 264.89,388.57 266.54,389.79 265.88,387.84 "/>
<polygon id="XMLID_166_" fill="#FFFFFF" points="277.38,386.65 275.38,386.65 274.75,384.79 274.14,386.65 272.11,386.65 
	273.75,387.83 273.07,389.8 274.75,388.57 276.4,389.79 275.75,387.84 "/>
<polygon id="XMLID_165_" fill="#FFFFFF" points="287.24,386.65 285.24,386.65 284.62,384.79 284.01,386.65 281.98,386.65 
	283.61,387.83 282.93,389.8 284.63,388.57 286.27,389.79 285.61,387.84 "/>
<polygon id="XMLID_164_" fill="#FFFFFF" points="297.11,386.65 295.11,386.65 294.48,384.79 293.87,386.65 291.84,386.65 
	293.47,387.83 292.8,389.8 294.49,388.57 296.13,389.79 295.47,387.84 "/>
<polygon id="XMLID_163_" fill="#FFFFFF" points="306.98,386.65 304.98,386.65 304.35,384.79 303.74,386.65 301.7,386.65 
	303.34,387.83 302.66,389.8 304.35,388.57 306,389.79 305.35,387.84 "/>
<polygon id="XMLID_162_" fill="#FFFFFF" points="262.35,362.72 260.34,362.72 259.72,360.86 259.11,362.72 257.07,362.72 
	258.71,363.91 258.03,365.88 259.72,364.65 261.36,365.86 260.72,363.92 "/>
<polygon id="XMLID_161_" fill="#FFFFFF" points="272.21,362.72 270.21,362.72 269.58,360.86 268.97,362.72 266.95,362.72 
	268.57,363.91 267.9,365.88 269.59,364.65 271.24,365.86 270.58,363.92 "/>
<polygon id="XMLID_160_" fill="#FFFFFF" points="282.08,362.72 280.07,362.72 279.44,360.86 278.84,362.72 276.81,362.72 
	278.44,363.91 277.76,365.88 279.46,364.65 281.1,365.86 280.44,363.92 "/>
<polygon id="XMLID_159_" fill="#FFFFFF" points="291.94,362.72 289.94,362.72 289.31,360.86 288.71,362.72 286.67,362.72 
	288.31,363.91 287.63,365.88 289.32,364.65 290.96,365.86 290.31,363.92 "/>
<polygon id="XMLID_158_" fill="#FFFFFF" points="301.81,362.72 299.8,362.72 299.18,360.86 298.57,362.72 296.54,362.72 
	298.17,363.91 297.49,365.88 299.19,364.65 300.83,365.86 300.18,363.92 "/>
<polygon id="XMLID_157_" fill="#FFFFFF" points="262.35,372.29 260.34,372.29 259.72,370.43 259.11,372.29 257.07,372.29 
	258.71,373.48 258.03,375.45 259.72,374.22 261.36,375.44 260.72,373.49 "/>
<polygon id="XMLID_156_" fill="#FFFFFF" points="272.21,372.29 270.21,372.29 269.58,370.43 268.97,372.29 266.95,372.29 
	268.57,373.48 267.9,375.45 269.59,374.22 271.24,375.44 270.58,373.49 "/>
<polygon id="XMLID_155_" fill="#FFFFFF" points="282.08,372.29 280.07,372.29 279.44,370.43 278.84,372.29 276.81,372.29 
	278.44,373.48 277.76,375.45 279.46,374.22 281.1,375.44 280.44,373.49 "/>
<polygon id="XMLID_154_" fill="#FFFFFF" points="291.94,372.29 289.94,372.29 289.31,370.43 288.71,372.29 286.67,372.29 
	288.31,373.48 287.63,375.45 289.32,374.22 290.96,375.44 290.31,373.49 "/>
<polygon id="XMLID_153_" fill="#FFFFFF" points="301.81,372.29 299.8,372.29 299.18,370.43 298.57,372.29 296.54,372.29 
	298.17,373.48 297.49,375.45 299.19,374.22 300.83,375.44 300.18,373.49 "/>
<polygon id="XMLID_152_" fill="#FFFFFF" points="262.35,381.86 260.34,381.86 259.72,380 259.11,381.86 257.07,381.86 
	258.71,383.05 258.03,385.02 259.72,383.79 261.36,385.01 260.72,383.06 "/>
<polygon id="XMLID_151_" fill="#FFFFFF" points="272.21,381.86 270.21,381.86 269.58,380 268.97,381.86 266.95,381.86 
	268.57,383.05 267.9,385.02 269.59,383.79 271.24,385.01 270.58,383.06 "/>
<polygon id="XMLID_150_" fill="#FFFFFF" points="282.08,381.86 280.07,381.86 279.44,380 278.84,381.86 276.81,381.86 
	278.44,383.05 277.76,385.02 279.46,383.79 281.1,385.01 280.44,383.06 "/>
<polygon id="XMLID_149_" fill="#FFFFFF" points="291.94,381.86 289.94,381.86 289.31,380 288.71,381.86 286.67,381.86 
	288.31,383.05 287.63,385.02 289.32,383.79 290.96,385.01 290.31,383.06 "/>
<polygon id="XMLID_148_" fill="#FFFFFF" points="301.81,381.86 299.8,381.86 299.18,380 298.57,381.86 296.54,381.86 298.17,383.05 
	297.49,385.02 299.19,383.79 300.83,385.01 300.18,383.06 "/>
<polygon id="XMLID_147_" fill="#FFFFFF" points="262.35,391.43 260.34,391.43 259.72,389.58 259.11,391.43 257.07,391.43 
	258.71,392.62 258.03,394.59 259.72,393.36 261.36,394.58 260.72,392.63 "/>
<polygon id="XMLID_146_" fill="#FFFFFF" points="272.21,391.43 270.21,391.43 269.58,389.58 268.97,391.43 266.95,391.43 
	268.57,392.62 267.9,394.59 269.59,393.36 271.24,394.58 270.58,392.63 "/>
<polygon id="XMLID_145_" fill="#FFFFFF" points="282.08,391.43 280.07,391.43 279.44,389.58 278.84,391.43 276.81,391.43 
	278.44,392.62 277.76,394.59 279.46,393.36 281.1,394.58 280.44,392.63 "/>
<polygon id="XMLID_144_" fill="#FFFFFF" points="291.94,391.43 289.94,391.43 289.31,389.58 288.71,391.43 286.67,391.43 
	288.31,392.62 287.63,394.59 289.32,393.36 290.96,394.58 290.31,392.63 "/>
<polygon id="XMLID_143_" fill="#FFFFFF" points="301.81,391.43 299.8,391.43 299.18,389.58 298.57,391.43 296.54,391.43 
	298.17,392.62 297.49,394.59 299.19,393.36 300.83,394.58 300.18,392.63 "/>
<polygon id="XMLID_142_" fill="#FFFFFF" points="257.64,396.22 255.64,396.22 255.02,394.36 254.41,396.22 252.38,396.22 
	254.01,397.41 253.33,399.38 255.03,398.14 256.67,399.36 256.01,397.41 "/>
<polygon id="XMLID_141_" fill="#FFFFFF" points="267.52,396.22 265.51,396.22 264.88,394.36 264.27,396.22 262.24,396.22 
	263.87,397.41 263.2,399.38 264.89,398.14 266.54,399.36 265.88,397.41 "/>
<polygon id="XMLID_140_" fill="#FFFFFF" points="277.38,396.22 275.38,396.22 274.75,394.36 274.14,396.22 272.11,396.22 
	273.75,397.41 273.07,399.38 274.75,398.14 276.4,399.36 275.75,397.41 "/>
<polygon id="XMLID_139_" fill="#FFFFFF" points="287.24,396.22 285.24,396.22 284.62,394.36 284.01,396.22 281.98,396.22 
	283.61,397.41 282.93,399.38 284.63,398.14 286.27,399.36 285.61,397.41 "/>
<polygon id="XMLID_138_" fill="#FFFFFF" points="297.11,396.22 295.11,396.22 294.48,394.36 293.87,396.22 291.84,396.22 
	293.47,397.41 292.8,399.38 294.49,398.14 296.13,399.36 295.47,397.41 "/>
<polygon id="XMLID_137_" fill="#FFFFFF" points="306.98,396.22 304.98,396.22 304.35,394.36 303.74,396.22 301.7,396.22 
	303.34,397.41 302.66,399.38 304.35,398.14 306,399.36 305.35,397.41 "/>
<polygon id="XMLID_136_" fill="#FFFFFF" points="308.67,361.68 385.66,361.68 385.66,368.04 308.67,368.04 "/>
<polygon id="XMLID_135_" fill="#FFFFFF" points="308.67,374.4 385.66,374.4 385.66,380.76 308.67,380.76 "/>
<polygon id="XMLID_134_" fill="#FFFFFF" points="308.67,387.12 385.66,387.12 385.66,393.48 308.67,393.48 "/>
<polygon id="XMLID_133_" fill="#FFFFFF" points="251.3,399.84 385.66,399.84 385.66,406.2 251.3,406.2 "/>
<polygon id="XMLID_132_" fill="#FFFFFF" points="251.3,412.56 385.66,412.56 385.66,418.92 251.3,418.92 "/>
<polygon id="XMLID_131_" fill="#FFFFFF" points="251.3,425.28 385.66,425.28 385.66,431.64 251.3,431.64 "/>
<g id="XMLID_247_">
</g>
<g id="XMLID_248_">
</g>
<g id="XMLID_249_">
</g>
<g id="XMLID_250_">
</g>
<g id="XMLID_251_">
</g>
<g id="XMLID_252_">
</g>
</svg>
