<?xml version="1.0" encoding="utf-8"?>
<!-- Generator: Adobe Illustrator 18.1.1, SVG Export Plug-In . SVG Version: 6.00 Build 0)  -->
<svg version="1.2" baseProfile="tiny" id="Layer_1" xmlns="http://www.w3.org/2000/svg" xmlns:xlink="http://www.w3.org/1999/xlink"
	 x="0px" y="0px" viewBox="0 0 174.5 135.34" xml:space="preserve">
<polygon fill="#B22234" points="174.5,107.38 174.5,0 0,0 0,107.38 "/>
<polygon fill="#3C3B6E" points="0,0 74.43,0 74.43,57.81 0,57.81 "/>
<polygon fill="#FFFFFF" points="8.24,3.39 5.64,3.39 4.83,0.98 4.04,3.39 1.4,3.39 3.52,4.94 2.64,7.5 4.84,5.9 6.97,7.48 
	6.12,4.95 "/>
<polygon fill="#FFFFFF" points="21.06,3.39 18.46,3.39 17.64,0.98 16.85,3.39 14.21,3.39 16.33,4.94 15.45,7.5 17.65,5.9 
	19.79,7.48 18.94,4.95 "/>
<polygon fill="#FFFFFF" points="33.87,3.39 31.27,3.39 30.45,0.98 29.66,3.39 27.03,3.39 29.15,4.94 28.27,7.5 30.46,5.9 32.6,7.48 
	31.75,4.95 "/>
<polygon fill="#FFFFFF" points="46.68,3.39 44.08,3.39 43.27,0.98 42.48,3.39 39.84,3.39 41.96,4.94 41.08,7.5 43.28,5.9 
	45.41,7.48 44.56,4.95 "/>
<polygon fill="#FFFFFF" points="59.49,3.39 56.89,3.39 56.08,0.98 55.29,3.39 52.65,3.39 54.77,4.94 53.89,7.5 56.09,5.9 
	58.22,7.48 57.37,4.95 "/>
<polygon fill="#FFFFFF" points="72.31,3.39 69.71,3.39 68.89,0.98 68.1,3.39 65.46,3.39 67.58,4.94 66.7,7.5 68.9,5.9 71.04,7.48 
	70.19,4.95 "/>
<polygon fill="#FFFFFF" points="8.24,15.83 5.64,15.83 4.83,13.41 4.04,15.83 1.4,15.83 3.52,17.37 2.64,19.93 4.84,18.33 
	6.97,19.91 6.12,17.38 "/>
<polygon fill="#FFFFFF" points="21.06,15.83 18.46,15.83 17.64,13.41 16.85,15.83 14.21,15.83 16.33,17.37 15.45,19.93 17.65,18.33 
	19.79,19.91 18.94,17.38 "/>
<polygon fill="#FFFFFF" points="33.87,15.83 31.27,15.83 30.45,13.41 29.66,15.83 27.03,15.83 29.15,17.37 28.27,19.93 30.46,18.33 
	32.6,19.91 31.75,17.38 "/>
<polygon fill="#FFFFFF" points="46.68,15.83 44.08,15.83 43.27,13.41 42.48,15.83 39.84,15.83 41.96,17.37 41.08,19.93 43.28,18.33 
	45.41,19.91 44.56,17.38 "/>
<polygon fill="#FFFFFF" points="59.49,15.83 56.89,15.83 56.08,13.41 55.29,15.83 52.65,15.83 54.77,17.37 53.89,19.93 56.09,18.33 
	58.22,19.91 57.37,17.38 "/>
<polygon fill="#FFFFFF" points="72.31,15.83 69.71,15.83 68.89,13.41 68.1,15.83 65.46,15.83 67.58,17.37 66.7,19.93 68.9,18.33 
	71.04,19.91 70.19,17.38 "/>
<polygon fill="#FFFFFF" points="8.24,28.26 5.64,28.26 4.83,25.85 4.04,28.26 1.4,28.26 3.52,29.8 2.64,32.36 4.84,30.76 
	6.97,32.34 6.12,29.81 "/>
<polygon fill="#FFFFFF" points="21.06,28.26 18.46,28.26 17.64,25.85 16.85,28.26 14.21,28.26 16.33,29.8 15.45,32.36 17.65,30.76 
	19.79,32.34 18.94,29.81 "/>
<polygon fill="#FFFFFF" points="33.87,28.26 31.27,28.26 30.45,25.85 29.66,28.26 27.03,28.26 29.15,29.8 28.27,32.36 30.46,30.76 
	32.6,32.34 31.75,29.81 "/>
<polygon fill="#FFFFFF" points="46.68,28.26 44.08,28.26 43.27,25.85 42.48,28.26 39.84,28.26 41.96,29.8 41.08,32.36 43.28,30.76 
	45.41,32.34 44.56,29.81 "/>
<polygon fill="#FFFFFF" points="59.49,28.26 56.89,28.26 56.08,25.85 55.29,28.26 52.65,28.26 54.77,29.8 53.89,32.36 56.09,30.76 
	58.22,32.34 57.37,29.81 "/>
<polygon fill="#FFFFFF" points="72.31,28.26 69.71,28.26 68.89,25.85 68.1,28.26 65.46,28.26 67.58,29.8 66.7,32.36 68.9,30.76 
	71.04,32.34 70.19,29.81 "/>
<polygon fill="#FFFFFF" points="8.24,40.69 5.64,40.69 4.83,38.28 4.04,40.69 1.4,40.69 3.52,42.23 2.64,44.79 4.84,43.19 
	6.97,44.77 6.12,42.24 "/>
<polygon fill="#FFFFFF" points="21.06,40.69 18.46,40.69 17.64,38.28 16.85,40.69 14.21,40.69 16.33,42.23 15.45,44.79 17.65,43.19 
	19.79,44.77 18.94,42.24 "/>
<polygon fill="#FFFFFF" points="33.87,40.69 31.27,40.69 30.45,38.28 29.66,40.69 27.03,40.69 29.15,42.23 28.27,44.79 30.46,43.19 
	32.6,44.77 31.75,42.24 "/>
<polygon fill="#FFFFFF" points="46.68,40.69 44.08,40.69 43.27,38.28 42.48,40.69 39.84,40.69 41.96,42.23 41.08,44.79 43.28,43.19 
	45.41,44.77 44.56,42.24 "/>
<polygon fill="#FFFFFF" points="59.49,40.69 56.89,40.69 56.08,38.28 55.29,40.69 52.65,40.69 54.77,42.23 53.89,44.79 56.09,43.19 
	58.22,44.77 57.37,42.24 "/>
<polygon fill="#FFFFFF" points="72.31,40.69 69.71,40.69 68.89,38.28 68.1,40.69 65.46,40.69 67.58,42.23 66.7,44.79 68.9,43.19 
	71.04,44.77 70.19,42.24 "/>
<polygon fill="#FFFFFF" points="14.35,9.61 11.74,9.61 10.93,7.2 10.14,9.61 7.5,9.61 9.62,11.16 8.74,13.72 10.94,12.12 
	13.07,13.69 12.23,11.17 "/>
<polygon fill="#FFFFFF" points="27.16,9.61 24.56,9.61 23.74,7.2 22.95,9.61 20.32,9.61 22.43,11.16 21.56,13.72 23.75,12.12 
	25.89,13.69 25.04,11.17 "/>
<polygon fill="#FFFFFF" points="39.97,9.61 37.37,9.61 36.55,7.2 35.76,9.61 33.13,9.61 35.25,11.16 34.37,13.72 36.57,12.12 
	38.7,13.69 37.85,11.17 "/>
<polygon fill="#FFFFFF" points="52.78,9.61 50.18,9.61 49.37,7.2 48.58,9.61 45.94,9.61 48.06,11.16 47.18,13.72 49.38,12.12 
	51.51,13.69 50.66,11.17 "/>
<polygon fill="#FFFFFF" points="65.6,9.61 62.99,9.61 62.18,7.2 61.39,9.61 58.75,9.61 60.87,11.16 59.99,13.72 62.19,12.12 
	64.32,13.69 63.48,11.17 "/>
<polygon fill="#FFFFFF" points="14.35,22.04 11.74,22.04 10.93,19.63 10.14,22.04 7.5,22.04 9.62,23.59 8.74,26.15 10.94,24.55 
	13.07,26.13 12.23,23.6 "/>
<polygon fill="#FFFFFF" points="27.16,22.04 24.56,22.04 23.74,19.63 22.95,22.04 20.32,22.04 22.43,23.59 21.56,26.15 23.75,24.55 
	25.89,26.13 25.04,23.6 "/>
<polygon fill="#FFFFFF" points="39.97,22.04 37.37,22.04 36.55,19.63 35.76,22.04 33.13,22.04 35.25,23.59 34.37,26.15 36.57,24.55 
	38.7,26.13 37.85,23.6 "/>
<polygon fill="#FFFFFF" points="52.78,22.04 50.18,22.04 49.37,19.63 48.58,22.04 45.94,22.04 48.06,23.59 47.18,26.15 49.38,24.55 
	51.51,26.13 50.66,23.6 "/>
<polygon fill="#FFFFFF" points="65.6,22.04 62.99,22.04 62.18,19.63 61.39,22.04 58.75,22.04 60.87,23.59 59.99,26.15 62.19,24.55 
	64.32,26.13 63.48,23.6 "/>
<polygon fill="#FFFFFF" points="14.35,34.47 11.74,34.47 10.93,32.06 10.14,34.47 7.5,34.47 9.62,36.02 8.74,38.58 10.94,36.98 
	13.07,38.56 12.23,36.03 "/>
<polygon fill="#FFFFFF" points="27.16,34.47 24.56,34.47 23.74,32.06 22.95,34.47 20.32,34.47 22.43,36.02 21.56,38.58 23.75,36.98 
	25.89,38.56 25.04,36.03 "/>
<polygon fill="#FFFFFF" points="39.97,34.47 37.37,34.47 36.55,32.06 35.76,34.47 33.13,34.47 35.25,36.02 34.37,38.58 36.57,36.98 
	38.7,38.56 37.85,36.03 "/>
<polygon fill="#FFFFFF" points="52.78,34.47 50.18,34.47 49.37,32.06 48.58,34.47 45.94,34.47 48.06,36.02 47.18,38.58 49.38,36.98 
	51.51,38.56 50.66,36.03 "/>
<polygon fill="#FFFFFF" points="65.6,34.47 62.99,34.47 62.18,32.06 61.39,34.47 58.75,34.47 60.87,36.02 59.99,38.58 62.19,36.98 
	64.32,38.56 63.48,36.03 "/>
<polygon fill="#FFFFFF" points="14.35,46.9 11.74,46.9 10.93,44.5 10.14,46.9 7.5,46.9 9.62,48.45 8.74,51.01 10.94,49.41 
	13.07,50.99 12.23,48.46 "/>
<polygon fill="#FFFFFF" points="27.16,46.9 24.56,46.9 23.74,44.5 22.95,46.9 20.32,46.9 22.43,48.45 21.56,51.01 23.75,49.41 
	25.89,50.99 25.04,48.46 "/>
<polygon fill="#FFFFFF" points="39.97,46.9 37.37,46.9 36.55,44.5 35.76,46.9 33.13,46.9 35.25,48.45 34.37,51.01 36.57,49.41 
	38.7,50.99 37.85,48.46 "/>
<polygon fill="#FFFFFF" points="52.78,46.9 50.18,46.9 49.37,44.5 48.58,46.9 45.94,46.9 48.06,48.45 47.18,51.01 49.38,49.41 
	51.51,50.99 50.66,48.46 "/>
<polygon fill="#FFFFFF" points="65.6,46.9 62.99,46.9 62.18,44.5 61.39,46.9 58.75,46.9 60.87,48.45 59.99,51.01 62.19,49.41 
	64.32,50.99 63.48,48.46 "/>
<polygon fill="#FFFFFF" points="8.24,53.12 5.64,53.12 4.83,50.71 4.04,53.12 1.4,53.12 3.52,54.67 2.64,57.22 4.84,55.62 
	6.97,57.2 6.12,54.67 "/>
<polygon fill="#FFFFFF" points="21.06,53.12 18.46,53.12 17.64,50.71 16.85,53.12 14.21,53.12 16.33,54.67 15.45,57.22 17.65,55.62 
	19.79,57.2 18.94,54.67 "/>
<polygon fill="#FFFFFF" points="33.87,53.12 31.27,53.12 30.45,50.71 29.66,53.12 27.03,53.12 29.15,54.67 28.27,57.22 30.46,55.62 
	32.6,57.2 31.75,54.67 "/>
<polygon fill="#FFFFFF" points="46.68,53.12 44.08,53.12 43.27,50.71 42.48,53.12 39.84,53.12 41.96,54.67 41.08,57.22 43.28,55.62 
	45.41,57.2 44.56,54.67 "/>
<polygon fill="#FFFFFF" points="59.49,53.12 56.89,53.12 56.08,50.71 55.29,53.12 52.65,53.12 54.77,54.67 53.89,57.22 56.09,55.62 
	58.22,57.2 57.37,54.67 "/>
<polygon fill="#FFFFFF" points="72.31,53.12 69.71,53.12 68.89,50.71 68.1,53.12 65.46,53.12 67.58,54.67 66.7,57.22 68.9,55.62 
	71.04,57.2 70.19,54.67 "/>
<polygon fill="#FFFFFF" points="74.51,8.26 174.5,8.26 174.5,16.52 74.51,16.52 "/>
<polygon fill="#FFFFFF" points="74.51,24.78 174.5,24.78 174.5,33.04 74.51,33.04 "/>
<polygon fill="#FFFFFF" points="74.51,41.3 174.5,41.3 174.5,49.56 74.51,49.56 "/>
<polygon fill="#FFFFFF" points="0,57.82 174.5,57.82 174.5,66.08 0,66.08 "/>
<polygon fill="#FFFFFF" points="0,74.34 174.5,74.34 174.5,82.6 0,82.6 "/>
<polygon fill="#FFFFFF" points="0,90.86 174.5,90.86 174.5,99.12 0,99.12 "/>
<g>
	<path d="M5.74,116.78l4.34,12.76h0.05l4.11-12.76h5.74v18.56h-3.82v-13.15h-0.05l-4.55,13.15H8.42l-4.55-13.02H3.82v13.02H0v-18.56
		H5.74z"/>
	<path d="M32.85,116.78l6.94,18.56h-4.24l-1.4-4.13h-6.94l-1.46,4.13h-4.11l7.02-18.56H32.85z M33.08,128.17l-2.34-6.81h-0.05
		l-2.42,6.81H33.08z"/>
	<path d="M49.43,116.78c1.2,0,2.31,0.19,3.34,0.57c1.03,0.38,1.92,0.95,2.68,1.71c0.75,0.76,1.34,1.72,1.77,2.86
		c0.42,1.14,0.64,2.49,0.64,4.03c0,1.35-0.17,2.6-0.52,3.74c-0.35,1.14-0.87,2.13-1.57,2.96c-0.7,0.83-1.58,1.49-2.63,1.96
		c-1.05,0.48-2.28,0.71-3.7,0.71h-8v-18.56H49.43z M49.15,131.91c0.59,0,1.16-0.1,1.72-0.29c0.55-0.19,1.05-0.51,1.48-0.95
		c0.43-0.44,0.78-1.02,1.04-1.73c0.26-0.71,0.39-1.58,0.39-2.6c0-0.94-0.09-1.78-0.27-2.53c-0.18-0.75-0.48-1.4-0.9-1.94
		c-0.42-0.54-0.97-0.95-1.65-1.23c-0.68-0.29-1.53-0.43-2.53-0.43h-2.91v11.7H49.15z"/>
	<path d="M74.59,116.78v3.43h-9.8v3.98h8.99v3.17h-8.99v4.55H74.8v3.43H60.71v-18.56H74.59z"/>
	<path d="M90.44,116.78v18.56h-4.08v-18.56H90.44z"/>
	<path d="M98.11,116.78l7.75,12.45h0.05v-12.45h3.82v18.56h-4.08l-7.72-12.42h-0.05v12.42h-3.82v-18.56H98.11z"/>
	<path d="M135.77,133.92c-1.4,1.22-3.34,1.83-5.82,1.83c-2.51,0-4.46-0.61-5.83-1.82c-1.38-1.21-2.07-3.08-2.07-5.61v-11.54h4.08
		v11.54c0,0.5,0.04,1,0.13,1.48c0.09,0.49,0.27,0.91,0.55,1.29c0.28,0.37,0.66,0.68,1.16,0.91c0.49,0.23,1.16,0.35,1.99,0.35
		c1.46,0,2.46-0.32,3.02-0.97c0.55-0.65,0.83-1.67,0.83-3.05v-11.54h4.08v11.54C137.88,130.84,137.18,132.7,135.77,133.92z"/>
	<path d="M144.53,130.77c0.23,0.43,0.52,0.78,0.9,1.05c0.37,0.27,0.81,0.47,1.31,0.6c0.5,0.13,1.02,0.19,1.56,0.19
		c0.36,0,0.75-0.03,1.17-0.09c0.42-0.06,0.81-0.18,1.17-0.35c0.36-0.17,0.67-0.41,0.91-0.71c0.24-0.3,0.36-0.69,0.36-1.16
		c0-0.5-0.16-0.91-0.48-1.22c-0.32-0.31-0.74-0.57-1.26-0.78c-0.52-0.21-1.11-0.39-1.77-0.55c-0.66-0.16-1.33-0.33-2-0.52
		c-0.69-0.17-1.37-0.39-2.03-0.64c-0.66-0.25-1.25-0.58-1.77-0.97c-0.52-0.4-0.94-0.9-1.26-1.49c-0.32-0.6-0.48-1.32-0.48-2.17
		c0-0.95,0.2-1.78,0.61-2.48s0.94-1.29,1.6-1.75c0.66-0.47,1.4-0.81,2.23-1.04c0.83-0.22,1.66-0.34,2.5-0.34
		c0.97,0,1.9,0.11,2.79,0.32c0.89,0.22,1.69,0.57,2.38,1.05c0.69,0.49,1.24,1.1,1.65,1.86c0.41,0.75,0.61,1.67,0.61,2.74h-3.95
		c-0.03-0.55-0.15-1.01-0.35-1.38c-0.2-0.36-0.46-0.65-0.79-0.86c-0.33-0.21-0.71-0.36-1.13-0.44c-0.42-0.09-0.89-0.13-1.39-0.13
		c-0.33,0-0.66,0.03-0.99,0.1c-0.33,0.07-0.63,0.19-0.9,0.36c-0.27,0.17-0.49,0.39-0.66,0.65c-0.17,0.26-0.26,0.59-0.26,0.99
		c0,0.36,0.07,0.66,0.21,0.88c0.14,0.23,0.41,0.43,0.82,0.62c0.41,0.19,0.97,0.38,1.69,0.57c0.72,0.19,1.66,0.43,2.82,0.73
		c0.35,0.07,0.83,0.19,1.44,0.38c0.61,0.18,1.23,0.47,1.83,0.87c0.61,0.4,1.13,0.93,1.57,1.6c0.44,0.67,0.66,1.52,0.66,2.56
		c0,0.85-0.16,1.64-0.49,2.36c-0.33,0.73-0.82,1.36-1.47,1.88c-0.65,0.53-1.45,0.94-2.42,1.23c-0.96,0.29-2.08,0.44-3.34,0.44
		c-1.02,0-2.01-0.13-2.98-0.38c-0.96-0.25-1.81-0.64-2.55-1.18c-0.74-0.54-1.32-1.22-1.75-2.05c-0.43-0.83-0.64-1.82-0.62-2.96h3.95
		C144.19,129.8,144.3,130.33,144.53,130.77z"/>
	<path d="M167.56,116.78l6.94,18.56h-4.24l-1.4-4.13h-6.94l-1.46,4.13h-4.11l7.02-18.56H167.56z M167.79,128.17l-2.34-6.81h-0.05
		l-2.42,6.81H167.79z"/>
</g>
</svg>
