<?xml version="1.0" encoding="utf-8"?>
<!-- Generator: Adobe Illustrator 19.0.0, SVG Export Plug-In . SVG Version: 6.00 Build 0)  -->
<svg version="1.2" baseProfile="tiny" id="Layer_1" xmlns="http://www.w3.org/2000/svg" xmlns:xlink="http://www.w3.org/1999/xlink"
	 x="0px" y="0px" viewBox="0 0 323.56 82.72" xml:space="preserve">
<linearGradient id="SVGID_1_" gradientUnits="userSpaceOnUse" x1="20.6351" y1="71.3415" x2="20.6351" y2="19.3192">
	<stop  offset="0" style="stop-color:#3D72A2"/>
	<stop  offset="0.1903" style="stop-color:#4F82B0"/>
	<stop  offset="0.5532" style="stop-color:#6AA2CC"/>
	<stop  offset="0.8352" style="stop-color:#7CB8E0"/>
	<stop  offset="1" style="stop-color:#82C1EA"/>
</linearGradient>
<path fill="url(#SVGID_1_)" d="M10.77,19.4c0.24,0.03,0.46,0.1,0.65,0.21c0.18,0.1,0.35,0.25,0.5,0.44c0.15,0.19,0.31,0.45,0.47,0.8
	L30.2,56.32c0.03-0.69,0.08-1.38,0.13-2.03c0.05-0.66,0.11-1.27,0.17-1.86l3.54-33.11h7.23l-5.6,51.99l-4.2,0.01
	c-0.63,0-1.16-0.12-1.6-0.35c-0.45-0.24-0.81-0.65-1.11-1.27l-17.7-35.47c-0.04,0.57-0.08,1.13-0.12,1.67
	c-0.04,0.54-0.07,1.06-0.13,1.54l-3.56,33.9l-7.23,0l5.58-52h4.28C10.23,19.35,10.52,19.36,10.77,19.4z"/>
<linearGradient id="SVGID_2_" gradientUnits="userSpaceOnUse" x1="60.1095" y1="71.3066" x2="60.1095" y2="19.276">
	<stop  offset="0" style="stop-color:#3D72A2"/>
	<stop  offset="0.1903" style="stop-color:#4F82B0"/>
	<stop  offset="0.5532" style="stop-color:#6AA2CC"/>
	<stop  offset="0.8352" style="stop-color:#7CB8E0"/>
	<stop  offset="1" style="stop-color:#82C1EA"/>
</linearGradient>
<path fill="url(#SVGID_2_)" d="M80.77,71.26h-6.35c-0.72,0-1.28-0.19-1.71-0.58c-0.43-0.37-0.69-0.89-0.79-1.54l-1.9-10.85
	L53.01,58.3L48.8,69.16c-0.24,0.56-0.62,1.05-1.13,1.48c-0.53,0.43-1.12,0.64-1.77,0.64l-6.44,0.02l22.01-52.03h8.36L80.77,71.26z
	 M55.55,51.72l13.29-0.01l-3.11-17.8c-0.17-0.86-0.34-1.77-0.5-2.73c-0.18-0.97-0.34-2.04-0.49-3.23c-0.39,1.19-0.78,2.31-1.17,3.33
	c-0.39,1.02-0.75,1.91-1.08,2.67L55.55,51.72z"/>
<linearGradient id="SVGID_3_" gradientUnits="userSpaceOnUse" x1="98.1126" y1="71.2372" x2="98.1126" y2="19.2238">
	<stop  offset="0" style="stop-color:#3D72A2"/>
	<stop  offset="0.1903" style="stop-color:#4F82B0"/>
	<stop  offset="0.5532" style="stop-color:#6AA2CC"/>
	<stop  offset="0.8352" style="stop-color:#7CB8E0"/>
	<stop  offset="1" style="stop-color:#82C1EA"/>
</linearGradient>
<path fill="url(#SVGID_3_)" d="M115.13,19.22l-0.83,7.65l-12.5,0.02l-4.76,44.33l-8.14,0.01l4.73-44.34l-12.53,0.03l0.82-7.66
	L115.13,19.22z"/>
<linearGradient id="SVGID_4_" gradientUnits="userSpaceOnUse" x1="135.194" y1="71.7638" x2="135.194" y2="19.1717">
	<stop  offset="0" style="stop-color:#3D72A2"/>
	<stop  offset="0.1903" style="stop-color:#4F82B0"/>
	<stop  offset="0.5532" style="stop-color:#6AA2CC"/>
	<stop  offset="0.8352" style="stop-color:#7CB8E0"/>
	<stop  offset="1" style="stop-color:#82C1EA"/>
</linearGradient>
<path fill="url(#SVGID_4_)" d="M132.19,63.71c1.48,0,2.82-0.32,4.05-0.95c1.23-0.65,2.3-1.54,3.23-2.71
	c0.92-1.16,1.68-2.57,2.28-4.19c0.6-1.62,1.01-3.44,1.21-5.44l3.36-31.26l8.17-0.01l-3.32,31.26c-0.34,3.06-1.04,5.92-2.15,8.52
	c-1.09,2.6-2.49,4.87-4.2,6.76c-1.71,1.91-3.7,3.37-5.99,4.44c-2.29,1.07-4.78,1.61-7.49,1.61c-2.46,0.01-4.64-0.43-6.57-1.3
	c-1.91-0.88-3.53-2.11-4.84-3.68c-1.32-1.57-2.32-3.46-3.01-5.65c-0.69-2.2-1.03-4.61-1.03-7.25c0-1.08,0.06-2.22,0.19-3.4
	l3.28-31.25l8.21-0.02l-3.35,31.22c-0.05,0.45-0.07,0.9-0.1,1.32c-0.02,0.44-0.03,0.84-0.03,1.26c0,1.63,0.18,3.09,0.53,4.42
	c0.34,1.33,0.86,2.44,1.55,3.38c0.68,0.93,1.53,1.66,2.54,2.16C129.73,63.47,130.89,63.71,132.19,63.71z"/>
<linearGradient id="SVGID_5_" gradientUnits="userSpaceOnUse" x1="173.5039" y1="71.1679" x2="173.5039" y2="19.1545">
	<stop  offset="0" style="stop-color:#3D72A2"/>
	<stop  offset="0.1903" style="stop-color:#4F82B0"/>
	<stop  offset="0.5532" style="stop-color:#6AA2CC"/>
	<stop  offset="0.8352" style="stop-color:#7CB8E0"/>
	<stop  offset="1" style="stop-color:#82C1EA"/>
</linearGradient>
<path fill="url(#SVGID_5_)" d="M167.14,50.66l-2.18,20.49l-8.14,0.02l5.54-52l12.96-0.02c2.63,0,4.89,0.31,6.76,0.94
	c1.87,0.63,3.41,1.53,4.6,2.66c1.21,1.14,2.09,2.49,2.66,4.07c0.57,1.59,0.86,3.31,0.86,5.21c0,2.01-0.24,3.9-0.74,5.66
	c-0.49,1.77-1.18,3.38-2.12,4.81c-0.92,1.45-2.06,2.69-3.41,3.78c-1.34,1.09-2.86,1.91-4.57,2.52c0.48,0.34,0.93,0.74,1.32,1.21
	c0.41,0.49,0.75,1.06,1.04,1.74l8.16,19.37h-7.35c-0.69,0-1.28-0.15-1.75-0.49c-0.48-0.32-0.83-0.77-1.06-1.37l-6.7-16.85
	c-0.25-0.63-0.57-1.07-0.93-1.35c-0.37-0.27-0.95-0.41-1.73-0.41H167.14z M169.77,26.35L167.86,44h4.74c1.64,0,3.05-0.27,4.25-0.82
	c1.19-0.55,2.16-1.28,2.93-2.23c0.76-0.94,1.34-2.06,1.72-3.32c0.37-1.27,0.56-2.64,0.56-4.11c-0.01-2.25-0.61-4.01-1.84-5.29
	c-1.22-1.26-3.1-1.9-5.64-1.9L169.77,26.35z"/>
<linearGradient id="SVGID_6_" gradientUnits="userSpaceOnUse" x1="210.9196" y1="71.1214" x2="210.9196" y2="19.0878">
	<stop  offset="0" style="stop-color:#3D72A2"/>
	<stop  offset="0.1903" style="stop-color:#4F82B0"/>
	<stop  offset="0.5532" style="stop-color:#6AA2CC"/>
	<stop  offset="0.8352" style="stop-color:#7CB8E0"/>
	<stop  offset="1" style="stop-color:#82C1EA"/>
</linearGradient>
<path fill="url(#SVGID_6_)" d="M231.57,71.07l-6.34,0.02c-0.71,0-1.28-0.2-1.71-0.59c-0.42-0.38-0.69-0.89-0.78-1.53l-1.9-10.86
	l-17.02,0.01l-4.21,10.86c-0.24,0.54-0.62,1.04-1.14,1.47c-0.53,0.44-1.13,0.66-1.77,0.66h-6.43l22-52.02l8.37-0.01L231.57,71.07z
	 M206.36,51.55l13.28-0.03l-3.1-17.77c-0.16-0.88-0.34-1.79-0.5-2.73c-0.17-0.97-0.33-2.04-0.48-3.24c-0.4,1.2-0.79,2.31-1.18,3.33
	c-0.39,1.02-0.75,1.9-1.08,2.66L206.36,51.55z"/>
<linearGradient id="SVGID_7_" gradientUnits="userSpaceOnUse" x1="248.0127" y1="71.0695" x2="248.0127" y2="19.0532">
	<stop  offset="0" style="stop-color:#3D72A2"/>
	<stop  offset="0.1903" style="stop-color:#4F82B0"/>
	<stop  offset="0.5532" style="stop-color:#6AA2CC"/>
	<stop  offset="0.8352" style="stop-color:#7CB8E0"/>
	<stop  offset="1" style="stop-color:#82C1EA"/>
</linearGradient>
<path fill="url(#SVGID_7_)" d="M244.22,63.33l16.59-0.01l-0.77,7.73l-24.82,0.02l5.57-51.98l8.19-0.03L244.22,63.33z"/>
<linearGradient id="SVGID_8_" gradientUnits="userSpaceOnUse" x1="295.9173" y1="82.7245" x2="295.9173" y2="0.2543">
	<stop  offset="0" style="stop-color:#3D72A2"/>
	<stop  offset="0.1903" style="stop-color:#4F82B0"/>
	<stop  offset="0.5532" style="stop-color:#6AA2CC"/>
	<stop  offset="0.8352" style="stop-color:#7CB8E0"/>
	<stop  offset="1" style="stop-color:#82C1EA"/>
</linearGradient>
<linearGradient id="SVGID_9_" gradientUnits="userSpaceOnUse" x1="268.3991" y1="41.4894" x2="323.4355" y2="41.4894">
	<stop  offset="0" style="stop-color:#3D72A2"/>
	<stop  offset="0.1903" style="stop-color:#4F82B0"/>
	<stop  offset="0.5532" style="stop-color:#6AA2CC"/>
	<stop  offset="0.8352" style="stop-color:#7CB8E0"/>
	<stop  offset="1" style="stop-color:#82C1EA"/>
</linearGradient>
<path fill-rule="evenodd" fill="url(#SVGID_8_)" stroke="url(#SVGID_9_)" stroke-width="0.5" d="M323.19,1.34
	c-0.02,0.1-0.05,0.18-0.05,0.29c-0.05,0.82-0.16,1.64-0.23,2.47c-0.08,0.86-0.19,1.72-0.24,2.59c-0.07,0.68-0.15,1.35-0.22,2.03
	c-0.06,0.68-0.14,1.34-0.2,2.03c-0.07,0.67-0.14,1.35-0.2,2.03c-0.06,0.47-0.09,0.94-0.14,1.42c-0.07,0.69-0.14,1.37-0.2,2.06
	c-0.06,0.47-0.1,0.95-0.16,1.42c-0.06,0.72-0.13,1.44-0.21,2.15c-0.05,0.47-0.1,0.96-0.13,1.46c-0.05,0.49-0.11,0.99-0.16,1.48
	c-0.06,0.48-0.09,0.98-0.14,1.46c-0.04,0.53-0.1,1.06-0.15,1.59c-0.05,0.48-0.1,0.97-0.14,1.45c-0.08,0.72-0.13,1.44-0.21,2.18
	c-0.05,0.49-0.1,0.98-0.13,1.46c-0.05,0.56-0.11,1.12-0.16,1.67c-0.05,0.52-0.1,1.02-0.14,1.53c-0.07,0.78-0.13,1.54-0.21,2.31
	c-0.09,0.8-0.2,1.61-0.3,2.4c-0.18,1.3-0.4,2.58-0.65,3.84c-0.43,2.05-0.95,4.07-1.64,6.05c-0.73,2.08-1.6,4.09-2.73,5.96
	c-0.89,1.49-1.91,2.84-3.12,4.03c-1.43,1.39-3.04,2.47-4.8,3.3c-1.32,0.62-2.71,1.09-4.13,1.41c-1.03,0.23-2.07,0.4-3.12,0.49
	c-1.56,0.16-3.14,0.2-4.71,0.1c-0.55-0.02-1.1-0.04-1.63-0.09c-0.58-0.05-1.13-0.1-1.68-0.16c-0.43-0.04-0.83-0.1-1.25-0.14
	c-0.53-0.08-1.07-0.14-1.6-0.23c-0.71-0.1-1.42-0.23-2.12-0.35c-0.88-0.15-1.74-0.32-2.59-0.48c-0.14-0.03-0.28-0.05-0.39-0.08
	c-0.13,0.09-0.21,0.21-0.31,0.33c-0.45,0.58-0.85,1.21-1.25,1.87c-0.91,1.48-1.71,3.03-2.44,4.62c-1.45,3.12-2.66,6.35-3.74,9.64
	c-0.28,0.89-0.56,1.78-0.82,2.66c-0.08,0.26-0.21,0.43-0.44,0.55c-0.42,0.23-0.86,0.41-1.31,0.5c-0.06,0.01-0.1,0.06-0.17,0.07
	c-0.44,0-0.88,0-1.34,0c-0.05-0.03-0.11-0.06-0.15-0.08c-0.68-0.19-1.24-0.58-1.68-1.19c-0.28-0.38-0.49-0.8-0.67-1.26
	c-0.07-0.17-0.12-0.36-0.19-0.54c-0.02-0.06-0.04-0.12-0.11-0.13c0-0.1,0-0.2,0-0.31c0.08-0.03,0.1-0.11,0.14-0.19
	c0.38-0.98,0.84-1.94,1.31-2.89c1.31-2.6,2.85-5.03,4.53-7.37c1.35-1.85,2.8-3.62,4.34-5.28c0.68-0.72,1.39-1.44,2.08-2.15
	c0.07-0.08,0.14-0.15,0.23-0.23c-0.08-0.14-0.17-0.27-0.25-0.37c-0.58-0.71-1.16-1.43-1.75-2.14c-0.6-0.71-1.16-1.45-1.67-2.23
	c-1.06-1.63-1.77-3.43-2.18-5.37c-0.38-1.79-0.52-3.62-0.4-5.46c0.26-4.26,1.7-8.01,4.26-11.24c0.76-0.93,1.59-1.76,2.48-2.55
	c2.1-1.87,4.32-3.51,6.65-5c2.18-1.38,4.39-2.68,6.64-3.94c2.23-1.26,4.46-2.51,6.68-3.77c2.27-1.27,4.48-2.62,6.64-4.07
	c1.78-1.2,3.52-2.48,5.17-3.87c1.56-1.33,3.02-2.8,4.36-4.37c1.32-1.53,2.53-3.15,3.59-4.89c0.2-0.35,0.42-0.7,0.6-1.06
	c0.11-0.21,0.23-0.39,0.41-0.54c0.13,0,0.24,0,0.36,0c0.1,0.11,0.19,0.22,0.3,0.32C323.19,0.83,323.19,1.08,323.19,1.34z
	 M318.16,40.34c-0.23-0.01-0.43,0-0.65,0.02c-1.02,0.08-2.02,0.15-3.04,0.23c-0.72,0.06-1.46,0.1-2.2,0.16
	c-0.34,0.03-0.68,0.05-1.03,0.07c-0.74,0.05-1.48,0.11-2.2,0.17c-0.74,0.05-1.46,0.1-2.19,0.15c-0.72,0.06-1.43,0.11-2.15,0.16
	c-0.75,0.05-1.49,0.11-2.23,0.16c-1.02,0.07-2.03,0.15-3.05,0.22c-1.03,0.08-2.07,0.14-3.1,0.21c-0.3,0.02-0.6,0.04-0.91,0.07
	c-0.22,0.01-0.44,0.05-0.67,0.06c-0.06,0.08-0.12,0.15-0.19,0.23c-0.75,1.01-1.48,2.01-2.2,3.06c-0.9,1.33-1.72,2.72-2.55,4.11
	c-0.49,0.82-0.97,1.64-1.44,2.44c-0.04,0.07-0.13,0.13-0.08,0.24c0.07,0,0.13,0,0.21,0c0.38-0.02,0.76-0.03,1.13-0.05
	c1.19-0.03,2.35-0.09,3.53-0.12c1.16-0.05,2.35-0.09,3.52-0.13c1.16-0.05,2.34-0.09,3.52-0.13c1.17-0.03,2.35-0.07,3.52-0.12
	c1.17-0.03,2.36-0.09,3.54-0.13c1.16-0.04,2.33-0.08,3.48-0.13c0.48-0.01,0.97-0.02,1.44-0.04c0.95-0.04,1.91-0.08,2.9-0.12
	C316.58,47.71,317.51,44.11,318.16,40.34z M287.65,53.11c-0.07,0.11-0.12,0.19-0.18,0.3c-0.66,1.16-1.32,2.33-1.96,3.51
	c-0.74,1.32-1.45,2.68-2.13,4.07c-0.06,0.1-0.12,0.18-0.12,0.32c0.09,0.02,0.17,0.05,0.26,0.06c1.53,0.28,3.06,0.57,4.6,0.82
	c1.22,0.2,2.45,0.35,3.67,0.49c1.05,0.1,2.12,0.17,3.18,0.22c1.28,0.04,2.56,0.01,3.82-0.1c1.04-0.08,2.09-0.23,3.12-0.45
	c1.4-0.3,2.78-0.74,4.1-1.35c1.64-0.76,3.15-1.75,4.47-3.05c1.08-1.05,2.01-2.23,2.82-3.52c0.41-0.66,0.8-1.33,1.15-2.03
	c0.03-0.08,0.11-0.14,0.05-0.24c-0.11,0-0.22-0.01-0.32,0c-0.71,0.02-1.43,0.06-2.16,0.09c-1.17,0.04-2.35,0.08-3.53,0.13
	c-1.17,0.05-2.35,0.08-3.52,0.12c-1.18,0.05-2.36,0.09-3.54,0.13c-1.16,0.03-2.34,0.08-3.49,0.13c-1.17,0.03-2.34,0.09-3.5,0.12
	c-0.95,0.04-1.9,0.05-2.85,0.1c-1.03,0.03-2.06,0.09-3.07,0.11C288.24,53.1,287.95,53.1,287.65,53.11z M318.32,39.28
	c0.06-0.45,0.13-0.87,0.18-1.3c0.09-0.74,0.19-1.5,0.26-2.25c0.08-0.79,0.15-1.59,0.21-2.37c0.06-0.54,0.11-1.06,0.16-1.59
	c0.04-0.47,0.09-0.94,0.13-1.42c0-0.06,0-0.12,0-0.21c-0.11,0-0.21,0-0.29,0c-0.27,0.03-0.53,0.06-0.82,0.08
	c-0.54,0.06-1.08,0.12-1.64,0.18c-0.48,0.05-0.94,0.1-1.42,0.14c-0.53,0.06-1.08,0.12-1.61,0.18c-0.49,0.05-0.97,0.1-1.46,0.15
	c-0.54,0.05-1.06,0.12-1.59,0.16c-0.47,0.05-0.97,0.1-1.46,0.16c-0.51,0.05-1.02,0.1-1.53,0.16c-0.51,0.05-1.01,0.1-1.52,0.16
	c-0.74,0.07-1.49,0.14-2.23,0.23c-0.13,0.01-0.24,0.05-0.33,0.15c-0.29,0.32-0.54,0.62-0.82,0.92c-1.48,1.65-2.97,3.3-4.41,5.01
	c-0.76,0.91-1.51,1.83-2.27,2.77c-0.08,0.08-0.16,0.17-0.22,0.31c0.13,0,0.24,0.01,0.35,0c0.89-0.06,1.8-0.14,2.72-0.19
	c0.3-0.02,0.62-0.04,0.95-0.07c0.75-0.06,1.52-0.12,2.26-0.17c0.42-0.03,0.83-0.05,1.26-0.09c0.71-0.05,1.44-0.1,2.15-0.16
	c0.76-0.05,1.51-0.1,2.25-0.16c1-0.08,2.01-0.16,3.03-0.23c0.74-0.05,1.47-0.1,2.21-0.14c0.34-0.03,0.68-0.05,1.02-0.08
	c0.75-0.05,1.48-0.12,2.22-0.17c0.73-0.05,1.45-0.1,2.18-0.15C318.24,39.31,318.27,39.29,318.32,39.28z M280.89,34.19
	c-0.04,0.01-0.05,0.01-0.06,0.03c-0.02,0.01-0.03,0.03-0.07,0.05c-1.28,1.43-2.33,3.02-3.13,4.81c-1.07,2.42-1.59,4.98-1.59,7.67
	c0,1.39,0.12,2.77,0.44,4.13c0.34,1.6,0.91,3.09,1.74,4.45c0.57,0.94,1.23,1.81,1.94,2.64c0.42,0.49,0.82,1,1.24,1.5
	c0.33,0.42,0.65,0.83,0.94,1.31c0,0.03,0.02,0.03,0.05,0.05c0.49-0.92,0.93-1.85,1.42-2.77c0.48-0.91,0.97-1.82,1.47-2.74
	c0.5-0.89,1.01-1.78,1.52-2.67C284.83,46.49,282.86,40.34,280.89,34.19z M281.63,33.37c0.08,0.33,5.27,16.66,5.73,17.99
	c0.01,0.05,0.04,0.09,0.07,0.15c0.1-0.08,0.14-0.18,0.2-0.25c0.57-1,1.16-1.98,1.74-2.97c1.24-2.12,2.6-4.16,4.06-6.11
	c0.13-0.17,0.25-0.35,0.38-0.51c0.07-0.08,0.08-0.18,0.05-0.27c-0.01-0.07-0.03-0.11-0.04-0.16c-0.64-2.67-1.28-5.35-1.93-8.02
	c-0.48-2.04-0.98-4.09-1.47-6.13c-0.01-0.06-0.01-0.14-0.1-0.18C287.25,28.77,284.31,30.86,281.63,33.37z M301.31,20.6
	c-0.06,0.04-0.13,0.06-0.2,0.1c-1.95,1.11-3.92,2.19-5.87,3.29c-1.25,0.71-2.5,1.45-3.74,2.19c-0.1,0.06-0.21,0.09-0.26,0.21
	c0.01,0.08,0.02,0.15,0.04,0.23c0.6,2.48,1.2,4.97,1.79,7.45c0.5,2.08,1,4.17,1.5,6.25c0.02,0.07,0.05,0.12,0.1,0.22
	c1.29-1.64,2.61-3.23,3.94-4.78c1.35-1.53,2.71-3.06,4.09-4.59c0-0.07,0-0.13,0-0.19c-0.44-3.44-0.87-6.87-1.32-10.32
	C301.37,20.66,301.35,20.65,301.31,20.6z M320.03,22.01c-0.07,0-0.12,0.01-0.15,0.02c-0.38,0.06-0.73,0.1-1.11,0.16
	c-0.62,0.09-1.23,0.18-1.85,0.28c-0.65,0.09-1.28,0.2-1.92,0.28c-0.66,0.11-1.34,0.2-1.98,0.3c-0.62,0.1-1.24,0.21-1.89,0.28
	c-0.19,0.02-0.32,0.1-0.47,0.25c-1.39,1.7-2.83,3.33-4.28,4.95c-0.56,0.62-1.11,1.25-1.68,1.86c-0.05,0.06-0.11,0.11-0.14,0.22
	c0.06,0,0.12,0,0.15-0.01c0.3-0.02,0.59-0.05,0.88-0.08c0.48-0.05,0.97-0.1,1.44-0.16c0.56-0.05,1.08-0.11,1.64-0.17
	c0.47-0.04,0.96-0.1,1.44-0.14c0.53-0.06,1.05-0.11,1.58-0.17c0.49-0.05,0.98-0.1,1.48-0.16c0.54-0.05,1.08-0.11,1.61-0.16
	c0.48-0.05,0.97-0.1,1.46-0.15c0.52-0.05,1.03-0.1,1.53-0.17c0.49-0.04,0.97-0.09,1.45-0.14c0.04,0,0.09-0.03,0.13-0.04
	C319.44,28.63,320.06,22.27,320.03,22.01z M303.52,30.2c0.14-0.04,0.2-0.14,0.26-0.22c0.82-0.89,1.62-1.78,2.42-2.69
	c1.31-1.46,2.59-2.94,3.84-4.45c0.06-0.06,0.11-0.14,0.17-0.2c-0.05-0.17-0.05-0.32-0.08-0.46c-0.17-1.02-0.33-2.04-0.5-3.06
	c-0.16-1.02-0.32-2.03-0.47-3.05c-0.03-0.06-0.05-0.12-0.08-0.2c-0.11,0.07-0.19,0.13-0.27,0.18c-0.54,0.35-1.08,0.71-1.63,1.07
	c-1.52,0.97-3.08,1.89-4.63,2.78c-0.11,0.07-0.23,0.1-0.3,0.23C302.64,23.46,303.1,26.82,303.52,30.2z M273.72,81.16
	c0.03-0.09,0.04-0.17,0.08-0.26c0.31-0.96,0.6-1.92,0.92-2.88c1.06-3.2,2.26-6.34,3.68-9.39c0.76-1.63,1.57-3.23,2.51-4.73
	c0.3-0.45,0.51-0.95,0.73-1.44c0.01-0.04,0.01-0.08,0.03-0.17c-0.12,0.11-0.18,0.17-0.26,0.23c-0.62,0.66-1.26,1.32-1.88,1.99
	c-2.06,2.24-3.94,4.64-5.62,7.2c-1.29,1.97-2.48,4.02-3.48,6.19c-0.21,0.43-0.38,0.88-0.58,1.32c-0.05,0.11-0.06,0.19-0.02,0.31
	c0.16,0.45,0.35,0.89,0.64,1.26c0.38,0.5,0.87,0.77,1.48,0.82C272.56,81.64,273.14,81.46,273.72,81.16z M321.63,5.91
	c-0.05,0.12,0.67-3.54,0.65-3.44c-0.78,2.01-2.47,7.7-3.5,9.57c-1.45,2.63-3.09,5.13-4.88,7.48c-0.63,0.85-1.28,1.66-1.92,2.48
	c-0.03,0.05-0.1,0.08-0.04,0.18c2.74-0.42,5.47-0.82,8.21-1.23c0.02-0.03,0.05-0.07,0.05-0.09c0.5-4.96,0.98-9.91,1.48-14.88
	C321.66,5.98,321.64,5.97,321.63,5.91z M310.99,21.6c0.01,0.02,0.06,0.03,0.07,0.03c0.05-0.07,0.09-0.13,0.14-0.19
	c1.33-1.65,2.6-3.34,3.8-5.08c1.79-2.61,3.39-5.35,4.7-8.28c2.79-6.16,2.87-7.69,1.33-3.26c0.03-0.08,0.09-0.16,0.05-0.27
	c0,0-0.02,0-0.02,0c-0.06,0.05-0.09,0.09-0.12,0.14c-1.09,1.52-2.28,2.94-3.56,4.29c-1.05,1.13-2.17,2.2-3.34,3.18
	c-1.25,1.04-2.55,2.01-3.87,2.95c-0.09,0.06-0.19,0.09-0.24,0.21c0.08,0.13,0.12,0.28,0.15,0.44c0.07,0.52,0.17,1.05,0.25,1.57
	c0.16,1.04,0.34,2.09,0.51,3.13C310.86,20.86,310.93,21.23,310.99,21.6z"/>
<g id="XMLID_140_">
</g>
<g id="XMLID_141_">
</g>
<g id="XMLID_142_">
</g>
<g id="XMLID_143_">
</g>
<g id="XMLID_144_">
</g>
<g id="XMLID_145_">
</g>
</svg>
