<svg version="1.1" id="Layer_1" xmlns="http://www.w3.org/2000/svg" x="0" y="0" viewBox="64.2 195.7 462.1 176.6" xml:space="preserve"><style type="text/css">.st0{fill:#E53C6C;}</style><path class="st0" d="M82.8 210.4c.2 0 .3.1.6.2.2.1.2.2.5.3.1.2.2.3.3.6L99 240.9c0-.6.1-1.2.1-1.7.1-.6.1-1 .2-1.5l2.9-27.4h6l-4.6 43h-3.5c-.6 0-1-.1-1.4-.2-.3-.2-.6-.6-.9-1L83 222.6c0 .5-.1.9-.1 1.4s-.1.9-.1 1.3l-2.9 28.1h-6l4.6-43h4.3zM140.7 253.4h-5.2c-.6 0-1-.2-1.5-.5-.3-.2-.6-.7-.6-1.3l-1.5-9h-14.1l-3.5 9c-.2.5-.6.9-.9 1.2-.5.3-.9.6-1.5.6h-5.3l18.2-43.1h6.9l9 43.1zm-20.8-16.2h11l-2.5-14.8c-.2-.7-.2-1.5-.5-2.3-.2-.8-.2-1.7-.3-2.7-.3 1-.6 1.9-1 2.7-.3.8-.6 1.5-.9 2.2l-5.8 14.9zM169.1 210.3l-.7 6.4h-10.3l-3.9 36.7h-6.7l3.9-36.7H141l.6-6.4h27.5zM183.3 247.2c1.2 0 2.3-.2 3.4-.8 1-.6 1.9-1.3 2.7-2.3.7-1 1.4-2.2 1.9-3.5.6-1.4.8-2.8 1-4.5l2.8-25.9h6.8l-2.7 25.9c-.2 2.5-.8 4.9-1.8 7.1-.9 2.2-2.1 4-3.5 5.6-1.5 1.5-3.1 2.8-5 3.7-1.9.9-4 1.4-6.1 1.4-2 0-3.8-.3-5.4-1-1.5-.7-2.9-1.7-4-3.1-1-1.3-1.9-2.9-2.5-4.7-.6-1.8-.8-3.8-.8-6 0-.9.1-1.8.2-2.8l2.7-25.9h6.8l-2.8 25.8c-.1.3-.1.7-.1 1v1c0 1.4.2 2.5.5 3.6s.7 2 1.3 2.8c.6.8 1.3 1.4 2.1 1.8.4.5 1.3.8 2.5.8zM212.2 236.3l-1.8 16.9h-6.7l4.6-43H219c2.2 0 4.1.2 5.6.8 1.5.6 2.8 1.3 3.8 2.2 1 .9 1.7 2.1 2.2 3.4.5 1.4.7 2.7.7 4.4s-.2 3.2-.6 4.7c-.3 1.5-1 2.8-1.7 4-.7 1.1-1.7 2.3-2.8 3.1-1 .9-2.3 1.5-3.8 2.1.3.2.8.6 1 1 .3.5.6.9.8 1.5l6.8 16.1h-6c-.6 0-1-.1-1.5-.3-.3-.2-.7-.6-.9-1l-5.6-14.1c-.2-.6-.5-.9-.8-1-.2-.2-.8-.4-1.5-.4.2-.4-2.5-.4-2.5-.4zm2.2-20l-1.6 14.6h3.9c1.4 0 2.5-.2 3.6-.7 1-.5 1.8-1 2.4-1.8.6-.8 1-1.7 1.5-2.7.2-1 .5-2.2.5-3.5 0-1.9-.6-3.4-1.5-4.4-1-1.1-2.5-1.5-4.7-1.5h-4.1zM265.6 253.2h-5.2c-.6 0-1-.2-1.5-.5-.4-.3-.6-.7-.6-1.3l-1.5-9h-14.1l-3.5 9c-.2.5-.6.8-.9 1.2-.5.3-.9.6-1.5.6h-5.3l18.2-43.1h6.9l9 43.1zm-20.9-16.1h11l-2.5-14.7c-.1-.7-.2-1.5-.5-2.3-.1-.8-.2-1.7-.3-2.7-.3 1-.6 1.9-1 2.7s-.6 1.5-.9 2.2l-5.8 14.8zM276 246.8h13.8l-.6 6.5h-20.6l4.6-43h6.8l-4 36.5z"/><path id="XMLID_2_" class="st0" d="M298.9 263.1l-.2-.1c-.6-.2-1.2-.6-1.6-1.2-.2-.4-.5-.7-.6-1.2l-.2-.1-.2-.1v-.9l.2-.2c.3-.8.7-1.6 1-2.3 1-2 2.2-3.9 3.7-6 1.2-1.5 2.3-3 3.5-4.4.4-.5 1.5-1.5 1.5-1.5l-1.3-1.5c-.5-.6-1-1.2-1.4-1.8-.9-1.4-1.5-2.9-1.8-4.5-.3-1.5-.5-3-.3-4.5.2-3.6 1.5-6.7 3.5-9.4.6-.7 1.3-1.5 2.1-2.2 1.6-1.5 3.5-2.8 5.4-4.1 1.6-1 3.4-2.1 5.3-3.1l5.3-3.1c1.9-1 3.6-2.2 5.3-3.2 1.5-1 2.9-2.1 4.1-3.1 1.2-1 2.3-2.2 3.5-3.5 1-1.3 2.1-2.5 2.8-3.8l.1-.2c.1-.2.2-.3.3-.6.1-.2.2-.5.5-.6l.2-.2s.3-.2.7-.1c.4.1.6.6.6.6s.2.6.2 1c0 .5-.1 1-.2 1.5l-.2 1.5c0 .5-.1.9-.1 1.4 0 0-.7 7.2-.8 7.7l-.1 1.2c0 .6-.1 1.2-.2 1.7 0 .3-.1.7-.1 1.2l-.6 6.6c0 .3-.1.8-.1 1.2l-.5 4.4c-.1.5-.2 1.9-.2 1.9-.2 1-.3 2.1-.6 3.1-.3 1.8-.8 3.5-1.4 5-.6 1.9-1.4 3.5-2.3 4.9-.8 1.3-1.6 2.3-2.7 3.4-1.2 1.2-2.5 2.1-4.1 2.8-1 .6-2.3.9-3.5 1.2-.9.2-1.8.3-2.7.3-.8.1-1.6.1-2.5.1h-1.4c-.5 0-.9 0-1.4-.1-.5 0-2.3-.2-2.3-.2s-1-.2-1.4-.2l-1.7-.2-2.1-.3c-.3.6-.6 1-.9 1.5-.6 1-1.3 2.3-1.9 3.6-1 2.3-2 4.8-3 7.7-.2.7-.5 1.5-.6 2.1-.1.3-.3.6-.6.8-.5.2-.8.3-1.3.5l-.2.1c.8-.5-.5-.5-.5-.5zm5.6-13c-1 1.3-2 2.7-2.9 4-1.2 1.8-2 3.4-2.7 4.9-.1.2-.2.5-.2.6l-.2.5c.1.1.2.4.5.6.2.2.5.4.7.5.2 0 .6-.1.8-.2l.1-.2c.2-.6.5-1.4.6-2 .9-2.8 1.9-5.3 3-7.6.1-.7.2-.9.3-1.1zm5-5.3c1 .2 2.1.4 3.1.6 1 .2 1.9.2 2.9.3.8.1 1.7.1 2.5.2h.8c.7 0 1.5 0 2.2-.1l2.4-.3c1.2-.2 2.3-.6 3.1-1 1.3-.6 2.4-1.4 3.5-2.3.8-.8 1.5-1.7 2.2-2.7.2-.2.3-.6.5-.8l-20.2.7c-.6.9-1 1.8-1.5 2.7-.6.9-1 1.7-1.5 2.7zm-3.1-20.2c-.6.9-1.3 1.9-1.7 3-.8 1.8-1.3 3.8-1.3 5.9 0 1.2.1 2.2.3 3.1.2 1.3.7 2.3 1.4 3.5.5.6.9 1.4 1.5 2.1.2.2 1.2 1.5 1.3 1.5 0 0 .5-.9.7-1.3l1.2-2.2 1-1.9-4.4-13.7zm11.8 5.8c-.6.8-1.2 1.5-1.7 2.3-.7 1-1.4 2.2-2 3.2-.2.3-.5.8-.7 1.2 0 0 16.1-.6 16.9-.6.3 0 3.1-.1 3.1-.1.9-2.2 1.6-4.5 2.2-7.4l-17.8 1.4zM308 223c.6 1.8 3.1 9.8 4.1 13l.8-1.5c1-1.7 2.2-3.5 3.2-5l.2-.2-2.5-10.6c-2.2 1.3-4.1 2.7-5.8 4.3zm17.1-.9l-.1.2-.8.9c-1 1.2-2.2 2.3-3.1 3.6-.3.5-.7.9-1 1.4l16.3-1.2.1-.6c.1-.6.2-1.2.2-1.8.1-.6.3-3.7.3-3.7-.1 0-11.3 1.2-11.9 1.2zm-7 5.1c.8-1 1.6-2 2.4-2.9 1-1.2 2.1-2.3 3.1-3.6l-.2-1.9-.7-5.4c-.7.5-4.1 2.3-4.1 2.3-.8.5-1.7 1-2.5 1.5l-.2.2c.3 2 2.2 9.8 2.2 9.8zm14.2-12.1c-.3.1-.7.1-1 .2-1 1.4-2.3 2.7-3.5 4l-.5.5s8.6-.9 9-.9c.2 0 .6-.1.8-.1.1-1 .3-3.2.5-4.4l-5.3.7zm-7.8-2.6c.2 1.4.3 2.7.6 4.1l.2 2.3c.3-.5.8-.9 1.3-1.4 1-1.2 2.1-2.3 3.1-3.6l-.7-4.3-.7.5c-1.3.9-2.6 1.6-3.8 2.4zm14-8.5c-.2.8-.6 1.5-.8 1.9-1 2.1-2.4 4.1-4 6.1-.2.2-.5.6-.7.9l4.7-.7.8-8.2zm-7.1 7.9c.9-1 1.6-2.2 2.3-3.1 1.3-1.9 2.3-3.7 3.2-5.5l-.3.3c-.8.9-1.8 1.8-2.7 2.7-1 .8-2 1.5-3 2.3-.1-.1.5 3.3.5 3.3z"/><g><path class="st0" d="M107.1 266.7l-1 8.1H80.4l-2.3 19.5h20.5l-1 7.8H77.2l-2.4 20h25.8l-1 8.1H64.2l7.5-63.5h35.4zM124.3 267c.4.2.8.6 1.2 1.4l25.1 45.6c.1-.8.1-1.5.2-2.2.1-.7.1-1.4.2-2.1l5.1-43h8.5l-7.6 63.5h-5c-.8 0-1.4-.1-1.9-.4-.5-.3-.9-.7-1.4-1.4l-25-45.6c-.1.7-.1 1.3-.1 1.9 0 .6-.1 1.2-.1 1.7l-5.2 43.8h-8.4l7.5-63.5h5c.9 0 1.5.1 1.9.3zM213.5 266.7l-1 8.1h-25.7l-2.3 19.5H205l-1 7.8h-20.4l-2.4 20H207l-1 8.1h-35.4l7.5-63.5h35.4zM229 304.4l-3.1 25.7h-9.5l7.5-63.5h16.8c3.4 0 6.3.4 8.8 1.1 2.5.7 4.5 1.8 6.1 3.1 1.6 1.4 2.8 3 3.5 4.9.8 1.9 1.1 4 1.1 6.3 0 2.5-.3 4.8-1 7s-1.7 4.2-3 5.9c-1.3 1.8-2.9 3.3-4.8 4.6-1.9 1.3-4 2.3-6.4 2.9 1.1.8 2 1.8 2.7 3.1l12 24.4h-8.6c-1.7 0-2.8-.7-3.4-2.1l-10.2-21.6c-.4-.7-.8-1.3-1.3-1.6-.5-.3-1.3-.5-2.3-.5l-4.9.3zm3.5-29.9l-2.7 22.7h7c2.3 0 4.3-.3 6-1 1.7-.7 3.2-1.6 4.3-2.8 1.1-1.2 2-2.6 2.6-4.3.6-1.6.9-3.4.9-5.3 0-3-.9-5.2-2.7-6.9-1.8-1.6-4.5-2.4-8.1-2.4h-7.3zM292.4 322.9c1.3 0 2.5-.1 3.7-.2s2.2-.3 3.2-.6 2-.6 2.9-1c.9-.4 1.8-.8 2.7-1.3l1.6-13.1h-7.6c-.6 0-1.1-.2-1.4-.5-.3-.4-.5-.8-.4-1.3l.6-5.7H316l-3 24.9c-1.6 1.1-3.2 2.1-4.8 3-1.6.9-3.4 1.6-5.2 2.1s-3.7 1-5.8 1.3c-2 .3-4.2.4-6.5.4-3.7 0-7.1-.7-10.1-2.1-3-1.4-5.7-3.3-7.8-5.8-2.2-2.5-3.8-5.4-5-8.9-1.2-3.4-1.8-7.2-1.8-11.2 0-5.4.8-10.4 2.5-14.9s3.9-8.4 6.9-11.7c2.9-3.3 6.4-5.8 10.4-7.6 4-1.8 8.3-2.7 13-2.7 2.4 0 4.7.2 6.6.7 2 .4 3.8 1 5.4 1.8 1.6.8 3 1.7 4.3 2.7 1.3 1 2.4 2.1 3.5 3.3l-3.1 4.1c-.5.8-1.1 1.2-1.8 1.4-.7.2-1.4 0-2.2-.5-.7-.5-1.5-1-2.3-1.6-.8-.6-1.7-1.1-2.7-1.6-1-.5-2.2-.9-3.6-1.2-1.4-.3-3-.5-4.9-.5-3.3 0-6.3.7-9 2s-5.1 3.2-7 5.6c-2 2.4-3.5 5.4-4.6 8.8s-1.6 7.3-1.6 11.5c0 3.2.4 6 1.2 8.5s1.9 4.6 3.3 6.4c1.4 1.7 3.2 3.1 5.2 4 2.2 1 4.4 1.5 6.9 1.5zM348.2 305.2l-3 25h-9.6l3-25-16-38.5h8.5c.8 0 1.5.2 1.9.6.5.4.8 1 1 1.7l9 23.5c.6 1.9 1.1 3.7 1.4 5.5.4-.9.8-1.8 1.3-2.7.5-.9 1-1.8 1.6-2.8l14.6-23.5c.3-.6.8-1.1 1.3-1.6.6-.5 1.2-.7 2.1-.7h8l-25.1 38.5zM415.5 322.9c1.3 0 2.5-.1 3.7-.2s2.2-.3 3.2-.6 2-.6 2.9-1c.9-.4 1.8-.8 2.7-1.3l1.6-13.1H422c-.6 0-1.1-.2-1.4-.5s-.5-.8-.4-1.3l.6-5.7h18.3l-3 24.9c-1.6 1.1-3.2 2.1-4.8 3-1.6.9-3.4 1.6-5.2 2.1s-3.7 1-5.8 1.3c-2 .3-4.2.4-6.5.4-3.7 0-7.1-.7-10.1-2.1-3-1.4-5.7-3.3-7.8-5.8-2.2-2.5-3.8-5.4-5-8.9-1.2-3.4-1.8-7.2-1.8-11.2 0-5.4.8-10.4 2.5-14.9s3.9-8.4 6.9-11.7c2.9-3.3 6.4-5.8 10.4-7.6 4-1.8 8.3-2.7 13-2.7 2.4 0 4.7.2 6.6.7 2 .4 3.8 1 5.4 1.8 1.6.8 3 1.7 4.3 2.7 1.3 1 2.4 2.1 3.5 3.3l-3.1 4.1c-.5.8-1.1 1.2-1.8 1.4-.7.2-1.4 0-2.2-.5-.7-.5-1.5-1-2.3-1.6s-1.7-1.1-2.7-1.6c-1-.5-2.2-.9-3.6-1.2-1.4-.3-3-.5-4.9-.5-3.3 0-6.3.7-9 2s-5.1 3.2-7 5.6c-2 2.4-3.5 5.4-4.6 8.8-1.1 3.4-1.6 7.3-1.6 11.5 0 3.2.4 6 1.2 8.5s1.9 4.6 3.3 6.4c1.4 1.7 3.2 3.1 5.2 4 2.2 1 4.4 1.5 6.9 1.5zM489.7 266.7l-1 8.1H463l-2.3 19.5h20.5l-1 7.8h-20.4l-2.4 20h25.8l-1 8.1h-35.4l7.5-63.5h35.4zM503.1 321.8h23.2l-1 8.3h-32.8l7.5-63.5h9.6l-6.5 55.2z"/></g><g><path class="st0" d="M64.3 365.9v-25.8h8.9c1.7 0 3.1.2 4.3.5 1.2.3 2.2.8 2.9 1.4s1.3 1.3 1.7 2.2c.4.8.5 1.8.5 2.9 0 .6-.1 1.2-.3 1.7s-.5 1.1-.8 1.5c-.4.5-.8.9-1.4 1.3-.6.4-1.3.7-2.1 1 3.5.8 5.3 2.7 5.3 5.7 0 1.1-.2 2.1-.6 3s-1 1.7-1.8 2.4-1.8 1.2-2.9 1.6c-1.2.4-2.5.6-4 .6h-9.7zm4.8-14.6H73c1.6 0 2.9-.3 3.7-.9s1.3-1.5 1.3-2.8c0-1.3-.4-2.3-1.1-2.9-.8-.6-1.9-.9-3.6-.9h-4.1l-.1 7.5zm0 3.3v7.6H74c.9 0 1.6-.1 2.2-.3.6-.2 1.1-.5 1.5-.9.4-.4.6-.8.8-1.2.2-.5.2-1 .2-1.5 0-.6-.1-1.1-.3-1.5-.2-.4-.5-.8-.8-1.1-.4-.3-.9-.6-1.5-.7-.6-.2-1.3-.2-2.2-.2l-4.8-.2zM105.5 359.9c.3 0 .5.1.7.3l1.9 2c-1 1.3-2.3 2.3-3.9 3-1.5.7-3.4 1-5.5 1-1.9 0-3.6-.3-5.2-1-1.5-.7-2.8-1.6-3.9-2.7s-1.9-2.6-2.5-4.2c-.6-1.6-.9-3.4-.9-5.3s.3-3.7.9-5.3c.6-1.6 1.5-3 2.6-4.2s2.5-2.1 4-2.7c1.6-.6 3.3-1 5.2-1 1.9 0 3.5.3 5 .9 1.5.6 2.7 1.4 3.7 2.4l-1.6 2.2c-.1.1-.2.3-.4.4-.1.1-.4.2-.6.2-.2 0-.4 0-.6-.2s-.4-.2-.6-.4-.5-.3-.8-.5c-.3-.2-.6-.3-1-.5-.4-.1-.8-.3-1.4-.4-.5-.1-1.1-.2-1.8-.2-1.2 0-2.2.2-3.2.6s-1.8 1-2.5 1.8-1.2 1.7-1.6 2.9c-.4 1.1-.6 2.4-.6 3.8s.2 2.7.6 3.9c.4 1.1 1 2.1 1.7 2.9.7.8 1.5 1.4 2.5 1.8s2 .6 3.1.6c.7 0 1.2 0 1.8-.1l1.5-.3c.4-.2.9-.4 1.3-.6.4-.2.8-.5 1.2-.9.1-.1.2-.2.4-.3.2.1.4.1.5.1zM133.5 365.9h-3.7c-.4 0-.8-.1-1-.3s-.5-.5-.6-.8l-1.9-5.3h-10.7l-1.9 5.3c-.1.3-.3.5-.6.7-.3.2-.6.3-1 .3h-3.7l10.1-25.8h4.9l10.1 25.9zm-16.7-9.7h8.2l-3.1-8.6c-.2-.4-.3-.8-.5-1.3s-.3-1.1-.5-1.7c-.2.6-.3 1.2-.5 1.7s-.3 1-.5 1.4l-3.1 8.5z"/><path class="st0" d="M158.2 365.9h-3.7c-.4 0-.8-.1-1-.3s-.5-.5-.6-.8l-1.9-5.3h-10.7l-1.9 5.3c-.1.3-.3.5-.6.7-.3.2-.6.3-1 .3h-3.7l10.1-25.8h4.9l10.1 25.9zm-16.7-9.7h8.2l-3.1-8.6c-.2-.4-.3-.8-.5-1.3s-.3-1.1-.5-1.7c-.2.6-.3 1.2-.5 1.7s-.3 1-.5 1.4l-3.1 8.5zM177.6 345v7.3h6.9v3.3h-6.9v7.3H174v-7.3h-6.9v-3.3h6.9V345h3.6zM204.8 347.4c1.2 0 2.2.2 3.2.6s1.8.9 2.5 1.6c.7.7 1.2 1.6 1.6 2.6.4 1 .6 2.2.6 3.5 0 .7-.1 1.1-.2 1.3s-.4.3-.8.3h-11.3c.1.9.2 1.8.5 2.4.3.7.6 1.2 1 1.7.4.4.9.8 1.5 1 .6.2 1.2.3 2 .3.7 0 1.3-.1 1.8-.2.5-.2 1-.4 1.4-.6s.7-.4 1-.6c.3-.2.6-.2.8-.2.4 0 .6.1.8.4l1.3 1.6c-.5.6-1 1-1.6 1.4-.6.4-1.2.7-1.9.9-.7.2-1.3.4-2 .5-.7.1-1.3.1-2 .1-1.3 0-2.5-.2-3.5-.6-1.1-.4-2-1-2.9-1.9s-1.4-1.8-1.9-3.1c-.5-1.2-.7-2.6-.7-4.2 0-1.2.2-2.4.6-3.5.4-1.1 1-2.1 1.7-2.9.8-.8 1.7-1.5 2.8-1.9 1.1-.3 2.3-.5 3.7-.5zm.1 3.1c-1.3 0-2.3.4-3 1.1-.7.7-1.2 1.8-1.4 3.1h8.3c0-.6-.1-1.1-.2-1.6-.2-.5-.4-.9-.7-1.3-.3-.4-.7-.7-1.2-.9-.6-.3-1.2-.4-1.8-.4zM216 365.9v-18.3h2.7c.6 0 .9.3 1.1.8l.3 1.4c.4-.4.8-.7 1.2-1 .4-.3.8-.6 1.3-.8.5-.2.9-.4 1.5-.5.5-.1 1.1-.2 1.7-.2 1 0 1.9.2 2.7.5s1.4.8 1.9 1.4c.5.6.9 1.3 1.2 2.2.3.9.4 1.8.4 2.8v11.6h-4.4v-11.6c0-1.1-.3-2-.8-2.6s-1.3-.9-2.3-.9c-.8 0-1.5.2-2.1.5-.7.3-1.3.8-1.9 1.4v13.2l-4.5.1zM243.9 347.4c1.2 0 2.2.2 3.2.6s1.8.9 2.5 1.6c.7.7 1.2 1.6 1.6 2.6.4 1 .6 2.2.6 3.5 0 .7-.1 1.1-.2 1.3s-.4.3-.8.3h-11.3c.1.9.2 1.8.5 2.4.3.7.6 1.2 1 1.7.4.4.9.8 1.5 1 .6.2 1.2.3 2 .3.7 0 1.3-.1 1.8-.2.5-.2 1-.4 1.4-.6s.7-.4 1-.6c.3-.2.6-.2.8-.2.4 0 .6.1.8.4l1.3 1.6c-.5.6-1 1-1.6 1.4-.6.4-1.2.7-1.9.9-.7.2-1.3.4-2 .5s-1.3.1-2 .1c-1.3 0-2.5-.2-3.5-.6-1.1-.4-2-1-2.9-1.9s-1.4-1.8-1.9-3.1c-.5-1.2-.7-2.6-.7-4.2 0-1.2.2-2.4.6-3.5.4-1.1 1-2.1 1.7-2.9.8-.8 1.7-1.5 2.8-1.9 1.1-.3 2.3-.5 3.7-.5zm.1 3.1c-1.3 0-2.3.4-3 1.1-.7.7-1.2 1.8-1.4 3.1h8.3c0-.6-.1-1.1-.2-1.6-.2-.5-.4-.9-.7-1.3-.3-.4-.7-.7-1.2-.9-.6-.3-1.2-.4-1.8-.4zM255.1 365.9v-18.3h2.6c.5 0 .8.1.9.2.2.2.3.4.4.9l.2 2.1c.6-1.1 1.3-2 2-2.6s1.7-.9 2.8-.9c.8 0 1.5.2 2 .6l-.3 3.3c-.1.2-.1.4-.3.5-.1.1-.3.1-.5.1s-.4 0-.8-.1-.7-.1-1-.1c-.5 0-.9.1-1.3.2s-.7.3-1 .6c-.3.3-.6.6-.8 1s-.4.8-.7 1.3V366l-4.2-.1zM274.8 347.3c.8 0 1.5.1 2.2.2.7.2 1.3.4 1.9.7h5.3v1.6c0 .5-.3.8-.9 1l-1.6.3c.1.3.2.6.3 1 .1.3.1.7.1 1.1 0 .9-.2 1.7-.5 2.5-.4.7-.9 1.4-1.5 1.9s-1.4.9-2.3 1.2c-.9.3-1.8.4-2.8.4-.7 0-1.4-.1-2-.2-.6.3-.9.7-.9 1.2 0 .4.2.6.5.8.3.2.8.3 1.3.4.6.1 1.2.1 1.9.1s1.4.1 2.2.1 1.5.2 2.2.3 1.3.4 1.9.7c.6.3 1 .8 1.3 1.3.3.6.5 1.3.5 2.1s-.2 1.6-.6 2.4c-.4.8-1 1.4-1.7 2-.8.6-1.7 1.1-2.8 1.4s-2.3.5-3.8.5c-1.4 0-2.6-.1-3.6-.4s-1.9-.6-2.5-1.1c-.7-.4-1.2-1-1.5-1.5s-.5-1.2-.5-1.8c0-.8.3-1.6.8-2.1s1.2-1 2.1-1.4c-.5-.2-.9-.6-1.1-1-.3-.4-.4-1-.4-1.6 0-.3 0-.6.1-.8s.2-.6.4-.9.4-.6.7-.8c.3-.3.7-.5 1.1-.7-.9-.5-1.7-1.2-2.2-2-.5-.8-.8-1.8-.8-2.9 0-.9.2-1.7.5-2.5.4-.7.9-1.4 1.5-1.9s1.4-.9 2.3-1.2c.9-.2 1.9-.4 2.9-.4zm5 19.5c0-.4-.1-.6-.3-.9s-.5-.4-.9-.5-.8-.2-1.3-.3c-.5-.1-1-.1-1.6-.1-.6 0-1.1-.1-1.7-.1-.6 0-1.2-.1-1.7-.1-.5.3-.9.6-1.2 1s-.5.8-.5 1.3c0 .3.1.6.2.9s.4.5.8.7.8.4 1.4.5c.6.1 1.2.2 2 .2s1.5-.1 2.1-.2c.6-.1 1.1-.3 1.5-.5s.7-.5.8-.8c.3-.5.4-.8.4-1.1zm-5-10.4c.5 0 1-.1 1.4-.2.4-.1.7-.4 1-.6.3-.3.5-.6.6-.9.1-.4.2-.8.2-1.2 0-.9-.3-1.6-.8-2.1s-1.4-.8-2.4-.8c-1.1 0-1.9.3-2.4.8s-.8 1.2-.8 2.1c0 .4.1.8.2 1.2s.3.7.6 1c.3.3.6.5 1 .6.4 0 .9.1 1.4.1zM293.6 371c-.1.3-.3.5-.5.7s-.5.2-1 .2h-3.3l3.4-7.3-7.4-16.9h3.9c.3 0 .6.1.8.2.2.2.3.4.4.6l3.9 9.5c.2.7.4 1.3.6 1.9.1-.3.2-.7.3-1 .1-.3.2-.6.4-1l3.7-9.5c.1-.2.3-.4.5-.6.2-.2.5-.2.7-.2h3.5l-9.9 23.4zM323.5 345v7.3h6.9v3.3h-6.9v7.3h-3.6v-7.3H313v-3.3h6.9V345h3.6zM350.7 347.4c1.2 0 2.2.2 3.2.6 1 .4 1.8.9 2.5 1.6.7.7 1.2 1.6 1.6 2.6.4 1 .6 2.2.6 3.5 0 .7-.1 1.1-.2 1.3s-.4.3-.8.3h-11.3c.1.9.2 1.8.5 2.4s.6 1.2 1 1.7.9.8 1.5 1c.6.2 1.2.3 2 .3.7 0 1.3-.1 1.8-.2.5-.2 1-.4 1.4-.6.4-.2.7-.4 1-.6.3-.2.6-.2.8-.2.4 0 .6.1.8.4l1.3 1.6c-.5.6-1 1-1.6 1.4-.6.4-1.2.7-1.9.9-.7.2-1.3.4-2 .5-.7.1-1.3.1-2 .1-1.3 0-2.5-.2-3.5-.6-1.1-.4-2-1-2.9-1.9s-1.4-1.8-1.9-3.1c-.5-1.2-.7-2.6-.7-4.2 0-1.2.2-2.4.6-3.5.4-1.1 1-2.1 1.7-2.9.8-.8 1.7-1.5 2.8-1.9 1.1-.3 2.3-.5 3.7-.5zm0 3.1c-1.3 0-2.3.4-3 1.1s-1.2 1.8-1.4 3.1h8.3c0-.6-.1-1.1-.2-1.6-.2-.5-.4-.9-.7-1.3-.3-.4-.7-.7-1.2-.9-.5-.3-1.1-.4-1.8-.4zM366.4 339.5V366H362v-26.5h4.4zM378.5 347.4c1.2 0 2.2.2 3.2.6 1 .4 1.8.9 2.5 1.6.7.7 1.2 1.6 1.6 2.6.4 1 .6 2.2.6 3.5 0 .7-.1 1.1-.2 1.3s-.4.3-.8.3h-11.3c.1.9.2 1.8.5 2.4s.6 1.2 1 1.7.9.8 1.5 1c.6.2 1.2.3 2 .3s1.3-.1 1.8-.2c.5-.2 1-.4 1.4-.6s.7-.4 1-.6c.3-.2.6-.2.8-.2.4 0 .6.1.8.4l1.3 1.6c-.5.6-1 1-1.6 1.4-.6.4-1.2.7-1.9.9-.7.2-1.3.4-2 .5-.7.1-1.3.1-2 .1-1.3 0-2.5-.2-3.5-.6-1.1-.4-2-1-2.9-1.9-.8-.8-1.4-1.8-1.9-3.1-.5-1.2-.7-2.6-.7-4.2 0-1.2.2-2.4.6-3.5.4-1.1 1-2.1 1.7-2.9.8-.8 1.7-1.5 2.8-1.9 1.2-.3 2.4-.5 3.7-.5zm.1 3.1c-1.3 0-2.3.4-3 1.1-.7.7-1.2 1.8-1.4 3.1h8.3c0-.6-.1-1.1-.2-1.6-.2-.5-.4-.9-.7-1.3-.3-.4-.7-.7-1.2-.9-.5-.3-1.1-.4-1.8-.4zM402.9 351.5c-.1.2-.3.3-.4.4-.1.1-.3.1-.5.1s-.4-.1-.7-.2c-.2-.1-.5-.3-.8-.5-.3-.2-.6-.3-1.1-.5s-.9-.2-1.5-.2c-.8 0-1.4.1-2 .4-.6.3-1.1.7-1.5 1.2-.4.5-.7 1.2-.9 1.9-.2.7-.3 1.6-.3 2.5 0 1 .1 1.8.3 2.6.2.8.5 1.4.9 1.9s.9.9 1.4 1.2c.6.3 1.2.4 1.9.4s1.3-.1 1.7-.3c.4-.2.8-.4 1.1-.6s.6-.4.8-.6.5-.3.7-.3c.4 0 .6.1.8.4l1.3 1.6c-.5.6-1 1-1.6 1.4-.6.4-1.2.7-1.8.9-.6.2-1.2.4-1.9.5-.6.1-1.3.1-1.9.1-1.1 0-2.2-.2-3.2-.6-1-.4-1.9-1-2.6-1.8s-1.3-1.8-1.8-3c-.4-1.2-.6-2.5-.6-4 0-1.3.2-2.6.6-3.7.4-1.1 1-2.1 1.7-3s1.7-1.5 2.8-2 2.4-.7 3.8-.7 2.6.2 3.6.7c1 .4 2 1.1 2.8 1.9l-1.1 1.9zM413.1 366.2c-1.6 0-2.8-.4-3.7-1.3-.8-.9-1.3-2.1-1.3-3.7V351h-1.9c-.2 0-.4-.1-.6-.2s-.2-.4-.2-.7v-1.7l2.9-.5.9-5 .3-.6c.2-.1.4-.2.6-.2h2.3v5.8h4.9v3.1h-4.9v9.9c0 .6.1 1 .4 1.3s.7.5 1.1.5c.3 0 .5 0 .7-.1.2-.1.3-.1.5-.2s.3-.1.4-.2c.1-.1.2-.1.3-.1.1 0 .2 0 .3.1l.3.3 1.3 2.1c-.6.5-1.4.9-2.2 1.2-.7.3-1.6.4-2.4.4zM420.2 365.9v-18.3h2.6c.5 0 .8.1.9.2.2.2.3.4.4.9l.2 2.1c.6-1.1 1.3-2 2-2.6.8-.6 1.7-.9 2.8-.9.8 0 1.5.2 2 .6l-.3 3.3c-.1.2-.1.4-.3.5-.1.1-.3.1-.5.1s-.4 0-.8-.1-.7-.1-1-.1c-.5 0-.9.1-1.3.2s-.7.3-1 .6c-.3.3-.6.6-.8 1s-.4.8-.6 1.3V366l-4.3-.1zM441.1 347.4c1.4 0 2.6.2 3.7.7 1.1.4 2.1 1.1 2.9 1.9.8.8 1.4 1.8 1.8 3 .4 1.2.6 2.5.6 3.9 0 1.5-.2 2.8-.6 3.9-.4 1.2-1 2.2-1.8 3-.8.8-1.7 1.5-2.9 1.9s-2.3.7-3.7.7c-1.4 0-2.6-.2-3.7-.7-1.1-.4-2.1-1.1-2.9-1.9-.8-.8-1.4-1.8-1.8-3-.4-1.2-.6-2.5-.6-3.9s.2-2.7.6-3.9c.4-1.2 1-2.1 1.8-3 .8-.8 1.7-1.4 2.9-1.9 1.1-.5 2.3-.7 3.7-.7zm0 15.4c1.5 0 2.6-.5 3.4-1.5s1.1-2.5 1.1-4.5-.4-3.5-1.1-4.5-1.9-1.5-3.4-1.5-2.7.5-3.4 1.6c-.7 1-1.1 2.5-1.1 4.5s.4 3.5 1.1 4.5 1.8 1.4 3.4 1.4zM457.9 339.5V366h-4.4v-26.5h4.4zM469 371c-.1.3-.3.5-.5.7-.2.2-.5.2-1 .2h-3.3l3.4-7.3-7.4-16.9h3.9c.3 0 .6.1.8.2.2.2.3.4.4.6l3.9 9.5c.2.7.4 1.3.6 1.9.1-.3.2-.7.3-1 .1-.3.2-.6.4-1l3.7-9.5c.1-.2.3-.4.5-.6.2-.2.5-.2.7-.2h3.5L469 371zM487.2 366.2c-1.6 0-2.8-.4-3.7-1.3s-1.3-2.1-1.3-3.7V351h-1.9c-.2 0-.4-.1-.6-.2s-.2-.4-.2-.7v-1.7l2.9-.5.9-5 .3-.6c.2-.1.4-.2.6-.2h2.3v5.8h4.9v3.1h-4.9v9.9c0 .6.1 1 .4 1.3.3.3.7.5 1.1.5.3 0 .5 0 .7-.1.2-.1.3-.1.5-.2s.3-.1.4-.2c.1-.1.2-.1.3-.1.1 0 .2 0 .3.1l.3.3 1.3 2.1c-.6.5-1.4.9-2.2 1.2-.6.3-1.5.4-2.4.4zM502.2 347.4c1.2 0 2.2.2 3.2.6 1 .4 1.8.9 2.5 1.6.7.7 1.2 1.6 1.6 2.6.4 1 .6 2.2.6 3.5 0 .7-.1 1.1-.2 1.3s-.4.3-.8.3h-11.3c.1.9.2 1.8.5 2.4s.6 1.2 1 1.7.9.8 1.5 1c.6.2 1.2.3 2 .3s1.3-.1 1.8-.2c.5-.2 1-.4 1.4-.6s.7-.4 1-.6c.3-.2.6-.2.8-.2.4 0 .6.1.8.4l1.3 1.6c-.5.6-1 1-1.6 1.4-.6.4-1.2.7-1.9.9-.7.2-1.3.4-2 .5-.7.1-1.3.1-2 .1-1.3 0-2.5-.2-3.5-.6-1.1-.4-2-1-2.9-1.9-.8-.8-1.4-1.8-1.9-3.1-.5-1.2-.7-2.6-.7-4.2 0-1.2.2-2.4.6-3.5.4-1.1 1-2.1 1.7-2.9.8-.8 1.7-1.5 2.8-1.9 1.1-.3 2.3-.5 3.7-.5zm.1 3.1c-1.3 0-2.3.4-3 1.1-.7.7-1.2 1.8-1.4 3.1h8.3c0-.6-.1-1.1-.2-1.6-.2-.5-.4-.9-.7-1.3-.3-.4-.7-.7-1.2-.9-.6-.3-1.2-.4-1.8-.4zM524.6 351.2c-.1.2-.2.3-.4.4-.1.1-.3.1-.5.1s-.4-.1-.7-.2c-.2-.1-.5-.3-.8-.4-.3-.1-.7-.3-1.1-.4-.4-.1-.9-.2-1.5-.2-.9 0-1.5.2-2 .6-.5.4-.7.9-.7 1.4 0 .4.1.7.4 1 .3.3.6.5 1 .7s.9.4 1.4.5c.5.2 1.1.3 1.6.5.6.2 1.1.4 1.6.6.5.2 1 .6 1.4.9.4.4.8.8 1 1.3.3.5.4 1.2.4 1.9 0 .9-.2 1.7-.5 2.4s-.8 1.4-1.4 1.9c-.6.5-1.4 1-2.3 1.3-.9.3-2 .5-3.1.5-.6 0-1.2-.1-1.8-.2-.6-.1-1.2-.3-1.7-.5-.6-.2-1.1-.4-1.5-.7-.5-.3-.9-.6-1.2-.9l1-1.7c.1-.2.3-.4.5-.5.2-.1.4-.2.7-.2s.5.1.8.2c.2.2.5.3.8.5.3.2.7.3 1.1.5s1 .2 1.6.2c.5 0 1-.1 1.3-.2.4-.1.7-.3.9-.5.2-.2.4-.4.5-.7.1-.3.2-.5.2-.8 0-.4-.1-.8-.4-1.1s-.6-.5-1-.7c-.4-.2-.9-.4-1.4-.5-.5-.2-1.1-.3-1.7-.5-.6-.2-1.1-.4-1.7-.7-.5-.3-1-.6-1.4-1s-.8-.9-1-1.4c-.3-.6-.4-1.3-.4-2.1 0-.7.1-1.5.4-2.1s.7-1.3 1.3-1.8c.6-.5 1.3-.9 2.2-1.2.9-.3 1.9-.5 3-.5 1.3 0 2.4.2 3.4.6 1 .4 1.9 1 2.6 1.6l-.9 2.1z"/></g></svg>