<?xml version="1.0" encoding="utf-8"?>
<!-- Generator: Adobe Illustrator 19.0.0, SVG Export Plug-In . SVG Version: 6.00 Build 0)  -->
<svg version="1.1" id="Layer_1" xmlns="http://www.w3.org/2000/svg" xmlns:xlink="http://www.w3.org/1999/xlink" x="0px" y="0px"
	 viewBox="64.2 195.7 462.1 176.6" style="enable-background:new 64.2 195.7 462.1 176.6;" xml:space="preserve">
<style type="text/css">
	.st0{fill:#E53C6C;}
</style>
<g id="XMLID_58_">
</g>
<g id="XMLID_59_">
</g>
<g id="XMLID_60_">
</g>
<g id="XMLID_61_">
</g>
<g id="XMLID_62_">
</g>
<g id="XMLID_63_">
</g>
<g>
	<path class="st0" d="M82.8,210.4c0.2,0,0.3,0.1,0.6,0.2c0.2,0.1,0.2,0.2,0.5,0.3c0.1,0.2,0.2,0.3,0.3,0.6l14.8,29.4
		c0-0.6,0.1-1.2,0.1-1.7c0.1-0.6,0.1-1,0.2-1.5l2.9-27.4h6l-4.6,43h-3.5c-0.6,0-1-0.1-1.4-0.2c-0.3-0.2-0.6-0.6-0.9-1L83,222.6
		c0,0.5-0.1,0.9-0.1,1.4s-0.1,0.9-0.1,1.3l-2.9,28.1h-6l4.6-43h3.5C82.3,210.4,82.5,210.4,82.8,210.4z"/>
	<path class="st0" d="M140.7,253.4h-5.2c-0.6,0-1-0.2-1.5-0.5c-0.3-0.2-0.6-0.7-0.6-1.3l-1.5-9h-14.1l-3.5,9
		c-0.2,0.5-0.6,0.9-0.9,1.2c-0.5,0.3-0.9,0.6-1.5,0.6h-5.3l18.2-43.1h6.9L140.7,253.4z M119.9,237.2h11l-2.5-14.8
		c-0.2-0.7-0.2-1.5-0.5-2.3c-0.2-0.8-0.2-1.7-0.3-2.7c-0.3,1-0.6,1.9-1,2.7c-0.3,0.8-0.6,1.5-0.9,2.2L119.9,237.2z"/>
	<path class="st0" d="M169.1,210.3l-0.7,6.4h-10.3l-3.9,36.7h-6.7l3.9-36.7H141l0.6-6.4H169.1z"/>
	<path class="st0" d="M183.3,247.2c1.2,0,2.3-0.2,3.4-0.8c1-0.6,1.9-1.3,2.7-2.3c0.7-1,1.4-2.2,1.9-3.5c0.6-1.4,0.8-2.8,1-4.5
		l2.8-25.9h6.8l-2.7,25.9c-0.2,2.5-0.8,4.9-1.8,7.1c-0.9,2.2-2.1,4-3.5,5.6c-1.5,1.5-3.1,2.8-5,3.7c-1.9,0.9-4,1.4-6.1,1.4
		c-2,0-3.8-0.3-5.4-1c-1.5-0.7-2.9-1.7-4-3.1c-1-1.3-1.9-2.9-2.5-4.7c-0.6-1.8-0.8-3.8-0.8-6c0-0.9,0.1-1.8,0.2-2.8l2.7-25.9h6.8
		l-2.8,25.8c-0.1,0.3-0.1,0.7-0.1,1c0,0.3,0,0.7,0,1c0,1.4,0.2,2.5,0.5,3.6c0.3,1.1,0.7,2,1.3,2.8c0.6,0.8,1.3,1.4,2.1,1.8
		C181.2,246.9,182.1,247.2,183.3,247.2z"/>
	<path class="st0" d="M212.2,236.3l-1.8,16.9h-6.7l4.6-43H219c2.2,0,4.1,0.2,5.6,0.8c1.5,0.6,2.8,1.3,3.8,2.2c1,0.9,1.7,2.1,2.2,3.4
		c0.5,1.4,0.7,2.7,0.7,4.4s-0.2,3.2-0.6,4.7c-0.3,1.5-1,2.8-1.7,4c-0.7,1.1-1.7,2.3-2.8,3.1c-1,0.9-2.3,1.5-3.8,2.1
		c0.3,0.2,0.8,0.6,1,1c0.3,0.5,0.6,0.9,0.8,1.5l6.8,16.1H225c-0.6,0-1-0.1-1.5-0.3c-0.3-0.2-0.7-0.6-0.9-1l-5.6-14.1
		c-0.2-0.6-0.5-0.9-0.8-1c-0.2-0.2-0.8-0.4-1.5-0.4C214.9,236.3,212.2,236.3,212.2,236.3z M214.4,216.3l-1.6,14.6h3.9
		c1.4,0,2.5-0.2,3.6-0.7c1-0.5,1.8-1,2.4-1.8c0.6-0.8,1-1.7,1.5-2.7c0.2-1,0.5-2.2,0.5-3.5c0-1.9-0.6-3.4-1.5-4.4
		c-1-1.1-2.5-1.5-4.7-1.5H214.4L214.4,216.3z"/>
	<path class="st0" d="M265.6,253.2h-5.2c-0.6,0-1-0.2-1.5-0.5c-0.4-0.3-0.6-0.7-0.6-1.3l-1.5-9h-14.1l-3.5,9
		c-0.2,0.5-0.6,0.8-0.9,1.2c-0.5,0.3-0.9,0.6-1.5,0.6h-5.3l18.2-43.1h6.9L265.6,253.2z M244.7,237.1h11l-2.5-14.7
		c-0.1-0.7-0.2-1.5-0.5-2.3c-0.1-0.8-0.2-1.7-0.3-2.7c-0.3,1-0.6,1.9-1,2.7s-0.6,1.5-0.9,2.2L244.7,237.1z"/>
	<path class="st0" d="M276,246.8h13.8l-0.6,6.5h-20.6l4.6-43h6.8L276,246.8z"/>
	<path id="XMLID_2_" class="st0" d="M298.9,263.1l-0.2-0.1c-0.6-0.2-1.2-0.6-1.6-1.2c-0.2-0.4-0.5-0.7-0.6-1.2l-0.2-0.1l-0.2-0.1
		v-0.9l0.2-0.2l0,0c0.3-0.8,0.7-1.6,1-2.3c1-2,2.2-3.9,3.7-6c1.2-1.5,2.3-3,3.5-4.4c0.4-0.5,1.5-1.5,1.5-1.5l-1.3-1.5
		c-0.5-0.6-1-1.2-1.4-1.8c-0.9-1.4-1.5-2.9-1.8-4.5c-0.3-1.5-0.5-3-0.3-4.5c0.2-3.6,1.5-6.7,3.5-9.4c0.6-0.7,1.3-1.5,2.1-2.2
		c1.6-1.5,3.5-2.8,5.4-4.1c1.6-1,3.4-2.1,5.3-3.1l5.3-3.1c1.9-1,3.6-2.2,5.3-3.2c1.5-1,2.9-2.1,4.1-3.1c1.2-1,2.3-2.2,3.5-3.5
		c1-1.3,2.1-2.5,2.8-3.8l0.1-0.2c0.1-0.2,0.2-0.3,0.3-0.6c0.1-0.2,0.2-0.5,0.5-0.6l0.2-0.2c0,0,0.3-0.2,0.7-0.1
		c0.4,0.1,0.6,0.6,0.6,0.6s0.2,0.6,0.2,1c0,0.5-0.1,1-0.2,1.5l-0.2,1.5c0,0.5-0.1,0.9-0.1,1.4c0,0-0.7,7.2-0.8,7.7l-0.1,1.2
		c0,0.6-0.1,1.2-0.2,1.7c0,0.3-0.1,0.7-0.1,1.2l-0.6,6.6c0,0.3-0.1,0.8-0.1,1.2l-0.5,4.4c-0.1,0.5-0.2,1.9-0.2,1.9
		c-0.2,1-0.3,2.1-0.6,3.1c-0.3,1.8-0.8,3.5-1.4,5c-0.6,1.9-1.4,3.5-2.3,4.9c-0.8,1.3-1.6,2.3-2.7,3.4c-1.2,1.2-2.5,2.1-4.1,2.8
		c-1,0.6-2.3,0.9-3.5,1.2c-0.9,0.2-1.8,0.3-2.7,0.3c-0.8,0.1-1.6,0.1-2.5,0.1c-0.5,0-0.9,0-1.4,0c-0.5,0-0.9,0-1.4-0.1
		c-0.5,0-2.3-0.2-2.3-0.2s-1-0.2-1.4-0.2l-1.7-0.2l-2.1-0.3c-0.3,0.6-0.6,1-0.9,1.5c-0.6,1-1.3,2.3-1.9,3.6c-1,2.3-2,4.8-3,7.7
		c-0.2,0.7-0.5,1.5-0.6,2.1c-0.1,0.3-0.3,0.6-0.6,0.8c-0.5,0.2-0.8,0.3-1.3,0.5l-0.2,0.1C300.2,263.1,298.9,263.1,298.9,263.1z
		 M304.5,250.1c-1,1.3-2,2.7-2.9,4c-1.2,1.8-2,3.4-2.7,4.9c-0.1,0.2-0.2,0.5-0.2,0.6l-0.2,0.5c0.1,0.1,0.2,0.4,0.5,0.6
		c0.2,0.2,0.5,0.4,0.7,0.5l0,0c0.2,0,0.6-0.1,0.8-0.2l0.1-0.2c0.2-0.6,0.5-1.4,0.6-2c0.9-2.8,1.9-5.3,3-7.6
		C304.3,250.5,304.4,250.3,304.5,250.1z M309.5,244.8c1,0.2,2.1,0.4,3.1,0.6c1,0.2,1.9,0.2,2.9,0.3c0.8,0.1,1.7,0.1,2.5,0.2
		c0.2,0,0.6,0,0.8,0c0.7,0,1.5,0,2.2-0.1c0.8-0.1,1.6-0.2,2.4-0.3c1.2-0.2,2.3-0.6,3.1-1c1.3-0.6,2.4-1.4,3.5-2.3
		c0.8-0.8,1.5-1.7,2.2-2.7c0.2-0.2,0.3-0.6,0.5-0.8l-20.2,0.7c-0.6,0.9-1,1.8-1.5,2.7C310.4,243,310,243.8,309.5,244.8z
		 M306.4,224.6c-0.6,0.9-1.3,1.9-1.7,3c-0.8,1.8-1.3,3.8-1.3,5.9c0,1.2,0.1,2.2,0.3,3.1c0.2,1.3,0.7,2.3,1.4,3.5
		c0.5,0.6,0.9,1.4,1.5,2.1c0.2,0.2,1.2,1.5,1.3,1.5c0,0,0.5-0.9,0.7-1.3l1.2-2.2l1-1.9L306.4,224.6z M318.2,230.4
		c-0.6,0.8-1.2,1.5-1.7,2.3c-0.7,1-1.4,2.2-2,3.2c-0.2,0.3-0.5,0.8-0.7,1.2c0,0,16.1-0.6,16.9-0.6c0.3,0,3.1-0.1,3.1-0.1
		c0.9-2.2,1.6-4.5,2.2-7.4L318.2,230.4z M308,223c0.6,1.8,3.1,9.8,4.1,13l0.8-1.5c1-1.7,2.2-3.5,3.2-5l0.2-0.2l-2.5-10.6
		C311.6,220,309.7,221.4,308,223z M325.1,222.1l-0.1,0.2l-0.8,0.9c-1,1.2-2.2,2.3-3.1,3.6c-0.3,0.5-0.7,0.9-1,1.4l16.3-1.2l0.1-0.6
		c0.1-0.6,0.2-1.2,0.2-1.8c0.1-0.6,0.3-3.7,0.3-3.7C336.9,220.9,325.7,222.1,325.1,222.1z M318.1,227.2c0.8-1,1.6-2,2.4-2.9
		c1-1.2,2.1-2.3,3.1-3.6l-0.2-1.9l-0.7-5.4c-0.7,0.5-4.1,2.3-4.1,2.3c-0.8,0.5-1.7,1-2.5,1.5l-0.2,0.2
		C316.2,219.4,318.1,227.2,318.1,227.2z M332.3,215.1c-0.3,0.1-0.7,0.1-1,0.2c-1,1.4-2.3,2.7-3.5,4l-0.5,0.5c0,0,8.6-0.9,9-0.9
		c0.2,0,0.6-0.1,0.8-0.1c0.1-1,0.3-3.2,0.5-4.4L332.3,215.1z M324.5,212.5c0.2,1.4,0.3,2.7,0.6,4.1l0.2,2.3c0.3-0.5,0.8-0.9,1.3-1.4
		c1-1.2,2.1-2.3,3.1-3.6l-0.7-4.3l-0.7,0.5C327,211,325.7,211.7,324.5,212.5z M338.5,204c-0.2,0.8-0.6,1.5-0.8,1.9
		c-1,2.1-2.4,4.1-4,6.1c-0.2,0.2-0.5,0.6-0.7,0.9l4.7-0.7L338.5,204z M331.4,211.9c0.9-1,1.6-2.2,2.3-3.1c1.3-1.9,2.3-3.7,3.2-5.5
		c-0.1,0.1-0.2,0.2-0.3,0.3c-0.8,0.9-1.8,1.8-2.7,2.7c-1,0.8-2,1.5-3,2.3C330.8,208.5,331.4,211.9,331.4,211.9z"/>
</g>
<g>
	<path class="st0" d="M107.1,266.7l-1,8.1H80.4l-2.3,19.5h20.5l-1,7.8H77.2l-2.4,20h25.8l-1,8.1H64.2l7.5-63.5L107.1,266.7
		L107.1,266.7z"/>
	<path class="st0" d="M124.3,267c0.4,0.2,0.8,0.6,1.2,1.4l25.1,45.6c0.1-0.8,0.1-1.5,0.2-2.2c0.1-0.7,0.1-1.4,0.2-2.1l5.1-43h8.5
		l-7.6,63.5H152c-0.8,0-1.4-0.1-1.9-0.4c-0.5-0.3-0.9-0.7-1.4-1.4l-25-45.6c-0.1,0.7-0.1,1.3-0.1,1.9c0,0.6-0.1,1.2-0.1,1.7
		l-5.2,43.8h-8.4l7.5-63.5h5C123.3,266.7,123.9,266.8,124.3,267z"/>
	<path class="st0" d="M213.5,266.7l-1,8.1h-25.7l-2.3,19.5h20.5l-1,7.8h-20.4l-2.4,20H207l-1,8.1h-35.4l7.5-63.5L213.5,266.7
		L213.5,266.7z"/>
	<path class="st0" d="M229,304.4l-3.1,25.7h-9.5l7.5-63.5h16.8c3.4,0,6.3,0.4,8.8,1.1c2.5,0.7,4.5,1.8,6.1,3.1
		c1.6,1.4,2.8,3,3.5,4.9c0.8,1.9,1.1,4,1.1,6.3c0,2.5-0.3,4.8-1,7c-0.7,2.2-1.7,4.2-3,5.9c-1.3,1.8-2.9,3.3-4.8,4.6
		c-1.9,1.3-4,2.3-6.4,2.9c1.1,0.8,2,1.8,2.7,3.1l12,24.4h-8.6c-1.7,0-2.8-0.7-3.4-2.1l-10.2-21.6c-0.4-0.7-0.8-1.3-1.3-1.6
		c-0.5-0.3-1.3-0.5-2.3-0.5L229,304.4L229,304.4z M232.5,274.5l-2.7,22.7h7c2.3,0,4.3-0.3,6-1c1.7-0.7,3.2-1.6,4.3-2.8
		c1.1-1.2,2-2.6,2.6-4.3c0.6-1.6,0.9-3.4,0.9-5.3c0-3-0.9-5.2-2.7-6.9c-1.8-1.6-4.5-2.4-8.1-2.4L232.5,274.5L232.5,274.5z"/>
	<path class="st0" d="M292.4,322.9c1.3,0,2.5-0.1,3.7-0.2s2.2-0.3,3.2-0.6c1-0.3,2-0.6,2.9-1c0.9-0.4,1.8-0.8,2.7-1.3l1.6-13.1h-7.6
		c-0.6,0-1.1-0.2-1.4-0.5c-0.3-0.4-0.5-0.8-0.4-1.3l0.6-5.7h18.3l-3,24.9c-1.6,1.1-3.2,2.1-4.8,3c-1.6,0.9-3.4,1.6-5.2,2.1
		s-3.7,1-5.8,1.3c-2,0.3-4.2,0.4-6.5,0.4c-3.7,0-7.1-0.7-10.1-2.1c-3-1.4-5.7-3.3-7.8-5.8c-2.2-2.5-3.8-5.4-5-8.9
		c-1.2-3.4-1.8-7.2-1.8-11.2c0-5.4,0.8-10.4,2.5-14.9c1.7-4.5,3.9-8.4,6.9-11.7c2.9-3.3,6.4-5.8,10.4-7.6c4-1.8,8.3-2.7,13-2.7
		c2.4,0,4.7,0.2,6.6,0.7c2,0.4,3.8,1,5.4,1.8c1.6,0.8,3,1.7,4.3,2.7c1.3,1,2.4,2.1,3.5,3.3l-3.1,4.1c-0.5,0.8-1.1,1.2-1.8,1.4
		c-0.7,0.2-1.4,0-2.2-0.5c-0.7-0.5-1.5-1-2.3-1.6c-0.8-0.6-1.7-1.1-2.7-1.6c-1-0.5-2.2-0.9-3.6-1.2c-1.4-0.3-3-0.5-4.9-0.5
		c-3.3,0-6.3,0.7-9,2c-2.7,1.3-5.1,3.2-7,5.6c-2,2.4-3.5,5.4-4.6,8.8s-1.6,7.3-1.6,11.5c0,3.2,0.4,6,1.2,8.5s1.9,4.6,3.3,6.4
		c1.4,1.7,3.2,3.1,5.2,4C287.7,322.4,289.9,322.9,292.4,322.9z"/>
	<path class="st0" d="M348.2,305.2l-3,25h-9.6l3-25l-16-38.5h8.5c0.8,0,1.5,0.2,1.9,0.6c0.5,0.4,0.8,1,1,1.7l9,23.5
		c0.6,1.9,1.1,3.7,1.4,5.5c0.4-0.9,0.8-1.8,1.3-2.7c0.5-0.9,1-1.8,1.6-2.8l14.6-23.5c0.3-0.6,0.8-1.1,1.3-1.6
		c0.6-0.5,1.2-0.7,2.1-0.7h8L348.2,305.2z"/>
	<path class="st0" d="M415.5,322.9c1.3,0,2.5-0.1,3.7-0.2s2.2-0.3,3.2-0.6c1-0.3,2-0.6,2.9-1c0.9-0.4,1.8-0.8,2.7-1.3l1.6-13.1H422
		c-0.6,0-1.1-0.2-1.4-0.5s-0.5-0.8-0.4-1.3l0.6-5.7h18.3l-3,24.9c-1.6,1.1-3.2,2.1-4.8,3c-1.6,0.9-3.4,1.6-5.2,2.1s-3.7,1-5.8,1.3
		c-2,0.3-4.2,0.4-6.5,0.4c-3.7,0-7.1-0.7-10.1-2.1c-3-1.4-5.7-3.3-7.8-5.8c-2.2-2.5-3.8-5.4-5-8.9c-1.2-3.4-1.8-7.2-1.8-11.2
		c0-5.4,0.8-10.4,2.5-14.9c1.7-4.5,3.9-8.4,6.9-11.7c2.9-3.3,6.4-5.8,10.4-7.6c4-1.8,8.3-2.7,13-2.7c2.4,0,4.7,0.2,6.6,0.7
		c2,0.4,3.8,1,5.4,1.8c1.6,0.8,3,1.7,4.3,2.7c1.3,1,2.4,2.1,3.5,3.3l-3.1,4.1c-0.5,0.8-1.1,1.2-1.8,1.4c-0.7,0.2-1.4,0-2.2-0.5
		c-0.7-0.5-1.5-1-2.3-1.6s-1.7-1.1-2.7-1.6c-1-0.5-2.2-0.9-3.6-1.2c-1.4-0.3-3-0.5-4.9-0.5c-3.3,0-6.3,0.7-9,2
		c-2.7,1.3-5.1,3.2-7,5.6c-2,2.4-3.5,5.4-4.6,8.8c-1.1,3.4-1.6,7.3-1.6,11.5c0,3.2,0.4,6,1.2,8.5s1.9,4.6,3.3,6.4
		c1.4,1.7,3.2,3.1,5.2,4C410.8,322.4,413,322.9,415.5,322.9z"/>
	<path class="st0" d="M489.7,266.7l-1,8.1h-25.7l-2.3,19.5h20.5l-1,7.8h-20.4l-2.4,20h25.8l-1,8.1h-35.4l7.5-63.5L489.7,266.7
		L489.7,266.7z"/>
	<path class="st0" d="M503.1,321.8h23.2l-1,8.3h-32.8l7.5-63.5h9.6L503.1,321.8z"/>
</g>
<g>
	<path class="st0" d="M64.3,365.9v-25.8h8.9c1.7,0,3.1,0.2,4.3,0.5c1.2,0.3,2.2,0.8,2.9,1.4s1.3,1.3,1.7,2.2
		c0.4,0.8,0.5,1.8,0.5,2.9c0,0.6-0.1,1.2-0.3,1.7s-0.5,1.1-0.8,1.5c-0.4,0.5-0.8,0.9-1.4,1.3c-0.6,0.4-1.3,0.7-2.1,1
		c3.5,0.8,5.3,2.7,5.3,5.7c0,1.1-0.2,2.1-0.6,3s-1,1.7-1.8,2.4c-0.8,0.7-1.8,1.2-2.9,1.6c-1.2,0.4-2.5,0.6-4,0.6L64.3,365.9
		L64.3,365.9z M69.1,351.3H73c1.6,0,2.9-0.3,3.7-0.9s1.3-1.5,1.3-2.8c0-1.3-0.4-2.3-1.1-2.9c-0.8-0.6-1.9-0.9-3.6-0.9h-4.1
		L69.1,351.3L69.1,351.3z M69.1,354.6v7.6H74c0.9,0,1.6-0.1,2.2-0.3c0.6-0.2,1.1-0.5,1.5-0.9c0.4-0.4,0.6-0.8,0.8-1.2
		c0.2-0.5,0.2-1,0.2-1.5c0-0.6-0.1-1.1-0.3-1.5c-0.2-0.4-0.5-0.8-0.8-1.1c-0.4-0.3-0.9-0.6-1.5-0.7c-0.6-0.2-1.3-0.2-2.2-0.2
		L69.1,354.6L69.1,354.6z"/>
	<path class="st0" d="M105.5,359.9c0.3,0,0.5,0.1,0.7,0.3l1.9,2c-1,1.3-2.3,2.3-3.9,3c-1.5,0.7-3.4,1-5.5,1c-1.9,0-3.6-0.3-5.2-1
		c-1.5-0.7-2.8-1.6-3.9-2.7s-1.9-2.6-2.5-4.2c-0.6-1.6-0.9-3.4-0.9-5.3c0-1.9,0.3-3.7,0.9-5.3c0.6-1.6,1.5-3,2.6-4.2s2.5-2.1,4-2.7
		c1.6-0.6,3.3-1,5.2-1c1.9,0,3.5,0.3,5,0.9c1.5,0.6,2.7,1.4,3.7,2.4l-1.6,2.2c-0.1,0.1-0.2,0.3-0.4,0.4c-0.1,0.1-0.4,0.2-0.6,0.2
		c-0.2,0-0.4,0-0.6-0.2s-0.4-0.2-0.6-0.4s-0.5-0.3-0.8-0.5c-0.3-0.2-0.6-0.3-1-0.5c-0.4-0.1-0.8-0.3-1.4-0.4
		c-0.5-0.1-1.1-0.2-1.8-0.2c-1.2,0-2.2,0.2-3.2,0.6s-1.8,1-2.5,1.8s-1.2,1.7-1.6,2.9c-0.4,1.1-0.6,2.4-0.6,3.8
		c0,1.4,0.2,2.7,0.6,3.9c0.4,1.1,1,2.1,1.7,2.9c0.7,0.8,1.5,1.4,2.5,1.8s2,0.6,3.1,0.6c0.7,0,1.2,0,1.8-0.1c0.5-0.1,1-0.2,1.5-0.3
		c0.4-0.2,0.9-0.4,1.3-0.6c0.4-0.2,0.8-0.5,1.2-0.9c0.1-0.1,0.2-0.2,0.4-0.3C105.2,359.9,105.4,359.9,105.5,359.9z"/>
	<path class="st0" d="M133.5,365.9h-3.7c-0.4,0-0.8-0.1-1-0.3s-0.5-0.5-0.6-0.8l-1.9-5.3h-10.7l-1.9,5.3c-0.1,0.3-0.3,0.5-0.6,0.7
		c-0.3,0.2-0.6,0.3-1,0.3h-3.7l10.1-25.8h4.9L133.5,365.9z M116.8,356.2h8.2l-3.1-8.6c-0.2-0.4-0.3-0.8-0.5-1.3
		c-0.2-0.5-0.3-1.1-0.5-1.7c-0.2,0.6-0.3,1.2-0.5,1.7c-0.2,0.5-0.3,1-0.5,1.4L116.8,356.2z"/>
	<path class="st0" d="M158.2,365.9h-3.7c-0.4,0-0.8-0.1-1-0.3s-0.5-0.5-0.6-0.8l-1.9-5.3h-10.7l-1.9,5.3c-0.1,0.3-0.3,0.5-0.6,0.7
		c-0.3,0.2-0.6,0.3-1,0.3h-3.7l10.1-25.8h4.9L158.2,365.9z M141.5,356.2h8.2l-3.1-8.6c-0.2-0.4-0.3-0.8-0.5-1.3
		c-0.2-0.5-0.3-1.1-0.5-1.7c-0.2,0.6-0.3,1.2-0.5,1.7c-0.2,0.5-0.3,1-0.5,1.4L141.5,356.2z"/>
	<path class="st0" d="M177.6,345v7.3h6.9v3.3h-6.9v7.3H174v-7.3h-6.9v-3.3h6.9V345H177.6z"/>
	<path class="st0" d="M204.8,347.4c1.2,0,2.2,0.2,3.2,0.6s1.8,0.9,2.5,1.6c0.7,0.7,1.2,1.6,1.6,2.6c0.4,1,0.6,2.2,0.6,3.5
		c0,0.7-0.1,1.1-0.2,1.3s-0.4,0.3-0.8,0.3h-11.3c0.1,0.9,0.2,1.8,0.5,2.4c0.3,0.7,0.6,1.2,1,1.7c0.4,0.4,0.9,0.8,1.5,1
		c0.6,0.2,1.2,0.3,2,0.3c0.7,0,1.3-0.1,1.8-0.2c0.5-0.2,1-0.4,1.4-0.6s0.7-0.4,1-0.6c0.3-0.2,0.6-0.2,0.8-0.2c0.4,0,0.6,0.1,0.8,0.4
		l1.3,1.6c-0.5,0.6-1,1-1.6,1.4c-0.6,0.4-1.2,0.7-1.9,0.9c-0.7,0.2-1.3,0.4-2,0.5c-0.7,0.1-1.3,0.1-2,0.1c-1.3,0-2.5-0.2-3.5-0.6
		c-1.1-0.4-2-1-2.9-1.9s-1.4-1.8-1.9-3.1c-0.5-1.2-0.7-2.6-0.7-4.2c0-1.2,0.2-2.4,0.6-3.5c0.4-1.1,1-2.1,1.7-2.9
		c0.8-0.8,1.7-1.5,2.8-1.9C202.2,347.6,203.4,347.4,204.8,347.4z M204.9,350.5c-1.3,0-2.3,0.4-3,1.1c-0.7,0.7-1.2,1.8-1.4,3.1h8.3
		c0-0.6-0.1-1.1-0.2-1.6c-0.2-0.5-0.4-0.9-0.7-1.3c-0.3-0.4-0.7-0.7-1.2-0.9C206.1,350.6,205.5,350.5,204.9,350.5z"/>
	<path class="st0" d="M216,365.9v-18.3h2.7c0.6,0,0.9,0.3,1.1,0.8l0.3,1.4c0.4-0.4,0.8-0.7,1.2-1c0.4-0.3,0.8-0.6,1.3-0.8
		c0.5-0.2,0.9-0.4,1.5-0.5c0.5-0.1,1.1-0.2,1.7-0.2c1,0,1.9,0.2,2.7,0.5s1.4,0.8,1.9,1.4c0.5,0.6,0.9,1.3,1.2,2.2
		c0.3,0.9,0.4,1.8,0.4,2.8v11.6h-4.4v-11.6c0-1.1-0.3-2-0.8-2.6s-1.3-0.9-2.3-0.9c-0.8,0-1.5,0.2-2.1,0.5c-0.7,0.3-1.3,0.8-1.9,1.4
		v13.2L216,365.9L216,365.9z"/>
	<path class="st0" d="M243.9,347.4c1.2,0,2.2,0.2,3.2,0.6s1.8,0.9,2.5,1.6c0.7,0.7,1.2,1.6,1.6,2.6c0.4,1,0.6,2.2,0.6,3.5
		c0,0.7-0.1,1.1-0.2,1.3s-0.4,0.3-0.8,0.3h-11.3c0.1,0.9,0.2,1.8,0.5,2.4c0.3,0.7,0.6,1.2,1,1.7c0.4,0.4,0.9,0.8,1.5,1
		c0.6,0.2,1.2,0.3,2,0.3c0.7,0,1.3-0.1,1.8-0.2c0.5-0.2,1-0.4,1.4-0.6s0.7-0.4,1-0.6c0.3-0.2,0.6-0.2,0.8-0.2c0.4,0,0.6,0.1,0.8,0.4
		l1.3,1.6c-0.5,0.6-1,1-1.6,1.4c-0.6,0.4-1.2,0.7-1.9,0.9c-0.7,0.2-1.3,0.4-2,0.5s-1.3,0.1-2,0.1c-1.3,0-2.5-0.2-3.5-0.6
		c-1.1-0.4-2-1-2.9-1.9s-1.4-1.8-1.9-3.1c-0.5-1.2-0.7-2.6-0.7-4.2c0-1.2,0.2-2.4,0.6-3.5c0.4-1.1,1-2.1,1.7-2.9
		c0.8-0.8,1.7-1.5,2.8-1.9C241.3,347.6,242.5,347.4,243.9,347.4z M244,350.5c-1.3,0-2.3,0.4-3,1.1c-0.7,0.7-1.2,1.8-1.4,3.1h8.3
		c0-0.6-0.1-1.1-0.2-1.6c-0.2-0.5-0.4-0.9-0.7-1.3c-0.3-0.4-0.7-0.7-1.2-0.9C245.2,350.6,244.6,350.5,244,350.5z"/>
	<path class="st0" d="M255.1,365.9v-18.3h2.6c0.5,0,0.8,0.1,0.9,0.2c0.2,0.2,0.3,0.4,0.4,0.9l0.2,2.1c0.6-1.1,1.3-2,2-2.6
		s1.7-0.9,2.8-0.9c0.8,0,1.5,0.2,2,0.6l-0.3,3.3c-0.1,0.2-0.1,0.4-0.3,0.5c-0.1,0.1-0.3,0.1-0.5,0.1c-0.2,0-0.4,0-0.8-0.1
		s-0.7-0.1-1-0.1c-0.5,0-0.9,0.1-1.3,0.2c-0.4,0.1-0.7,0.3-1,0.6c-0.3,0.3-0.6,0.6-0.8,1s-0.4,0.8-0.7,1.3v11.3L255.1,365.9
		L255.1,365.9z"/>
	<path class="st0" d="M274.8,347.3c0.8,0,1.5,0.1,2.2,0.2c0.7,0.2,1.3,0.4,1.9,0.7h5.3v1.6c0,0.5-0.3,0.8-0.9,1l-1.6,0.3
		c0.1,0.3,0.2,0.6,0.3,1c0.1,0.3,0.1,0.7,0.1,1.1c0,0.9-0.2,1.7-0.5,2.5c-0.4,0.7-0.9,1.4-1.5,1.9c-0.6,0.5-1.4,0.9-2.3,1.2
		c-0.9,0.3-1.8,0.4-2.8,0.4c-0.7,0-1.4-0.1-2-0.2c-0.6,0.3-0.9,0.7-0.9,1.2c0,0.4,0.2,0.6,0.5,0.8c0.3,0.2,0.8,0.3,1.3,0.4
		c0.6,0.1,1.2,0.1,1.9,0.1c0.7,0,1.4,0.1,2.2,0.1s1.5,0.2,2.2,0.3s1.3,0.4,1.9,0.7c0.6,0.3,1,0.8,1.3,1.3c0.3,0.6,0.5,1.3,0.5,2.1
		c0,0.8-0.2,1.6-0.6,2.4c-0.4,0.8-1,1.4-1.7,2c-0.8,0.6-1.7,1.1-2.8,1.4s-2.3,0.5-3.8,0.5c-1.4,0-2.6-0.1-3.6-0.4s-1.9-0.6-2.5-1.1
		c-0.7-0.4-1.2-1-1.5-1.5s-0.5-1.2-0.5-1.8c0-0.8,0.3-1.6,0.8-2.1s1.2-1,2.1-1.4c-0.5-0.2-0.9-0.6-1.1-1c-0.3-0.4-0.4-1-0.4-1.6
		c0-0.3,0-0.6,0.1-0.8s0.2-0.6,0.4-0.9s0.4-0.6,0.7-0.8c0.3-0.3,0.7-0.5,1.1-0.7c-0.9-0.5-1.7-1.2-2.2-2c-0.5-0.8-0.8-1.8-0.8-2.9
		c0-0.9,0.2-1.7,0.5-2.5c0.4-0.7,0.9-1.4,1.5-1.9c0.6-0.5,1.4-0.9,2.3-1.2C272.8,347.5,273.8,347.3,274.8,347.3z M279.8,366.8
		c0-0.4-0.1-0.6-0.3-0.9s-0.5-0.4-0.9-0.5s-0.8-0.2-1.3-0.3c-0.5-0.1-1-0.1-1.6-0.1c-0.6,0-1.1-0.1-1.7-0.1c-0.6,0-1.2-0.1-1.7-0.1
		c-0.5,0.3-0.9,0.6-1.2,1s-0.5,0.8-0.5,1.3c0,0.3,0.1,0.6,0.2,0.9s0.4,0.5,0.8,0.7s0.8,0.4,1.4,0.5c0.6,0.1,1.2,0.2,2,0.2
		c0.8,0,1.5-0.1,2.1-0.2c0.6-0.1,1.1-0.3,1.5-0.5s0.7-0.5,0.8-0.8C279.7,367.4,279.8,367.1,279.8,366.8z M274.8,356.4
		c0.5,0,1-0.1,1.4-0.2c0.4-0.1,0.7-0.4,1-0.6c0.3-0.3,0.5-0.6,0.6-0.9c0.1-0.4,0.2-0.8,0.2-1.2c0-0.9-0.3-1.6-0.8-2.1
		c-0.5-0.5-1.4-0.8-2.4-0.8c-1.1,0-1.9,0.3-2.4,0.8c-0.5,0.5-0.8,1.2-0.8,2.1c0,0.4,0.1,0.8,0.2,1.2s0.3,0.7,0.6,1
		c0.3,0.3,0.6,0.5,1,0.6C273.8,356.3,274.3,356.4,274.8,356.4z"/>
	<path class="st0" d="M293.6,371c-0.1,0.3-0.3,0.5-0.5,0.7s-0.5,0.2-1,0.2h-3.3l3.4-7.3l-7.4-16.9h3.9c0.3,0,0.6,0.1,0.8,0.2
		c0.2,0.2,0.3,0.4,0.4,0.6l3.9,9.5c0.2,0.7,0.4,1.3,0.6,1.9c0.1-0.3,0.2-0.7,0.3-1c0.1-0.3,0.2-0.6,0.4-1l3.7-9.5
		c0.1-0.2,0.3-0.4,0.5-0.6c0.2-0.2,0.5-0.2,0.7-0.2h3.5L293.6,371z"/>
	<path class="st0" d="M323.5,345v7.3h6.9v3.3h-6.9v7.3h-3.6v-7.3H313v-3.3h6.9V345H323.5z"/>
	<path class="st0" d="M350.7,347.4c1.2,0,2.2,0.2,3.2,0.6c1,0.4,1.8,0.9,2.5,1.6c0.7,0.7,1.2,1.6,1.6,2.6c0.4,1,0.6,2.2,0.6,3.5
		c0,0.7-0.1,1.1-0.2,1.3s-0.4,0.3-0.8,0.3h-11.3c0.1,0.9,0.2,1.8,0.5,2.4s0.6,1.2,1,1.7s0.9,0.8,1.5,1c0.6,0.2,1.2,0.3,2,0.3
		c0.7,0,1.3-0.1,1.8-0.2c0.5-0.2,1-0.4,1.4-0.6c0.4-0.2,0.7-0.4,1-0.6c0.3-0.2,0.6-0.2,0.8-0.2c0.4,0,0.6,0.1,0.8,0.4l1.3,1.6
		c-0.5,0.6-1,1-1.6,1.4c-0.6,0.4-1.2,0.7-1.9,0.9c-0.7,0.2-1.3,0.4-2,0.5c-0.7,0.1-1.3,0.1-2,0.1c-1.3,0-2.5-0.2-3.5-0.6
		c-1.1-0.4-2-1-2.9-1.9s-1.4-1.8-1.9-3.1c-0.5-1.2-0.7-2.6-0.7-4.2c0-1.2,0.2-2.4,0.6-3.5c0.4-1.1,1-2.1,1.7-2.9
		c0.8-0.8,1.7-1.5,2.8-1.9C348.1,347.6,349.3,347.4,350.7,347.4z M350.7,350.5c-1.3,0-2.3,0.4-3,1.1s-1.2,1.8-1.4,3.1h8.3
		c0-0.6-0.1-1.1-0.2-1.6c-0.2-0.5-0.4-0.9-0.7-1.3c-0.3-0.4-0.7-0.7-1.2-0.9C352,350.6,351.4,350.5,350.7,350.5z"/>
	<path class="st0" d="M366.4,339.5v26.5H362v-26.5H366.4z"/>
	<path class="st0" d="M378.5,347.4c1.2,0,2.2,0.2,3.2,0.6c1,0.4,1.8,0.9,2.5,1.6c0.7,0.7,1.2,1.6,1.6,2.6c0.4,1,0.6,2.2,0.6,3.5
		c0,0.7-0.1,1.1-0.2,1.3s-0.4,0.3-0.8,0.3h-11.3c0.1,0.9,0.2,1.8,0.5,2.4s0.6,1.2,1,1.7s0.9,0.8,1.5,1c0.6,0.2,1.2,0.3,2,0.3
		s1.3-0.1,1.8-0.2c0.5-0.2,1-0.4,1.4-0.6s0.7-0.4,1-0.6c0.3-0.2,0.6-0.2,0.8-0.2c0.4,0,0.6,0.1,0.8,0.4l1.3,1.6
		c-0.5,0.6-1,1-1.6,1.4c-0.6,0.4-1.2,0.7-1.9,0.9c-0.7,0.2-1.3,0.4-2,0.5c-0.7,0.1-1.3,0.1-2,0.1c-1.3,0-2.5-0.2-3.5-0.6
		c-1.1-0.4-2-1-2.9-1.9c-0.8-0.8-1.4-1.8-1.9-3.1c-0.5-1.2-0.7-2.6-0.7-4.2c0-1.2,0.2-2.4,0.6-3.5c0.4-1.1,1-2.1,1.7-2.9
		c0.8-0.8,1.7-1.5,2.8-1.9C376,347.6,377.2,347.4,378.5,347.4z M378.6,350.5c-1.3,0-2.3,0.4-3,1.1c-0.7,0.7-1.2,1.8-1.4,3.1h8.3
		c0-0.6-0.1-1.1-0.2-1.6c-0.2-0.5-0.4-0.9-0.7-1.3c-0.3-0.4-0.7-0.7-1.2-0.9C379.9,350.6,379.3,350.5,378.6,350.5z"/>
	<path class="st0" d="M402.9,351.5c-0.1,0.2-0.3,0.3-0.4,0.4c-0.1,0.1-0.3,0.1-0.5,0.1c-0.2,0-0.4-0.1-0.7-0.2
		c-0.2-0.1-0.5-0.3-0.8-0.5c-0.3-0.2-0.6-0.3-1.1-0.5s-0.9-0.2-1.5-0.2c-0.8,0-1.4,0.1-2,0.4c-0.6,0.3-1.1,0.7-1.5,1.2
		c-0.4,0.5-0.7,1.2-0.9,1.9c-0.2,0.7-0.3,1.6-0.3,2.5c0,1,0.1,1.8,0.3,2.6c0.2,0.8,0.5,1.4,0.9,1.9s0.9,0.9,1.4,1.2
		c0.6,0.3,1.2,0.4,1.9,0.4c0.7,0,1.3-0.1,1.7-0.3c0.4-0.2,0.8-0.4,1.1-0.6s0.6-0.4,0.8-0.6s0.5-0.3,0.7-0.3c0.4,0,0.6,0.1,0.8,0.4
		l1.3,1.6c-0.5,0.6-1,1-1.6,1.4c-0.6,0.4-1.2,0.7-1.8,0.9c-0.6,0.2-1.2,0.4-1.9,0.5c-0.6,0.1-1.3,0.1-1.9,0.1
		c-1.1,0-2.2-0.2-3.2-0.6c-1-0.4-1.9-1-2.6-1.8s-1.3-1.8-1.8-3c-0.4-1.2-0.6-2.5-0.6-4c0-1.3,0.2-2.6,0.6-3.7c0.4-1.1,1-2.1,1.7-3
		s1.7-1.5,2.8-2s2.4-0.7,3.8-0.7c1.4,0,2.6,0.2,3.6,0.7c1,0.4,2,1.1,2.8,1.9L402.9,351.5z"/>
	<path class="st0" d="M413.1,366.2c-1.6,0-2.8-0.4-3.7-1.3c-0.8-0.9-1.3-2.1-1.3-3.7V351h-1.9c-0.2,0-0.4-0.1-0.6-0.2
		s-0.2-0.4-0.2-0.7v-1.7l2.9-0.5l0.9-5c0.1-0.2,0.2-0.4,0.3-0.6c0.2-0.1,0.4-0.2,0.6-0.2h2.3v5.8h4.9v3.1h-4.9v9.9
		c0,0.6,0.1,1,0.4,1.3s0.7,0.5,1.1,0.5c0.3,0,0.5,0,0.7-0.1c0.2-0.1,0.3-0.1,0.5-0.2s0.3-0.1,0.4-0.2c0.1-0.1,0.2-0.1,0.3-0.1
		c0.1,0,0.2,0,0.3,0.1c0.1,0.1,0.2,0.2,0.3,0.3l1.3,2.1c-0.6,0.5-1.4,0.9-2.2,1.2C414.8,366.1,413.9,366.2,413.1,366.2z"/>
	<path class="st0" d="M420.2,365.9v-18.3h2.6c0.5,0,0.8,0.1,0.9,0.2c0.2,0.2,0.3,0.4,0.4,0.9l0.2,2.1c0.6-1.1,1.3-2,2-2.6
		c0.8-0.6,1.7-0.9,2.8-0.9c0.8,0,1.5,0.2,2,0.6l-0.3,3.3c-0.1,0.2-0.1,0.4-0.3,0.5c-0.1,0.1-0.3,0.1-0.5,0.1c-0.2,0-0.4,0-0.8-0.1
		c-0.4-0.1-0.7-0.1-1-0.1c-0.5,0-0.9,0.1-1.3,0.2c-0.4,0.1-0.7,0.3-1,0.6c-0.3,0.3-0.6,0.6-0.8,1s-0.4,0.8-0.6,1.3v11.3L420.2,365.9
		L420.2,365.9z"/>
	<path class="st0" d="M441.1,347.4c1.4,0,2.6,0.2,3.7,0.7c1.1,0.4,2.1,1.1,2.9,1.9c0.8,0.8,1.4,1.8,1.8,3c0.4,1.2,0.6,2.5,0.6,3.9
		c0,1.5-0.2,2.8-0.6,3.9c-0.4,1.2-1,2.2-1.8,3c-0.8,0.8-1.7,1.5-2.9,1.9s-2.3,0.7-3.7,0.7c-1.4,0-2.6-0.2-3.7-0.7
		c-1.1-0.4-2.1-1.1-2.9-1.9c-0.8-0.8-1.4-1.8-1.8-3c-0.4-1.2-0.6-2.5-0.6-3.9c0-1.4,0.2-2.7,0.6-3.9c0.4-1.2,1-2.1,1.8-3
		c0.8-0.8,1.7-1.4,2.9-1.9C438.5,347.6,439.7,347.4,441.1,347.4z M441.1,362.8c1.5,0,2.6-0.5,3.4-1.5s1.1-2.5,1.1-4.5
		s-0.4-3.5-1.1-4.5s-1.9-1.5-3.4-1.5c-1.5,0-2.7,0.5-3.4,1.6c-0.7,1-1.1,2.5-1.1,4.5s0.4,3.5,1.1,4.5S439.5,362.8,441.1,362.8z"/>
	<path class="st0" d="M457.9,339.5v26.5h-4.4v-26.5H457.9z"/>
	<path class="st0" d="M469,371c-0.1,0.3-0.3,0.5-0.5,0.7c-0.2,0.2-0.5,0.2-1,0.2h-3.3l3.4-7.3l-7.4-16.9h3.9c0.3,0,0.6,0.1,0.8,0.2
		c0.2,0.2,0.3,0.4,0.4,0.6l3.9,9.5c0.2,0.7,0.4,1.3,0.6,1.9c0.1-0.3,0.2-0.7,0.3-1c0.1-0.3,0.2-0.6,0.4-1l3.7-9.5
		c0.1-0.2,0.3-0.4,0.5-0.6c0.2-0.2,0.5-0.2,0.7-0.2h3.5L469,371z"/>
	<path class="st0" d="M487.2,366.2c-1.6,0-2.8-0.4-3.7-1.3s-1.3-2.1-1.3-3.7V351h-1.9c-0.2,0-0.4-0.1-0.6-0.2s-0.2-0.4-0.2-0.7v-1.7
		l2.9-0.5l0.9-5c0.1-0.2,0.2-0.4,0.3-0.6c0.2-0.1,0.4-0.2,0.6-0.2h2.3v5.8h4.9v3.1h-4.9v9.9c0,0.6,0.1,1,0.4,1.3
		c0.3,0.3,0.7,0.5,1.1,0.5c0.3,0,0.5,0,0.7-0.1c0.2-0.1,0.3-0.1,0.5-0.2s0.3-0.1,0.4-0.2c0.1-0.1,0.2-0.1,0.3-0.1
		c0.1,0,0.2,0,0.3,0.1s0.2,0.2,0.3,0.3l1.3,2.1c-0.6,0.5-1.4,0.9-2.2,1.2C489,366.1,488.1,366.2,487.2,366.2z"/>
	<path class="st0" d="M502.2,347.4c1.2,0,2.2,0.2,3.2,0.6c1,0.4,1.8,0.9,2.5,1.6c0.7,0.7,1.2,1.6,1.6,2.6c0.4,1,0.6,2.2,0.6,3.5
		c0,0.7-0.1,1.1-0.2,1.3s-0.4,0.3-0.8,0.3h-11.3c0.1,0.9,0.2,1.8,0.5,2.4s0.6,1.2,1,1.7s0.9,0.8,1.5,1c0.6,0.2,1.2,0.3,2,0.3
		s1.3-0.1,1.8-0.2c0.5-0.2,1-0.4,1.4-0.6s0.7-0.4,1-0.6c0.3-0.2,0.6-0.2,0.8-0.2c0.4,0,0.6,0.1,0.8,0.4l1.3,1.6
		c-0.5,0.6-1,1-1.6,1.4c-0.6,0.4-1.2,0.7-1.9,0.9c-0.7,0.2-1.3,0.4-2,0.5c-0.7,0.1-1.3,0.1-2,0.1c-1.3,0-2.5-0.2-3.5-0.6
		c-1.1-0.4-2-1-2.9-1.9c-0.8-0.8-1.4-1.8-1.9-3.1c-0.5-1.2-0.7-2.6-0.7-4.2c0-1.2,0.2-2.4,0.6-3.5c0.4-1.1,1-2.1,1.7-2.9
		c0.8-0.8,1.7-1.5,2.8-1.9C499.6,347.6,500.8,347.4,502.2,347.4z M502.3,350.5c-1.3,0-2.3,0.4-3,1.1c-0.7,0.7-1.2,1.8-1.4,3.1h8.3
		c0-0.6-0.1-1.1-0.2-1.6c-0.2-0.5-0.4-0.9-0.7-1.3c-0.3-0.4-0.7-0.7-1.2-0.9C503.5,350.6,502.9,350.5,502.3,350.5z"/>
	<path class="st0" d="M524.6,351.2c-0.1,0.2-0.2,0.3-0.4,0.4c-0.1,0.1-0.3,0.1-0.5,0.1c-0.2,0-0.4-0.1-0.7-0.2
		c-0.2-0.1-0.5-0.3-0.8-0.4c-0.3-0.1-0.7-0.3-1.1-0.4c-0.4-0.1-0.9-0.2-1.5-0.2c-0.9,0-1.5,0.2-2,0.6c-0.5,0.4-0.7,0.9-0.7,1.4
		c0,0.4,0.1,0.7,0.4,1c0.3,0.3,0.6,0.5,1,0.7s0.9,0.4,1.4,0.5c0.5,0.2,1.1,0.3,1.6,0.5c0.6,0.2,1.1,0.4,1.6,0.6
		c0.5,0.2,1,0.6,1.4,0.9c0.4,0.4,0.8,0.8,1,1.3c0.3,0.5,0.4,1.2,0.4,1.9c0,0.9-0.2,1.7-0.5,2.4s-0.8,1.4-1.4,1.9
		c-0.6,0.5-1.4,1-2.3,1.3c-0.9,0.3-2,0.5-3.1,0.5c-0.6,0-1.2-0.1-1.8-0.2c-0.6-0.1-1.2-0.3-1.7-0.5c-0.6-0.2-1.1-0.4-1.5-0.7
		c-0.5-0.3-0.9-0.6-1.2-0.9l1-1.7c0.1-0.2,0.3-0.4,0.5-0.5c0.2-0.1,0.4-0.2,0.7-0.2s0.5,0.1,0.8,0.2c0.2,0.2,0.5,0.3,0.8,0.5
		c0.3,0.2,0.7,0.3,1.1,0.5s1,0.2,1.6,0.2c0.5,0,1-0.1,1.3-0.2c0.4-0.1,0.7-0.3,0.9-0.5c0.2-0.2,0.4-0.4,0.5-0.7
		c0.1-0.3,0.2-0.5,0.2-0.8c0-0.4-0.1-0.8-0.4-1.1s-0.6-0.5-1-0.7c-0.4-0.2-0.9-0.4-1.4-0.5c-0.5-0.2-1.1-0.3-1.7-0.5
		c-0.6-0.2-1.1-0.4-1.7-0.7c-0.5-0.3-1-0.6-1.4-1s-0.8-0.9-1-1.4c-0.3-0.6-0.4-1.3-0.4-2.1c0-0.7,0.1-1.5,0.4-2.1s0.7-1.3,1.3-1.8
		c0.6-0.5,1.3-0.9,2.2-1.2c0.9-0.3,1.9-0.5,3-0.5c1.3,0,2.4,0.2,3.4,0.6c1,0.4,1.9,1,2.6,1.6L524.6,351.2z"/>
</g>
</svg>
