<?xml version="1.0" encoding="utf-8"?>
<!-- Generator: Adobe Illustrator 19.0.0, SVG Export Plug-In . SVG Version: 6.00 Build 0)  -->
<svg version="1.1" id="Layer_1" xmlns="http://www.w3.org/2000/svg" xmlns:xlink="http://www.w3.org/1999/xlink" x="0px" y="0px"
	 viewBox="90.2 261.8 394.5 202.9" style="enable-background:new 90.2 261.8 394.5 202.9;" xml:space="preserve">
<style type="text/css">
	.st0-pink{fill:#F06FBB;}
	.st1-darkgray{fill:#414042;stroke:#414042;stroke-width:0.72;stroke-miterlimit:10;}
</style>
<g id="XMLID_152_">
	<path id="XMLID_153_" class="st0-pink" d="M150.8,458.3v-27.8h3.8v10.9c0.7-0.8,1.6-1.4,2.4-1.9c0.9-0.5,1.9-0.7,3.1-0.7
		c1,0,1.9,0.2,2.6,0.5s1.4,0.8,1.9,1.5c0.5,0.6,0.9,1.4,1.2,2.3c0.3,0.9,0.4,1.9,0.4,3v12.2h-3.8v-12.2c0-1.3-0.3-2.3-0.8-3
		c-0.6-0.7-1.4-1.1-2.6-1.1c-0.8,0-1.6,0.2-2.4,0.6c-0.7,0.4-1.4,1-2,1.7v13.9L150.8,458.3L150.8,458.3L150.8,458.3z"/>
	<path id="XMLID_155_" class="st0-pink" d="M176.3,463.8c-0.1,0.3-0.3,0.5-0.5,0.7c-0.2,0.2-0.5,0.2-0.8,0.2h-2.8l3.3-7.7l-7.4-17.8h3.3
		c0.3,0,0.6,0.1,0.7,0.2c0.2,0.1,0.3,0.3,0.4,0.6l4.3,10.9c0.2,0.6,0.4,1.2,0.5,1.9c0.1-0.3,0.2-0.6,0.3-1c0.1-0.3,0.2-0.6,0.3-0.9
		l4.1-10.8c0.1-0.2,0.2-0.4,0.4-0.6c0.2-0.1,0.4-0.2,0.6-0.2h3L176.3,463.8z"/>
	<path id="XMLID_157_" class="st0-pink" d="M201.2,458.3c-0.5,0-0.8-0.3-1-0.8l-0.3-2.1c-0.4,0.5-0.8,0.9-1.2,1.3c-0.4,0.4-0.9,0.7-1.4,1
		c-0.5,0.3-1,0.5-1.6,0.6c-0.6,0.1-1.1,0.2-1.8,0.2c-1,0-1.9-0.2-2.8-0.7s-1.5-1.1-2.1-1.9s-1-1.8-1.4-3.1s-0.5-2.6-0.5-4.2
		c0-1.4,0.2-2.8,0.5-4c0.4-1.2,0.9-2.3,1.5-3.2c0.7-0.9,1.5-1.6,2.5-2.1s2-0.8,3.2-0.8c1.1,0,2,0.2,2.7,0.5c0.7,0.4,1.4,0.8,2,1.5
		v-10.3h3.8v27.8L201.2,458.3L201.2,458.3L201.2,458.3z M195.2,455.4c1,0,1.8-0.2,2.5-0.7c0.7-0.4,1.4-1.1,2-1.9v-8.9
		c-0.5-0.7-1.1-1.2-1.8-1.5c-0.6-0.3-1.3-0.4-2.1-0.4c-1.5,0-2.6,0.6-3.5,1.7c-0.8,1.2-1.2,2.9-1.2,5.1c0,1.2,0.1,2.2,0.3,3
		c0.2,0.8,0.5,1.5,0.8,2c0.4,0.5,0.8,0.9,1.3,1.1C194,455.2,194.6,455.4,195.2,455.4z"/>
	<path id="XMLID_160_" class="st0-pink" d="M208.1,458.3v-19.1h2.2c0.4,0,0.7,0.1,0.8,0.2c0.1,0.2,0.3,0.4,0.3,0.8l0.2,2.5
		c0.6-1.2,1.3-2.2,2.1-2.9s1.8-1,2.9-1c0.4,0,0.8,0,1.1,0.1c0.3,0.1,0.7,0.2,0.9,0.4l-0.3,3c0,0.2-0.1,0.4-0.2,0.4
		c-0.1,0.1-0.2,0.1-0.4,0.1c-0.2,0-0.4,0-0.8-0.1c-0.3-0.1-0.7-0.1-1-0.1c-0.5,0-1,0.1-1.4,0.2c-0.4,0.2-0.8,0.4-1.1,0.7
		c-0.3,0.3-0.6,0.7-0.8,1.1s-0.5,1-0.7,1.5v11.9L208.1,458.3L208.1,458.3L208.1,458.3z"/>
	<path id="XMLID_162_" class="st0-pink" d="M232.5,458.3c-0.4,0-0.6-0.1-0.8-0.2c-0.2-0.1-0.3-0.4-0.5-0.7l-0.4-1.6
		c-0.5,0.4-0.9,0.8-1.4,1.2c-0.5,0.3-0.9,0.6-1.4,0.9s-1,0.4-1.5,0.5c-0.6,0.1-1.1,0.2-1.8,0.2c-0.7,0-1.4-0.1-2-0.3
		c-0.6-0.2-1.2-0.5-1.6-1s-0.8-1-1.1-1.6c-0.3-0.6-0.4-1.4-0.4-2.2c0-0.7,0.2-1.5,0.6-2.2c0.4-0.7,1-1.3,1.8-1.9
		c0.8-0.5,2-1,3.4-1.4c1.4-0.4,3.1-0.6,5.2-0.6v-1.3c0-1.4-0.3-2.4-0.8-3.1c-0.6-0.7-1.4-1-2.4-1c-0.7,0-1.3,0.1-1.8,0.3
		c-0.5,0.2-0.9,0.4-1.3,0.6c-0.4,0.2-0.7,0.4-1,0.6c-0.3,0.2-0.6,0.3-0.9,0.3c-0.3,0-0.5-0.1-0.7-0.2c-0.2-0.1-0.3-0.3-0.4-0.5
		l-0.7-1.3c2-2,4.5-3,7.3-3c1,0,2,0.2,2.8,0.5c0.8,0.4,1.5,0.9,2,1.5c0.6,0.7,1,1.4,1.2,2.3c0.3,0.9,0.4,1.9,0.4,3v12.2L232.5,458.3
		L232.5,458.3L232.5,458.3z M225.9,455.8c1,0,1.8-0.2,2.6-0.6c0.7-0.4,1.4-1,2.1-1.7V450c-1.4,0.1-2.5,0.2-3.4,0.4s-1.7,0.4-2.3,0.7
		c-0.6,0.3-1,0.6-1.2,1c-0.3,0.4-0.4,0.8-0.4,1.3c0,0.4,0.1,0.8,0.2,1.2c0.1,0.3,0.3,0.6,0.6,0.8c0.2,0.2,0.5,0.4,0.8,0.4
		C225.1,455.8,225.5,455.8,225.9,455.8z"/>
	<path id="XMLID_165_" class="st0-pink" d="M244.2,458.6c-1.5,0-2.6-0.4-3.5-1.3c-0.8-0.9-1.2-2.2-1.2-3.8v-11.1h-2
		c-0.2,0-0.4-0.1-0.6-0.2c-0.1-0.1-0.2-0.4-0.2-0.7v-1.6l2.9-0.4l0.8-5.5c0.1-0.2,0.2-0.4,0.3-0.5c0.1-0.1,0.3-0.2,0.6-0.2h1.9v6.3
		h12.6v18.9h-3.8v-16h-8.8v10.9c0,0.7,0.2,1.2,0.5,1.6c0.3,0.4,0.7,0.5,1.3,0.5c0.3,0,0.6,0,0.8-0.1c0.2-0.1,0.4-0.2,0.6-0.3
		c0.1-0.1,0.3-0.2,0.4-0.3c0.1-0.1,0.2-0.1,0.3-0.1c0.2,0,0.4,0.1,0.5,0.4l1.1,2c-0.6,0.5-1.3,1-2.1,1.3
		C245.9,458.5,245,458.6,244.2,458.6z M256.7,433.3c0,0.4-0.1,0.7-0.2,1c-0.1,0.3-0.3,0.6-0.6,0.8c-0.2,0.2-0.5,0.4-0.8,0.6
		c-0.3,0.1-0.6,0.2-1,0.2c-0.3,0-0.7-0.1-1-0.2c-0.3-0.1-0.6-0.3-0.8-0.6c-0.2-0.2-0.4-0.5-0.6-0.8c-0.1-0.3-0.2-0.7-0.2-1
		s0.1-0.7,0.2-1.1c0.1-0.3,0.3-0.6,0.6-0.9c0.2-0.2,0.5-0.4,0.8-0.6c0.3-0.1,0.6-0.2,1-0.2c0.3,0,0.7,0.1,1,0.2
		c0.3,0.1,0.6,0.3,0.8,0.6c0.2,0.2,0.4,0.5,0.6,0.9C256.6,432.6,256.7,432.9,256.7,433.3z"/>
	<path id="XMLID_168_" class="st0-pink" d="M268.5,438.9c1.3,0,2.5,0.2,3.6,0.7c1.1,0.5,2,1.1,2.8,2s1.4,1.9,1.8,3.1
		c0.4,1.2,0.6,2.6,0.6,4.1c0,1.5-0.2,2.9-0.6,4.1c-0.4,1.2-1,2.2-1.8,3.1s-1.7,1.5-2.8,2c-1.1,0.5-2.3,0.7-3.6,0.7
		c-1.3,0-2.6-0.2-3.6-0.7c-1.1-0.5-2-1.1-2.8-2c-0.8-0.9-1.4-1.9-1.8-3.1c-0.4-1.2-0.6-2.6-0.6-4.1c0-1.5,0.2-2.9,0.6-4.1
		c0.4-1.2,1-2.2,1.8-3.1s1.7-1.5,2.8-2C265.9,439.1,267.2,438.9,268.5,438.9z M268.5,455.5c1.6,0,2.8-0.6,3.6-1.7
		c0.8-1.2,1.2-2.8,1.2-5s-0.4-3.8-1.2-5c-0.8-1.2-2-1.8-3.6-1.8c-1.7,0-2.9,0.6-3.7,1.8c-0.8,1.2-1.2,2.8-1.2,5s0.4,3.8,1.2,5
		C265.6,454.9,266.8,455.5,268.5,455.5z"/>
	<path id="XMLID_171_" class="st0-pink" d="M280.9,458.3v-19.1h2.3c0.5,0,0.8,0.3,1,0.8l0.3,1.8c0.4-0.4,0.8-0.8,1.2-1.2
		c0.4-0.3,0.9-0.7,1.3-0.9c0.5-0.3,1-0.4,1.5-0.6c0.5-0.1,1.1-0.2,1.7-0.2c1,0,1.9,0.2,2.6,0.5s1.4,0.8,1.9,1.5
		c0.5,0.6,0.9,1.4,1.2,2.3c0.3,0.9,0.4,1.9,0.4,3v12.2h-3.8v-12.2c0-1.3-0.3-2.3-0.8-3c-0.6-0.7-1.4-1.1-2.6-1.1
		c-0.8,0-1.6,0.2-2.4,0.6c-0.7,0.4-1.4,1-2,1.7v13.9L280.9,458.3L280.9,458.3z"/>
	<path id="XMLID_173_" class="st0-pink" d="M319,436.4v7.8h7v3h-7v7.9h-3.1v-7.9h-7v-3h7v-7.8H319z"/>
	<path id="XMLID_175_" class="st0-pink" d="M343.4,433.4c0,0.4-0.1,0.7-0.2,1c-0.1,0.3-0.3,0.6-0.6,0.8c-0.2,0.2-0.5,0.4-0.8,0.6
		c-0.3,0.1-0.6,0.2-1,0.2c-0.3,0-0.7-0.1-1-0.2c-0.3-0.1-0.6-0.3-0.8-0.6c-0.2-0.2-0.4-0.5-0.5-0.8c-0.1-0.3-0.2-0.7-0.2-1
		c0-0.4,0.1-0.7,0.2-1.1c0.1-0.3,0.3-0.6,0.5-0.8s0.5-0.4,0.8-0.6c0.3-0.1,0.6-0.2,1-0.2c0.4,0,0.7,0.1,1,0.2
		c0.3,0.1,0.6,0.3,0.8,0.6s0.4,0.5,0.6,0.8C343.4,432.7,343.4,433,343.4,433.4z M342.8,439.2v19.1H339v-19.1H342.8z"/>
	<path id="XMLID_178_" class="st0-pink" d="M347.6,458.3v-19.1h2.3c0.5,0,0.8,0.3,1,0.8l0.3,1.7c0.3-0.4,0.7-0.8,1-1.1
		c0.4-0.3,0.7-0.6,1.1-0.9c0.4-0.2,0.8-0.4,1.3-0.6c0.5-0.1,1-0.2,1.5-0.2c0.6,0,1.1,0.1,1.6,0.3c0.5,0.2,0.9,0.4,1.3,0.7
		c0.4,0.3,0.7,0.7,1,1.2c0.3,0.5,0.5,1,0.7,1.6c0.3-0.7,0.6-1.2,1-1.7c0.4-0.5,0.9-0.9,1.4-1.2c0.5-0.3,1-0.5,1.6-0.7
		c0.6-0.1,1.1-0.2,1.7-0.2c1,0,1.8,0.2,2.6,0.5c0.8,0.3,1.4,0.8,1.9,1.4c0.5,0.6,0.9,1.4,1.2,2.3c0.3,0.9,0.4,1.9,0.4,3.1v12.2h-3.8
		v-12.2c0-1.4-0.3-2.4-0.8-3.1c-0.6-0.7-1.4-1-2.4-1c-0.5,0-0.9,0.1-1.4,0.3c-0.4,0.2-0.8,0.4-1.1,0.8c-0.3,0.3-0.6,0.8-0.8,1.3
		c-0.2,0.5-0.3,1.1-0.3,1.8v12.2h-3.8v-12.2c0-1.4-0.3-2.4-0.8-3.1c-0.5-0.7-1.3-1-2.3-1c-0.7,0-1.4,0.2-2,0.6
		c-0.6,0.4-1.2,0.9-1.7,1.6v14.1L347.6,458.3L347.6,458.3L347.6,458.3z"/>
	<path id="XMLID_180_" class="st0-pink" d="M377,458.3v-19.1h2.3c0.5,0,0.8,0.3,1,0.8l0.3,1.7c0.3-0.4,0.7-0.8,1-1.1
		c0.4-0.3,0.7-0.6,1.1-0.9c0.4-0.2,0.8-0.4,1.3-0.6c0.5-0.1,1-0.2,1.5-0.2c0.6,0,1.1,0.1,1.6,0.3c0.5,0.2,0.9,0.4,1.3,0.7
		c0.4,0.3,0.7,0.7,1,1.2c0.3,0.5,0.5,1,0.7,1.6c0.3-0.7,0.6-1.2,1-1.7c0.4-0.5,0.9-0.9,1.4-1.2c0.5-0.3,1-0.5,1.6-0.7
		c0.6-0.1,1.1-0.2,1.7-0.2c1,0,1.8,0.2,2.6,0.5c0.8,0.3,1.4,0.8,1.9,1.4c0.5,0.6,0.9,1.4,1.2,2.3c0.3,0.9,0.4,1.9,0.4,3.1v12.2h-3.8
		v-12.2c0-1.4-0.3-2.4-0.8-3.1c-0.5-0.7-1.4-1-2.4-1c-0.5,0-0.9,0.1-1.4,0.3c-0.4,0.2-0.8,0.4-1.1,0.8c-0.3,0.3-0.6,0.8-0.8,1.3
		c-0.2,0.5-0.3,1.1-0.3,1.8v12.2h-3.8v-12.2c0-1.4-0.3-2.4-0.8-3.1c-0.5-0.7-1.3-1-2.3-1c-0.7,0-1.4,0.2-2,0.6
		c-0.6,0.4-1.2,0.9-1.7,1.6v14.1L377,458.3L377,458.3L377,458.3z"/>
	<path id="XMLID_182_" class="st0-pink" d="M410,439.2v12.2c0,1.3,0.3,2.3,0.8,3c0.6,0.7,1.4,1.1,2.6,1.1c0.8,0,1.6-0.2,2.4-0.6
		s1.4-1,2-1.7v-14h3.8v19.1h-2.3c-0.5,0-0.8-0.3-1-0.8l-0.3-1.8c-0.8,0.8-1.6,1.5-2.5,2.1c-0.9,0.5-2,0.8-3.2,0.8
		c-1,0-1.9-0.2-2.6-0.5c-0.8-0.4-1.4-0.8-1.9-1.5c-0.5-0.6-0.9-1.4-1.2-2.3c-0.3-0.9-0.4-1.9-0.4-3v-12.2L410,439.2L410,439.2
		L410,439.2z"/>
	<path id="XMLID_184_" class="st0-pink" d="M426.2,458.3v-19.1h2.3c0.5,0,0.8,0.3,1,0.8l0.3,1.8c0.4-0.4,0.8-0.8,1.2-1.2
		c0.4-0.3,0.9-0.7,1.3-0.9c0.5-0.3,1-0.4,1.5-0.6c0.5-0.1,1.1-0.2,1.7-0.2c1,0,1.9,0.2,2.6,0.5c0.7,0.4,1.4,0.8,1.9,1.5
		c0.5,0.6,0.9,1.4,1.2,2.3c0.3,0.9,0.4,1.9,0.4,3v12.2h-3.8v-12.2c0-1.3-0.3-2.3-0.8-3c-0.6-0.7-1.4-1.1-2.6-1.1
		c-0.8,0-1.6,0.2-2.4,0.6c-0.7,0.4-1.4,1-2,1.7v13.9L426.2,458.3L426.2,458.3z"/>
	<path id="XMLID_186_" class="st0-pink" d="M450.6,433.4c0,0.4-0.1,0.7-0.2,1c-0.1,0.3-0.3,0.6-0.5,0.8c-0.2,0.2-0.5,0.4-0.8,0.6
		c-0.3,0.1-0.6,0.2-1,0.2c-0.3,0-0.7-0.1-1-0.2c-0.3-0.1-0.6-0.3-0.8-0.6c-0.2-0.2-0.4-0.5-0.5-0.8c-0.1-0.3-0.2-0.7-0.2-1
		c0-0.4,0.1-0.7,0.2-1.1c0.1-0.3,0.3-0.6,0.5-0.8s0.5-0.4,0.8-0.6c0.3-0.1,0.6-0.2,1-0.2c0.4,0,0.7,0.1,1,0.2
		c0.3,0.1,0.6,0.3,0.8,0.6c0.2,0.2,0.4,0.5,0.5,0.8S450.6,433,450.6,433.4z M450,439.2v19.1h-3.8v-19.1H450z"/>
	<path id="XMLID_189_" class="st0-pink" d="M460.6,458.6c-1.5,0-2.6-0.4-3.5-1.3c-0.8-0.9-1.2-2.2-1.2-3.8v-11.1h-2
		c-0.2,0-0.4-0.1-0.6-0.2c-0.1-0.1-0.2-0.4-0.2-0.7v-1.6l2.9-0.4l0.8-5.5c0.1-0.2,0.2-0.4,0.3-0.5s0.3-0.2,0.6-0.2h1.9v6.3h5v2.9h-5
		v10.9c0,0.7,0.2,1.2,0.5,1.6c0.3,0.4,0.7,0.5,1.3,0.5c0.3,0,0.6,0,0.8-0.1c0.2-0.1,0.4-0.2,0.5-0.3c0.1-0.1,0.3-0.2,0.4-0.3
		c0.1-0.1,0.2-0.1,0.3-0.1c0.2,0,0.4,0.1,0.5,0.4l1.1,2c-0.6,0.5-1.3,1-2.1,1.3C462.2,458.5,461.4,458.6,460.6,458.6z"/>
	<path id="XMLID_191_" class="st0-pink" d="M473.8,463.8c-0.1,0.3-0.3,0.5-0.5,0.7c-0.2,0.2-0.5,0.2-0.8,0.2h-2.8l3.3-7.7l-7.4-17.8h3.3
		c0.3,0,0.6,0.1,0.7,0.2c0.2,0.1,0.3,0.3,0.4,0.6l4.3,10.9c0.2,0.6,0.4,1.2,0.5,1.9c0.1-0.3,0.2-0.6,0.3-1c0.1-0.3,0.2-0.6,0.3-0.9
		l4.1-10.8c0.1-0.2,0.2-0.4,0.4-0.6c0.2-0.1,0.4-0.2,0.6-0.2h3L473.8,463.8z"/>
</g>
<g id="XMLID_120_">
	<path id="XMLID_129_" class="st1-darkgray" d="M91.6,286.3l0.5-0.1c1.9-0.4,3.7,1.8,5.3,6.5l8.3,16.4c0.4,0.4,0.7,0.6,1,0.5
		c2.6-1.8,5.2-4.9,7.9-9.6s5.3-7.9,7.9-9.8l0.2,0c1.1-0.2,2.2,0.4,3.1,1.8c0.1,0.6-2,3.9-6.5,9.9c-2.5,4-5.1,7.1-7.5,9.2l-0.1,0.2
		l0,0.2l1.2-0.4l1.2-0.3c6.9-1.4,14.2-2.3,21.9-2.7l1.8,0.7l0.1,0.4c0,2.9-1,4.6-3,5l-0.4,0.1c-2.7-0.8-8.6-0.3-17.5,1.5l-7.7,1.2
		l0,0.7c0.2,1,1.4,4.3,3.7,9.9l2,5.3l0.1,0.7c0,1.5-0.6,2.3-1.7,2.5l-0.4,0.1c-2.1,0.4-3.5-0.9-4.5-4.1c-1.1-5.5-6.6-18.8-16.5-40.1
		l-1.4-3.7C90.6,287.6,90.9,286.9,91.6,286.3z"/>
	<path id="XMLID_126_" class="st1-darkgray" d="M141.1,285c2.4,0.2,3.7,1.2,4.1,2.9c5.3,23.3,8.7,35.3,10.1,35.9c0.5,2.2-0.2,3.7-2,4.5
		l-0.4,0.1c-2.3-0.4-3.7-1.8-4.1-4.1l-9.1-37C139.9,285.9,140.3,285.2,141.1,285z M139,266.7c1.4-0.3,2.5,0.2,3.3,1.5
		c0.8,1.3,0.4,2.5-1.1,3.8l-1.4,0.3c-1,0.2-1.8-0.4-2.4-1.9l-0.2-1.1C136.9,267.9,137.5,267,139,266.7z"/>
	<path id="XMLID_123_" class="st1-darkgray" d="M155.1,275c0.9-0.2,2.3,0,4.1,0.5c4.5-0.3,10.4-0.7,17.6-1.3c7.2-0.6,12.2-0.4,14.8,0.7
		c1.8,0.8,2.9,2.7,3.5,5.7c1.1,5.5-1.5,14-8,25.6c-2.7,4.1-6.3,8.8-10.8,13.9c-1.1,2.6-1.8,3.9-2.2,3.9l-1.1,0.2
		c-2,0.4-3.5-0.7-4.3-3.4c-3.1-10.4-5.9-19.9-8.6-28.3c-2.8-8.3-4.5-12.3-5.2-12.2c-1.4,0.3-2.2-0.1-2.5-1.2
		c-0.1-0.3,0.4-1.2,1.3-2.7C154.1,275.6,154.5,275.1,155.1,275z M161.2,280.6c4.5,14.3,7.5,23.4,8.7,27.4c1.1,1.9,2.2,4.6,3.3,8.2
		l0.6,0.1c1.7-0.9,5.1-5.9,10.3-15c5.2-9.1,7.2-15.7,6.1-19.8c-0.3-1.7-1.4-2.7-3.4-3c-2.5-0.6-8.5-0.3-18,1l-6.7,0.6L161.2,280.6z"
		/>
	<path id="XMLID_121_" class="st1-darkgray" d="M206,262.8c4.9-1.1,9.2-0.9,13,0.8c3.8,1.7,5.6,3,5.3,4c-0.3,1-0.8,1.4-1.6,1.4
		c-0.8-0.1-2.6-0.6-5.3-1.6c-2.8-1-5.9-1.1-9.4-0.4c-3.1,0.6-4.5,1.6-4.2,3l0.1,0.5c2,4,7.5,7.3,16.4,10.1l11,5.3
		c6.7,4,10.7,9.5,12.1,16.5c1,4.9,0.2,8.7-2.2,11.2c-2.5,2.5-5.6,4.2-9.4,4.9c-4.7,0.9-9.9,0.3-15.6-1.8c-7.1-2.9-11.4-8-12.8-15.4
		l-0.1-0.4c-0.9-6.3-0.6-9.6,1.1-10l1.1-0.2c1.9-0.4,3.1-0.2,3.6,0.6l0.1,0.4c0.1,0.6-0.7,2.6-2.3,5.8l0.2,1.8l0.5,2.7
		c2.2,6.5,7,10.3,14.2,11.5c7.2,1.2,12.2,0.6,14.9-1.7c2.7-2.3,3.4-6.3,2.1-11.9c-1.3-5.6-7.6-10.3-18.7-13.9l-6.1-2.1
		c-8.9-3.6-13.7-7.7-14.2-12.3C199,266.8,201.2,263.9,206,262.8z"/>
</g>
<g id="XMLID_110_">
</g>
<g id="XMLID_117_">
</g>
<g id="XMLID_193_">
</g>
<g id="XMLID_194_">
</g>
<g id="XMLID_195_">
</g>
<g id="XMLID_196_">
</g>
<g>
	<g>
		<path class="st0-pink" d="M164.2,320.9c0.2,0,0.4,0.1,0.7,0.2s0.3,0.2,0.6,0.4c0.1,0.2,0.3,0.4,0.4,0.8l18.3,36.4
			c0-0.7,0.1-1.5,0.1-2.1c0.1-0.7,0.1-1.3,0.2-1.9l3.6-34h7.4l-5.7,53.3h-4.3c-0.7,0-1.2-0.1-1.7-0.3c-0.4-0.2-0.8-0.7-1.1-1.3
			l-18.2-36.4c0,0.6-0.1,1.1-0.1,1.7c0,0.6-0.1,1.1-0.1,1.6l-3.6,34.8h-7.4l5.7-53.3h4.4C163.6,320.9,163.9,320.9,164.2,320.9z"/>
		<path class="st0-pink" d="M236,374.1h-6.5c-0.8,0-1.3-0.2-1.8-0.6c-0.4-0.3-0.7-0.9-0.8-1.6l-1.9-11.1h-17.5l-4.3,11.1
			c-0.2,0.6-0.7,1.1-1.1,1.5c-0.6,0.4-1.1,0.7-1.8,0.7h-6.6l22.6-53.4h8.5L236,374.1z M210.2,354.1h13.6l-3.1-18.3
			c-0.2-0.9-0.3-1.8-0.6-2.8c-0.2-1-0.3-2.1-0.4-3.4c-0.4,1.2-0.8,2.4-1.2,3.4c-0.4,1-0.8,1.9-1.1,2.7L210.2,354.1z"/>
		<path class="st0-pink" d="M271.3,320.7l-0.9,7.9h-12.8l-4.8,45.5h-8.3l4.8-45.5h-12.9l0.8-7.9H271.3z"/>
		<path class="st0-pink" d="M288.8,366.4c1.5,0,2.9-0.3,4.2-1c1.2-0.7,2.4-1.6,3.3-2.8c0.9-1.2,1.7-2.7,2.4-4.3c0.7-1.7,1-3.5,1.2-5.6
			l3.5-32.1h8.4l-3.4,32.1c-0.3,3.1-1,6.1-2.2,8.8c-1.1,2.7-2.6,4.9-4.3,7c-1.8,1.9-3.8,3.5-6.2,4.6c-2.4,1.1-4.9,1.7-7.6,1.7
			c-2.5,0-4.7-0.4-6.7-1.3c-1.9-0.9-3.6-2.1-4.9-3.8c-1.3-1.6-2.4-3.6-3.1-5.8c-0.7-2.2-1-4.7-1-7.4c0-1.1,0.1-2.2,0.2-3.5l3.4-32.1
			h8.4l-3.5,32c-0.1,0.4-0.1,0.9-0.1,1.3c0,0.4,0,0.9,0,1.3c0,1.7,0.2,3.1,0.6,4.5s0.9,2.5,1.6,3.5s1.6,1.7,2.6,2.2
			C286.3,366.1,287.4,366.4,288.8,366.4z"/>
		<path class="st0-pink" d="M324.7,353l-2.2,21h-8.3l5.7-53.3h13.2c2.7,0,5.1,0.3,7,1c1.9,0.7,3.5,1.6,4.7,2.7c1.2,1.1,2.1,2.6,2.7,4.2
			c0.6,1.7,0.9,3.4,0.9,5.4s-0.2,4-0.8,5.8c-0.4,1.8-1.2,3.5-2.1,4.9s-2.1,2.8-3.5,3.9c-1.3,1.1-2.9,1.9-4.7,2.6
			c0.4,0.3,1,0.8,1.3,1.2c0.4,0.6,0.8,1.1,1,1.8l8.4,19.9h-7.5c-0.7,0-1.3-0.1-1.8-0.4c-0.4-0.3-0.9-0.8-1.1-1.3l-7-17.5
			c-0.2-0.7-0.6-1.1-1-1.3c-0.3-0.2-1-0.5-1.8-0.5C328,353,324.7,353,324.7,353z M327.4,328.1l-2,18.1h4.8c1.7,0,3.1-0.2,4.4-0.9
			c1.2-0.6,2.2-1.3,3-2.2c0.8-1,1.3-2.1,1.8-3.4c0.3-1.3,0.6-2.7,0.6-4.3c0-2.4-0.7-4.2-1.9-5.4c-1.2-1.3-3.1-1.9-5.8-1.9H327.4z"/>
		<path class="st0-pink" d="M390.9,373.9h-6.5c-0.7,0-1.3-0.2-1.8-0.6s-0.7-0.9-0.8-1.6l-1.9-11.1h-17.5l-4.3,11.1
			c-0.2,0.6-0.7,1-1.1,1.5c-0.6,0.4-1.1,0.7-1.8,0.7h-6.6l22.6-53.4h8.5L390.9,373.9z M364.9,353.9h13.6l-3.1-18.2
			c-0.1-0.9-0.3-1.8-0.6-2.8c-0.1-1-0.3-2.1-0.4-3.4c-0.4,1.2-0.8,2.4-1.2,3.4c-0.4,1-0.8,1.9-1.1,2.7L364.9,353.9z"/>
		<path class="st0-pink" d="M403.8,366h17.1l-0.8,8h-25.5l5.7-53.3h8.4L403.8,366z"/>
		<path class="st0-pink" d="M183,399.2c0,2.2-0.2,4.5-0.7,6.5c-0.4,2-1.1,3.9-2,5.6c-0.9,1.7-2,3.3-3.3,4.6c-1.2,1.3-2.7,2.5-4.3,3.5
			c-1.6,0.9-3.3,1.7-5.1,2.1c-1.8,0.4-3.7,0.8-5.8,0.8H148l4.9-40.4h13.9c2.5,0,4.7,0.4,6.7,1.2c2,0.8,3.7,2,5.1,3.6
			s2.5,3.4,3.3,5.5C182.7,394.2,183,396.6,183,399.2z M177.3,399.3c0-2-0.2-3.8-0.8-5.4c-0.6-1.6-1.2-2.9-2.1-4.2
			c-0.9-1.1-2.1-2-3.5-2.6c-1.3-0.6-2.9-0.9-4.6-0.9H158l-3.8,31.4h8.3c2.2,0,4.3-0.4,6.1-1.2c1.8-0.9,3.4-2,4.7-3.6s2.4-3.5,3-5.7
			C177,404.7,177.3,402.1,177.3,399.3z"/>
		<path class="st0-pink" d="M195.3,405.4l-2,16.7h-5.5l4.9-40.4h10.7c2.1,0,4,0.2,5.6,0.7c1.6,0.4,2.9,1.1,3.9,2c1,0.9,1.8,1.9,2.2,3
			c0.4,1.2,0.8,2.6,0.8,4c0,1.6-0.2,3.1-0.7,4.5c-0.4,1.5-1.1,2.7-2,3.8c-0.9,1.1-2,2-3.3,2.8c-1.2,0.8-2.7,1.3-4.4,1.8
			c0.7,0.4,1.2,1,1.6,1.8l8.4,15.9h-4.9c-1,0-1.7-0.4-2-1.2l-7.3-14.4c-0.2-0.4-0.6-0.8-0.9-1s-0.8-0.2-1.5-0.2L195.3,405.4
			L195.3,405.4z M197.6,386.1l-1.9,15.2h4.9c1.6,0,2.9-0.2,4.2-0.7s2.1-1.1,3-1.9c0.8-0.8,1.3-1.8,1.8-2.8c0.4-1.1,0.6-2.2,0.6-3.6
			c0-2-0.7-3.5-1.9-4.6c-1.2-1-3.1-1.6-5.6-1.6L197.6,386.1L197.6,386.1z"/>
		<path class="st0-pink" d="M226.1,422.2h-5.6l4.9-40.4h5.6L226.1,422.2z"/>
		<path class="st0-pink" d="M244.6,381.9c0.2,0.1,0.4,0.3,0.7,0.8l17.1,30.3c0-0.4,0.1-0.9,0.1-1.3s0.1-0.8,0.1-1.2l3.5-28.9h4.9
			l-4.9,40.4h-2.8c-0.5,0-0.8-0.1-1.1-0.2c-0.2-0.1-0.6-0.4-0.8-0.8l-17.1-30.3l-0.2,2l-3.6,29.3h-4.8l4.9-40.4h2.9
			C243.9,381.8,244.3,381.8,244.6,381.9z"/>
		<path class="st0-pink" d="M283.9,399.4h1.8c0.7,0,1.2-0.1,1.6-0.2c0.4-0.2,0.8-0.4,1.2-0.9l13.6-15.2c0.4-0.4,0.8-0.9,1.2-1
			c0.5-0.2,1-0.2,1.6-0.2h4.7l-15.7,17.4c-0.8,0.9-1.5,1.5-2.2,1.9c0.5,0.2,0.9,0.4,1.2,0.8c0.3,0.3,0.7,0.8,1,1.3l11.8,19.1h-4.8
			c-0.7,0-1.2-0.1-1.6-0.3c-0.3-0.2-0.6-0.4-0.8-0.9l-10.2-15.9c-0.2-0.4-0.6-0.8-1-1c-0.3-0.2-1-0.3-1.8-0.3h-2.4l-2.2,18.4h-5.5
			l4.9-40.5h5.6L283.9,399.4z"/>
		<path class="st0-pink" d="M344.1,408.8c0.1,0.4,0.2,0.8,0.3,1.2c0.2-0.4,0.3-0.8,0.6-1.2s0.4-0.8,0.7-1.2l15.5-25
			c0.1-0.2,0.3-0.3,0.4-0.5c0.1-0.1,0.2-0.2,0.4-0.3c0.1-0.1,0.3-0.1,0.5-0.1c0.2,0,0.4,0,0.7,0h4.2l-4.9,40.4h-4.8l3.6-29.3
			c0.1-0.3,0.1-0.8,0.2-1.3c0.1-0.6,0.2-1,0.3-1.5l-15.4,25c-0.6,0.9-1.2,1.2-2.1,1.2h-0.9c-0.4,0-0.8-0.1-1.1-0.3
			c-0.3-0.2-0.6-0.6-0.7-0.9l-9.4-25c0,0.4,0,1-0.1,1.5c0,0.4,0,0.9-0.1,1.2l-3.6,29.5h-4.9l4.9-40.4h4.2c0.4,0,0.9,0,1.1,0.1
			s0.4,0.3,0.8,0.8l9.5,25C343.9,408,344,408.5,344.1,408.8z"/>
		<path class="st0-pink" d="M377.5,422.2h-5.6l4.9-40.4h5.6L377.5,422.2z"/>
		<path class="st0-pink" d="M398.3,400.6l-9.3-18.9h4.9c0.4,0,0.7,0.1,0.9,0.2c0.1,0.1,0.3,0.3,0.4,0.7l7,15c0.1-0.3,0.3-0.7,0.7-1.1
			l9.9-13.9c0.4-0.6,0.9-0.9,1.3-0.9h5.7l-14,18.6l10.6,21.9h-4.9c-0.4,0-0.7-0.1-0.9-0.3c-0.2-0.2-0.3-0.4-0.4-0.7l-8-17.4
			c-0.1,0.1-0.1,0.3-0.2,0.4c-0.1,0.1-0.1,0.3-0.2,0.4l-11.8,16.5c-0.4,0.7-1.1,1-1.8,1h-5.5L398.3,400.6z"/>
		<path id="XMLID_2_" class="st0-pink" d="M432.2,386.2l-0.2-0.1c-0.8-0.2-1.5-0.7-2-1.5c-0.3-0.5-0.6-0.9-0.8-1.5L429,383l-0.2-0.1v-1.1
			l0.2-0.2l0,0c0.4-1,0.9-2,1.3-2.9c1.2-2.5,2.7-4.8,4.6-7.4c1.5-1.9,2.9-3.7,4.4-5.4c0.5-0.6,1.8-1.9,1.8-1.9l-1.6-1.9
			c-0.6-0.8-1.2-1.5-1.7-2.2c-1.1-1.7-1.8-3.6-2.2-5.6c-0.4-1.8-0.6-3.7-0.4-5.6c0.2-4.4,1.8-8.3,4.4-11.7c0.7-0.9,1.6-1.8,2.6-2.7
			c2-1.8,4.3-3.5,6.7-5.1c2-1.2,4.2-2.6,6.6-3.9l6.6-3.8c2.4-1.3,4.5-2.7,6.6-4c1.9-1.3,3.6-2.6,5.1-3.8c1.5-1.2,2.9-2.7,4.3-4.3
			c1.3-1.6,2.6-3.1,3.5-4.7l0.1-0.2c0.1-0.2,0.3-0.4,0.4-0.7s0.3-0.6,0.6-0.8l0.2-0.2c0,0,0.4-0.2,0.9-0.1c0.5,0.1,0.7,0.7,0.7,0.7
			s0.2,0.8,0.2,1.3c0,0.6-0.1,1.3-0.2,1.9l-0.2,1.8c0,0.6-0.1,1.1-0.1,1.7c0,0-0.9,8.9-1,9.5l-0.1,1.5c0,0.7-0.1,1.5-0.2,2.1
			c0,0.4-0.1,0.9-0.1,1.5l-0.8,8.2c0,0.4-0.1,1-0.1,1.5l-0.6,5.5c-0.1,0.6-0.3,2.4-0.3,2.4c-0.2,1.3-0.4,2.6-0.7,3.9
			c-0.4,2.2-1,4.3-1.7,6.2c-0.8,2.4-1.7,4.3-2.8,6.1c-1,1.6-2,2.9-3.3,4.2c-1.5,1.5-3.1,2.6-5.1,3.5c-1.3,0.7-2.8,1.1-4.3,1.5
			c-1.1,0.2-2.2,0.4-3.3,0.4c-1,0.1-2,0.1-3.1,0.1c-0.6,0-1.1,0-1.7,0s-1.1,0-1.7-0.1c-0.6,0-2.9-0.3-2.9-0.3s-1.2-0.2-1.7-0.2
			l-2.1-0.3l-2.6-0.4c-0.4,0.7-0.8,1.2-1.1,1.8c-0.8,1.3-1.6,2.8-2.4,4.5c-1.3,2.8-2.5,6-3.7,9.5c-0.2,0.9-0.6,1.8-0.8,2.6
			c-0.1,0.4-0.4,0.8-0.8,1c-0.6,0.2-1,0.4-1.6,0.6l-0.3,0.1C433.7,386.2,432.2,386.2,432.2,386.2z M439.1,370
			c-1.2,1.6-2.5,3.3-3.6,4.9c-1.5,2.2-2.5,4.2-3.4,6.1c-0.1,0.2-0.2,0.6-0.3,0.8l-0.2,0.6c0.1,0.1,0.2,0.5,0.6,0.8
			c0.2,0.3,0.6,0.5,0.9,0.6l0,0c0.3,0,0.7-0.1,1-0.2l0.1-0.3c0.2-0.8,0.6-1.7,0.8-2.5c1.1-3.5,2.4-6.6,3.7-9.4
			C438.8,370.6,438.9,370.3,439.1,370z M445.3,363.5c1.2,0.2,2.6,0.5,3.8,0.7c1.2,0.2,2.4,0.3,3.6,0.4c1,0.1,2.1,0.1,3.1,0.2
			c0.3,0,0.7,0,1,0c0.9,0,1.8,0,2.7-0.1c1-0.1,2-0.2,3-0.4c1.5-0.3,2.8-0.8,3.9-1.2c1.6-0.8,3-1.7,4.3-2.9c1-1,1.9-2.1,2.7-3.4
			c0.2-0.3,0.4-0.7,0.6-1l-25.1,0.9c-0.7,1.1-1.2,2.2-1.9,3.4C446.4,361.2,445.9,362.3,445.3,363.5z M441.5,338.5
			c-0.8,1.1-1.6,2.4-2.1,3.7c-1,2.2-1.6,4.7-1.6,7.3c0,1.5,0.1,2.7,0.4,3.9c0.3,1.6,0.9,2.9,1.7,4.3c0.6,0.8,1.1,1.7,1.9,2.6
			c0.2,0.3,1.5,1.8,1.6,1.9c0,0,0.6-1.1,0.9-1.6l1.5-2.7l1.3-2.4L441.5,338.5z M456.1,345.6c-0.7,1-1.5,1.9-2.1,2.9
			c-0.9,1.3-1.7,2.7-2.5,4c-0.3,0.4-0.6,1-0.9,1.5c0,0,19.9-0.7,21-0.8c0.4,0,3.8-0.1,3.8-0.1c1.1-2.7,2-5.6,2.7-9.2L456.1,345.6z
			 M443.4,336.4c0.7,2.2,3.8,12.2,5.1,16.1l1-1.8c1.2-2.1,2.7-4.3,4-6.2l0.2-0.3l-3.1-13.2C447.9,332.7,445.5,334.5,443.4,336.4z
			 M464.6,335.4l-0.1,0.2l-1,1.1c-1.3,1.5-2.7,2.9-3.9,4.5c-0.4,0.6-0.9,1.1-1.3,1.7l20.2-1.5l0.1-0.7c0.1-0.8,0.2-1.5,0.2-2.2
			c0.1-0.8,0.4-4.6,0.4-4.6C479.2,333.8,465.4,335.3,464.6,335.4z M455.9,341.7c1-1.2,2-2.5,3-3.6c1.2-1.5,2.6-2.9,3.8-4.4l-0.2-2.4
			l-0.9-6.7c-0.9,0.6-5.1,2.8-5.1,2.8c-1,0.6-2.1,1.2-3.1,1.8l-0.3,0.2C453.6,332,455.9,341.7,455.9,341.7z M473.5,326.7
			c-0.4,0.1-0.9,0.1-1.3,0.2c-1.3,1.7-2.8,3.3-4.3,4.9l-0.6,0.6c0,0,10.7-1.1,11.2-1.1c0.3,0,0.7-0.1,1-0.1c0.1-1.2,0.4-4,0.6-5.5
			L473.5,326.7z M463.9,323.4c0.2,1.7,0.4,3.4,0.7,5.1l0.3,2.9c0.4-0.6,1-1.1,1.6-1.7c1.2-1.5,2.6-2.9,3.8-4.4l-0.9-5.3l-0.9,0.6
			C467,321.6,465.4,322.5,463.9,323.4z M481.2,312.9c-0.3,1-0.7,1.8-1,2.4c-1.3,2.6-3,5.1-4.9,7.5c-0.3,0.3-0.6,0.8-0.9,1.1l5.8-0.9
			L481.2,312.9z M472.4,322.7c1.1-1.3,2-2.7,2.8-3.9c1.6-2.4,2.9-4.6,4-6.8c-0.1,0.1-0.3,0.3-0.4,0.4c-1,1.1-2.2,2.2-3.4,3.3
			c-1.2,1-2.5,1.9-3.7,2.8C471.7,318.5,472.4,322.7,472.4,322.7z"/>
	</g>
</g>
</svg>
