<?xml version="1.0" encoding="utf-8"?>
<!-- Generator: Adobe Illustrator 19.0.0, SVG Export Plug-In . SVG Version: 6.00 Build 0)  -->
<svg version="1.2" baseProfile="tiny" id="Layer_1" xmlns="http://www.w3.org/2000/svg" xmlns:xlink="http://www.w3.org/1999/xlink"
	 x="0px" y="0px" viewBox="0 0 375.1 157.7" xml:space="preserve">
<path fill="#E472AC" d="M14.42,16.65c0.22,0.02,0.42,0.1,0.6,0.2c0.16,0.09,0.32,0.23,0.46,0.4c0.13,0.17,0.28,0.42,0.43,0.73
	l16.28,32.42c0.03-0.63,0.07-1.26,0.12-1.86c0.05-0.6,0.1-1.16,0.16-1.7l3.23-30.27h6.61l-5.12,47.52l-3.84,0.01
	c-0.58,0-1.06-0.11-1.46-0.32c-0.41-0.22-0.74-0.59-1.02-1.16L14.69,30.2c-0.04,0.52-0.08,1.03-0.12,1.53
	c-0.04,0.5-0.07,0.97-0.12,1.41L11.2,64.12l-6.61,0l5.1-47.53h3.91C13.93,16.6,14.21,16.61,14.42,16.65z"/>
<path fill="#E472AC" d="M78.41,64.05h-5.8c-0.65,0-1.17-0.17-1.55-0.53c-0.4-0.33-0.64-0.81-0.73-1.4L68.6,52.2l-15.56,0.01
	l-3.85,9.93c-0.22,0.51-0.56,0.96-1.03,1.35c-0.49,0.39-1.02,0.59-1.61,0.59l-5.89,0.02l20.12-47.56h7.64L78.41,64.05z M55.37,46.19
	l12.14-0.01l-2.84-16.27c-0.16-0.79-0.32-1.62-0.46-2.49c-0.16-0.89-0.3-1.87-0.45-2.96c-0.36,1.09-0.71,2.11-1.07,3.04
	c-0.36,0.93-0.69,1.74-0.99,2.44L55.37,46.19z"/>
<path fill="#E472AC" d="M109.82,16.49l-0.76,6.99L97.63,23.5l-4.35,40.52l-7.43,0.01l4.32-40.53l-11.46,0.03l0.74-7L109.82,16.49z"
	/>
<path fill="#E472AC" d="M125.42,57.15c1.35,0,2.58-0.3,3.71-0.87c1.13-0.59,2.1-1.41,2.95-2.47c0.84-1.06,1.54-2.35,2.08-3.83
	c0.55-1.48,0.93-3.14,1.11-4.97l3.07-28.57l7.47,0l-3.03,28.57c-0.31,2.79-0.95,5.41-1.96,7.79c-1,2.37-2.28,4.45-3.84,6.18
	c-1.57,1.74-3.39,3.08-5.48,4.06c-2.09,0.98-4.37,1.47-6.85,1.47c-2.25,0.01-4.25-0.39-6-1.19c-1.74-0.81-3.23-1.92-4.43-3.36
	c-1.21-1.44-2.12-3.17-2.75-5.17c-0.62-2-0.94-4.21-0.94-6.63c0-0.99,0.06-2.03,0.17-3.11l3-28.56l7.5-0.02l-3.06,28.54
	c-0.05,0.41-0.07,0.82-0.08,1.21c-0.02,0.4-0.03,0.77-0.03,1.16c0,1.49,0.16,2.83,0.49,4.03c0.31,1.21,0.79,2.23,1.41,3.08
	c0.62,0.85,1.39,1.52,2.32,1.98C123.16,56.93,124.23,57.15,125.42,57.15z"/>
<path fill="#E472AC" d="M157.36,45.22l-2,18.72l-7.43,0.02l5.06-47.53l11.84-0.02c2.41,0,4.47,0.29,6.18,0.86
	c1.71,0.58,3.11,1.4,4.2,2.43c1.11,1.04,1.91,2.28,2.43,3.73c0.52,1.45,0.79,3.02,0.79,4.76c0,1.84-0.22,3.56-0.68,5.17
	c-0.45,1.62-1.08,3.09-1.94,4.4c-0.84,1.33-1.89,2.46-3.11,3.46c-1.23,1-2.62,1.74-4.18,2.31c0.44,0.31,0.85,0.68,1.21,1.1
	c0.37,0.45,0.69,0.97,0.95,1.59l7.46,17.7h-6.72c-0.64,0-1.17-0.13-1.6-0.44c-0.44-0.29-0.76-0.71-0.97-1.25l-6.12-15.41
	c-0.24-0.57-0.52-0.98-0.85-1.23c-0.34-0.25-0.86-0.37-1.58-0.37H157.36z M159.77,23l-1.75,16.13h4.33c1.5,0,2.79-0.25,3.89-0.75
	c1.08-0.5,1.98-1.17,2.67-2.04c0.7-0.86,1.23-1.88,1.57-3.03c0.34-1.16,0.52-2.42,0.52-3.75c-0.01-2.06-0.56-3.67-1.68-4.83
	c-1.11-1.15-2.84-1.73-5.16-1.73L159.77,23z"/>
<path fill="#E472AC" d="M216.26,63.88l-5.8,0.02c-0.65,0-1.18-0.18-1.57-0.53c-0.38-0.35-0.63-0.82-0.72-1.4l-1.74-9.93l-15.55,0.01
	l-3.84,9.93c-0.22,0.49-0.57,0.95-1.04,1.34c-0.48,0.41-1.03,0.6-1.62,0.6h-5.87l20.11-47.55l7.65-0.01L216.26,63.88z M193.22,46.04
	l12.14-0.03l-2.84-16.25c-0.15-0.8-0.31-1.63-0.46-2.5c-0.15-0.88-0.3-1.86-0.44-2.96c-0.36,1.1-0.72,2.11-1.08,3.05
	c-0.36,0.93-0.68,1.74-0.99,2.43L193.22,46.04z"/>
<path fill="#E472AC" d="M227.81,56.8l15.17-0.01l-0.7,7.06l-22.69,0.02l5.09-47.52l7.49-0.03L227.81,56.8z"/>
<path fill="#E472AC" d="M31.24,86.29c0,2.04-0.21,3.97-0.64,5.78c-0.42,1.81-1.03,3.47-1.82,4.99c-0.79,1.51-1.75,2.88-2.87,4.09
	c-1.12,1.21-2.39,2.24-3.78,3.08c-1.4,0.84-2.91,1.48-4.54,1.93s-3.35,0.68-5.17,0.68H0l4.42-36.05h12.41
	c2.21,0,4.21,0.38,5.99,1.13c1.78,0.75,3.29,1.82,4.54,3.19c1.25,1.37,2.2,3.01,2.87,4.91C30.9,81.92,31.24,84.01,31.24,86.29z
	 M26.11,86.41c0-1.77-0.22-3.38-0.66-4.81c-0.44-1.43-1.08-2.65-1.92-3.66c-0.84-1-1.86-1.78-3.07-2.31
	c-1.21-0.54-2.57-0.8-4.11-0.8H8.94l-3.44,27.96h7.42c1.96,0,3.75-0.38,5.37-1.13c1.61-0.75,3-1.83,4.17-3.24
	c1.17-1.41,2.07-3.12,2.71-5.15C25.8,91.25,26.11,88.96,26.11,86.41z"/>
<path fill="#E472AC" d="M42.09,91.89l-1.82,14.95h-4.94l4.39-36.05h9.54c1.93,0,3.6,0.21,5.01,0.62s2.57,0.99,3.48,1.75
	c0.92,0.75,1.59,1.67,2.03,2.74c0.44,1.07,0.66,2.26,0.66,3.57c0,1.44-0.21,2.79-0.64,4.04c-0.42,1.26-1.04,2.38-1.83,3.37
	s-1.77,1.84-2.91,2.55c-1.14,0.71-2.43,1.24-3.86,1.6c0.58,0.38,1.06,0.92,1.42,1.61l7.49,14.22H55.7c-0.9,0-1.51-0.35-1.82-1.05
	l-6.49-12.76c-0.22-0.42-0.47-0.71-0.75-0.88c-0.28-0.17-0.73-0.25-1.35-0.25H42.09z M44.22,74.73l-1.67,13.52h4.45
	c1.4,0,2.63-0.2,3.69-0.6c1.07-0.4,1.95-0.96,2.66-1.67c0.7-0.71,1.24-1.56,1.61-2.54c0.37-0.98,0.55-2.05,0.55-3.2
	c0-1.78-0.56-3.14-1.67-4.08c-1.12-0.95-2.79-1.42-5.02-1.42H44.22z"/>
<path fill="#E472AC" d="M69.61,106.84h-5.02l4.39-36.05h4.99L69.61,106.84z"/>
<path fill="#E472AC" d="M85.96,70.94c0.2,0.1,0.41,0.34,0.62,0.7l15.21,27.05c0.03-0.42,0.07-0.81,0.1-1.18
	c0.03-0.37,0.07-0.72,0.1-1.05l3.14-25.67h4.39l-4.42,36.05h-2.5c-0.4,0-0.72-0.07-0.97-0.21c-0.25-0.14-0.49-0.38-0.72-0.72
	l-15.18-27l-0.15,1.83l-3.17,26.1h-4.39l4.42-36.05h2.57C85.44,70.79,85.76,70.84,85.96,70.94z"/>
<path fill="#E472AC" d="M120.97,86.54h1.62c0.58,0,1.06-0.08,1.43-0.24c0.37-0.16,0.74-0.43,1.09-0.82l12.06-13.54
	c0.37-0.45,0.74-0.76,1.14-0.92c0.39-0.16,0.85-0.24,1.38-0.24h4.25l-14.03,15.5c-0.66,0.79-1.33,1.34-2,1.66
	c0.43,0.17,0.81,0.4,1.13,0.69c0.32,0.29,0.6,0.68,0.85,1.17l10.51,17.03h-4.3c-0.65,0-1.11-0.09-1.37-0.28
	c-0.27-0.19-0.49-0.44-0.67-0.78l-9.06-14.22c-0.25-0.44-0.54-0.74-0.89-0.92c-0.34-0.18-0.86-0.26-1.56-0.26h-2.05l-2,16.45h-4.94
	l4.39-36.07h4.97L120.97,86.54z"/>
<path fill="#E472AC" d="M174.67,94.97c0.1,0.36,0.19,0.72,0.27,1.09c0.17-0.37,0.34-0.73,0.51-1.08c0.17-0.35,0.37-0.7,0.59-1.05
	l13.81-22.28c0.15-0.19,0.29-0.33,0.41-0.44c0.12-0.11,0.25-0.2,0.39-0.26c0.13-0.07,0.28-0.11,0.44-0.13
	c0.16-0.02,0.35-0.03,0.56-0.03h3.72l-4.42,36.05h-4.34l3.2-26.07c0.05-0.35,0.11-0.74,0.19-1.17c0.08-0.43,0.16-0.86,0.27-1.29
	l-13.68,22.28c-0.46,0.75-1.11,1.13-1.92,1.13h-0.7c-0.38,0-0.72-0.1-1.01-0.29c-0.29-0.19-0.5-0.47-0.64-0.84l-8.44-22.31
	c-0.02,0.44-0.04,0.86-0.05,1.28c-0.02,0.42-0.04,0.8-0.08,1.13l-3.17,26.15h-4.39l4.42-36.05h3.67c0.43,0,0.75,0.05,0.96,0.15
	c0.21,0.1,0.43,0.34,0.66,0.7l8.46,22.28C174.46,94.26,174.57,94.61,174.67,94.97z"/>
<path fill="#E472AC" d="M204.41,106.84h-5.02l4.39-36.05h4.99L204.41,106.84z"/>
<path fill="#E472AC" d="M222.85,87.59l-8.34-16.81h4.49c0.37,0,0.62,0.05,0.77,0.16c0.15,0.11,0.29,0.3,0.42,0.56l6.24,13.39
	c0.13-0.29,0.32-0.61,0.55-0.98l8.84-12.38c0.35-0.5,0.76-0.75,1.22-0.75h5.14l-12.46,16.58l9.37,19.47h-4.45
	c-0.37,0-0.64-0.1-0.82-0.29c-0.19-0.19-0.33-0.41-0.45-0.64l-7.11-15.52c-0.07,0.13-0.14,0.27-0.21,0.4
	c-0.07,0.13-0.15,0.26-0.24,0.38l-10.54,14.74c-0.43,0.62-0.98,0.93-1.65,0.93h-4.94L222.85,87.59z"/>
<path id="XMLID_41_" fill="#E472AC" d="M253.09,74.81l-0.16-0.1c-0.71-0.2-1.34-0.64-1.83-1.31c-0.28-0.38-0.5-0.8-0.68-1.28
	l-0.08-0.23l-0.23-0.05v-1.04l0.17-0.18l-0.02-0.01c0.36-0.92,0.78-1.79,1.2-2.65c1.09-2.17,2.43-4.34,4.09-6.64
	c1.26-1.73,2.58-3.33,3.91-4.76c0.43-0.46,1.65-1.7,1.65-1.7l-1.4-1.72c-0.55-0.66-1.07-1.33-1.54-2.05c-0.95-1.47-1.64-3.16-2.03-5
	c-0.35-1.64-0.47-3.34-0.37-5.04c0.24-3.89,1.56-7.38,3.93-10.38c0.65-0.79,1.39-1.56,2.29-2.35c1.81-1.61,3.77-3.09,6-4.51
	c1.79-1.14,3.73-2.29,5.93-3.52l5.93-3.35c2.13-1.2,4.05-2.37,5.86-3.59c1.73-1.17,3.22-2.29,4.54-3.39
	c1.29-1.09,2.57-2.37,3.79-3.8c1.23-1.43,2.26-2.82,3.13-4.25l0.14-0.24c0.13-0.22,0.26-0.43,0.37-0.65
	c0.13-0.23,0.28-0.48,0.54-0.7l0.19-0.16c0,0,0.38-0.21,0.75-0.13s0.6,0.58,0.6,0.58s0.24,0.73,0.19,1.2s-0.12,1.21-0.17,1.67
	l-0.16,1.61c-0.05,0.51-0.1,1.01-0.14,1.52c0,0-0.8,7.91-0.85,8.52l-0.14,1.28c-0.05,0.62-0.12,1.27-0.18,1.9
	c-0.05,0.42-0.09,0.84-0.11,1.27l-0.71,7.27c-0.05,0.43-0.09,0.86-0.12,1.28l-0.47,4.92c-0.06,0.54-0.26,2.15-0.26,2.15
	c-0.16,1.17-0.36,2.33-0.59,3.46c-0.43,2.03-0.91,3.81-1.48,5.46c-0.72,2.07-1.53,3.84-2.48,5.43c-0.85,1.43-1.8,2.65-2.88,3.72
	c-1.29,1.26-2.75,2.27-4.45,3.07c-1.2,0.57-2.48,1-3.82,1.3c-1.02,0.22-1.96,0.37-2.86,0.44c-0.9,0.09-1.83,0.14-2.75,0.14
	c-0.51,0-1.02-0.01-1.53-0.04c-0.48-0.01-0.98-0.04-1.47-0.08c-0.52-0.05-2.63-0.27-2.63-0.27s-1.13-0.16-1.46-0.21l-1.88-0.31
	l-2.29-0.43c-0.42,0.56-0.73,1.05-1.04,1.56c-0.72,1.17-1.42,2.48-2.14,4.04c-1.16,2.49-2.24,5.27-3.3,8.49
	c-0.25,0.78-0.49,1.56-0.73,2.35c-0.12,0.41-0.36,0.71-0.73,0.9c-0.47,0.25-0.91,0.42-1.35,0.51l-0.29,0.08H253.09z M259.3,60.33
	c-1.15,1.39-2.24,2.86-3.25,4.38c-1.28,1.97-2.25,3.69-3.03,5.41c-0.12,0.23-0.21,0.45-0.3,0.67l-0.21,0.5
	c0.11,0.06,0.25,0.41,0.46,0.68c0.23,0.3,0.48,0.44,0.82,0.47l0,0c0.32,0,0.62-0.07,0.95-0.21l0.08-0.28
	c0.23-0.74,0.47-1.48,0.72-2.22c1.03-3.11,2.11-5.87,3.3-8.42C259,60.97,259.15,60.64,259.3,60.33z M264.78,54.57
	c1.14,0.21,2.29,0.42,3.44,0.61c1.07,0.17,2.15,0.31,3.23,0.43c0.91,0.08,1.85,0.15,2.78,0.19c0.3,0.01,0.61,0.01,0.92,0.01
	c0.8,0,1.59-0.03,2.38-0.1c0.94-0.07,1.84-0.2,2.69-0.39c1.27-0.27,2.45-0.66,3.5-1.15c1.44-0.66,2.72-1.53,3.78-2.57
	c0.9-0.87,1.7-1.88,2.4-3c0.19-0.3,0.37-0.61,0.55-0.92l-22.36,0.81c-0.57,1-1.14,2.01-1.69,3.03
	C265.83,52.52,265.3,53.54,264.78,54.57z M261.36,32.3c-0.72,0.98-1.4,2.09-1.94,3.32c-0.9,2.02-1.35,4.22-1.35,6.53
	c0,1.29,0.12,2.44,0.37,3.51c0.29,1.38,0.78,2.64,1.46,3.75c0.45,0.73,0.99,1.47,1.66,2.26c0.23,0.26,1.28,1.55,1.36,1.66
	c0,0,0.5-0.99,0.75-1.45l1.31-2.44l1.2-2.12L261.36,32.3z M274.35,38.61c-0.63,0.86-1.27,1.74-1.9,2.64
	c-0.78,1.16-1.5,2.37-2.22,3.59c-0.26,0.44-0.52,0.88-0.78,1.31c0,0,17.74-0.64,18.73-0.68c0.44-0.01,3.42-0.12,3.42-0.12
	c1-2.37,1.78-5.05,2.36-8.16L274.35,38.61z M263.13,30.49c0.61,1.97,3.44,10.88,4.55,14.29l0.94-1.61c1.13-1.93,2.36-3.78,3.65-5.5
	l0.22-0.3l-2.83-11.79C267.13,27.17,264.99,28.78,263.13,30.49z M282.01,29.51l-0.07,0.16l-0.88,0.99
	c-1.18,1.32-2.37,2.65-3.53,4.02c-0.41,0.5-0.83,1-1.24,1.51l18.04-1.3l0.08-0.6c0.08-0.66,0.16-1.33,0.23-1.99
	c0.07-0.7,0.38-4.14,0.38-4.14C294.96,28.15,282.67,29.43,282.01,29.51z M274.23,35.14c0.88-1.09,1.77-2.15,2.66-3.19
	c1.14-1.29,2.28-2.58,3.43-3.86l-0.25-2.08l-0.77-6c-0.83,0.47-4.54,2.53-4.54,2.53c-0.94,0.53-1.88,1.09-2.82,1.64l-0.3,0.18
	C272.18,26.58,274.23,35.14,274.23,35.14z M289.86,21.86c-0.4,0.06-0.81,0.13-1.22,0.18c-1.2,1.49-2.5,2.95-3.79,4.4l-0.48,0.53
	c0,0,9.55-0.99,10-1.05c0.3-0.02,0.59-0.05,0.87-0.08c0.12-1.07,0.36-3.57,0.47-4.86L289.86,21.86z M281.39,18.82
	c0.18,1.5,0.37,3,0.57,4.51l0.33,2.62c0.44-0.51,0.9-1.02,1.35-1.54c1.14-1.27,2.26-2.56,3.35-3.87l-0.75-4.68l-0.83,0.54
	C284.09,17.24,282.74,18.04,281.39,18.82z M296.84,9.57c-0.32,0.86-0.63,1.59-0.89,2.08c-1.25,2.28-2.73,4.54-4.4,6.74
	c-0.26,0.34-0.52,0.68-0.78,1.01l5.17-0.78L296.84,9.57z M288.87,18.22c0.97-1.25,1.79-2.36,2.54-3.46
	c1.42-2.08,2.59-4.08,3.57-6.09c-0.13,0.14-0.26,0.28-0.4,0.42c-0.94,1.02-1.96,1.99-3.03,2.88c-1.07,0.88-2.17,1.72-3.29,2.51
	C288.27,14.5,288.87,18.22,288.87,18.22z"/>
<g id="XMLID_59_" display="none">
	<path id="XMLID_70_" display="inline" fill="#414042" stroke="#414042" stroke-width="0.72" stroke-miterlimit="10" d="
		M189.93,110.72l0.37-0.07c1.34-0.27,2.59,1.24,3.74,4.53l5.79,11.47c0.29,0.29,0.52,0.41,0.72,0.37c1.8-1.23,3.65-3.47,5.57-6.7
		c1.92-3.23,3.75-5.52,5.5-6.87l0.12-0.02c0.79-0.16,1.51,0.26,2.18,1.24c0.09,0.44-1.42,2.76-4.53,6.96
		c-1.77,2.84-3.54,5-5.27,6.48l-0.1,0.14l0.02,0.13l0.84-0.3l0.88-0.18c4.84-0.97,9.95-1.61,15.33-1.92l1.26,0.51l0.05,0.25
		c0,2.06-0.7,3.23-2.13,3.52l-0.25,0.05c-1.9-0.56-6-0.21-12.29,1.05l-5.38,0.82l-0.02,0.52c0.14,0.69,0.99,3.01,2.56,6.97l1.4,3.71
		l0.09,0.49c0.01,1.03-0.39,1.63-1.19,1.79l-0.24,0.05c-1.45,0.29-2.49-0.66-3.15-2.84c-0.77-3.83-4.64-13.2-11.58-28.09l-0.99-2.59
		C189.26,111.6,189.49,111.11,189.93,110.72z"/>
	<path id="XMLID_67_" display="inline" fill="#414042" stroke="#414042" stroke-width="0.72" stroke-miterlimit="10" d="
		M224.63,109.81c1.66,0.17,2.61,0.83,2.85,2c3.72,16.35,6.09,24.72,7.11,25.12c0.32,1.58-0.16,2.62-1.43,3.12l-0.25,0.05
		c-1.61-0.31-2.58-1.27-2.9-2.89l-6.37-25.91C223.77,110.4,224.1,109.91,224.63,109.81z M223.2,96.95c0.97-0.2,1.73,0.16,2.3,1.05
		c0.57,0.89,0.3,1.77-0.79,2.64l-0.99,0.2c-0.69,0.14-1.25-0.31-1.69-1.33l-0.14-0.74C221.69,97.77,222.13,97.16,223.2,96.95z"/>
	<path id="XMLID_62_" display="inline" fill="#414042" stroke="#414042" stroke-width="0.72" stroke-miterlimit="10" d="
		M234.49,102.75c0.62-0.12,1.59-0.01,2.9,0.32c3.16-0.2,7.27-0.51,12.36-0.94c5.08-0.42,8.54-0.26,10.36,0.5
		c1.24,0.58,2.06,1.92,2.48,4.01c0.78,3.85-1.08,9.83-5.6,17.92c-1.88,2.88-4.39,6.14-7.57,9.77c-0.77,1.79-1.27,2.71-1.51,2.75
		l-0.74,0.15c-1.4,0.28-2.42-0.5-3.05-2.35c-2.15-7.3-4.15-13.92-6.01-19.85c-1.94-5.79-3.15-8.64-3.65-8.54
		c-1,0.2-1.56-0.07-1.72-0.81c-0.04-0.23,0.26-0.86,0.92-1.86C233.76,103.2,234.03,102.85,234.49,102.75z M238.75,106.67
		c3.19,10.03,5.23,16.42,6.13,19.17c0.78,1.31,1.55,3.22,2.32,5.72l0.39,0.05c1.18-0.63,3.6-4.12,7.25-10.51
		c3.65-6.38,5.06-11.01,4.26-13.88c-0.23-1.15-1.02-1.86-2.36-2.1c-1.77-0.43-5.98-0.19-12.61,0.73l-4.68,0.42L238.75,106.67z"/>
	<path id="XMLID_60_" display="inline" fill="#414042" stroke="#414042" stroke-width="0.72" stroke-miterlimit="10" d="
		M270.17,94.22c3.4-0.79,6.44-0.61,9.12,0.56c2.67,1.16,3.92,2.09,3.72,2.79c-0.2,0.7-0.58,1.01-1.13,0.94
		c-0.56-0.06-1.8-0.44-3.73-1.14c-1.93-0.69-4.12-0.8-6.57-0.3c-2.15,0.43-3.13,1.14-2.92,2.13l0.07,0.37
		c1.42,2.78,5.25,5.15,11.48,7.1l7.71,3.73c4.68,2.79,7.53,6.64,8.51,11.57c0.7,3.45,0.17,6.06-1.56,7.84
		c-1.74,1.77-3.94,2.93-6.61,3.46c-3.27,0.66-6.93,0.24-10.95-1.28c-4.97-2.01-7.96-5.62-9.01-10.82l-0.05-0.25
		c-0.64-4.42-0.39-6.75,0.78-6.99l0.75-0.15c1.32-0.26,2.16-0.13,2.52,0.4l0.06,0.25c0.09,0.45-0.46,1.81-1.64,4.06l0.13,1.26
		l0.36,1.86c1.56,4.55,4.87,7.24,9.93,8.06c5.05,0.82,8.53,0.41,10.43-1.22c1.91-1.63,2.4-4.41,1.47-8.36
		c-0.94-3.94-5.32-7.2-13.13-9.76l-4.3-1.46c-6.27-2.51-9.6-5.38-9.98-8.62C265.25,97.03,266.76,95.02,270.17,94.22z"/>
</g>
<g id="XMLID_152_">
	<path id="XMLID_153_" fill="#F06FBB" d="M143.34,150.7v-18.67h2.56v7.33c0.5-0.52,1.05-0.94,1.64-1.26
		c0.59-0.32,1.29-0.47,2.08-0.47c0.67,0,1.25,0.12,1.75,0.35s0.93,0.57,1.27,1c0.34,0.43,0.6,0.94,0.78,1.54
		c0.17,0.6,0.26,1.26,0.26,1.99v8.19h-2.54v-8.19c0-0.87-0.19-1.54-0.56-2.02c-0.38-0.48-0.95-0.72-1.72-0.72
		c-0.57,0-1.1,0.14-1.59,0.42c-0.49,0.28-0.94,0.66-1.37,1.13v9.37H143.34z"/>
	<path id="XMLID_155_" fill="#F06FBB" d="M160.45,154.35c-0.09,0.19-0.19,0.34-0.31,0.45c-0.12,0.11-0.31,0.16-0.56,0.16h-1.89
		l2.23-5.15l-4.95-12h2.22c0.21,0,0.38,0.05,0.49,0.16c0.11,0.1,0.2,0.23,0.26,0.37l2.89,7.3c0.14,0.42,0.26,0.84,0.36,1.26
		c0.06-0.22,0.13-0.43,0.2-0.64c0.07-0.21,0.14-0.42,0.22-0.63l2.77-7.29c0.06-0.15,0.15-0.28,0.28-0.38
		c0.13-0.1,0.27-0.15,0.43-0.15h2.04L160.45,154.35z"/>
	<path id="XMLID_157_" fill="#F06FBB" d="M177.19,150.7c-0.34,0-0.56-0.17-0.65-0.52l-0.23-1.39c-0.25,0.31-0.52,0.6-0.81,0.85
		c-0.29,0.26-0.59,0.48-0.92,0.66c-0.33,0.19-0.68,0.33-1.05,0.43c-0.37,0.1-0.77,0.15-1.2,0.15c-0.68,0-1.3-0.15-1.85-0.44
		s-1.03-0.71-1.43-1.27s-0.7-1.24-0.92-2.06c-0.22-0.82-0.33-1.76-0.33-2.82c0-0.96,0.12-1.85,0.36-2.66
		c0.24-0.82,0.59-1.52,1.04-2.13c0.45-0.6,1-1.07,1.65-1.41c0.65-0.34,1.37-0.51,2.17-0.51c0.71,0,1.32,0.12,1.82,0.36
		c0.5,0.24,0.95,0.57,1.34,1v-6.92h2.56v18.67H177.19z M173.18,148.7c0.65,0,1.21-0.15,1.68-0.44c0.47-0.29,0.91-0.72,1.32-1.27V141
		c-0.36-0.48-0.76-0.82-1.18-1.02c-0.42-0.2-0.89-0.3-1.38-0.3c-1,0-1.78,0.39-2.34,1.17c-0.56,0.78-0.84,1.93-0.84,3.45
		c0,0.79,0.06,1.47,0.19,2.02c0.13,0.56,0.31,1.02,0.55,1.37s0.53,0.61,0.87,0.77C172.37,148.62,172.76,148.7,173.18,148.7z"/>
	<path id="XMLID_160_" fill="#F06FBB" d="M181.85,150.7v-12.87h1.49c0.27,0,0.46,0.05,0.56,0.16s0.17,0.29,0.21,0.55l0.14,1.68
		c0.39-0.82,0.85-1.46,1.39-1.92s1.19-0.7,1.94-0.7c0.26,0,0.51,0.03,0.74,0.09c0.23,0.06,0.44,0.16,0.62,0.28l-0.18,2.04
		c-0.03,0.14-0.08,0.24-0.15,0.3s-0.16,0.08-0.27,0.08c-0.12,0-0.29-0.02-0.51-0.07c-0.22-0.05-0.46-0.07-0.7-0.07
		c-0.36,0-0.67,0.05-0.95,0.16s-0.52,0.27-0.74,0.48c-0.21,0.21-0.4,0.47-0.57,0.77s-0.32,0.65-0.46,1.03v8H181.85z"/>
	<path id="XMLID_162_" fill="#F06FBB" d="M198.27,150.7c-0.25,0-0.43-0.04-0.56-0.12c-0.13-0.08-0.23-0.24-0.32-0.49l-0.25-1.05
		c-0.31,0.3-0.61,0.57-0.92,0.79s-0.61,0.42-0.93,0.58c-0.32,0.16-0.67,0.28-1.03,0.36c-0.37,0.08-0.77,0.12-1.22,0.12
		c-0.49,0-0.95-0.07-1.37-0.21c-0.42-0.14-0.79-0.36-1.1-0.65s-0.55-0.65-0.73-1.08c-0.18-0.43-0.27-0.93-0.27-1.51
		c0-0.5,0.12-0.98,0.37-1.45c0.25-0.47,0.66-0.89,1.24-1.27c0.57-0.37,1.33-0.68,2.27-0.93c0.94-0.24,2.1-0.38,3.48-0.42v-0.86
		c0-0.93-0.19-1.61-0.56-2.07c-0.37-0.45-0.92-0.68-1.64-0.68c-0.49,0-0.9,0.07-1.24,0.2c-0.33,0.13-0.62,0.27-0.87,0.42
		s-0.46,0.29-0.65,0.42s-0.39,0.2-0.61,0.2c-0.17,0-0.32-0.05-0.45-0.15s-0.22-0.22-0.3-0.36l-0.46-0.88c1.37-1.35,3-2.03,4.9-2.03
		c0.7,0,1.32,0.12,1.86,0.36s1,0.58,1.37,1.02c0.37,0.44,0.65,0.96,0.84,1.56c0.19,0.6,0.29,1.27,0.29,2v8.17H198.27z
		 M193.81,149.01c0.67,0,1.24-0.13,1.72-0.4c0.48-0.27,0.95-0.65,1.4-1.14v-2.4c-0.91,0.04-1.68,0.12-2.31,0.24
		c-0.63,0.12-1.13,0.27-1.52,0.47c-0.39,0.19-0.67,0.42-0.84,0.67c-0.17,0.26-0.26,0.54-0.26,0.85c0,0.3,0.05,0.56,0.14,0.78
		c0.09,0.21,0.22,0.39,0.38,0.53s0.35,0.24,0.57,0.3C193.31,148.97,193.55,149.01,193.81,149.01z"/>
	<path id="XMLID_165_" fill="#F06FBB" d="M206.11,150.9c-1.01,0-1.78-0.3-2.32-0.9c-0.54-0.6-0.81-1.45-0.81-2.54v-7.49h-1.33
		c-0.14,0-0.27-0.05-0.37-0.15c-0.1-0.1-0.15-0.24-0.15-0.44v-1.1l1.96-0.3l0.56-3.72c0.04-0.14,0.11-0.26,0.2-0.35
		s0.22-0.13,0.38-0.13h1.31v4.23H214v12.69h-2.56v-10.73h-5.91v7.3c0,0.46,0.11,0.82,0.32,1.06c0.21,0.24,0.5,0.37,0.86,0.37
		c0.2,0,0.37-0.03,0.51-0.08c0.14-0.05,0.27-0.11,0.37-0.18s0.19-0.12,0.27-0.18c0.08-0.05,0.15-0.08,0.22-0.08
		c0.14,0,0.26,0.08,0.34,0.25l0.76,1.32c-0.4,0.37-0.86,0.65-1.4,0.85C207.24,150.8,206.68,150.9,206.11,150.9z M214.52,133.88
		c0,0.24-0.05,0.47-0.14,0.69c-0.09,0.21-0.22,0.4-0.37,0.57c-0.16,0.16-0.34,0.29-0.55,0.39c-0.21,0.1-0.43,0.15-0.66,0.15
		c-0.23,0-0.45-0.05-0.65-0.15c-0.2-0.1-0.38-0.23-0.54-0.39c-0.15-0.16-0.28-0.35-0.37-0.57s-0.14-0.44-0.14-0.69
		c0-0.25,0.05-0.49,0.14-0.71s0.21-0.42,0.37-0.58c0.15-0.16,0.33-0.29,0.54-0.39s0.42-0.15,0.65-0.15c0.23,0,0.45,0.05,0.66,0.15
		s0.39,0.23,0.55,0.39c0.16,0.16,0.28,0.36,0.37,0.58C214.47,133.39,214.52,133.63,214.52,133.88z"/>
	<path id="XMLID_168_" fill="#F06FBB" d="M222.46,137.63c0.9,0,1.71,0.16,2.43,0.47c0.73,0.31,1.34,0.75,1.85,1.32
		s0.91,1.27,1.18,2.08c0.28,0.82,0.42,1.73,0.42,2.75s-0.14,1.93-0.42,2.75c-0.28,0.82-0.67,1.51-1.18,2.09
		c-0.51,0.58-1.13,1.02-1.85,1.33s-1.54,0.47-2.43,0.47c-0.9,0-1.72-0.16-2.44-0.47c-0.73-0.31-1.35-0.75-1.86-1.33
		c-0.52-0.58-0.91-1.27-1.19-2.09c-0.28-0.82-0.42-1.73-0.42-2.75s0.14-1.93,0.42-2.75c0.28-0.82,0.67-1.51,1.19-2.08
		s1.14-1.01,1.86-1.32C220.74,137.78,221.56,137.63,222.46,137.63z M222.46,148.77c1.09,0,1.91-0.39,2.44-1.17
		c0.54-0.78,0.8-1.89,0.8-3.34c0-1.45-0.27-2.56-0.8-3.35c-0.53-0.79-1.35-1.18-2.44-1.18c-1.11,0-1.93,0.39-2.47,1.18
		c-0.54,0.79-0.81,1.9-0.81,3.35c0,1.45,0.27,2.56,0.81,3.34C220.53,148.38,221.35,148.77,222.46,148.77z"/>
	<path id="XMLID_171_" fill="#F06FBB" d="M230.79,150.7v-12.87h1.55c0.35,0,0.57,0.17,0.67,0.52l0.18,1.2
		c0.25-0.29,0.52-0.55,0.8-0.78c0.28-0.23,0.58-0.44,0.9-0.6c0.32-0.17,0.66-0.3,1.02-0.39c0.36-0.09,0.75-0.14,1.17-0.14
		c0.67,0,1.25,0.12,1.75,0.35s0.93,0.57,1.27,1c0.34,0.43,0.6,0.94,0.78,1.54c0.17,0.6,0.26,1.26,0.26,1.99v8.19h-2.54v-8.19
		c0-0.87-0.19-1.54-0.56-2.02c-0.38-0.48-0.95-0.72-1.72-0.72c-0.57,0-1.1,0.14-1.59,0.42c-0.49,0.28-0.94,0.66-1.37,1.13v9.37
		H230.79z"/>
	<path id="XMLID_173_" fill="#F06FBB" d="M256.43,135.94v5.27h4.72v2.04h-4.72v5.29h-2.08v-5.29h-4.7v-2.04h4.7v-5.27H256.43z"/>
	<path id="XMLID_175_" fill="#F06FBB" d="M272.85,133.94c0,0.24-0.05,0.48-0.14,0.69c-0.09,0.22-0.22,0.41-0.37,0.57
		c-0.16,0.16-0.34,0.29-0.55,0.39c-0.21,0.1-0.43,0.15-0.67,0.15c-0.23,0-0.45-0.05-0.65-0.15c-0.2-0.1-0.38-0.23-0.53-0.39
		c-0.15-0.16-0.27-0.36-0.36-0.57c-0.09-0.22-0.14-0.45-0.14-0.69c0-0.25,0.05-0.49,0.14-0.71s0.21-0.41,0.36-0.57
		c0.15-0.16,0.33-0.29,0.53-0.39s0.42-0.15,0.65-0.15c0.24,0,0.46,0.05,0.67,0.15s0.39,0.23,0.55,0.39
		c0.16,0.16,0.28,0.36,0.37,0.57C272.81,133.46,272.85,133.69,272.85,133.94z M272.43,137.83v12.87h-2.56v-12.87H272.43z"/>
	<path id="XMLID_178_" fill="#F06FBB" d="M275.65,150.7v-12.87h1.55c0.35,0,0.57,0.17,0.67,0.52l0.17,1.12
		c0.22-0.27,0.45-0.52,0.69-0.74s0.49-0.42,0.77-0.58c0.27-0.16,0.57-0.29,0.88-0.38c0.31-0.09,0.65-0.14,1.02-0.14
		c0.39,0,0.75,0.06,1.07,0.18c0.33,0.12,0.61,0.29,0.86,0.5c0.25,0.22,0.47,0.48,0.65,0.79c0.18,0.31,0.33,0.66,0.45,1.05
		c0.18-0.45,0.41-0.83,0.69-1.15c0.28-0.32,0.59-0.58,0.93-0.78c0.34-0.2,0.7-0.35,1.09-0.45c0.38-0.1,0.77-0.15,1.17-0.15
		c0.65,0,1.23,0.11,1.74,0.33c0.51,0.22,0.94,0.54,1.3,0.95c0.35,0.42,0.62,0.93,0.8,1.53c0.18,0.61,0.27,1.29,0.27,2.07v8.19h-2.56
		v-8.19c0-0.91-0.18-1.59-0.55-2.05c-0.37-0.46-0.91-0.69-1.63-0.69c-0.33,0-0.63,0.06-0.92,0.18s-0.54,0.29-0.75,0.52
		s-0.38,0.51-0.51,0.85c-0.12,0.34-0.18,0.74-0.18,1.19v8.19h-2.56v-8.19c0-0.94-0.18-1.63-0.54-2.08
		c-0.36-0.44-0.88-0.66-1.57-0.66c-0.48,0-0.92,0.13-1.32,0.38s-0.78,0.61-1.12,1.05v9.49H275.65z"/>
	<path id="XMLID_180_" fill="#F06FBB" d="M295.4,150.7v-12.87h1.55c0.35,0,0.57,0.17,0.67,0.52l0.17,1.12
		c0.22-0.27,0.45-0.52,0.69-0.74s0.49-0.42,0.77-0.58c0.27-0.16,0.57-0.29,0.88-0.38c0.31-0.09,0.65-0.14,1.02-0.14
		c0.39,0,0.75,0.06,1.07,0.18c0.33,0.12,0.61,0.29,0.86,0.5c0.25,0.22,0.47,0.48,0.65,0.79c0.18,0.31,0.33,0.66,0.45,1.05
		c0.18-0.45,0.41-0.83,0.69-1.15c0.28-0.32,0.59-0.58,0.93-0.78c0.34-0.2,0.7-0.35,1.09-0.45c0.38-0.1,0.77-0.15,1.17-0.15
		c0.65,0,1.23,0.11,1.74,0.33c0.51,0.22,0.94,0.54,1.3,0.95c0.35,0.42,0.62,0.93,0.8,1.53s0.27,1.29,0.27,2.07v8.19h-2.56v-8.19
		c0-0.91-0.18-1.59-0.55-2.05c-0.37-0.46-0.91-0.69-1.63-0.69c-0.33,0-0.63,0.06-0.92,0.18s-0.54,0.29-0.75,0.52
		s-0.38,0.51-0.51,0.85c-0.12,0.34-0.18,0.74-0.18,1.19v8.19h-2.56v-8.19c0-0.94-0.18-1.63-0.54-2.08
		c-0.36-0.44-0.88-0.66-1.57-0.66c-0.48,0-0.92,0.13-1.32,0.38s-0.78,0.61-1.12,1.05v9.49H295.4z"/>
	<path id="XMLID_182_" fill="#F06FBB" d="M317.58,137.83v8.19c0,0.87,0.19,1.54,0.56,2.02c0.38,0.48,0.95,0.72,1.72,0.72
		c0.56,0,1.09-0.14,1.58-0.41c0.49-0.27,0.94-0.65,1.37-1.13v-9.38h2.56v12.87h-1.55c-0.34,0-0.56-0.17-0.65-0.52l-0.19-1.2
		c-0.52,0.57-1.08,1.03-1.71,1.39c-0.62,0.35-1.35,0.53-2.17,0.53c-0.67,0-1.25-0.12-1.76-0.35c-0.51-0.24-0.93-0.57-1.28-1
		c-0.34-0.43-0.6-0.94-0.78-1.54c-0.17-0.6-0.26-1.26-0.26-1.99v-8.19H317.58z"/>
	<path id="XMLID_184_" fill="#F06FBB" d="M328.48,150.7v-12.87h1.55c0.35,0,0.57,0.17,0.67,0.52l0.18,1.2
		c0.25-0.29,0.52-0.55,0.8-0.78c0.28-0.23,0.58-0.44,0.9-0.6c0.32-0.17,0.66-0.3,1.02-0.39c0.36-0.09,0.75-0.14,1.17-0.14
		c0.67,0,1.25,0.12,1.75,0.35c0.5,0.24,0.93,0.57,1.27,1c0.34,0.43,0.6,0.94,0.78,1.54c0.17,0.6,0.26,1.26,0.26,1.99v8.19h-2.54
		v-8.19c0-0.87-0.19-1.54-0.56-2.02c-0.38-0.48-0.95-0.72-1.72-0.72c-0.57,0-1.1,0.14-1.59,0.42c-0.49,0.28-0.94,0.66-1.37,1.13
		v9.37H328.48z"/>
	<path id="XMLID_186_" fill="#F06FBB" d="M344.91,133.94c0,0.24-0.05,0.48-0.14,0.69c-0.09,0.22-0.22,0.41-0.37,0.57
		c-0.16,0.16-0.34,0.29-0.55,0.39c-0.21,0.1-0.43,0.15-0.67,0.15c-0.23,0-0.45-0.05-0.65-0.15c-0.2-0.1-0.38-0.23-0.53-0.39
		c-0.15-0.16-0.27-0.36-0.36-0.57c-0.09-0.22-0.14-0.45-0.14-0.69c0-0.25,0.05-0.49,0.14-0.71c0.09-0.22,0.21-0.41,0.36-0.57
		c0.15-0.16,0.33-0.29,0.53-0.39s0.42-0.15,0.65-0.15c0.24,0,0.46,0.05,0.67,0.15s0.39,0.23,0.55,0.39
		c0.16,0.16,0.28,0.36,0.37,0.57S344.91,133.69,344.91,133.94z M344.48,137.83v12.87h-2.56v-12.87H344.48z"/>
	<path id="XMLID_189_" fill="#F06FBB" d="M351.59,150.9c-1.01,0-1.78-0.3-2.32-0.9c-0.54-0.6-0.81-1.45-0.81-2.54v-7.49h-1.33
		c-0.14,0-0.27-0.05-0.37-0.15c-0.1-0.1-0.15-0.24-0.15-0.44v-1.1l1.96-0.3l0.56-3.72c0.04-0.14,0.11-0.26,0.2-0.35
		c0.09-0.09,0.22-0.13,0.38-0.13h1.31v4.23h3.37v1.96h-3.37v7.3c0,0.46,0.11,0.82,0.32,1.06c0.21,0.24,0.5,0.37,0.86,0.37
		c0.2,0,0.37-0.03,0.51-0.08s0.27-0.11,0.37-0.18c0.1-0.06,0.19-0.12,0.27-0.18c0.08-0.05,0.15-0.08,0.22-0.08
		c0.14,0,0.26,0.08,0.34,0.25l0.76,1.32c-0.4,0.37-0.86,0.65-1.4,0.85C352.72,150.8,352.16,150.9,351.59,150.9z"/>
	<path id="XMLID_191_" fill="#F06FBB" d="M360.47,154.35c-0.09,0.19-0.19,0.34-0.31,0.45c-0.12,0.11-0.31,0.16-0.57,0.16h-1.89
		l2.23-5.15l-4.95-12h2.22c0.21,0,0.38,0.05,0.49,0.16c0.11,0.1,0.2,0.23,0.25,0.37l2.89,7.3c0.14,0.42,0.26,0.84,0.36,1.26
		c0.06-0.22,0.13-0.43,0.2-0.64c0.07-0.21,0.14-0.42,0.22-0.63l2.77-7.29c0.05-0.15,0.15-0.28,0.28-0.38
		c0.13-0.1,0.27-0.15,0.43-0.15h2.04L360.47,154.35z"/>
</g>
<g id="XMLID_120_">
	<path id="XMLID_129_" fill="#414042" stroke="#414042" stroke-width="0.72" stroke-miterlimit="10" d="M247.72,91.26l0.39-0.08
		c1.42-0.28,2.73,1.31,3.94,4.78l6.1,12.08c0.3,0.31,0.55,0.43,0.76,0.39c1.89-1.3,3.85-3.65,5.87-7.06
		c2.02-3.41,3.95-5.82,5.8-7.24l0.13-0.02c0.83-0.17,1.59,0.27,2.3,1.31c0.09,0.46-1.5,2.91-4.78,7.34
		c-1.87,2.99-3.73,5.27-5.56,6.82l-0.1,0.15l0.02,0.14l0.88-0.32l0.92-0.19c5.1-1.02,10.49-1.7,16.16-2.02l1.33,0.54l0.06,0.27
		c0,2.17-0.74,3.41-2.25,3.71l-0.26,0.05c-2-0.59-6.32-0.22-12.95,1.11l-5.67,0.87l-0.02,0.55c0.14,0.73,1.04,3.17,2.7,7.34
		l1.47,3.91l0.1,0.52c0.01,1.09-0.41,1.71-1.25,1.88l-0.26,0.05c-1.53,0.3-2.62-0.69-3.32-3c-0.82-4.03-4.89-13.91-12.2-29.6
		l-1.04-2.73C247.01,92.19,247.26,91.67,247.72,91.26z"/>
	<path id="XMLID_126_" fill="#414042" stroke="#414042" stroke-width="0.72" stroke-miterlimit="10" d="M284.29,90.3
		c1.75,0.18,2.75,0.88,3,2.11c3.92,17.23,6.42,26.05,7.49,26.48c0.34,1.66-0.17,2.76-1.5,3.29l-0.26,0.05
		c-1.69-0.32-2.72-1.34-3.06-3.05l-6.71-27.31C283.39,90.93,283.73,90.41,284.29,90.3z M282.79,76.75c1.02-0.21,1.83,0.16,2.42,1.11
		c0.6,0.94,0.32,1.87-0.83,2.78l-1.04,0.21c-0.72,0.15-1.32-0.32-1.78-1.41l-0.15-0.78C281.19,77.61,281.65,76.97,282.79,76.75z"/>
	<path id="XMLID_123_" fill="#414042" stroke="#414042" stroke-width="0.72" stroke-miterlimit="10" d="M294.68,82.86
		c0.66-0.12,1.67-0.01,3.06,0.34c3.33-0.21,7.66-0.54,13.02-0.99c5.35-0.45,9-0.27,10.92,0.53c1.31,0.61,2.17,2.02,2.61,4.23
		c0.82,4.06-1.14,10.36-5.9,18.89c-1.98,3.04-4.63,6.47-7.97,10.29c-0.81,1.89-1.34,2.85-1.59,2.9l-0.79,0.16
		c-1.47,0.3-2.55-0.53-3.21-2.48c-2.27-7.7-4.38-14.67-6.33-20.92c-2.04-6.11-3.32-9.11-3.85-9c-1.05,0.21-1.64-0.07-1.81-0.86
		c-0.04-0.25,0.28-0.9,0.97-1.96C293.91,83.34,294.2,82.96,294.68,82.86z M299.17,86.99c3.36,10.57,5.51,17.31,6.46,20.21
		c0.82,1.38,1.64,3.39,2.45,6.03l0.41,0.06c1.24-0.66,3.79-4.35,7.64-11.08c3.85-6.72,5.34-11.6,4.49-14.63
		c-0.24-1.22-1.07-1.96-2.48-2.22c-1.87-0.45-6.3-0.2-13.29,0.77l-4.93,0.45L299.17,86.99z"/>
	<path id="XMLID_121_" fill="#414042" stroke="#414042" stroke-width="0.72" stroke-miterlimit="10" d="M332.28,73.87
		c3.59-0.83,6.79-0.64,9.61,0.59c2.82,1.22,4.13,2.2,3.92,2.94c-0.21,0.73-0.61,1.07-1.19,1c-0.59-0.07-1.89-0.46-3.93-1.2
		c-2.04-0.73-4.34-0.84-6.92-0.32c-2.27,0.45-3.29,1.2-3.08,2.25l0.07,0.39c1.5,2.93,5.53,5.42,12.1,7.48l8.12,3.93
		c4.94,2.94,7.93,7,8.97,12.2c0.73,3.64,0.18,6.39-1.64,8.26c-1.83,1.87-4.15,3.08-6.97,3.65c-3.44,0.7-7.3,0.25-11.54-1.35
		c-5.24-2.11-8.39-5.92-9.49-11.4l-0.05-0.26c-0.68-4.66-0.41-7.11,0.83-7.37l0.79-0.16c1.39-0.27,2.28-0.14,2.66,0.42l0.06,0.26
		c0.09,0.48-0.49,1.91-1.73,4.28l0.14,1.33l0.38,1.96c1.65,4.8,5.14,7.63,10.46,8.49c5.33,0.86,8.99,0.44,11-1.28
		c2.02-1.72,2.53-4.65,1.55-8.81c-0.99-4.16-5.61-7.59-13.84-10.29l-4.53-1.54c-6.61-2.64-10.12-5.67-10.52-9.08
		C327.09,76.83,328.69,74.71,332.28,73.87z"/>
</g>
<g id="XMLID_149_">
	<path id="XMLID_150_" fill="#F06FBB" d="M368.36,130.92c0-0.13,0.04-0.25,0.13-0.36c0.09-0.1,0.22-0.16,0.41-0.16
		c0.15,0,0.3,0.01,0.47,0.03c0.16,0.02,0.33,0.04,0.5,0.06c0.17,0.02,0.34,0.04,0.52,0.07s0.34,0.05,0.51,0.06l-0.16-3.16
		c0.17-0.1,0.37-0.15,0.6-0.15c0.24,0,0.44,0.05,0.6,0.15l-0.15,3.16c0.34-0.03,0.68-0.08,1.03-0.13c0.35-0.06,0.67-0.09,0.97-0.09
		c0.19,0,0.33,0.05,0.41,0.16s0.13,0.22,0.13,0.36v0.39h-2.54V134l0.15,5.03c-0.16,0.1-0.36,0.15-0.6,0.15
		c-0.23,0-0.43-0.05-0.6-0.15l0.16-5.03v-2.69h-2.54V130.92z"/>
</g>
<g id="XMLID_110_">
</g>
<g id="XMLID_117_">
</g>
<g id="XMLID_193_">
</g>
<g id="XMLID_194_">
</g>
<g id="XMLID_195_">
</g>
<g id="XMLID_196_">
</g>
</svg>
