<?xml version="1.0" encoding="utf-8"?>
<!-- Generator: Adobe Illustrator 19.0.0, SVG Export Plug-In . SVG Version: 6.00 Build 0)  -->
<svg version="1.1" id="Layer_1" xmlns="http://www.w3.org/2000/svg" xmlns:xlink="http://www.w3.org/1999/xlink" x="0px" y="0px"
	 viewBox="-58 280.2 493.7 233.8" style="enable-background:new -58 280.2 493.7 233.8;" xml:space="preserve">
<style type="text/css">
	.st0-k1{fill:#F06FBB;}
	.st1-k2{fill:#414042;stroke:#414042;stroke-width:0.72;stroke-miterlimit:10;}
</style>
<g id="XMLID_152_">
	<path id="XMLID_153_" class="st0-k1" d="M14.9,505.6v-34.5h4.7v13.5c0.9-1,2-1.7,3-2.4c1.1-0.6,2.4-0.9,3.8-0.9c1.2,0,2.4,0.2,3.2,0.6
		c0.9,0.4,1.7,1,2.4,1.9c0.6,0.7,1.1,1.7,1.5,2.9c0.4,1.1,0.5,2.4,0.5,3.7v15.1h-4.7v-15.1c0-1.6-0.4-2.9-1-3.7
		c-0.7-0.9-1.7-1.4-3.2-1.4c-1,0-2,0.2-3,0.7c-0.9,0.5-1.7,1.2-2.5,2.1v17.3L14.9,505.6L14.9,505.6L14.9,505.6z"/>
	<path id="XMLID_155_" class="st0-k1" d="M46.6,512.5c-0.1,0.4-0.4,0.6-0.6,0.9c-0.2,0.2-0.6,0.2-1,0.2h-3.5l4.1-9.6l-9.2-22.1h4.1
		c0.4,0,0.7,0.1,0.9,0.2s0.4,0.4,0.5,0.7l5.3,13.5c0.2,0.7,0.5,1.5,0.6,2.4c0.1-0.4,0.2-0.7,0.4-1.2c0.1-0.4,0.2-0.7,0.4-1.1
		l5.1-13.4c0.1-0.2,0.2-0.5,0.5-0.7c0.2-0.1,0.5-0.2,0.7-0.2h3.7L46.6,512.5z"/>
	<path id="XMLID_157_" class="st0-k1" d="M77.5,505.6c-0.6,0-1-0.4-1.2-1l-0.4-2.6c-0.5,0.6-1,1.1-1.5,1.6s-1.1,0.9-1.7,1.2
		c-0.6,0.4-1.2,0.6-2,0.7s-1.4,0.2-2.2,0.2c-1.2,0-2.4-0.2-3.5-0.9c-1.1-0.6-1.9-1.4-2.6-2.4s-1.2-2.2-1.7-3.9
		c-0.5-1.7-0.6-3.2-0.6-5.2c0-1.7,0.2-3.5,0.6-5c0.5-1.5,1.1-2.9,1.9-4c0.9-1.1,1.9-2,3.1-2.6c1.2-0.6,2.5-1,4-1
		c1.4,0,2.5,0.2,3.4,0.6c0.9,0.5,1.7,1,2.5,1.9v-12.8h4.7v34.5L77.5,505.6L77.5,505.6L77.5,505.6z M70,502c1.2,0,2.2-0.2,3.1-0.9
		c0.9-0.5,1.7-1.4,2.5-2.4v-11.1c-0.6-0.9-1.4-1.5-2.2-1.9c-0.7-0.4-1.6-0.5-2.6-0.5c-1.9,0-3.2,0.7-4.3,2.1c-1,1.5-1.5,3.6-1.5,6.3
		c0,1.5,0.1,2.7,0.4,3.7c0.2,1,0.6,1.9,1,2.5c0.5,0.6,1,1.1,1.6,1.4C68.6,501.8,69.3,502,70,502z"/>
	<path id="XMLID_160_" class="st0-k1" d="M86.1,505.6v-23.7h2.7c0.5,0,0.9,0.1,1,0.2c0.1,0.2,0.4,0.5,0.4,1l0.2,3.1
		c0.7-1.5,1.6-2.7,2.6-3.6s2.2-1.2,3.6-1.2c0.5,0,1,0,1.4,0.1c0.4,0.1,0.9,0.2,1.1,0.5l-0.4,3.7c0,0.2-0.1,0.5-0.2,0.5
		c-0.1,0.1-0.2,0.1-0.5,0.1c-0.2,0-0.5,0-1-0.1c-0.4-0.1-0.9-0.1-1.2-0.1c-0.6,0-1.2,0.1-1.7,0.2c-0.5,0.2-1,0.5-1.4,0.9
		c-0.4,0.4-0.7,0.9-1,1.4c-0.2,0.5-0.6,1.2-0.9,1.9v14.8L86.1,505.6L86.1,505.6L86.1,505.6z"/>
	<path id="XMLID_162_" class="st0-k1" d="M116.4,505.6c-0.5,0-0.7-0.1-1-0.2c-0.2-0.1-0.4-0.5-0.6-0.9l-0.5-2c-0.6,0.5-1.1,1-1.7,1.5
		c-0.6,0.4-1.1,0.7-1.7,1.1c-0.6,0.4-1.2,0.5-1.9,0.6c-0.7,0.1-1.4,0.2-2.2,0.2c-0.9,0-1.7-0.1-2.5-0.4c-0.7-0.2-1.5-0.6-2-1.2
		s-1-1.2-1.4-2c-0.4-0.8-0.5-1.7-0.5-2.7c0-0.9,0.2-1.9,0.7-2.7s1.2-1.6,2.2-2.4c1-0.6,2.5-1.2,4.2-1.7s3.8-0.7,6.5-0.7v-1.6
		c0-1.7-0.4-3-1-3.9c-0.7-0.9-1.7-1.2-3-1.2c-0.9,0-1.6,0.1-2.2,0.4c-0.6,0.2-1.1,0.5-1.6,0.7s-0.9,0.5-1.2,0.7
		c-0.3,0.2-0.7,0.4-1.1,0.4c-0.4,0-0.6-0.1-0.9-0.2c-0.2-0.1-0.4-0.4-0.5-0.6l-0.9-1.6c2.5-2.5,5.6-3.7,9.1-3.7
		c1.2,0,2.5,0.2,3.5,0.6c1,0.5,1.9,1.1,2.5,1.9c0.7,0.9,1.2,1.7,1.5,2.9c0.4,1.1,0.5,2.4,0.5,3.7v15.1L116.4,505.6L116.4,505.6
		L116.4,505.6z M108.2,502.5c1.2,0,2.2-0.2,3.2-0.7c0.9-0.5,1.7-1.2,2.6-2.1v-4.3c-1.7,0.1-3.1,0.2-4.2,0.5
		c-1.1,0.2-2.1,0.5-2.9,0.9s-1.2,0.7-1.5,1.2c-0.4,0.5-0.5,1-0.5,1.6c0,0.5,0.1,1,0.2,1.5c0.1,0.4,0.4,0.7,0.7,1
		c0.2,0.2,0.6,0.5,1,0.5C107.2,502.5,107.7,502.5,108.2,502.5z"/>
	<path id="XMLID_165_" class="st0-k1" d="M130.9,506c-1.9,0-3.2-0.5-4.3-1.6c-1-1.1-1.5-2.7-1.5-4.7v-13.8h-2.5c-0.2,0-0.5-0.1-0.7-0.2
		c-0.1-0.1-0.2-0.5-0.2-0.9v-2l3.6-0.5l1-6.8c0.1-0.2,0.2-0.5,0.4-0.6c0.1-0.1,0.4-0.2,0.7-0.2h2.4v7.8h15.6V506h-4.7v-19.9h-10.9
		v13.5c0,0.9,0.2,1.5,0.6,2c0.4,0.5,0.9,0.6,1.6,0.6c0.4,0,0.7,0,1-0.1c0.2-0.1,0.5-0.2,0.7-0.4c0.1-0.1,0.4-0.2,0.5-0.4
		c0.1-0.1,0.2-0.1,0.4-0.1s0.5,0.1,0.6,0.5l1.4,2.5c-0.7,0.6-1.6,1.2-2.6,1.6C133,505.9,131.9,506,130.9,506z M146.4,474.6
		c0,0.5-0.1,0.9-0.2,1.2c-0.1,0.4-0.4,0.7-0.7,1c-0.2,0.2-0.6,0.5-1,0.7c-0.4,0.1-0.7,0.2-1.2,0.2c-0.4,0-0.9-0.1-1.2-0.2
		c-0.4-0.1-0.7-0.4-1-0.7c-0.2-0.2-0.5-0.6-0.7-1c-0.1-0.4-0.2-0.9-0.2-1.2s0.1-0.9,0.2-1.4c0.1-0.4,0.4-0.7,0.7-1.1
		c0.2-0.2,0.6-0.5,1-0.7c0.4-0.1,0.7-0.2,1.2-0.2c0.4,0,0.9,0.1,1.2,0.2c0.4,0.1,0.7,0.4,1,0.7c0.2,0.2,0.5,0.6,0.7,1.1
		C146.3,473.7,146.4,474.1,146.4,474.6z"/>
	<path id="XMLID_168_" class="st0-k1" d="M161.1,481.5c1.6,0,3.1,0.2,4.5,0.9c1.4,0.6,2.5,1.4,3.5,2.5s1.7,2.4,2.2,3.9s0.7,3.2,0.7,5.1
		s-0.2,3.6-0.7,5.1s-1.2,2.7-2.2,3.8s-2.1,1.9-3.5,2.5s-2.9,0.9-4.5,0.9s-3.2-0.2-4.5-0.9c-1.4-0.6-2.5-1.4-3.5-2.5
		s-1.7-2.4-2.2-3.8s-0.7-3.2-0.7-5.1s0.2-3.6,0.7-5.1s1.2-2.7,2.2-3.9c1-1.1,2.1-1.9,3.5-2.5C157.8,481.8,159.4,481.5,161.1,481.5z
		 M161.1,502.1c2,0,3.5-0.7,4.5-2.1c1-1.5,1.5-3.5,1.5-6.2s-0.5-4.7-1.5-6.2s-2.5-2.2-4.5-2.2c-2.1,0-3.6,0.7-4.6,2.2
		s-1.5,3.5-1.5,6.2s0.5,4.7,1.5,6.2C157.5,501.4,158.9,502.1,161.1,502.1z"/>
	<path id="XMLID_171_" class="st0-k1" d="M176.5,505.6v-23.7h2.9c0.6,0,1,0.4,1.2,1l0.4,2.2c0.5-0.5,1-1,1.5-1.5
		c0.5-0.4,1.1-0.9,1.6-1.1c0.6-0.4,1.2-0.5,1.9-0.7c0.6-0.1,1.4-0.2,2.1-0.2c1.2,0,2.4,0.2,3.2,0.6s1.7,1,2.4,1.9
		c0.6,0.7,1.1,1.7,1.5,2.9c0.4,1.1,0.5,2.4,0.5,3.7v15.1H191v-15.1c0-1.6-0.4-2.9-1-3.7c-0.7-0.9-1.7-1.4-3.2-1.4c-1,0-2,0.2-3,0.7
		c-0.9,0.5-1.7,1.2-2.5,2.1v17.3L176.5,505.6L176.5,505.6z"/>
	<path id="XMLID_173_" class="st0-k1" d="M223.8,478.4v9.7h8.7v3.7h-8.7v9.8h-3.9v-9.8h-8.7v-3.7h8.7v-9.7H223.8L223.8,478.4z"/>
	<path id="XMLID_175_" class="st0-k1" d="M254.1,474.7c0,0.5-0.1,0.9-0.2,1.2c-0.1,0.4-0.4,0.7-0.7,1c-0.2,0.2-0.6,0.5-1,0.7
		c-0.4,0.1-0.7,0.2-1.2,0.2c-0.4,0-0.9-0.1-1.2-0.2c-0.4-0.1-0.7-0.4-1-0.7c-0.2-0.2-0.5-0.6-0.6-1s-0.2-0.9-0.2-1.2
		c0-0.5,0.1-0.9,0.2-1.4c0.1-0.4,0.4-0.7,0.6-1c0.2-0.2,0.6-0.5,1-0.7c0.4-0.1,0.7-0.2,1.2-0.2s0.9,0.1,1.2,0.2
		c0.4,0.1,0.7,0.4,1,0.7c0.2,0.4,0.5,0.6,0.7,1C254.1,473.8,254.1,474.2,254.1,474.7z M253.3,481.9v23.7h-4.7v-23.7H253.3
		L253.3,481.9z"/>
	<path id="XMLID_178_" class="st0-k1" d="M259.3,505.6v-23.7h2.9c0.6,0,1,0.4,1.2,1l0.4,2.1c0.4-0.5,0.9-1,1.2-1.4
		c0.5-0.4,0.9-0.7,1.4-1.1c0.5-0.2,1-0.5,1.6-0.7c0.6-0.1,1.2-0.2,1.9-0.2c0.7,0,1.4,0.1,2,0.4c0.6,0.2,1.1,0.5,1.6,0.9
		s0.9,0.9,1.2,1.5c0.4,0.6,0.6,1.2,0.9,2c0.4-0.9,0.7-1.5,1.2-2.1s1.1-1.1,1.7-1.5s1.2-0.6,2-0.9c0.7-0.1,1.4-0.2,2.1-0.2
		c1.2,0,2.2,0.2,3.2,0.6s1.7,1,2.4,1.7c0.6,0.7,1.1,1.7,1.5,2.9c0.4,1.1,0.5,2.4,0.5,3.8v15.1h-4.7v-15.1c0-1.7-0.4-3-1-3.8
		c-0.7-0.9-1.7-1.2-3-1.2c-0.6,0-1.1,0.1-1.7,0.4c-0.5,0.2-1,0.5-1.4,1c-0.4,0.4-0.7,1-1,1.6c-0.2,0.6-0.4,1.4-0.4,2.2V506h-4.7
		v-15.1c0-1.7-0.4-3-1-3.8c-0.6-0.9-1.6-1.2-2.9-1.2c-0.9,0-1.7,0.2-2.5,0.7c-0.7,0.5-1.5,1.1-2.1,2v17.5L259.3,505.6L259.3,505.6
		L259.3,505.6z"/>
	<path id="XMLID_180_" class="st0-k1" d="M295.8,505.6v-23.7h2.9c0.6,0,1,0.4,1.2,1l0.4,2.1c0.4-0.5,0.9-1,1.2-1.4
		c0.5-0.4,0.9-0.7,1.4-1.1c0.5-0.2,1-0.5,1.6-0.7c0.6-0.1,1.2-0.2,1.9-0.2c0.7,0,1.4,0.1,2,0.4c0.6,0.2,1.1,0.5,1.6,0.9
		s0.9,0.9,1.2,1.5c0.4,0.6,0.6,1.2,0.9,2c0.4-0.9,0.7-1.5,1.2-2.1s1.1-1.1,1.7-1.5s1.2-0.6,2-0.9c0.7-0.1,1.4-0.2,2.1-0.2
		c1.2,0,2.2,0.2,3.2,0.6s1.7,1,2.4,1.7c0.6,0.7,1.1,1.7,1.5,2.9c0.4,1.1,0.5,2.4,0.5,3.8v15.1H322v-15.1c0-1.7-0.4-3-1-3.8
		s-1.7-1.2-3-1.2c-0.6,0-1.1,0.1-1.7,0.4c-0.5,0.2-1,0.5-1.4,1c-0.4,0.4-0.7,1-1,1.6c-0.2,0.6-0.4,1.4-0.4,2.2V506h-4.7v-15.1
		c0-1.7-0.4-3-1-3.8c-0.6-0.9-1.6-1.2-2.9-1.2c-0.9,0-1.7,0.2-2.5,0.7c-0.7,0.5-1.5,1.1-2.1,2v17.5L295.8,505.6L295.8,505.6
		L295.8,505.6z"/>
	<path id="XMLID_182_" class="st0-k1" d="M336.8,481.9V497c0,1.6,0.4,2.9,1,3.7c0.7,0.9,1.7,1.4,3.2,1.4c1,0,2-0.2,3-0.7
		s1.7-1.2,2.5-2.1v-17.4h4.7v23.7h-2.9c-0.6,0-1-0.4-1.2-1l-0.4-2.2c-1,1-2,1.9-3.1,2.6c-1.1,0.6-2.5,1-4,1c-1.2,0-2.4-0.2-3.2-0.6
		c-1-0.5-1.7-1-2.4-1.9c-0.6-0.7-1.1-1.7-1.5-2.9c-0.4-1.1-0.5-2.4-0.5-3.7v-15.1L336.8,481.9L336.8,481.9L336.8,481.9z"/>
	<path id="XMLID_184_" class="st0-k1" d="M356.9,505.6v-23.7h2.9c0.6,0,1,0.4,1.2,1l0.4,2.2c0.5-0.5,1-1,1.5-1.5
		c0.5-0.4,1.1-0.9,1.6-1.1c0.6-0.4,1.2-0.5,1.9-0.7c0.6-0.1,1.4-0.2,2.1-0.2c1.2,0,2.4,0.2,3.2,0.6c0.9,0.5,1.7,1,2.4,1.9
		c0.6,0.7,1.1,1.7,1.5,2.9c0.4,1.1,0.5,2.4,0.5,3.7v15.1h-4.7v-15.1c0-1.6-0.4-2.9-1-3.7c-0.7-0.9-1.7-1.4-3.2-1.4c-1,0-2,0.2-3,0.7
		c-0.9,0.5-1.7,1.2-2.5,2.1v17.3L356.9,505.6L356.9,505.6z"/>
	<path id="XMLID_186_" class="st0-k1" d="M387.2,474.7c0,0.5-0.1,0.9-0.2,1.2c-0.1,0.4-0.4,0.7-0.6,1c-0.2,0.2-0.6,0.5-1,0.7
		c-0.4,0.1-0.7,0.2-1.2,0.2c-0.4,0-0.9-0.1-1.2-0.2c-0.4-0.1-0.7-0.4-1-0.7c-0.2-0.2-0.5-0.6-0.6-1s-0.2-0.9-0.2-1.2
		c0-0.5,0.1-0.9,0.2-1.4c0.1-0.4,0.4-0.7,0.6-1c0.2-0.2,0.6-0.5,1-0.7c0.4-0.1,0.7-0.2,1.2-0.2s0.9,0.1,1.2,0.2
		c0.4,0.1,0.7,0.4,1,0.7c0.2,0.2,0.5,0.6,0.6,1S387.2,474.2,387.2,474.7z M386.4,481.9v23.7h-4.7v-23.7H386.4L386.4,481.9z"/>
	<path id="XMLID_189_" class="st0-k1" d="M399.6,506c-1.9,0-3.2-0.5-4.3-1.6c-1-1.1-1.5-2.7-1.5-4.7v-13.8h-2.5c-0.2,0-0.5-0.1-0.7-0.2
		c-0.1-0.1-0.2-0.5-0.2-0.9v-2l3.6-0.5l1-6.8c0.1-0.2,0.2-0.5,0.4-0.6c0.1-0.1,0.4-0.2,0.7-0.2h2.4v7.8h6.2v3.6h-6.2v13.5
		c0,0.9,0.2,1.5,0.6,2s0.9,0.6,1.6,0.6c0.4,0,0.7,0,1-0.1c0.2-0.1,0.5-0.2,0.6-0.4c0.1-0.2,0.4-0.2,0.5-0.4c0.1-0.1,0.2-0.1,0.4-0.1
		c0.2,0,0.5,0.1,0.6,0.5l1.4,2.5c-0.7,0.6-1.6,1.2-2.6,1.6C401.6,505.9,400.6,506,399.6,506z"/>
	<path id="XMLID_191_" class="st0-k1" d="M416,512.5c-0.1,0.4-0.4,0.6-0.6,0.9c-0.2,0.2-0.6,0.2-1,0.2h-3.5l4.1-9.6l-9.2-22.1h4.1
		c0.4,0,0.7,0.1,0.9,0.2c0.2,0.1,0.4,0.4,0.5,0.7l5.3,13.5c0.2,0.7,0.5,1.5,0.6,2.4c0.1-0.4,0.2-0.7,0.4-1.2
		c0.1-0.4,0.2-0.7,0.4-1.1l5.1-13.4c0.1-0.2,0.2-0.5,0.5-0.7c0.2-0.1,0.5-0.2,0.7-0.2h3.7L416,512.5z"/>
</g>
<g id="XMLID_120_">
	<path id="XMLID_129_" class="st1-k2" d="M-56.5,313.3l0.6-0.1c2.3-0.5,4.5,2.1,6.6,7.7l10.6,19.6c0.5,0.5,0.9,0.7,1.2,0.6
		c3.1-2.3,6.2-6.1,9.3-11.9s6.2-9.8,9.3-12.1h0.2c1.3-0.3,2.7,0.4,3.8,2.1c0.1,0.7-2.3,4.8-7.6,12.2c-2.9,4.9-6,8.8-8.8,11.4
		l-0.1,0.2v0.2l1.4-0.5l1.4-0.4c8.3-1.9,17.2-3.2,26.5-4l2.2,0.8l0.1,0.5c0.1,3.5-1.1,5.6-3.5,6.2l-0.5,0.1
		c-3.3-0.9-10.4-0.1-21.2,2.4l-9.3,1.7v0.9c0.3,1.2,1.8,5.2,4.8,11.9l2.6,6.4l0.1,0.8c0,1.8-0.7,2.8-2,3.1l-0.5,0.1
		c-2.5,0.6-4.3-1-5.6-4.8c-1.5-6.6-8.6-22.6-21.3-48.1l-1.8-4.4C-57.7,314.9-57.4,314.1-56.5,313.3z"/>
	<path id="XMLID_126_" class="st1-k2" d="M3.5,310.2c2.9,0.2,4.5,1.3,5.1,3.4c7.2,28.1,11.7,42.5,13.4,43.2c0.7,2.7-0.1,4.5-2.3,5.5
		l-0.5,0.1c-2.8-0.4-4.5-2.1-5.1-4.8L1.9,313C2,311.3,2.5,310.4,3.5,310.2z M0.3,288c1.7-0.4,3,0.2,4.1,1.7c1,1.6,0.6,3-1.2,4.6
		l-1.7,0.4c-1.2,0.3-2.2-0.4-3-2.2l-0.3-1.3C-2.2,289.6-1.5,288.4,0.3,288z"/>
	<path id="XMLID_123_" class="st1-k2" d="M20.1,297.6c1.1-0.3,2.8-0.1,5,0.5c5.4-0.5,12.6-1.2,21.3-2.1c8.7-1,14.8-0.9,18,0.4
		c2.2,0.9,3.6,3.2,4.4,6.8c1.5,6.6-1.4,17-8.9,31.3c-3.1,5.1-7.4,10.9-12.7,17.2c-1.3,3.2-2.1,4.8-2.5,4.8l-1.3,0.3
		c-2.4,0.5-4.3-0.7-5.3-4c-4.1-12.5-7.8-24-11.3-34.1c-3.7-10-5.8-14.8-6.7-14.6c-1.7,0.4-2.7-0.1-3.1-1.4c-0.1-0.4,0.4-1.5,1.5-3.3
		C18.9,298.4,19.4,297.7,20.1,297.6z M27.7,304.2c5.9,17.2,9.8,28.1,11.4,33c1.4,2.3,2.8,5.5,4.3,9.8l0.7,0.1c2-1.1,6-7.3,12-18.5
		s8.2-19.3,6.8-24.2c-0.4-2.1-1.8-3.2-4.2-3.5c-3.1-0.6-10.3-0.1-21.8,1.8l-8.1,0.9L27.7,304.2z"/>
	<path id="XMLID_121_" class="st1-k2" d="M81.5,281.2c5.9-1.5,11.1-1.4,15.8,0.6c4.7,1.9,6.9,3.5,6.6,4.7s-0.9,1.7-1.9,1.8
		c-1-0.1-3.2-0.6-6.5-1.8c-3.4-1.1-7.2-1.1-11.4-0.2c-3.7,0.8-5.4,2.1-5,3.8l0.1,0.6c2.6,4.8,9.3,8.6,20.2,11.7l13.5,6.1
		c8.3,4.6,13.3,11.2,15.2,19.6c1.4,5.9,0.5,10.5-2.3,13.7c-3,3.1-6.7,5.3-11.2,6.2c-5.7,1.2-12,0.7-19-1.7
		c-8.7-3.3-14.1-9.3-16-18.3l-0.1-0.5c-1.3-7.6-1-11.6,1-12.2l1.3-0.3c2.3-0.5,3.8-0.3,4.4,0.6l0.1,0.5c0.1,0.7-0.8,3.2-2.6,7.1
		l0.3,2.2l0.7,3.3c2.9,7.8,8.8,12.3,17.6,13.5c8.8,1.2,14.8,0.3,18-2.5s3.9-7.8,2.2-14.5c-1.8-6.8-9.5-12.3-23.1-16.3l-7.5-2.4
		C81,302.4,75,297.6,74.3,292C73.1,286.3,75.7,282.7,81.5,281.2z"/>
</g>
<g id="XMLID_110_">
</g>
<g id="XMLID_117_">
</g>
<g id="XMLID_193_">
</g>
<g id="XMLID_194_">
</g>
<g id="XMLID_195_">
</g>
<g id="XMLID_196_">
</g>
<path class="st0-k1" d="M67.9,428c0,3.4-0.3,7-1.1,10.1c-0.6,3.1-1.7,6-3.1,8.7c-1.4,2.6-3.1,5.1-5.1,7.1c-1.9,2-4.2,3.9-6.7,5.4
	c-2.5,1.4-5.1,2.6-7.9,3.3c-2.8,0.7-5.7,1.2-9,1.2H13.6l7.6-62.7h21.5c3.9,0,7.3,0.6,10.4,1.9s5.7,3.1,7.9,5.6s3.9,5.3,5.1,8.5
	C67.4,420.2,67.9,423.9,67.9,428z M59,428.1c0-3.1-0.3-5.9-1.2-8.4s-1.9-4.5-3.3-6.5c-1.4-1.7-3.3-3.1-5.4-4c-2-0.9-4.5-1.4-7.1-1.4
	H29.1l-5.9,48.7h12.9c3.4,0,6.7-0.6,9.5-1.9c2.8-1.4,5.3-3.1,7.3-5.6s3.7-5.4,4.7-8.8C58.6,436.5,59,432.5,59,428.1z"/>
<path class="st0-k1" d="M86.9,437.6l-3.1,25.9h-8.5l7.6-62.7h16.6c3.3,0,6.2,0.3,8.7,1.1c2.5,0.6,4.5,1.7,6.1,3.1
	c1.6,1.4,2.8,2.9,3.4,4.7c0.6,1.9,1.2,4,1.2,6.2c0,2.5-0.3,4.8-1.1,7c-0.6,2.3-1.7,4.2-3.1,5.9c-1.4,1.7-3.1,3.1-5.1,4.3
	c-1.9,1.2-4.2,2-6.8,2.8c1.1,0.6,1.9,1.6,2.5,2.8l13,24.7h-7.6c-1.6,0-2.6-0.6-3.1-1.9l-11.3-22.3c-0.3-0.6-0.9-1.2-1.4-1.6
	s-1.2-0.3-2.3-0.3L86.9,437.6L86.9,437.6z M90.5,407.6l-2.9,23.6h7.6c2.5,0,4.5-0.3,6.5-1.1s3.3-1.7,4.7-2.9c1.2-1.2,2-2.8,2.8-4.3
	c0.6-1.7,0.9-3.4,0.9-5.6c0-3.1-1.1-5.4-2.9-7.1c-1.9-1.6-4.8-2.5-8.7-2.5L90.5,407.6L90.5,407.6z"/>
<path class="st0-k1" d="M134.7,463.7H126l7.6-62.7h8.7L134.7,463.7z"/>
<path class="st0-k1" d="M163.4,401.1c0.3,0.2,0.6,0.5,1.1,1.2l26.5,47c0-0.6,0.2-1.4,0.2-2s0.2-1.2,0.2-1.9l5.4-44.8h7.6l-7.6,62.7
	h-4.3c-0.8,0-1.2-0.2-1.7-0.3c-0.3-0.2-0.9-0.6-1.2-1.2l-26.5-47l-0.3,3.1l-5.6,45.5h-7.4l7.6-62.7h4.5
	C162.3,401,163,401,163.4,401.1z"/>
<path class="st0-k1" d="M224.4,428.3h2.8c1.1,0,1.9-0.2,2.5-0.3c0.6-0.3,1.2-0.6,1.9-1.4l21.1-23.6c0.6-0.6,1.2-1.4,1.9-1.6
	c0.8-0.3,1.6-0.3,2.5-0.3h7.3l-24.4,27c-1.2,1.4-2.3,2.3-3.4,2.9c0.8,0.3,1.4,0.6,1.9,1.2c0.5,0.5,1.1,1.2,1.6,2l18.3,29.6H251
	c-1.1,0-1.9-0.2-2.5-0.5c-0.5-0.3-0.9-0.6-1.2-1.4l-16.1-24.5c-0.3-0.6-0.9-1.2-1.6-1.6c-0.5-0.3-1.6-0.5-2.8-0.5h-3.7l-3.4,28.5
	h-8.5l7.6-62.8h8.7L224.4,428.3z"/>
<path class="st0-k1" d="M317.8,442.9c0.2,0.6,0.3,1.2,0.5,1.9c0.3-0.6,0.5-1.2,0.9-1.9c0.5-0.6,0.6-1.2,1.1-1.9l24-38.8
	c0.2-0.3,0.5-0.5,0.6-0.8c0.2-0.2,0.3-0.3,0.6-0.5c0.2-0.2,0.5-0.2,0.8-0.2s0.6,0,1.1,0h6.5l-7.6,62.7h-7.4l5.6-45.5
	c0.2-0.5,0.2-1.2,0.3-2c0.2-0.9,0.3-1.6,0.5-2.3l-23.9,38.8c-0.9,1.4-1.9,1.9-3.3,1.9h-1.4c-0.6,0-1.2-0.2-1.7-0.5s-0.9-0.9-1.1-1.4
	l-14.6-38.8c0,0.6,0,1.6-0.2,2.3c0,0.6,0,1.4-0.2,1.9l-5.6,45.8h-7.6l7.6-62.7h6.5c0.6,0,1.4,0,1.7,0.2s0.6,0.5,1.2,1.2l14.7,38.8
	C317.5,441.6,317.6,442.4,317.8,442.9z"/>
<path class="st0-k1" d="M369.6,463.7h-8.7l7.6-62.7h8.7L369.6,463.7z"/>
<path class="st0-k1" d="M401.9,430.1l-14.4-29.3h7.6c0.6,0,1.1,0.2,1.4,0.3c0.2,0.2,0.5,0.5,0.6,1.1l10.9,23.3c0.2-0.5,0.5-1.1,1.1-1.7
	l15.4-21.6c0.6-0.9,1.4-1.4,2-1.4h8.8l-21.7,28.9l16.4,34h-7.6c-0.6,0-1.1-0.2-1.4-0.5s-0.5-0.6-0.6-1.1l-12.4-27
	c-0.2,0.2-0.2,0.5-0.3,0.6c-0.1,0.1-0.2,0.5-0.3,0.6l-18.3,25.6c-0.6,1.1-1.7,1.6-2.8,1.6h-8.6L401.9,430.1z"/>
<g>
	<path class="st0-k1" d="M30.9,352.9c0.1,0,0.3,0.1,0.5,0.1c0.2,0.1,0.2,0.1,0.4,0.3c0.1,0.1,0.2,0.3,0.3,0.6L45.7,381
		c0-0.5,0.1-1.1,0.1-1.6c0.1-0.5,0.1-1,0.1-1.4l2.7-25.3h5.5l-4.2,39.6h-3.2c-0.5,0-0.9-0.1-1.3-0.2c-0.3-0.1-0.6-0.5-0.8-1
		L31.1,364c0,0.4-0.1,0.8-0.1,1.3s-0.1,0.8-0.1,1.2l-2.7,25.9h-5.5l4.2-39.6h3.3C30.4,352.9,30.7,352.9,30.9,352.9z"/>
	<path class="st0-k1" d="M84.3,392.5h-4.8c-0.6,0-1-0.1-1.3-0.4c-0.3-0.2-0.5-0.7-0.6-1.2l-1.4-8.2h-13l-3.2,8.2
		c-0.1,0.4-0.5,0.8-0.8,1.1c-0.4,0.3-0.8,0.5-1.3,0.5H53l16.8-39.7h6.3L84.3,392.5z M65.1,377.6h10.1L72.9,364
		c-0.1-0.7-0.2-1.3-0.4-2.1c-0.1-0.7-0.2-1.6-0.3-2.5c-0.3,0.9-0.6,1.8-0.9,2.5s-0.6,1.4-0.8,2L65.1,377.6z"/>
	<path class="st0-k1" d="M110.5,352.8l-0.7,5.9h-9.5l-3.6,33.8h-6.2l3.6-33.8h-9.6l0.6-5.9H110.5z"/>
	<path class="st0-k1" d="M123.5,386.7c1.1,0,2.2-0.2,3.1-0.7c0.9-0.5,1.8-1.2,2.5-2.1c0.7-0.9,1.3-2,1.8-3.2c0.5-1.3,0.7-2.6,0.9-4.2
		l2.6-23.9h6.2l-2.5,23.9c-0.2,2.3-0.7,4.5-1.6,6.5c-0.8,2-1.9,3.6-3.2,5.2c-1.3,1.4-2.8,2.6-4.6,3.4s-3.6,1.3-5.6,1.3
		c-1.9,0-3.5-0.3-5-1c-1.4-0.7-2.7-1.6-3.6-2.8c-1-1.2-1.8-2.7-2.3-4.3s-0.7-3.5-0.7-5.5c0-0.8,0.1-1.6,0.1-2.6l2.5-23.9h6.2
		l-2.6,23.8c-0.1,0.3-0.1,0.7-0.1,1s0,0.7,0,1c0,1.3,0.1,2.3,0.4,3.3s0.7,1.9,1.2,2.6s1.2,1.3,1.9,1.6
		C121.6,386.5,122.5,386.7,123.5,386.7z"/>
	<path class="st0-k1" d="M150.2,376.8l-1.6,15.6h-6.2l4.2-39.6h9.8c2,0,3.8,0.2,5.2,0.7s2.6,1.2,3.5,2s1.6,1.9,2,3.1
		c0.4,1.3,0.7,2.5,0.7,4s-0.1,3-0.6,4.3c-0.3,1.3-0.9,2.6-1.6,3.6s-1.6,2.1-2.6,2.9s-2.2,1.4-3.5,1.9c0.3,0.2,0.7,0.6,1,0.9
		c0.3,0.4,0.6,0.8,0.7,1.3l6.2,14.8h-5.6c-0.5,0-1-0.1-1.3-0.3c-0.3-0.2-0.7-0.6-0.8-1l-5.2-13c-0.1-0.5-0.4-0.8-0.7-1
		c-0.2-0.1-0.7-0.4-1.3-0.4C152.6,376.8,150.2,376.8,150.2,376.8z M152.2,358.3l-1.5,13.5h3.6c1.3,0,2.3-0.1,3.3-0.7
		c0.9-0.4,1.6-1,2.2-1.6c0.6-0.7,1-1.6,1.3-2.5c0.2-1,0.4-2,0.4-3.2c0-1.8-0.5-3.1-1.4-4c-0.9-1-2.3-1.4-4.3-1.4L152.2,358.3
		L152.2,358.3z"/>
	<path class="st0-k1" d="M199.4,392.3h-4.8c-0.5,0-1-0.1-1.3-0.4c-0.4-0.3-0.5-0.7-0.6-1.2l-1.4-8.2h-13l-3.2,8.2
		c-0.1,0.4-0.5,0.7-0.8,1.1c-0.4,0.3-0.8,0.5-1.3,0.5h-4.9l16.8-39.7h6.3L199.4,392.3z M180.1,377.4h10.1l-2.3-13.5
		c-0.1-0.7-0.2-1.3-0.4-2.1c-0.1-0.7-0.2-1.6-0.3-2.5c-0.3,0.9-0.6,1.8-0.9,2.5s-0.6,1.4-0.8,2L180.1,377.4z"/>
	<path class="st0-k1" d="M209,386.4h12.7l-0.6,5.9h-19l4.2-39.6h6.2L209,386.4z"/>
	<path id="XMLID_2_" class="st0-k1" d="M230.1,401.4l-0.1-0.1c-0.6-0.1-1.1-0.5-1.5-1.1c-0.2-0.4-0.4-0.7-0.6-1.1l-0.1-0.1l-0.1-0.1
		v-0.8l0.1-0.1l0,0c0.3-0.7,0.7-1.5,1-2.2c0.9-1.9,2-3.6,3.4-5.5c1.1-1.4,2.2-2.8,3.3-4c0.4-0.4,1.3-1.4,1.3-1.4l-1.2-1.4
		c-0.4-0.6-0.9-1.1-1.3-1.6c-0.8-1.3-1.3-2.7-1.6-4.2c-0.3-1.3-0.4-2.8-0.3-4.2c0.1-3.3,1.3-6.2,3.3-8.7c0.5-0.7,1.2-1.3,1.9-2
		c1.5-1.3,3.2-2.6,5-3.8c1.5-0.9,3.1-1.9,4.9-2.9l4.9-2.8c1.8-1,3.3-2,4.9-3c1.4-1,2.7-1.9,3.8-2.8c1.1-0.9,2.2-2,3.2-3.2
		s1.9-2.3,2.6-3.5l0.1-0.1c0.1-0.1,0.2-0.3,0.3-0.5s0.2-0.4,0.4-0.6l0.1-0.1c0,0,0.3-0.1,0.7-0.1c0.4,0.1,0.5,0.5,0.5,0.5
		s0.1,0.6,0.1,1s-0.1,1-0.1,1.4l-0.1,1.3c0,0.4-0.1,0.8-0.1,1.3c0,0-0.7,6.6-0.7,7.1l-0.1,1.1c0,0.5-0.1,1.1-0.1,1.6
		c0,0.3-0.1,0.7-0.1,1.1l-0.6,6.1c0,0.3-0.1,0.7-0.1,1.1l-0.4,4.1c-0.1,0.4-0.2,1.8-0.2,1.8c-0.1,1-0.3,1.9-0.5,2.9
		c-0.3,1.6-0.7,3.2-1.3,4.6c-0.6,1.8-1.3,3.2-2.1,4.5c-0.7,1.2-1.5,2.2-2.5,3.1c-1.1,1.1-2.3,1.9-3.8,2.6c-1,0.5-2.1,0.8-3.2,1.1
		c-0.8,0.1-1.6,0.3-2.5,0.3c-0.7,0.1-1.5,0.1-2.3,0.1c-0.4,0-0.8,0-1.3,0s-0.8,0-1.3-0.1c-0.4,0-2.2-0.2-2.2-0.2s-0.9-0.1-1.3-0.1
		l-1.6-0.2l-1.9-0.3c-0.3,0.5-0.6,0.9-0.8,1.3c-0.6,1-1.2,2.1-1.8,3.3c-1,2.1-1.9,4.5-2.8,7.1c-0.1,0.7-0.4,1.3-0.6,1.9
		c-0.1,0.3-0.3,0.6-0.6,0.7c-0.4,0.1-0.7,0.3-1.2,0.4l-0.2,0.1C231.2,401.4,230.1,401.4,230.1,401.4z M235.2,389.4
		c-0.9,1.2-1.9,2.5-2.7,3.6c-1.1,1.6-1.9,3.1-2.5,4.5c-0.1,0.1-0.1,0.4-0.2,0.6l-0.1,0.4c0.1,0.1,0.1,0.4,0.4,0.6
		c0.1,0.2,0.4,0.4,0.7,0.4l0,0c0.2,0,0.5-0.1,0.7-0.1l0.1-0.2c0.1-0.6,0.4-1.3,0.6-1.9c0.8-2.6,1.8-4.9,2.7-7
		C235,389.9,235.1,389.6,235.2,389.4z M239.8,384.6c0.9,0.1,1.9,0.4,2.8,0.5c0.9,0.1,1.8,0.2,2.7,0.3c0.7,0.1,1.6,0.1,2.3,0.1
		c0.2,0,0.5,0,0.7,0c0.7,0,1.3,0,2-0.1s1.5-0.1,2.2-0.3c1.1-0.2,2.1-0.6,2.9-0.9c1.2-0.6,2.2-1.3,3.2-2.2c0.7-0.7,1.4-1.6,2-2.5
		c0.1-0.2,0.3-0.5,0.4-0.7l-18.7,0.7c-0.5,0.8-0.9,1.6-1.4,2.5C240.6,382.9,240.3,383.7,239.8,384.6z M237,366
		c-0.6,0.8-1.2,1.8-1.6,2.8c-0.7,1.6-1.2,3.5-1.2,5.4c0,1.1,0.1,2,0.3,2.9c0.2,1.2,0.7,2.2,1.3,3.2c0.4,0.6,0.8,1.3,1.4,1.9
		c0.1,0.2,1.1,1.3,1.2,1.4c0,0,0.4-0.8,0.7-1.2l1.1-2l1-1.8L237,366z M247.8,371.3c-0.5,0.7-1.1,1.4-1.6,2.2c-0.7,1-1.3,2-1.9,3
		c-0.2,0.3-0.4,0.7-0.7,1.1c0,0,14.8-0.5,15.6-0.6c0.3,0,2.8-0.1,2.8-0.1c0.8-2,1.5-4.2,2-6.8L247.8,371.3z M238.4,364.4
		c0.5,1.6,2.8,9.1,3.8,12l0.7-1.3c0.9-1.6,2-3.2,3-4.6l0.1-0.2l-2.3-9.8C241.7,361.7,240,363,238.4,364.4z M254.2,363.7l-0.1,0.1
		l-0.7,0.8c-1,1.1-2,2.2-2.9,3.3c-0.3,0.4-0.7,0.8-1,1.3l15-1.1l0.1-0.5c0.1-0.6,0.1-1.1,0.1-1.6c0.1-0.6,0.3-3.4,0.3-3.4
		C265,362.5,254.8,363.6,254.2,363.7z M247.7,368.4c0.7-0.9,1.5-1.9,2.2-2.7c0.9-1.1,1.9-2.2,2.8-3.3l-0.1-1.8l-0.7-5
		c-0.7,0.4-3.8,2.1-3.8,2.1c-0.7,0.4-1.6,0.9-2.3,1.3l-0.2,0.1C246,361.2,247.7,368.4,247.7,368.4z M260.8,357.2
		c-0.3,0.1-0.7,0.1-1,0.1c-1,1.3-2.1,2.5-3.2,3.6l-0.4,0.4c0,0,8-0.8,8.3-0.8c0.2,0,0.5-0.1,0.7-0.1c0.1-0.9,0.3-3,0.4-4.1
		L260.8,357.2z M253.6,354.8c0.1,1.3,0.3,2.5,0.5,3.8l0.2,2.2c0.3-0.4,0.7-0.8,1.2-1.3c0.9-1.1,1.9-2.2,2.8-3.3l-0.7-3.9l-0.7,0.4
		C255.9,353.4,254.8,354.1,253.6,354.8z M266.5,347c-0.2,0.7-0.5,1.3-0.7,1.8c-1,1.9-2.2,3.8-3.6,5.6c-0.2,0.2-0.4,0.6-0.7,0.8
		l4.3-0.7L266.5,347z M260,354.3c0.8-1,1.5-2,2.1-2.9c1.2-1.8,2.2-3.4,3-5.1c-0.1,0.1-0.2,0.2-0.3,0.3c-0.7,0.8-1.6,1.6-2.5,2.5
		c-0.9,0.7-1.9,1.4-2.8,2.1C259.4,351.1,260,354.3,260,354.3z"/>
</g>
</svg>
