<svg version="1.2" baseProfile="tiny" xmlns="http://www.w3.org/2000/svg" x="0" y="0" viewBox="0 0 720 215.53" xml:space="preserve"><path fill="#FFF" d="M248.84 173.58c0 2.25-.84 3.67-2.49 4.27-.51.27-2.3.41-5.38.41s-4.62-1.55-4.62-4.68v-33.43c0-3.51-2.09-5.82-6.28-6.92-2.76-.55-6.25-.83-10.47-.83h-36.7v41.19c0 3.12-1.54 4.68-4.61 4.68-3.08 0-4.88-.14-5.39-.41-1.66-.59-2.49-2.01-2.49-4.27V110.8c0-2.29.82-3.71 2.49-4.26.63-.23 2.43-.36 5.39-.36 3.07 0 4.61 1.54 4.61 4.62v11.18h33.73c9.99 0 16.98.79 21.01 2.37 7.45 2.69 11.19 7.9 11.19 15.62v33.61zM336.96 177.37c0 7.69-4.65 12.72-13.97 15.09-3.42.99-11.06 1.49-22.91 1.49-1.92 0-3.23-.58-3.9-1.73-.51-.76-.77-2.22-.77-4.4 0-3.13 1.56-4.7 4.67-4.7H303.29c.4 0 .61.01.65.05.87.04 1.61.07 2.23.09.61.02 1.13.04 1.57.04 11.12 0 16.68-1.84 16.68-5.51h-37.28c-18.78 0-28.16-5.64-28.16-16.91v-34.69c0-2.25.82-3.67 2.48-4.26.51-.27 2.32-.42 5.39-.42s4.62 1.57 4.62 4.68v34.69c0 4.33 5.23 6.5 15.68 6.5h37.28v-41.19c0-3.11 1.56-4.68 4.68-4.68 3.08 0 4.88.14 5.39.42 1.66.59 2.48 2.01 2.48 4.26v51.18zM431.73 160.8c0 6.08-3.77 10.69-11.31 13.85-5.33 2.4-11.74 3.61-19.23 3.61h-19.06c-19.3 0-29.26-5.34-29.89-16.03-.11-1.9-.17-4.38-.17-7.46 0-6.2.13-11.25.35-15.15.72-11.75 10.56-17.64 29.53-17.64h37.29v-11.07c0-3.11 1.54-4.67 4.62-4.67 2.21 0 3.98.16 5.32.47 1.7.59 2.55 1.99 2.55 4.2v49.89zm-12.48-.23v-28.11h-37.59c-11.17 0-16.75 2.46-16.75 7.4v20.12c0 3.67 2.12 6.04 6.34 7.11 1.82.47 5.39.71 10.71.71h17.99c12.86-.02 19.3-2.42 19.3-7.23zM479.99 127.42c0 3.12-1.85 4.67-5.56 4.67-.51 0-1.25-.03-2.22-.09-.96-.06-1.7-.09-2.22-.09-9.58 0-14.38 2.39-14.38 7.16v34.5c0 2.29-.87 3.73-2.6 4.32-.71.23-2.52.35-5.45.35-2.95 0-4.43-1.58-4.43-4.73v-34.44c0-7.42 3.81-12.45 11.42-15.09 4.66-1.66 11.58-2.49 20.77-2.49 3.12.01 4.67 1.99 4.67 5.93zM558.11 161.21c0 11.36-8.52 17.04-25.56 17.04h-30.54c-6.56 0-12.22-1.2-17-3.61-6.42-3.08-9.64-7.35-9.64-12.84v-7.22c0-5.92 3.06-10.36 9.17-13.31 4.54-2.29 10.22-3.44 17.05-3.44h44.15c-.67-3.98-6.31-5.98-16.92-5.98-.43 0-.96.01-1.57.03-.61.02-1.31.06-2.1.1-.04.03-.23.06-.59.06h-2.96c-3.08 0-4.61-1.96-4.61-5.86 0-3.11 1.53-4.68 4.61-4.68 9.98 0 17.62.7 22.9 2.07 9.08 2.56 13.62 7.69 13.62 15.39v22.25zm-12.25-2.95c0-.56-.01-1.25-.03-2.08-.03-.83-.05-1.79-.09-2.89-.04-1.11-.07-2.08-.1-2.91-.01-.82-.02-1.52-.02-2.06h-44.33c-2.6 0-5.28.47-8.04 1.42-3.59 1.22-5.39 2.82-5.39 4.79v7.16c0 2.09 1.86 3.69 5.57 4.79 2.38.88 5.1 1.31 8.23 1.31h31.01c4.66 0 7.85-.46 9.59-1.36 2.4-1.23 3.6-3.95 3.6-8.17zM609.77 127.78c0 3.08-1.55 4.62-4.68 4.62h-19.76v41.19c0 3.12-1.54 4.68-4.62 4.68-3.04 0-4.82-.14-5.33-.41-1.69-.63-2.54-2.06-2.54-4.27V132.4c-1.66 0-3.01-.03-4.05-.1-1.05-.05-1.79-.12-2.22-.2-1.97-.67-2.96-2.31-2.96-4.91 0-2.61.99-4.24 2.96-4.91.43-.08 1.17-.15 2.22-.21 1.04-.05 2.39-.09 4.05-.09V110.8c0-3.08 1.55-4.62 4.62-4.62 3.04 0 4.81.14 5.33.42 1.69.59 2.54 1.99 2.54 4.2v11.18h19.76c3.13 0 4.68 1.93 4.68 5.8zM692.04 150.85c0 3.44-1.17 5.15-3.49 5.15h-62.08v.42c0 5.36 3.15 8.81 9.47 10.36 1.39.31 3.39.56 6.01.74 2.62.18 5.96.27 10.03.27 3.07 0 4.62 1.94 4.62 5.8 0 3.12-1.55 4.68-4.62 4.68-4.19 0-7.61-.02-10.27-.09-2.66-.06-4.68-.17-6.06-.32-6.86-.72-11.92-2.33-15.15-4.85-4.62-3.59-6.93-7.81-6.93-12.67v-20.89c0-6.54 3.55-11.41 10.65-14.56 4.85-2.29 11.28-3.43 19.29-3.43h23.32c6.55 0 11.97 1.09 16.27 3.26 5.96 2.76 8.94 6.92 8.94 12.49v13.64zm-12.2-5.67v-6.98c0-4.26-8.46-6.39-25.38-6.39-9.99 0-16.83.36-20.54 1.06-5.25.99-7.88 2.92-7.88 5.8v6.51h53.8zM720 98.17c0 7.4-5.81 13.21-13.37 13.21-7.48 0-13.45-5.81-13.45-13.21 0-7.24 5.97-13.05 13.45-13.05 7.56 0 13.37 5.81 13.37 13.05zm-23.47 0c0 5.81 4.3 10.42 10.18 10.42 5.73 0 9.94-4.62 9.94-10.35 0-5.81-4.22-10.5-10.02-10.5-5.8.01-10.1 4.7-10.1 10.43zm8.04 6.84h-3.02V91.97c1.19-.24 2.86-.4 5.01-.4 2.47 0 3.59.4 4.54.96.71.56 1.27 1.59 1.27 2.86 0 1.43-1.12 2.55-2.71 3.02v.16c1.28.48 1.99 1.43 2.39 3.18.4 1.99.64 2.79.95 3.26h-3.26c-.4-.48-.64-1.67-1.03-3.18-.23-1.43-1.03-2.07-2.71-2.07h-1.43v5.25zm.08-7.4h1.43c1.67 0 3.02-.56 3.02-1.91 0-1.2-.87-1.99-2.78-1.99-.8 0-1.36.08-1.67.16v3.74z"/><path fill-rule="evenodd" fill="#FFF" d="M74.1 0c.49.43.57 1.03.76 1.57 5.4 15.62 12.88 30.19 22.29 43.77 4.51 6.51 9.58 12.6 14.5 18.8 7.66 9.65 15.53 19.14 22.26 29.48 5.69 8.74 10.35 17.98 13.03 28.12 1.69 6.36 2.83 12.82 3.12 19.4.38 8.63-1.46 16.89-4.36 24.97-3.78 10.51-9.51 19.79-17.63 27.45-12.1 11.42-26.3 18.92-42.87 21.18-15.82 2.16-31.12-.06-45.53-7.22-7.28-3.62-13.72-8.44-19.57-14.07-3.83-3.69-7.48-7.5-10.25-12.1-4.41-7.33-7.03-15.3-8.5-23.67-1.05-5.97-1.56-12-1.3-18.05.71-16.66 5.05-32.14 14.35-46.21C21.38 82.86 29.22 73 37.18 63.21c6.64-8.17 13.21-16.41 18.74-25.39C62.93 26.48 68.8 14.58 73.13 1.95c.23-.67.21-1.5.97-1.95zM48.85 121.63v.06h33.39c.75 0 1.5.03 2.24-.05 2.93-.32 5.19-2.58 5.24-5.46.07-4.18.05-8.37-.04-12.55-.05-2.47-1.51-4.15-3.9-4.87-.87-.26-1.75-.34-2.65-.34-22.49 0-44.97.01-67.46-.04-1.49 0-2.28.52-2.98 1.78-6.28 11.21-9.5 23.32-10.38 36.05-.56 8.14-.1 16.26 1.69 24.26 2.05 9.14 5.4 17.68 11.32 25.08 1.1 1.38 2.26 2.05 4.13 2.05 20.92-.06 41.83-.03 62.75-.02.67 0 1.35.03 2.02-.03 3.15-.31 5.44-2.49 5.5-5.45.08-4.18.05-8.37-.03-12.55-.05-2.47-1.5-4.15-3.88-4.89-1.09-.34-2.2-.34-3.32-.34H15.93c-.52 0-1.05.01-1.57 0-1.75-.04-1.77-.03-2.24-1.79-.46-1.73-.92-3.46-1.29-5.21-.61-2.83-.58-2.84 2.29-2.84 19.5.01 38.99.03 58.49.05.82 0 1.64.09 2.46.11 3.43.09 6.88.37 10.29-.09 3.8-.52 5.43-2.59 5.42-6.41-.01-3.14-.18-6.28.01-9.41.31-5.24-2.31-7.33-7.18-7.3-23.08.13-46.17.06-69.25.06-.52 0-1.05.02-1.57 0-1.53-.06-1.71-.17-1.44-1.73.4-2.35.97-4.67 1.48-7 .16-.74.59-1.17 1.42-1.11.59.04 1.19 0 1.79 0 11.25-.02 22.53-.02 33.81-.02zm79.6 33.23h1.34c5.15 0 10.3-.03 15.45.02 1.17.01 1.79-.27 1.88-1.56.09-1.33.46-2.64.58-3.97.5-5.44.4-10.86-.53-16.27-.19-1.12-.64-1.48-1.75-1.47-11.04.03-22.09-.02-33.13.04-4.16.02-6.33 2.25-6.41 6.4-.06 3.51-.07 7.02 0 10.52.09 4.24 2.2 6.27 6.44 6.28 5.38.02 10.76.01 16.13.01z"/></svg>