<?xml version="1.0" encoding="utf-8"?>
<!-- Generator: Adobe Illustrator 19.0.0, SVG Export Plug-In . SVG Version: 6.00 Build 0)  -->
<svg version="1.2" baseProfile="tiny" id="Layer_1" xmlns="http://www.w3.org/2000/svg" xmlns:xlink="http://www.w3.org/1999/xlink"
	 x="0px" y="0px" viewBox="0 0 300 98.3" xml:space="preserve">
<path fill-rule="evenodd" fill="#498DCB" d="M49.3,98.3C22.09,98.35,0.01,76.33,0,49.14C-0.02,22.04,21.93,0.06,49.09,0
	c27.28-0.06,49.36,21.87,49.39,49.03C98.49,76.26,76.55,98.25,49.3,98.3z M64.58,49.45c0.05,0.15,0.09,0.31,0.14,0.46
	c-13.59,10.06-27.17,20.12-40.8,30.22c15.43,13.13,41.91,12.84,56.97-6.3c14.4-18.29,8.81-42.01-3.13-52.55
	c-10.18,9.68-20.35,19.37-30.53,29.04c0.07,0.15,0.14,0.3,0.2,0.44C53.14,50.32,58.86,49.89,64.58,49.45z M76.81,19.82
	C64.93,9.75,51.8,6.28,37.21,10.97c-15.8,5.08-25.24,16.28-27.73,32.66C7.43,57.08,11.91,68.6,21.64,78.35
	c5.44-6.54,10.68-12.85,16.22-19.51c-6.71,0.53-12.84,1.03-18.95,1.51c-0.04-0.11-0.09-0.2-0.13-0.31
	C38.04,46.69,57.3,33.34,76.81,19.82z"/>
<path id="XMLID_9_" fill-rule="evenodd" fill="#498DCB" d="M164.37,62.27c-1.98,0.56-3.31-0.06-4.56-1.7
	c-4.69-6.18-9.52-12.25-14.67-18.84c0,7.19,0,13.86,0,20.61c-1.41,0-2.53,0-3.83,0c0-9.3,0-18.58,0-27.83
	c2.12-0.65,3.48,0.05,4.76,1.75c4.22,5.6,8.6,11.09,12.91,16.61c0.41,0.52,0.85,1.03,1.59,1.93c0-7.03,0-13.65,0-20.37
	c1.37,0,2.5,0,3.8,0C164.37,43.71,164.37,52.99,164.37,62.27z"/>
<path fill-rule="evenodd" fill="#498DCB" d="M207.04,50.25c2.89,4.07,5.65,7.93,8.43,11.84c-3.6,0.95-4.63,0.6-6.57-2.19
	c-1.48-2.12-3.11-4.15-4.38-6.39c-1.29-2.26-3.01-2.94-5.72-2.29c0,3.59,0,7.29,0,11.1c-1.61,0-2.93,0-4.38,0
	c0-9.28,0-18.51,0-28.26c4.47,0.28,8.89,0.27,13.2,0.92c3.12,0.47,5.13,2.72,5.5,6.04c0.39,3.33-0.72,6.03-3.57,7.9
	C208.77,49.42,207.89,49.8,207.04,50.25z M198.71,48.05c2.46-0.25,4.65-0.23,6.71-0.73c2.37-0.56,3.57-2.65,3.41-5.13
	c-0.13-2.29-1.43-3.83-3.93-4.23c-1.59-0.25-3.24-0.32-4.85-0.25c-0.47,0.03-1.26,0.81-1.28,1.26
	C198.65,41.82,198.71,44.66,198.71,48.05z"/>
<path id="XMLID_6_" fill-rule="evenodd" fill="#498DCB" d="M241.58,37.42c-1.21,2.98-1.55,3.12-4.11,1.77
	c-4.67-2.44-10.39-1.73-13.36,1.69c-3.12,3.62-3.31,10.53-0.4,14.52c2.69,3.66,9.4,5.04,13.35,2.69c0.39-0.22,0.8-0.78,0.83-1.21
	c0.09-1.54,0.03-3.1,0.03-4.66c-1.69-0.24-3.25-0.3-4.67-0.77c-0.32-0.12-0.2-1.63-0.28-2.64c2.97,0,5.8,0,8.97,0
	c0,3.42,0.03,6.93-0.03,10.43c0,0.31-0.34,0.73-0.64,0.93c-6.32,4.24-18.64,3.8-22.86-5.51c-2.68-5.9-1.12-13.65,3.62-17.56
	c4.8-3.95,13.3-4.28,18.37-0.69C240.82,36.71,241.19,37.09,241.58,37.42z"/>
<path id="XMLID_5_" fill-rule="evenodd" fill="#498DCB" d="M278.33,34.47c-0.47,1.34-0.64,2.58-1.28,3.49
	c-4.19,6.04-8.49,12.01-12.74,18c-0.57,0.83-1.16,1.66-2,2.84c5.31,0,10.27,0,15.35,0c0,1.34,0,2.38,0,3.54c-7.04,0-13.96,0-20.96,0
	c-0.69-1.48-0.05-2.67,0.82-3.87c4.4-6.14,8.77-12.31,13.15-18.46c0.42-0.6,0.78-1.22,1.42-2.19c-4.24,0-8.08,0.01-11.93,0
	c-3.12,0-3.12,0-2.74-3.35C264.14,34.47,270.91,34.47,278.33,34.47z"/>
<path id="XMLID_4_" fill-rule="evenodd" fill="#498DCB" d="M300,58.82c0,1.35,0,2.35,0,3.49c-5.77,0-11.45,0-17.27,0
	c0-9.22,0-18.44,0-27.84c5.68,0,11.34,0,17.18,0c0,1.03,0,2.07,0,3.35c-4.26,0-8.44,0-12.89,0c0,2.73-0.07,5.23,0.07,7.73
	c0.03,0.36,1,0.94,1.55,0.96c2.86,0.1,5.71,0.05,8.73,0.05c0,1.08,0,2.05,0,3.34c-2.68,0-5.37,0.09-8.06-0.04
	c-1.75-0.09-2.49,0.37-2.35,2.26c0.16,2.15,0.03,4.32,0.03,6.69C291.39,58.82,295.58,58.82,300,58.82z"/>
<path id="XMLID_3_" fill-rule="evenodd" fill="#498DCB" d="M186.26,46.57c0,1.17,0,2.1,0,3.34c-2.13,0-4.21,0-6.29,0
	c-4.16,0-4.16,0-4.16,4.25c0,1.48,0,2.96,0,4.65c4.4,0,8.59,0,12.92,0c0,1.25,0,2.3,0,3.49c-5.68,0-11.35,0-17.19,0
	c0-9.22,0-18.44,0-27.84c5.67,0,11.35,0,17.18,0c0,1.03,0,2.07,0,3.35c-4.25,0-8.44,0-12.9,0c0,2.73-0.06,5.23,0.09,7.72
	c0.02,0.37,1,0.96,1.54,0.97C180.3,46.62,183.15,46.57,186.26,46.57z"/>
<path id="XMLID_2_" fill-rule="evenodd" fill="#498DCB" d="M122.67,58.88c4.49,0,8.62,0,12.91,0c0,1.19,0,2.23,0,3.42
	c-5.67,0-11.35,0-17.18,0c0-9.21,0-18.43,0-27.83c5.66,0,11.34,0,17.18,0c0,1.02,0,2.05,0,3.34c-4.25,0-8.44,0-12.9,0
	c0,2.73-0.06,5.22,0.08,7.72c0.02,0.38,1,0.96,1.54,0.98c2.85,0.1,5.71,0.05,8.73,0.05c0,1.07,0,2.04,0,3.34c-2.05,0-4.14,0-6.22,0
	c-4.15,0-4.15,0-4.15,4.24C122.67,55.64,122.67,57.12,122.67,58.88z"/>
<path id="XMLID_1_" fill-rule="evenodd" fill="#498DCB" d="M251.68,62.37c-1.43,0-2.7,0-4.12,0c0-9.28,0-18.51,0-27.9
	c1.33,0,2.64,0,4.12,0C251.68,43.7,251.68,52.93,251.68,62.37z"/>
<g id="XMLID_39_">
</g>
<g id="XMLID_40_">
</g>
<g id="XMLID_41_">
</g>
<g id="XMLID_42_">
</g>
<g id="XMLID_43_">
</g>
<g id="XMLID_44_">
</g>
</svg>
