<?xml version="1.0" encoding="utf-8"?>
<!-- Generator: Adobe Illustrator 19.0.0, SVG Export Plug-In . SVG Version: 6.00 Build 0)  -->
<svg version="1.2" baseProfile="tiny" id="Layer_1" xmlns="http://www.w3.org/2000/svg" xmlns:xlink="http://www.w3.org/1999/xlink"
	 x="0px" y="0px" viewBox="0 0 300 98.66" xml:space="preserve">
<path id="XMLID_12_" fill-rule="evenodd" fill="#498DCB" d="M77.94,19.62c-1.58,1.72-3.19,3.46-5.18,5.61c0-5.9,0-11.13,0-16.47
	c5.24,0,10.43,0,15.89,0c-1.57,1.54-2.97,2.92-4.37,4.29c22.75,24.03,16.77,52.34,3.67,67.84c-15.26,18.06-40.2,22.69-60.66,12.39
	C5.69,82.39-3.3,57.7,1.08,39.27C6.3,17.29,25.12,0.38,45.01,0c0,2.76,0,5.51,0,8.26C21.76,11.17,8.25,32.85,8.75,49.84
	C9.36,70.12,24.62,85.9,40.66,89c20.76,4.02,37.19-4.64,45.9-21.85C95.15,50.23,90.52,30.9,77.94,19.62z"/>
<path id="XMLID_11_" fill-rule="evenodd" fill="#498DCB" d="M57.21,80.16c-5.08,0-9.86,0-14.97,0c0-7.76,0-15.46,0-23.36
	c-8.02,0-15.74,0-23.59,0c0-5.05,0-9.91,0-14.99c7.69,0,15.41,0,23.36,0c0-7.99,0-15.77,0-23.72c5.08,0,9.91,0,15.04,0
	c0,7.77,0,15.55,0,23.6c8.05,0,15.82,0,23.69,0c0,5.1,0,9.96,0,15.01c-7.8,0-15.52,0-23.53,0C57.21,64.61,57.21,72.33,57.21,80.16z"
	/>
<path fill-rule="evenodd" fill="#498DCB" d="M222.31,48.28c-0.05,8.68-6.11,14.76-14.58,14.63c-8.5-0.14-14.49-6.36-14.37-14.96
	c0.11-8.73,6.16-14.66,14.9-14.59C216.6,33.43,222.37,39.55,222.31,48.28z M217.69,48.03c-0.02-6.26-3.47-10.36-8.85-10.69
	c-7.66-0.48-11.16,5.04-10.76,11.73c0.26,4.31,1.94,7.89,6.41,9.37C211.75,60.85,217.71,56.12,217.69,48.03z"/>
<path fill-rule="evenodd" fill="#498DCB" d="M282.72,62.49c-1.59,0-2.9,0-4.38,0c0-9.51,0-19.04,0-28.42c4.18,0,8.31-0.35,12.36,0.1
	c4.24,0.48,6.35,2.9,6.82,6.51c0.51,3.82-1.32,7-5.04,8.78c-0.37,0.18-0.74,0.34-1.25,0.58c2.93,4.12,5.8,8.16,8.79,12.33
	c-3.2,0.66-5.59,0.28-7.19-2.77c-1.15-2.21-2.97-4.07-4.19-6.25c-1.33-2.35-3.15-2.95-5.9-2.24
	C282.72,54.8,282.72,58.6,282.72,62.49z M282.72,47.53c1.98,0,3.58,0.03,5.17-0.02c0.54-0.01,1.1-0.18,1.63-0.35
	c2.48-0.82,3.77-2.83,3.58-5.46c-0.18-2.31-1.56-3.83-4.15-4.24c-1.64-0.25-3.33-0.28-4.98-0.25c-0.44,0.01-1.19,0.65-1.2,1.02
	C282.68,41.26,282.72,44.31,282.72,47.53z"/>
<path fill-rule="evenodd" fill="#498DCB" d="M120.62,34.06c4.3,0,8.39-0.36,12.36,0.1c4.32,0.49,6.49,2.98,6.9,6.68
	c0.42,3.75-1.38,6.82-5.02,8.6c-0.42,0.21-0.84,0.42-1.27,0.64c2.92,4.1,5.77,8.12,8.67,12.18c-4.03,0.91-4.72,0.66-6.89-2.47
	c-1.48-2.13-3.11-4.17-4.39-6.4c-1.32-2.31-3.07-3.06-5.86-2.26c0,3.64,0,7.43,0,11.34c-1.65,0-3.01,0-4.49,0
	C120.62,52.92,120.62,43.45,120.62,34.06z M125.05,47.83c2.55-0.26,4.8-0.24,6.92-0.76c2.41-0.58,3.63-2.73,3.47-5.29
	c-0.15-2.34-1.5-3.9-4.07-4.31c-1.64-0.27-3.33-0.31-4.99-0.26c-0.46,0.02-1.26,0.72-1.28,1.12C125,41.33,125.05,44.31,125.05,47.83
	z"/>
<path id="XMLID_4_" fill-rule="evenodd" fill="#498DCB" d="M259.39,46.31c3.6,0,6.99,0,10.52,0c0,1.14,0,2.09,0,3.41
	c-2.73,0-5.49,0.11-8.24-0.03c-1.9-0.09-2.64,0.46-2.49,2.45c0.16,2.14,0.03,4.3,0.03,6.74c4.52,0,8.86,0,13.28,0
	c0,1.37,0,2.44,0,3.62c-5.91,0-11.68,0-17.64,0c0-9.5,0-19.01,0-28.65c5.9,0,11.72,0,17.65,0c0,1.15,0,2.17,0,3.43
	c-4.36,0-8.65,0-13.12,0C259.39,40.34,259.39,43.15,259.39,46.31z"/>
<path id="XMLID_3_" fill-rule="evenodd" fill="#498DCB" d="M151.03,46.29c3.75,0,7.15,0,10.68,0c0,1.18,0,2.18,0,3.43
	c-2.23,0-4.37,0-6.52,0c-4.16,0-4.16,0-4.16,4.26c0,1.59,0,3.17,0,4.96c4.59,0,8.88,0,13.29,0c0,1.28,0,2.35,0,3.54
	c-5.94,0-11.76,0-17.7,0c0-9.57,0-19.03,0-28.63c5.92,0,11.74,0,17.69,0c0,1.11,0,2.13,0,3.48c-2.66,0-5.29,0-7.9,0
	c-1.19,0-2.38,0.07-3.57-0.02c-1.33-0.09-1.89,0.35-1.84,1.77C151.1,41.36,151.03,43.66,151.03,46.29z"/>
<path id="XMLID_2_" fill-rule="evenodd" fill="#498DCB" d="M223.69,33.72c0.98,0,1.69,0.09,2.36-0.01c1.8-0.28,2.61,0.63,3.21,2.21
	c2.54,6.72,5.15,13.39,7.74,20.09c0.1,0.24,0.29,0.45,0.41,0.63c2.53-6.45,5.03-12.86,7.55-19.26c1.57-3.99,1.58-3.98,6.13-3.49
	c-0.98,2.42-1.93,4.8-2.9,7.17c-2.7,6.65-5.45,13.28-8.05,19.97c-0.6,1.57-1.58,1.57-2.9,1.6c-1.32,0.03-2.09-0.22-2.65-1.63
	c-3.33-8.42-6.78-16.8-10.19-25.19C224.19,35.23,224.01,34.65,223.69,33.72z"/>
<path id="XMLID_1_" fill-rule="evenodd" fill="#498DCB" d="M191.16,36.98c-1.63,3-1.63,3-4.52,1.46c-6.57-3.48-13.83,0.5-14.39,7.92
	c-0.26,3.5,0.04,6.87,2.54,9.64c2.98,3.31,8.63,4.02,12.49,1.61c2.48-1.55,2.48-1.55,4.28,0.87c-3.71,5.18-13.35,5.99-18.88,1.6
	c-6.22-4.94-7.08-15.85-1.73-22.1C175.82,32.26,185.51,31.72,191.16,36.98z"/>
<g id="XMLID_39_">
</g>
<g id="XMLID_40_">
</g>
<g id="XMLID_41_">
</g>
<g id="XMLID_42_">
</g>
<g id="XMLID_43_">
</g>
<g id="XMLID_44_">
</g>
</svg>
