<?xml version="1.0" encoding="utf-8"?>
<!-- Generator: Adobe Illustrator 19.0.0, SVG Export Plug-In . SVG Version: 6.00 Build 0)  -->
<svg version="1.2" baseProfile="tiny" id="Layer_1" xmlns="http://www.w3.org/2000/svg" xmlns:xlink="http://www.w3.org/1999/xlink"
	 x="0px" y="0px" viewBox="0 0 300 99.89" xml:space="preserve">
<path fill-rule="evenodd" fill="#498DCB" d="M0,49.95C0,22.33,22.47-0.04,50.21,0c27.66,0.03,50.01,22.26,50.11,49.85
	c0.1,27.58-22.34,50.01-50.11,50.04C22.46,99.92,0,77.57,0,49.95z M91.03,50.05C91.09,27.6,72.88,9.23,50.47,9.15
	C27.71,9.06,9.35,27.2,9.29,49.85C9.25,72.33,27.4,90.65,49.85,90.73C72.64,90.83,90.97,72.72,91.03,50.05z"/>
<path fill-rule="evenodd" fill="#498DCB" d="M177.68,58.59c0-9.6,0-18.98,0-28.38c4.71,0,9.4-0.54,13.91,0.12
	c7.58,1.1,11.69,7.24,11.13,15.46c-0.48,7.13-5.74,12.35-13.16,12.75C185.7,58.76,181.82,58.59,177.68,58.59z M182.2,54.88
	c2.7,0,5.27,0.2,7.79-0.05c3.51-0.34,6.02-2.29,7.29-5.63c1.28-3.36,1.25-6.78-0.09-10.12c-1.12-2.82-3.22-4.82-6.23-5.19
	c-2.83-0.35-5.74-0.07-8.76-0.07C182.2,40.74,182.2,47.69,182.2,54.88z"/>
<path fill-rule="evenodd" fill="#498DCB" d="M208.04,30.34c4.27,0,8.37-0.34,12.4,0.1c4.14,0.45,6.27,2.94,6.68,6.54
	c0.43,3.71-1.34,6.8-4.93,8.55c-0.43,0.21-0.85,0.43-1.32,0.66c2.88,4.05,5.72,8.03,8.57,12.03c-3.51,1.02-4.71,0.61-6.66-2.2
	c-1.54-2.21-3.23-4.34-4.58-6.67c-1.35-2.34-3.17-2.81-5.78-2.13c0,3.69,0,7.41,0,11.25c-1.56,0-2.9,0-4.39,0
	C208.04,49.05,208.04,39.66,208.04,30.34z M212.42,43.95c2.52-0.25,4.74-0.23,6.85-0.74c2.4-0.58,3.61-2.71,3.46-5.24
	c-0.14-2.33-1.48-3.87-4.02-4.29c-1.62-0.26-3.31-0.33-4.94-0.24c-0.48,0.01-1.28,0.82-1.29,1.3
	C212.35,37.64,212.42,40.53,212.42,43.95z"/>
<path id="XMLID_7_" fill-rule="evenodd" fill="#498DCB" d="M126.04,58.51c-1.7,0-2.99,0-4.45,0c0-9.45,0-18.89,0-28.43
	c1.39,0,2.68,0,4.26,0c0,4.06,0,8.1,0,12.27c5.02,0,9.77,0,14.8,0c0-4.01,0-8.05,0-12.24c1.62,0,2.97,0,4.44,0
	c0,9.43,0,18.81,0,28.34c-1.37,0-2.72,0-4.32,0c0-4.13,0-8.25,0-12.53c-5,0-9.74,0-14.73,0C126.04,50.04,126.04,54.16,126.04,58.51z
	"/>
<path fill-rule="evenodd" fill="#498DCB" d="M230.32,58.48c3.56-8.96,7.07-17.67,10.46-26.44c0.62-1.6,1.43-2.1,3.13-2.16
	c1.96-0.07,2.72,0.66,3.38,2.4c3.12,8.14,6.4,16.23,9.62,24.33c0.23,0.57,0.45,1.14,0.69,1.72c-4.19,0.76-4.35,0.67-5.82-3.21
	c-1.51-4-1.51-4-5.72-4c-1.66,0-3.32-0.03-4.98,0c-4.16,0.08-2.97-0.69-4.59,3.24c-0.08,0.18-0.12,0.39-0.2,0.59
	C234.8,58.82,234.8,58.82,230.32,58.48z M248.97,47.8c-1.67-4.43-3.25-8.67-5-13.33c-1.75,4.72-3.34,8.95-4.97,13.33
	C242.43,47.8,245.58,47.8,248.97,47.8z"/>
<path id="XMLID_4_" fill-rule="evenodd" fill="#498DCB" d="M297.41,45.84c-3,0-5.83,0.07-8.66-0.03c-1.43-0.03-1.99,0.42-1.93,1.9
	c0.09,2.33,0.03,4.67,0.03,7.22c4.5,0,8.76,0,13.16,0c0,1.27,0,2.34,0,3.54c-5.81,0-11.59,0-17.51,0c0-9.41,0-18.8,0-28.33
	c5.81,0,11.58,0,17.5,0c0,1.07,0,2.13,0,3.44c-4.37,0-8.63,0-13.12,0c0,2.79-0.07,5.33,0.07,7.87c0.03,0.36,1.03,0.94,1.61,0.96
	c2.89,0.1,5.8,0.05,8.86,0.05C297.41,43.56,297.41,44.56,297.41,45.84z"/>
<path id="XMLID_3_" fill-rule="evenodd" fill="#498DCB" d="M161.5,43.71c2.06-3.63,4.01-7.02,5.92-10.46c2.01-3.59,2-3.6,6.6-3.12
	c-0.4,0.72-0.74,1.36-1.11,1.99c-2.73,4.56-5.54,9.09-8.19,13.7c-0.61,1.07-0.95,2.43-1,3.67c-0.14,2.95-0.04,5.91-0.04,8.99
	c-1.55,0-2.91,0-4.51,0c0-2.97,0.13-5.94-0.06-8.88c-0.1-1.5-0.51-3.12-1.25-4.43c-2.59-4.56-5.38-9.02-8.09-13.52
	c-0.27-0.46-0.49-0.94-0.75-1.45c4.35-0.69,4.43-0.65,6.38,2.79C157.42,36.53,159.42,40.06,161.5,43.71z"/>
<path id="XMLID_2_" fill-rule="evenodd" fill="#498DCB" d="M277.9,30.13c0,1.23,0,2.25,0,3.52c-2.95,0-5.81,0-8.89,0
	c0,8.38,0,16.53,0,24.81c-1.56,0-2.91,0-4.52,0c0-8.2,0-16.38,0-24.78c-3.07,0-5.88,0-8.83,0c0-1.27,0-2.34,0-3.55
	C263.03,30.13,270.39,30.13,277.9,30.13z"/>
<path id="XMLID_1_" fill-rule="evenodd" fill="#498DCB" d="M49.03,15.15c0.98,2.2,1.94,4.4,2.95,6.58
	c4.45,9.49,9.94,18.35,16.13,26.81c2.97,4.06,5.08,8.35,4.99,13.55c-0.16,9.01-6.07,16.92-15.36,19.74
	c-9.29,2.82-17.87,1.28-25.07-5.49c-6.92-6.48-8.56-16.88-3.19-24.64C37.42,40.27,44.45,28.46,49.03,15.15z"/>
<g id="XMLID_40_">
</g>
<g id="XMLID_41_">
</g>
<g id="XMLID_42_">
</g>
<g id="XMLID_43_">
</g>
<g id="XMLID_44_">
</g>
<g id="XMLID_45_">
</g>
</svg>
