<?xml version="1.0" encoding="utf-8"?>
<!-- Generator: Adobe Illustrator 19.0.0, SVG Export Plug-In . SVG Version: 6.00 Build 0)  -->
<svg version="1.2" baseProfile="tiny" id="Layer_1" xmlns="http://www.w3.org/2000/svg" xmlns:xlink="http://www.w3.org/1999/xlink"
	 x="0px" y="0px" viewBox="0 0 300 79.74" xml:space="preserve">
<path fill-rule="evenodd" fill="#498DCB" d="M40.09,0c22.2,0.09,39.93,17.87,39.88,40.02c-0.06,22.07-18,39.81-40.18,39.71
	C17.64,79.64-0.09,61.78,0,39.64C0.09,17.64,18.02-0.08,40.09,0z M33.78,35.31c1.51,1.17,3.02,2.33,4.59,3.55
	c0.6-0.49,0.91-2.55,0.19-4.65c-1.36,1.85-1.8,1.97-4.05,1.24c-0.24-0.08-0.52-0.07-0.78-0.1c-0.35-0.39-0.65-0.8-1.03-1.15
	c-2.04-1.87-3.37-4.1-3.51-6.9c-0.1-1.91-0.1-3.82-0.13-5.28c0.76,0.55,1.89,1.67,3.26,2.25c2.09,0.89,3.65,2.27,4.84,4.11
	c0.59,0.89,1,1.89,1.56,2.98c0.27-2.3,0.27-2.3-1.1-3.64c-2.4-2.33-2.98-7.64-0.73-10.12c1.41-1.53,2.17-3.13,2.47-5.11
	c0.25,0.62,0.31,1.23,0.48,1.8c0.26,0.82,0.38,1.85,0.96,2.37c1.82,1.69,2.5,3.73,2.34,6.11c-0.08,1.3-0.35,2.6-0.55,4.02
	c2.54-1.65,5-3.25,7.38-4.8c-0.64,4.02-0.64,4.02-0.04,5.1c3.82-3.84,7.67-7.71,11.52-11.57C50.87,5.26,30.2,3.27,16.63,17.14
	c-13.39,13.7-11.1,33.9-0.8,44.37c2.84-2.85,5.7-5.69,8.5-8.6c0.69-0.72,1.12-1.69,1.7-2.51c0.07-0.1,0.33-0.05,0.48-0.09
	c1.11-0.25,2.11-1.53,1.88-2.38c-0.6-2.21-1.19-4.42-1.68-6.24c1.74,0.66,3.89,1.49,6.03,2.31c-2.24-1.97-4.18-3.94-4.91-6.85
	c-0.44-1.76-0.87-3.52-1.23-4.92c0.73,0.4,1.89,1.14,3.14,1.68C31.03,34.49,32.42,34.86,33.78,35.31z M40.05,72.3
	c9.8,0.45,22.93-5.2,29.29-18.15c6.09-12.38,3.22-26.5-4.24-34.9c-0.4,0.37-0.81,0.72-1.19,1.1c-2.94,2.93-5.94,5.79-8.78,8.82
	c-1.39,1.49-2.49,3.26-3.68,4.94c-0.24,0.35-0.38,0.83-0.38,1.25c0.01,3.87-2.18,6.37-5.23,8.28c-1.72,1.07-3.54,1.93-5.64,0.1
	c0,2.34,0,4.37,0,6.4c1.39-2.73,3.21-4.91,5.96-6.14c2.15-0.97,4.41-1.75,6.26-2.47c-0.33,0.76-1.2,1.89-1.25,3.05
	c-0.17,3.79-2.27,6.24-5.2,8.16c-1.84,1.2-3.76,1.96-5.79,0.08c0,2.32,0,4.45,0,6.57c1.4-2.93,3.44-5.13,6.31-6.42
	c1.99-0.9,4.11-1.53,5.76-2.14c-0.31,0.87-0.8,2.12-1.19,3.4c-0.27,0.88-0.27,1.85-0.61,2.69c-0.97,2.41-2.81,4.07-5.04,5.32
	c-1.77,1-3.57,1.58-5.35-0.6C40.05,65.39,40.05,68.79,40.05,72.3z M28.12,56.57c-2.96,2.96-5.76,5.79-8.57,8.61
	c4.54,4.14,13.66,7.57,19.15,7.1c0-3.4,0-6.81,0-10.33c-1.87,1.44-3.55,1.6-5.41,0.31C31.13,60.74,29.02,59.11,28.12,56.57z
	 M38.69,59.15c0-1.87,0-4.03,0-6.62c-1.74,2.18-3.55,1.42-4.91,0.82C35.36,55.19,37.07,57.22,38.69,59.15z M36.96,47.45
	c0.53,0.9,1.05,1.82,1.73,3.01c0-1.78,0-3.2,0-5.14C37.97,46.22,37.52,46.76,36.96,47.45z M41.82,27.82
	c-1.89,0.8-2.13,1.83-1.55,3.49C40.79,30.13,41.22,29.19,41.82,27.82z"/>
<path id="XMLID_11_" fill-rule="evenodd" fill="#498DCB" d="M212.44,40.89c0-5.35,0-10.69,0-16.14c1.07,0,2.02,0,3.08,0
	c0,7.58,0,15.09,0,22.57c-1.65,0.49-2.74-0.01-3.75-1.34c-3.81-5.01-7.73-9.95-11.91-15.3c0,5.83,0,11.23,0,16.72
	c-1.15,0-2.07,0-3.12,0c0-7.53,0-15.07,0-22.58c1.7-0.53,2.8,0.01,3.84,1.4c3.77,4.97,7.65,9.86,11.5,14.78
	C212.19,40.96,212.32,40.92,212.44,40.89z"/>
<path fill-rule="evenodd" fill="#498DCB" d="M250.71,38.37c0,2.93,0,5.9,0,8.99c-1.25,0-2.32,0-3.53,0c0-7.5,0-15.04,0-22.48
	c3.29,0,6.51-0.27,9.66,0.08c3.48,0.39,5.17,2.29,5.53,5.22c0.39,3.08-1.08,5.54-4.16,6.99c-0.24,0.11-0.49,0.24-0.81,0.39
	c2.31,3.26,4.59,6.46,6.93,9.76c-2.54,0.52-4.44,0.19-5.69-2.22c-0.92-1.75-2.36-3.21-3.33-4.95
	C254.25,38.28,252.8,37.86,250.71,38.37z M250.65,35.8c2.02-0.2,3.8-0.19,5.49-0.6c1.91-0.46,2.87-2.18,2.74-4.19
	c-0.12-1.85-1.19-3.08-3.23-3.41c-1.3-0.2-2.63-0.24-3.94-0.19c-0.36,0.01-1,0.57-1.01,0.89C250.61,30.66,250.65,33.02,250.65,35.8z
	"/>
<path id="XMLID_8_" fill-rule="evenodd" fill="#498DCB" d="M111.55,39.19c-1.43-0.21-2.69-0.28-3.84-0.67
	c-0.24-0.08-0.11-1.32-0.15-2.12c2.42,0,4.72,0,7.25,0c0,2.79,0.02,5.58-0.03,8.37c0,0.31-0.3,0.72-0.58,0.89
	c-5.67,3.72-16.57,2.84-19.08-6.12c-1.39-4.98,0.21-10.24,3.94-12.99c3.79-2.78,10.15-3.01,14.12-0.45
	c0.71,0.45,1.81,0.76,0.94,2.11c-0.73,1.16-1.43,1.23-2.58,0.64c-1.11-0.57-2.33-1.09-3.55-1.26c-3.52-0.46-6.73,0.24-8.49,3.68
	c-1.84,3.6-1.74,7.29,0.67,10.65c2.11,2.94,7.71,3.93,10.71,1.98c0.41-0.27,0.57-1.08,0.64-1.67
	C111.63,41.27,111.55,40.27,111.55,39.19z"/>
<path id="XMLID_7_" fill-rule="evenodd" fill="#498DCB" d="M150.01,24.71c1.27,0,2.31,0,3.5,0c0.03,0.47,0.1,0.95,0.1,1.42
	c0.01,3.98,0.03,7.96,0,11.94c-0.05,6.97-5.51,11.15-12.23,9.3c-3.45-0.95-5.92-3.27-6.16-6.82c-0.35-5.21-0.09-10.47-0.09-15.81
	c1.13,0,2.2,0,3.46,0c0,2.83,0,5.58,0,8.34c0,1.88-0.03,3.76,0.01,5.64c0.08,3.52,2.2,5.77,5.44,5.86c3.37,0.08,5.72-1.99,5.88-5.61
	c0.18-3.92,0.06-7.85,0.08-11.78C150.02,26.43,150.01,25.66,150.01,24.71z"/>
<path id="XMLID_6_" fill-rule="evenodd" fill="#498DCB" d="M285.99,24.73c4.77,0,9.34,0,14.01,0c0,0.89,0,1.7,0,2.77
	c-2.54,0-5.06-0.02-7.58,0c-3.35,0.04-2.89-0.47-2.94,2.86c-0.01,1.33,0,2.64,0,4.16c2.89,0,5.62,0,8.46,0c0,1,0,1.79,0,2.78
	c-2.1,0-4.13,0-6.15,0.01c-2.31,0-2.31,0-2.31,2.37c0,1.44,0.01,2.87,0.05,4.3c0,0.16,0.1,0.31,0.21,0.62c3.37,0,6.77,0,10.26,0
	c0,1.01,0,1.86,0,2.8c-4.7,0-9.31,0-14.01,0C285.99,39.83,285.99,32.34,285.99,24.73z"/>
<path id="XMLID_5_" fill-rule="evenodd" fill="#498DCB" d="M271.24,34.59c2.96,0,5.64,0,8.44,0c0,0.89,0,1.64,0,2.71
	c-1.58,0-3.21,0-4.84,0c-3.62,0-3.62,0-3.62,3.71c0,1.14,0,2.29,0,3.59c3.64,0,7.04,0,10.52,0c0,1.01,0,1.86,0,2.8
	c-4.66,0-9.23,0-13.95,0c0-7.51,0-15.04,0-22.66c4.64,0,9.25,0,13.95,0c0,0.89,0,1.69,0,2.76c-2.11,0-4.19,0-6.27,0
	c-1.05,0-2.11-0.07-3.15,0.04c-0.39,0.05-1.02,0.54-1.04,0.85C271.19,30.35,271.24,32.35,271.24,34.59z"/>
<path id="XMLID_4_" fill-rule="evenodd" fill="#498DCB" d="M190.02,37.31c-2.31,0-4.47,0.09-6.61-0.04
	c-1.52-0.09-1.93,0.47-1.84,1.9c0.11,1.75,0.03,3.5,0.03,5.41c3.62,0,7.02,0,10.52,0c0,1.01,0,1.86,0,2.81c-4.7,0-9.31,0-14.02,0
	c0-7.57,0-15.06,0-22.65c4.69,0,9.3,0,14.01,0c0,0.87,0,1.67,0,2.75c-2.05,0-4.07,0-6.09,0c-4.43,0-4.43,0-4.43,4.52
	c0,0.77,0,1.53,0,2.51c2.89,0,5.61,0,8.42,0C190.02,35.57,190.02,36.39,190.02,37.31z"/>
<path id="XMLID_3_" fill-rule="evenodd" fill="#498DCB" d="M229.23,24.74c4.78,0,9.35,0,14.02,0c0,0.9,0,1.7,0,2.71
	c-3.46,0-6.86,0-10.39,0c0,2.55,0,4.9,0,7.42c2.9,0,5.81,0,8.84,0c0,1.04,0,1.89,0,2.92c-2.87,0-5.78,0-8.91,0c0,3.29,0,6.4,0,9.61
	c-1.31,0-2.38,0-3.55,0C229.23,39.83,229.23,32.34,229.23,24.74z"/>
<path id="XMLID_2_" fill-rule="evenodd" fill="#498DCB" d="M174.8,24.76c0,0.98,0,1.8,0,2.82c-2.35,0-4.64,0-7.09,0
	c0,6.69,0,13.19,0,19.8c-1.25,0-2.32,0-3.6,0c0-6.53,0-13.07,0-19.78c-2.46,0-4.7,0-7.06,0c0-1.01,0-1.86,0-2.84
	C162.93,24.76,168.81,24.76,174.8,24.76z"/>
<path id="XMLID_1_" fill-rule="evenodd" fill="#498DCB" d="M119.73,24.72c1.1,0,2.13,0,3.37,0c0.02,0.66,0.08,1.29,0.08,1.93
	c0,5.35,0.04,10.72-0.03,16.08c-0.02,1.38,0.41,1.84,1.79,1.78c2.54-0.09,5.07-0.02,7.73-0.02c0,1.05,0,1.94,0,2.92
	c-4.32,0-8.56,0-12.94,0C119.73,39.88,119.73,32.35,119.73,24.72z"/>
<g id="XMLID_45_">
</g>
<g id="XMLID_46_">
</g>
<g id="XMLID_47_">
</g>
<g id="XMLID_48_">
</g>
<g id="XMLID_49_">
</g>
<g id="XMLID_50_">
</g>
</svg>
