<svg version="1.2" baseProfile="tiny" xmlns="http://www.w3.org/2000/svg" x="0" y="0" viewBox="0 0 299.96 106.84" xml:space="preserve"><path fill="#77BC1F" d="M14.42 16.65c.22.02.42.1.6.2.16.09.32.23.46.4.13.17.28.42.43.73L32.19 50.4c.03-.63.07-1.26.12-1.86.05-.6.1-1.16.16-1.7l3.23-30.27h6.61l-5.12 47.52-3.84.01c-.58 0-1.06-.11-1.46-.32-.41-.22-.74-.59-1.02-1.16L14.69 30.2l-.12 1.53c-.04.5-.07.97-.12 1.41L11.2 64.12H4.59l5.1-47.53h3.91c.33.01.61.02.82.06zM78.41 64.05h-5.8c-.65 0-1.17-.17-1.55-.53-.4-.33-.64-.81-.73-1.4L68.6 52.2l-15.56.01-3.85 9.93c-.22.51-.56.96-1.03 1.35-.49.39-1.02.59-1.61.59l-5.89.02 20.12-47.56h7.64l9.99 47.51zM55.37 46.19l12.14-.01-2.84-16.27c-.16-.79-.32-1.62-.46-2.49-.16-.89-.3-1.87-.45-2.96-.36 1.09-.71 2.11-1.07 3.04-.36.93-.69 1.74-.99 2.44l-6.33 16.25zM109.82 16.49l-.76 6.99-11.43.02-4.35 40.52-7.43.01 4.32-40.53-11.46.03.74-7 30.37-.04zM125.42 57.15c1.35 0 2.58-.3 3.71-.87 1.13-.59 2.1-1.41 2.95-2.47.84-1.06 1.54-2.35 2.08-3.83.55-1.48.93-3.14 1.11-4.97l3.07-28.57h7.47l-3.03 28.57c-.31 2.79-.95 5.41-1.96 7.79-1 2.37-2.28 4.45-3.84 6.18-1.57 1.74-3.39 3.08-5.48 4.06-2.09.98-4.37 1.47-6.85 1.47-2.25.01-4.25-.39-6-1.19-1.74-.81-3.23-1.92-4.43-3.36-1.21-1.44-2.12-3.17-2.75-5.17-.62-2-.94-4.21-.94-6.63 0-.99.06-2.03.17-3.11l3-28.56 7.5-.02-3.06 28.54c-.05.41-.07.82-.08 1.21-.02.4-.03.77-.03 1.16 0 1.49.16 2.83.49 4.03.31 1.21.79 2.23 1.41 3.08.62.85 1.39 1.52 2.32 1.98.91.46 1.98.68 3.17.68zM157.36 45.22l-2 18.72-7.43.02 5.06-47.53 11.84-.02c2.41 0 4.47.29 6.18.86 1.71.58 3.11 1.4 4.2 2.43 1.11 1.04 1.91 2.28 2.43 3.73.52 1.45.79 3.02.79 4.76 0 1.84-.22 3.56-.68 5.17-.45 1.62-1.08 3.09-1.94 4.4-.84 1.33-1.89 2.46-3.11 3.46-1.23 1-2.62 1.74-4.18 2.31.44.31.85.68 1.21 1.1.37.45.69.97.95 1.59l7.46 17.7h-6.72c-.64 0-1.17-.13-1.6-.44-.44-.29-.76-.71-.97-1.25l-6.12-15.41c-.24-.57-.52-.98-.85-1.23-.34-.25-.86-.37-1.58-.37h-2.94zM159.77 23l-1.75 16.13h4.33c1.5 0 2.79-.25 3.89-.75 1.08-.5 1.98-1.17 2.67-2.04.7-.86 1.23-1.88 1.57-3.03.34-1.16.52-2.42.52-3.75-.01-2.06-.56-3.67-1.68-4.83-1.11-1.15-2.84-1.73-5.16-1.73h-4.39zM216.26 63.88l-5.8.02c-.65 0-1.18-.18-1.57-.53-.38-.35-.63-.82-.72-1.4l-1.74-9.93-15.55.01-3.84 9.93c-.22.49-.57.95-1.04 1.34-.48.41-1.03.6-1.62.6h-5.87l20.11-47.55 7.65-.01 9.99 47.52zm-23.04-17.84l12.14-.03-2.84-16.25c-.15-.8-.31-1.63-.46-2.5-.15-.88-.3-1.86-.44-2.96-.36 1.1-.72 2.11-1.08 3.05-.36.93-.68 1.74-.99 2.43l-6.33 16.26zM227.81 56.8l15.17-.01-.7 7.06-22.69.02 5.09-47.52 7.49-.03-4.36 40.48zM31.24 86.29c0 2.04-.21 3.97-.64 5.78-.42 1.81-1.03 3.47-1.82 4.99-.79 1.51-1.75 2.88-2.87 4.09s-2.39 2.24-3.78 3.08c-1.4.84-2.91 1.48-4.54 1.93s-3.35.68-5.17.68H0l4.42-36.05h12.41c2.21 0 4.21.38 5.99 1.13 1.78.75 3.29 1.82 4.54 3.19 1.25 1.37 2.2 3.01 2.87 4.91.67 1.9 1.01 3.99 1.01 6.27zm-5.13.12c0-1.77-.22-3.38-.66-4.81-.44-1.43-1.08-2.65-1.92-3.66-.84-1-1.86-1.78-3.07-2.31-1.21-.54-2.57-.8-4.11-.8H8.94L5.5 102.79h7.42c1.96 0 3.75-.38 5.37-1.13 1.61-.75 3-1.83 4.17-3.24 1.17-1.41 2.07-3.12 2.71-5.15.63-2.02.94-4.31.94-6.86zM42.09 91.89l-1.82 14.95h-4.94l4.39-36.05h9.54c1.93 0 3.6.21 5.01.62s2.57.99 3.48 1.75c.92.75 1.59 1.67 2.03 2.74.44 1.07.66 2.26.66 3.57 0 1.44-.21 2.79-.64 4.04-.42 1.26-1.04 2.38-1.83 3.37s-1.77 1.84-2.91 2.55c-1.14.71-2.43 1.24-3.86 1.6.58.38 1.06.92 1.42 1.61l7.49 14.22H55.7c-.9 0-1.51-.35-1.82-1.05l-6.49-12.76c-.22-.42-.47-.71-.75-.88-.28-.17-.73-.25-1.35-.25h-3.2zm2.13-17.16l-1.67 13.52H47c1.4 0 2.63-.2 3.69-.6 1.07-.4 1.95-.96 2.66-1.67.7-.71 1.24-1.56 1.61-2.54.37-.98.55-2.05.55-3.2 0-1.78-.56-3.14-1.67-4.08-1.12-.95-2.79-1.42-5.02-1.42h-4.6zM69.61 106.84h-5.02l4.39-36.05h4.99l-4.36 36.05zM85.96 70.94c.2.1.41.34.62.7l15.21 27.05c.03-.42.07-.81.1-1.18.03-.37.07-.72.1-1.05l3.14-25.67h4.39l-4.42 36.05h-2.5c-.4 0-.72-.07-.97-.21-.25-.14-.49-.38-.72-.72l-15.18-27-.15 1.83-3.17 26.1h-4.39l4.42-36.05h2.57c.43 0 .75.05.95.15zM120.97 86.54h1.62c.58 0 1.06-.08 1.43-.24.37-.16.74-.43 1.09-.82l12.06-13.54c.37-.45.74-.76 1.14-.92.39-.16.85-.24 1.38-.24h4.25l-14.03 15.5c-.66.79-1.33 1.34-2 1.66.43.17.81.4 1.13.69.32.29.6.68.85 1.17l10.51 17.03h-4.3c-.65 0-1.11-.09-1.37-.28-.27-.19-.49-.44-.67-.78L125 91.55c-.25-.44-.54-.74-.89-.92-.34-.18-.86-.26-1.56-.26h-2.05l-2 16.45h-4.94l4.39-36.07h4.97l-1.95 15.79zM174.67 94.97c.1.36.19.72.27 1.09.17-.37.34-.73.51-1.08.17-.35.37-.7.59-1.05l13.81-22.28c.15-.19.29-.33.41-.44.12-.11.25-.2.39-.26.13-.07.28-.11.44-.13.16-.02.35-.03.56-.03h3.72l-4.42 36.05h-4.34l3.2-26.07c.05-.35.11-.74.19-1.17.08-.43.16-.86.27-1.29l-13.68 22.28c-.46.75-1.11 1.13-1.92 1.13h-.7c-.38 0-.72-.1-1.01-.29-.29-.19-.5-.47-.64-.84l-8.44-22.31c-.02.44-.04.86-.05 1.28-.02.42-.04.8-.08 1.13l-3.17 26.15h-4.39l4.42-36.05h3.67c.43 0 .75.05.96.15.21.1.43.34.66.7l8.46 22.28c.1.34.21.69.31 1.05zM204.41 106.84h-5.02l4.39-36.05h4.99l-4.36 36.05zM222.85 87.59l-8.34-16.81H219c.37 0 .62.05.77.16.15.11.29.3.42.56l6.24 13.39c.13-.29.32-.61.55-.98l8.84-12.38c.35-.5.76-.75 1.22-.75h5.14l-12.46 16.58 9.37 19.47h-4.45c-.37 0-.64-.1-.82-.29-.19-.19-.33-.41-.45-.64l-7.11-15.52c-.07.13-.14.27-.21.4-.07.13-.15.26-.24.38l-10.54 14.74c-.43.62-.98.93-1.65.93h-4.94l14.17-19.24zM253.09 74.81l-.16-.1c-.71-.2-1.34-.64-1.83-1.31-.28-.38-.5-.8-.68-1.28l-.08-.23-.23-.05V70.8l.17-.18-.02-.01c.36-.92.78-1.79 1.2-2.65 1.09-2.17 2.43-4.34 4.09-6.64 1.26-1.73 2.58-3.33 3.91-4.76.43-.46 1.65-1.7 1.65-1.7l-1.4-1.72c-.55-.66-1.07-1.33-1.54-2.05-.95-1.47-1.64-3.16-2.03-5-.35-1.64-.47-3.34-.37-5.04.24-3.89 1.56-7.38 3.93-10.38.65-.79 1.39-1.56 2.29-2.35 1.81-1.61 3.77-3.09 6-4.51 1.79-1.14 3.73-2.29 5.93-3.52l5.93-3.35c2.13-1.2 4.05-2.37 5.86-3.59 1.73-1.17 3.22-2.29 4.54-3.39 1.29-1.09 2.57-2.37 3.79-3.8 1.23-1.43 2.26-2.82 3.13-4.25l.14-.24c.13-.22.26-.43.37-.65.13-.23.28-.48.54-.7l.19-.16s.38-.21.75-.13.6.58.6.58.24.73.19 1.2-.12 1.21-.17 1.67l-.16 1.61c-.05.51-.1 1.01-.14 1.52 0 0-.8 7.91-.85 8.52l-.14 1.28c-.05.62-.12 1.27-.18 1.9-.05.42-.09.84-.11 1.27l-.71 7.27c-.05.43-.09.86-.12 1.28l-.47 4.92c-.06.54-.26 2.15-.26 2.15-.16 1.17-.36 2.33-.59 3.46-.43 2.03-.91 3.81-1.48 5.46-.72 2.07-1.53 3.84-2.48 5.43-.85 1.43-1.8 2.65-2.88 3.72-1.29 1.26-2.75 2.27-4.45 3.07-1.2.57-2.48 1-3.82 1.3-1.02.22-1.96.37-2.86.44-.9.09-1.83.14-2.75.14-.51 0-1.02-.01-1.53-.04-.48-.01-.98-.04-1.47-.08-.52-.05-2.63-.27-2.63-.27s-1.13-.16-1.46-.21l-1.88-.31-2.29-.43c-.42.56-.73 1.05-1.04 1.56-.72 1.17-1.42 2.48-2.14 4.04-1.16 2.49-2.24 5.27-3.3 8.49-.25.78-.49 1.56-.73 2.35-.12.41-.36.71-.73.9-.47.25-.91.42-1.35.51l-.29.08h-1.4zm6.21-14.48c-1.15 1.39-2.24 2.86-3.25 4.38-1.28 1.97-2.25 3.69-3.03 5.41-.12.23-.21.45-.3.67l-.21.5c.11.06.25.41.46.68.23.3.48.44.82.47.32 0 .62-.07.95-.21l.08-.28c.23-.74.47-1.48.72-2.22 1.03-3.11 2.11-5.87 3.3-8.42.16-.34.31-.67.46-.98zm5.48-5.76c1.14.21 2.29.42 3.44.61 1.07.17 2.15.31 3.23.43.91.08 1.85.15 2.78.19.3.01.61.01.92.01.8 0 1.59-.03 2.38-.1.94-.07 1.84-.2 2.69-.39 1.27-.27 2.45-.66 3.5-1.15 1.44-.66 2.72-1.53 3.78-2.57.9-.87 1.7-1.88 2.4-3 .19-.3.37-.61.55-.92l-22.36.81c-.57 1-1.14 2.01-1.69 3.03-.57 1-1.1 2.02-1.62 3.05zm-3.42-22.27c-.72.98-1.4 2.09-1.94 3.32-.9 2.02-1.35 4.22-1.35 6.53 0 1.29.12 2.44.37 3.51.29 1.38.78 2.64 1.46 3.75.45.73.99 1.47 1.66 2.26.23.26 1.28 1.55 1.36 1.66 0 0 .5-.99.75-1.45l1.31-2.44 1.2-2.12-4.82-15.02zm12.99 6.31c-.63.86-1.27 1.74-1.9 2.64-.78 1.16-1.5 2.37-2.22 3.59-.26.44-.52.88-.78 1.31 0 0 17.74-.64 18.73-.68.44-.01 3.42-.12 3.42-.12 1-2.37 1.78-5.05 2.36-8.16l-19.61 1.42zm-11.22-8.12c.61 1.97 3.44 10.88 4.55 14.29l.94-1.61c1.13-1.93 2.36-3.78 3.65-5.5l.22-.3-2.83-11.79c-2.53 1.59-4.67 3.2-6.53 4.91zm18.88-.98l-.07.16-.88.99c-1.18 1.32-2.37 2.65-3.53 4.02-.41.5-.83 1-1.24 1.51l18.04-1.3.08-.6c.08-.66.16-1.33.23-1.99.07-.7.38-4.14.38-4.14-.06-.01-12.35 1.27-13.01 1.35zm-7.78 5.63c.88-1.09 1.77-2.15 2.66-3.19 1.14-1.29 2.28-2.58 3.43-3.86l-.25-2.08-.77-6c-.83.47-4.54 2.53-4.54 2.53-.94.53-1.88 1.09-2.82 1.64l-.3.18c.54 2.22 2.59 10.78 2.59 10.78zm15.63-13.28c-.4.06-.81.13-1.22.18-1.2 1.49-2.5 2.95-3.79 4.4l-.48.53s9.55-.99 10-1.05c.3-.02.59-.05.87-.08.12-1.07.36-3.57.47-4.86l-5.85.88zm-8.47-3.04c.18 1.5.37 3 .57 4.51l.33 2.62c.44-.51.9-1.02 1.35-1.54 1.14-1.27 2.26-2.56 3.35-3.87l-.75-4.68-.83.54c-1.32.84-2.67 1.64-4.02 2.42zm15.45-9.25c-.32.86-.63 1.59-.89 2.08-1.25 2.28-2.73 4.54-4.4 6.74-.26.34-.52.68-.78 1.01l5.17-.78.9-9.05zm-7.97 8.65c.97-1.25 1.79-2.36 2.54-3.46 1.42-2.08 2.59-4.08 3.57-6.09-.13.14-.26.28-.4.42-.94 1.02-1.96 1.99-3.03 2.88-1.07.88-2.17 1.72-3.29 2.51.01.02.61 3.74.61 3.74z"/></svg>