<svg version="1.1" id="Layer_1" xmlns="http://www.w3.org/2000/svg" x="0" y="0" viewBox="-76 299.2 457.7 194.8" xml:space="preserve"><style type="text/css">.st0-a{fill:#69387f;}</style><path class="st0-a" d="M-74.4 483.8v-42.5h5.9v16.6c1.1-1.1 2.3-2 3.6-3 1.3-.7 3-1.1 4.8-1.1 1.6 0 3 .3 4.2.9 1.1.7 2 1.3 2.9 2.3.7.9 1.3 2 1.9 3.4.4 1.3.7 3 .7 4.6v18.6H-56V465c0-2-.4-3.4-1.3-4.6-.9-1.1-2.3-1.6-3.9-1.6-1.3 0-2.5.3-3.6.9-1.1.7-2 1.6-3.2 2.5v21.4h-6.2l-.2.2zM-35.5 492.3c-.3.4-.4.7-.7 1.1-.3.4-.7.4-1.3.4h-4.4l5-11.8-11.4-27.2h5c.4 0 .9.3 1.1.4.3.3.4.4.7.9l6.6 16.6c.3.9.7 1.9.9 3 .3-.4.3-.9.4-1.3.3-.4.3-.9.4-1.3l6.3-16.6c.3-.4.3-.7.7-.9.3-.3.7-.4.9-.4h4.6l-14.8 37.1zM2.7 483.8c-.7 0-1.3-.4-1.6-1.1l-.4-3.2c-.7.7-1.1 1.3-1.9 2-.7.7-1.3 1.1-2 1.6-.7.4-1.6.7-2.5.9-.9.3-1.9.4-2.7.4-1.6 0-3-.3-4.3-.9-1.3-.7-2.3-1.6-3.2-3-.9-1.4-1.6-2.7-2-4.8-.4-1.9-.7-4.2-.7-6.3 0-2.3.3-4.2.9-6.2.4-1.9 1.3-3.4 2.3-4.8 1.1-1.3 2.3-2.5 3.6-3.2s3.2-1.1 5-1.1c1.6 0 3 .3 4.2.9 1.1.4 2 1.3 3 2.3v-15.7h5.9v42.5H2.9l-.2-.3zm-9.3-4.5c1.6 0 2.7-.3 3.9-.9 1.1-.7 2-1.6 3-3v-13.7c-.9-1.1-1.9-1.9-2.7-2.3-.9-.4-2-.7-3.2-.7-2.3 0-4.2.9-5.2 2.7-1.3 1.9-1.9 4.3-1.9 7.9 0 1.9.3 3.4.4 4.6.3 1.1.7 2.3 1.1 3.2.4.9 1.1 1.3 2 1.9.7.3 1.7.3 2.6.3zM13.1 483.8v-29.4h3.4c.7 0 1.1.3 1.3.4.3.3.4.7.4 1.1l.3 3.9c.9-1.9 2-3.4 3.2-4.3 1.1-1.1 2.7-1.6 4.3-1.6.7 0 1.1 0 1.6.3.4.3.9.4 1.3.7l-.4 4.6c0 .3-.3.4-.3.7s-.4.3-.7.3-.7 0-1.1-.3c-.4 0-1.1-.3-1.6-.3-.9 0-1.6.3-2.3.4-.7.3-1.1.7-1.6 1.1-.4.4-.9 1.1-1.3 1.9-.4.7-.7 1.3-1.1 2.3v18.2h-5.4zM50.4 483.8c-.4 0-.9 0-1.3-.3s-.4-.4-.7-1.1l-.4-2.3c-.7.7-1.3 1.3-2 1.9-.7.4-1.3.9-2 1.3s-1.6.7-2.3.9c-.7.3-1.9.3-2.7.3-1.1 0-2.3-.3-3.2-.4-.9-.3-1.9-.9-2.5-1.6-.7-.7-1.3-1.3-1.6-2.5-.4-.9-.7-2-.7-3.4 0-1.1.3-2.3.9-3.4.4-1.1 1.6-2 2.7-3 1.3-.9 3-1.6 5.2-2 2-.4 4.8-.9 7.9-.9v-1.7c0-2-.4-3.6-1.3-4.8s-2-1.6-3.6-1.6c-1.1 0-2 .3-2.7.4-.7.3-1.3.7-2 .9-.4.4-1.1.7-1.6.9-.4.3-.9.4-1.3.4s-.7 0-.9-.3c-.3-.3-.4-.4-.7-.9l-1.1-2c3.2-3.2 6.8-4.6 11.1-4.6 1.6 0 3 .3 4.3.9 1.1.4 2.3 1.3 3.2 2.3.9.9 1.6 2.3 1.9 3.6s.7 3 .7 4.6V484h-3l-.3-.2zm-10-3.9c1.6 0 2.7-.3 3.9-.9 1.1-.7 2-1.3 3.2-2.5V471c-2 0-3.9.3-5.2.4-1.3.3-2.5.7-3.4 1.1-.9.4-1.6.9-1.9 1.6-.3.7-.7 1.1-.7 2 0 .7 0 1.3.3 1.9.3.4.4.9.9 1.1.4.3.9.4 1.3.7.4.3.9.1 1.6.1zM68.4 484.4c-2.3 0-4.2-.7-5.2-2-1.1-1.3-1.9-3.4-1.9-5.6v-17h-3.2c-.3 0-.7 0-.9-.3-.3-.3-.4-.4-.4-.9v-2.5l4.6-.7 1.3-8.5c0-.3.3-.7.4-.7.3-.3.4-.3.9-.3h3v9.5h19.3v28.8h-5.9v-24.3H67v16.7c0 1.1.3 1.9.7 2.5.4.7 1.1.9 2 .9.4 0 .9 0 1.1-.3.3-.3.7-.3.9-.4.3-.3.4-.3.7-.4.3-.3.3-.3.4-.3.3 0 .7.3.7.7l1.9 3c-.9.9-2 1.6-3.2 2-1.2-.2-2.5.1-3.8.1zm19-38.8c0 .4 0 1.1-.3 1.6-.3.4-.4.9-.9 1.3-.4.4-.7.7-1.3.9-.4.3-.9.3-1.6.3-.4 0-.9 0-1.3-.3s-.9-.4-1.1-.9c-.3-.4-.7-.9-.9-1.3-.3-.4-.3-.9-.3-1.6s0-1.1.3-1.6c.3-.4.4-.9.9-1.3.4-.4.7-.7 1.1-.9.4-.3.9-.3 1.3-.3s1.1 0 1.6.3c.4.3.9.4 1.3.9.4.4.7.9.9 1.3.3.5.3 1.2.3 1.6zM105.7 454.3c2 0 3.9.4 5.5 1.1s3 1.9 4.3 3 2 3 2.7 4.8c.7 1.9.9 3.9.9 6.3 0 2.3-.3 4.3-.9 6.3-.7 1.9-1.6 3.4-2.7 4.8-1.1 1.3-2.5 2.3-4.3 3-1.6.7-3.4 1.1-5.5 1.1-2 0-3.9-.4-5.5-1.1s-3-1.9-4.3-3c-1.1-1.3-2-3-2.7-4.8-.7-1.9-.9-3.9-.9-6.3 0-2.3.3-4.3.9-6.3.7-1.9 1.6-3.4 2.7-4.8 1.1-1.3 2.5-2.3 4.3-3 1.3-.8 3.5-1.1 5.5-1.1zm0 25.2c2.5 0 4.3-.9 5.5-2.7 1.1-1.9 1.9-4.3 1.9-7.5s-.7-5.9-1.9-7.8c-1.1-1.9-3.2-2.7-5.5-2.7-2.5 0-4.3.9-5.6 2.7-1.1 1.9-1.9 4.3-1.9 7.8 0 3.2.7 5.9 1.9 7.5 1 1.8 2.9 2.7 5.6 2.7zM124.6 483.8v-29.4h3.4c.7 0 1.3.4 1.6 1.1l.4 3 1.9-1.9c.7-.4 1.3-.9 2-1.3s1.6-.7 2.3-.9c.9-.3 1.9-.3 2.7-.3 1.6 0 3 .3 4.2.9 1.1.7 2 1.3 3 2.3.7.9 1.3 2 1.9 3.4.4 1.3.7 3 .7 4.6v18.6h-5.6v-18.6c0-2-.4-3.4-1.3-4.6-.9-1.1-2.3-1.6-3.9-1.6-1.3 0-2.5.3-3.6.9-1.1.7-2 1.6-3.2 2.5v21.3h-6.5zM182.9 450.4v12.1h10.7v4.6h-10.7v12.1h-4.8v-12.1h-10.7v-4.6h10.7v-12.1h4.8zM224.8 454.3c1.6 0 3.2.3 4.8.9 1.3.7 2.7 1.3 3.6 2.5 1.1 1.1 1.9 2.5 2.5 4 .7 1.6.9 3.4.9 5.6 0 .9 0 1.6-.3 1.9s-.4.4-1.1.4h-17.8c0 1.6.3 3.2.7 4.3.4 1.1.9 2.3 1.6 3s1.6 1.3 2.5 1.9c.9.4 2 .7 3.2.7s2-.3 3-.4c.9-.3 1.6-.7 2.3-.9.7-.3 1.2-.7 1.6-.9.4-.3.9-.4 1.1-.4.4 0 .9.3 1.1.7l1.6 2.3c-.7.9-1.3 1.6-2.3 2.3-.9.7-1.9 1.1-2.7 1.3-.9.4-2 .7-3 .9-.9.3-2 .3-3 .3-1.9 0-3.6-.3-5.2-.9-1.6-.6-3-1.6-4.3-3-1.1-1.3-2-3-2.7-5s-.9-4.2-.9-6.8c0-2 .3-3.9.9-5.6.7-1.9 1.3-3.2 2.6-4.6 1.1-1.3 2.5-2.3 4.2-3.2 1.2-1 3.1-1.3 5.1-1.3zm0 4.3c-2 0-3.9.7-5 1.9-1.1 1.3-2 3.2-2.3 5.5h13.7c0-1.1-.3-2-.4-3-.3-.9-.7-1.6-1.1-2.3s-1.1-1.1-2-1.6c-1-.5-1.7-.5-2.9-.5zM241.8 483.8v-29.4h3.4c.7 0 1.3.4 1.6 1.1l.4 2.7 1.9-1.9c.7-.4 1.3-.9 2-1.3s1.6-.7 2.3-.9c.9-.3 1.9-.3 2.7-.3 1.6 0 2.9.3 4.2.9 1.1.7 2 1.3 2.9 2.3.7.9 1.3 2 1.9 3.4.4 1.3.7 3 .7 4.6v18.6h-6.2V465c0-2-.4-3.4-1.3-4.6-.9-1.1-2.3-1.6-3.9-1.6-1.3 0-2.5.3-3.6.9-1.1.7-2 1.6-3.2 2.5v21.4l-5.8.2zM283.9 454.3c1.6 0 3.2.3 4.8.9 1.3.7 2.7 1.3 3.6 2.5 1.1 1.1 1.9 2.5 2.5 4 .7 1.6.9 3.4.9 5.6 0 .9 0 1.6-.3 1.9s-.4.4-1.2.4h-17.7c0 1.6.3 3.2.7 4.3.4 1.1.9 2.3 1.6 3s1.6 1.3 2.5 1.9c.9.4 2 .7 3.2.7 1.1 0 2-.3 2.9-.4.9-.3 1.6-.7 2.3-.9.7-.3 1.1-.7 1.6-.9.4-.3.9-.4 1.1-.4.4 0 .9.3 1.1.7l1.6 2.3c-.7.9-1.3 1.6-2.3 2.3s-1.9 1.1-2.7 1.3c-.9.4-2 .7-3 .9-.9.3-2 .3-3 .3-1.9 0-3.6-.3-5.2-.9-1.6-.7-3-1.6-4.3-3-1.1-1.3-2-3-2.7-5s-.9-4.2-.9-6.8c0-2 .3-3.9.9-5.6.7-1.9 1.3-3.2 2.5-4.6 1.1-1.3 2.5-2.3 4.2-3.2 1.5-1 3.3-1.3 5.3-1.3zm0 4.3c-2 0-3.9.7-5 1.9-1.1 1.3-2 3.2-2.3 5.5h13.7c0-1.1-.3-2-.4-3-.3-.9-.7-1.6-1.1-2.3s-1.1-1.1-2-1.6c-1-.5-1.8-.5-2.9-.5zM301 483.8v-29.4h3.4c.7 0 1.1.3 1.3.4.3.3.4.7.4 1.1l.3 3.9c.9-1.9 2-3.4 3.2-4.3 1.1-1.1 2.7-1.6 4.3-1.6.7 0 1.1 0 1.6.3.4.3.9.4 1.3.7l-.4 4.6c0 .3-.3.4-.3.7s-.4.3-.7.3c-.3 0-.7 0-1.1-.3-.4 0-1.2-.3-1.6-.3-.9 0-1.6.3-2.3.4-.7.3-1.1.7-1.6 1.1-.4.4-.9 1.1-1.3 1.9-.4.7-.7 1.3-1.1 2.3v18.2H301zM330.4 454c1.1 0 2.3.3 3.4.4 1.1.1 2 .7 3 1.1h7.8v2.3c0 .7-.4 1.1-1.3 1.3l-2.7.4c.4 1.1.7 2.3.7 3.6s-.3 2.7-.9 3.9c-.4 1.1-1.3 2.3-2.3 3-.9.9-2 1.3-3.4 1.9-1.3.4-2.7.7-4.3.7h-1.6c-.4 0-1.1-.3-1.6-.3-.4.3-.9.7-1.1 1.1-.3.4-.4.7-.4 1.1 0 .7.3 1.1.7 1.3.4.3 1.1.4 2 .7s1.9.3 3 .3 2.3 0 3.4.3 2.3.3 3.4.4c1.2.3 2 .7 3 1.1.9.4 1.6 1.1 2 2s.7 2 .7 3.4-.3 2.5-.9 3.6c-.7 1.1-1.3 2.3-2.5 3.2-1.1.9-2.5 1.6-4.2 2.3-1.6.7-3.4.9-5.5.9-2 0-3.9-.3-5.5-.7s-2.7-.9-3.9-1.9c-.9-.7-1.9-1.6-2.3-2.5s-.7-1.9-.7-3c0-1.3.4-2.5 1.1-3.6.9-.9 2-1.9 3.4-2.3-.7-.4-1.3-.9-1.9-1.6-.4-.7-.7-1.6-.7-2.7 0-.4 0-.9.3-1.3s.4-.9.7-1.3c.3-.4.7-.9 1.1-1.3.4-.4.9-.7 1.6-1.1-1.3-.9-2.5-1.9-3.2-3.2s-1.1-3-1.1-4.8c0-1.3.3-2.7.9-3.9.4-1.1 1.3-2.3 2.3-3 .9-.9 2-1.3 3.4-1.9 1.1.4 2.4.1 4.1.1zm7.9 31.4c0-.7-.3-1.1-.4-1.6-.4-.4-.9-.7-1.3-.9-.7-.3-1.3-.4-2-.4-.9 0-1.6-.3-2.5-.3s-1.9 0-2.7-.3c-.9 0-1.9-.3-2.7-.3-.9.4-1.6 1.1-2 1.9-.4.7-.9 1.3-.9 2.3 0 .7.3 1.1.4 1.6.3.4.7.9 1.3 1.3.7.4 1.3.7 2.3.9.9.3 2 .3 3.2.3 2.5 0 4.6-.4 5.6-1.3 1.3-.9 1.7-2 1.7-3.2zm-7.9-16.3c1.9 0 3.2-.4 4.2-1.3.9-.9 1.3-2.3 1.3-3.9s-.4-3-1.3-3.9-2.3-1.3-4.2-1.3c-1.9 0-3.2.4-4.2 1.3-.9.9-1.3 2.3-1.3 3.9 0 .7.3 1.3.4 2 .3.7.7 1.1 1.1 1.6.4.4.9.9 1.6 1.1.7.2 1.4.5 2.4.5zM358.1 492.3c-.3.4-.4.7-.7 1.1-.3.4-.7.4-1.3.4h-4.4l5-11.8-11.4-27.2h5c.4 0 .9.3 1.1.4.3.3.4.4.7.9l6.6 16.6c.3.9.7 1.9.9 3 .3-.4.3-.9.4-1.3.3-.4.3-.9.4-1.3l6.3-16.6c.3-.4.3-.7.7-.9.3-.3.7-.4.9-.4h4.6l-14.8 37.1zM-17 395.5c0 3.7-.3 7.6-1.2 10.9-.7 3.4-1.9 6.6-3.4 9.4-1.5 2.9-3.4 5.6-5.6 7.7-2 2.2-4.5 4.2-7.2 5.9-2.7 1.5-5.6 2.9-8.6 3.5s-6.2 1.3-9.8 1.3H-76l8.3-68h23.4c4.2 0 7.9.7 11.3 2 3.4 1.3 6.2 3.4 8.6 6.1s4.2 5.7 5.6 9.3c1.3 3.5 1.8 7.5 1.8 11.9zm-9.6.2c0-3.4-.3-6.4-1.3-9.1s-2-4.9-3.5-7.1c-1.5-1.9-3.5-3.4-5.9-4.4-2.2-1-4.9-1.5-7.7-1.5h-14l-6.4 52.9h14c3.7 0 7.2-.7 10.3-2 3-1.5 5.7-3.4 7.9-6.1 2.2-2.7 4-5.9 5.1-9.6 1-4 1.5-8.4 1.5-13.1zM3.7 406L.3 434.1h-9.2l8.2-68h18c3.5 0 6.7.3 9.4 1.2 2.7.7 4.9 1.9 6.6 3.4s3 3.2 3.7 5.1c.7 2 1.3 4.4 1.3 6.7 0 2.7-.3 5.2-1.2 7.6-.7 2.5-1.9 4.5-3.4 6.4s-3.4 3.4-5.6 4.7c-2 1.3-4.5 2.2-7.4 3 1.2.7 2 1.7 2.7 3L37.5 434h-8.2c-1.7 0-2.9-.7-3.4-2l-12.1-24.4c-.3-.7-1-1.3-1.5-1.7s-1.3-.3-2.5-.3l-6.1.4zm3.9-32.5l-3.2 25.6h8.2c2.7 0 4.9-.3 7.1-1.2 2.2-.8 3.5-1.9 5.1-3.2 1.3-1.3 2.2-3 3-4.7.7-1.9 1-3.7 1-6.1 0-3.4-1.2-5.9-3.2-7.7-2-1.7-5.2-2.7-9.4-2.7H7.6zM55.6 434.2h-9.5l8.3-68h9.4l-8.2 68zM86.7 366.4c.3.2.7.5 1.2 1.3l28.8 51c0-.7.2-1.5.2-2.2s.2-1.3.2-2l5.9-48.7h8.2l-8.2 68h-4.7c-.8 0-1.3-.2-1.9-.3-.3-.2-1-.7-1.3-1.3l-28.8-51-.3 3.4-6.1 49.3h-8.1l8.2-68h4.9c.6.3 1.3.3 1.8.5zM152.9 395.8h3c1.2 0 2-.2 2.7-.3.7-.3 1.3-.7 2-1.5l22.9-25.6c.7-.7 1.3-1.5 2-1.7.8-.3 1.7-.3 2.7-.3h7.9l-26.4 29.3c-1.3 1.5-2.5 2.5-3.7 3.2.8.3 1.5.7 2 1.3.5.5 1.2 1.3 1.7 2.2l19.9 32.2h-8.1c-1.2 0-2-.2-2.7-.5-.5-.3-1-.7-1.3-1.5l-17.2-26.8c-.3-.7-1-1.3-1.7-1.7-.5-.3-1.7-.5-3-.5h-4l-3.7 31h-9.3l8.3-68.2h9.4l-3.4 29.4zM254.2 411.7c.2.7.3 1.3.5 2 .3-.7.5-1.3 1-2s.7-1.3 1.2-2l26.1-42.1c.2-.3.5-.5.7-.8.2-.2.3-.3.7-.5.2-.2.5-.2.8-.2H293.5l-8.3 68h-8.1l6.1-49.3c.2-.5.2-1.3.3-2.2.2-1 .3-1.7.5-2.5l-25.9 42c-1 1.5-2 2-3.5 2h-1.5c-.7 0-1.3-.2-1.9-.5-.5-.3-1-1-1.2-1.5L234.2 380c0 .7 0 1.7-.2 2.5 0 .7 0 1.5-.2 2l-6.1 49.7h-8.2l8.2-68h7.1c.7 0 1.5 0 1.9.2.3.2.7.5 1.3 1.3l16 42.1c-.1.5.1 1.4.2 1.9zM310.5 434.2h-9.4l8.3-68h9.4l-8.3 68zM345.5 397.9l-15.7-31.8h8.2c.7 0 1.2.2 1.5.3.2.2.5.5.7 1.2l11.8 25.3c.2-.5.5-1.2 1.2-1.9l16.7-23.4c.7-1 1.5-1.5 2.2-1.5h9.6l-23.6 31.3 17.8 36.9h-8.3c-.7 0-1.2-.2-1.5-.5s-.5-.7-.7-1.2l-13.3-29.3c-.2.2-.2.5-.3.7s-.2.5-.3.7l-19.9 27.8c-.7 1.2-1.9 1.7-3 1.7h-9.3l26.2-36.3z"/><g><path class="st0-a" d="M-57.1 314c.2 0 .3.1.6.2.2.1.2.2.5.3.1.2.2.3.3.6l14.8 29.4c0-.6.1-1.2.1-1.7.1-.6.1-1 .2-1.5l2.9-27.4h6l-4.6 43h-3.5c-.6 0-1-.1-1.4-.2-.3-.2-.6-.6-.9-1l-14.8-29.5c0 .5-.1.9-.1 1.4s-.1.9-.1 1.3L-60 357h-6l4.6-43h4.3zM.8 357h-5.2c-.6 0-1-.2-1.5-.5-.3-.2-.6-.7-.6-1.3l-1.5-9h-14.1l-3.5 9c-.2.5-.6.9-.9 1.2-.5.3-.9.6-1.5.6h-5.3l18.2-43.1h6.9l9 43.1zM-20 340.8h11l-2.5-14.8c-.2-.7-.2-1.5-.5-2.3-.2-.8-.2-1.7-.3-2.7-.3 1-.6 1.9-1 2.7-.3.8-.6 1.5-.9 2.2l-5.8 14.9zM29.2 313.9l-.7 6.4H18.2L14.3 357H7.6l3.9-36.7H1.1l.6-6.4h27.5zM43.4 350.8c1.2 0 2.3-.2 3.4-.8 1-.6 1.9-1.3 2.7-2.3.7-1 1.4-2.2 1.9-3.5.6-1.4.8-2.8 1-4.5l2.8-25.9H62l-2.7 25.9c-.2 2.5-.8 4.9-1.8 7.1-.9 2.2-2.1 4-3.5 5.6-1.5 1.5-3.1 2.8-5 3.7s-4 1.4-6.1 1.4c-2 0-3.8-.3-5.4-1-1.5-.7-2.9-1.7-4-3.1-1-1.3-1.9-2.9-2.5-4.7s-.8-3.8-.8-6c0-.9.1-1.8.2-2.8l2.7-25.9h6.8l-2.8 25.8c-.1.3-.1.7-.1 1v1c0 1.4.2 2.5.5 3.6s.7 2 1.3 2.8c.6.8 1.3 1.4 2.1 1.8.4.5 1.3.8 2.5.8zM72.3 339.9l-1.8 16.9h-6.7l4.6-43h10.7c2.2 0 4.1.2 5.6.8s2.8 1.3 3.8 2.2 1.7 2.1 2.2 3.4c.5 1.4.7 2.7.7 4.4s-.2 3.2-.6 4.7c-.3 1.5-1 2.8-1.7 4-.7 1.1-1.7 2.3-2.8 3.1-1 .9-2.3 1.5-3.8 2.1.3.2.8.6 1 1 .3.5.6.9.8 1.5l6.8 16.1h-6c-.6 0-1-.1-1.5-.3-.3-.2-.7-.6-.9-1l-5.6-14.1c-.2-.6-.5-.9-.8-1-.2-.2-.8-.4-1.5-.4.2-.4-2.5-.4-2.5-.4zm2.2-20l-1.6 14.6h3.9c1.4 0 2.5-.2 3.6-.7 1-.5 1.8-1 2.4-1.8.6-.8 1-1.7 1.5-2.7.2-1 .5-2.2.5-3.5 0-1.9-.6-3.4-1.5-4.4-1-1.1-2.5-1.5-4.7-1.5h-4.1zM125.7 356.8h-5.2c-.6 0-1-.2-1.5-.5-.4-.3-.6-.7-.6-1.3l-1.5-9h-14.1l-3.5 9c-.2.5-.6.8-.9 1.2-.5.3-.9.6-1.5.6h-5.3l18.2-43.1h6.9l9 43.1zm-20.9-16.1h11l-2.5-14.7c-.1-.7-.2-1.5-.5-2.3-.1-.8-.2-1.7-.3-2.7-.3 1-.6 1.9-1 2.7s-.6 1.5-.9 2.2l-5.8 14.8zM136.1 350.4h13.8l-.6 6.5h-20.6l4.6-43h6.8l-4 36.5z"/><path id="XMLID_2_" class="st0-a" d="M159 366.7l-.2-.1c-.6-.2-1.2-.6-1.6-1.2-.2-.4-.5-.7-.6-1.2l-.2-.1-.2-.1v-.9l.2-.2c.3-.8.7-1.6 1-2.3 1-2 2.2-3.9 3.7-6 1.2-1.5 2.3-3 3.5-4.4.4-.5 1.5-1.5 1.5-1.5l-1.3-1.5c-.5-.6-1-1.2-1.4-1.8-.9-1.4-1.5-2.9-1.8-4.5-.3-1.5-.5-3-.3-4.5.2-3.6 1.5-6.7 3.5-9.4.6-.7 1.3-1.5 2.1-2.2 1.6-1.5 3.5-2.8 5.4-4.1 1.6-1 3.4-2.1 5.3-3.1l5.3-3.1c1.9-1 3.6-2.2 5.3-3.2 1.5-1 2.9-2.1 4.1-3.1 1.2-1 2.3-2.2 3.5-3.5 1-1.3 2.1-2.5 2.8-3.8l.1-.2c.1-.2.2-.3.3-.6.1-.2.2-.5.5-.6l.2-.2s.3-.2.7-.1c.4.1.6.6.6.6s.2.6.2 1c0 .5-.1 1-.2 1.5l-.2 1.5c0 .5-.1.9-.1 1.4 0 0-.7 7.2-.8 7.7l-.1 1.2c0 .6-.1 1.2-.2 1.7 0 .3-.1.7-.1 1.2l-.6 6.6c0 .3-.1.8-.1 1.2l-.5 4.4c-.1.5-.2 1.9-.2 1.9-.2 1-.3 2.1-.6 3.1-.3 1.8-.8 3.5-1.4 5-.6 1.9-1.4 3.5-2.3 4.9-.8 1.3-1.6 2.3-2.7 3.4-1.2 1.2-2.5 2.1-4.1 2.8-1 .6-2.3.9-3.5 1.2-.9.2-1.8.3-2.7.3-.8.1-1.6.1-2.5.1h-1.4s-.9 0-1.4-.1c-.5 0-2.3-.2-2.3-.2s-1-.2-1.4-.2l-1.7-.2-2.1-.3c-.3.6-.6 1-.9 1.5-.6 1-1.3 2.3-1.9 3.6-1 2.3-2 4.8-3 7.7-.2.7-.5 1.5-.6 2.1-.1.3-.3.6-.6.8-.5.2-.8.3-1.3.5l-.2.1c.8-.5-.5-.5-.5-.5zm5.6-13c-1 1.3-2 2.7-2.9 4-1.2 1.8-2 3.4-2.7 4.9-.1.2-.2.5-.2.6l-.2.5c.1.1.2.4.5.6.2.2.5.4.7.5.2 0 .6-.1.8-.2l.1-.2c.2-.6.5-1.4.6-2 .9-2.8 1.9-5.3 3-7.6.1-.7.2-.9.3-1.1zm5-5.3c1 .2 2.1.4 3.1.6s1.9.2 2.9.3c.8.1 1.7.1 2.5.2h.8c.7 0 1.5 0 2.2-.1l2.4-.3c1.2-.2 2.3-.6 3.1-1 1.3-.6 2.4-1.4 3.5-2.3.8-.8 1.5-1.7 2.2-2.7.2-.2.3-.6.5-.8l-20.2.7c-.6.9-1 1.8-1.5 2.7-.6.9-1 1.7-1.5 2.7zm-3.1-20.2c-.6.9-1.3 1.9-1.7 3-.8 1.8-1.3 3.8-1.3 5.9 0 1.2.1 2.2.3 3.1.2 1.3.7 2.3 1.4 3.5.5.6.9 1.4 1.5 2.1.2.2 1.2 1.5 1.3 1.5 0 0 .5-.9.7-1.3l1.2-2.2 1-1.9-4.4-13.7zm11.8 5.8c-.6.8-1.2 1.5-1.7 2.3-.7 1-1.4 2.2-2 3.2-.2.3-.5.8-.7 1.2 0 0 16.1-.6 16.9-.6.3 0 3.1-.1 3.1-.1.9-2.2 1.6-4.5 2.2-7.4l-17.8 1.4zm-10.2-7.4c.6 1.8 3.1 9.8 4.1 13l.8-1.5c1-1.7 2.2-3.5 3.2-5l.2-.2-2.5-10.6c-2.2 1.3-4.1 2.7-5.8 4.3zm17.1-.9l-.1.2-.8.9c-1 1.2-2.2 2.3-3.1 3.6-.3.5-.7.9-1 1.4l16.3-1.2.1-.6c.1-.6.2-1.2.2-1.8.1-.6.3-3.7.3-3.7-.1 0-11.3 1.2-11.9 1.2zm-7 5.1c.8-1 1.6-2 2.4-2.9 1-1.2 2.1-2.3 3.1-3.6l-.2-1.9-.7-5.4c-.7.5-4.1 2.3-4.1 2.3-.8.5-1.7 1-2.5 1.5l-.2.2c.3 2 2.2 9.8 2.2 9.8zm14.2-12.1c-.3.1-.7.1-1 .2-1 1.4-2.3 2.7-3.5 4l-.5.5s8.6-.9 9-.9c.2 0 .6-.1.8-.1.1-1 .3-3.2.5-4.4l-5.3.7zm-7.8-2.6c.2 1.4.3 2.7.6 4.1l.2 2.3c.3-.5.8-.9 1.3-1.4 1-1.2 2.1-2.3 3.1-3.6l-.7-4.3-.7.5c-1.3.9-2.6 1.6-3.8 2.4zm14-8.5c-.2.8-.6 1.5-.8 1.9-1 2.1-2.4 4.1-4 6.1-.2.2-.5.6-.7.9l4.7-.7.8-8.2zm-7.1 7.9c.9-1 1.6-2.2 2.3-3.1 1.3-1.9 2.3-3.7 3.2-5.5l-.3.3c-.8.9-1.8 1.8-2.7 2.7-1 .8-2 1.5-3 2.3-.1-.1.5 3.3.5 3.3z"/></g></svg>