<svg version="1.1" id="Layer_1" xmlns="http://www.w3.org/2000/svg" x="0" y="0" viewBox="-137 312.4 336.7 168.6" xml:space="preserve"><style type="text/css">.st0-green{fill:#77BC1F;}</style><path class="st0-green" d="M-120.8 330.6c.2 0 .4.1.7.2.3.1.3.2.6.4.1.2.3.4.4.8l18.3 36.4c0-.7.1-1.5.1-2.1.1-.7.1-1.3.2-1.9l3.6-34h7.4l-5.7 53.3h-4.3c-.7 0-1.2-.1-1.7-.3-.4-.2-.8-.7-1.1-1.3l-18.2-36.4c0 .6-.1 1.1-.1 1.7s-.1 1.1-.1 1.6l-3.6 34.8h-7.4l5.7-53.3h4.4c.2.1.5.1.8.1zM-49 383.8h-6.5c-.8 0-1.3-.2-1.8-.6-.4-.3-.7-.9-.8-1.6l-1.9-11.1h-17.5l-4.3 11.1c-.2.6-.7 1.1-1.1 1.5-.6.4-1.1.7-1.8.7h-6.6l22.6-53.4h8.5l11.2 53.4zm-25.8-20h13.6l-3.1-18.3c-.2-.9-.3-1.8-.6-2.8-.2-1-.3-2.1-.4-3.4-.4 1.2-.8 2.4-1.2 3.4s-.8 1.9-1.1 2.7l-7.2 18.4zM-13.7 330.4l-.9 7.9h-12.8l-4.8 45.5h-8.3l4.8-45.5h-12.9l.8-7.9h34.1zM3.8 376.1c1.5 0 2.9-.3 4.2-1 1.2-.7 2.4-1.6 3.3-2.8.9-1.2 1.7-2.7 2.4-4.3.7-1.7 1-3.5 1.2-5.6l3.5-32.1h8.4l-3.4 32.1c-.3 3.1-1 6.1-2.2 8.8-1.1 2.7-2.6 4.9-4.3 7-1.8 1.9-3.8 3.5-6.2 4.6s-4.9 1.7-7.6 1.7c-2.5 0-4.7-.4-6.7-1.3-1.9-.9-3.6-2.1-4.9-3.8-1.3-1.6-2.4-3.6-3.1-5.8-.7-2.2-1-4.7-1-7.4 0-1.1.1-2.2.2-3.5l3.4-32.1h8.4l-3.5 32c-.1.4-.1.9-.1 1.3v1.3c0 1.7.2 3.1.6 4.5s.9 2.5 1.6 3.5 1.6 1.7 2.6 2.2c.7.4 1.8.7 3.2.7zM39.7 362.7l-2.2 21h-8.3l5.7-53.3h13.2c2.7 0 5.1.3 7 1 1.9.7 3.5 1.6 4.7 2.7 1.2 1.1 2.1 2.6 2.7 4.2.6 1.7.9 3.4.9 5.4s-.2 4-.8 5.8c-.4 1.8-1.2 3.5-2.1 4.9s-2.1 2.8-3.5 3.9c-1.3 1.1-2.9 1.9-4.7 2.6.4.3 1 .8 1.3 1.2.4.6.8 1.1 1 1.8l8.4 19.9h-7.5c-.7 0-1.3-.1-1.8-.4-.4-.3-.9-.8-1.1-1.3l-7-17.5c-.2-.7-.6-1.1-1-1.3-.3-.2-1-.4-1.8-.4.2-.2-3.1-.2-3.1-.2zm2.7-24.9l-2 18.1h4.8c1.7 0 3.1-.2 4.4-.9 1.2-.6 2.2-1.3 3-2.2.8-1 1.3-2.1 1.8-3.4.3-1.3.6-2.7.6-4.3 0-2.4-.7-4.2-1.9-5.4-1.2-1.3-3.1-1.9-5.8-1.9h-4.9zM105.9 383.6h-6.5c-.7 0-1.3-.2-1.8-.6-.5-.4-.7-.9-.8-1.6l-1.9-11.1H77.4l-4.3 11.1c-.2.6-.7 1-1.1 1.5-.6.4-1.1.7-1.8.7h-6.6l22.6-53.4h8.5l11.2 53.4zm-26-20h13.6l-3.1-18.2c-.1-.9-.3-1.8-.6-2.8-.1-1-.3-2.1-.4-3.4-.4 1.2-.8 2.4-1.2 3.4-.4 1-.8 1.9-1.1 2.7l-7.2 18.3zM118.8 375.7h17.1l-.8 8h-25.5l5.7-53.3h8.4l-4.9 45.3zM-102 408.9c0 2.2-.2 4.5-.7 6.5-.4 2-1.1 3.9-2 5.6s-2 3.3-3.3 4.6-2.7 2.5-4.3 3.5c-1.6.9-3.3 1.7-5.1 2.1s-3.7.8-5.8.8H-137l4.9-40.4h13.9c2.5 0 4.7.4 6.7 1.2 2 .8 3.7 2 5.1 3.6s2.5 3.4 3.3 5.5c.8 2 1.1 4.4 1.1 7zm-5.7.1c0-2-.2-3.8-.8-5.4s-1.2-2.9-2.1-4.2c-.9-1.1-2.1-2-3.5-2.6-1.3-.6-2.9-.9-4.6-.9h-8.3l-3.8 31.4h8.3c2.2 0 4.3-.4 6.1-1.2 1.8-.9 3.4-2 4.7-3.6s2.4-3.5 3-5.7c.7-2.4 1-5 1-7.8zM-89.7 415.1l-2 16.7h-5.5l4.9-40.4h10.7c2.1 0 4 .2 5.6.7 1.6.4 2.9 1.1 3.9 2 1 .9 1.8 1.9 2.2 3 .4 1.2.8 2.6.8 4 0 1.6-.2 3.1-.7 4.5-.4 1.5-1.1 2.7-2 3.8s-2 2-3.3 2.8c-1.2.8-2.7 1.3-4.4 1.8.7.4 1.2 1 1.6 1.8l8.4 15.9h-4.9c-1 0-1.7-.4-2-1.2l-7.3-14.4c-.2-.4-.6-.8-.9-1-.3-.2-.8-.2-1.5-.2l-3.6.2zm2.3-19.3l-1.9 15.2h4.9c1.6 0 2.9-.2 4.2-.7s2.1-1.1 3-1.9c.8-.8 1.3-1.8 1.8-2.8.4-1.1.6-2.2.6-3.6 0-2-.7-3.5-1.9-4.6-1.2-1-3.1-1.6-5.6-1.6h-5.1zM-58.9 431.9h-5.6l4.9-40.4h5.6l-4.9 40.4zM-40.4 391.6c.2.1.4.3.7.8l17.1 30.3c0-.4.1-.9.1-1.3s.1-.8.1-1.2l3.5-28.9h4.9l-4.9 40.4h-2.8c-.5 0-.8-.1-1.1-.2-.2-.1-.6-.4-.8-.8l-17.1-30.3-.2 2-3.6 29.3h-4.8l4.9-40.4h2.9c.4.2.8.2 1.1.3zM-1.1 409.1H.7c.7 0 1.2-.1 1.6-.2.4-.2.8-.4 1.2-.9l13.6-15.2c.4-.4.8-.9 1.2-1 .5-.2 1-.2 1.6-.2h4.7L8.9 409c-.8.9-1.5 1.5-2.2 1.9.5.2.9.4 1.2.8.3.3.7.8 1 1.3l11.8 19.1h-4.8c-.7 0-1.2-.1-1.6-.3-.3-.2-.6-.4-.8-.9L3.3 415c-.2-.4-.6-.8-1-1-.3-.2-1-.3-1.8-.3h-2.4l-2.2 18.4h-5.5l4.9-40.5H.9l-2 17.5zM59.1 418.5l.3 1.2c.2-.4.3-.8.6-1.2s.4-.8.7-1.2l15.5-25c.1-.2.3-.3.4-.4s.2-.2.4-.3c.1-.1.3-.1.5-.1h4.9l-4.9 40.4h-4.8l3.6-29.3c.1-.3.1-.8.2-1.3.1-.6.2-1 .3-1.5l-15.4 25c-.6.9-1.2 1.2-2.1 1.2h-.9c-.4 0-.8-.1-1.1-.3-.3-.2-.6-.6-.7-.9l-9.4-25c0 .4 0 1-.1 1.5 0 .4 0 .9-.1 1.2L43.4 432h-4.9l4.9-40.4h4.2c.4 0 .9 0 1.1.1s.4.3.8.8l9.5 25c-.1.2 0 .7.1 1zM92.5 431.9h-5.6l4.9-40.4h5.6l-4.9 40.4zM113.3 410.3l-9.3-18.9h4.9c.4 0 .7.1.9.2.1.1.3.3.4.7l7 15c.1-.3.3-.7.7-1.1l9.9-13.9c.4-.6.9-.9 1.3-.9h5.7l-14 18.6 10.6 21.9h-4.9c-.4 0-.7-.1-.9-.3-.2-.2-.3-.5-.4-.7l-8-17.4c-.1.1-.1.3-.2.4s-.1.3-.2.4L105 430.8c-.4.7-1.1 1-1.8 1h-5.5l15.6-21.5z"/><path id="XMLID_41_" class="st0-green" d="M147.2 395.9l-.2-.1c-.8-.2-1.5-.7-2-1.5-.3-.5-.6-.9-.8-1.5l-.2-.1-.2-.1v-1.1l.2-.2c.4-1 .9-2 1.3-2.9 1.2-2.5 2.7-4.8 4.6-7.4 1.5-1.9 2.9-3.7 4.4-5.4.5-.6 1.8-1.9 1.8-1.9l-1.6-1.9c-.6-.8-1.2-1.5-1.7-2.2-1.1-1.7-1.8-3.6-2.2-5.6-.4-1.8-.6-3.7-.4-5.6.2-4.4 1.8-8.3 4.4-11.7.7-.9 1.6-1.8 2.6-2.7 2-1.8 4.3-3.5 6.7-5.1 2-1.2 4.2-2.6 6.6-3.9l6.6-3.8c2.4-1.3 4.5-2.7 6.6-4 1.9-1.3 3.6-2.6 5.1-3.8 1.5-1.2 2.9-2.7 4.3-4.3 1.3-1.6 2.6-3.1 3.5-4.7l.1-.2c.1-.2.3-.4.4-.7.1-.3.3-.6.6-.8l.2-.2s.4-.2.9-.1.7.7.7.7.2.8.2 1.3c0 .6-.1 1.3-.2 1.9l-.2 1.8c0 .6-.1 1.1-.1 1.7 0 0-.9 8.9-1 9.5l-.1 1.5c0 .7-.1 1.5-.2 2.1 0 .4-.1.9-.1 1.5l-.8 8.2c0 .4-.1 1-.1 1.5l-.6 5.5c-.1.6-.3 2.4-.3 2.4-.2 1.3-.4 2.6-.7 3.9-.4 2.2-1 4.3-1.7 6.2-.8 2.4-1.7 4.3-2.8 6.1-1 1.6-2 2.9-3.3 4.2-1.5 1.5-3.1 2.6-5.1 3.5-1.3.7-2.8 1.1-4.3 1.5-1.1.2-2.2.4-3.3.4-1 .1-2 .1-3.1.1H170s-1.1 0-1.7-.1c-.6 0-2.9-.3-2.9-.3s-1.2-.2-1.7-.2l-2.1-.3-2.6-.4c-.4.7-.8 1.2-1.1 1.8-.8 1.3-1.6 2.8-2.4 4.5-1.3 2.8-2.5 5.9-3.7 9.5-.2.9-.6 1.8-.8 2.6-.1.4-.4.8-.8 1-.6.2-1 .4-1.6.6l-.3.1c.4-.8-1.1-.8-1.1-.8zm6.9-16.2c-1.2 1.6-2.5 3.3-3.6 4.9-1.5 2.2-2.5 4.2-3.4 6.1-.1.2-.2.6-.3.8l-.2.6c.1.1.2.4.6.8.2.3.6.5.9.6.3 0 .7-.1 1-.2l.1-.3c.2-.8.6-1.7.8-2.5 1.1-3.5 2.4-6.6 3.7-9.4.1-.8.2-1.1.4-1.4zm6.2-6.5c1.2.2 2.6.4 3.8.7 1.2.2 2.4.3 3.6.4 1 .1 2.1.1 3.1.2h1c.9 0 1.8 0 2.7-.1 1-.1 2-.2 3-.4 1.5-.3 2.8-.8 3.9-1.2 1.6-.8 3-1.7 4.3-2.9 1-1 1.9-2.1 2.7-3.4.2-.3.4-.7.6-1l-25.1.9c-.7 1.1-1.2 2.2-1.9 3.4-.6 1.1-1.1 2.2-1.7 3.4zm-3.8-25c-.8 1.1-1.6 2.4-2.1 3.7-1 2.2-1.6 4.7-1.6 7.3 0 1.5.1 2.7.4 3.9.3 1.6.9 2.9 1.7 4.3.6.8 1.1 1.7 1.9 2.6.2.3 1.5 1.8 1.6 1.9 0 0 .6-1.1.9-1.6l1.5-2.7 1.3-2.4-5.6-17zm14.6 7.1c-.7 1-1.5 1.9-2.1 2.9-.9 1.3-1.7 2.7-2.5 4-.3.4-.6 1-.9 1.5 0 0 19.9-.7 21-.8.4 0 3.8-.1 3.8-.1 1.1-2.7 2-5.6 2.7-9.2l-22 1.7zm-12.7-9.2c.7 2.2 3.8 12.2 5.1 16.1l1-1.8c1.2-2.1 2.7-4.3 4-6.2l.2-.3-3.1-13.2c-2.7 1.7-5.1 3.5-7.2 5.4zm21.2-1l-.1.2-1 1.1c-1.3 1.5-2.7 2.9-3.9 4.5-.4.6-.9 1.1-1.3 1.7l20.2-1.5.1-.7c.1-.8.2-1.5.2-2.2.1-.8.4-4.6.4-4.6 0-.1-13.8 1.4-14.6 1.5zm-8.7 6.3c1-1.2 2-2.5 3-3.6 1.2-1.5 2.6-2.9 3.8-4.4l-.2-2.4-.9-6.7c-.9.6-5.1 2.8-5.1 2.8-1 .6-2.1 1.2-3.1 1.8l-.3.2c.5 2.6 2.8 12.3 2.8 12.3zm17.6-15c-.4.1-.9.1-1.3.2-1.3 1.7-2.8 3.3-4.3 4.9l-.6.6s10.7-1.1 11.2-1.1c.3 0 .7-.1 1-.1.1-1.2.4-4 .6-5.5l-6.6 1zm-9.6-3.3c.2 1.7.4 3.4.7 5.1l.3 2.9c.4-.6 1-1.1 1.6-1.7 1.2-1.5 2.6-2.9 3.8-4.4l-.9-5.3-.9.6c-1.5 1-3.1 1.9-4.6 2.8zm17.3-10.5c-.3 1-.7 1.8-1 2.4-1.3 2.6-3 5.1-4.9 7.5-.3.3-.6.8-.9 1.1l5.8-.9 1-10.1zm-8.8 9.8c1.1-1.3 2-2.7 2.8-3.9 1.6-2.4 2.9-4.6 4-6.8l-.4.4c-1 1.1-2.2 2.2-3.4 3.3-1.2 1-2.5 1.9-3.7 2.8l.7 4.2z"/><g><path class="st0-green" d="M-134.7 472.9v-31.7h4.4v12.4c.8-.8 1.7-1.5 2.7-2.2 1-.5 2.2-.8 3.6-.8 1.2 0 2.2.2 3.1.7.8.5 1.5 1 2.2 1.7.5.7 1 1.5 1.4 2.5.3 1 .5 2.2.5 3.4v13.8h-4.2v-13.9c0-1.5-.3-2.5-1-3.4-.7-.8-1.7-1.2-2.9-1.2-1 0-1.9.2-2.7.7s-1.5 1.2-2.4 1.9v15.9h-4.6l-.1.2zM-105.7 479.2c-.2.3-.3.5-.5.8s-.5.3-1 .3h-3.2l3.7-8.8-8.5-20.3h3.7c.3 0 .7.2.8.3.2.2.3.3.5.7l4.9 12.4c.2.7.5 1.4.7 2.2.2-.3.2-.7.3-1 .2-.3.2-.7.3-1l4.7-12.4c.2-.3.2-.5.5-.7.2-.2.5-.3.7-.3h3.4l-11 27.8zM-77.2 472.9c-.5 0-1-.3-1.2-.8l-.3-2.4c-.5.5-.8 1-1.4 1.5-.5.5-1 .8-1.5 1.2-.5.3-1.2.5-1.9.7s-1.4.3-2 .3c-1.2 0-2.2-.2-3.2-.7s-1.7-1.2-2.4-2.2-1.2-2-1.5-3.6c-.3-1.4-.5-3.1-.5-4.7 0-1.7.2-3.1.7-4.6.3-1.4 1-2.5 1.7-3.6.8-1 1.7-1.9 2.7-2.4s2.4-.8 3.7-.8c1.2 0 2.2.2 3.1.7.8.3 1.5 1 2.2 1.7v-11.7h4.4v31.7h-2.5l-.1-.3zm-6.9-3.4c1.2 0 2-.2 2.9-.7.8-.5 1.5-1.2 2.2-2.2v-10.2c-.7-.8-1.4-1.4-2-1.7-.7-.3-1.5-.5-2.4-.5-1.7 0-3.1.7-3.9 2-1 1.4-1.4 3.2-1.4 5.9 0 1.4.2 2.5.3 3.4.2.8.5 1.7.8 2.4.3.7.8 1 1.5 1.4.6.2 1.3.2 2 .2zM-69.4 472.9V451h2.5c.5 0 .8.2 1 .3.2.2.3.5.3.8l.2 2.9c.7-1.4 1.5-2.5 2.4-3.2.8-.8 2-1.2 3.2-1.2.5 0 .8 0 1.2.2.3.2.7.3 1 .5l-.3 3.4c0 .2-.2.3-.2.5s-.3.2-.5.2-.5 0-.8-.2c-.3 0-.8-.2-1.2-.2-.7 0-1.2.2-1.7.3-.5.2-.8.5-1.2.8-.3.3-.7.8-1 1.4-.3.5-.5 1-.8 1.7v13.6l-4.1.1zM-41.6 472.9c-.3 0-.7 0-1-.2s-.3-.3-.5-.8l-.3-1.7c-.5.5-1 1-1.5 1.4-.5.3-1 .7-1.5 1s-1.2.5-1.7.7-1.4.2-2 .2c-.8 0-1.7-.2-2.4-.3-.7-.2-1.4-.7-1.9-1.2s-1-1-1.2-1.9c-.3-.7-.5-1.5-.5-2.5 0-.8.2-1.7.7-2.5.3-.8 1.2-1.5 2-2.2 1-.7 2.2-1.2 3.9-1.5 1.5-.3 3.6-.7 5.9-.7v-1.4c0-1.5-.3-2.7-1-3.6s-1.5-1.2-2.7-1.2c-.8 0-1.5.2-2 .3-.5.2-1 .5-1.5.7-.3.3-.8.5-1.2.7-.3.2-.7.3-1 .3s-.5 0-.7-.2-.3-.3-.5-.7l-.8-1.5c2.4-2.4 5.1-3.4 8.3-3.4 1.2 0 2.2.2 3.2.7.8.3 1.7 1 2.4 1.7s1.2 1.7 1.4 2.7.5 2.2.5 3.4v13.9h-2.2l-.2-.2zm-7.5-2.9c1.2 0 2-.2 2.9-.7.8-.5 1.5-1 2.4-1.9v-4.1c-1.5 0-2.9.2-3.9.3-1 .2-1.9.5-2.5.8-.7.3-1.2.7-1.4 1.2s-.5.8-.5 1.5c0 .5 0 1 .2 1.4.2.3.3.7.7.8.3.2.7.3 1 .5.3.2.6.2 1.1.2zM-28.2 473.3c-1.7 0-3.1-.5-3.9-1.5s-1.4-2.5-1.4-4.2v-12.7h-2.4c-.2 0-.5 0-.7-.2s-.3-.3-.3-.7v-1.9l3.4-.5 1-6.3c0-.2.2-.5.3-.5.2-.2.3-.2.7-.2h2.2v7.1h14.4v21.5h-4.4v-18.1h-10v12.4c0 .8.2 1.4.5 1.9s.8.7 1.5.7c.3 0 .7 0 .8-.2.2-.2.5-.2.7-.3.2-.2.3-.2.5-.3.2-.2.2-.2.3-.2.2 0 .5.2.5.5l1.4 2.2c-.7.7-1.5 1.2-2.4 1.5-.8-.2-1.7 0-2.7 0zm14.2-28.9c0 .3 0 .8-.2 1.2-.2.3-.3.7-.7 1-.3.3-.5.5-1 .7-.3.2-.7.2-1.2.2-.3 0-.7 0-1-.2s-.7-.3-.8-.7c-.2-.3-.5-.7-.7-1s-.2-.7-.2-1.2 0-.8.2-1.2c.2-.3.3-.7.7-1 .3-.3.5-.5.8-.7s.7-.2 1-.2.8 0 1.2.2c.3.2.7.3 1 .7.3.3.5.7.7 1 .2.4.2.9.2 1.2zM-.4 450.9c1.5 0 2.9.3 4.1.8s2.2 1.4 3.2 2.2c1 .8 1.5 2.2 2 3.6s.7 2.9.7 4.7c0 1.7-.2 3.2-.7 4.7-.5 1.4-1.2 2.5-2 3.6-.8 1-1.9 1.7-3.2 2.2-1.2.5-2.5.8-4.1.8-1.5 0-2.9-.3-4.1-.8s-2.2-1.4-3.2-2.2c-.8-1-1.5-2.2-2-3.6s-.7-2.9-.7-4.7c0-1.7.2-3.2.7-4.7.5-1.4 1.2-2.5 2-3.6.8-1 1.9-1.7 3.2-2.2 1-.6 2.6-.8 4.1-.8zm0 18.8c1.9 0 3.2-.7 4.1-2 .8-1.4 1.4-3.2 1.4-5.6s-.5-4.4-1.4-5.8c-.8-1.4-2.4-2-4.1-2-1.9 0-3.2.7-4.2 2-.8 1.4-1.4 3.2-1.4 5.8 0 2.4.5 4.4 1.4 5.6.8 1.3 2.2 2 4.2 2zM13.7 472.9V451h2.5c.5 0 1 .3 1.2.8l.3 2.2 1.4-1.4c.5-.3 1-.7 1.5-1s1.2-.5 1.7-.7c.7-.2 1.4-.2 2-.2 1.2 0 2.2.2 3.1.7.8.5 1.5 1 2.2 1.7.5.7 1 1.5 1.4 2.5.3 1 .5 2.2.5 3.4v13.9h-4.2V459c0-1.5-.3-2.5-1-3.4-.7-.8-1.7-1.2-2.9-1.2-1 0-1.9.2-2.7.7-.8.5-1.5 1.2-2.4 1.9v15.9h-4.6zM57.2 448v9h8v3.4h-8v9h-3.6v-9h-8V457h8v-9h3.6zM88.4 450.9c1.2 0 2.4.2 3.6.7 1 .5 2 1 2.7 1.9.8.8 1.4 1.9 1.9 3 .5 1.2.7 2.5.7 4.2 0 .7 0 1.2-.2 1.4-.2.2-.3.3-.8.3H83c0 1.2.2 2.4.5 3.2.3.8.7 1.7 1.2 2.2s1.2 1 1.9 1.4c.7.3 1.5.5 2.4.5s1.5-.2 2.2-.3c.7-.2 1.2-.5 1.7-.7s.9-.5 1.2-.7c.3-.2.7-.3.8-.3.3 0 .7.2.8.5l1.2 1.7c-.5.7-1 1.2-1.7 1.7s-1.4.8-2 1c-.7.3-1.5.5-2.2.7s-1.5.2-2.2.2c-1.4 0-2.7-.2-3.9-.7-1.2-.5-2.2-1.2-3.2-2.2-.8-1-1.5-2.2-2-3.7s-.7-3.1-.7-5.1c0-1.5.2-2.9.7-4.2.5-1.4 1-2.4 1.9-3.4.8-1 1.9-1.7 3.1-2.4.8-.7 2.2-.9 3.7-.9zm0 3.2c-1.5 0-2.9.5-3.7 1.4-.8 1-1.5 2.4-1.7 4.1h10.2c0-.8-.2-1.5-.3-2.2-.2-.7-.5-1.2-.8-1.7s-.8-.8-1.5-1.2c-.8-.4-1.3-.4-2.2-.4zM101.1 472.9V451h2.5c.5 0 1 .3 1.2.8l.3 2 1.4-1.4c.5-.3 1-.7 1.5-1s1.2-.5 1.7-.7c.7-.2 1.4-.2 2-.2 1.2 0 2.2.2 3.1.7.8.5 1.5 1 2.2 1.7.5.7 1 1.5 1.4 2.5.3 1 .5 2.2.5 3.4v13.9h-4.6v-13.9c0-1.5-.3-2.5-1-3.4-.7-.8-1.7-1.2-2.9-1.2-1 0-1.9.2-2.7.7-.8.5-1.5 1.2-2.4 1.9v15.9l-4.2.2zM132.5 450.9c1.2 0 2.4.2 3.6.7 1 .5 2 1 2.7 1.9.8.8 1.4 1.9 1.9 3 .5 1.2.7 2.5.7 4.2 0 .7 0 1.2-.2 1.4-.2.2-.3.3-.9.3h-13.2c0 1.2.2 2.4.5 3.2.3.8.7 1.7 1.2 2.2s1.2 1 1.9 1.4c.7.3 1.5.5 2.4.5.8 0 1.5-.2 2.2-.3.7-.2 1.2-.5 1.7-.7s.8-.5 1.2-.7c.3-.2.7-.3.8-.3.3 0 .7.2.8.5l1.2 1.7c-.5.7-1 1.2-1.7 1.7s-1.4.8-2 1c-.7.3-1.5.5-2.2.7s-1.5.2-2.2.2c-1.4 0-2.7-.2-3.9-.7-1.2-.5-2.2-1.2-3.2-2.2-.8-1-1.5-2.2-2-3.7s-.7-3.1-.7-5.1c0-1.5.2-2.9.7-4.2.5-1.4 1-2.4 1.9-3.4.8-1 1.9-1.7 3.1-2.4.8-.7 2.2-.9 3.7-.9zm0 3.2c-1.5 0-2.9.5-3.7 1.4-.8 1-1.5 2.4-1.7 4.1h10.2c0-.8-.2-1.5-.3-2.2-.2-.7-.5-1.2-.8-1.7s-.8-.8-1.5-1.2c-.8-.4-1.4-.4-2.2-.4zM145.2 472.9V451h2.5c.5 0 .8.2 1 .3.2.2.3.5.3.8l.2 2.9c.7-1.4 1.5-2.5 2.4-3.2.8-.8 2-1.2 3.2-1.2.5 0 .8 0 1.2.2.3.2.7.3 1 .5l-.3 3.4c0 .2-.2.3-.2.5s-.3.2-.5.2-.5 0-.8-.2c-.3 0-.9-.2-1.2-.2-.7 0-1.2.2-1.7.3-.5.2-.8.5-1.2.8-.3.3-.7.8-1 1.4-.3.5-.5 1-.8 1.7v13.6l-4.1.1zM167.1 450.7c.8 0 1.7.2 2.5.3s1.5.5 2.2.8h5.8v1.7c0 .5-.3.8-1 1l-2 .3c.3.8.5 1.7.5 2.7s-.2 2-.7 2.9c-.3.8-1 1.7-1.7 2.2-.7.7-1.5 1-2.5 1.4-1 .3-2 .5-3.2.5h-1.2c-.3 0-.8-.2-1.2-.2-.3.2-.7.5-.8.8-.2.3-.3.5-.3.8 0 .5.2.8.5 1s.8.3 1.5.5 1.4.2 2.2.2 1.7 0 2.5.2 1.7.2 2.5.3c.9.2 1.5.5 2.2.8s1.2.8 1.5 1.5.5 1.5.5 2.5-.2 1.9-.7 2.7c-.5.8-1 1.7-1.9 2.4-.8.7-1.9 1.2-3.1 1.7s-2.5.7-4.1.7c-1.5 0-2.9-.2-4.1-.5s-2-.7-2.9-1.4c-.7-.5-1.4-1.2-1.7-1.9-.3-.7-.5-1.4-.5-2.2 0-1 .3-1.9.8-2.7.7-.7 1.5-1.4 2.5-1.7-.5-.3-1-.7-1.4-1.2-.3-.5-.5-1.2-.5-2 0-.3 0-.7.2-1s.3-.7.5-1 .5-.7.8-1 .7-.5 1.2-.8c-1-.7-1.9-1.4-2.4-2.4s-.8-2.2-.8-3.6c0-1 .2-2 .7-2.9.3-.8 1-1.7 1.7-2.2.7-.7 1.5-1 2.5-1.4 1.2.4 2.2.2 3.4.2zm5.9 23.4c0-.5-.2-.8-.3-1.2-.3-.3-.7-.5-1-.7-.5-.2-1-.3-1.5-.3-.7 0-1.2-.2-1.9-.2s-1.4 0-2-.2c-.7 0-1.4-.2-2-.2-.7.3-1.2.8-1.5 1.4-.3.5-.7 1-.7 1.7 0 .5.2.8.3 1.2.2.3.5.7 1 1s1 .5 1.7.7 1.5.2 2.4.2c1.9 0 3.4-.3 4.2-1 1-.7 1.3-1.5 1.3-2.4zm-5.9-12.2c1.4 0 2.4-.3 3.1-1s1-1.7 1-2.9-.3-2.2-1-2.9-1.7-1-3.1-1-2.4.3-3.1 1-1 1.7-1 2.9c0 .5.2 1 .3 1.5.2.5.5.8.8 1.2.3.3.7.7 1.2.8.6.2 1.1.4 1.8.4zM187.8 479.2c-.2.3-.3.5-.5.8s-.5.3-1 .3H183l3.7-8.8-8.5-20.3h3.7c.3 0 .7.2.8.3.2.2.3.3.5.7l4.9 12.4c.2.7.5 1.4.7 2.2.2-.3.2-.7.3-1 .2-.3.2-.7.3-1l4.7-12.4c.2-.3.2-.5.5-.7.2-.2.5-.3.7-.3h3.4l-10.9 27.8z"/></g></svg>