<svg version="1.1" id="Layer_1" xmlns="http://www.w3.org/2000/svg" x="0" y="0" viewBox="-155 343.2 300 138.5" xml:space="preserve"><style type="text/css">.st0-orange{fill:#f98414;}</style><path class="st0-orange" d="M-140.6 359.8c.2 0 .4.1.6.2.2.1.3.2.5.4.1.2.3.4.4.7l16.3 32.4c0-.6.1-1.3.1-1.9.1-.6.1-1.2.2-1.7l3.2-30.3h6.6l-5.1 47.5h-3.8c-.6 0-1.1-.1-1.5-.3-.4-.2-.7-.6-1-1.2l-16.2-32.4c0 .5-.1 1-.1 1.5s-.1 1-.1 1.4l-3.2 31h-6.6l5.1-47.5h3.9c.2.2.5.2.7.2zM-76.6 407.2h-5.8c-.7 0-1.2-.2-1.6-.5-.4-.3-.6-.8-.7-1.4l-1.7-9.9H-102l-3.8 9.9c-.2.5-.6 1-1 1.3-.5.4-1 .6-1.6.6h-5.9l20.1-47.6h7.6l10 47.6zm-23-17.8h12.1l-2.8-16.3c-.2-.8-.3-1.6-.5-2.5-.2-.9-.3-1.9-.4-3-.4 1.1-.7 2.1-1.1 3s-.7 1.7-1 2.4l-6.3 16.4zM-45.2 359.6l-.8 7h-11.4l-4.3 40.5h-7.4l4.3-40.5h-11.5l.7-7h30.4zM-29.6 400.3c1.3 0 2.6-.3 3.7-.9 1.1-.6 2.1-1.4 2.9-2.5.8-1.1 1.5-2.4 2.1-3.8.6-1.5.9-3.1 1.1-5l3.1-28.6h7.5l-3 28.6c-.3 2.8-.9 5.4-2 7.8-1 2.4-2.3 4.4-3.8 6.2-1.6 1.7-3.4 3.1-5.5 4.1s-4.4 1.5-6.8 1.5c-2.2 0-4.2-.4-6-1.2-1.7-.8-3.2-1.9-4.4-3.4-1.2-1.4-2.1-3.2-2.8-5.2-.6-2-.9-4.2-.9-6.6 0-1 .1-2 .2-3.1l3-28.6h7.5l-3.1 28.5c-.1.4-.1.8-.1 1.2v1.2c0 1.5.2 2.8.5 4 .3 1.2.8 2.2 1.4 3.1.6.9 1.4 1.5 2.3 2 .9.5 1.9.7 3.1.7zM2.4 388.4l-2 18.7H-7l5.1-47.5H9.9c2.4 0 4.5.3 6.2.9 1.7.6 3.1 1.4 4.2 2.4s1.9 2.3 2.4 3.7c.5 1.5.8 3 .8 4.8 0 1.8-.2 3.6-.7 5.2-.4 1.6-1.1 3.1-1.9 4.4-.8 1.3-1.9 2.5-3.1 3.5-1.2 1-2.6 1.7-4.2 2.3.4.3.9.7 1.2 1.1.4.5.7 1 .9 1.6l7.5 17.7h-6.7c-.6 0-1.2-.1-1.6-.4-.4-.3-.8-.7-1-1.2L7.7 390c-.2-.6-.5-1-.9-1.2-.3-.2-.9-.4-1.6-.4H2.4zm2.4-22.2L3 382.3h4.3c1.5 0 2.8-.2 3.9-.8 1.1-.5 2-1.2 2.7-2 .7-.9 1.2-1.9 1.6-3 .3-1.2.5-2.4.5-3.8 0-2.1-.6-3.7-1.7-4.8-1.1-1.2-2.8-1.7-5.2-1.7H4.8zM61.3 407h-5.8c-.6 0-1.2-.2-1.6-.5-.4-.3-.6-.8-.7-1.4l-1.7-9.9H35.9l-3.8 9.9c-.2.5-.6.9-1 1.3-.5.4-1 .6-1.6.6h-5.9l20.1-47.6h7.6l10 47.6zm-23.1-17.8h12.1L47.5 373c-.1-.8-.3-1.6-.5-2.5-.1-.9-.3-1.9-.4-3-.4 1.1-.7 2.1-1.1 3-.4.9-.7 1.7-1 2.4l-6.3 16.3zM72.8 400H88l-.7 7.1H64.6l5.1-47.5h7.5L72.8 400zM-123.8 429.5c0 2-.2 4-.6 5.8-.4 1.8-1 3.5-1.8 5s-1.8 2.9-2.9 4.1c-1.1 1.2-2.4 2.2-3.8 3.1-1.4.8-2.9 1.5-4.5 1.9-1.6.4-3.3.7-5.2.7H-155l4.4-36h12.4c2.2 0 4.2.4 6 1.1s3.3 1.8 4.5 3.2c1.2 1.4 2.2 3 2.9 4.9.7 1.8 1 3.9 1 6.2zm-5.1.1c0-1.8-.2-3.4-.7-4.8s-1.1-2.6-1.9-3.7c-.8-1-1.9-1.8-3.1-2.3-1.2-.5-2.6-.8-4.1-.8h-7.4l-3.4 28h7.4c2 0 3.8-.4 5.4-1.1 1.6-.8 3-1.8 4.2-3.2s2.1-3.1 2.7-5.1c.6-2.2.9-4.5.9-7zM-112.9 435.1l-1.8 14.9h-4.9l4.4-36h9.5c1.9 0 3.6.2 5 .6s2.6 1 3.5 1.8c.9.8 1.6 1.7 2 2.7.4 1.1.7 2.3.7 3.6 0 1.4-.2 2.8-.6 4-.4 1.3-1 2.4-1.8 3.4s-1.8 1.8-2.9 2.5c-1.1.7-2.4 1.2-3.9 1.6.6.4 1.1.9 1.4 1.6l7.5 14.2h-4.4c-.9 0-1.5-.4-1.8-1.1l-6.5-12.8c-.2-.4-.5-.7-.8-.9-.3-.2-.7-.2-1.3-.2l-3.3.1zm2.1-17.2l-1.7 13.5h4.4c1.4 0 2.6-.2 3.7-.6 1.1-.4 1.9-1 2.7-1.7.7-.7 1.2-1.6 1.6-2.5.4-1 .5-2 .5-3.2 0-1.8-.6-3.1-1.7-4.1-1.1-.9-2.8-1.4-5-1.4h-4.5zM-85.4 450h-5l4.4-36h5l-4.4 36zM-69 414.1c.2.1.4.3.6.7l15.2 27c0-.4.1-.8.1-1.2s.1-.7.1-1.1l3.1-25.7h4.4l-4.4 36h-2.5c-.4 0-.7-.1-1-.2-.2-.1-.5-.4-.7-.7l-15.2-27-.2 1.8-3.2 26.1H-77l4.4-36h2.6c.4.2.8.2 1 .3zM-34 429.7h1.6c.6 0 1.1-.1 1.4-.2.4-.2.7-.4 1.1-.8l12.1-13.5c.4-.4.7-.8 1.1-.9.4-.2.9-.2 1.4-.2h4.2l-14 15.5c-.7.8-1.3 1.3-2 1.7.4.2.8.4 1.1.7.3.3.6.7.9 1.2l10.5 17h-4.3c-.6 0-1.1-.1-1.4-.3-.3-.2-.5-.4-.7-.8l-9.1-14.2c-.2-.4-.5-.7-.9-.9-.3-.2-.9-.3-1.6-.3h-2.1l-2 16.4h-4.9l4.4-36.1h5l-1.8 15.7zM19.7 438.1c.1.4.2.7.3 1.1.2-.4.3-.7.5-1.1.2-.4.4-.7.6-1.1l13.8-22.3c.1-.2.3-.3.4-.4.1-.1.2-.2.4-.3.1-.1.3-.1.4-.1h4.3l-4.4 36h-4.3l3.2-26.1c.1-.3.1-.7.2-1.2s.2-.9.3-1.3l-13.7 22.3c-.5.8-1.1 1.1-1.9 1.1H19c-.4 0-.7-.1-1-.3s-.5-.5-.6-.8L9 421.3c0 .4 0 .9-.1 1.3 0 .4 0 .8-.1 1.1L5.6 450H1.2l4.4-36h3.7c.4 0 .8 0 1 .1s.4.3.7.7l8.5 22.3c0 .3.1.7.2 1zM49.4 450h-5l4.4-36h5l-4.4 36zM67.9 430.8L59.6 414H64c.4 0 .6.1.8.2.1.1.3.3.4.6l6.2 13.4c.1-.3.3-.6.6-1l8.8-12.4c.4-.5.8-.8 1.2-.8h5.1l-12.5 16.6 9.4 19.5h-4.4c-.4 0-.6-.1-.8-.3-.2-.2-.3-.4-.4-.6l-7.1-15.5c-.1.1-.1.3-.2.4s-.1.3-.2.4l-10.5 14.7c-.4.6-1 .9-1.6.9h-4.9l14-19.3z"/><path id="XMLID_41_" class="st0-orange" d="M98.1 418l-.2-.1c-.7-.2-1.3-.6-1.8-1.3-.3-.4-.5-.8-.7-1.3l-.1-.2-.2-.1v-1l.2-.2c.4-.9.8-1.8 1.2-2.6 1.1-2.2 2.4-4.3 4.1-6.6 1.3-1.7 2.6-3.3 3.9-4.8.4-.5 1.6-1.7 1.6-1.7l-1.4-1.7c-.5-.7-1.1-1.3-1.5-2-1-1.5-1.6-3.2-2-5-.4-1.6-.5-3.3-.4-5 .2-3.9 1.6-7.4 3.9-10.4.6-.8 1.4-1.6 2.3-2.4 1.8-1.6 3.8-3.1 6-4.5 1.8-1.1 3.7-2.3 5.9-3.5l5.9-3.4c2.1-1.2 4-2.4 5.9-3.6 1.7-1.2 3.2-2.3 4.5-3.4 1.3-1.1 2.6-2.4 3.8-3.8 1.2-1.4 2.3-2.8 3.1-4.2l.1-.2c.1-.2.3-.4.4-.6.1-.2.3-.5.5-.7l.2-.2s.4-.2.8-.1.6.6.6.6.2.7.2 1.2-.1 1.2-.2 1.7l-.2 1.6c0 .5-.1 1-.1 1.5 0 0-.8 7.9-.9 8.5l-.1 1.3c0 .6-.1 1.3-.2 1.9 0 .4-.1.8-.1 1.3l-.7 7.3c0 .4-.1.9-.1 1.3l-.5 4.9c-.1.5-.3 2.1-.3 2.1-.2 1.2-.4 2.3-.6 3.5-.4 2-.9 3.8-1.5 5.5-.7 2.1-1.5 3.8-2.5 5.4-.9 1.4-1.8 2.6-2.9 3.7-1.3 1.3-2.8 2.3-4.5 3.1-1.2.6-2.5 1-3.8 1.3-1 .2-2 .4-2.9.4-.9.1-1.8.1-2.8.1h-1.5c-.5 0-1 0-1.5-.1-.5 0-2.6-.3-2.6-.3s-1.1-.2-1.5-.2l-1.9-.3-2.3-.4c-.4.6-.7 1.1-1 1.6-.7 1.2-1.4 2.5-2.1 4-1.2 2.5-2.2 5.3-3.3 8.5-.2.8-.5 1.6-.7 2.3-.1.4-.4.7-.7.9-.5.2-.9.4-1.4.5l-.3.1c.3-.2-1.1-.2-1.1-.2zm6.2-14.5c-1.1 1.4-2.2 2.9-3.2 4.4-1.3 2-2.2 3.7-3 5.4-.1.2-.2.5-.3.7l-.2.5c.1.1.2.4.5.7.2.3.5.4.8.5.3 0 .6-.1.9-.2l.1-.3c.2-.7.5-1.5.7-2.2 1-3.1 2.1-5.9 3.3-8.4.1-.5.2-.8.4-1.1zm5.5-5.8c1.1.2 2.3.4 3.4.6 1.1.2 2.1.3 3.2.4.9.1 1.9.1 2.8.2h.9c.8 0 1.6 0 2.4-.1.9-.1 1.8-.2 2.7-.4 1.3-.3 2.5-.7 3.5-1.1 1.4-.7 2.7-1.5 3.8-2.6.9-.9 1.7-1.9 2.4-3 .2-.3.4-.6.5-.9l-22.4.8c-.6 1-1.1 2-1.7 3-.5 1.1-1 2.1-1.5 3.1zm-3.4-22.2c-.7 1-1.4 2.1-1.9 3.3-.9 2-1.4 4.2-1.4 6.5 0 1.3.1 2.4.4 3.5.3 1.4.8 2.6 1.5 3.8.5.7 1 1.5 1.7 2.3.2.3 1.3 1.6 1.4 1.7 0 0 .5-1 .8-1.4l1.3-2.4 1.2-2.1-5-15.2zm13 6.3c-.6.9-1.3 1.7-1.9 2.6-.8 1.2-1.5 2.4-2.2 3.6-.3.4-.5.9-.8 1.3 0 0 17.7-.6 18.7-.7.4 0 3.4-.1 3.4-.1 1-2.4 1.8-5 2.4-8.2l-19.6 1.5zm-11.3-8.2c.6 2 3.4 10.9 4.5 14.3l.9-1.6c1.1-1.9 2.4-3.8 3.6-5.5l.2-.3-2.8-11.8c-2.4 1.6-4.5 3.2-6.4 4.9zm18.9-.9l-.1.2-.9 1c-1.2 1.3-2.4 2.6-3.5 4l-1.2 1.5 18-1.3.1-.6c.1-.7.2-1.3.2-2 .1-.7.4-4.1.4-4.1 0-.1-12.3 1.2-13 1.3zm-7.8 5.6c.9-1.1 1.8-2.2 2.7-3.2 1.1-1.3 2.3-2.6 3.4-3.9l-.2-2.1-.8-6c-.8.5-4.5 2.5-4.5 2.5-.9.5-1.9 1.1-2.8 1.6l-.3.2c.5 2.3 2.5 10.9 2.5 10.9zm15.7-13.3c-.4.1-.8.1-1.2.2-1.2 1.5-2.5 2.9-3.8 4.4l-.5.5s9.5-1 10-1c.3 0 .6-.1.9-.1.1-1.1.4-3.6.5-4.9l-5.9.9zm-8.5-3l.6 4.5.3 2.6c.4-.5.9-1 1.4-1.5 1.1-1.3 2.3-2.6 3.4-3.9l-.8-4.7-.8.5c-1.4.9-2.8 1.7-4.1 2.5zm15.4-9.3c-.3.9-.6 1.6-.9 2.1-1.2 2.3-2.7 4.5-4.4 6.7-.3.3-.5.7-.8 1l5.2-.8.9-9zm-7.9 8.7c1-1.2 1.8-2.4 2.5-3.5 1.4-2.1 2.6-4.1 3.6-6.1l-.4.4c-.9 1-2 2-3 2.9-1.1.9-2.2 1.7-3.3 2.5 0 .1.6 3.8.6 3.8z"/><path class="st0-orange" d="M-51.9 477.1v-18.7h2.6v7.3c.5-.5 1-.9 1.6-1.3.6-.3 1.3-.5 2.1-.5.7 0 1.3.1 1.8.4s.9.6 1.3 1c.3.4.6.9.8 1.5.2.6.3 1.3.3 2v8.2h-2.5v-8.2c0-.9-.2-1.5-.6-2-.4-.5-1-.7-1.7-.7-.6 0-1.1.1-1.6.4-.5.3-.9.7-1.4 1.1v9.4h-2.7zM-34.8 480.8c-.1.2-.2.3-.3.5s-.3.2-.6.2h-1.9l2.2-5.2-5-12h2.2c.2 0 .4.1.5.2.1.1.2.2.3.4l2.9 7.3c.1.4.3.8.4 1.3.1-.2.1-.4.2-.6.1-.2.1-.4.2-.6l2.8-7.3c.1-.2.1-.3.3-.4.1-.1.3-.2.4-.2h2l-6.6 16.4zM-18 477.1c-.3 0-.6-.2-.7-.5l-.2-1.4c-.3.3-.5.6-.8.9-.3.3-.6.5-.9.7-.3.2-.7.3-1.1.4-.4.1-.8.2-1.2.2-.7 0-1.3-.1-1.9-.4-.6-.3-1-.7-1.4-1.3s-.7-1.2-.9-2.1c-.2-.8-.3-1.8-.3-2.8 0-1 .1-1.8.4-2.7.2-.8.6-1.5 1-2.1.5-.6 1-1.1 1.6-1.4s1.4-.5 2.2-.5c.7 0 1.3.1 1.8.4.5.2.9.6 1.3 1v-6.9h2.6v18.7H-18zm-4.1-2c.7 0 1.2-.1 1.7-.4.5-.3.9-.7 1.3-1.3v-6c-.4-.5-.8-.8-1.2-1-.4-.2-.9-.3-1.4-.3-1 0-1.8.4-2.3 1.2-.6.8-.8 1.9-.8 3.5 0 .8.1 1.5.2 2s.3 1 .5 1.4c.2.4.5.6.9.8.3.1.7.1 1.1.1zM-13.4 477.1v-12.9h1.5c.3 0 .5.1.6.2.1.1.2.3.2.5l.1 1.7c.4-.8.9-1.5 1.4-1.9.5-.5 1.2-.7 1.9-.7.3 0 .5 0 .7.1l.6.3-.2 2c0 .1-.1.2-.1.3s-.2.1-.3.1c-.1 0-.3 0-.5-.1-.2 0-.5-.1-.7-.1-.4 0-.7.1-1 .2-.3.1-.5.3-.7.5-.2.2-.4.5-.6.8-.2.3-.3.6-.5 1v8h-2.4zM3 477.1c-.2 0-.4 0-.6-.1s-.2-.2-.3-.5l-.2-1c-.3.3-.6.6-.9.8l-.9.6c-.3.2-.7.3-1 .4s-.8.1-1.2.1c-.5 0-1-.1-1.4-.2-.4-.1-.8-.4-1.1-.7-.3-.3-.6-.6-.7-1.1-.2-.4-.3-.9-.3-1.5 0-.5.1-1 .4-1.5.2-.5.7-.9 1.2-1.3.6-.4 1.3-.7 2.3-.9.9-.2 2.1-.4 3.5-.4v-.8c0-.9-.2-1.6-.6-2.1-.4-.5-.9-.7-1.6-.7-.5 0-.9.1-1.2.2s-.6.3-.9.4c-.2.2-.5.3-.7.4s-.4.2-.6.2c-.2 0-.3 0-.4-.1s-.2-.2-.3-.4l-.5-.9c1.4-1.4 3-2 4.9-2 .7 0 1.3.1 1.9.4.5.2 1 .6 1.4 1s.7 1 .8 1.6.3 1.3.3 2v8.2H3zm-4.4-1.7c.7 0 1.2-.1 1.7-.4.5-.3.9-.6 1.4-1.1v-2.4c-.9 0-1.7.1-2.3.2-.6.1-1.1.3-1.5.5-.4.2-.7.4-.8.7s-.3.5-.3.9c0 .3 0 .6.1.8.1.2.2.4.4.5l.6.3h.7zM10.9 477.3c-1 0-1.8-.3-2.3-.9s-.8-1.5-.8-2.5v-7.5H6.4c-.1 0-.3 0-.4-.1-.1-.1-.2-.2-.2-.4v-1.1l2-.3.6-3.7c0-.1.1-.3.2-.3.1-.1.2-.1.4-.1h1.3v4.2h8.5v12.7h-2.6v-10.7h-5.9v7.3c0 .5.1.8.3 1.1s.5.4.9.4c.2 0 .4 0 .5-.1s.3-.1.4-.2c.1-.1.2-.1.3-.2s.1-.1.2-.1.3.1.3.3l.8 1.3c-.4.4-.9.7-1.4.9-.6-.1-1.1 0-1.7 0zm8.4-17c0 .2 0 .5-.1.7-.1.2-.2.4-.4.6-.2.2-.3.3-.6.4-.2.1-.4.1-.7.1-.2 0-.4 0-.6-.1s-.4-.2-.5-.4-.3-.4-.4-.6c-.1-.2-.1-.4-.1-.7 0-.3 0-.5.1-.7.1-.2.2-.4.4-.6s.3-.3.5-.4.4-.1.6-.1c.2 0 .5 0 .7.1.2.1.4.2.6.4.2.2.3.4.4.6.1.2.1.5.1.7zM27.3 464.1c.9 0 1.7.2 2.4.5s1.3.8 1.9 1.3.9 1.3 1.2 2.1c.3.8.4 1.7.4 2.8 0 1-.1 1.9-.4 2.8-.3.8-.7 1.5-1.2 2.1s-1.1 1-1.9 1.3c-.7.3-1.5.5-2.4.5-.9 0-1.7-.2-2.4-.5s-1.3-.8-1.9-1.3c-.5-.6-.9-1.3-1.2-2.1-.3-.8-.4-1.7-.4-2.8 0-1 .1-1.9.4-2.8.3-.8.7-1.5 1.2-2.1.5-.6 1.1-1 1.9-1.3.6-.4 1.5-.5 2.4-.5zm0 11.1c1.1 0 1.9-.4 2.4-1.2.5-.8.8-1.9.8-3.3s-.3-2.6-.8-3.4c-.5-.8-1.4-1.2-2.4-1.2-1.1 0-1.9.4-2.5 1.2-.5.8-.8 1.9-.8 3.4 0 1.4.3 2.6.8 3.3.5.8 1.3 1.2 2.5 1.2zM35.6 477.1v-12.9h1.5c.3 0 .6.2.7.5l.2 1.3.8-.8.9-.6s.7-.3 1-.4c.4-.1.8-.1 1.2-.1.7 0 1.3.1 1.8.4s.9.6 1.3 1c.3.4.6.9.8 1.5.2.6.3 1.3.3 2v8.2h-2.5V469c0-.9-.2-1.5-.6-2-.4-.5-1-.7-1.7-.7-.6 0-1.1.1-1.6.4-.5.3-.9.7-1.4 1.1v9.4h-2.7zM61.3 462.4v5.3H66v2h-4.7v5.3h-2.1v-5.3h-4.7v-2h4.7v-5.3h2.1zM79.7 464.1c.7 0 1.4.1 2.1.4.6.3 1.2.6 1.6 1.1.5.5.8 1.1 1.1 1.8s.4 1.5.4 2.5c0 .4 0 .7-.1.8-.1.1-.2.2-.5.2h-7.8c0 .7.1 1.4.3 1.9.2.5.4 1 .7 1.3s.7.6 1.1.8c.4.2.9.3 1.4.3.5 0 .9-.1 1.3-.2s.7-.3 1-.4c.3-.1.5-.3.7-.4s.4-.2.5-.2c.2 0 .4.1.5.3l.7 1c-.3.4-.6.7-1 1s-.8.5-1.2.6c-.4.2-.9.3-1.3.4s-.9.1-1.3.1c-.8 0-1.6-.1-2.3-.4s-1.3-.7-1.9-1.3c-.5-.6-.9-1.3-1.2-2.2-.3-.9-.4-1.8-.4-3 0-.9.1-1.7.4-2.5.3-.8.6-1.4 1.1-2 .5-.6 1.1-1 1.8-1.4.6-.4 1.4-.5 2.3-.5zm0 1.9c-.9 0-1.7.3-2.2.8-.5.6-.9 1.4-1 2.4h6c0-.5-.1-.9-.2-1.3s-.3-.7-.5-1c-.2-.3-.5-.5-.9-.7s-.7-.2-1.2-.2zM87.2 477.1v-12.9h1.5c.3 0 .6.2.7.5l.2 1.2.8-.8.9-.6s.7-.3 1-.4c.4-.1.8-.1 1.2-.1.7 0 1.3.1 1.8.4s.9.6 1.3 1c.3.4.6.9.8 1.5.2.6.3 1.3.3 2v8.2H95v-8.2c0-.9-.2-1.5-.6-2-.4-.5-1-.7-1.7-.7-.6 0-1.1.1-1.6.4-.5.3-.9.7-1.4 1.1v9.4h-2.5zM105.7 464.1c.7 0 1.4.1 2.1.4.6.3 1.2.6 1.6 1.1.5.5.8 1.1 1.1 1.8s.4 1.5.4 2.5c0 .4 0 .7-.1.8-.1.1-.2.2-.5.2h-7.8c0 .7.1 1.4.3 1.9.2.5.4 1 .7 1.3s.7.6 1.1.8c.4.2.9.3 1.4.3.5 0 .9-.1 1.3-.2s.7-.3 1-.4c.3-.1.5-.3.7-.4s.4-.2.5-.2c.2 0 .4.1.5.3l.7 1c-.3.4-.6.7-1 1s-.8.5-1.2.6c-.4.2-.9.3-1.3.4s-.9.1-1.3.1c-.8 0-1.6-.1-2.3-.4s-1.3-.7-1.9-1.3c-.5-.6-.9-1.3-1.2-2.2-.3-.9-.4-1.8-.4-3 0-.9.1-1.7.4-2.5.3-.8.6-1.4 1.1-2 .5-.6 1.1-1 1.8-1.4.6-.4 1.4-.5 2.3-.5zm0 1.9c-.9 0-1.7.3-2.2.8-.5.6-.9 1.4-1 2.4h6c0-.5-.1-.9-.2-1.3s-.3-.7-.5-1c-.2-.3-.5-.5-.9-.7s-.7-.2-1.2-.2zM113.2 477.1v-12.9h1.5c.3 0 .5.1.6.2.1.1.2.3.2.5l.1 1.7c.4-.8.9-1.5 1.4-1.9.5-.5 1.2-.7 1.9-.7.3 0 .5 0 .7.1l.6.3-.2 2c0 .1-.1.2-.1.3s-.2.1-.3.1c-.1 0-.3 0-.5-.1-.2 0-.5-.1-.7-.1-.4 0-.7.1-1 .2-.3.1-.5.3-.7.5-.2.2-.4.5-.6.8-.2.3-.3.6-.5 1v8h-2.4zM126.1 464c.5 0 1 .1 1.5.2s.9.3 1.3.5h3.4v1c0 .3-.2.5-.6.6l-1.2.2c.2.5.3 1 .3 1.6 0 .6-.1 1.2-.4 1.7-.2.5-.6 1-1 1.3-.4.4-.9.6-1.5.8-.6.2-1.2.3-1.9.3h-.7c-.2 0-.5-.1-.7-.1-.2.1-.4.3-.5.5-.1.2-.2.3-.2.5 0 .3.1.5.3.6.2.1.5.2.9.3.4.1.8.1 1.3.1s1 0 1.5.1 1 .1 1.5.2.9.3 1.3.5.7.5.9.9c.2.4.3.9.3 1.5s-.1 1.1-.4 1.6c-.3.5-.6 1-1.1 1.4-.5.4-1.1.7-1.8 1s-1.5.4-2.4.4c-.9 0-1.7-.1-2.4-.3-.7-.2-1.2-.4-1.7-.8-.4-.3-.8-.7-1-1.1-.2-.4-.3-.8-.3-1.3 0-.6.2-1.1.5-1.6.4-.4.9-.8 1.5-1-.3-.2-.6-.4-.8-.7-.2-.3-.3-.7-.3-1.2 0-.2 0-.4.1-.6l.3-.6c.1-.2.3-.4.5-.6.2-.2.4-.3.7-.5-.6-.4-1.1-.8-1.4-1.4s-.5-1.3-.5-2.1c0-.6.1-1.2.4-1.7.2-.5.6-1 1-1.3.4-.4.9-.6 1.5-.8.5 0 1.1-.1 1.8-.1zm3.5 13.8c0-.3-.1-.5-.2-.7-.2-.2-.4-.3-.6-.4-.3-.1-.6-.2-.9-.2-.4 0-.7-.1-1.1-.1-.4 0-.8 0-1.2-.1-.4 0-.8-.1-1.2-.1-.4.2-.7.5-.9.8-.2.3-.4.6-.4 1 0 .3.1.5.2.7s.3.4.6.6c.3.2.6.3 1 .4.4.1.9.1 1.4.1 1.1 0 2-.2 2.5-.6.6-.4.8-.9.8-1.4zm-3.5-7.2c.8 0 1.4-.2 1.8-.6.4-.4.6-1 .6-1.7s-.2-1.3-.6-1.7c-.4-.4-1-.6-1.8-.6s-1.4.2-1.8.6c-.4.4-.6 1-.6 1.7 0 .3.1.6.2.9.1.3.3.5.5.7.2.2.4.4.7.5.3.1.6.2 1 .2zM138.3 480.8c-.1.2-.2.3-.3.5s-.3.2-.6.2h-1.9l2.2-5.2-5-12h2.2c.2 0 .4.1.5.2.1.1.2.2.3.4l2.9 7.3c.1.4.3.8.4 1.3.1-.2.1-.4.2-.6.1-.2.1-.4.2-.6l2.8-7.3c.1-.2.1-.3.3-.4.1-.1.3-.2.4-.2h2l-6.6 16.4z"/></svg>