<svg version="1.1" id="Layer_1" xmlns="http://www.w3.org/2000/svg" x="0" y="0" viewBox="90.2 261.8 394.5 202.9" xml:space="preserve"><style type="text/css">.st0-pink{fill:#F06FBB;} .st1-darkgray{fill:#414042;stroke:#414042;stroke-width:0.72;stroke-miterlimit:10;}</style><g id="XMLID_152_"><path id="XMLID_153_" class="st0-pink" d="M150.8 458.3v-27.8h3.8v10.9c.7-.8 1.6-1.4 2.4-1.9.9-.5 1.9-.7 3.1-.7 1 0 1.9.2 2.6.5s1.4.8 1.9 1.5c.5.6.9 1.4 1.2 2.3.3.9.4 1.9.4 3v12.2h-3.8v-12.2c0-1.3-.3-2.3-.8-3-.6-.7-1.4-1.1-2.6-1.1-.8 0-1.6.2-2.4.6-.7.4-1.4 1-2 1.7v13.9l-3.8.1z"/><path id="XMLID_155_" class="st0-pink" d="M176.3 463.8c-.1.3-.3.5-.5.7-.2.2-.5.2-.8.2h-2.8l3.3-7.7-7.4-17.8h3.3c.3 0 .6.1.7.2.2.1.3.3.4.6l4.3 10.9c.2.6.4 1.2.5 1.9.1-.3.2-.6.3-1l.3-.9 4.1-10.8c.1-.2.2-.4.4-.6.2-.1.4-.2.6-.2h3l-9.7 24.5z"/><path id="XMLID_157_" class="st0-pink" d="M201.2 458.3c-.5 0-.8-.3-1-.8l-.3-2.1c-.4.5-.8.9-1.2 1.3-.4.4-.9.7-1.4 1-.5.3-1 .5-1.6.6-.6.1-1.1.2-1.8.2-1 0-1.9-.2-2.8-.7s-1.5-1.1-2.1-1.9-1-1.8-1.4-3.1-.5-2.6-.5-4.2c0-1.4.2-2.8.5-4 .4-1.2.9-2.3 1.5-3.2.7-.9 1.5-1.6 2.5-2.1s2-.8 3.2-.8c1.1 0 2 .2 2.7.5.7.4 1.4.8 2 1.5v-10.3h3.8V458l-2.1.3zm-6-2.9c1 0 1.8-.2 2.5-.7.7-.4 1.4-1.1 2-1.9v-8.9c-.5-.7-1.1-1.2-1.8-1.5-.6-.3-1.3-.4-2.1-.4-1.5 0-2.6.6-3.5 1.7-.8 1.2-1.2 2.9-1.2 5.1 0 1.2.1 2.2.3 3 .2.8.5 1.5.8 2 .4.5.8.9 1.3 1.1.5.3 1.1.5 1.7.5z"/><path id="XMLID_160_" class="st0-pink" d="M208.1 458.3v-19.1h2.2c.4 0 .7.1.8.2.1.2.3.4.3.8l.2 2.5c.6-1.2 1.3-2.2 2.1-2.9s1.8-1 2.9-1c.4 0 .8 0 1.1.1.3.1.7.2.9.4l-.3 3c0 .2-.1.4-.2.4-.1.1-.2.1-.4.1s-.4 0-.8-.1c-.3-.1-.7-.1-1-.1-.5 0-1 .1-1.4.2-.4.2-.8.4-1.1.7-.3.3-.6.7-.8 1.1s-.5 1-.7 1.5V458l-3.8.3z"/><path id="XMLID_162_" class="st0-pink" d="M232.5 458.3c-.4 0-.6-.1-.8-.2-.2-.1-.3-.4-.5-.7l-.4-1.6c-.5.4-.9.8-1.4 1.2-.5.3-.9.6-1.4.9s-1 .4-1.5.5c-.6.1-1.1.2-1.8.2s-1.4-.1-2-.3c-.6-.2-1.2-.5-1.6-1s-.8-1-1.1-1.6c-.3-.6-.4-1.4-.4-2.2 0-.7.2-1.5.6-2.2.4-.7 1-1.3 1.8-1.9.8-.5 2-1 3.4-1.4 1.4-.4 3.1-.6 5.2-.6v-1.3c0-1.4-.3-2.4-.8-3.1-.6-.7-1.4-1-2.4-1-.7 0-1.3.1-1.8.3-.5.2-.9.4-1.3.6-.4.2-.7.4-1 .6-.3.2-.6.3-.9.3-.3 0-.5-.1-.7-.2-.2-.1-.3-.3-.4-.5l-.7-1.3c2-2 4.5-3 7.3-3 1 0 2 .2 2.8.5.8.4 1.5.9 2 1.5.6.7 1 1.4 1.2 2.3.3.9.4 1.9.4 3v12.2h-1.8zm-6.6-2.5c1 0 1.8-.2 2.6-.6.7-.4 1.4-1 2.1-1.7V450c-1.4.1-2.5.2-3.4.4s-1.7.4-2.3.7c-.6.3-1 .6-1.2 1-.3.4-.4.8-.4 1.3 0 .4.1.8.2 1.2.1.3.3.6.6.8.2.2.5.4.8.4h1z"/><path id="XMLID_165_" class="st0-pink" d="M244.2 458.6c-1.5 0-2.6-.4-3.5-1.3-.8-.9-1.2-2.2-1.2-3.8v-11.1h-2c-.2 0-.4-.1-.6-.2-.1-.1-.2-.4-.2-.7v-1.6l2.9-.4.8-5.5c.1-.2.2-.4.3-.5.1-.1.3-.2.6-.2h1.9v6.3h12.6v18.9H252v-16h-8.8v10.9c0 .7.2 1.2.5 1.6.3.4.7.5 1.3.5.3 0 .6 0 .8-.1l.6-.3c.1-.1.3-.2.4-.3.1-.1.2-.1.3-.1.2 0 .4.1.5.4l1.1 2c-.6.5-1.3 1-2.1 1.3-.7.1-1.6.2-2.4.2zm12.5-25.3c0 .4-.1.7-.2 1-.1.3-.3.6-.6.8-.2.2-.5.4-.8.6-.3.1-.6.2-1 .2-.3 0-.7-.1-1-.2-.3-.1-.6-.3-.8-.6-.2-.2-.4-.5-.6-.8-.1-.3-.2-.7-.2-1s.1-.7.2-1.1c.1-.3.3-.6.6-.9.2-.2.5-.4.8-.6.3-.1.6-.2 1-.2.3 0 .7.1 1 .2.3.1.6.3.8.6.2.2.4.5.6.9.1.4.2.7.2 1.1z"/><path id="XMLID_168_" class="st0-pink" d="M268.5 438.9c1.3 0 2.5.2 3.6.7 1.1.5 2 1.1 2.8 2s1.4 1.9 1.8 3.1c.4 1.2.6 2.6.6 4.1 0 1.5-.2 2.9-.6 4.1-.4 1.2-1 2.2-1.8 3.1s-1.7 1.5-2.8 2c-1.1.5-2.3.7-3.6.7-1.3 0-2.6-.2-3.6-.7-1.1-.5-2-1.1-2.8-2-.8-.9-1.4-1.9-1.8-3.1-.4-1.2-.6-2.6-.6-4.1 0-1.5.2-2.9.6-4.1.4-1.2 1-2.2 1.8-3.1s1.7-1.5 2.8-2c1-.5 2.3-.7 3.6-.7zm0 16.6c1.6 0 2.8-.6 3.6-1.7.8-1.2 1.2-2.8 1.2-5s-.4-3.8-1.2-5c-.8-1.2-2-1.8-3.6-1.8-1.7 0-2.9.6-3.7 1.8-.8 1.2-1.2 2.8-1.2 5s.4 3.8 1.2 5c.8 1.1 2 1.7 3.7 1.7z"/><path id="XMLID_171_" class="st0-pink" d="M280.9 458.3v-19.1h2.3c.5 0 .8.3 1 .8l.3 1.8 1.2-1.2c.4-.3.9-.7 1.3-.9.5-.3 1-.4 1.5-.6.5-.1 1.1-.2 1.7-.2 1 0 1.9.2 2.6.5s1.4.8 1.9 1.5c.5.6.9 1.4 1.2 2.3.3.9.4 1.9.4 3v12.2h-3.8v-12.2c0-1.3-.3-2.3-.8-3-.6-.7-1.4-1.1-2.6-1.1-.8 0-1.6.2-2.4.6-.7.4-1.4 1-2 1.7v13.9h-3.8z"/><path id="XMLID_173_" class="st0-pink" d="M319 436.4v7.8h7v3h-7v7.9h-3.1v-7.9h-7v-3h7v-7.8h3.1z"/><path id="XMLID_175_" class="st0-pink" d="M343.4 433.4c0 .4-.1.7-.2 1-.1.3-.3.6-.6.8-.2.2-.5.4-.8.6-.3.1-.6.2-1 .2-.3 0-.7-.1-1-.2-.3-.1-.6-.3-.8-.6-.2-.2-.4-.5-.5-.8-.1-.3-.2-.7-.2-1 0-.4.1-.7.2-1.1.1-.3.3-.6.5-.8s.5-.4.8-.6c.3-.1.6-.2 1-.2s.7.1 1 .2c.3.1.6.3.8.6s.4.5.6.8c.2.4.2.7.2 1.1zm-.6 5.8v19.1H339v-19.1h3.8z"/><path id="XMLID_178_" class="st0-pink" d="M347.6 458.3v-19.1h2.3c.5 0 .8.3 1 .8l.3 1.7c.3-.4.7-.8 1-1.1.4-.3.7-.6 1.1-.9.4-.2.8-.4 1.3-.6.5-.1 1-.2 1.5-.2.6 0 1.1.1 1.6.3.5.2.9.4 1.3.7.4.3.7.7 1 1.2.3.5.5 1 .7 1.6.3-.7.6-1.2 1-1.7s.9-.9 1.4-1.2c.5-.3 1-.5 1.6-.7.6-.1 1.1-.2 1.7-.2 1 0 1.8.2 2.6.5s1.4.8 1.9 1.4c.5.6.9 1.4 1.2 2.3.3.9.4 1.9.4 3.1v12.2h-3.8v-12.2c0-1.4-.3-2.4-.8-3.1-.6-.7-1.4-1-2.4-1-.5 0-.9.1-1.4.3-.4.2-.8.4-1.1.8-.3.3-.6.8-.8 1.3-.2.5-.3 1.1-.3 1.8v12.2h-3.8v-12.2c0-1.4-.3-2.4-.8-3.1-.5-.7-1.3-1-2.3-1-.7 0-1.4.2-2 .6-.6.4-1.2.9-1.7 1.6v14.1l-3.7-.2z"/><path id="XMLID_180_" class="st0-pink" d="M377 458.3v-19.1h2.3c.5 0 .8.3 1 .8l.3 1.7c.3-.4.7-.8 1-1.1.4-.3.7-.6 1.1-.9.4-.2.8-.4 1.3-.6.5-.1 1-.2 1.5-.2.6 0 1.1.1 1.6.3.5.2.9.4 1.3.7.4.3.7.7 1 1.2.3.5.5 1 .7 1.6.3-.7.6-1.2 1-1.7s.9-.9 1.4-1.2c.5-.3 1-.5 1.6-.7.6-.1 1.1-.2 1.7-.2 1 0 1.8.2 2.6.5s1.4.8 1.9 1.4c.5.6.9 1.4 1.2 2.3.3.9.4 1.9.4 3.1v12.2h-3.8v-12.2c0-1.4-.3-2.4-.8-3.1-.5-.7-1.4-1-2.4-1-.5 0-.9.1-1.4.3-.4.2-.8.4-1.1.8-.3.3-.6.8-.8 1.3-.2.5-.3 1.1-.3 1.8v12.2h-3.8v-12.2c0-1.4-.3-2.4-.8-3.1-.5-.7-1.3-1-2.3-1-.7 0-1.4.2-2 .6-.6.4-1.2.9-1.7 1.6v14.1l-3.7-.2z"/><path id="XMLID_182_" class="st0-pink" d="M410 439.2v12.2c0 1.3.3 2.3.8 3 .6.7 1.4 1.1 2.6 1.1.8 0 1.6-.2 2.4-.6s1.4-1 2-1.7v-14h3.8v19.1h-2.3c-.5 0-.8-.3-1-.8l-.3-1.8c-.8.8-1.6 1.5-2.5 2.1-.9.5-2 .8-3.2.8-1 0-1.9-.2-2.6-.5-.8-.4-1.4-.8-1.9-1.5-.5-.6-.9-1.4-1.2-2.3-.3-.9-.4-1.9-.4-3v-12.2l3.8.1z"/><path id="XMLID_184_" class="st0-pink" d="M426.2 458.3v-19.1h2.3c.5 0 .8.3 1 .8l.3 1.8 1.2-1.2c.4-.3.9-.7 1.3-.9.5-.3 1-.4 1.5-.6.5-.1 1.1-.2 1.7-.2 1 0 1.9.2 2.6.5.7.4 1.4.8 1.9 1.5.5.6.9 1.4 1.2 2.3.3.9.4 1.9.4 3v12.2h-3.8v-12.2c0-1.3-.3-2.3-.8-3-.6-.7-1.4-1.1-2.6-1.1-.8 0-1.6.2-2.4.6-.7.4-1.4 1-2 1.7v13.9h-3.8z"/><path id="XMLID_186_" class="st0-pink" d="M450.6 433.4c0 .4-.1.7-.2 1-.1.3-.3.6-.5.8-.2.2-.5.4-.8.6-.3.1-.6.2-1 .2-.3 0-.7-.1-1-.2-.3-.1-.6-.3-.8-.6-.2-.2-.4-.5-.5-.8-.1-.3-.2-.7-.2-1 0-.4.1-.7.2-1.1.1-.3.3-.6.5-.8s.5-.4.8-.6c.3-.1.6-.2 1-.2s.7.1 1 .2c.3.1.6.3.8.6.2.2.4.5.5.8s.2.7.2 1.1zm-.6 5.8v19.1h-3.8v-19.1h3.8z"/><path id="XMLID_189_" class="st0-pink" d="M460.6 458.6c-1.5 0-2.6-.4-3.5-1.3-.8-.9-1.2-2.2-1.2-3.8v-11.1h-2c-.2 0-.4-.1-.6-.2-.1-.1-.2-.4-.2-.7v-1.6l2.9-.4.8-5.5c.1-.2.2-.4.3-.5s.3-.2.6-.2h1.9v6.3h5v2.9h-5v10.9c0 .7.2 1.2.5 1.6.3.4.7.5 1.3.5.3 0 .6 0 .8-.1.2-.1.4-.2.5-.3.1-.1.3-.2.4-.3.1-.1.2-.1.3-.1.2 0 .4.1.5.4l1.1 2c-.6.5-1.3 1-2.1 1.3-.7.1-1.5.2-2.3.2z"/><path id="XMLID_191_" class="st0-pink" d="M473.8 463.8c-.1.3-.3.5-.5.7-.2.2-.5.2-.8.2h-2.8l3.3-7.7-7.4-17.8h3.3c.3 0 .6.1.7.2.2.1.3.3.4.6l4.3 10.9c.2.6.4 1.2.5 1.9.1-.3.2-.6.3-1l.3-.9 4.1-10.8c.1-.2.2-.4.4-.6.2-.1.4-.2.6-.2h3l-9.7 24.5z"/></g><g id="XMLID_120_"><path id="XMLID_129_" class="st1-darkgray" d="M91.6 286.3l.5-.1c1.9-.4 3.7 1.8 5.3 6.5l8.3 16.4c.4.4.7.6 1 .5 2.6-1.8 5.2-4.9 7.9-9.6s5.3-7.9 7.9-9.8h.2c1.1-.2 2.2.4 3.1 1.8.1.6-2 3.9-6.5 9.9-2.5 4-5.1 7.1-7.5 9.2l-.1.2v.2l1.2-.4 1.2-.3c6.9-1.4 14.2-2.3 21.9-2.7l1.8.7.1.4c0 2.9-1 4.6-3 5l-.4.1c-2.7-.8-8.6-.3-17.5 1.5l-7.7 1.2v.7c.2 1 1.4 4.3 3.7 9.9l2 5.3.1.7c0 1.5-.6 2.3-1.7 2.5l-.4.1c-2.1.4-3.5-.9-4.5-4.1-1.1-5.5-6.6-18.8-16.5-40.1l-1.4-3.7c0-.7.3-1.4 1-2z"/><path id="XMLID_126_" class="st1-darkgray" d="M141.1 285c2.4.2 3.7 1.2 4.1 2.9 5.3 23.3 8.7 35.3 10.1 35.9.5 2.2-.2 3.7-2 4.5l-.4.1c-2.3-.4-3.7-1.8-4.1-4.1l-9.1-37c.2-1.4.6-2.1 1.4-2.3zm-2.1-18.3c1.4-.3 2.5.2 3.3 1.5.8 1.3.4 2.5-1.1 3.8l-1.4.3c-1 .2-1.8-.4-2.4-1.9l-.2-1.1c-.3-1.4.3-2.3 1.8-2.6z"/><path id="XMLID_123_" class="st1-darkgray" d="M155.1 275c.9-.2 2.3 0 4.1.5 4.5-.3 10.4-.7 17.6-1.3 7.2-.6 12.2-.4 14.8.7 1.8.8 2.9 2.7 3.5 5.7 1.1 5.5-1.5 14-8 25.6-2.7 4.1-6.3 8.8-10.8 13.9-1.1 2.6-1.8 3.9-2.2 3.9l-1.1.2c-2 .4-3.5-.7-4.3-3.4-3.1-10.4-5.9-19.9-8.6-28.3-2.8-8.3-4.5-12.3-5.2-12.2-1.4.3-2.2-.1-2.5-1.2-.1-.3.4-1.2 1.3-2.7.4-.8.8-1.3 1.4-1.4zm6.1 5.6c4.5 14.3 7.5 23.4 8.7 27.4 1.1 1.9 2.2 4.6 3.3 8.2l.6.1c1.7-.9 5.1-5.9 10.3-15 5.2-9.1 7.2-15.7 6.1-19.8-.3-1.7-1.4-2.7-3.4-3-2.5-.6-8.5-.3-18 1l-6.7.6-.9.5z"/><path id="XMLID_121_" class="st1-darkgray" d="M206 262.8c4.9-1.1 9.2-.9 13 .8 3.8 1.7 5.6 3 5.3 4-.3 1-.8 1.4-1.6 1.4-.8-.1-2.6-.6-5.3-1.6-2.8-1-5.9-1.1-9.4-.4-3.1.6-4.5 1.6-4.2 3l.1.5c2 4 7.5 7.3 16.4 10.1l11 5.3c6.7 4 10.7 9.5 12.1 16.5 1 4.9.2 8.7-2.2 11.2-2.5 2.5-5.6 4.2-9.4 4.9-4.7.9-9.9.3-15.6-1.8-7.1-2.9-11.4-8-12.8-15.4l-.1-.4c-.9-6.3-.6-9.6 1.1-10l1.1-.2c1.9-.4 3.1-.2 3.6.6l.1.4c.1.6-.7 2.6-2.3 5.8l.2 1.8.5 2.7c2.2 6.5 7 10.3 14.2 11.5 7.2 1.2 12.2.6 14.9-1.7 2.7-2.3 3.4-6.3 2.1-11.9-1.3-5.6-7.6-10.3-18.7-13.9l-6.1-2.1c-8.9-3.6-13.7-7.7-14.2-12.3-.8-4.8 1.4-7.7 6.2-8.8z"/></g><path class="st0-pink" d="M164.2 320.9c.2 0 .4.1.7.2s.3.2.6.4c.1.2.3.4.4.8l18.3 36.4c0-.7.1-1.5.1-2.1.1-.7.1-1.3.2-1.9l3.6-34h7.4l-5.7 53.3h-4.3c-.7 0-1.2-.1-1.7-.3-.4-.2-.8-.7-1.1-1.3L164.5 336c0 .6-.1 1.1-.1 1.7 0 .6-.1 1.1-.1 1.6l-3.6 34.8h-7.4l5.7-53.3h4.4c.2.1.5.1.8.1zM236 374.1h-6.5c-.8 0-1.3-.2-1.8-.6-.4-.3-.7-.9-.8-1.6l-1.9-11.1h-17.5l-4.3 11.1c-.2.6-.7 1.1-1.1 1.5-.6.4-1.1.7-1.8.7h-6.6l22.6-53.4h8.5l11.2 53.4zm-25.8-20h13.6l-3.1-18.3c-.2-.9-.3-1.8-.6-2.8-.2-1-.3-2.1-.4-3.4-.4 1.2-.8 2.4-1.2 3.4-.4 1-.8 1.9-1.1 2.7l-7.2 18.4zM271.3 320.7l-.9 7.9h-12.8l-4.8 45.5h-8.3l4.8-45.5h-12.9l.8-7.9h34.1zM288.8 366.4c1.5 0 2.9-.3 4.2-1 1.2-.7 2.4-1.6 3.3-2.8.9-1.2 1.7-2.7 2.4-4.3.7-1.7 1-3.5 1.2-5.6l3.5-32.1h8.4l-3.4 32.1c-.3 3.1-1 6.1-2.2 8.8-1.1 2.7-2.6 4.9-4.3 7-1.8 1.9-3.8 3.5-6.2 4.6-2.4 1.1-4.9 1.7-7.6 1.7-2.5 0-4.7-.4-6.7-1.3-1.9-.9-3.6-2.1-4.9-3.8-1.3-1.6-2.4-3.6-3.1-5.8-.7-2.2-1-4.7-1-7.4 0-1.1.1-2.2.2-3.5l3.4-32.1h8.4l-3.5 32c-.1.4-.1.9-.1 1.3v1.3c0 1.7.2 3.1.6 4.5s.9 2.5 1.6 3.5 1.6 1.7 2.6 2.2c.7.4 1.8.7 3.2.7zM324.7 353l-2.2 21h-8.3l5.7-53.3h13.2c2.7 0 5.1.3 7 1 1.9.7 3.5 1.6 4.7 2.7 1.2 1.1 2.1 2.6 2.7 4.2.6 1.7.9 3.4.9 5.4s-.2 4-.8 5.8c-.4 1.8-1.2 3.5-2.1 4.9s-2.1 2.8-3.5 3.9c-1.3 1.1-2.9 1.9-4.7 2.6.4.3 1 .8 1.3 1.2.4.6.8 1.1 1 1.8l8.4 19.9h-7.5c-.7 0-1.3-.1-1.8-.4-.4-.3-.9-.8-1.1-1.3l-7-17.5c-.2-.7-.6-1.1-1-1.3-.3-.2-1-.5-1.8-.5.2-.1-3.1-.1-3.1-.1zm2.7-24.9l-2 18.1h4.8c1.7 0 3.1-.2 4.4-.9 1.2-.6 2.2-1.3 3-2.2.8-1 1.3-2.1 1.8-3.4.3-1.3.6-2.7.6-4.3 0-2.4-.7-4.2-1.9-5.4-1.2-1.3-3.1-1.9-5.8-1.9h-4.9zM390.9 373.9h-6.5c-.7 0-1.3-.2-1.8-.6s-.7-.9-.8-1.6l-1.9-11.1h-17.5l-4.3 11.1c-.2.6-.7 1-1.1 1.5-.6.4-1.1.7-1.8.7h-6.6l22.6-53.4h8.5l11.2 53.4zm-26-20h13.6l-3.1-18.2c-.1-.9-.3-1.8-.6-2.8-.1-1-.3-2.1-.4-3.4-.4 1.2-.8 2.4-1.2 3.4-.4 1-.8 1.9-1.1 2.7l-7.2 18.3zM403.8 366h17.1l-.8 8h-25.5l5.7-53.3h8.4l-4.9 45.3zM183 399.2c0 2.2-.2 4.5-.7 6.5-.4 2-1.1 3.9-2 5.6-.9 1.7-2 3.3-3.3 4.6-1.2 1.3-2.7 2.5-4.3 3.5-1.6.9-3.3 1.7-5.1 2.1-1.8.4-3.7.8-5.8.8H148l4.9-40.4h13.9c2.5 0 4.7.4 6.7 1.2 2 .8 3.7 2 5.1 3.6s2.5 3.4 3.3 5.5c.8 2 1.1 4.4 1.1 7zm-5.7.1c0-2-.2-3.8-.8-5.4-.6-1.6-1.2-2.9-2.1-4.2-.9-1.1-2.1-2-3.5-2.6-1.3-.6-2.9-.9-4.6-.9H158l-3.8 31.4h8.3c2.2 0 4.3-.4 6.1-1.2 1.8-.9 3.4-2 4.7-3.6s2.4-3.5 3-5.7c.7-2.4 1-5 1-7.8zM195.3 405.4l-2 16.7h-5.5l4.9-40.4h10.7c2.1 0 4 .2 5.6.7 1.6.4 2.9 1.1 3.9 2 1 .9 1.8 1.9 2.2 3 .4 1.2.8 2.6.8 4 0 1.6-.2 3.1-.7 4.5-.4 1.5-1.1 2.7-2 3.8-.9 1.1-2 2-3.3 2.8-1.2.8-2.7 1.3-4.4 1.8.7.4 1.2 1 1.6 1.8l8.4 15.9h-4.9c-1 0-1.7-.4-2-1.2l-7.3-14.4c-.2-.4-.6-.8-.9-1s-.8-.2-1.5-.2l-3.6.2zm2.3-19.3l-1.9 15.2h4.9c1.6 0 2.9-.2 4.2-.7s2.1-1.1 3-1.9c.8-.8 1.3-1.8 1.8-2.8.4-1.1.6-2.2.6-3.6 0-2-.7-3.5-1.9-4.6-1.2-1-3.1-1.6-5.6-1.6h-5.1zM226.1 422.2h-5.6l4.9-40.4h5.6l-4.9 40.4zM244.6 381.9c.2.1.4.3.7.8l17.1 30.3c0-.4.1-.9.1-1.3s.1-.8.1-1.2l3.5-28.9h4.9l-4.9 40.4h-2.8c-.5 0-.8-.1-1.1-.2-.2-.1-.6-.4-.8-.8l-17.1-30.3-.2 2-3.6 29.3h-4.8l4.9-40.4h2.9c.4.2.8.2 1.1.3zM283.9 399.4h1.8c.7 0 1.2-.1 1.6-.2.4-.2.8-.4 1.2-.9l13.6-15.2c.4-.4.8-.9 1.2-1 .5-.2 1-.2 1.6-.2h4.7l-15.7 17.4c-.8.9-1.5 1.5-2.2 1.9.5.2.9.4 1.2.8.3.3.7.8 1 1.3l11.8 19.1h-4.8c-.7 0-1.2-.1-1.6-.3-.3-.2-.6-.4-.8-.9l-10.2-15.9c-.2-.4-.6-.8-1-1-.3-.2-1-.3-1.8-.3h-2.4l-2.2 18.4h-5.5l4.9-40.5h5.6l-2 17.5zM344.1 408.8l.3 1.2c.2-.4.3-.8.6-1.2s.4-.8.7-1.2l15.5-25c.1-.2.3-.3.4-.5.1-.1.2-.2.4-.3.1-.1.3-.1.5-.1h4.9l-4.9 40.4h-4.8l3.6-29.3c.1-.3.1-.8.2-1.3.1-.6.2-1 .3-1.5l-15.4 25c-.6.9-1.2 1.2-2.1 1.2h-.9c-.4 0-.8-.1-1.1-.3-.3-.2-.6-.6-.7-.9l-9.4-25c0 .4 0 1-.1 1.5 0 .4 0 .9-.1 1.2l-3.6 29.5h-4.9l4.9-40.4h4.2c.4 0 .9 0 1.1.1s.4.3.8.8l9.5 25c-.1.3 0 .8.1 1.1zM377.5 422.2h-5.6l4.9-40.4h5.6l-4.9 40.4zM398.3 400.6l-9.3-18.9h4.9c.4 0 .7.1.9.2.1.1.3.3.4.7l7 15c.1-.3.3-.7.7-1.1l9.9-13.9c.4-.6.9-.9 1.3-.9h5.7l-14 18.6 10.6 21.9h-4.9c-.4 0-.7-.1-.9-.3-.2-.2-.3-.4-.4-.7l-8-17.4c-.1.1-.1.3-.2.4-.1.1-.1.3-.2.4L390 421.1c-.4.7-1.1 1-1.8 1h-5.5l15.6-21.5z"/><path id="XMLID_2_" class="st0-pink" d="M432.2 386.2l-.2-.1c-.8-.2-1.5-.7-2-1.5-.3-.5-.6-.9-.8-1.5l-.2-.1-.2-.1v-1.1l.2-.2c.4-1 .9-2 1.3-2.9 1.2-2.5 2.7-4.8 4.6-7.4 1.5-1.9 2.9-3.7 4.4-5.4.5-.6 1.8-1.9 1.8-1.9l-1.6-1.9c-.6-.8-1.2-1.5-1.7-2.2-1.1-1.7-1.8-3.6-2.2-5.6-.4-1.8-.6-3.7-.4-5.6.2-4.4 1.8-8.3 4.4-11.7.7-.9 1.6-1.8 2.6-2.7 2-1.8 4.3-3.5 6.7-5.1 2-1.2 4.2-2.6 6.6-3.9l6.6-3.8c2.4-1.3 4.5-2.7 6.6-4 1.9-1.3 3.6-2.6 5.1-3.8 1.5-1.2 2.9-2.7 4.3-4.3 1.3-1.6 2.6-3.1 3.5-4.7l.1-.2c.1-.2.3-.4.4-.7s.3-.6.6-.8l.2-.2s.4-.2.9-.1.7.7.7.7.2.8.2 1.3c0 .6-.1 1.3-.2 1.9l-.2 1.8c0 .6-.1 1.1-.1 1.7 0 0-.9 8.9-1 9.5l-.1 1.5c0 .7-.1 1.5-.2 2.1 0 .4-.1.9-.1 1.5l-.8 8.2c0 .4-.1 1-.1 1.5l-.6 5.5c-.1.6-.3 2.4-.3 2.4-.2 1.3-.4 2.6-.7 3.9-.4 2.2-1 4.3-1.7 6.2-.8 2.4-1.7 4.3-2.8 6.1-1 1.6-2 2.9-3.3 4.2-1.5 1.5-3.1 2.6-5.1 3.5-1.3.7-2.8 1.1-4.3 1.5-1.1.2-2.2.4-3.3.4-1 .1-2 .1-3.1.1H455s-1.1 0-1.7-.1c-.6 0-2.9-.3-2.9-.3s-1.2-.2-1.7-.2l-2.1-.3-2.6-.4c-.4.7-.8 1.2-1.1 1.8-.8 1.3-1.6 2.8-2.4 4.5-1.3 2.8-2.5 6-3.7 9.5-.2.9-.6 1.8-.8 2.6-.1.4-.4.8-.8 1-.6.2-1 .4-1.6.6l-.3.1c.4-.8-1.1-.8-1.1-.8zm6.9-16.2c-1.2 1.6-2.5 3.3-3.6 4.9-1.5 2.2-2.5 4.2-3.4 6.1-.1.2-.2.6-.3.8l-.2.6c.1.1.2.5.6.8.2.3.6.5.9.6.3 0 .7-.1 1-.2l.1-.3c.2-.8.6-1.7.8-2.5 1.1-3.5 2.4-6.6 3.7-9.4.1-.8.2-1.1.4-1.4zm6.2-6.5c1.2.2 2.6.5 3.8.7 1.2.2 2.4.3 3.6.4 1 .1 2.1.1 3.1.2h1c.9 0 1.8 0 2.7-.1 1-.1 2-.2 3-.4 1.5-.3 2.8-.8 3.9-1.2 1.6-.8 3-1.7 4.3-2.9 1-1 1.9-2.1 2.7-3.4.2-.3.4-.7.6-1l-25.1.9c-.7 1.1-1.2 2.2-1.9 3.4-.6 1.1-1.1 2.2-1.7 3.4zm-3.8-25c-.8 1.1-1.6 2.4-2.1 3.7-1 2.2-1.6 4.7-1.6 7.3 0 1.5.1 2.7.4 3.9.3 1.6.9 2.9 1.7 4.3.6.8 1.1 1.7 1.9 2.6.2.3 1.5 1.8 1.6 1.9 0 0 .6-1.1.9-1.6l1.5-2.7 1.3-2.4-5.6-17zm14.6 7.1c-.7 1-1.5 1.9-2.1 2.9-.9 1.3-1.7 2.7-2.5 4-.3.4-.6 1-.9 1.5 0 0 19.9-.7 21-.8.4 0 3.8-.1 3.8-.1 1.1-2.7 2-5.6 2.7-9.2l-22 1.7zm-12.7-9.2c.7 2.2 3.8 12.2 5.1 16.1l1-1.8c1.2-2.1 2.7-4.3 4-6.2l.2-.3-3.1-13.2c-2.7 1.7-5.1 3.5-7.2 5.4zm21.2-1l-.1.2-1 1.1c-1.3 1.5-2.7 2.9-3.9 4.5-.4.6-.9 1.1-1.3 1.7l20.2-1.5.1-.7c.1-.8.2-1.5.2-2.2.1-.8.4-4.6.4-4.6 0-.1-13.8 1.4-14.6 1.5zm-8.7 6.3c1-1.2 2-2.5 3-3.6 1.2-1.5 2.6-2.9 3.8-4.4l-.2-2.4-.9-6.7c-.9.6-5.1 2.8-5.1 2.8-1 .6-2.1 1.2-3.1 1.8l-.3.2c.5 2.6 2.8 12.3 2.8 12.3zm17.6-15c-.4.1-.9.1-1.3.2-1.3 1.7-2.8 3.3-4.3 4.9l-.6.6s10.7-1.1 11.2-1.1c.3 0 .7-.1 1-.1.1-1.2.4-4 .6-5.5l-6.6 1zm-9.6-3.3c.2 1.7.4 3.4.7 5.1l.3 2.9c.4-.6 1-1.1 1.6-1.7 1.2-1.5 2.6-2.9 3.8-4.4l-.9-5.3-.9.6c-1.5 1-3.1 1.9-4.6 2.8zm17.3-10.5c-.3 1-.7 1.8-1 2.4-1.3 2.6-3 5.1-4.9 7.5-.3.3-.6.8-.9 1.1l5.8-.9 1-10.1zm-8.8 9.8c1.1-1.3 2-2.7 2.8-3.9 1.6-2.4 2.9-4.6 4-6.8l-.4.4c-1 1.1-2.2 2.2-3.4 3.3-1.2 1-2.5 1.9-3.7 2.8l.7 4.2z"/></svg>