<?xml version="1.0" encoding="utf-8"?>
<!-- Generator: Adobe Illustrator 19.0.0, SVG Export Plug-In . SVG Version: 6.00 Build 0)  -->
<svg version="1.1" id="Layer_1" xmlns="http://www.w3.org/2000/svg" xmlns:xlink="http://www.w3.org/1999/xlink" x="0px" y="0px"
	 viewBox="-386.1 690.3 223.6 102.8" style="enable-background:new -386.1 690.3 223.6 102.8;" xml:space="preserve">
<style type="text/css">
	.st0{fill:url(#SVGID_1_);}
	.st1{fill:url(#SVGID_2_);}
	.st2{fill:url(#SVGID_3_);}
	.st3{fill:url(#SVGID_4_);}
	.st4{fill:url(#SVGID_5_);}
	.st5{fill:url(#SVGID_6_);}
	.st6{fill:url(#SVGID_7_);}
	.st7{fill:url(#SVGID_8_);}
	.st8{fill:url(#SVGID_9_);}
	.st9{fill:url(#XMLID_3_);}
	.st10{fill:url(#SVGID_10_);}
	.st11{fill:url(#SVGID_11_);}
	.st12{fill:url(#SVGID_12_);}
	.st13{fill:url(#SVGID_13_);}
	.st14{fill:url(#SVGID_14_);}
	.st15{fill:url(#SVGID_15_);}
	.st16{fill:url(#SVGID_16_);}
	.st17{fill:url(#SVGID_17_);}
	.st18{fill:url(#SVGID_18_);}
	.st19{fill:url(#SVGID_19_);}
	.st20{fill:url(#SVGID_20_);}
	.st21{fill:url(#SVGID_21_);}
	.st22{fill:url(#SVGID_22_);}
	.st23{fill:url(#SVGID_23_);}
</style>
<linearGradient id="SVGID_1_" gradientUnits="userSpaceOnUse" x1="-317.95" y1="777.75" x2="-317.95" y2="771.99" gradientTransform="matrix(1 0 0 1 0 2.22)">
	<stop  offset="0" style="stop-color:#3C71A1"/>
	<stop  offset="0.4345" style="stop-color:#619BC7"/>
	<stop  offset="0.7915" style="stop-color:#79B6E0"/>
	<stop  offset="1" style="stop-color:#82C0E9"/>
</linearGradient>
<path class="st0" d="M-323.7,774.2h11.5v5.8h-11.5V774.2z"/>
<linearGradient id="SVGID_2_" gradientUnits="userSpaceOnUse" x1="-229.65" y1="777.75" x2="-229.65" y2="771.99" gradientTransform="matrix(1 0 0 1 0 2.22)">
	<stop  offset="0" style="stop-color:#3C71A1"/>
	<stop  offset="0.4345" style="stop-color:#619BC7"/>
	<stop  offset="0.7915" style="stop-color:#79B6E0"/>
	<stop  offset="1" style="stop-color:#82C0E9"/>
</linearGradient>
<path class="st1" d="M-235.4,774.2h11.5v5.8h-11.5V774.2z"/>
<g>
	
		<linearGradient id="SVGID_3_" gradientUnits="userSpaceOnUse" x1="-376.8" y1="710.95" x2="-376.8" y2="694.33" gradientTransform="matrix(1 0 0 1 0 2.22)">
		<stop  offset="0" style="stop-color:#3C71A1"/>
		<stop  offset="0.4345" style="stop-color:#619BC7"/>
		<stop  offset="0.7915" style="stop-color:#79B6E0"/>
		<stop  offset="1" style="stop-color:#82C0E9"/>
	</linearGradient>
	<path class="st2" d="M-380,696.6c0.1,0,0.1,0,0.2,0.1c0.1,0,0.1,0.1,0.2,0.1c0,0.1,0.1,0.1,0.1,0.2l5.7,11.3c0-0.2,0-0.4,0-0.6
		s0-0.4,0.1-0.6l1.1-10.6h2.3l-1.8,16.6h-1.3c-0.2,0-0.4,0-0.5-0.1c-0.1-0.1-0.3-0.2-0.4-0.4l-5.6-11.3c0,0.2,0,0.4,0,0.5
		c0,0.2,0,0.3,0,0.5l-1.1,10.8h-2.3l1.8-16.6h1.4C-380.2,696.6-380.1,696.6-380,696.6z"/>
	
		<linearGradient id="SVGID_4_" gradientUnits="userSpaceOnUse" x1="-364.35" y1="710.94" x2="-364.35" y2="694.32" gradientTransform="matrix(1 0 0 1 0 2.22)">
		<stop  offset="0" style="stop-color:#3C71A1"/>
		<stop  offset="0.4345" style="stop-color:#619BC7"/>
		<stop  offset="0.7915" style="stop-color:#79B6E0"/>
		<stop  offset="1" style="stop-color:#82C0E9"/>
	</linearGradient>
	<path class="st3" d="M-357.7,713.1h-2c-0.2,0-0.4-0.1-0.6-0.2c-0.2-0.1-0.2-0.3-0.2-0.5l-0.6-3.5h-5.4l-1.4,3.5
		c-0.1,0.2-0.2,0.3-0.4,0.5c-0.2,0.1-0.4,0.2-0.6,0.2h-2.1l7-16.6h2.7L-357.7,713.1z M-365.7,706.9h4.2l-1-5.7
		c0-0.3-0.1-0.6-0.2-0.9c-0.1-0.3-0.1-0.6-0.2-1c-0.1,0.4-0.2,0.7-0.4,1.1c-0.1,0.3-0.2,0.6-0.4,0.9L-365.7,706.9z"/>
	
		<linearGradient id="SVGID_5_" gradientUnits="userSpaceOnUse" x1="-352.15" y1="710.91" x2="-352.15" y2="694.31" gradientTransform="matrix(1 0 0 1 0 2.22)">
		<stop  offset="0" style="stop-color:#3C71A1"/>
		<stop  offset="0.4345" style="stop-color:#619BC7"/>
		<stop  offset="0.7915" style="stop-color:#79B6E0"/>
		<stop  offset="1" style="stop-color:#82C0E9"/>
	</linearGradient>
	<path class="st4" d="M-346.7,696.5l-0.3,2.4h-4l-1.5,14.2h-2.6l1.5-14.2h-4l0.3-2.4H-346.7z"/>
	
		<linearGradient id="SVGID_6_" gradientUnits="userSpaceOnUse" x1="-340.35" y1="711.0801" x2="-340.35" y2="694.28" gradientTransform="matrix(1 0 0 1 0 2.22)">
		<stop  offset="0" style="stop-color:#3C71A1"/>
		<stop  offset="0.4345" style="stop-color:#619BC7"/>
		<stop  offset="0.7915" style="stop-color:#79B6E0"/>
		<stop  offset="1" style="stop-color:#82C0E9"/>
	</linearGradient>
	<path class="st5" d="M-341.3,710.7c0.5,0,0.9-0.1,1.3-0.3c0.4-0.2,0.7-0.5,1-0.9c0.3-0.4,0.5-0.8,0.7-1.3c0.2-0.5,0.3-1.1,0.4-1.7
		l1.1-10h2.6l-1.1,10c-0.1,1-0.3,1.9-0.7,2.7c-0.3,0.8-0.8,1.6-1.3,2.2c-0.6,0.6-1.2,1.1-1.9,1.4c-0.7,0.3-1.5,0.5-2.4,0.5
		c-0.8,0-1.5-0.1-2.1-0.4c-0.6-0.3-1.1-0.7-1.5-1.2c-0.4-0.5-0.7-1.1-1-1.8c-0.2-0.7-0.3-1.5-0.3-2.3c0-0.3,0-0.7,0.1-1.1l1.1-10
		h2.6l-1.1,10c0,0.1,0,0.3,0,0.4c0,0.1,0,0.3,0,0.4c0,0.5,0.1,1,0.2,1.4c0.1,0.4,0.3,0.8,0.5,1.1c0.2,0.3,0.5,0.5,0.8,0.7
		C-342.1,710.6-341.7,710.7-341.3,710.7z"/>
	
		<linearGradient id="SVGID_7_" gradientUnits="userSpaceOnUse" x1="-328" y1="710.9" x2="-328" y2="694.28" gradientTransform="matrix(1 0 0 1 0 2.22)">
		<stop  offset="0" style="stop-color:#3C71A1"/>
		<stop  offset="0.4345" style="stop-color:#619BC7"/>
		<stop  offset="0.7915" style="stop-color:#79B6E0"/>
		<stop  offset="1" style="stop-color:#82C0E9"/>
	</linearGradient>
	<path class="st6" d="M-330.1,706.6l-0.7,6.5h-2.6l1.8-16.6h4.1c0.8,0,1.6,0.1,2.2,0.3c0.6,0.2,1.1,0.5,1.5,0.9
		c0.4,0.4,0.7,0.8,0.9,1.3c0.2,0.5,0.3,1.1,0.3,1.7c0,0.6-0.1,1.2-0.2,1.8c-0.2,0.6-0.4,1.1-0.7,1.5c-0.3,0.5-0.7,0.9-1.1,1.2
		c-0.4,0.3-0.9,0.6-1.5,0.8c0.1,0.1,0.3,0.2,0.4,0.4c0.1,0.2,0.2,0.3,0.3,0.6l2.6,6.2h-2.3c-0.2,0-0.4-0.1-0.6-0.2
		c-0.2-0.1-0.3-0.2-0.3-0.4l-2.1-5.4c-0.1-0.2-0.2-0.3-0.3-0.4c-0.1-0.1-0.3-0.1-0.6-0.1L-330.1,706.6L-330.1,706.6z M-329.3,698.8
		l-0.6,5.6h1.5c0.5,0,1-0.1,1.4-0.3c0.4-0.2,0.7-0.4,0.9-0.7c0.2-0.3,0.4-0.7,0.6-1.1c0.1-0.4,0.2-0.8,0.2-1.3
		c0-0.7-0.2-1.3-0.6-1.7c-0.4-0.4-1-0.6-1.8-0.6L-329.3,698.8z"/>
	
		<linearGradient id="SVGID_8_" gradientUnits="userSpaceOnUse" x1="-316.1" y1="710.88" x2="-316.1" y2="694.26" gradientTransform="matrix(1 0 0 1 0 2.22)">
		<stop  offset="0" style="stop-color:#3C71A1"/>
		<stop  offset="0.4345" style="stop-color:#619BC7"/>
		<stop  offset="0.7915" style="stop-color:#79B6E0"/>
		<stop  offset="1" style="stop-color:#82C0E9"/>
	</linearGradient>
	<path class="st7" d="M-309.5,713.1h-2c-0.2,0-0.4-0.1-0.6-0.2c-0.1-0.1-0.2-0.3-0.2-0.5l-0.6-3.5h-5.4l-1.3,3.5
		c-0.1,0.2-0.2,0.3-0.4,0.5c-0.2,0.1-0.4,0.2-0.6,0.2h-2.1l7-16.6h2.7L-309.5,713.1z M-317.6,706.8h4.2l-1-5.7
		c-0.1-0.3-0.1-0.6-0.2-0.9s-0.1-0.6-0.2-1c-0.1,0.4-0.2,0.7-0.4,1.1c-0.1,0.3-0.2,0.6-0.3,0.9L-317.6,706.8z"/>
	
		<linearGradient id="SVGID_9_" gradientUnits="userSpaceOnUse" x1="-304.25" y1="710.88" x2="-304.25" y2="694.28" gradientTransform="matrix(1 0 0 1 0 2.22)">
		<stop  offset="0" style="stop-color:#3C71A1"/>
		<stop  offset="0.4345" style="stop-color:#619BC7"/>
		<stop  offset="0.7915" style="stop-color:#79B6E0"/>
		<stop  offset="1" style="stop-color:#82C0E9"/>
	</linearGradient>
	<path class="st8" d="M-305.5,710.6h5.3l-0.2,2.5h-7.9l1.8-16.6h2.6L-305.5,710.6z"/>
</g>
<linearGradient id="XMLID_3_" gradientUnits="userSpaceOnUse" x1="-288.8" y1="714.86" x2="-288.8" y2="687.9533" gradientTransform="matrix(1 0 0 1 0 2.22)">
	<stop  offset="0" style="stop-color:#3C71A1"/>
	<stop  offset="0.4345" style="stop-color:#619BC7"/>
	<stop  offset="0.7915" style="stop-color:#79B6E0"/>
	<stop  offset="1" style="stop-color:#82C0E9"/>
</linearGradient>
<path id="XMLID_1_" class="st9" d="M-296.8,717.1L-296.8,717.1c-0.3-0.1-0.5-0.3-0.7-0.5c-0.1-0.1-0.2-0.3-0.2-0.5V716h-0.1v-0.4
	l0.1-0.1l0,0c0.1-0.3,0.3-0.6,0.4-0.9c0.4-0.8,0.9-1.6,1.5-2.4c0.4-0.6,0.9-1.2,1.4-1.7c0.2-0.2,0.6-0.6,0.6-0.6l-0.5-0.6
	c-0.2-0.2-0.4-0.5-0.6-0.7c-0.3-0.5-0.6-1.1-0.7-1.8c-0.1-0.6-0.2-1.2-0.1-1.8c0.1-1.4,0.6-2.6,1.4-3.7c0.2-0.3,0.5-0.6,0.8-0.9
	c0.7-0.6,1.4-1.1,2.2-1.6c0.6-0.4,1.3-0.8,2.1-1.3l2.1-1.2c0.8-0.4,1.4-0.9,2.1-1.3c0.6-0.4,1.2-0.8,1.6-1.2
	c0.5-0.4,0.9-0.9,1.4-1.4c0.4-0.5,0.8-1,1.1-1.5l0.1-0.1c0.1-0.1,0.1-0.2,0.1-0.2c0.1-0.1,0.1-0.2,0.2-0.2l0.1-0.1
	c0,0,0.1-0.1,0.3,0c0.2,0.1,0.2,0.2,0.2,0.2s0.1,0.3,0.1,0.4c0,0.2,0,0.4-0.1,0.6l-0.1,0.6c0,0.2,0,0.4-0.1,0.5c0,0-0.3,2.8-0.3,3.1
	l-0.1,0.5c0,0.2,0,0.5-0.1,0.7c0,0.1,0,0.3,0,0.5l-0.3,2.6c0,0.2,0,0.3,0,0.5l-0.2,1.8c0,0.2-0.1,0.8-0.1,0.8
	c-0.1,0.4-0.1,0.8-0.2,1.2c-0.2,0.7-0.3,1.4-0.5,2c-0.3,0.7-0.6,1.4-0.9,2c-0.3,0.5-0.7,0.9-1,1.3c-0.5,0.4-1,0.8-1.6,1.1
	c-0.4,0.2-0.9,0.4-1.4,0.5c-0.4,0.1-0.7,0.1-1,0.2c-0.3,0.1-0.7,0.1-1,0.1c-0.2,0-0.4,0-0.6,0s-0.3,0-0.5,0s-0.9-0.1-0.9-0.1
	s-0.4-0.1-0.5-0.1l-0.7-0.1l-0.8-0.2c-0.2,0.2-0.3,0.4-0.4,0.6c-0.3,0.4-0.5,0.9-0.8,1.4c-0.4,0.9-0.8,1.9-1.2,3.1
	c-0.1,0.3-0.2,0.6-0.3,0.8c0,0.1-0.1,0.2-0.3,0.3c-0.2,0.1-0.3,0.2-0.5,0.2h-0.1L-296.8,717.1L-296.8,717.1z M-294.6,711.9
	c-0.4,0.5-0.8,1-1.2,1.6c-0.5,0.7-0.8,1.3-1.1,1.9c0,0.1-0.1,0.2-0.1,0.2l-0.1,0.2c0,0,0.1,0.1,0.2,0.2c0.1,0.1,0.2,0.2,0.3,0.2l0,0
	c0.1,0,0.2,0,0.3-0.1V716c0.1-0.3,0.2-0.5,0.3-0.8c0.4-1.1,0.8-2.1,1.2-3C-294.7,712.1-294.7,712-294.6,711.9z M-292.7,709.8
	c0.4,0.1,0.8,0.1,1.2,0.2c0.4,0.1,0.8,0.1,1.2,0.1c0.3,0,0.7,0.1,1,0.1c0.1,0,0.2,0,0.3,0c0.3,0,0.6,0,0.8,0c0.3,0,0.7-0.1,1-0.1
	c0.5-0.1,0.9-0.2,1.3-0.4c0.5-0.2,1-0.5,1.4-0.9c0.3-0.3,0.6-0.7,0.9-1.1c0.1-0.1,0.1-0.2,0.2-0.3l-8,0.3c-0.2,0.4-0.4,0.7-0.6,1.1
	C-292.3,709.1-292.5,709.4-292.7,709.8z M-293.9,701.8c-0.3,0.4-0.5,0.8-0.7,1.2c-0.3,0.7-0.5,1.5-0.5,2.4c0,0.5,0,0.9,0.1,1.3
	c0.1,0.5,0.3,1,0.5,1.4c0.2,0.3,0.4,0.5,0.6,0.8c0.1,0.1,0.5,0.6,0.5,0.6s0.2-0.4,0.3-0.5l0.5-0.9l0.4-0.8L-293.9,701.8z
	 M-289.2,704.1c-0.2,0.3-0.5,0.6-0.7,0.9c-0.3,0.4-0.5,0.9-0.8,1.3c-0.1,0.2-0.2,0.3-0.3,0.5c0,0,6.4-0.2,6.7-0.2c0.2,0,1.2,0,1.2,0
	c0.4-0.9,0.6-1.8,0.8-2.9L-289.2,704.1z M-293.2,701.1c0.2,0.7,1.2,3.9,1.6,5.1l0.3-0.6c0.4-0.7,0.8-1.4,1.3-2l0.1-0.1l-1-4.2
	C-291.8,699.9-292.6,700.5-293.2,701.1z M-286.5,700.8L-286.5,700.8l-0.3,0.4c-0.4,0.5-0.8,1-1.3,1.4c-0.2,0.2-0.3,0.4-0.4,0.5
	l6.5-0.5v-0.2c0-0.2,0.1-0.5,0.1-0.7s0.1-1.5,0.1-1.5C-281.8,700.3-286.2,700.8-286.5,700.8z M-289.3,702.8c0.3-0.4,0.6-0.8,1-1.1
	c0.4-0.5,0.8-0.9,1.2-1.4l-0.1-0.8l-0.3-2.2c-0.3,0.2-1.6,0.9-1.6,0.9c-0.3,0.2-0.7,0.4-1,0.6l-0.1,0.1
	C-290,699.7-289.3,702.8-289.3,702.8z M-283.6,698c-0.1,0-0.3,0.1-0.4,0.1c-0.4,0.5-0.9,1.1-1.4,1.6l-0.2,0.2c0,0,3.4-0.4,3.6-0.4
	c0.1,0,0.2,0,0.3,0c0-0.4,0.1-1.3,0.2-1.8L-283.6,698z M-286.7,696.9c0.1,0.5,0.1,1.1,0.2,1.6l0.1,0.9c0.2-0.2,0.3-0.4,0.5-0.5
	c0.4-0.5,0.8-0.9,1.2-1.4l-0.3-1.7l-0.3,0.2C-285.7,696.4-286.2,696.7-286.7,696.9z M-281.1,693.6c-0.1,0.3-0.2,0.6-0.3,0.8
	c-0.4,0.8-1,1.6-1.6,2.4c-0.1,0.1-0.2,0.2-0.3,0.4l1.9-0.3L-281.1,693.6z M-284,696.7c0.3-0.4,0.6-0.8,0.9-1.2
	c0.5-0.8,0.9-1.5,1.3-2.2c-0.1,0.1-0.1,0.1-0.1,0.1c-0.3,0.4-0.7,0.7-1.1,1c-0.4,0.3-0.8,0.6-1.2,0.9
	C-284.2,695.4-284,696.7-284,696.7z"/>
<linearGradient id="SVGID_10_" gradientUnits="userSpaceOnUse" x1="-369.35" y1="755.88" x2="-369.35" y2="716.52" gradientTransform="matrix(1 0 0 1 0 2.22)">
	<stop  offset="0" style="stop-color:#3C71A1"/>
	<stop  offset="0.4345" style="stop-color:#619BC7"/>
	<stop  offset="0.7915" style="stop-color:#79B6E0"/>
	<stop  offset="1" style="stop-color:#82C0E9"/>
</linearGradient>
<path class="st10" d="M-374.9,744.9v13.2h-8.8v-39.4h13.4c2.7,0,5,0.3,6.9,1c1.9,0.7,3.5,1.6,4.7,2.7c1.2,1.1,2.2,2.5,2.8,4.1
	c0.6,1.6,0.9,3.3,0.9,5.1c0,2-0.3,3.8-0.9,5.4c-0.6,1.6-1.5,3-2.8,4.2c-1.2,1.2-2.8,2.1-4.8,2.7c-1.9,0.7-4.2,1-6.8,1L-374.9,744.9
	L-374.9,744.9z M-374.9,738h4.6c2.3,0,3.9-0.6,4.9-1.7c1-1.1,1.5-2.7,1.5-4.8c0-0.9-0.1-1.7-0.4-2.5c-0.3-0.7-0.7-1.4-1.2-1.9
	s-1.2-0.9-2-1.2c-0.8-0.3-1.8-0.4-2.9-0.4h-4.6V738H-374.9z"/>
<linearGradient id="SVGID_11_" gradientUnits="userSpaceOnUse" x1="-335.1" y1="755.8801" x2="-335.1" y2="716.48" gradientTransform="matrix(1 0 0 1 0 2.22)">
	<stop  offset="0" style="stop-color:#3C71A1"/>
	<stop  offset="0.4345" style="stop-color:#619BC7"/>
	<stop  offset="0.7915" style="stop-color:#79B6E0"/>
	<stop  offset="1" style="stop-color:#82C0E9"/>
</linearGradient>
<path class="st11" d="M-341.8,743.5v14.6h-8.8v-39.4h12.4c2.8,0,5.1,0.3,7,0.9c1.9,0.6,3.5,1.4,4.7,2.5c1.2,1,2.1,2.3,2.7,3.7
	s0.8,3,0.8,4.7c0,1.3-0.2,2.5-0.5,3.6c-0.3,1.1-0.8,2.2-1.5,3.1c-0.6,1-1.4,1.8-2.4,2.6c-1,0.8-2,1.4-3.3,1.9
	c0.6,0.3,1.1,0.7,1.6,1.1c0.5,0.5,1,1,1.4,1.6l8.1,13.7h-8c-1.5,0-2.5-0.6-3.2-1.7l-6.3-11.4c-0.3-0.5-0.6-0.8-1-1.1
	c-0.4-0.2-0.9-0.3-1.6-0.3L-341.8,743.5L-341.8,743.5z M-341.8,737.2h3.5c1.2,0,2.2-0.2,3.1-0.5c0.8-0.3,1.5-0.8,2.1-1.3
	c0.5-0.6,0.9-1.2,1.2-2c0.2-0.8,0.4-1.6,0.4-2.4c0-1.7-0.5-3.1-1.6-4c-1.1-1-2.8-1.5-5-1.5h-3.5
	C-341.8,725.6-341.8,737.2-341.8,737.2z"/>
<linearGradient id="SVGID_12_" gradientUnits="userSpaceOnUse" x1="-299.4" y1="756.28" x2="-299.4" y2="716.05" gradientTransform="matrix(1 0 0 1 0 2.22)">
	<stop  offset="0" style="stop-color:#3C71A1"/>
	<stop  offset="0.4345" style="stop-color:#619BC7"/>
	<stop  offset="0.7915" style="stop-color:#79B6E0"/>
	<stop  offset="1" style="stop-color:#82C0E9"/>
</linearGradient>
<path class="st12" d="M-279.7,738.4c0,2.8-0.5,5.5-1.4,7.9c-0.9,2.4-2.3,4.6-4,6.4c-1.7,1.8-3.8,3.2-6.2,4.3c-2.4,1-5.1,1.5-8.1,1.5
	c-2.9,0-5.7-0.5-8.1-1.5c-2.4-1-4.5-2.4-6.2-4.3c-1.7-1.8-3.1-3.9-4-6.4s-1.4-5.1-1.4-7.9c0-2.9,0.5-5.5,1.4-7.9
	c0.9-2.4,2.3-4.6,4-6.4c1.7-1.8,3.8-3.2,6.2-4.2s5.1-1.5,8.1-1.5s5.6,0.5,8.1,1.6c2.4,1,4.5,2.5,6.2,4.3c1.7,1.8,3.1,3.9,4,6.4
	C-280.2,732.9-279.7,735.6-279.7,738.4z M-288.7,738.4c0-2-0.2-3.7-0.7-5.3c-0.5-1.5-1.2-2.9-2.1-4c-0.9-1.1-2-1.9-3.3-2.5
	c-1.3-0.6-2.8-0.9-4.5-0.9c-1.7,0-3.2,0.3-4.5,0.9c-1.3,0.6-2.4,1.4-3.4,2.5c-0.9,1.1-1.6,2.4-2.1,4c-0.5,1.6-0.7,3.3-0.7,5.3
	s0.2,3.7,0.7,5.3c0.5,1.6,1.2,2.9,2.1,4c0.9,1.1,2,1.9,3.4,2.5c1.3,0.6,2.8,0.9,4.5,0.9c1.7,0,3.2-0.3,4.5-0.9
	c1.3-0.6,2.4-1.4,3.3-2.5c0.9-1.1,1.6-2.4,2.1-4C-289,742.1-288.7,740.4-288.7,738.4z"/>
<linearGradient id="SVGID_13_" gradientUnits="userSpaceOnUse" x1="-263.2" y1="755.88" x2="-263.2" y2="716.48" gradientTransform="matrix(1 0 0 1 0 2.22)">
	<stop  offset="0" style="stop-color:#3C71A1"/>
	<stop  offset="0.4345" style="stop-color:#619BC7"/>
	<stop  offset="0.7915" style="stop-color:#79B6E0"/>
	<stop  offset="1" style="stop-color:#82C0E9"/>
</linearGradient>
<path class="st13" d="M-248.1,718.7v7.2h-10.7v32.2h-8.8V726h-10.7v-7.2C-278.3,718.7-248.1,718.7-248.1,718.7z"/>
<linearGradient id="SVGID_14_" gradientUnits="userSpaceOnUse" x1="-231.4" y1="755.88" x2="-231.4" y2="716.48" gradientTransform="matrix(1 0 0 1 0 2.22)">
	<stop  offset="0" style="stop-color:#3C71A1"/>
	<stop  offset="0.4345" style="stop-color:#619BC7"/>
	<stop  offset="0.7915" style="stop-color:#79B6E0"/>
	<stop  offset="1" style="stop-color:#82C0E9"/>
</linearGradient>
<path class="st14" d="M-219.2,718.7v7h-15.6v9.2h11.9v6.8h-11.9v9.4h15.6v7h-24.4v-39.4H-219.2z"/>
<linearGradient id="SVGID_15_" gradientUnits="userSpaceOnUse" x1="-209.45" y1="755.88" x2="-209.45" y2="716.52" gradientTransform="matrix(1 0 0 1 0 2.22)">
	<stop  offset="0" style="stop-color:#3C71A1"/>
	<stop  offset="0.4345" style="stop-color:#619BC7"/>
	<stop  offset="0.7915" style="stop-color:#79B6E0"/>
	<stop  offset="1" style="stop-color:#82C0E9"/>
</linearGradient>
<path class="st15" d="M-205,758.1h-8.9v-39.4h8.9V758.1z"/>
<linearGradient id="SVGID_16_" gradientUnits="userSpaceOnUse" x1="-181.1" y1="755.88" x2="-181.1" y2="716.48" gradientTransform="matrix(1 0 0 1 0 2.22)">
	<stop  offset="0" style="stop-color:#3C71A1"/>
	<stop  offset="0.4345" style="stop-color:#619BC7"/>
	<stop  offset="0.7915" style="stop-color:#79B6E0"/>
	<stop  offset="1" style="stop-color:#82C0E9"/>
</linearGradient>
<path class="st16" d="M-192,718.8c0.3,0,0.5,0.1,0.7,0.2c0.2,0.1,0.4,0.2,0.6,0.4c0.2,0.2,0.4,0.4,0.6,0.7l18,23.6
	c-0.1-0.8-0.1-1.5-0.2-2.2c0-0.7-0.1-1.4-0.1-2v-20.8h7.8v39.4h-4.4c-0.7,0-1.2-0.1-1.7-0.3s-0.9-0.6-1.4-1.2l-17.9-23.5
	c0.1,0.7,0.1,1.4,0.1,2c0,0.7,0.1,1.3,0.1,1.9v21.1h-7.8v-39.4h4.6C-192.6,718.7-192.3,718.7-192,718.8z"/>
<linearGradient id="SVGID_17_" gradientUnits="userSpaceOnUse" x1="-371.25" y1="790.88" x2="-371.25" y2="759.02" gradientTransform="matrix(1 0 0 1 0 2.22)">
	<stop  offset="0" style="stop-color:#3C71A1"/>
	<stop  offset="0.4345" style="stop-color:#619BC7"/>
	<stop  offset="0.7915" style="stop-color:#79B6E0"/>
	<stop  offset="1" style="stop-color:#82C0E9"/>
</linearGradient>
<path class="st17" d="M-356.4,777.1c0,2.3-0.4,4.4-1.1,6.3c-0.7,1.9-1.7,3.6-3,5.1c-1.3,1.4-2.8,2.6-4.7,3.4c-1.8,0.8-3.8,1.2-6,1.2
	c-2.2,0-4.2-0.4-6.1-1.2c-1.8-0.8-3.4-1.9-4.7-3.4c-1.3-1.4-2.3-3.1-3-5.1c-0.7-1.9-1.1-4-1.1-6.3s0.4-4.4,1.1-6.3
	c0.7-1.9,1.7-3.6,3-5c1.3-1.4,2.9-2.6,4.7-3.4c1.8-0.8,3.8-1.2,6.1-1.2c2.3,0,4.2,0.4,6.1,1.2c1.8,0.8,3.4,2,4.7,3.4
	c1.3,1.4,2.3,3.1,3,5.1C-356.8,772.8-356.4,774.9-356.4,777.1z M-363.2,777.1c0-1.5-0.2-2.9-0.6-4.2c-0.4-1.2-0.9-2.3-1.6-3.1
	c-0.7-0.9-1.5-1.5-2.5-2s-2.1-0.7-3.4-0.7c-1.3,0-2.4,0.2-3.4,0.7s-1.8,1.1-2.5,2c-0.7,0.9-1.2,1.9-1.6,3.1
	c-0.4,1.2-0.6,2.6-0.6,4.2c0,1.6,0.2,3,0.6,4.2c0.4,1.2,0.9,2.3,1.6,3.1c0.7,0.9,1.5,1.5,2.5,2c1,0.4,2.1,0.7,3.4,0.7
	s2.4-0.2,3.4-0.7s1.8-1.1,2.5-2c0.7-0.9,1.2-1.9,1.6-3.1C-363.4,780.1-363.2,778.7-363.2,777.1z"/>
<linearGradient id="SVGID_18_" gradientUnits="userSpaceOnUse" x1="-340.1" y1="790.5801" x2="-340.1" y2="759.38" gradientTransform="matrix(1 0 0 1 0 2.22)">
	<stop  offset="0" style="stop-color:#3C71A1"/>
	<stop  offset="0.4345" style="stop-color:#619BC7"/>
	<stop  offset="0.7915" style="stop-color:#79B6E0"/>
	<stop  offset="1" style="stop-color:#82C0E9"/>
</linearGradient>
<path class="st18" d="M-348.3,761.6c0.2,0,0.4,0.1,0.5,0.2c0.2,0.1,0.3,0.2,0.4,0.3c0.1,0.1,0.3,0.3,0.5,0.6l13.5,18.7
	c0-0.6-0.1-1.2-0.1-1.7s0-1.1,0-1.6v-16.5h5.8v31.2h-3.4c-0.5,0-0.9-0.1-1.3-0.3c-0.4-0.2-0.7-0.5-1-0.9l-13.4-18.6
	c0,0.5,0.1,1.1,0.1,1.6s0,1,0,1.5v16.7h-5.8v-31.2h3.5C-348.8,761.6-348.5,761.6-348.3,761.6z"/>
<linearGradient id="SVGID_19_" gradientUnits="userSpaceOnUse" x1="-300.7" y1="790.58" x2="-300.7" y2="759.38" gradientTransform="matrix(1 0 0 1 0 2.22)">
	<stop  offset="0" style="stop-color:#3C71A1"/>
	<stop  offset="0.4345" style="stop-color:#619BC7"/>
	<stop  offset="0.7915" style="stop-color:#79B6E0"/>
	<stop  offset="1" style="stop-color:#82C0E9"/>
</linearGradient>
<path class="st19" d="M-289.4,761.6v5.7h-8v25.5h-6.6v-25.5h-8v-5.7H-289.4L-289.4,761.6z"/>
<linearGradient id="SVGID_20_" gradientUnits="userSpaceOnUse" x1="-273.7" y1="790.54" x2="-273.7" y2="759.34" gradientTransform="matrix(1 0 0 1 0 2.22)">
	<stop  offset="0" style="stop-color:#3C71A1"/>
	<stop  offset="0.4345" style="stop-color:#619BC7"/>
	<stop  offset="0.7915" style="stop-color:#79B6E0"/>
	<stop  offset="1" style="stop-color:#82C0E9"/>
</linearGradient>
<path class="st20" d="M-261.2,792.8h-6.7v-13.2h-11.6v13.2h-6.7v-31.2h6.7v13h11.6v-13h6.7V792.8z"/>
<linearGradient id="SVGID_21_" gradientUnits="userSpaceOnUse" x1="-246.55" y1="790.55" x2="-246.55" y2="759.35" gradientTransform="matrix(1 0 0 1 0 2.22)">
	<stop  offset="0" style="stop-color:#3C71A1"/>
	<stop  offset="0.4345" style="stop-color:#619BC7"/>
	<stop  offset="0.7915" style="stop-color:#79B6E0"/>
	<stop  offset="1" style="stop-color:#82C0E9"/>
</linearGradient>
<path class="st21" d="M-237.4,761.6v5.6h-11.7v7.3h8.9v5.4h-8.9v7.4h11.7v5.6h-18.3v-31.2L-237.4,761.6L-237.4,761.6z"/>
<linearGradient id="SVGID_22_" gradientUnits="userSpaceOnUse" x1="-207.5" y1="790.88" x2="-207.5" y2="759" gradientTransform="matrix(1 0 0 1 0 2.22)">
	<stop  offset="0" style="stop-color:#3C71A1"/>
	<stop  offset="0.4345" style="stop-color:#619BC7"/>
	<stop  offset="0.7915" style="stop-color:#79B6E0"/>
	<stop  offset="1" style="stop-color:#82C0E9"/>
</linearGradient>
<path class="st22" d="M-199.5,792.3c-1.6,0.5-3.4,0.8-5.2,0.8c-2.4,0-4.5-0.4-6.4-1.2c-1.9-0.8-3.6-1.9-4.9-3.3
	c-1.4-1.4-2.4-3.1-3.2-5c-0.7-2-1.1-4.1-1.1-6.4s0.4-4.5,1.1-6.4c0.7-1.9,1.7-3.6,3-5c1.3-1.4,2.9-2.5,4.8-3.3
	c1.9-0.8,3.9-1.2,6.2-1.2c1.2,0,2.3,0.1,3.3,0.3c1,0.2,2,0.5,2.9,0.9c0.9,0.4,1.7,0.8,2.4,1.3c0.7,0.5,1.4,1.1,1.9,1.7l-1.9,3.2
	c-0.3,0.5-0.7,0.8-1.2,0.9c-0.5,0.1-1,0-1.5-0.4c-0.5-0.3-1-0.6-1.5-0.9c-0.5-0.2-0.9-0.4-1.4-0.6s-1-0.3-1.5-0.3
	c-0.5-0.1-1.1-0.1-1.8-0.1c-1.2,0-2.4,0.2-3.3,0.7c-1,0.5-1.8,1.1-2.5,2c-0.7,0.9-1.2,1.9-1.6,3.1c-0.4,1.2-0.6,2.6-0.6,4.1
	c0,1.7,0.2,3.1,0.6,4.4c0.4,1.3,1,2.4,1.8,3.2c0.8,0.9,1.7,1.6,2.7,2c1.1,0.5,2.2,0.7,3.5,0.7c0.8,0,1.5-0.1,2.2-0.3
	c0.6-0.2,1.3-0.4,1.9-0.7v-4.7h-2.8c-0.4,0-0.7-0.1-1-0.4c-0.2-0.2-0.4-0.5-0.4-0.9v-4h10.1v13.2
	C-196.3,790.9-197.9,791.8-199.5,792.3z"/>
<linearGradient id="SVGID_23_" gradientUnits="userSpaceOnUse" x1="-177.3" y1="790.88" x2="-177.3" y2="759.02" gradientTransform="matrix(1 0 0 1 0 2.22)">
	<stop  offset="0" style="stop-color:#3C71A1"/>
	<stop  offset="0.4345" style="stop-color:#619BC7"/>
	<stop  offset="0.7915" style="stop-color:#79B6E0"/>
	<stop  offset="1" style="stop-color:#82C0E9"/>
</linearGradient>
<path class="st23" d="M-162.5,777.1c0,2.3-0.4,4.4-1.1,6.3c-0.7,1.9-1.7,3.6-3,5.1c-1.3,1.4-2.8,2.6-4.7,3.4
	c-1.9,0.8-3.7,1.2-5.9,1.2s-4.2-0.4-6.1-1.2c-1.8-0.8-3.4-1.9-4.7-3.4c-1.3-1.4-2.3-3.1-3-5.1c-0.7-1.9-1.1-4-1.1-6.3
	s0.4-4.4,1.1-6.3c0.7-1.9,1.7-3.6,3-5c1.3-1.4,2.9-2.6,4.7-3.4s3.9-1.2,6.1-1.2s4.2,0.4,6.1,1.2c1.9,0.8,3.4,2,4.7,3.4
	c1.3,1.4,2.3,3.1,3,5.1C-162.8,772.8-162.5,774.9-162.5,777.1z M-169.2,777.1c0-1.5-0.2-2.9-0.6-4.2c-0.4-1.2-0.9-2.3-1.6-3.1
	c-0.7-0.9-1.5-1.5-2.5-2s-2.1-0.7-3.4-0.7s-2.4,0.2-3.4,0.7s-1.8,1.1-2.5,2c-0.7,0.9-1.2,1.9-1.6,3.1c-0.4,1.2-0.6,2.6-0.6,4.2
	c0,1.6,0.2,3,0.6,4.2c0.4,1.2,0.9,2.3,1.6,3.1c0.7,0.9,1.5,1.5,2.5,2c1,0.4,2.1,0.7,3.4,0.7s2.4-0.2,3.4-0.7s1.8-1.1,2.5-2
	c0.7-0.9,1.2-1.9,1.6-3.1C-169.4,780.1-169.2,778.7-169.2,777.1z"/>
<g id="XMLID_40_">
</g>
<g id="XMLID_41_">
</g>
<g id="XMLID_42_">
</g>
<g id="XMLID_43_">
</g>
<g id="XMLID_44_">
</g>
<g id="XMLID_45_">
</g>
</svg>
