<?xml version="1.0" encoding="utf-8"?>
<!-- Generator: Adobe Illustrator 19.0.0, SVG Export Plug-In . SVG Version: 6.00 Build 0)  -->
<svg version="1.1" id="Layer_1" xmlns="http://www.w3.org/2000/svg" xmlns:xlink="http://www.w3.org/1999/xlink" x="0px" y="0px"
	 viewBox="-39.3 358 467.9 267.7" style="enable-background:new -39.3 358 467.9 267.7;" xml:space="preserve">
<style type="text/css">
	.st0-p{fill:#498DCB;}
</style>
<path class="st0-p" d="M91.3,533.5h24.1v12.1H91.3V533.5z"/>
<path class="st0-p" d="M276,533.5h24.1v12.1H276V533.5z"/>
<g>
	<path class="st0-p" d="M-26.5,371.1c0.2,0,0.2,0,0.4,0.2c0.2,0,0.2,0.2,0.4,0.2c0,0.2,0.2,0.2,0.2,0.4l11.9,23.6c0-0.4,0-0.8,0-1.5
		c0-0.4,0-0.8,0.2-1.3l2.3-22.2h4.8l-3.7,35h-2.7c-0.4,0-0.8,0-1-0.2c-0.2-0.2-0.6-0.4-0.8-0.8l-11.7-23.6c0,0.4,0,0.8,0,1
		c0,0.4,0,0.6,0,1l-2.3,22.6h-4.8l3.8-34.7h2.9C-26.9,371.1-26.7,371.1-26.5,371.1z"/>
	<path class="st0-p" d="M20.2,405.7H16c-0.4,0-0.8-0.2-1.3-0.4c-0.2-0.2-0.4-0.6-0.4-1L13,397H1.8l-2.9,7.3c-0.2,0.4-0.4,0.6-0.8,1
		c-0.4,0.2-0.8,0.4-1.3,0.4h-4.4L7,370.9h5.6L20.2,405.7z M3.4,392.7h8.8l-2.1-11.9c0-0.6-0.2-1.3-0.4-1.9c-0.2-0.6-0.2-1.3-0.4-2.1
		c-0.2,0.8-0.4,1.5-0.8,2.3c-0.2,0.6-0.4,1.3-0.8,1.7L3.4,392.7z"/>
	<path class="st0-p" d="M43.2,370.9l-0.6,5h-8.4l-3.1,29.7h-5.4l3.1-29.7h-8.4l0.6-5.2L43.2,370.9z"/>
	<path class="st0-p" d="M54.5,400.7c1,0,1.9-0.2,2.7-0.6c0.8-0.4,1.5-1,2.1-1.9c0.6-0.8,1-1.7,1.5-2.7c0.4-1,0.6-2.3,0.8-3.6l2.3-20.9
		h5.4L67,391.9c-0.2,2.1-0.6,4-1.5,5.6c-0.6,1.7-1.7,3.3-2.7,4.6c-1.3,1.3-2.5,2.3-4,2.9c-1.5,0.6-3.1,1-5,1c-1.7,0-3.1-0.2-4.4-0.8
		s-2.3-1.5-3.1-2.5s-1.5-2.3-2.1-3.8c-0.4-1.5-0.6-3.1-0.6-4.8c0-0.6,0-1.5,0.2-2.3l2.3-20.9h5.4l-2.3,20.9c0,0.2,0,0.6,0,0.8
		c0,0.2,0,0.6,0,0.8c0,1,0.2,2.1,0.4,2.9s0.6,1.7,1,2.3s1,1,1.7,1.5C52.8,400.7,53.6,400.7,54.5,400.7z"/>
	<path class="st0-p" d="M77.9,392.1l-1.5,13.6H71l3.8-34.7h8.6c1.7,0,3.3,0.2,4.6,0.6c1.3,0.4,2.3,1,3.1,1.9c0.8,0.8,1.5,1.7,1.9,2.7
		s0.6,2.3,0.6,3.6s-0.2,2.5-0.4,3.8c-0.4,1.3-0.8,2.3-1.5,3.1c-0.6,1-1.5,1.9-2.3,2.5s-1.9,1.3-3.1,1.7c0.2,0.2,0.6,0.4,0.8,0.8
		s0.4,0.6,0.6,1.3l5.4,13h-4.8c-0.4,0-0.8-0.2-1.3-0.4c-0.4-0.2-0.6-0.4-0.6-0.8L82,393.5c-0.2-0.4-0.4-0.6-0.6-0.8
		c-0.2-0.2-0.6-0.2-1.3-0.2L77.9,392.1L77.9,392.1z M79.6,375.8l-1.3,11.7h3.1c1,0,2.1-0.2,2.9-0.6c0.8-0.4,1.5-0.8,1.9-1.5
		c0.4-0.6,0.8-1.5,1.3-2.3c0.2-0.8,0.4-1.7,0.4-2.7c0-1.5-0.4-2.7-1.3-3.6c-0.8-0.8-2.1-1.3-3.8-1.3L79.6,375.8z"/>
	<path class="st0-p" d="M121,405.7h-4.2c-0.4,0-0.8-0.2-1.3-0.4c-0.2-0.2-0.4-0.6-0.4-1l-1.3-7.3h-11.3l-2.7,7.3
		c-0.2,0.4-0.4,0.6-0.8,1c-0.4,0.2-0.8,0.4-1.3,0.4h-4.4l14.6-34.7h5.6L121,405.7z M104.1,392.5h8.8l-2.1-11.9
		c-0.2-0.6-0.2-1.3-0.4-1.9c-0.2-0.6-0.2-1.3-0.4-2.1c-0.2,0.8-0.4,1.5-0.8,2.3c-0.2,0.6-0.4,1.3-0.6,1.9L104.1,392.5z"/>
	<path class="st0-p" d="M129.4,400.4h11.1l-0.4,5.2h-16.5l3.8-34.7h5.4L129.4,400.4z"/>
</g>
<path id="XMLID_1_" class="st0-p" d="M147.6,414L147.6,414c-0.6-0.2-1-0.6-1.5-1c-0.2-0.2-0.4-0.6-0.4-1v-0.2h-0.2V411l0.2-0.2l0,0
	c0.2-0.6,0.6-1.3,0.8-2.1c0.8-1.7,1.9-3.3,3.1-5c0.8-1.3,1.9-2.5,2.9-3.6c0.4-0.4,1.3-1.3,1.3-1.3l-1-1.3c-0.4-0.4-0.8-1-1.3-1.5
	c-0.6-1-1.3-2.3-1.5-3.8c-0.2-1.3-0.4-2.5-0.2-3.8c0.2-2.9,1.3-5.4,2.9-7.7c0.4-0.6,1-1.3,1.7-1.7c1.5-1.3,2.9-2.3,4.6-3.3
	c1.3-0.8,2.7-1.7,4.4-2.7l4.4-2.5c1.7-0.8,2.9-1.7,4.4-2.7c1.3-0.8,2.5-1.7,3.3-2.5c1-0.8,1.9-1.9,2.9-2.9c0.8-1,1.7-2.1,2.3-3.1
	l0.2-0.2c0.2-0.2,0.2-0.4,0.2-0.4c0.2-0.2,0.2-0.4,0.4-0.4l0.2-0.2c0,0,0.2-0.2,0.6,0c0.4,0.2,0.4,0.4,0.4,0.4s0.2,0.6,0.2,0.8
	c0,0.4,0,0.8-0.2,1.3l-0.2,1.3c0,0.4,0,0.8-0.2,1.3c0,0-0.6,5.9-0.6,6.5l-0.2,1c0,0.4,0,1-0.2,1.5c0,0.4,0,0.6,0,1l-0.6,5.4
	c0,0.4,0,0.6,0,1l-0.4,3.8c0,0.4-0.2,1.7-0.2,1.7c-0.2,0.8-0.2,1.7-0.4,2.5c-0.4,1.5-0.6,2.9-1,4.2c-0.6,1.5-1.3,2.9-1.9,4
	c-0.6,1-1.5,2.1-2.1,2.7c-1,1-2.1,1.7-3.3,2.3c-0.8,0.4-1.9,0.8-2.9,1c-0.8,0.2-1.5,0.2-2.1,0.4c-0.6,0.2-1.5,0-2.1,0
	c-0.4,0-0.8,0-1.3,0s-0.6,0-1,0s-1.9-0.2-1.9-0.2s-0.8-0.2-1-0.2l-1.5-0.2l-1.7-0.2c-0.4,0.4-0.6,0.8-0.8,1.3
	c-0.6,0.8-1,1.9-1.7,3.1c-0.8,1.9-1.7,4-2.5,6.3c-0.2,0.6-0.4,1.3-0.6,1.7c0,0.2-0.2,0.4-0.6,0.6s-0.6,0.2-1,0.4h-0.2L147.6,414
	L147.6,414z M152.2,403.2c-0.8,1-1.7,2.1-2.5,3.3c-1,1.5-1.7,2.7-2.3,4c0,0.2-0.2,0.4-0.2,0.4l-0.2,0.4c0,0,0.2,0.4,0.4,0.4
	c0.2,0.2,0.4,0.4,0.6,0.4l0,0c0.2,0,0.4,0,0.6-0.2v-0.2c0.2-0.6,0.4-1,0.6-1.7c0.8-2.3,1.7-4.4,2.5-6.3
	C152,403.6,152,403.4,152.2,403.2z M156.2,398.8c0.8,0.2,1.7,0.2,2.5,0.4c0.8,0.2,1.7,0.2,2.5,0.2c0.6,0,1.5,0,2.1,0.2
	c0.2,0,0.4,0,0.6,0c0.6,0,1.3,0,1.7,0c0.6,0,1.5-0.2,2.1-0.2c1-0.2,1.9-0.4,2.7-0.8c1-0.4,2.1-1.3,2.9-1.9c0.6-0.6,1.3-1.5,1.9-2.3
	c0.2-0.2,0.2-0.4,0.4-0.6l-16.7,0.6c-0.4,0.8-0.8,1.5-1.3,2.3C157.2,397.5,156.6,397.9,156.2,398.8z M153.6,382
	c-0.6,0.8-1,1.7-1.5,2.5c-0.6,1.5-1,3.1-1,5c0,1,0,1.9,0.2,2.7c0.2,1,0.6,1.9,1,2.7c0.4,0.6,0.8,1,1.3,1.7c0.2,0.2,1,1.3,1,1.3
	s0.4-0.8,0.6-1l1-1.9l0.8-1.7L153.6,382z M163.5,386.8c-0.4,0.6-1,1.3-1.5,2.1c-0.6,0.8-1,1.9-1.7,2.7c-0.2,0.4-0.4,0.6-0.6,1
	c0,0,13.4-0.4,14-0.4c0.4,0,2.5,0,2.5,0c0.8-1.9,1.3-3.8,1.7-6.1L163.5,386.8z M155.1,380.6c0.4,1.5,2.5,8.2,3.3,10.7l0.6-1.3
	c0.8-1.5,1.7-2.9,2.7-4.2l0.2-0.2l-2.1-8.8C158,378.3,156.4,379.3,155.1,380.6z M169.1,379.9L169.1,379.9l-0.6,0.8
	c-0.8,1-1.7,2.1-2.7,2.9c-0.4,0.4-0.6,0.8-0.8,1l13.6-1v-0.4c0-0.4,0.2-1,0.2-1.5c0-0.4,0.2-3.1,0.2-3.1
	C179,378.9,169.8,379.9,169.1,379.9z M163.3,384.1c0.6-0.8,1.3-1.7,2.1-2.3c0.8-1,1.7-1.9,2.5-2.9l-0.2-1.7l-0.6-4.6
	c-0.6,0.4-3.3,1.9-3.3,1.9c-0.6,0.4-1.5,0.8-2.1,1.3l-0.2,0.2C161.8,377.6,163.3,384.1,163.3,384.1z M175.2,374.1
	c-0.2,0-0.6,0-0.8,0.2c-0.8,1-1.9,2.3-2.9,3.3l-0.5,0.5c0,0,7.1-0.8,7.5-0.8c0.2,0,0.4,0,0.6,0c0-0.8,0.2-2.7,0.4-3.8L175.2,374.1z
	 M168.7,372c0.2,1,0.2,2.3,0.4,3.3l0.2,1.9c0.4-0.4,0.6-0.8,1-1c0.8-1,1.7-1.9,2.5-2.9l-0.6-3.6l-0.6,0.4
	C170.8,370.7,169.8,371.4,168.7,372z M180.4,364.9c-0.2,0.6-0.4,1.3-0.6,1.7c-0.8,1.7-2.1,3.3-3.3,5c-0.2,0.2-0.4,0.4-0.6,0.8l4-0.6
	L180.4,364.9z M174.4,371.4c0.6-1,1.3-1.9,1.9-2.5c1-1.7,1.9-3.1,2.7-4.6c-0.2,0-0.2,0.2-0.2,0.2c-0.6,0.8-1.5,1.5-2.3,2.1
	s-1.7,1.3-2.5,1.9C173.9,368.6,174.4,371.4,174.4,371.4z"/>
<path class="st0-p" d="M-15.8,472.2v27.6h-18.4v-82.4h28c5.6,0,10.5,0.6,14.4,2.1c4,1.5,7.3,3.3,9.8,5.6c2.5,2.3,4.6,5.2,5.9,8.6
	c1.3,3.3,1.9,6.9,1.9,10.7c0,4.2-0.6,7.9-1.9,11.3c-1.3,3.3-3.1,6.3-5.9,8.8c-2.5,2.5-5.9,4.4-10,5.6c-4,1.5-8.8,2.1-14.2,2.1
	L-15.8,472.2L-15.8,472.2z M-15.8,457.8h9.6c4.8,0,8.2-1.3,10.3-3.6c2.1-2.3,3.1-5.6,3.1-10c0-1.9-0.2-3.6-0.8-5.2
	c-0.6-1.5-1.5-2.9-2.5-4c-1-1-2.5-1.9-4.2-2.5s-3.8-0.8-6.1-0.8H-16v26.2L-15.8,457.8L-15.8,457.8z"/>
<path class="st0-p" d="M53.4,469.3v30.5H35v-82.4h26c5.9,0,10.7,0.6,14.6,1.9c4,1.3,7.3,2.9,9.8,5s4.4,4.8,5.6,7.7s1.7,6.3,1.7,9.6
	c0,2.7-0.4,5.2-1,7.5c-0.6,2.3-1.7,4.6-3.1,6.7c-1.3,2.1-2.9,3.8-5,5.4c-2.1,1.7-4.2,2.9-6.9,4c1.3,0.6,2.3,1.5,3.3,2.3
	c1,0.8,2.1,2.1,2.9,3.3l16.9,28.7H83.1c-3.1,0-5.2-1.3-6.7-3.6L63.2,472c-0.6-1-1.3-1.7-2.1-2.3c-0.8-0.4-1.9-0.6-3.3-0.6
	L53.4,469.3L53.4,469.3z M53.4,456.1h7.3c2.5,0,4.6-0.4,6.5-1c1.7-0.6,3.1-1.7,4.4-2.7c1-1.3,1.9-2.5,2.5-4.2c0.4-1.7,0.8-3.3,0.8-5
	c0-3.6-1-6.5-3.3-8.4c-2.3-2.1-5.9-3.1-10.5-3.1h-7.3C53.4,431.8,53.4,456.1,53.4,456.1z"/>
<path class="st0-p" d="M183.4,458.6c0,5.9-1,11.5-2.9,16.5c-1.9,5.2-4.8,9.6-8.4,13.4c-3.6,3.8-7.9,6.7-13,9c-5,2.1-10.7,3.1-16.9,3.1
	c-6.1,0-11.9-1-16.9-3.1s-9.4-5.2-13-9c-3.6-3.8-6.5-8.2-8.4-13.4c-1.9-5-2.9-10.7-2.9-16.5c0-6.1,1-11.5,2.9-16.5
	c1.9-5.2,4.8-9.6,8.4-13.4c3.6-3.8,8-6.7,13-8.8s10.7-3.1,16.9-3.1c6.3,0,11.7,1,16.9,3.1c5,2.1,9.4,5.2,13,9
	c3.6,3.8,6.5,8.2,8.4,13.4C182.3,447.1,183.4,452.7,183.4,458.6z M164.5,458.6c0-4.2-0.4-7.7-1.5-11.1c-1-3.1-2.5-6.1-4.4-8.4
	s-4.2-4-6.9-5.2c-2.7-1.3-5.9-1.9-9.4-1.9s-6.7,0.6-9.4,1.9s-5,2.9-7.1,5.2c-1.9,2.3-3.3,5-4.4,8.4c-1,3.3-1.5,6.9-1.5,11.1
	s0.4,7.7,1.5,11.1c1.1,3.4,2.5,6.1,4.4,8.4c1.9,2.3,4.2,4,7.1,5.2c2.7,1.3,5.9,1.7,9.4,1.7s6.7-0.6,9.4-1.7c2.7-1.3,5-2.9,6.9-5.2
	c1.9-2.3,3.3-5,4.4-8.4C163.9,466.3,164.5,462.8,164.5,458.6z"/>
<path class="st0-p" d="M249.5,417.4v15.1h-22.4v67.4h-18.4v-67.2h-22.4v-15.1C186.3,417.4,249.5,417.4,249.5,417.4z"/>
<path class="st0-p" d="M309.9,417.4V432h-32.6v19.2h24.9v14.2h-24.9v19.7h32.6v14.6h-51v-82.4L309.9,417.4L309.9,417.4z"/>
<path class="st0-p" d="M339.6,499.8H321v-82.4h18.6V499.8z"/>
<path class="st0-p" d="M366.8,417.6c0.6,0,1,0.2,1.5,0.4c0.4,0.2,0.8,0.4,1.3,0.8c0.4,0.4,0.8,0.8,1.3,1.5l37.7,49.4
	c-0.2-1.7-0.2-3.1-0.4-4.6c0-1.5-0.2-2.9-0.2-4.2v-43.5h16.3v82.4H415c-1.5,0-2.5-0.2-3.6-0.6c-1-0.4-1.9-1.3-2.9-2.5L371,447.5
	c0.2,1.5,0.2,2.9,0.2,4.2c0,1.5,0.2,2.7,0.2,3.8v44.4h-16.3v-82.4h9.6C365.6,417.4,366.2,417.4,366.8,417.6z"/>
<path class="st0-p" d="M22.9,539.8c0,4.8-0.8,9-2.3,13.2c-1.5,4-3.6,7.5-6.3,10.7c-2.7,2.9-5.9,5.4-9.8,7.1c-3.8,1.7-7.9,2.5-12.6,2.5
	s-8.8-0.8-12.8-2.5c-3.8-1.7-7.1-4-9.8-7.1c-2.7-2.9-4.8-6.5-6.3-10.7c-1.5-4-2.3-8.4-2.3-13.2c0-4.8,0.8-9.2,2.3-13.2
	s3.6-7.5,6.3-10.7c2.7-2.9,6.1-5.2,9.8-7.1c3.8-1.9,8-2.5,12.8-2.5s8.8,0.8,12.8,2.5c3.8,1.7,7.1,4,9.8,7.1
	c2.7,2.9,4.8,6.5,6.3,10.5C22.1,530.6,22.9,535,22.9,539.8z M8.7,539.8c0-3.1-0.4-6.1-1.3-8.8c-0.8-2.5-1.9-4.8-3.3-6.5
	c-1.5-1.9-3.1-3.1-5.2-4.2c-2.1-1-4.4-1.5-7.1-1.5s-5,0.4-7.1,1.5c-2.1,1-3.8,2.3-5.2,4.2c-1.5,1.9-2.5,4-3.3,6.5s-1.3,5.4-1.3,8.8
	c0,3.3,0.4,6.1,1.3,8.8c0.8,2.5,1.9,4.8,3.3,6.5c1.5,1.9,3.1,3.1,5.2,4.2c2.1,1,4.4,1.5,7.1,1.5s5-0.4,7.1-1.5
	c2.1-0.8,3.8-2.3,5.2-4.2c1.5-1.9,2.5-4,3.3-6.5C8.2,545.8,8.7,542.9,8.7,539.8z"/>
<path class="st0-p" d="M39.8,507.1c0.4,0,0.8,0.2,1,0.4c0.4,0.2,0.6,0.4,0.8,0.6s0.6,0.6,1,1.3l28.2,39.1c0-1.3-0.2-2.5-0.2-3.6
	c0-1,0-2.3,0-3.3v-34.5h12.1v65.3h-7.1c-1,0-1.9-0.2-2.7-0.6c-0.8-0.4-1.5-1-2.1-1.9l-28-38.9c0,1,0.2,2.3,0.2,3.3s0,2.1,0,3.1v34.9
	H31v-65.2h7.3C38.8,507.1,39.4,507.1,39.8,507.1z"/>
<path class="st0-p" d="M163.1,507.1v12h-16.7v53.4h-13.8v-53.4h-16.7v-12H163.1L163.1,507.1z"/>
<path class="st0-p" d="M222.1,572.4h-14v-27.6h-24.3v27.6h-14v-65.3h14v27.2H208v-27.2h14L222.1,572.4L222.1,572.4z"/>
<path class="st0-p" d="M271.9,507.1v11.7h-24.5v15.3H266v11.3h-18.6v15.5h24.5v11.7h-38.3v-65.3h38.3V507.1z"/>
<path class="st0-p" d="M351.2,571.4c-3.3,1-7.1,1.7-10.9,1.7c-5,0-9.4-0.8-13.4-2.5s-7.5-4-10.3-6.9c-2.9-2.9-5-6.5-6.7-10.7
	c-1.5-4-2.3-8.6-2.3-13.2c0-4.8,0.8-9.4,2.3-13.4c1.5-4.2,3.6-7.5,6.3-10.5c2.7-2.9,6.1-5.2,10-6.9c4-1.7,8.2-2.5,13-2.5
	c2.5,0,4.8,0.2,6.9,0.6s4.2,1,6.1,1.9c1.9,0.8,3.6,1.7,5,2.7c1.5,1,2.9,2.3,4,3.6l-4,6.7c-0.6,1-1.5,1.7-2.5,1.9
	c-1,0.2-2.1,0-3.1-0.8c-1-0.6-2.1-1.3-3.1-1.9c-1-0.4-1.9-0.8-2.9-1.3c-1-0.4-2.1-0.6-3.1-0.6c-1-0.2-2.3-0.2-3.8-0.2
	c-2.5,0-5,0.4-6.9,1.5c-2.1,1-3.8,2.3-5.2,4.2s-2.5,4-3.3,6.5s-1.3,5.4-1.3,8.6c0,3.6,0.4,6.5,1.3,9.2c0.8,2.7,2.1,5,3.8,6.7
	c1.7,1.9,3.6,3.3,5.6,4.2c2.3,1,4.6,1.5,7.3,1.5c1.7,0,3.1-0.2,4.6-0.6c1.3-0.4,2.7-0.8,4-1.5v-9.8h-5.9c-0.8,0-1.5-0.2-2.1-0.8
	c-0.4-0.4-0.8-1.3-0.8-1.9v-8.4h21.1v27.6C357.8,568.4,354.5,570.3,351.2,571.4z"/>
<path class="st0-p" d="M428.6,539.8c0,4.8-0.8,9-2.3,13.2c-1.5,4-3.6,7.5-6.3,10.7c-2.7,2.9-5.9,5.4-9.8,7.1c-3.8,1.7-8,2.5-12.8,2.5
	s-8.8-0.8-12.8-2.5c-3.8-1.7-7.1-4-9.8-7.1c-2.7-2.9-4.8-6.5-6.3-10.7c-1.5-4-2.3-8.4-2.3-13.2c0-4.8,0.8-9.2,2.3-13.2
	s3.6-7.5,6.3-10.7c2.7-2.9,6.1-5.2,9.8-7.1c3.8-1.7,8.2-2.5,12.8-2.5c4.6,0,8.8,0.8,12.8,2.5c3.8,1.7,7.1,4,9.8,7.1
	c2.7,2.9,4.8,6.5,6.3,10.5C427.9,530.6,428.6,535,428.6,539.8z M414.5,539.8c0-3.1-0.4-6.1-1.3-8.8c-0.8-2.5-1.9-4.8-3.3-6.5
	c-1.5-1.9-3.1-3.1-5.2-4.2c-2.1-1-4.4-1.5-7.1-1.5s-5,0.4-7.1,1.5c-2.1,1-3.8,2.3-5.2,4.2c-1.5,1.9-2.5,4-3.3,6.5s-1.3,5.4-1.3,8.8
	c0,3.3,0.4,6.1,1.3,8.8c0.8,2.5,1.9,4.8,3.3,6.5c1.5,1.9,3.1,3.1,5.2,4.2c2.1,1,4.4,1.5,7.1,1.5s5-0.4,7.1-1.5
	c2.1-0.8,3.8-2.3,5.2-4.2c1.5-1.9,2.5-4,3.3-6.5C414.1,545.8,414.5,542.9,414.5,539.8z"/>
<g id="XMLID_40_">
</g>
<g id="XMLID_41_">
</g>
<g id="XMLID_42_">
</g>
<g id="XMLID_43_">
</g>
<g id="XMLID_44_">
</g>
<g id="XMLID_45_">
</g>
<g>
	<path class="st0-p" d="M-38.2,625.5v-36h3.1c0.6,0,1.3,0.4,1.5,1l0.4,2.9c0.6-0.6,1-1.3,1.7-1.9c0.6-0.6,1.3-1,1.9-1.5
		c0.6-0.4,1.5-0.6,2.3-0.8c0.8-0.2,1.7-0.4,2.5-0.4c1.5,0,2.7,0.2,4,0.8c1.3,0.6,2.1,1.5,2.9,2.7s1.5,2.5,1.9,4.4
		c0.4,1.7,0.6,3.8,0.6,5.9c0,2.1-0.2,3.8-0.8,5.6c-0.6,1.9-1.3,3.1-2.1,4.4s-2.1,2.3-3.3,2.9c-1.3,0.6-2.9,1-4.6,1
		c-1.5,0-2.7-0.2-3.8-0.8c-1-0.4-1.9-1.3-2.7-2.1v11.5h-5.4v0.4H-38.2z M-26.5,593.7c-1.5,0-2.5,0.4-3.6,0.8c-1,0.6-1.9,1.5-2.7,2.7
		v12.6c0.8,1,1.5,1.7,2.5,2.1c0.8,0.4,1.9,0.6,2.9,0.6c2.1,0,3.8-0.8,4.8-2.5c1.3-1.7,1.7-4,1.7-7.3c0-1.7-0.2-3.1-0.4-4.2
		c-0.2-1.1-0.6-2.1-1-2.9s-1-1.3-1.9-1.7C-24.8,593.7-25.7,593.7-26.5,593.7z"/>
	<path class="st0-p" d="M-10,616.5v-27h3.1c0.6,0,1,0.2,1.3,0.4c0.3,0.2,0.4,0.6,0.4,1l0.2,3.6c0.8-1.7,1.9-3.1,2.9-4
		c1-1,2.5-1.5,4-1.5c0.6,0,1,0,1.5,0.2c0.4,0.2,0.8,0.4,1.3,0.6L4.3,594c0,0.2-0.2,0.4-0.2,0.6s-0.4,0.2-0.6,0.2s-0.6,0-1-0.2
		c-0.4,0-1-0.2-1.5-0.2c-0.8,0-1.5,0.2-2.1,0.4c-0.6,0.2-1,0.6-1.5,1c-0.4,0.4-0.8,1-1.3,1.7c-0.4,0.6-0.6,1.3-1,2.1v16.7L-10,616.5
		L-10,616.5z"/>
	<path class="st0-p" d="M18.5,589.1c1.9,0,3.6,0.4,5,1c1.5,0.6,2.7,1.7,4,2.7c1,1.3,1.9,2.7,2.5,4.4s0.8,3.6,0.8,5.9
		c0,2.1-0.2,4-0.8,5.9c-0.6,1.7-1.5,3.1-2.5,4.4s-2.3,2.1-4,2.7c-1.5,0.6-3.1,1-5,1s-3.6-0.4-5-1c-1.5-0.6-2.7-1.7-4-2.7
		S7.6,610.7,7,609c-0.6-1.7-0.8-3.6-0.8-5.9c0-2.1,0.2-4,0.8-5.9c0.6-1.7,1.5-3.1,2.5-4.4s2.3-2.1,4-2.7
		C14.9,589.5,16.6,589.1,18.5,589.1z M18.5,612.6c2.3,0,4-0.8,5-2.5s1.7-4,1.7-6.9c0-2.9-0.6-5.4-1.7-7.1c-1-1.7-2.9-2.5-5-2.5
		c-2.3,0-4,0.8-5.2,2.5c-1,1.7-1.7,4-1.7,7.1c0,2.9,0.6,5.4,1.7,6.9C14.5,611.7,16.2,612.6,18.5,612.6z"/>
	<path class="st0-p" d="M43.6,616.9c-2.1,0-3.8-0.6-4.8-1.9s-1.7-3.1-1.7-5.2v-15.7h-2.7c-0.2,0-0.6,0-0.8-0.2s-0.4-0.4-0.4-0.8v-2.3
		l4.2-0.6l1.3-7.7c0-0.2,0.2-0.6,0.4-0.6c0.2-0.2,0.4-0.2,0.8-0.2h2.7v8.8h7.1v4.2h-7.1V610c0,1,0.2,1.7,0.6,2.3
		c0.4,0.6,1,0.8,1.9,0.8c0.4,0,0.8,0,1-0.2s0.6-0.2,0.8-0.4c0.2-0.2,0.4-0.2,0.6-0.4c0.2-0.2,0.2-0.2,0.4-0.2s0.6,0.2,0.6,0.6
		l1.7,2.7c-0.8,0.8-1.9,1.5-2.9,1.9C45.9,616.7,44.9,616.9,43.6,616.9z"/>
	<path class="st0-p" d="M64.3,589.1c1.5,0,2.9,0.2,4.4,0.8c1.3,0.6,2.5,1.3,3.3,2.3c1,1,1.7,2.3,2.3,3.8s0.8,3.1,0.8,5.2
		c0,0.8,0,1.5-0.2,1.7s-0.4,0.4-1,0.4H57.6c0,1.5,0.2,2.9,0.6,4c0.4,1,0.8,2.1,1.5,2.7c0.6,0.6,1.5,1.3,2.3,1.7
		c0.8,0.4,1.9,0.6,2.9,0.6s1.9-0.2,2.7-0.4c0.8-0.2,1.5-0.6,2.1-0.8c0.6-0.2,1-0.6,1.5-0.8c0.5-0.2,0.8-0.4,1-0.4
		c0.4,0,0.8,0.2,1,0.6l1.5,2.1c-0.6,0.8-1.3,1.5-2.1,2.1c-0.8,0.6-1.7,1-2.5,1.3c-0.8,0.4-1.9,0.6-2.7,0.8s-1.9,0.2-2.7,0.2
		c-1.7,0-3.3-0.2-4.8-0.8c-1.5-0.6-2.7-1.5-4-2.7c-1-1.3-1.9-2.7-2.5-4.6c-0.6-1.9-0.8-3.8-0.8-6.3c0-1.9,0.2-3.6,0.8-5.2
		c0.6-1.6,1.3-2.9,2.3-4.2c1-1.3,2.3-2.1,3.8-2.9C60.8,589.5,62.4,589.1,64.3,589.1z M64.3,593.3c-1.9,0-3.6,0.6-4.6,1.7
		c-1,1.3-1.9,2.9-2.1,5h12.6c0-1-0.2-1.9-0.4-2.7c-0.2-0.8-0.6-1.5-1-2.1c-0.4-0.6-1-1-1.9-1.5C66,593.3,65.4,593.3,64.3,593.3z"/>
	<path class="st0-p" d="M86.5,581.4c0,0.4,0,1-0.2,1.5s-0.4,0.8-0.8,1.3c-0.4,0.4-0.6,0.6-1.3,0.8c-0.6,0.2-0.8,0.2-1.5,0.2
		c-0.4,0-0.8,0-1.3-0.2c-0.4-0.2-0.8-0.4-1-0.8c-0.4-0.4-0.6-0.8-0.8-1.3c-0.2-0.4-0.2-1-0.2-1.5c0-0.6,0-1,0.2-1.5
		c0.2-0.4,0.4-0.8,0.8-1.3c0.4-0.4,0.6-0.6,1-0.8c0.4-0.2,0.8-0.2,1.3-0.2s1,0,1.5,0.2s0.8,0.4,1.3,0.8c0.5,0.4,0.6,0.8,0.8,1.3
		C86.5,580.3,86.5,581,86.5,581.4z M85.7,589.5v27h-5.4v-27H85.7z"/>
	<path class="st0-p" d="M92.3,616.5v-27h3.1c0.6,0,1.3,0.4,1.5,1l0.4,2.5c0.6-0.6,1-1,1.7-1.7c0.6-0.4,1.3-0.8,1.9-1.3
		c0.6-0.4,1.5-0.6,2.1-0.8c0.8-0.2,1.7-0.2,2.5-0.2c1.5,0,2.7,0.2,3.8,0.8c1,0.6,1.9,1.3,2.7,2.1c0.6,0.8,1.3,1.9,1.7,3.1
		s0.6,2.7,0.6,4.2v17.2h-5.2v-17.2c0-1.9-0.4-3.1-1.3-4.2c-0.8-1-2.1-1.5-3.6-1.5c-1.3,0-2.3,0.2-3.3,0.8s-1.9,1.5-2.9,2.3v19.7
		h-5.7V616.5z"/>
	<path class="st0-p" d="M146.1,585.6v11.1h9.8v4.2h-9.8V612h-4.4v-11.1h-9.8v-4.2h9.8v-11.1H146.1z"/>
	<path class="st0-p" d="M184.6,589.1c1.5,0,2.9,0.2,4.4,0.8c1.3,0.6,2.5,1.3,3.3,2.3c1,1,1.7,2.3,2.3,3.8c0.6,1.5,0.8,3.1,0.8,5.2
		c0,0.8,0,1.5-0.2,1.7s-0.4,0.4-1,0.4h-16.3c0,1.5,0.2,2.9,0.6,4c0.4,1,0.8,2.1,1.5,2.7c0.6,0.6,1.5,1.3,2.3,1.7
		c0.8,0.4,1.9,0.6,2.9,0.6s1.9-0.2,2.7-0.4c0.8-0.2,1.5-0.6,2.1-0.8c0.6-0.2,1-0.6,1.5-0.8c0.4-0.2,0.8-0.4,1-0.4
		c0.4,0,0.8,0.2,1,0.6l1.5,2.1c-0.6,0.8-1.3,1.5-2.1,2.1c-0.8,0.6-1.7,1-2.5,1.3c-0.8,0.4-1.9,0.6-2.7,0.8c-0.8,0.2-1.9,0.2-2.7,0.2
		c-1.7,0-3.3-0.2-4.8-0.8c-1.5-0.6-2.7-1.5-4-2.7c-1-1.3-1.9-2.7-2.5-4.6c-0.6-1.9-0.8-3.8-0.8-6.3c0-1.9,0.2-3.6,0.8-5.2
		c0.6-1.7,1.3-2.9,2.3-4.2c1-1.3,2.3-2.1,3.8-2.9C181.1,589.5,182.7,589.1,184.6,589.1z M184.8,593.3c-1.9,0-3.6,0.6-4.6,1.7
		c-1,1.3-1.9,2.9-2.1,5h12.6c0-1-0.2-1.9-0.4-2.7c-0.2-0.8-0.6-1.5-1-2.1c-0.4-0.6-1-1-1.9-1.5C186.5,593.3,185.7,593.3,184.8,593.3
		z"/>
	<path class="st0-p" d="M206,577.4v39.1h-5.4v-39.1H206z"/>
	<path class="st0-p" d="M223.1,589.1c1.5,0,2.9,0.2,4.4,0.8c1.3,0.6,2.5,1.3,3.3,2.3c1,1,1.7,2.3,2.3,3.8c0.6,1.5,0.8,3.1,0.8,5.2
		c0,0.8,0,1.5-0.2,1.7s-0.4,0.4-1,0.4h-16.3c0,1.5,0.2,2.9,0.6,4c0.4,1,0.8,2.1,1.5,2.7c0.6,0.6,1.5,1.3,2.3,1.7
		c0.8,0.4,1.9,0.6,2.9,0.6s1.9-0.2,2.7-0.4c0.8-0.2,1.5-0.6,2.1-0.8c0.6-0.2,1-0.6,1.5-0.8c0.4-0.2,0.8-0.4,1-0.4
		c0.4,0,0.8,0.2,1,0.6l1.5,2.1c-0.6,0.8-1.3,1.5-2.1,2.1c-0.8,0.6-1.7,1-2.5,1.3c-0.8,0.4-1.9,0.6-2.7,0.8c-0.8,0.2-1.9,0.2-2.7,0.2
		c-1.7,0-3.3-0.2-4.8-0.8c-1.5-0.6-2.7-1.5-4-2.7c-1-1.3-1.9-2.7-2.5-4.6c-0.6-1.9-0.8-3.8-0.8-6.3c0-1.9,0.2-3.6,0.8-5.2
		c0.6-1.7,1.3-2.9,2.3-4.2c1-1.3,2.3-2.1,3.8-2.9C219.6,589.5,221.2,589.1,223.1,589.1z M223.3,593.3c-1.9,0-3.6,0.6-4.6,1.7
		c-1,1.3-1.9,2.9-2.1,5h12.6c0-1-0.2-1.9-0.4-2.7c-0.2-0.8-0.6-1.5-1-2.1c-0.4-0.6-1-1-1.9-1.5C225,593.3,224.2,593.3,223.3,593.3z"
		/>
	<path class="st0-p" d="M256.8,594.8c-0.2,0.2-0.4,0.4-0.4,0.6c-0.2,0.2-0.4,0.2-0.6,0.2s-0.6-0.2-0.8-0.4c-0.2-0.2-0.6-0.4-1-0.6
		s-0.8-0.4-1.5-0.6c-0.6-0.2-1.3-0.4-2.3-0.4c-1.3,0-2.1,0.2-3.1,0.6c-0.8,0.4-1.7,1-2.1,1.9c-0.4,0.8-1,1.9-1.3,2.9
		c-0.2,1-0.4,2.5-0.4,4s0.2,2.9,0.4,4c0.4,1.3,0.8,2.1,1.3,2.9c0.6,0.8,1.3,1.5,2.1,1.9c0.8,0.4,1.9,0.6,2.9,0.6s1.9-0.2,2.5-0.4
		s1.3-0.6,1.7-0.8c0.4-0.4,0.8-0.6,1-0.8s0.6-0.4,1-0.4s0.8,0.2,1,0.6l1.5,2.1c-0.6,0.8-1.3,1.5-2.1,2.1c-0.8,0.6-1.5,1-2.3,1.3
		s-1.7,0.6-2.5,0.8c-0.8,0.2-1.9,0.2-2.7,0.2c-1.7,0-3.1-0.2-4.4-0.8c-1.5-0.6-2.5-1.5-3.6-2.7c-1-1.3-1.9-2.7-2.5-4.4
		c-0.6-1.7-0.8-3.8-0.8-5.9c0-2.1,0.2-3.8,0.8-5.4c0.6-1.7,1.3-3.1,2.3-4.4s2.3-2.1,3.8-2.9c1.5-0.6,3.3-1,5.2-1s3.6,0.4,4.8,1
		c1.5,0.6,2.7,1.5,3.8,2.7L256.8,594.8z"/>
	<path class="st0-p" d="M271,616.9c-2.1,0-3.8-0.6-4.8-1.9s-1.7-3.1-1.7-5.2v-15.7h-2.7c-0.2,0-0.6,0-0.8-0.2
		c-0.2-0.2-0.4-0.4-0.4-0.8v-2.3l4.2-0.6l1.3-7.7c0-0.2,0.2-0.6,0.4-0.6c0.2-0.2,0.4-0.2,0.8-0.2h2.7v8.8h7.1v4.2H270V610
		c0,1,0.2,1.7,0.6,2.3s1,0.8,1.9,0.8c0.4,0,0.8,0,1-0.2s0.6-0.2,0.8-0.4c0.2-0.2,0.4-0.2,0.6-0.4s0.2-0.2,0.4-0.2
		c0.2,0,0.6,0.2,0.6,0.6l1.7,2.7c-0.8,0.8-1.9,1.5-2.9,1.9C273.3,616.7,272.3,616.9,271,616.9z"/>
	<path class="st0-p" d="M281.1,616.5v-27h3.1c0.6,0,1,0.2,1.3,0.4c0.3,0.2,0.4,0.6,0.4,1l0.2,3.6c0.8-1.7,1.9-3.1,2.9-4
		c1-1,2.5-1.5,4-1.5c0.6,0,1,0,1.5,0.2c0.4,0.2,0.8,0.4,1.3,0.6l-0.4,4.2c0,0.2-0.2,0.4-0.2,0.6s-0.4,0.2-0.6,0.2s-0.6,0-1-0.2
		c-0.4,0-1-0.2-1.5-0.2c-0.8,0-1.5,0.2-2.1,0.4c-0.6,0.2-1,0.6-1.5,1c-0.4,0.4-0.8,1-1.3,1.7c-0.4,0.6-0.6,1.3-1,2.1v16.7
		L281.1,616.5L281.1,616.5z"/>
	<path class="st0-p" d="M309.5,589.1c1.9,0,3.6,0.4,5,1c1.5,0.6,2.7,1.7,4,2.7s1.9,2.7,2.5,4.4s0.8,3.6,0.8,5.9c0,2.1-0.2,4-0.8,5.9
		c-0.6,1.7-1.5,3.1-2.5,4.4s-2.3,2.1-4,2.7c-1.5,0.6-3.1,1-5,1s-3.6-0.4-5-1c-1.5-0.6-2.7-1.7-4-2.7c-1-1.3-1.9-2.7-2.5-4.4
		c-0.6-1.7-0.8-3.6-0.8-5.9c0-2.1,0.2-4,0.8-5.9c0.6-1.7,1.5-3.1,2.5-4.4s2.3-2.1,4-2.7C306,589.5,307.6,589.1,309.5,589.1z
		 M309.5,612.6c2.3,0,4-0.8,5-2.5s1.7-4,1.7-6.9c0-2.9-0.6-5.4-1.7-7.1c-1-1.7-2.9-2.5-5-2.5c-2.3,0-4,0.8-5.2,2.5
		c-1,1.7-1.7,4-1.7,7.1c0,2.9,0.6,5.4,1.7,6.9C305.5,611.7,307.2,612.6,309.5,612.6z"/>
	<path class="st0-p" d="M332.3,577.4v39.1h-5.2v-39.1H332.3z"/>
	<path class="st0-p" d="M347.6,624.3c-0.2,0.4-0.4,0.6-0.6,1c-0.2,0.4-0.6,0.4-1.3,0.4h-4l4.6-10.9l-10.5-25.1h4.6
		c0.4,0,0.8,0.2,1,0.4c0.2,0.2,0.4,0.4,0.6,0.8l6.1,15.3c0.2,0.8,0.6,1.7,0.8,2.7c0.2-0.4,0.2-0.8,0.4-1.3c0.2-0.4,0.2-0.8,0.4-1.3
		l5.9-15.3c0.2-0.4,0.2-0.6,0.6-0.8c0.2-0.2,0.6-0.4,0.8-0.4h4.2L347.6,624.3z"/>
	<path class="st0-p" d="M373.1,616.9c-2.1,0-3.8-0.6-4.8-1.9s-1.7-3.1-1.7-5.2v-15.7h-2.7c-0.2,0-0.6,0-0.8-0.2s-0.4-0.4-0.4-0.8v-2.3
		l4.2-0.6l1.3-7.7c0-0.2,0.2-0.6,0.4-0.6c0.2-0.2,0.4-0.2,0.8-0.2h2.7v8.8h7.1v4.2h-7.1V610c0,1,0.2,1.7,0.6,2.3
		c0.4,0.6,1,0.8,1.9,0.8c0.4,0,0.8,0,1-0.2s0.6-0.2,0.8-0.4c0.2-0.2,0.4-0.2,0.6-0.4c0.2-0.2,0.2-0.2,0.4-0.2c0.2,0,0.6,0.2,0.6,0.6
		l1.7,2.7c-0.8,0.8-1.9,1.5-2.9,1.9C375.6,616.7,374.4,616.9,373.1,616.9z"/>
	<path class="st0-p" d="M393.8,589.1c1.5,0,2.9,0.2,4.4,0.8c1.3,0.6,2.5,1.3,3.3,2.3c1,1,1.7,2.3,2.3,3.8c0.6,1.5,0.8,3.1,0.8,5.2
		c0,0.8,0,1.5-0.2,1.7s-0.4,0.4-1,0.4h-16.3c0,1.5,0.2,2.9,0.6,4c0.4,1,0.8,2.1,1.5,2.7c0.6,0.6,1.5,1.3,2.3,1.7
		c0.8,0.4,1.9,0.6,2.9,0.6s1.9-0.2,2.7-0.4c0.8-0.2,1.5-0.6,2.1-0.8c0.6-0.2,1-0.6,1.5-0.8c0.4-0.2,0.8-0.4,1-0.4
		c0.4,0,0.8,0.2,1,0.6l1.5,2.1c-0.6,0.8-1.3,1.5-2.1,2.1c-0.8,0.6-1.7,1-2.5,1.3c-0.8,0.4-1.9,0.6-2.7,0.8c-0.8,0.2-1.9,0.2-2.7,0.2
		c-1.7,0-3.3-0.2-4.8-0.8c-1.5-0.6-2.7-1.5-4-2.7c-1-1.3-1.9-2.7-2.5-4.6c-0.6-1.9-0.8-3.8-0.8-6.3c0-1.9,0.2-3.6,0.8-5.2
		c0.6-1.6,1.3-2.9,2.3-4.2c1-1.3,2.3-2.1,3.8-2.9C390.3,589.5,392,589.1,393.8,589.1z M394,593.3c-1.9,0-3.6,0.6-4.6,1.7
		c-1,1.3-1.9,2.9-2.1,5h12.6c0-1-0.2-1.9-0.4-2.7c-0.2-0.8-0.6-1.5-1-2.1c-0.4-0.6-1-1-1.9-1.5C395.7,593.3,394.9,593.3,394,593.3z"
		/>
	<path class="st0-p" d="M424.8,594.3c-0.2,0.2-0.2,0.4-0.4,0.6c-0.2,0-0.4,0.2-0.6,0.2s-0.6,0-0.8-0.2c-0.4-0.2-0.6-0.4-1.3-0.6
		c-0.4-0.2-1-0.4-1.7-0.6c-0.6-0.2-1.3-0.2-2.1-0.2c-0.6,0-1.3,0-1.9,0.2s-1,0.4-1.5,0.6c-0.4,0.2-0.6,0.6-0.8,1
		c-0.2,0.4-0.2,0.8-0.2,1.3c0,0.6,0.2,1.3,0.6,1.7s0.8,0.8,1.5,1c0.6,0.2,1.3,0.6,2.1,0.8c0.8,0.2,1.5,0.4,2.3,0.8
		c0.8,0.4,1.7,0.6,2.3,1c0.8,0.4,1.5,0.8,2.1,1.5c0.6,0.6,1,1.3,1.5,1.9c0.4,0.8,0.6,1.7,0.6,2.7c0,1.3-0.2,2.5-0.6,3.6
		c-0.4,1-1,2.1-1.9,2.7c-0.8,0.8-1.9,1.5-3.1,1.9c-1.3,0.4-2.7,0.6-4.2,0.6c-0.8,0-1.7,0-2.5-0.2s-1.7-0.4-2.3-0.6
		c-0.8-0.2-1.5-0.6-2.1-1c-0.6-0.4-1.3-0.8-1.7-1.3l1.3-2.1c0.2-0.2,0.4-0.4,0.6-0.6s0.4-0.2,0.8-0.2s0.6,0.2,1,0.4
		c0.4,0.2,0.8,0.4,1.3,0.8c0.4,0.2,1,0.6,1.7,0.8c0.7,0.2,1.5,0.4,2.5,0.4c0.8,0,1.5,0,2.1-0.2s1-0.4,1.5-0.8
		c0.4-0.4,0.6-0.8,0.8-1.3c0.2-0.4,0.2-0.8,0.2-1.5c0-0.6-0.2-1.3-0.6-1.7s-0.8-0.8-1.5-1c-0.6-0.4-1.3-0.6-2.1-0.8
		c-0.8-0.2-1.5-0.4-2.3-0.8c-0.8-0.4-1.7-0.6-2.3-1c-0.6-0.4-1.5-0.8-2.1-1.5c-0.6-0.6-1-1.3-1.5-2.1c-0.4-0.8-0.6-1.9-0.6-2.9
		s0.2-2.1,0.6-3.1s1-1.9,1.9-2.5c0.8-0.8,1.7-1.3,2.9-1.7c1.3-0.4,2.5-0.6,4-0.6c1.7,0,3.3,0.2,4.6,0.8c1.5,0.6,2.5,1.5,3.6,2.3
		L424.8,594.3z"/>
</g>
</svg>
