<?xml version="1.0" encoding="utf-8"?>
<!-- Generator: Adobe Illustrator 19.0.0, SVG Export Plug-In . SVG Version: 6.00 Build 0)  -->
<svg version="1.1" id="Layer_1" xmlns="http://www.w3.org/2000/svg" xmlns:xlink="http://www.w3.org/1999/xlink" x="0px" y="0px"
	 viewBox="-193 345.1 223.5 102.9" style="enable-background:new -193 345.1 223.5 102.9;" xml:space="preserve">
<style type="text/css">
	.st0{fill:url(#SVGID_1_);}
	.st1{fill:url(#SVGID_2_);}
	.st2{fill:url(#SVGID_3_);}
	.st3{fill:url(#SVGID_4_);}
	.st4{fill:url(#SVGID_5_);}
	.st5{fill:url(#SVGID_6_);}
	.st6{fill:url(#SVGID_7_);}
	.st7{fill:url(#SVGID_8_);}
	.st8{fill:url(#SVGID_9_);}
	.st9{fill:url(#XMLID_3_);}
	.st10{fill:url(#SVGID_10_);}
	.st11{fill:url(#SVGID_11_);}
	.st12{fill:url(#SVGID_12_);}
	.st13{fill:url(#SVGID_13_);}
	.st14{fill:url(#SVGID_14_);}
	.st15{fill:url(#SVGID_15_);}
	.st16{fill:url(#SVGID_16_);}
	.st17{fill:url(#SVGID_17_);}
	.st18{fill:url(#SVGID_18_);}
	.st19{fill:url(#SVGID_19_);}
	.st20{fill:url(#SVGID_20_);}
	.st21{fill:url(#SVGID_21_);}
	.st22{fill:url(#SVGID_22_);}
	.st23{fill:url(#SVGID_23_);}
</style>
<linearGradient id="SVGID_1_" gradientUnits="userSpaceOnUse" x1="-124.945" y1="359.35" x2="-124.945" y2="365.11" gradientTransform="matrix(1 0 0 -1 0 794.22)">
	<stop  offset="0" style="stop-color:#3C71A1"/>
	<stop  offset="0.4345" style="stop-color:#619BC7"/>
	<stop  offset="0.7915" style="stop-color:#79B6E0"/>
	<stop  offset="1" style="stop-color:#82C0E9"/>
</linearGradient>
<path class="st0" d="M-130.7,429.1h11.5v5.8h-11.5V429.1z"/>
<linearGradient id="SVGID_2_" gradientUnits="userSpaceOnUse" x1="-36.605" y1="359.35" x2="-36.605" y2="365.11" gradientTransform="matrix(1 0 0 -1 0 794.22)">
	<stop  offset="0" style="stop-color:#3C71A1"/>
	<stop  offset="0.4345" style="stop-color:#619BC7"/>
	<stop  offset="0.7915" style="stop-color:#79B6E0"/>
	<stop  offset="1" style="stop-color:#82C0E9"/>
</linearGradient>
<path class="st1" d="M-42.4,429.1h11.5v5.8h-11.5V429.1z"/>
<g>
	
		<linearGradient id="SVGID_3_" gradientUnits="userSpaceOnUse" x1="-183.895" y1="426.15" x2="-183.895" y2="442.77" gradientTransform="matrix(1 0 0 -1 0 794.22)">
		<stop  offset="0" style="stop-color:#3C71A1"/>
		<stop  offset="0.4345" style="stop-color:#619BC7"/>
		<stop  offset="0.7915" style="stop-color:#79B6E0"/>
		<stop  offset="1" style="stop-color:#82C0E9"/>
	</linearGradient>
	<path class="st2" d="M-187,351.5c0.1,0,0.1,0,0.2,0.1c0.1,0,0.1,0.1,0.2,0.1c0,0.1,0.1,0.1,0.1,0.2l5.7,11.3c0-0.2,0-0.4,0-0.6
		c0-0.2,0-0.4,0.1-0.6l1.1-10.6h2.3l-1.8,16.6h-1.3c-0.2,0-0.4,0-0.5-0.1c-0.1-0.1-0.3-0.2-0.4-0.4l-5.6-11.3c0,0.2,0,0.4,0,0.5
		c0,0.2,0,0.3,0,0.5l-1.1,10.8h-2.3l1.8-16.6h1.4C-187.2,351.5-187.1,351.5-187,351.5z"/>
	
		<linearGradient id="SVGID_4_" gradientUnits="userSpaceOnUse" x1="-171.29" y1="426.16" x2="-171.29" y2="442.78" gradientTransform="matrix(1 0 0 -1 0 794.22)">
		<stop  offset="0" style="stop-color:#3C71A1"/>
		<stop  offset="0.4345" style="stop-color:#619BC7"/>
		<stop  offset="0.7915" style="stop-color:#79B6E0"/>
		<stop  offset="1" style="stop-color:#82C0E9"/>
	</linearGradient>
	<path class="st3" d="M-164.7,368h-2c-0.2,0-0.4-0.1-0.6-0.2s-0.2-0.3-0.2-0.5l-0.6-3.5h-5.4l-1.4,3.5c-0.1,0.2-0.2,0.3-0.4,0.5
		c-0.2,0.1-0.4,0.2-0.6,0.2l-2.1,0l7-16.6h2.7L-164.7,368z M-172.7,361.8h4.2l-1-5.7c0-0.3-0.1-0.6-0.2-0.9c-0.1-0.3-0.1-0.6-0.2-1
		c-0.1,0.4-0.2,0.7-0.4,1.1c-0.1,0.3-0.2,0.6-0.4,0.9L-172.7,361.8z"/>
	
		<linearGradient id="SVGID_5_" gradientUnits="userSpaceOnUse" x1="-159.145" y1="426.19" x2="-159.145" y2="442.8" gradientTransform="matrix(1 0 0 -1 0 794.22)">
		<stop  offset="0" style="stop-color:#3C71A1"/>
		<stop  offset="0.4345" style="stop-color:#619BC7"/>
		<stop  offset="0.7915" style="stop-color:#79B6E0"/>
		<stop  offset="1" style="stop-color:#82C0E9"/>
	</linearGradient>
	<path class="st4" d="M-153.7,351.4l-0.3,2.4l-4,0l-1.5,14.2h-2.6l1.5-14.2l-4,0l0.3-2.4L-153.7,351.4z"/>
	
		<linearGradient id="SVGID_6_" gradientUnits="userSpaceOnUse" x1="-147.305" y1="426.02" x2="-147.305" y2="442.82" gradientTransform="matrix(1 0 0 -1 0 794.22)">
		<stop  offset="0" style="stop-color:#3C71A1"/>
		<stop  offset="0.4345" style="stop-color:#619BC7"/>
		<stop  offset="0.7915" style="stop-color:#79B6E0"/>
		<stop  offset="1" style="stop-color:#82C0E9"/>
	</linearGradient>
	<path class="st5" d="M-148.3,365.6c0.5,0,0.9-0.1,1.3-0.3c0.4-0.2,0.7-0.5,1-0.9c0.3-0.4,0.5-0.8,0.7-1.3c0.2-0.5,0.3-1.1,0.4-1.7
		l1.1-10h2.6l-1.1,10c-0.1,1-0.3,1.9-0.7,2.7c-0.3,0.8-0.8,1.6-1.3,2.2c-0.6,0.6-1.2,1.1-1.9,1.4c-0.7,0.3-1.5,0.5-2.4,0.5
		c-0.8,0-1.5-0.1-2.1-0.4c-0.6-0.3-1.1-0.7-1.5-1.2c-0.4-0.5-0.7-1.1-1-1.8c-0.2-0.7-0.3-1.5-0.3-2.3c0-0.3,0-0.7,0.1-1.1l1.1-10
		l2.6,0l-1.1,10c0,0.1,0,0.3,0,0.4c0,0.1,0,0.3,0,0.4c0,0.5,0.1,1,0.2,1.4c0.1,0.4,0.3,0.8,0.5,1.1c0.2,0.3,0.5,0.5,0.8,0.7
		C-149.1,365.5-148.7,365.6-148.3,365.6z"/>
	
		<linearGradient id="SVGID_7_" gradientUnits="userSpaceOnUse" x1="-135.07" y1="426.2" x2="-135.07" y2="442.82" gradientTransform="matrix(1 0 0 -1 0 794.22)">
		<stop  offset="0" style="stop-color:#3C71A1"/>
		<stop  offset="0.4345" style="stop-color:#619BC7"/>
		<stop  offset="0.7915" style="stop-color:#79B6E0"/>
		<stop  offset="1" style="stop-color:#82C0E9"/>
	</linearGradient>
	<path class="st6" d="M-137.1,361.5l-0.7,6.5l-2.6,0l1.8-16.6h4.1c0.8,0,1.6,0.1,2.2,0.3c0.6,0.2,1.1,0.5,1.5,0.9
		c0.4,0.4,0.7,0.8,0.9,1.3c0.2,0.5,0.3,1.1,0.3,1.7c0,0.6-0.1,1.2-0.2,1.8c-0.2,0.6-0.4,1.1-0.7,1.5c-0.3,0.5-0.7,0.9-1.1,1.2
		s-0.9,0.6-1.5,0.8c0.1,0.1,0.3,0.2,0.4,0.4c0.1,0.2,0.2,0.3,0.3,0.6l2.6,6.2h-2.3c-0.2,0-0.4-0.1-0.6-0.2c-0.2-0.1-0.3-0.2-0.3-0.4
		l-2.1-5.4c-0.1-0.2-0.2-0.3-0.3-0.4c-0.1-0.1-0.3-0.1-0.6-0.1L-137.1,361.5L-137.1,361.5z M-136.3,353.7l-0.6,5.6h1.5
		c0.5,0,1-0.1,1.4-0.3c0.4-0.2,0.7-0.4,0.9-0.7c0.2-0.3,0.4-0.7,0.6-1.1c0.1-0.4,0.2-0.8,0.2-1.3c0-0.7-0.2-1.3-0.6-1.7
		c-0.4-0.4-1-0.6-1.8-0.6L-136.3,353.7z"/>
	
		<linearGradient id="SVGID_8_" gradientUnits="userSpaceOnUse" x1="-123.12" y1="426.23" x2="-123.12" y2="442.85" gradientTransform="matrix(1 0 0 -1 0 794.22)">
		<stop  offset="0" style="stop-color:#3C71A1"/>
		<stop  offset="0.4345" style="stop-color:#619BC7"/>
		<stop  offset="0.7915" style="stop-color:#79B6E0"/>
		<stop  offset="1" style="stop-color:#82C0E9"/>
	</linearGradient>
	<path class="st7" d="M-116.5,368l-2,0c-0.2,0-0.4-0.1-0.6-0.2c-0.1-0.1-0.2-0.3-0.2-0.5l-0.6-3.5h-5.4l-1.3,3.5
		c-0.1,0.2-0.2,0.3-0.4,0.5c-0.2,0.1-0.4,0.2-0.6,0.2h-2.1l7-16.6l2.7,0L-116.5,368z M-124.6,361.7l4.2,0l-1-5.7
		c-0.1-0.3-0.1-0.6-0.2-0.9c-0.1-0.3-0.1-0.6-0.2-1c-0.1,0.4-0.2,0.7-0.4,1.1c-0.1,0.3-0.2,0.6-0.3,0.9L-124.6,361.7z"/>
	
		<linearGradient id="SVGID_9_" gradientUnits="userSpaceOnUse" x1="-111.27" y1="426.23" x2="-111.27" y2="442.84" gradientTransform="matrix(1 0 0 -1 0 794.22)">
		<stop  offset="0" style="stop-color:#3C71A1"/>
		<stop  offset="0.4345" style="stop-color:#619BC7"/>
		<stop  offset="0.7915" style="stop-color:#79B6E0"/>
		<stop  offset="1" style="stop-color:#82C0E9"/>
	</linearGradient>
	<path class="st8" d="M-112.5,365.5h5.3l-0.2,2.5l-7.9,0l1.8-16.6l2.6,0L-112.5,365.5z"/>
</g>
<linearGradient id="XMLID_3_" gradientUnits="userSpaceOnUse" x1="-95.9746" y1="422.24" x2="-95.9746" y2="449.1467" gradientTransform="matrix(1 0 0 -1 0 794.22)">
	<stop  offset="0" style="stop-color:#3C71A1"/>
	<stop  offset="0.4345" style="stop-color:#619BC7"/>
	<stop  offset="0.7915" style="stop-color:#79B6E0"/>
	<stop  offset="1" style="stop-color:#82C0E9"/>
</linearGradient>
<path id="XMLID_1_" class="st9" d="M-103.8,372L-103.8,372c-0.3-0.1-0.5-0.3-0.7-0.5c-0.1-0.1-0.2-0.3-0.2-0.5l0-0.1l-0.1,0v-0.4
	l0.1-0.1h0c0.1-0.3,0.3-0.6,0.4-0.9c0.4-0.8,0.9-1.6,1.5-2.4c0.4-0.6,0.9-1.2,1.4-1.7c0.2-0.2,0.6-0.6,0.6-0.6l-0.5-0.6
	c-0.2-0.2-0.4-0.5-0.6-0.7c-0.3-0.5-0.6-1.1-0.7-1.8c-0.1-0.6-0.2-1.2-0.1-1.8c0.1-1.4,0.6-2.6,1.4-3.7c0.2-0.3,0.5-0.6,0.8-0.9
	c0.7-0.6,1.4-1.1,2.2-1.6c0.6-0.4,1.3-0.8,2.1-1.3l2.1-1.2c0.8-0.4,1.4-0.9,2.1-1.3c0.6-0.4,1.2-0.8,1.6-1.2
	c0.5-0.4,0.9-0.9,1.4-1.4c0.4-0.5,0.8-1,1.1-1.5l0.1-0.1c0.1-0.1,0.1-0.2,0.1-0.2c0.1-0.1,0.1-0.2,0.2-0.2l0.1-0.1
	c0,0,0.1-0.1,0.3,0s0.2,0.2,0.2,0.2s0.1,0.3,0.1,0.4c0,0.2,0,0.4-0.1,0.6l-0.1,0.6c0,0.2,0,0.4-0.1,0.5c0,0-0.3,2.8-0.3,3.1
	l-0.1,0.5c0,0.2,0,0.5-0.1,0.7c0,0.1,0,0.3,0,0.5l-0.3,2.6c0,0.2,0,0.3,0,0.5l-0.2,1.8c0,0.2-0.1,0.8-0.1,0.8
	c-0.1,0.4-0.1,0.8-0.2,1.2c-0.2,0.7-0.3,1.4-0.5,2c-0.3,0.7-0.6,1.4-0.9,2c-0.3,0.5-0.7,0.9-1,1.3c-0.5,0.4-1,0.8-1.6,1.1
	c-0.4,0.2-0.9,0.4-1.4,0.5c-0.4,0.1-0.7,0.1-1,0.2s-0.7,0.1-1,0.1c-0.2,0-0.4,0-0.6,0c-0.2,0-0.3,0-0.5,0c-0.2,0-0.9-0.1-0.9-0.1
	s-0.4-0.1-0.5-0.1l-0.7-0.1l-0.8-0.2c-0.2,0.2-0.3,0.4-0.4,0.6c-0.3,0.4-0.5,0.9-0.8,1.4c-0.4,0.9-0.8,1.9-1.2,3.1
	c-0.1,0.3-0.2,0.6-0.3,0.8c0,0.1-0.1,0.2-0.3,0.3c-0.2,0.1-0.3,0.2-0.5,0.2l-0.1,0L-103.8,372L-103.8,372z M-101.6,366.8
	c-0.4,0.5-0.8,1-1.2,1.6c-0.5,0.7-0.8,1.3-1.1,1.9c0,0.1-0.1,0.2-0.1,0.2l-0.1,0.2c0,0,0.1,0.1,0.2,0.2c0.1,0.1,0.2,0.2,0.3,0.2l0,0
	c0.1,0,0.2,0,0.3-0.1l0-0.1c0.1-0.3,0.2-0.5,0.3-0.8c0.4-1.1,0.8-2.1,1.2-3C-101.7,367-101.7,366.9-101.6,366.8z M-99.7,364.7
	c0.4,0.1,0.8,0.1,1.2,0.2c0.4,0.1,0.8,0.1,1.2,0.1c0.3,0,0.7,0.1,1,0.1c0.1,0,0.2,0,0.3,0c0.3,0,0.6,0,0.8,0c0.3,0,0.7-0.1,1-0.1
	c0.5-0.1,0.9-0.2,1.3-0.4c0.5-0.2,1-0.5,1.4-0.9c0.3-0.3,0.6-0.7,0.9-1.1c0.1-0.1,0.1-0.2,0.2-0.3l-8,0.3c-0.2,0.4-0.4,0.7-0.6,1.1
	C-99.3,364-99.5,364.3-99.7,364.7z M-100.9,356.7c-0.3,0.4-0.5,0.8-0.7,1.2c-0.3,0.7-0.5,1.5-0.5,2.4c0,0.5,0,0.9,0.1,1.3
	c0.1,0.5,0.3,1,0.5,1.4c0.2,0.3,0.4,0.5,0.6,0.8c0.1,0.1,0.5,0.6,0.5,0.6c0,0,0.2-0.4,0.3-0.5l0.5-0.9l0.4-0.8L-100.9,356.7z
	 M-96.2,359c-0.2,0.3-0.5,0.6-0.7,0.9c-0.3,0.4-0.5,0.9-0.8,1.3c-0.1,0.2-0.2,0.3-0.3,0.5c0,0,6.4-0.2,6.7-0.2c0.2,0,1.2,0,1.2,0
	c0.4-0.9,0.6-1.8,0.8-2.9L-96.2,359z M-100.2,356c0.2,0.7,1.2,3.9,1.6,5.1l0.3-0.6c0.4-0.7,0.8-1.4,1.3-2l0.1-0.1l-1-4.2
	C-98.8,354.8-99.6,355.4-100.2,356z M-93.5,355.7L-93.5,355.7l-0.3,0.4c-0.4,0.5-0.8,1-1.3,1.4c-0.2,0.2-0.3,0.4-0.4,0.5l6.5-0.5
	l0-0.2c0-0.2,0.1-0.5,0.1-0.7c0-0.2,0.1-1.5,0.1-1.5C-88.8,355.2-93.2,355.7-93.5,355.7z M-96.3,357.7c0.3-0.4,0.6-0.8,1-1.1
	c0.4-0.5,0.8-0.9,1.2-1.4l-0.1-0.8l-0.3-2.2c-0.3,0.2-1.6,0.9-1.6,0.9c-0.3,0.2-0.7,0.4-1,0.6l-0.1,0.1
	C-97,354.6-96.3,357.7-96.3,357.7z M-90.6,352.9c-0.1,0-0.3,0.1-0.4,0.1c-0.4,0.5-0.9,1.1-1.4,1.6l-0.2,0.2c0,0,3.4-0.4,3.6-0.4
	c0.1,0,0.2,0,0.3,0c0-0.4,0.1-1.3,0.2-1.8L-90.6,352.9z M-93.7,351.8c0.1,0.5,0.1,1.1,0.2,1.6l0.1,0.9c0.2-0.2,0.3-0.4,0.5-0.5
	c0.4-0.5,0.8-0.9,1.2-1.4l-0.3-1.7l-0.3,0.2C-92.7,351.3-93.2,351.6-93.7,351.8z M-88.1,348.5c-0.1,0.3-0.2,0.6-0.3,0.8
	c-0.4,0.8-1,1.6-1.6,2.4c-0.1,0.1-0.2,0.2-0.3,0.4l1.9-0.3L-88.1,348.5z M-91,351.6c0.3-0.4,0.6-0.8,0.9-1.2
	c0.5-0.8,0.9-1.5,1.3-2.2c-0.1,0.1-0.1,0.1-0.1,0.1c-0.3,0.4-0.7,0.7-1.1,1s-0.8,0.6-1.2,0.9C-91.2,350.3-91,351.6-91,351.6z"/>
<linearGradient id="SVGID_10_" gradientUnits="userSpaceOnUse" x1="-176.38" y1="381.23" x2="-176.38" y2="420.59" gradientTransform="matrix(1 0 0 -1 0 794.22)">
	<stop  offset="0" style="stop-color:#3C71A1"/>
	<stop  offset="0.4345" style="stop-color:#619BC7"/>
	<stop  offset="0.7915" style="stop-color:#79B6E0"/>
	<stop  offset="1" style="stop-color:#82C0E9"/>
</linearGradient>
<path class="st10" d="M-181.9,399.8V413h-8.8v-39.4h13.4c2.7,0,5,0.3,6.9,1c1.9,0.7,3.5,1.6,4.7,2.7c1.2,1.1,2.2,2.5,2.8,4.1
	c0.6,1.6,0.9,3.3,0.9,5.1c0,2-0.3,3.8-0.9,5.4c-0.6,1.6-1.5,3-2.8,4.2c-1.2,1.2-2.8,2.1-4.8,2.7c-1.9,0.7-4.2,1-6.8,1L-181.9,399.8
	L-181.9,399.8z M-181.9,392.9h4.6c2.3,0,3.9-0.6,4.9-1.7c1-1.1,1.5-2.7,1.5-4.8c0-0.9-0.1-1.7-0.4-2.5c-0.3-0.7-0.7-1.4-1.2-1.9
	c-0.5-0.5-1.2-0.9-2-1.2s-1.8-0.4-2.9-0.4h-4.6V392.9z"/>
<linearGradient id="SVGID_11_" gradientUnits="userSpaceOnUse" x1="-142.035" y1="381.21" x2="-142.035" y2="420.59" gradientTransform="matrix(1 0 0 -1 0 794.22)">
	<stop  offset="0" style="stop-color:#3C71A1"/>
	<stop  offset="0.4345" style="stop-color:#619BC7"/>
	<stop  offset="0.7915" style="stop-color:#79B6E0"/>
	<stop  offset="1" style="stop-color:#82C0E9"/>
</linearGradient>
<path class="st11" d="M-148.8,398.4V413h-8.8v-39.4h12.4c2.8,0,5.1,0.3,7,0.9c1.9,0.6,3.5,1.4,4.7,2.5c1.2,1,2.1,2.3,2.7,3.7
	c0.6,1.4,0.8,3,0.8,4.7c0,1.3-0.2,2.5-0.5,3.6c-0.3,1.1-0.8,2.2-1.5,3.1c-0.6,1-1.4,1.8-2.4,2.6c-1,0.8-2,1.4-3.3,1.9
	c0.6,0.3,1.1,0.7,1.6,1.1c0.5,0.5,1,1,1.4,1.6l8.1,13.7h-8c-1.5,0-2.5-0.6-3.2-1.7l-6.3-11.4c-0.3-0.5-0.6-0.8-1-1.1
	c-0.4-0.2-0.9-0.3-1.6-0.3L-148.8,398.4L-148.8,398.4z M-148.8,392.1h3.5c1.2,0,2.2-0.2,3.1-0.5c0.8-0.3,1.5-0.8,2.1-1.3
	c0.5-0.6,0.9-1.2,1.2-2c0.2-0.8,0.4-1.6,0.4-2.4c0-1.7-0.5-3.1-1.6-4c-1.1-1-2.8-1.5-5-1.5h-3.5
	C-148.8,380.5-148.8,392.1-148.8,392.1z"/>
<linearGradient id="SVGID_12_" gradientUnits="userSpaceOnUse" x1="-106.435" y1="380.79" x2="-106.435" y2="421.02" gradientTransform="matrix(1 0 0 -1 0 794.22)">
	<stop  offset="0" style="stop-color:#3C71A1"/>
	<stop  offset="0.4345" style="stop-color:#619BC7"/>
	<stop  offset="0.7915" style="stop-color:#79B6E0"/>
	<stop  offset="1" style="stop-color:#82C0E9"/>
</linearGradient>
<path class="st12" d="M-86.7,393.3c0,2.8-0.5,5.5-1.4,7.9c-0.9,2.4-2.3,4.6-4,6.4s-3.8,3.2-6.2,4.3c-2.4,1-5.1,1.5-8.1,1.5
	c-2.9,0-5.7-0.5-8.1-1.5s-4.5-2.4-6.2-4.3c-1.7-1.8-3.1-3.9-4-6.4c-0.9-2.5-1.4-5.1-1.4-7.9c0-2.9,0.5-5.5,1.4-7.9s2.3-4.6,4-6.4
	s3.8-3.2,6.2-4.2s5.1-1.5,8.1-1.5s5.6,0.5,8.1,1.6c2.4,1,4.5,2.5,6.2,4.3c1.7,1.8,3.1,3.9,4,6.4C-87.2,387.8-86.7,390.5-86.7,393.3z
	 M-95.7,393.3c0-2-0.2-3.7-0.7-5.3c-0.5-1.5-1.2-2.9-2.1-4c-0.9-1.1-2-1.9-3.3-2.5c-1.3-0.6-2.8-0.9-4.5-0.9c-1.7,0-3.2,0.3-4.5,0.9
	c-1.3,0.6-2.4,1.4-3.4,2.5c-0.9,1.1-1.6,2.4-2.1,4s-0.7,3.3-0.7,5.3c0,2,0.2,3.7,0.7,5.3c0.5,1.6,1.2,2.9,2.1,4
	c0.9,1.1,2,1.9,3.4,2.5c1.3,0.6,2.8,0.9,4.5,0.9c1.7,0,3.2-0.3,4.5-0.9s2.4-1.4,3.3-2.5c0.9-1.1,1.6-2.4,2.1-4
	C-96,397-95.7,395.3-95.7,393.3z"/>
<linearGradient id="SVGID_13_" gradientUnits="userSpaceOnUse" x1="-70.245" y1="381.22" x2="-70.245" y2="420.59" gradientTransform="matrix(1 0 0 -1 0 794.22)">
	<stop  offset="0" style="stop-color:#3C71A1"/>
	<stop  offset="0.4345" style="stop-color:#619BC7"/>
	<stop  offset="0.7915" style="stop-color:#79B6E0"/>
	<stop  offset="1" style="stop-color:#82C0E9"/>
</linearGradient>
<path class="st13" d="M-55.1,373.6v7.2h-10.7V413h-8.8v-32.1h-10.7v-7.2C-85.3,373.6-55.1,373.6-55.1,373.6z"/>
<linearGradient id="SVGID_14_" gradientUnits="userSpaceOnUse" x1="-38.47" y1="381.22" x2="-38.47" y2="420.59" gradientTransform="matrix(1 0 0 -1 0 794.22)">
	<stop  offset="0" style="stop-color:#3C71A1"/>
	<stop  offset="0.4345" style="stop-color:#619BC7"/>
	<stop  offset="0.7915" style="stop-color:#79B6E0"/>
	<stop  offset="1" style="stop-color:#82C0E9"/>
</linearGradient>
<path class="st14" d="M-26.2,373.6v7h-15.6v9.2h11.9v6.8h-11.9v9.4h15.6v7h-24.4v-39.4H-26.2z"/>
<linearGradient id="SVGID_15_" gradientUnits="userSpaceOnUse" x1="-16.4" y1="381.23" x2="-16.4" y2="420.59" gradientTransform="matrix(1 0 0 -1 0 794.22)">
	<stop  offset="0" style="stop-color:#3C71A1"/>
	<stop  offset="0.4345" style="stop-color:#619BC7"/>
	<stop  offset="0.7915" style="stop-color:#79B6E0"/>
	<stop  offset="1" style="stop-color:#82C0E9"/>
</linearGradient>
<path class="st15" d="M-12,413h-8.9v-39.4h8.9V413z"/>
<linearGradient id="SVGID_16_" gradientUnits="userSpaceOnUse" x1="11.96" y1="381.22" x2="11.96" y2="420.59" gradientTransform="matrix(1 0 0 -1 0 794.22)">
	<stop  offset="0" style="stop-color:#3C71A1"/>
	<stop  offset="0.4345" style="stop-color:#619BC7"/>
	<stop  offset="0.7915" style="stop-color:#79B6E0"/>
	<stop  offset="1" style="stop-color:#82C0E9"/>
</linearGradient>
<path class="st16" d="M1,373.7c0.3,0,0.5,0.1,0.7,0.2c0.2,0.1,0.4,0.2,0.6,0.4s0.4,0.4,0.6,0.7l18,23.6c-0.1-0.8-0.1-1.5-0.2-2.2
	c0-0.7-0.1-1.4-0.1-2v-20.8h7.8V413H24c-0.7,0-1.2-0.1-1.7-0.3c-0.5-0.2-0.9-0.6-1.4-1.2L3,388c0.1,0.7,0.1,1.4,0.1,2
	c0,0.7,0.1,1.3,0.1,1.9V413h-7.8v-39.4H0C0.4,373.6,0.7,373.6,1,373.7z"/>
<linearGradient id="SVGID_17_" gradientUnits="userSpaceOnUse" x1="-178.2" y1="346.23" x2="-178.2" y2="378.09" gradientTransform="matrix(1 0 0 -1 0 794.22)">
	<stop  offset="0" style="stop-color:#3C71A1"/>
	<stop  offset="0.4345" style="stop-color:#619BC7"/>
	<stop  offset="0.7915" style="stop-color:#79B6E0"/>
	<stop  offset="1" style="stop-color:#82C0E9"/>
</linearGradient>
<path class="st17" d="M-163.4,432c0,2.3-0.4,4.4-1.1,6.3c-0.7,1.9-1.7,3.6-3,5.1c-1.3,1.4-2.8,2.6-4.7,3.4c-1.8,0.8-3.8,1.2-6,1.2
	s-4.2-0.4-6.1-1.2c-1.8-0.8-3.4-1.9-4.7-3.4c-1.3-1.4-2.3-3.1-3-5.1c-0.7-1.9-1.1-4-1.1-6.3s0.4-4.4,1.1-6.3c0.7-1.9,1.7-3.6,3-5
	c1.3-1.4,2.9-2.6,4.7-3.4s3.8-1.2,6.1-1.2s4.2,0.4,6.1,1.2c1.8,0.8,3.4,2,4.7,3.4c1.3,1.4,2.3,3.1,3,5.1
	C-163.8,427.7-163.4,429.8-163.4,432z M-170.2,432c0-1.5-0.2-2.9-0.6-4.2c-0.4-1.2-0.9-2.3-1.6-3.1c-0.7-0.9-1.5-1.5-2.5-2
	c-1-0.5-2.1-0.7-3.4-0.7c-1.3,0-2.4,0.2-3.4,0.7c-1,0.5-1.8,1.1-2.5,2c-0.7,0.9-1.2,1.9-1.6,3.1c-0.4,1.2-0.6,2.6-0.6,4.2
	c0,1.6,0.2,3,0.6,4.2c0.4,1.2,0.9,2.3,1.6,3.1c0.7,0.9,1.5,1.5,2.5,2c1,0.4,2.1,0.7,3.4,0.7c1.3,0,2.4-0.2,3.4-0.7
	c1-0.5,1.8-1.1,2.5-2c0.7-0.9,1.2-1.9,1.6-3.1C-170.4,435-170.2,433.6-170.2,432z"/>
<linearGradient id="SVGID_18_" gradientUnits="userSpaceOnUse" x1="-147.08" y1="346.55" x2="-147.08" y2="377.75" gradientTransform="matrix(1 0 0 -1 0 794.22)">
	<stop  offset="0" style="stop-color:#3C71A1"/>
	<stop  offset="0.4345" style="stop-color:#619BC7"/>
	<stop  offset="0.7915" style="stop-color:#79B6E0"/>
	<stop  offset="1" style="stop-color:#82C0E9"/>
</linearGradient>
<path class="st18" d="M-155.3,416.5c0.2,0,0.4,0.1,0.5,0.2c0.2,0.1,0.3,0.2,0.4,0.3c0.1,0.1,0.3,0.3,0.5,0.6l13.5,18.7
	c0-0.6-0.1-1.2-0.1-1.7s0-1.1,0-1.6v-16.5h5.8v31.2h-3.4c-0.5,0-0.9-0.1-1.3-0.3c-0.4-0.2-0.7-0.5-1-0.9l-13.4-18.6
	c0,0.5,0.1,1.1,0.1,1.6c0,0.5,0,1,0,1.5v16.7h-5.8v-31.2h3.5C-155.8,416.5-155.5,416.5-155.3,416.5z"/>
<linearGradient id="SVGID_19_" gradientUnits="userSpaceOnUse" x1="-107.75" y1="346.55" x2="-107.75" y2="377.76" gradientTransform="matrix(1 0 0 -1 0 794.22)">
	<stop  offset="0" style="stop-color:#3C71A1"/>
	<stop  offset="0.4345" style="stop-color:#619BC7"/>
	<stop  offset="0.7915" style="stop-color:#79B6E0"/>
	<stop  offset="1" style="stop-color:#82C0E9"/>
</linearGradient>
<path class="st19" d="M-96.4,416.5v5.7h-8v25.5h-6.6v-25.5h-8v-5.7L-96.4,416.5L-96.4,416.5z"/>
<linearGradient id="SVGID_20_" gradientUnits="userSpaceOnUse" x1="-80.655" y1="346.56" x2="-80.655" y2="377.75" gradientTransform="matrix(1 0 0 -1 0 794.22)">
	<stop  offset="0" style="stop-color:#3C71A1"/>
	<stop  offset="0.4345" style="stop-color:#619BC7"/>
	<stop  offset="0.7915" style="stop-color:#79B6E0"/>
	<stop  offset="1" style="stop-color:#82C0E9"/>
</linearGradient>
<path class="st20" d="M-68.2,447.7h-6.7v-13.2h-11.6v13.2h-6.7v-31.2h6.7v13h11.6v-13h6.7V447.7z"/>
<linearGradient id="SVGID_21_" gradientUnits="userSpaceOnUse" x1="-53.54" y1="346.55" x2="-53.54" y2="377.75" gradientTransform="matrix(1 0 0 -1 0 794.22)">
	<stop  offset="0" style="stop-color:#3C71A1"/>
	<stop  offset="0.4345" style="stop-color:#619BC7"/>
	<stop  offset="0.7915" style="stop-color:#79B6E0"/>
	<stop  offset="1" style="stop-color:#82C0E9"/>
</linearGradient>
<path class="st21" d="M-44.4,416.5v5.6h-11.7v7.3h8.9v5.4h-8.9v7.4h11.7v5.6h-18.3v-31.2H-44.4z"/>
<linearGradient id="SVGID_22_" gradientUnits="userSpaceOnUse" x1="-14.515" y1="346.22" x2="-14.515" y2="378.1" gradientTransform="matrix(1 0 0 -1 0 794.22)">
	<stop  offset="0" style="stop-color:#3C71A1"/>
	<stop  offset="0.4345" style="stop-color:#619BC7"/>
	<stop  offset="0.7915" style="stop-color:#79B6E0"/>
	<stop  offset="1" style="stop-color:#82C0E9"/>
</linearGradient>
<path class="st22" d="M-6.5,447.2c-1.6,0.5-3.4,0.8-5.2,0.8c-2.4,0-4.5-0.4-6.4-1.2s-3.6-1.9-4.9-3.3c-1.4-1.4-2.4-3.1-3.2-5
	c-0.7-2-1.1-4.1-1.1-6.4c0-2.3,0.4-4.5,1.1-6.4c0.7-1.9,1.7-3.6,3-5s2.9-2.5,4.8-3.3c1.9-0.8,3.9-1.2,6.2-1.2c1.2,0,2.3,0.1,3.3,0.3
	s2,0.5,2.9,0.9s1.7,0.8,2.4,1.3c0.7,0.5,1.4,1.1,1.9,1.7l-1.9,3.2c-0.3,0.5-0.7,0.8-1.2,0.9c-0.5,0.1-1,0-1.5-0.4
	c-0.5-0.3-1-0.6-1.5-0.9c-0.5-0.2-0.9-0.4-1.4-0.6s-1-0.3-1.5-0.3c-0.5-0.1-1.1-0.1-1.8-0.1c-1.2,0-2.4,0.2-3.3,0.7
	c-1,0.5-1.8,1.1-2.5,2s-1.2,1.9-1.6,3.1s-0.6,2.6-0.6,4.1c0,1.7,0.2,3.1,0.6,4.4c0.4,1.3,1,2.4,1.8,3.2c0.8,0.9,1.7,1.6,2.7,2
	c1.1,0.5,2.2,0.7,3.5,0.7c0.8,0,1.5-0.1,2.2-0.3c0.6-0.2,1.3-0.4,1.9-0.7v-4.7h-2.8c-0.4,0-0.7-0.1-1-0.4c-0.2-0.2-0.4-0.5-0.4-0.9
	v-4h10.1v13.2C-3.3,445.8-4.9,446.7-6.5,447.2z"/>
<linearGradient id="SVGID_23_" gradientUnits="userSpaceOnUse" x1="15.725" y1="346.23" x2="15.725" y2="378.09" gradientTransform="matrix(1 0 0 -1 0 794.22)">
	<stop  offset="0" style="stop-color:#3C71A1"/>
	<stop  offset="0.4345" style="stop-color:#619BC7"/>
	<stop  offset="0.7915" style="stop-color:#79B6E0"/>
	<stop  offset="1" style="stop-color:#82C0E9"/>
</linearGradient>
<path class="st23" d="M30.5,432c0,2.3-0.4,4.4-1.1,6.3c-0.7,1.9-1.7,3.6-3,5.1c-1.3,1.4-2.8,2.6-4.7,3.4S18,448,15.8,448
	s-4.2-0.4-6.1-1.2c-1.8-0.8-3.4-1.9-4.7-3.4c-1.3-1.4-2.3-3.1-3-5.1c-0.7-1.9-1.1-4-1.1-6.3c0-2.3,0.4-4.4,1.1-6.3s1.7-3.6,3-5
	c1.3-1.4,2.9-2.6,4.7-3.4c1.8-0.8,3.9-1.2,6.1-1.2c2.2,0,4.2,0.4,6.1,1.2s3.4,2,4.7,3.4c1.3,1.4,2.3,3.1,3,5.1
	C30.2,427.7,30.5,429.8,30.5,432z M23.8,432c0-1.5-0.2-2.9-0.6-4.2c-0.4-1.2-0.9-2.3-1.6-3.1c-0.7-0.9-1.5-1.5-2.5-2
	c-1-0.5-2.1-0.7-3.4-0.7c-1.3,0-2.4,0.2-3.4,0.7c-1,0.5-1.8,1.1-2.5,2c-0.7,0.9-1.2,1.9-1.6,3.1c-0.4,1.2-0.6,2.6-0.6,4.2
	c0,1.6,0.2,3,0.6,4.2c0.4,1.2,0.9,2.3,1.6,3.1c0.7,0.9,1.5,1.5,2.5,2c1,0.4,2.1,0.7,3.4,0.7c1.3,0,2.4-0.2,3.4-0.7
	c1-0.5,1.8-1.1,2.5-2c0.7-0.9,1.2-1.9,1.6-3.1C23.6,435,23.8,433.6,23.8,432z"/>
<g id="XMLID_40_">
</g>
<g id="XMLID_41_">
</g>
<g id="XMLID_42_">
</g>
<g id="XMLID_43_">
</g>
<g id="XMLID_44_">
</g>
<g id="XMLID_45_">
</g>
</svg>
