<?xml version="1.0" encoding="utf-8"?>
<!-- Generator: Adobe Illustrator 19.0.0, SVG Export Plug-In . SVG Version: 6.00 Build 0)  -->
<svg version="1.1" id="Layer_1" xmlns="http://www.w3.org/2000/svg" xmlns:xlink="http://www.w3.org/1999/xlink" x="0px" y="0px"
	 viewBox="-193 345.073 244.45 133.796" style="enable-background:new -193 345.073 244.45 133.796;" xml:space="preserve">
<style type="text/css">
	.st02{fill:#498DCB;}
</style>
<path class="st02" d="M-130.7,429.11h11.51v5.76h-11.51V429.11z"/>
<path class="st02" d="M-42.36,429.11h11.51v5.76h-11.51V429.11z"/>
<g>
	<path class="st02" d="M-187.04,351.48c0.07,0.01,0.14,0.03,0.2,0.07c0.06,0.03,0.11,0.08,0.16,0.14c0.05,0.06,0.1,0.14,0.15,0.25
		l5.69,11.33c0.01-0.22,0.02-0.44,0.04-0.65c0.02-0.21,0.03-0.41,0.05-0.59l1.13-10.58h2.31l-1.79,16.6h-1.34
		c-0.2,0-0.37-0.04-0.51-0.11c-0.14-0.08-0.26-0.21-0.35-0.41l-5.65-11.32c-0.01,0.18-0.03,0.36-0.04,0.53
		c-0.01,0.17-0.02,0.34-0.04,0.49l-1.14,10.84h-2.31l1.78-16.61h1.37C-187.22,351.46-187.12,351.46-187.04,351.48z"/>
	<path class="st02" d="M-164.69,368.04h-2.03c-0.23,0-0.41-0.06-0.55-0.18c-0.14-0.12-0.22-0.28-0.25-0.49l-0.61-3.47h-5.43
		l-1.35,3.47c-0.08,0.18-0.2,0.34-0.36,0.47c-0.17,0.14-0.36,0.21-0.56,0.21l-2.06,0.01l7.03-16.62h2.67L-164.69,368.04z
		 M-172.74,361.8h4.24l-0.99-5.69c-0.05-0.27-0.11-0.57-0.16-0.87c-0.05-0.31-0.1-0.65-0.15-1.03c-0.13,0.38-0.25,0.74-0.38,1.06
		c-0.12,0.32-0.24,0.61-0.35,0.85L-172.74,361.8z"/>
	<path class="st02" d="M-153.71,351.42l-0.27,2.44l-3.99,0.01l-1.52,14.16h-2.6l1.51-14.16l-4,0.01l0.26-2.45L-153.71,351.42z"/>
	<path class="st02" d="M-148.26,365.63c0.47,0,0.9-0.1,1.29-0.3c0.39-0.21,0.74-0.49,1.03-0.86c0.29-0.37,0.54-0.82,0.73-1.34
		c0.19-0.52,0.32-1.1,0.39-1.74l1.07-9.98h2.61l-1.06,9.98c-0.11,0.98-0.33,1.89-0.69,2.72c-0.35,0.83-0.8,1.56-1.34,2.16
		c-0.55,0.61-1.18,1.08-1.91,1.42s-1.53,0.51-2.39,0.51c-0.79,0-1.48-0.14-2.1-0.42c-0.61-0.28-1.13-0.67-1.55-1.18
		c-0.42-0.5-0.74-1.11-0.96-1.8c-0.22-0.7-0.33-1.47-0.33-2.32c0-0.34,0.02-0.71,0.06-1.09l1.05-9.98l2.62-0.01l-1.07,9.97
		c-0.02,0.14-0.02,0.29-0.03,0.42c-0.01,0.14-0.01,0.27-0.01,0.4c0,0.52,0.06,0.99,0.17,1.41s0.28,0.78,0.49,1.08
		c0.22,0.3,0.49,0.53,0.81,0.69C-149.05,365.55-148.68,365.63-148.26,365.63z"/>
	<path class="st02" d="M-137.1,361.46l-0.7,6.54l-2.6,0.01l1.77-16.61h4.14c0.84,0,1.56,0.1,2.16,0.3c0.6,0.2,1.09,0.49,1.47,0.85
		c0.39,0.36,0.67,0.79,0.85,1.3c0.18,0.51,0.27,1.06,0.27,1.66c0,0.64-0.08,1.25-0.24,1.81c-0.16,0.56-0.38,1.08-0.68,1.54
		c-0.29,0.46-0.66,0.86-1.09,1.21s-0.91,0.61-1.46,0.81c0.15,0.11,0.3,0.24,0.42,0.39c0.13,0.16,0.24,0.34,0.33,0.56l2.61,6.19
		h-2.35c-0.22,0-0.41-0.05-0.56-0.16c-0.15-0.1-0.26-0.25-0.34-0.44l-2.14-5.38c-0.08-0.2-0.18-0.34-0.3-0.43
		c-0.12-0.09-0.3-0.13-0.55-0.13h-1.01V361.46z M-136.26,353.7l-0.61,5.64h1.51c0.52,0,0.97-0.09,1.36-0.26
		c0.38-0.17,0.69-0.41,0.93-0.71c0.24-0.3,0.43-0.66,0.55-1.06c0.12-0.41,0.18-0.84,0.18-1.31c0-0.72-0.2-1.28-0.59-1.69
		c-0.39-0.4-0.99-0.6-1.8-0.6L-136.26,353.7z"/>
	<path class="st02" d="M-116.52,367.98l-2.03,0.01c-0.23,0-0.41-0.06-0.55-0.19c-0.13-0.12-0.22-0.29-0.25-0.49l-0.61-3.47h-5.44
		l-1.34,3.47c-0.08,0.17-0.2,0.33-0.36,0.47c-0.17,0.14-0.36,0.21-0.57,0.21h-2.05l7.03-16.61l2.67-0.01L-116.52,367.98z
		 M-124.57,361.74l4.24-0.01l-0.99-5.68c-0.05-0.28-0.11-0.57-0.16-0.87c-0.06-0.31-0.11-0.65-0.15-1.04
		c-0.13,0.38-0.25,0.74-0.38,1.07c-0.12,0.32-0.24,0.61-0.35,0.85L-124.57,361.74z"/>
	<path class="st02" d="M-112.48,365.51h5.3l-0.25,2.47l-7.93,0.01l1.78-16.6l2.61-0.01L-112.48,365.51z"/>
</g>
<path id="XMLID_1_" class="st02" d="M-103.85,371.98l-0.06-0.04c-0.26-0.07-0.48-0.23-0.66-0.47c-0.1-0.14-0.18-0.29-0.25-0.46
	l-0.03-0.08l-0.08-0.02v-0.37l0.06-0.06h-0.01c0.13-0.33,0.28-0.64,0.43-0.95c0.39-0.78,0.87-1.56,1.47-2.39
	c0.45-0.62,0.93-1.2,1.41-1.71c0.15-0.16,0.59-0.61,0.59-0.61l-0.5-0.62c-0.2-0.24-0.38-0.48-0.55-0.74
	c-0.34-0.53-0.59-1.13-0.73-1.8c-0.13-0.59-0.17-1.2-0.13-1.81c0.09-1.4,0.56-2.65,1.41-3.73c0.23-0.29,0.5-0.56,0.82-0.85
	c0.66-0.59,1.37-1.12,2.16-1.63c0.64-0.41,1.34-0.82,2.13-1.26l2.13-1.2c0.77-0.43,1.45-0.85,2.11-1.29
	c0.62-0.42,1.16-0.82,1.63-1.22c0.46-0.39,0.92-0.85,1.36-1.37c0.44-0.51,0.81-1.01,1.12-1.53l0.05-0.09
	c0.05-0.08,0.09-0.16,0.13-0.24c0.05-0.08,0.1-0.17,0.19-0.25l0.07-0.06c0,0,0.14-0.08,0.27-0.05s0.22,0.21,0.22,0.21
	s0.08,0.26,0.07,0.43c-0.02,0.17-0.04,0.44-0.06,0.6l-0.06,0.58c-0.02,0.18-0.04,0.36-0.05,0.55c0,0-0.29,2.84-0.31,3.06l-0.05,0.46
	c-0.02,0.22-0.04,0.46-0.07,0.68c-0.02,0.15-0.03,0.3-0.04,0.46l-0.26,2.61c-0.02,0.16-0.03,0.31-0.04,0.46l-0.17,1.77
	c-0.02,0.19-0.09,0.77-0.09,0.77c-0.06,0.42-0.13,0.84-0.21,1.24c-0.15,0.73-0.33,1.37-0.53,1.96c-0.26,0.74-0.55,1.38-0.89,1.95
	c-0.31,0.51-0.65,0.95-1.04,1.34c-0.46,0.45-0.99,0.81-1.6,1.1c-0.43,0.2-0.89,0.36-1.37,0.47c-0.37,0.08-0.7,0.13-1.03,0.16
	s-0.66,0.05-0.99,0.05c-0.18,0-0.37-0.01-0.55-0.02c-0.17,0-0.35-0.01-0.53-0.03c-0.19-0.02-0.94-0.1-0.94-0.1s-0.41-0.06-0.52-0.08
	l-0.68-0.11l-0.82-0.15c-0.15,0.2-0.26,0.38-0.37,0.56c-0.26,0.42-0.51,0.89-0.77,1.45c-0.42,0.9-0.8,1.89-1.18,3.05
	c-0.09,0.28-0.18,0.56-0.26,0.84c-0.04,0.15-0.13,0.25-0.26,0.32c-0.17,0.09-0.33,0.15-0.49,0.19l-0.1,0.03h-0.5V371.98z
	 M-101.62,366.77c-0.41,0.5-0.81,1.03-1.17,1.58c-0.46,0.71-0.81,1.33-1.09,1.94c-0.04,0.08-0.07,0.16-0.11,0.24l-0.08,0.18
	c0.04,0.02,0.09,0.15,0.17,0.24c0.08,0.11,0.17,0.16,0.3,0.17l0,0c0.11,0,0.22-0.02,0.34-0.07l0.03-0.1
	c0.08-0.27,0.17-0.53,0.26-0.8c0.37-1.12,0.76-2.11,1.19-3.03C-101.73,367-101.67,366.88-101.62,366.77z M-99.65,364.7
	c0.41,0.08,0.82,0.15,1.24,0.22c0.38,0.06,0.77,0.11,1.16,0.15c0.33,0.03,0.67,0.05,1,0.07c0.11,0,0.22,0,0.33,0
	c0.29,0,0.57-0.01,0.85-0.04c0.34-0.03,0.66-0.07,0.97-0.14c0.46-0.1,0.88-0.24,1.26-0.41c0.52-0.24,0.98-0.55,1.36-0.93
	c0.32-0.31,0.61-0.67,0.86-1.08c0.07-0.11,0.13-0.22,0.2-0.33l-8.04,0.29c-0.21,0.36-0.41,0.72-0.61,1.09S-99.46,364.33-99.65,364.7
	z M-100.88,356.69c-0.26,0.35-0.5,0.75-0.7,1.19c-0.32,0.73-0.49,1.52-0.49,2.35c0,0.46,0.04,0.88,0.13,1.26
	c0.1,0.5,0.28,0.95,0.52,1.35c0.16,0.26,0.36,0.53,0.6,0.81c0.08,0.1,0.46,0.56,0.49,0.6c0,0,0.18-0.35,0.27-0.52l0.47-0.88
	l0.43-0.76L-100.88,356.69z M-96.21,358.96c-0.23,0.31-0.46,0.62-0.68,0.95c-0.28,0.42-0.54,0.85-0.8,1.29
	c-0.1,0.16-0.19,0.32-0.28,0.47c0,0,6.38-0.23,6.73-0.25c0.16,0,1.23-0.04,1.23-0.04c0.36-0.85,0.64-1.82,0.85-2.93L-96.21,358.96z
	 M-100.24,356.04c0.22,0.71,1.24,3.91,1.63,5.14l0.34-0.58c0.41-0.69,0.85-1.36,1.31-1.98l0.08-0.11l-1.02-4.23
	C-98.8,354.85-99.58,355.43-100.24,356.04z M-93.46,355.69l-0.03,0.06l-0.32,0.35c-0.43,0.47-0.85,0.95-1.27,1.44
	c-0.15,0.18-0.3,0.36-0.45,0.54l6.49-0.47l0.04-0.2c0.03-0.24,0.06-0.48,0.08-0.71c0.02-0.25,0.14-1.49,0.14-1.49
	C-88.8,355.2-93.22,355.67-93.46,355.69z M-96.26,357.72c0.32-0.39,0.63-0.77,0.96-1.15c0.41-0.46,0.82-0.93,1.23-1.39l-0.09-0.75
	l-0.28-2.16c-0.3,0.17-1.63,0.91-1.63,0.91c-0.34,0.19-0.68,0.39-1.01,0.59l-0.11,0.06C-96.99,354.64-96.26,357.72-96.26,357.72z
	 M-90.64,352.94c-0.14,0.02-0.29,0.05-0.44,0.06c-0.43,0.54-0.9,1.06-1.36,1.58l-0.17,0.19c0,0,3.43-0.36,3.59-0.38
	c0.11-0.01,0.21-0.02,0.31-0.03c0.04-0.39,0.13-1.28,0.17-1.75L-90.64,352.94z M-93.68,351.85c0.06,0.54,0.13,1.08,0.2,1.62
	l0.12,0.94c0.16-0.18,0.32-0.37,0.49-0.55c0.41-0.46,0.81-0.92,1.2-1.39l-0.27-1.68l-0.3,0.19
	C-92.71,351.28-93.19,351.57-93.68,351.85z M-88.13,348.53c-0.12,0.31-0.23,0.57-0.32,0.75c-0.45,0.82-0.98,1.63-1.58,2.42
	c-0.09,0.12-0.19,0.24-0.28,0.36l1.86-0.28L-88.13,348.53z M-90.99,351.63c0.35-0.45,0.64-0.85,0.91-1.24
	c0.51-0.75,0.93-1.47,1.28-2.19c-0.05,0.05-0.09,0.1-0.14,0.15c-0.34,0.37-0.71,0.72-1.09,1.04c-0.38,0.32-0.78,0.62-1.18,0.9
	C-91.21,350.3-90.99,351.63-90.99,351.63z"/>
<path class="st02" d="M-181.9,399.83v13.16h-8.81v-39.36h13.39c2.67,0,4.97,0.33,6.89,0.98c1.92,0.66,3.5,1.57,4.74,2.72
	c1.24,1.15,2.16,2.51,2.75,4.08s0.89,3.26,0.89,5.08c0,1.96-0.31,3.76-0.91,5.4c-0.61,1.64-1.54,3.04-2.79,4.21
	c-1.25,1.17-2.84,2.09-4.76,2.74c-1.92,0.66-4.19,0.98-6.81,0.98h-4.58V399.83z M-181.9,392.94h4.59c2.29,0,3.94-0.57,4.95-1.7
	c1.01-1.14,1.51-2.72,1.51-4.75c0-0.9-0.13-1.72-0.39-2.46c-0.26-0.74-0.66-1.37-1.19-1.91c-0.53-0.53-1.2-0.94-2.01-1.23
	s-1.77-0.43-2.88-0.43h-4.58V392.94z"/>
<path class="st02" d="M-148.75,398.43v14.56h-8.81v-39.36h12.35c2.75,0,5.08,0.29,7.02,0.88c1.94,0.58,3.52,1.4,4.74,2.45
	c1.23,1.04,2.11,2.28,2.67,3.7c0.56,1.42,0.83,2.97,0.83,4.65c0,1.28-0.17,2.48-0.49,3.62c-0.33,1.13-0.82,2.18-1.47,3.15
	c-0.65,0.96-1.45,1.82-2.4,2.58c-0.95,0.76-2.04,1.38-3.27,1.86c0.59,0.31,1.14,0.69,1.64,1.15s0.96,1,1.35,1.64l8.08,13.7h-7.97
	c-1.48,0-2.54-0.58-3.18-1.73l-6.31-11.43c-0.3-0.49-0.63-0.84-0.99-1.07c-0.36-0.22-0.89-0.34-1.56-0.34h-2.23V398.43z
	 M-148.75,392.13h3.54c1.2,0,2.22-0.16,3.06-0.47c0.84-0.32,1.53-0.75,2.07-1.31c0.54-0.56,0.93-1.21,1.17-1.96
	c0.24-0.75,0.37-1.56,0.37-2.42c0-1.73-0.54-3.08-1.63-4.05c-1.08-0.97-2.77-1.46-5.04-1.46h-3.54
	C-148.75,380.46-148.75,392.13-148.75,392.13z"/>
<path class="st02" d="M-86.71,393.3c0,2.84-0.47,5.5-1.42,7.94c-0.95,2.45-2.28,4.58-4,6.39s-3.79,3.23-6.21,4.26
	c-2.43,1.03-5.11,1.54-8.07,1.54c-2.95,0-5.65-0.51-8.08-1.54s-4.51-2.45-6.24-4.26c-1.73-1.81-3.06-3.94-4.01-6.39
	c-0.95-2.45-1.42-5.1-1.42-7.94c0-2.85,0.47-5.49,1.42-7.94c0.95-2.45,2.28-4.58,4.01-6.38c1.73-1.8,3.81-3.21,6.24-4.24
	c2.43-1.03,5.12-1.54,8.08-1.54s5.64,0.52,8.07,1.55c2.42,1.04,4.5,2.46,6.21,4.26c1.72,1.8,3.05,3.93,4,6.38
	C-87.18,387.83-86.71,390.47-86.71,393.3z M-95.72,393.3c0-1.95-0.24-3.7-0.73-5.26c-0.49-1.55-1.19-2.88-2.1-3.96
	c-0.91-1.08-2.03-1.91-3.35-2.49c-1.32-0.57-2.82-0.86-4.51-0.86c-1.7,0-3.22,0.29-4.54,0.86c-1.33,0.58-2.45,1.4-3.36,2.49
	c-0.91,1.08-1.61,2.4-2.1,3.96s-0.73,3.31-0.73,5.26c0,1.96,0.24,3.72,0.73,5.28c0.49,1.56,1.19,2.88,2.1,3.96
	c0.91,1.08,2.03,1.91,3.36,2.48c1.33,0.56,2.84,0.85,4.54,0.85c1.69,0,3.19-0.28,4.51-0.85c1.32-0.57,2.44-1.39,3.35-2.48
	c0.91-1.08,1.61-2.4,2.1-3.96C-95.97,397.02-95.72,395.26-95.72,393.3z"/>
<path class="st02" d="M-55.15,373.63v7.24h-10.69V413h-8.81v-32.13h-10.69v-7.24C-85.34,373.63-55.15,373.63-55.15,373.63z"/>
<path class="st02" d="M-26.25,373.63v7.02h-15.59v9.19h11.94v6.76h-11.94v9.37h15.59V413h-24.44v-39.37H-26.25z"/>
<path class="st02" d="M-11.97,412.99h-8.86v-39.36h8.86V412.99z"/>
<path class="st02" d="M0.98,373.68c0.26,0.04,0.5,0.1,0.71,0.2s0.41,0.24,0.6,0.42c0.19,0.18,0.41,0.42,0.65,0.73l18.04,23.64
	c-0.07-0.76-0.12-1.49-0.16-2.2c-0.03-0.71-0.05-1.38-0.05-2.01v-20.83h7.77V413h-4.59c-0.68,0-1.25-0.11-1.71-0.34
	c-0.46-0.22-0.92-0.62-1.37-1.17l-17.9-23.45c0.05,0.68,0.1,1.36,0.13,2.01c0.04,0.66,0.05,1.27,0.05,1.85V413h-7.77v-39.37h4.64
	C0.4,373.63,0.72,373.64,0.98,373.68z"/>
<path class="st02" d="M-163.4,432.05c0,2.26-0.36,4.35-1.07,6.29c-0.71,1.94-1.71,3.63-3,5.06c-1.29,1.44-2.84,2.56-4.66,3.37
	c-1.82,0.81-3.83,1.22-6.05,1.22s-4.24-0.41-6.06-1.22c-1.82-0.81-3.39-1.94-4.68-3.37c-1.3-1.43-2.3-3.12-3.01-5.06
	c-0.72-1.93-1.07-4.03-1.07-6.29c0-2.26,0.35-4.35,1.06-6.29c0.71-1.94,1.71-3.63,3.01-5.05c1.3-1.43,2.86-2.55,4.68-3.36
	s3.84-1.22,6.06-1.22s4.23,0.41,6.05,1.23c1.82,0.82,3.37,1.95,4.66,3.37c1.29,1.43,2.29,3.11,3,5.05
	C-163.76,427.72-163.4,429.81-163.4,432.05z M-170.17,432.05c0-1.54-0.18-2.93-0.55-4.17c-0.37-1.23-0.89-2.28-1.57-3.14
	c-0.68-0.86-1.52-1.51-2.51-1.97c-0.99-0.46-2.12-0.68-3.38-0.68c-1.28,0-2.41,0.23-3.41,0.68c-1,0.46-1.84,1.11-2.52,1.97
	c-0.68,0.86-1.21,1.9-1.57,3.14s-0.55,2.62-0.55,4.17c0,1.56,0.18,2.95,0.55,4.19c0.37,1.23,0.89,2.28,1.57,3.14
	c0.68,0.86,1.52,1.51,2.52,1.96c1,0.45,2.13,0.67,3.41,0.67c1.26,0,2.39-0.23,3.38-0.67c0.99-0.45,1.83-1.1,2.51-1.96
	c0.68-0.86,1.21-1.9,1.57-3.14C-170.35,435.01-170.17,433.61-170.17,432.05z"/>
<path class="st02" d="M-155.31,416.51c0.19,0.03,0.37,0.08,0.53,0.16c0.16,0.08,0.31,0.19,0.45,0.33c0.14,0.14,0.31,0.34,0.49,0.58
	l13.52,18.73c-0.05-0.6-0.09-1.18-0.12-1.74s-0.04-1.1-0.04-1.6v-16.5h5.83v31.19h-3.44c-0.51,0-0.94-0.09-1.28-0.27
	c-0.35-0.18-0.69-0.49-1.03-0.93l-13.42-18.58c0.04,0.54,0.07,1.07,0.1,1.6c0.03,0.52,0.04,1.01,0.04,1.47v16.72h-5.83v-31.2h3.48
	C-155.75,416.47-155.51,416.48-155.31,416.51z"/>
<path class="st02" d="M-96.43,416.47v5.74h-8.01v25.46h-6.61V422.2h-8.02v-5.74h22.64V416.47z"/>
<path class="st02" d="M-68.22,447.66h-6.65v-13.19h-11.57v13.19h-6.65v-31.19h6.65v13.04h11.57v-13.04h6.65V447.66z"/>
<path class="st02" d="M-44.37,416.47v5.57h-11.69v7.28h8.95v5.35h-8.95v7.43h11.69v5.57h-18.34v-31.2H-44.37z"/>
<path class="st02" d="M-6.54,447.21c-1.65,0.53-3.37,0.79-5.17,0.79c-2.35,0-4.48-0.4-6.4-1.21s-3.57-1.92-4.94-3.34
	c-1.37-1.42-2.42-3.1-3.17-5.05c-0.74-1.95-1.11-4.07-1.11-6.35c0-2.33,0.35-4.46,1.05-6.41c0.7-1.95,1.71-3.63,3.02-5.04
	s2.89-2.51,4.75-3.3c1.86-0.78,3.93-1.18,6.23-1.18c1.19,0,2.3,0.11,3.34,0.32s2,0.51,2.88,0.88s1.68,0.81,2.41,1.33
	c0.73,0.51,1.38,1.07,1.95,1.67l-1.92,3.19c-0.3,0.5-0.69,0.81-1.16,0.92c-0.48,0.11-0.99-0.01-1.53-0.39
	c-0.52-0.34-1.01-0.64-1.48-0.89c-0.46-0.25-0.94-0.45-1.42-0.61s-0.99-0.27-1.52-0.34c-0.54-0.07-1.13-0.11-1.8-0.11
	c-1.24,0-2.35,0.24-3.34,0.72c-0.99,0.48-1.83,1.15-2.53,2.02c-0.7,0.87-1.23,1.92-1.61,3.14s-0.57,2.58-0.57,4.08
	c0,1.66,0.21,3.13,0.63,4.41s1.01,2.37,1.77,3.25c0.76,0.89,1.67,1.56,2.74,2.02c1.06,0.46,2.24,0.7,3.53,0.7
	c0.79,0,1.51-0.09,2.16-0.26c0.65-0.17,1.27-0.4,1.89-0.68v-4.73h-2.82c-0.42,0-0.74-0.12-0.98-0.36c-0.23-0.24-0.35-0.55-0.35-0.92
	v-3.98h10.13v13.17C-3.33,445.84-4.89,446.69-6.54,447.21z"/>
<path class="st02" d="M30.52,432.05c0,2.26-0.35,4.35-1.06,6.29c-0.71,1.94-1.71,3.63-3,5.06c-1.29,1.44-2.84,2.56-4.66,3.37
	c-1.82,0.81-3.83,1.22-6.05,1.22s-4.24-0.41-6.06-1.22c-1.83-0.81-3.39-1.94-4.68-3.37c-1.3-1.43-2.3-3.12-3.01-5.06
	c-0.71-1.94-1.07-4.04-1.07-6.29c0-2.26,0.36-4.35,1.07-6.29s1.71-3.63,3.01-5.05c1.3-1.43,2.86-2.55,4.68-3.36
	c1.82-0.81,3.85-1.22,6.06-1.22c2.21,0,4.23,0.41,6.05,1.23c1.82,0.82,3.37,1.95,4.66,3.37c1.29,1.43,2.29,3.11,3,5.05
	C30.16,427.72,30.52,429.81,30.52,432.05z M23.75,432.05c0-1.54-0.18-2.93-0.55-4.17c-0.37-1.23-0.89-2.28-1.58-3.14
	c-0.68-0.86-1.52-1.51-2.51-1.97c-0.99-0.46-2.12-0.68-3.38-0.68c-1.28,0-2.42,0.23-3.41,0.68c-1,0.46-1.84,1.11-2.52,1.97
	c-0.68,0.86-1.21,1.9-1.57,3.14s-0.55,2.62-0.55,4.17c0,1.56,0.18,2.95,0.55,4.19c0.37,1.23,0.89,2.28,1.57,3.14
	c0.69,0.86,1.53,1.51,2.52,1.96c1,0.45,2.13,0.67,3.41,0.67c1.26,0,2.39-0.23,3.38-0.67c0.99-0.45,1.83-1.1,2.51-1.96
	c0.68-0.86,1.21-1.9,1.58-3.14C23.57,435.01,23.75,433.61,23.75,432.05z"/>
<g id="XMLID_40_">
</g>
<g id="XMLID_41_">
</g>
<g id="XMLID_42_">
</g>
<g id="XMLID_43_">
</g>
<g id="XMLID_44_">
</g>
<g id="XMLID_45_">
</g>
<g>
	<path class="st02" d="M-170.554,478.869v-17.155h1.547c0.349,0,0.571,0.173,0.666,0.518l0.202,1.351
		c0.254-0.312,0.523-0.598,0.81-0.858c0.285-0.261,0.593-0.484,0.922-0.669c0.329-0.186,0.682-0.328,1.059-0.43
		c0.377-0.101,0.779-0.151,1.208-0.151c0.682,0,1.301,0.146,1.855,0.436c0.556,0.29,1.031,0.714,1.428,1.269
		c0.397,0.556,0.704,1.244,0.923,2.064c0.218,0.82,0.327,1.761,0.327,2.821c0,0.951-0.121,1.837-0.363,2.657
		s-0.589,1.532-1.041,2.134s-0.999,1.072-1.642,1.413s-1.368,0.512-2.178,0.512c-0.714,0-1.32-0.12-1.82-0.36
		c-0.5-0.239-0.948-0.574-1.345-1.003v5.453H-170.554z M-164.997,463.657c-0.659,0-1.222,0.15-1.69,0.448
		c-0.468,0.299-0.903,0.727-1.309,1.281v5.972c0.357,0.488,0.748,0.831,1.172,1.028c0.425,0.198,0.895,0.297,1.41,0.297
		c1,0,1.779-0.387,2.338-1.161c0.56-0.774,0.839-1.928,0.839-3.459c0-0.791-0.063-1.467-0.19-2.026s-0.31-1.016-0.547-1.369
		c-0.238-0.354-0.527-0.61-0.869-0.771C-164.185,463.737-164.569,463.657-164.997,463.657z"/>
	<path class="st02" d="M-157.121,474.59v-12.876h1.487c0.27,0,0.456,0.053,0.56,0.157c0.103,0.105,0.174,0.289,0.214,0.55
		l0.143,1.679c0.389-0.816,0.853-1.458,1.393-1.925c0.539-0.468,1.186-0.701,1.939-0.701c0.262,0,0.508,0.031,0.737,0.095
		c0.23,0.063,0.437,0.158,0.619,0.284l-0.179,2.045c-0.032,0.144-0.081,0.242-0.148,0.297s-0.157,0.082-0.268,0.082
		c-0.119,0-0.29-0.023-0.512-0.069c-0.223-0.046-0.456-0.069-0.702-0.069c-0.357,0-0.675,0.055-0.952,0.164s-0.523,0.27-0.737,0.479
		c-0.215,0.21-0.404,0.467-0.571,0.77c-0.167,0.304-0.321,0.648-0.464,1.035v8.004H-157.121z"/>
	<path class="st02" d="M-143.51,461.511c0.896,0,1.708,0.156,2.434,0.467c0.726,0.312,1.345,0.754,1.856,1.326
		c0.511,0.572,0.905,1.267,1.184,2.082c0.277,0.816,0.416,1.734,0.416,2.752c0,1.019-0.139,1.937-0.416,2.752
		c-0.278,0.816-0.673,1.514-1.184,2.09c-0.512,0.576-1.131,1.021-1.856,1.332c-0.726,0.311-1.537,0.467-2.434,0.467
		c-0.904,0-1.719-0.156-2.444-0.467c-0.727-0.312-1.347-0.756-1.862-1.332s-0.912-1.273-1.19-2.09
		c-0.277-0.815-0.416-1.733-0.416-2.752c0-1.018,0.139-1.936,0.416-2.752c0.278-0.815,0.675-1.51,1.19-2.082
		s1.136-1.015,1.862-1.326C-145.229,461.668-144.414,461.511-143.51,461.511z M-143.51,472.658c1.095,0,1.91-0.389,2.445-1.168
		c0.535-0.778,0.803-1.891,0.803-3.339c0-1.447-0.268-2.564-0.803-3.352c-0.535-0.786-1.351-1.18-2.445-1.18
		c-1.11,0-1.936,0.394-2.475,1.18c-0.539,0.787-0.809,1.904-0.809,3.352c0,1.448,0.27,2.561,0.809,3.339
		C-145.445,472.269-144.62,472.658-143.51,472.658z"/>
	<path class="st02" d="M-131.504,474.792c-1.007,0-1.783-0.301-2.326-0.902s-0.815-1.45-0.815-2.544v-7.499h-1.332
		c-0.143,0-0.266-0.048-0.369-0.145s-0.154-0.242-0.154-0.436v-1.099l1.963-0.303l0.56-3.724c0.039-0.144,0.107-0.259,0.202-0.348
		c0.096-0.088,0.222-0.133,0.381-0.133h1.309v4.229h3.367v1.956h-3.367v7.31c0,0.463,0.107,0.816,0.321,1.061s0.5,0.366,0.856,0.366
		c0.198,0,0.369-0.027,0.512-0.082s0.266-0.114,0.369-0.177c0.103-0.063,0.192-0.122,0.268-0.177s0.148-0.082,0.22-0.082
		c0.144,0,0.258,0.084,0.346,0.252l0.762,1.325c-0.397,0.371-0.865,0.655-1.404,0.853
		C-130.378,474.692-130.933,474.792-131.504,474.792z"/>
	<path class="st02" d="M-121.617,461.511c0.746,0,1.437,0.128,2.07,0.385c0.635,0.257,1.183,0.634,1.643,1.13
		c0.46,0.497,0.818,1.104,1.076,1.824s0.387,1.538,0.387,2.455c0,0.421-0.043,0.703-0.131,0.846
		c-0.087,0.144-0.246,0.215-0.476,0.215h-7.793c0.031,0.732,0.139,1.365,0.321,1.9c0.182,0.534,0.426,0.978,0.731,1.331
		s0.67,0.617,1.095,0.789c0.424,0.173,0.898,0.259,1.422,0.259c0.5,0,0.932-0.061,1.297-0.183c0.364-0.122,0.682-0.257,0.952-0.404
		c0.27-0.146,0.499-0.281,0.689-0.403s0.365-0.184,0.523-0.184c0.206,0,0.365,0.084,0.477,0.253l0.726,0.997
		c-0.302,0.379-0.643,0.698-1.023,0.959s-0.785,0.474-1.214,0.638c-0.428,0.164-0.868,0.282-1.32,0.354s-0.893,0.107-1.32,0.107
		c-0.842,0-1.621-0.149-2.339-0.448s-1.34-0.738-1.867-1.319c-0.528-0.58-0.94-1.3-1.238-2.158
		c-0.297-0.858-0.445-1.848-0.445-2.967c0-0.892,0.133-1.726,0.398-2.5c0.266-0.773,0.646-1.447,1.142-2.02
		c0.496-0.572,1.099-1.024,1.809-1.356C-123.316,461.677-122.513,461.511-121.617,461.511z M-121.569,463.481
		c-0.928,0-1.657,0.281-2.189,0.846c-0.531,0.563-0.868,1.354-1.011,2.373h6.032c0-0.455-0.062-0.878-0.185-1.269
		c-0.123-0.392-0.304-0.732-0.541-1.022c-0.238-0.291-0.534-0.518-0.887-0.682S-121.109,463.481-121.569,463.481z"/>
	<path class="st02" d="M-110.968,457.825c0,0.244-0.046,0.476-0.137,0.694c-0.092,0.22-0.217,0.41-0.375,0.574
		c-0.159,0.165-0.344,0.295-0.554,0.392s-0.434,0.146-0.672,0.146c-0.23,0-0.446-0.049-0.648-0.146s-0.379-0.227-0.529-0.392
		c-0.151-0.164-0.272-0.354-0.363-0.574c-0.091-0.219-0.137-0.45-0.137-0.694c0-0.252,0.046-0.487,0.137-0.707
		c0.091-0.219,0.212-0.41,0.363-0.574c0.15-0.164,0.327-0.294,0.529-0.391s0.418-0.146,0.648-0.146c0.238,0,0.462,0.049,0.672,0.146
		s0.395,0.227,0.554,0.391c0.158,0.164,0.283,0.355,0.375,0.574C-111.014,457.338-110.968,457.573-110.968,457.825z
		 M-111.396,461.714v12.876h-2.558v-12.876H-111.396z"/>
	<path class="st02" d="M-108.172,474.59v-12.876h1.547c0.349,0,0.571,0.173,0.666,0.518l0.179,1.199
		c0.254-0.286,0.521-0.547,0.803-0.783c0.282-0.235,0.581-0.438,0.898-0.605s0.656-0.299,1.018-0.392
		c0.36-0.093,0.751-0.139,1.172-0.139c0.666,0,1.251,0.118,1.755,0.354s0.928,0.568,1.273,0.997c0.345,0.43,0.604,0.945,0.779,1.547
		c0.174,0.602,0.262,1.265,0.262,1.988v8.192h-2.546v-8.192c0-0.867-0.188-1.54-0.565-2.021c-0.377-0.479-0.95-0.72-1.72-0.72
		c-0.571,0-1.101,0.14-1.588,0.417c-0.488,0.277-0.946,0.656-1.374,1.136v9.38H-108.172z"/>
	<path class="st02" d="M-82.52,459.82v5.276h4.723v2.045h-4.723v5.29h-2.083v-5.29h-4.699v-2.045h4.699v-5.276H-82.52z"/>
	<path class="st02" d="M-64.091,461.511c0.746,0,1.437,0.128,2.07,0.385c0.635,0.257,1.183,0.634,1.643,1.13
		c0.46,0.497,0.818,1.104,1.076,1.824s0.387,1.538,0.387,2.455c0,0.421-0.043,0.703-0.131,0.846
		c-0.087,0.144-0.246,0.215-0.476,0.215h-7.793c0.031,0.732,0.139,1.365,0.321,1.9c0.182,0.534,0.426,0.978,0.731,1.331
		s0.67,0.617,1.095,0.789c0.424,0.173,0.898,0.259,1.422,0.259c0.5,0,0.932-0.061,1.297-0.183c0.364-0.122,0.682-0.257,0.952-0.404
		c0.27-0.146,0.499-0.281,0.689-0.403s0.365-0.184,0.523-0.184c0.206,0,0.365,0.084,0.477,0.253l0.726,0.997
		c-0.302,0.379-0.643,0.698-1.023,0.959s-0.785,0.474-1.214,0.638c-0.428,0.164-0.868,0.282-1.32,0.354s-0.893,0.107-1.32,0.107
		c-0.842,0-1.621-0.149-2.339-0.448s-1.34-0.738-1.867-1.319c-0.528-0.58-0.94-1.3-1.238-2.158
		c-0.297-0.858-0.445-1.848-0.445-2.967c0-0.892,0.133-1.726,0.398-2.5c0.266-0.773,0.646-1.447,1.142-2.02
		c0.496-0.572,1.099-1.024,1.809-1.356C-65.79,461.677-64.986,461.511-64.091,461.511z M-64.043,463.481
		c-0.928,0-1.657,0.281-2.189,0.846c-0.531,0.563-0.868,1.354-1.011,2.373h6.032c0-0.455-0.062-0.878-0.185-1.269
		c-0.123-0.392-0.304-0.732-0.541-1.022c-0.238-0.291-0.534-0.518-0.887-0.682S-63.583,463.481-64.043,463.481z"/>
	<path class="st02" d="M-53.93,455.907v18.683h-2.558v-18.683H-53.93z"/>
	<path class="st02" d="M-45.686,461.511c0.746,0,1.437,0.128,2.07,0.385c0.635,0.257,1.183,0.634,1.643,1.13
		c0.46,0.497,0.818,1.104,1.076,1.824s0.387,1.538,0.387,2.455c0,0.421-0.043,0.703-0.131,0.846
		c-0.087,0.144-0.246,0.215-0.476,0.215h-7.793c0.031,0.732,0.139,1.365,0.321,1.9c0.182,0.534,0.426,0.978,0.731,1.331
		s0.67,0.617,1.095,0.789c0.424,0.173,0.898,0.259,1.422,0.259c0.5,0,0.932-0.061,1.297-0.183c0.364-0.122,0.682-0.257,0.952-0.404
		c0.27-0.146,0.499-0.281,0.689-0.403s0.365-0.184,0.523-0.184c0.206,0,0.365,0.084,0.477,0.253l0.726,0.997
		c-0.302,0.379-0.643,0.698-1.023,0.959s-0.785,0.474-1.214,0.638c-0.428,0.164-0.868,0.282-1.32,0.354s-0.893,0.107-1.32,0.107
		c-0.842,0-1.621-0.149-2.339-0.448s-1.34-0.738-1.867-1.319c-0.528-0.58-0.94-1.3-1.238-2.158
		c-0.297-0.858-0.445-1.848-0.445-2.967c0-0.892,0.133-1.726,0.398-2.5c0.266-0.773,0.646-1.447,1.142-2.02
		c0.496-0.572,1.099-1.024,1.809-1.356C-47.385,461.677-46.581,461.511-45.686,461.511z M-45.638,463.481
		c-0.928,0-1.657,0.281-2.189,0.846c-0.531,0.563-0.868,1.354-1.011,2.373h6.032c0-0.455-0.062-0.878-0.185-1.269
		c-0.123-0.392-0.304-0.732-0.541-1.022c-0.238-0.291-0.534-0.518-0.887-0.682S-45.178,463.481-45.638,463.481z"/>
	<path class="st02" d="M-29.552,464.238c-0.079,0.109-0.154,0.193-0.226,0.253c-0.071,0.059-0.175,0.088-0.31,0.088
		s-0.275-0.051-0.422-0.151c-0.147-0.101-0.321-0.213-0.523-0.335c-0.203-0.121-0.446-0.233-0.732-0.334
		c-0.285-0.102-0.643-0.151-1.07-0.151c-0.556,0-1.041,0.105-1.458,0.315c-0.416,0.21-0.766,0.511-1.047,0.902
		s-0.492,0.867-0.631,1.427s-0.208,1.188-0.208,1.887c0,0.725,0.075,1.368,0.227,1.932c0.15,0.564,0.366,1.04,0.648,1.427
		c0.281,0.387,0.622,0.682,1.022,0.884c0.401,0.202,0.852,0.303,1.351,0.303c0.492,0,0.893-0.063,1.202-0.189
		s0.566-0.265,0.773-0.416c0.206-0.152,0.383-0.291,0.529-0.417s0.304-0.189,0.47-0.189c0.206,0,0.365,0.084,0.477,0.253
		l0.726,0.997c-0.294,0.379-0.619,0.698-0.976,0.959c-0.357,0.261-0.734,0.474-1.131,0.638s-0.809,0.282-1.237,0.354
		c-0.428,0.071-0.86,0.107-1.297,0.107c-0.754,0-1.457-0.149-2.111-0.448c-0.655-0.299-1.226-0.732-1.714-1.3
		c-0.487-0.568-0.872-1.263-1.154-2.083c-0.281-0.821-0.422-1.757-0.422-2.81c0-0.95,0.127-1.832,0.381-2.645
		c0.254-0.812,0.624-1.513,1.112-2.102c0.487-0.589,1.093-1.05,1.814-1.382c0.722-0.333,1.555-0.499,2.498-0.499
		c0.881,0,1.656,0.151,2.326,0.454c0.671,0.304,1.268,0.732,1.791,1.288L-29.552,464.238z"/>
	<path class="st02" d="M-22.817,474.792c-1.007,0-1.783-0.301-2.326-0.902s-0.814-1.45-0.814-2.544v-7.499h-1.333
		c-0.143,0-0.266-0.048-0.369-0.145c-0.103-0.097-0.154-0.242-0.154-0.436v-1.099l1.963-0.303l0.56-3.724
		c0.039-0.144,0.107-0.259,0.202-0.348c0.096-0.088,0.222-0.133,0.381-0.133h1.309v4.229h3.367v1.956H-23.4v7.31
		c0,0.463,0.107,0.816,0.321,1.061s0.5,0.366,0.856,0.366c0.198,0,0.369-0.027,0.512-0.082s0.266-0.114,0.369-0.177
		c0.103-0.063,0.192-0.122,0.268-0.177s0.148-0.082,0.22-0.082c0.144,0,0.258,0.084,0.346,0.252l0.762,1.325
		c-0.397,0.371-0.865,0.655-1.404,0.853C-21.691,474.692-22.246,474.792-22.817,474.792z"/>
	<path class="st02" d="M-18.01,474.59v-12.876h1.487c0.27,0,0.456,0.053,0.56,0.157c0.103,0.105,0.174,0.289,0.214,0.55l0.143,1.679
		c0.389-0.816,0.853-1.458,1.393-1.925c0.539-0.468,1.186-0.701,1.939-0.701c0.262,0,0.507,0.031,0.737,0.095
		c0.229,0.063,0.437,0.158,0.619,0.284l-0.179,2.045c-0.032,0.144-0.082,0.242-0.149,0.297s-0.156,0.082-0.268,0.082
		c-0.118,0-0.289-0.023-0.512-0.069c-0.222-0.046-0.456-0.069-0.701-0.069c-0.357,0-0.675,0.055-0.952,0.164
		c-0.278,0.109-0.523,0.27-0.737,0.479c-0.215,0.21-0.405,0.467-0.571,0.77c-0.167,0.304-0.321,0.648-0.464,1.035v8.004H-18.01z"/>
	<path class="st02" d="M-4.398,461.511c0.896,0,1.707,0.156,2.434,0.467c0.726,0.312,1.344,0.754,1.855,1.326
		s0.906,1.267,1.185,2.082c0.277,0.816,0.416,1.734,0.416,2.752c0,1.019-0.139,1.937-0.416,2.752
		c-0.278,0.816-0.673,1.514-1.185,2.09s-1.13,1.021-1.855,1.332c-0.727,0.311-1.537,0.467-2.434,0.467
		c-0.904,0-1.719-0.156-2.445-0.467c-0.726-0.312-1.347-0.756-1.861-1.332c-0.517-0.576-0.913-1.273-1.19-2.09
		c-0.277-0.815-0.416-1.733-0.416-2.752c0-1.018,0.139-1.936,0.416-2.752c0.277-0.815,0.674-1.51,1.19-2.082
		c0.515-0.572,1.136-1.015,1.861-1.326C-6.117,461.668-5.303,461.511-4.398,461.511z M-4.398,472.658
		c1.095,0,1.91-0.389,2.445-1.168c0.535-0.778,0.803-1.891,0.803-3.339c0-1.447-0.268-2.564-0.803-3.352
		c-0.535-0.786-1.351-1.18-2.445-1.18c-1.11,0-1.936,0.394-2.475,1.18c-0.54,0.787-0.81,1.904-0.81,3.352
		c0,1.448,0.27,2.561,0.81,3.339C-6.334,472.269-5.509,472.658-4.398,472.658z"/>
	<path class="st02" d="M6.547,455.907v18.683H3.989v-18.683H6.547z"/>
	<path class="st02" d="M13.793,478.251c-0.087,0.193-0.192,0.345-0.315,0.454s-0.312,0.164-0.565,0.164h-1.892l2.237-5.15
		l-4.95-12.005h2.226c0.214,0,0.379,0.053,0.493,0.157c0.115,0.105,0.2,0.229,0.256,0.373l2.892,7.309
		c0.143,0.421,0.262,0.842,0.356,1.263c0.063-0.219,0.129-0.434,0.196-0.644c0.067-0.211,0.142-0.421,0.221-0.632l2.772-7.296
		c0.055-0.151,0.148-0.278,0.279-0.379c0.131-0.102,0.275-0.151,0.435-0.151h2.046L13.793,478.251z"/>
	<path class="st02" d="M26.024,474.792c-1.007,0-1.783-0.301-2.326-0.902s-0.814-1.45-0.814-2.544v-7.499h-1.333
		c-0.143,0-0.266-0.048-0.369-0.145c-0.103-0.097-0.154-0.242-0.154-0.436v-1.099l1.963-0.303l0.56-3.724
		c0.039-0.144,0.107-0.259,0.202-0.348c0.096-0.088,0.222-0.133,0.381-0.133h1.309v4.229h3.367v1.956h-3.367v7.31
		c0,0.463,0.107,0.816,0.321,1.061s0.5,0.366,0.856,0.366c0.198,0,0.369-0.027,0.512-0.082s0.266-0.114,0.369-0.177
		c0.103-0.063,0.192-0.122,0.268-0.177s0.148-0.082,0.22-0.082c0.144,0,0.258,0.084,0.346,0.252l0.762,1.325
		c-0.397,0.371-0.865,0.655-1.404,0.853C27.15,474.692,26.596,474.792,26.024,474.792z"/>
	<path class="st02" d="M35.911,461.511c0.746,0,1.437,0.128,2.07,0.385c0.635,0.257,1.183,0.634,1.643,1.13
		c0.46,0.497,0.818,1.104,1.076,1.824s0.387,1.538,0.387,2.455c0,0.421-0.043,0.703-0.131,0.846
		c-0.087,0.144-0.246,0.215-0.476,0.215h-7.793c0.031,0.732,0.139,1.365,0.321,1.9c0.182,0.534,0.426,0.978,0.731,1.331
		s0.67,0.617,1.095,0.789c0.424,0.173,0.898,0.259,1.422,0.259c0.5,0,0.932-0.061,1.297-0.183c0.364-0.122,0.682-0.257,0.952-0.404
		c0.27-0.146,0.499-0.281,0.689-0.403s0.365-0.184,0.523-0.184c0.206,0,0.365,0.084,0.477,0.253l0.726,0.997
		c-0.302,0.379-0.643,0.698-1.023,0.959s-0.785,0.474-1.214,0.638c-0.428,0.164-0.868,0.282-1.32,0.354s-0.893,0.107-1.32,0.107
		c-0.842,0-1.621-0.149-2.339-0.448s-1.34-0.738-1.867-1.319c-0.528-0.58-0.94-1.3-1.238-2.158
		c-0.297-0.858-0.445-1.848-0.445-2.967c0-0.892,0.133-1.726,0.398-2.5c0.266-0.773,0.646-1.447,1.142-2.02
		c0.496-0.572,1.099-1.024,1.809-1.356C34.212,461.677,35.016,461.511,35.911,461.511z M35.959,463.481
		c-0.928,0-1.657,0.281-2.189,0.846c-0.531,0.563-0.868,1.354-1.011,2.373h6.032c0-0.455-0.062-0.878-0.185-1.269
		c-0.123-0.392-0.304-0.732-0.541-1.022c-0.238-0.291-0.534-0.518-0.887-0.682S36.419,463.481,35.959,463.481z"/>
	<path class="st02" d="M50.713,464.048c-0.063,0.118-0.135,0.202-0.214,0.253c-0.08,0.05-0.179,0.075-0.298,0.075
		c-0.135,0-0.281-0.044-0.44-0.132c-0.158-0.089-0.345-0.188-0.559-0.297c-0.215-0.109-0.467-0.208-0.756-0.297
		c-0.29-0.088-0.629-0.133-1.018-0.133c-0.317,0-0.604,0.04-0.862,0.12s-0.476,0.193-0.654,0.341s-0.315,0.32-0.411,0.518
		c-0.095,0.198-0.143,0.41-0.143,0.638c0,0.303,0.088,0.556,0.262,0.758c0.175,0.201,0.405,0.376,0.69,0.523s0.61,0.28,0.976,0.397
		c0.365,0.118,0.737,0.244,1.118,0.379s0.754,0.29,1.119,0.467c0.364,0.177,0.689,0.394,0.976,0.65
		c0.285,0.257,0.515,0.568,0.689,0.935c0.175,0.365,0.262,0.81,0.262,1.331c0,0.606-0.103,1.166-0.309,1.68
		c-0.207,0.513-0.508,0.959-0.904,1.338c-0.397,0.379-0.891,0.673-1.481,0.884c-0.591,0.21-1.268,0.315-2.029,0.315
		c-0.42,0-0.826-0.04-1.219-0.12c-0.394-0.08-0.766-0.189-1.119-0.328c-0.353-0.139-0.682-0.305-0.987-0.499
		c-0.306-0.193-0.577-0.403-0.815-0.631l0.596-1.035c0.071-0.126,0.16-0.225,0.268-0.297c0.106-0.071,0.239-0.107,0.398-0.107
		c0.167,0,0.331,0.058,0.494,0.171c0.162,0.113,0.353,0.237,0.57,0.372c0.219,0.135,0.482,0.259,0.792,0.373
		c0.309,0.113,0.693,0.17,1.153,0.17c0.381,0,0.71-0.048,0.988-0.146c0.277-0.097,0.507-0.229,0.689-0.397
		c0.183-0.168,0.317-0.359,0.405-0.574c0.087-0.215,0.131-0.443,0.131-0.688c0-0.329-0.088-0.598-0.262-0.809
		c-0.175-0.21-0.407-0.392-0.696-0.543c-0.29-0.151-0.619-0.285-0.987-0.403c-0.369-0.118-0.744-0.244-1.125-0.379
		s-0.755-0.29-1.124-0.467s-0.698-0.402-0.987-0.676c-0.29-0.273-0.522-0.605-0.696-0.997c-0.175-0.392-0.262-0.869-0.262-1.433
		c0-0.514,0.097-1.002,0.291-1.465s0.48-0.871,0.857-1.225c0.376-0.354,0.84-0.633,1.392-0.839c0.551-0.206,1.188-0.31,1.909-0.31
		c0.817,0,1.56,0.139,2.226,0.417c0.666,0.277,1.226,0.656,1.678,1.136L50.713,464.048z"/>
</g>
</svg>
