<?xml version="1.0" encoding="utf-8"?>
<!-- Generator: Adobe Illustrator 19.0.0, SVG Export Plug-In . SVG Version: 6.00 Build 0)  -->
<svg version="1.2" baseProfile="tiny" id="Layer_1" xmlns="http://www.w3.org/2000/svg" xmlns:xlink="http://www.w3.org/1999/xlink"
	 x="0px" y="0px" viewBox="0 0 223.52 102.89" xml:space="preserve">
<linearGradient id="SVGID_1_" gradientUnits="userSpaceOnUse" x1="68.0512" y1="83.9981" x2="68.0512" y2="89.7598">
	<stop  offset="0" style="stop-color:#A1664C"/>
	<stop  offset="0.2148" style="stop-color:#9F644A"/>
	<stop  offset="0.4187" style="stop-color:#965E45"/>
	<stop  offset="0.6184" style="stop-color:#89543C"/>
	<stop  offset="0.8141" style="stop-color:#76452F"/>
	<stop  offset="1" style="stop-color:#613520"/>
</linearGradient>
<path fill="url(#SVGID_1_)" d="M62.3,84h11.51v5.76H62.3V84z"/>
<linearGradient id="SVGID_2_" gradientUnits="userSpaceOnUse" x1="156.3911" y1="83.9981" x2="156.3911" y2="89.7598">
	<stop  offset="0" style="stop-color:#A1664C"/>
	<stop  offset="0.2148" style="stop-color:#9F644A"/>
	<stop  offset="0.4187" style="stop-color:#965E45"/>
	<stop  offset="0.6184" style="stop-color:#89543C"/>
	<stop  offset="0.8141" style="stop-color:#76452F"/>
	<stop  offset="1" style="stop-color:#613520"/>
</linearGradient>
<path fill="url(#SVGID_2_)" d="M150.64,84h11.51v5.76h-11.51V84z"/>
<g>
	<linearGradient id="SVGID_3_" gradientUnits="userSpaceOnUse" x1="9.1091" y1="6.3403" x2="9.1091" y2="22.9566">
		<stop  offset="0" style="stop-color:#A1664C"/>
		<stop  offset="0.2148" style="stop-color:#9F644A"/>
		<stop  offset="0.4187" style="stop-color:#965E45"/>
		<stop  offset="0.6184" style="stop-color:#89543C"/>
		<stop  offset="0.8141" style="stop-color:#76452F"/>
		<stop  offset="1" style="stop-color:#613520"/>
	</linearGradient>
	<path fill="url(#SVGID_3_)" d="M5.96,6.37C6.03,6.38,6.1,6.4,6.16,6.44c0.06,0.03,0.11,0.08,0.16,0.14
		c0.05,0.06,0.1,0.14,0.15,0.25l5.69,11.33c0.01-0.22,0.02-0.44,0.04-0.65c0.02-0.21,0.03-0.41,0.05-0.59l1.13-10.58h2.31
		l-1.79,16.6l-1.34,0c-0.2,0-0.37-0.04-0.51-0.11c-0.14-0.08-0.26-0.21-0.35-0.41L6.05,11.1c-0.01,0.18-0.03,0.36-0.04,0.53
		c-0.01,0.17-0.02,0.34-0.04,0.49L4.83,22.96l-2.31,0L4.3,6.35h1.37C5.78,6.35,5.88,6.35,5.96,6.37z"/>
	<linearGradient id="SVGID_4_" gradientUnits="userSpaceOnUse" x1="21.717" y1="6.3262" x2="21.717" y2="22.9443">
		<stop  offset="0" style="stop-color:#A1664C"/>
		<stop  offset="0.2148" style="stop-color:#9F644A"/>
		<stop  offset="0.4187" style="stop-color:#965E45"/>
		<stop  offset="0.6184" style="stop-color:#89543C"/>
		<stop  offset="0.8141" style="stop-color:#76452F"/>
		<stop  offset="1" style="stop-color:#613520"/>
	</linearGradient>
	<path fill="url(#SVGID_4_)" d="M28.31,22.93h-2.03c-0.23,0-0.41-0.06-0.55-0.18c-0.14-0.12-0.22-0.28-0.25-0.49l-0.61-3.47l-5.43,0
		l-1.35,3.47c-0.08,0.18-0.2,0.34-0.36,0.47c-0.17,0.14-0.36,0.21-0.56,0.21l-2.06,0.01l7.03-16.62h2.67L28.31,22.93z M20.26,16.69
		l4.24,0L23.51,11c-0.05-0.27-0.11-0.57-0.16-0.87C23.3,9.82,23.25,9.48,23.2,9.1c-0.13,0.38-0.25,0.74-0.38,1.06
		c-0.12,0.32-0.24,0.61-0.35,0.85L20.26,16.69z"/>
	<linearGradient id="SVGID_5_" gradientUnits="userSpaceOnUse" x1="33.8554" y1="6.3101" x2="33.8554" y2="22.9233">
		<stop  offset="0" style="stop-color:#A1664C"/>
		<stop  offset="0.2148" style="stop-color:#9F644A"/>
		<stop  offset="0.4187" style="stop-color:#965E45"/>
		<stop  offset="0.6184" style="stop-color:#89543C"/>
		<stop  offset="0.8141" style="stop-color:#76452F"/>
		<stop  offset="1" style="stop-color:#613520"/>
	</linearGradient>
	<path fill="url(#SVGID_5_)" d="M39.29,6.31l-0.27,2.44l-3.99,0.01l-1.52,14.16l-2.6,0l1.51-14.16l-4,0.01l0.26-2.45L39.29,6.31z"/>
	<linearGradient id="SVGID_6_" gradientUnits="userSpaceOnUse" x1="45.6994" y1="6.2925" x2="45.6994" y2="23.0918">
		<stop  offset="0" style="stop-color:#A1664C"/>
		<stop  offset="0.2148" style="stop-color:#9F644A"/>
		<stop  offset="0.4187" style="stop-color:#965E45"/>
		<stop  offset="0.6184" style="stop-color:#89543C"/>
		<stop  offset="0.8141" style="stop-color:#76452F"/>
		<stop  offset="1" style="stop-color:#613520"/>
	</linearGradient>
	<path fill="url(#SVGID_6_)" d="M44.74,20.52c0.47,0,0.9-0.1,1.29-0.3c0.39-0.21,0.74-0.49,1.03-0.86c0.29-0.37,0.54-0.82,0.73-1.34
		c0.19-0.52,0.32-1.1,0.39-1.74l1.07-9.98l2.61,0l-1.06,9.98c-0.11,0.98-0.33,1.89-0.69,2.72c-0.35,0.83-0.8,1.56-1.34,2.16
		c-0.55,0.61-1.18,1.08-1.91,1.42c-0.73,0.34-1.53,0.51-2.39,0.51c-0.79,0-1.48-0.14-2.1-0.42c-0.61-0.28-1.13-0.67-1.55-1.18
		c-0.42-0.5-0.74-1.11-0.96-1.8c-0.22-0.7-0.33-1.47-0.33-2.32c0-0.34,0.02-0.71,0.06-1.09l1.05-9.98l2.62-0.01l-1.07,9.97
		c-0.02,0.14-0.02,0.29-0.03,0.42c-0.01,0.14-0.01,0.27-0.01,0.4c0,0.52,0.06,0.99,0.17,1.41c0.11,0.42,0.28,0.78,0.49,1.08
		c0.22,0.3,0.49,0.53,0.81,0.69C43.95,20.44,44.32,20.52,44.74,20.52z"/>
	<linearGradient id="SVGID_7_" gradientUnits="userSpaceOnUse" x1="57.9352" y1="6.2881" x2="57.9352" y2="22.9004">
		<stop  offset="0" style="stop-color:#A1664C"/>
		<stop  offset="0.2148" style="stop-color:#9F644A"/>
		<stop  offset="0.4187" style="stop-color:#965E45"/>
		<stop  offset="0.6184" style="stop-color:#89543C"/>
		<stop  offset="0.8141" style="stop-color:#76452F"/>
		<stop  offset="1" style="stop-color:#613520"/>
	</linearGradient>
	<path fill="url(#SVGID_7_)" d="M55.9,16.35l-0.7,6.54l-2.6,0.01l1.77-16.61l4.14,0c0.84,0,1.56,0.1,2.16,0.3
		c0.6,0.2,1.09,0.49,1.47,0.85c0.39,0.36,0.67,0.79,0.85,1.3c0.18,0.51,0.27,1.06,0.27,1.66c0,0.64-0.08,1.25-0.24,1.81
		c-0.16,0.56-0.38,1.08-0.68,1.54c-0.29,0.46-0.66,0.86-1.09,1.21c-0.43,0.35-0.91,0.61-1.46,0.81c0.15,0.11,0.3,0.24,0.42,0.39
		c0.13,0.16,0.24,0.34,0.33,0.56l2.61,6.19h-2.35c-0.22,0-0.41-0.05-0.56-0.16c-0.15-0.1-0.26-0.25-0.34-0.44l-2.14-5.38
		c-0.08-0.2-0.18-0.34-0.3-0.43c-0.12-0.09-0.3-0.13-0.55-0.13H55.9z M56.74,8.59l-0.61,5.64h1.51c0.52,0,0.97-0.09,1.36-0.26
		c0.38-0.17,0.69-0.41,0.93-0.71c0.24-0.3,0.43-0.66,0.55-1.06c0.12-0.41,0.18-0.84,0.18-1.31c0-0.72-0.2-1.28-0.59-1.69
		c-0.39-0.4-0.99-0.6-1.8-0.6L56.74,8.59z"/>
	<linearGradient id="SVGID_8_" gradientUnits="userSpaceOnUse" x1="69.8862" y1="6.2661" x2="69.8862" y2="22.8858">
		<stop  offset="0" style="stop-color:#A1664C"/>
		<stop  offset="0.2148" style="stop-color:#9F644A"/>
		<stop  offset="0.4187" style="stop-color:#965E45"/>
		<stop  offset="0.6184" style="stop-color:#89543C"/>
		<stop  offset="0.8141" style="stop-color:#76452F"/>
		<stop  offset="1" style="stop-color:#613520"/>
	</linearGradient>
	<path fill="url(#SVGID_8_)" d="M76.48,22.87l-2.03,0.01c-0.23,0-0.41-0.06-0.55-0.19c-0.13-0.12-0.22-0.29-0.25-0.49l-0.61-3.47
		l-5.44,0l-1.34,3.47c-0.08,0.17-0.2,0.33-0.36,0.47c-0.17,0.14-0.36,0.21-0.57,0.21h-2.05l7.03-16.61l2.67-0.01L76.48,22.87z
		 M68.43,16.63l4.24-0.01l-0.99-5.68c-0.05-0.28-0.11-0.57-0.16-0.87c-0.06-0.31-0.11-0.65-0.15-1.04
		c-0.13,0.38-0.25,0.74-0.38,1.07c-0.12,0.32-0.24,0.61-0.35,0.85L68.43,16.63z"/>
	<linearGradient id="SVGID_9_" gradientUnits="userSpaceOnUse" x1="81.7338" y1="6.2554" x2="81.7338" y2="22.8696">
		<stop  offset="0" style="stop-color:#A1664C"/>
		<stop  offset="0.2148" style="stop-color:#9F644A"/>
		<stop  offset="0.4187" style="stop-color:#965E45"/>
		<stop  offset="0.6184" style="stop-color:#89543C"/>
		<stop  offset="0.8141" style="stop-color:#76452F"/>
		<stop  offset="1" style="stop-color:#613520"/>
	</linearGradient>
	<path fill="url(#SVGID_9_)" d="M80.52,20.4l5.3,0l-0.25,2.47l-7.93,0.01l1.78-16.6l2.61-0.01L80.52,20.4z"/>
</g>
<linearGradient id="XMLID_47_" gradientUnits="userSpaceOnUse" x1="88.0756" y1="13.4206" x2="105.9946" y2="13.4206">
	<stop  offset="0" style="stop-color:#A1664C"/>
	<stop  offset="0.2148" style="stop-color:#9F644A"/>
	<stop  offset="0.4187" style="stop-color:#965E45"/>
	<stop  offset="0.6184" style="stop-color:#89543C"/>
	<stop  offset="0.8141" style="stop-color:#76452F"/>
	<stop  offset="1" style="stop-color:#613520"/>
</linearGradient>
<path id="XMLID_1_" fill="url(#XMLID_47_)" d="M89.15,26.87l-0.06-0.04c-0.26-0.07-0.48-0.23-0.66-0.47
	c-0.1-0.14-0.18-0.29-0.25-0.46l-0.03-0.08l-0.08-0.02v-0.37l0.06-0.06l-0.01,0c0.13-0.33,0.28-0.64,0.43-0.95
	c0.39-0.78,0.87-1.56,1.47-2.39c0.45-0.62,0.93-1.2,1.41-1.71c0.15-0.16,0.59-0.61,0.59-0.61l-0.5-0.62
	c-0.2-0.24-0.38-0.48-0.55-0.74c-0.34-0.53-0.59-1.13-0.73-1.8c-0.13-0.59-0.17-1.2-0.13-1.81c0.09-1.4,0.56-2.65,1.41-3.73
	c0.23-0.29,0.5-0.56,0.82-0.85C93,9.57,93.71,9.04,94.5,8.53c0.64-0.41,1.34-0.82,2.13-1.26l2.13-1.2c0.77-0.43,1.45-0.85,2.11-1.29
	c0.62-0.42,1.16-0.82,1.63-1.22c0.46-0.39,0.92-0.85,1.36-1.37c0.44-0.51,0.81-1.01,1.12-1.53l0.05-0.09
	c0.05-0.08,0.09-0.16,0.13-0.24c0.05-0.08,0.1-0.17,0.19-0.25l0.07-0.06c0,0,0.14-0.08,0.27-0.05s0.22,0.21,0.22,0.21
	s0.08,0.26,0.07,0.43c-0.02,0.17-0.04,0.44-0.06,0.6l-0.06,0.58c-0.02,0.18-0.04,0.36-0.05,0.55c0,0-0.29,2.84-0.31,3.06l-0.05,0.46
	c-0.02,0.22-0.04,0.46-0.07,0.68c-0.02,0.15-0.03,0.3-0.04,0.46l-0.26,2.61c-0.02,0.16-0.03,0.31-0.04,0.46l-0.17,1.77
	c-0.02,0.19-0.09,0.77-0.09,0.77c-0.06,0.42-0.13,0.84-0.21,1.24c-0.15,0.73-0.33,1.37-0.53,1.96c-0.26,0.74-0.55,1.38-0.89,1.95
	c-0.31,0.51-0.65,0.95-1.04,1.34c-0.46,0.45-0.99,0.81-1.6,1.1c-0.43,0.2-0.89,0.36-1.37,0.47c-0.37,0.08-0.7,0.13-1.03,0.16
	c-0.33,0.03-0.66,0.05-0.99,0.05c-0.18,0-0.37-0.01-0.55-0.02c-0.17,0-0.35-0.01-0.53-0.03c-0.19-0.02-0.94-0.1-0.94-0.1
	s-0.41-0.06-0.52-0.08l-0.68-0.11l-0.82-0.15c-0.15,0.2-0.26,0.38-0.37,0.56c-0.26,0.42-0.51,0.89-0.77,1.45
	c-0.42,0.9-0.8,1.89-1.18,3.05c-0.09,0.28-0.18,0.56-0.26,0.84c-0.04,0.15-0.13,0.25-0.26,0.32c-0.17,0.09-0.33,0.15-0.49,0.19
	l-0.1,0.03H89.15z M91.38,21.66c-0.41,0.5-0.81,1.03-1.17,1.58c-0.46,0.71-0.81,1.33-1.09,1.94c-0.04,0.08-0.07,0.16-0.11,0.24
	l-0.08,0.18c0.04,0.02,0.09,0.15,0.17,0.24c0.08,0.11,0.17,0.16,0.3,0.17l0,0c0.11,0,0.22-0.02,0.34-0.07l0.03-0.1
	c0.08-0.27,0.17-0.53,0.26-0.8c0.37-1.12,0.76-2.11,1.19-3.03C91.27,21.89,91.33,21.77,91.38,21.66z M93.35,19.59
	c0.41,0.08,0.82,0.15,1.24,0.22c0.38,0.06,0.77,0.11,1.16,0.15c0.33,0.03,0.67,0.05,1,0.07c0.11,0,0.22,0,0.33,0
	c0.29,0,0.57-0.01,0.85-0.04c0.34-0.03,0.66-0.07,0.97-0.14c0.46-0.1,0.88-0.24,1.26-0.41c0.52-0.24,0.98-0.55,1.36-0.93
	c0.32-0.31,0.61-0.67,0.86-1.08c0.07-0.11,0.13-0.22,0.2-0.33l-8.04,0.29c-0.21,0.36-0.41,0.72-0.61,1.09
	C93.73,18.85,93.54,19.22,93.35,19.59z M92.12,11.58c-0.26,0.35-0.5,0.75-0.7,1.19c-0.32,0.73-0.49,1.52-0.49,2.35
	c0,0.46,0.04,0.88,0.13,1.26c0.1,0.5,0.28,0.95,0.52,1.35c0.16,0.26,0.36,0.53,0.6,0.81c0.08,0.1,0.46,0.56,0.49,0.6
	c0,0,0.18-0.35,0.27-0.52l0.47-0.88l0.43-0.76L92.12,11.58z M96.79,13.85c-0.23,0.31-0.46,0.62-0.68,0.95
	c-0.28,0.42-0.54,0.85-0.8,1.29c-0.1,0.16-0.19,0.32-0.28,0.47c0,0,6.38-0.23,6.73-0.25c0.16,0,1.23-0.04,1.23-0.04
	c0.36-0.85,0.64-1.82,0.85-2.93L96.79,13.85z M92.76,10.93c0.22,0.71,1.24,3.91,1.63,5.14l0.34-0.58c0.41-0.69,0.85-1.36,1.31-1.98
	l0.08-0.11L95.1,9.17C94.2,9.74,93.42,10.32,92.76,10.93z M99.54,10.58l-0.03,0.06l-0.32,0.35c-0.43,0.47-0.85,0.95-1.27,1.44
	c-0.15,0.18-0.3,0.36-0.45,0.54l6.49-0.47L104,12.3c0.03-0.24,0.06-0.48,0.08-0.71c0.02-0.25,0.14-1.49,0.14-1.49
	C104.2,10.09,99.78,10.56,99.54,10.58z M96.74,12.61c0.32-0.39,0.63-0.77,0.96-1.15c0.41-0.46,0.82-0.93,1.23-1.39l-0.09-0.75
	l-0.28-2.16c-0.3,0.17-1.63,0.91-1.63,0.91c-0.34,0.19-0.68,0.39-1.01,0.59l-0.11,0.06C96.01,9.53,96.74,12.61,96.74,12.61z
	 M102.36,7.83c-0.14,0.02-0.29,0.05-0.44,0.06c-0.43,0.54-0.9,1.06-1.36,1.58l-0.17,0.19c0,0,3.43-0.36,3.59-0.38
	c0.11-0.01,0.21-0.02,0.31-0.03c0.04-0.39,0.13-1.28,0.17-1.75L102.36,7.83z M99.32,6.74c0.06,0.54,0.13,1.08,0.2,1.62l0.12,0.94
	c0.16-0.18,0.32-0.37,0.49-0.55c0.41-0.46,0.81-0.92,1.2-1.39l-0.27-1.68l-0.3,0.19C100.29,6.17,99.81,6.46,99.32,6.74z
	 M104.87,3.42c-0.12,0.31-0.23,0.57-0.32,0.75c-0.45,0.82-0.98,1.63-1.58,2.42c-0.09,0.12-0.19,0.24-0.28,0.36l1.86-0.28
	L104.87,3.42z M102.01,6.52c0.35-0.45,0.64-0.85,0.91-1.24c0.51-0.75,0.93-1.47,1.28-2.19c-0.05,0.05-0.09,0.1-0.14,0.15
	c-0.34,0.37-0.71,0.72-1.09,1.04c-0.38,0.32-0.78,0.62-1.18,0.9C101.79,5.19,102.01,6.52,102.01,6.52z"/>
<linearGradient id="SVGID_10_" gradientUnits="userSpaceOnUse" x1="16.6248" y1="28.5161" x2="16.6248" y2="67.8823">
	<stop  offset="0" style="stop-color:#A1664C"/>
	<stop  offset="0.2148" style="stop-color:#9F644A"/>
	<stop  offset="0.4187" style="stop-color:#965E45"/>
	<stop  offset="0.6184" style="stop-color:#89543C"/>
	<stop  offset="0.8141" style="stop-color:#76452F"/>
	<stop  offset="1" style="stop-color:#613520"/>
</linearGradient>
<path fill="url(#SVGID_10_)" d="M11.1,54.72v13.16H2.29V28.52h13.39c2.67,0,4.97,0.33,6.89,0.98c1.92,0.66,3.5,1.57,4.74,2.72
	c1.24,1.15,2.16,2.51,2.75,4.08c0.59,1.57,0.89,3.26,0.89,5.08c0,1.96-0.31,3.76-0.91,5.4c-0.61,1.64-1.54,3.04-2.79,4.21
	c-1.25,1.17-2.84,2.09-4.76,2.74c-1.92,0.66-4.19,0.98-6.81,0.98H11.1z M11.1,47.83h4.59c2.29,0,3.94-0.57,4.95-1.7
	c1.01-1.14,1.51-2.72,1.51-4.75c0-0.9-0.13-1.72-0.39-2.46c-0.26-0.74-0.66-1.37-1.19-1.91c-0.53-0.53-1.2-0.94-2.01-1.23
	c-0.81-0.29-1.77-0.43-2.88-0.43H11.1V47.83z"/>
<linearGradient id="SVGID_11_" gradientUnits="userSpaceOnUse" x1="50.9697" y1="28.5161" x2="50.9697" y2="67.8823">
	<stop  offset="0" style="stop-color:#A1664C"/>
	<stop  offset="0.2148" style="stop-color:#9F644A"/>
	<stop  offset="0.4187" style="stop-color:#965E45"/>
	<stop  offset="0.6184" style="stop-color:#89543C"/>
	<stop  offset="0.8141" style="stop-color:#76452F"/>
	<stop  offset="1" style="stop-color:#613520"/>
</linearGradient>
<path fill="url(#SVGID_11_)" d="M44.25,53.32v14.56h-8.81V28.52h12.35c2.75,0,5.08,0.29,7.02,0.88c1.94,0.58,3.52,1.4,4.74,2.45
	c1.23,1.04,2.11,2.28,2.67,3.7c0.56,1.42,0.83,2.97,0.83,4.65c0,1.28-0.17,2.48-0.49,3.62c-0.33,1.13-0.82,2.18-1.47,3.15
	c-0.65,0.96-1.45,1.82-2.4,2.58c-0.95,0.76-2.04,1.38-3.27,1.86c0.59,0.31,1.14,0.69,1.64,1.15c0.5,0.46,0.96,1,1.35,1.64l8.08,13.7
	h-7.97c-1.48,0-2.54-0.58-3.18-1.73l-6.31-11.43c-0.3-0.49-0.63-0.84-0.99-1.07c-0.36-0.22-0.89-0.34-1.56-0.34H44.25z M44.25,47.02
	h3.54c1.2,0,2.22-0.16,3.06-0.47c0.84-0.32,1.53-0.75,2.07-1.31c0.54-0.56,0.93-1.21,1.17-1.96c0.24-0.75,0.37-1.56,0.37-2.42
	c0-1.73-0.54-3.08-1.63-4.05c-1.08-0.97-2.77-1.46-5.04-1.46h-3.54V47.02z"/>
<linearGradient id="SVGID_12_" gradientUnits="userSpaceOnUse" x1="86.5656" y1="28.0835" x2="86.5656" y2="68.3145">
	<stop  offset="0" style="stop-color:#A1664C"/>
	<stop  offset="0.2148" style="stop-color:#9F644A"/>
	<stop  offset="0.4187" style="stop-color:#965E45"/>
	<stop  offset="0.6184" style="stop-color:#89543C"/>
	<stop  offset="0.8141" style="stop-color:#76452F"/>
	<stop  offset="1" style="stop-color:#613520"/>
</linearGradient>
<path fill="url(#SVGID_12_)" d="M106.29,48.19c0,2.84-0.47,5.5-1.42,7.94c-0.95,2.45-2.28,4.58-4,6.39
	c-1.72,1.81-3.79,3.23-6.21,4.26c-2.43,1.03-5.11,1.54-8.07,1.54c-2.95,0-5.65-0.51-8.08-1.54c-2.43-1.03-4.51-2.45-6.24-4.26
	c-1.73-1.81-3.06-3.94-4.01-6.39c-0.95-2.45-1.42-5.1-1.42-7.94c0-2.85,0.47-5.49,1.42-7.94c0.95-2.45,2.28-4.58,4.01-6.38
	c1.73-1.8,3.81-3.21,6.24-4.24c2.43-1.03,5.12-1.54,8.08-1.54c2.96,0,5.64,0.52,8.07,1.55c2.42,1.04,4.5,2.46,6.21,4.26
	c1.72,1.8,3.05,3.93,4,6.38C105.82,42.72,106.29,45.36,106.29,48.19z M97.28,48.19c0-1.95-0.24-3.7-0.73-5.26
	c-0.49-1.55-1.19-2.88-2.1-3.96c-0.91-1.08-2.03-1.91-3.35-2.49c-1.32-0.57-2.82-0.86-4.51-0.86c-1.7,0-3.22,0.29-4.54,0.86
	c-1.33,0.58-2.45,1.4-3.36,2.49c-0.91,1.08-1.61,2.4-2.1,3.96c-0.49,1.56-0.73,3.31-0.73,5.26c0,1.96,0.24,3.72,0.73,5.28
	c0.49,1.56,1.19,2.88,2.1,3.96c0.91,1.08,2.03,1.91,3.36,2.48c1.33,0.56,2.84,0.85,4.54,0.85c1.69,0,3.19-0.28,4.51-0.85
	c1.32-0.57,2.44-1.39,3.35-2.48c0.91-1.08,1.61-2.4,2.1-3.96C97.03,51.91,97.28,50.15,97.28,48.19z"/>
<linearGradient id="SVGID_13_" gradientUnits="userSpaceOnUse" x1="122.7626" y1="28.5161" x2="122.7626" y2="67.8823">
	<stop  offset="0" style="stop-color:#A1664C"/>
	<stop  offset="0.2148" style="stop-color:#9F644A"/>
	<stop  offset="0.4187" style="stop-color:#965E45"/>
	<stop  offset="0.6184" style="stop-color:#89543C"/>
	<stop  offset="0.8141" style="stop-color:#76452F"/>
	<stop  offset="1" style="stop-color:#613520"/>
</linearGradient>
<path fill="url(#SVGID_13_)" d="M137.85,28.52v7.24h-10.69v32.13h-8.81V35.76h-10.69v-7.24H137.85z"/>
<linearGradient id="SVGID_14_" gradientUnits="userSpaceOnUse" x1="154.5275" y1="28.5161" x2="154.5275" y2="67.8823">
	<stop  offset="0" style="stop-color:#A1664C"/>
	<stop  offset="0.2148" style="stop-color:#9F644A"/>
	<stop  offset="0.4187" style="stop-color:#965E45"/>
	<stop  offset="0.6184" style="stop-color:#89543C"/>
	<stop  offset="0.8141" style="stop-color:#76452F"/>
	<stop  offset="1" style="stop-color:#613520"/>
</linearGradient>
<path fill="url(#SVGID_14_)" d="M166.75,28.52v7.02h-15.59v9.19h11.94v6.76h-11.94v9.37h15.59v7.03h-24.44V28.52H166.75z"/>
<linearGradient id="SVGID_15_" gradientUnits="userSpaceOnUse" x1="176.5993" y1="28.5161" x2="176.5993" y2="67.8823">
	<stop  offset="0" style="stop-color:#A1664C"/>
	<stop  offset="0.2148" style="stop-color:#9F644A"/>
	<stop  offset="0.4187" style="stop-color:#965E45"/>
	<stop  offset="0.6184" style="stop-color:#89543C"/>
	<stop  offset="0.8141" style="stop-color:#76452F"/>
	<stop  offset="1" style="stop-color:#613520"/>
</linearGradient>
<path fill="url(#SVGID_15_)" d="M181.03,67.88h-8.86V28.52h8.86V67.88z"/>
<linearGradient id="SVGID_16_" gradientUnits="userSpaceOnUse" x1="204.9514" y1="28.5161" x2="204.9514" y2="67.8823">
	<stop  offset="0" style="stop-color:#A1664C"/>
	<stop  offset="0.2148" style="stop-color:#9F644A"/>
	<stop  offset="0.4187" style="stop-color:#965E45"/>
	<stop  offset="0.6184" style="stop-color:#89543C"/>
	<stop  offset="0.8141" style="stop-color:#76452F"/>
	<stop  offset="1" style="stop-color:#613520"/>
</linearGradient>
<path fill="url(#SVGID_16_)" d="M193.98,28.57c0.26,0.04,0.5,0.1,0.71,0.2c0.21,0.1,0.41,0.24,0.6,0.42
	c0.19,0.18,0.41,0.42,0.65,0.73l18.04,23.64c-0.07-0.76-0.12-1.49-0.16-2.2c-0.03-0.71-0.05-1.38-0.05-2.01V28.52h7.77v39.37h-4.59
	c-0.68,0-1.25-0.11-1.71-0.34c-0.46-0.22-0.92-0.62-1.37-1.17l-17.9-23.45c0.05,0.68,0.1,1.36,0.13,2.01
	c0.04,0.66,0.05,1.27,0.05,1.85v21.1h-7.77V28.52h4.64C193.4,28.52,193.72,28.53,193.98,28.57z"/>
<linearGradient id="SVGID_17_" gradientUnits="userSpaceOnUse" x1="14.798" y1="71.0147" x2="14.798" y2="102.8945">
	<stop  offset="0" style="stop-color:#A1664C"/>
	<stop  offset="0.2148" style="stop-color:#9F644A"/>
	<stop  offset="0.4187" style="stop-color:#965E45"/>
	<stop  offset="0.6184" style="stop-color:#89543C"/>
	<stop  offset="0.8141" style="stop-color:#76452F"/>
	<stop  offset="1" style="stop-color:#613520"/>
</linearGradient>
<path fill="url(#SVGID_17_)" d="M29.6,86.94c0,2.26-0.36,4.35-1.07,6.29c-0.71,1.94-1.71,3.63-3,5.06
	c-1.29,1.44-2.84,2.56-4.66,3.37c-1.82,0.81-3.83,1.22-6.05,1.22s-4.24-0.41-6.06-1.22c-1.82-0.81-3.39-1.94-4.68-3.37
	c-1.3-1.43-2.3-3.12-3.01-5.06C0.35,91.3,0,89.2,0,86.94c0-2.26,0.35-4.35,1.06-6.29s1.71-3.63,3.01-5.05
	c1.3-1.43,2.86-2.55,4.68-3.36c1.82-0.81,3.84-1.22,6.06-1.22s4.23,0.41,6.05,1.23c1.82,0.82,3.37,1.95,4.66,3.37
	c1.29,1.43,2.29,3.11,3,5.05C29.24,82.61,29.6,84.7,29.6,86.94z M22.83,86.94c0-1.54-0.18-2.93-0.55-4.17
	c-0.37-1.23-0.89-2.28-1.57-3.14c-0.68-0.86-1.52-1.51-2.51-1.97c-0.99-0.46-2.12-0.68-3.38-0.68c-1.28,0-2.41,0.23-3.41,0.68
	c-1,0.46-1.84,1.11-2.52,1.97c-0.68,0.86-1.21,1.9-1.57,3.14c-0.36,1.24-0.55,2.62-0.55,4.17c0,1.56,0.18,2.95,0.55,4.19
	c0.37,1.23,0.89,2.28,1.57,3.14c0.68,0.86,1.52,1.51,2.52,1.96c1,0.45,2.13,0.67,3.41,0.67c1.26,0,2.39-0.23,3.38-0.67
	c0.99-0.45,1.83-1.1,2.51-1.96c0.68-0.86,1.21-1.9,1.57-3.14C22.65,89.9,22.83,88.5,22.83,86.94z"/>
<linearGradient id="SVGID_18_" gradientUnits="userSpaceOnUse" x1="45.9191" y1="71.3574" x2="45.9191" y2="102.5518">
	<stop  offset="0" style="stop-color:#A1664C"/>
	<stop  offset="0.2148" style="stop-color:#9F644A"/>
	<stop  offset="0.4187" style="stop-color:#965E45"/>
	<stop  offset="0.6184" style="stop-color:#89543C"/>
	<stop  offset="0.8141" style="stop-color:#76452F"/>
	<stop  offset="1" style="stop-color:#613520"/>
</linearGradient>
<path fill="url(#SVGID_18_)" d="M37.69,71.4c0.19,0.03,0.37,0.08,0.53,0.16c0.16,0.08,0.31,0.19,0.45,0.33
	c0.14,0.14,0.31,0.34,0.49,0.58L52.68,91.2c-0.05-0.6-0.09-1.18-0.12-1.74c-0.03-0.56-0.04-1.1-0.04-1.6V71.36h5.83v31.19h-3.44
	c-0.51,0-0.94-0.09-1.28-0.27c-0.35-0.18-0.69-0.49-1.03-0.93L39.18,82.77c0.04,0.54,0.07,1.07,0.1,1.6
	c0.03,0.52,0.04,1.01,0.04,1.47v16.72h-5.83V71.36h3.48C37.25,71.36,37.49,71.37,37.69,71.4z"/>
<linearGradient id="SVGID_19_" gradientUnits="userSpaceOnUse" x1="85.2509" y1="71.3574" x2="85.2509" y2="102.5518">
	<stop  offset="0" style="stop-color:#A1664C"/>
	<stop  offset="0.2148" style="stop-color:#9F644A"/>
	<stop  offset="0.4187" style="stop-color:#965E45"/>
	<stop  offset="0.6184" style="stop-color:#89543C"/>
	<stop  offset="0.8141" style="stop-color:#76452F"/>
	<stop  offset="1" style="stop-color:#613520"/>
</linearGradient>
<path fill="url(#SVGID_19_)" d="M96.57,71.36v5.74h-8.01v25.46h-6.61V77.09h-8.02v-5.74H96.57z"/>
<linearGradient id="SVGID_20_" gradientUnits="userSpaceOnUse" x1="112.3452" y1="71.3574" x2="112.3452" y2="102.5518">
	<stop  offset="0" style="stop-color:#A1664C"/>
	<stop  offset="0.2148" style="stop-color:#9F644A"/>
	<stop  offset="0.4187" style="stop-color:#965E45"/>
	<stop  offset="0.6184" style="stop-color:#89543C"/>
	<stop  offset="0.8141" style="stop-color:#76452F"/>
	<stop  offset="1" style="stop-color:#613520"/>
</linearGradient>
<path fill="url(#SVGID_20_)" d="M124.78,102.55h-6.65V89.36h-11.57v13.19h-6.65V71.36h6.65V84.4h11.57V71.36h6.65V102.55z"/>
<linearGradient id="SVGID_21_" gradientUnits="userSpaceOnUse" x1="139.4594" y1="71.3574" x2="139.4594" y2="102.5518">
	<stop  offset="0" style="stop-color:#A1664C"/>
	<stop  offset="0.2148" style="stop-color:#9F644A"/>
	<stop  offset="0.4187" style="stop-color:#965E45"/>
	<stop  offset="0.6184" style="stop-color:#89543C"/>
	<stop  offset="0.8141" style="stop-color:#76452F"/>
	<stop  offset="1" style="stop-color:#613520"/>
</linearGradient>
<path fill="url(#SVGID_21_)" d="M148.63,71.36v5.57h-11.69v7.28h8.95v5.35h-8.95v7.43h11.69v5.57h-18.34V71.36H148.63z"/>
<linearGradient id="SVGID_22_" gradientUnits="userSpaceOnUse" x1="178.4975" y1="71.0147" x2="178.4975" y2="102.8945">
	<stop  offset="0" style="stop-color:#A1664C"/>
	<stop  offset="0.2148" style="stop-color:#9F644A"/>
	<stop  offset="0.4187" style="stop-color:#965E45"/>
	<stop  offset="0.6184" style="stop-color:#89543C"/>
	<stop  offset="0.8141" style="stop-color:#76452F"/>
	<stop  offset="1" style="stop-color:#613520"/>
</linearGradient>
<path fill="url(#SVGID_22_)" d="M186.46,102.1c-1.65,0.53-3.37,0.79-5.17,0.79c-2.35,0-4.48-0.4-6.4-1.21
	c-1.92-0.81-3.57-1.92-4.94-3.34c-1.37-1.42-2.42-3.1-3.17-5.05c-0.74-1.95-1.11-4.07-1.11-6.35c0-2.33,0.35-4.46,1.05-6.41
	c0.7-1.95,1.71-3.63,3.02-5.04c1.31-1.41,2.89-2.51,4.75-3.3c1.86-0.78,3.93-1.18,6.23-1.18c1.19,0,2.3,0.11,3.34,0.32
	c1.04,0.21,2,0.51,2.88,0.88c0.88,0.37,1.68,0.81,2.41,1.33c0.73,0.51,1.38,1.07,1.95,1.67l-1.92,3.19c-0.3,0.5-0.69,0.81-1.16,0.92
	c-0.48,0.11-0.99-0.01-1.53-0.39c-0.52-0.34-1.01-0.64-1.48-0.89c-0.46-0.25-0.94-0.45-1.42-0.61c-0.48-0.16-0.99-0.27-1.52-0.34
	c-0.54-0.07-1.13-0.11-1.8-0.11c-1.24,0-2.35,0.24-3.34,0.72c-0.99,0.48-1.83,1.15-2.53,2.02c-0.7,0.87-1.23,1.92-1.61,3.14
	c-0.38,1.22-0.57,2.58-0.57,4.08c0,1.66,0.21,3.13,0.63,4.41c0.42,1.28,1.01,2.37,1.77,3.25c0.76,0.89,1.67,1.56,2.74,2.02
	c1.06,0.46,2.24,0.7,3.53,0.7c0.79,0,1.51-0.09,2.16-0.26c0.65-0.17,1.27-0.4,1.89-0.68v-4.73h-2.82c-0.42,0-0.74-0.12-0.98-0.36
	c-0.23-0.24-0.35-0.55-0.35-0.92v-3.98h10.13v13.17C189.67,100.73,188.11,101.58,186.46,102.1z"/>
<linearGradient id="SVGID_23_" gradientUnits="userSpaceOnUse" x1="208.7184" y1="71.0147" x2="208.7184" y2="102.8945">
	<stop  offset="0" style="stop-color:#A1664C"/>
	<stop  offset="0.2148" style="stop-color:#9F644A"/>
	<stop  offset="0.4187" style="stop-color:#965E45"/>
	<stop  offset="0.6184" style="stop-color:#89543C"/>
	<stop  offset="0.8141" style="stop-color:#76452F"/>
	<stop  offset="1" style="stop-color:#613520"/>
</linearGradient>
<path fill="url(#SVGID_23_)" d="M223.52,86.94c0,2.26-0.35,4.35-1.06,6.29c-0.71,1.94-1.71,3.63-3,5.06
	c-1.29,1.44-2.84,2.56-4.66,3.37c-1.82,0.81-3.83,1.22-6.05,1.22c-2.22,0-4.24-0.41-6.06-1.22c-1.83-0.81-3.39-1.94-4.68-3.37
	c-1.3-1.43-2.3-3.12-3.01-5.06c-0.71-1.94-1.07-4.04-1.07-6.29c0-2.26,0.36-4.35,1.07-6.29c0.71-1.94,1.71-3.63,3.01-5.05
	c1.3-1.43,2.86-2.55,4.68-3.36c1.82-0.81,3.85-1.22,6.06-1.22c2.21,0,4.23,0.41,6.05,1.23c1.82,0.82,3.37,1.95,4.66,3.37
	c1.29,1.43,2.29,3.11,3,5.05C223.16,82.61,223.52,84.7,223.52,86.94z M216.75,86.94c0-1.54-0.18-2.93-0.55-4.17
	c-0.37-1.23-0.89-2.28-1.58-3.14c-0.68-0.86-1.52-1.51-2.51-1.97c-0.99-0.46-2.12-0.68-3.38-0.68c-1.28,0-2.42,0.23-3.41,0.68
	c-1,0.46-1.84,1.11-2.52,1.97c-0.68,0.86-1.21,1.9-1.57,3.14c-0.36,1.24-0.55,2.62-0.55,4.17c0,1.56,0.18,2.95,0.55,4.19
	c0.37,1.23,0.89,2.28,1.57,3.14c0.69,0.86,1.53,1.51,2.52,1.96c1,0.45,2.13,0.67,3.41,0.67c1.26,0,2.39-0.23,3.38-0.67
	c0.99-0.45,1.83-1.1,2.51-1.96c0.68-0.86,1.21-1.9,1.58-3.14C216.57,89.9,216.75,88.5,216.75,86.94z"/>
<g id="XMLID_40_">
</g>
<g id="XMLID_41_">
</g>
<g id="XMLID_42_">
</g>
<g id="XMLID_43_">
</g>
<g id="XMLID_44_">
</g>
<g id="XMLID_45_">
</g>
</svg>
