<?xml version="1.0" encoding="utf-8"?>
<!-- Generator: Adobe Illustrator 19.0.0, SVG Export Plug-In . SVG Version: 6.00 Build 0)  -->
<svg version="1.1" id="Layer_1" xmlns="http://www.w3.org/2000/svg" xmlns:xlink="http://www.w3.org/1999/xlink" x="0px" y="0px"
	 viewBox="31.8 94.8 467.8 267.9" style="enable-background:new 31.8 94.8 467.8 267.9;" xml:space="preserve">
<style type="text/css">
	.st0{fill:#498DCB;}
</style>
<path class="st0" d="M162.3,270.4h24.1v12.1h-24.1V270.4z"/>
<path class="st0" d="M347,270.4h24.1v12.1H347V270.4z"/>
<g>
	<path class="st0" d="M44.5,108c0.2,0,0.2,0,0.4,0.2c0.2,0,0.2,0.2,0.4,0.2c0,0.2,0.2,0.2,0.2,0.4l11.9,23.6c0-0.4,0-0.8,0-1.5
		c0-0.4,0-0.8,0.2-1.3l2.3-22.2h4.8L61,142.4h-2.7c-0.4,0-0.8,0-1-0.2c-0.2-0.2-0.6-0.4-0.8-0.8l-11.7-23.6c0,0.4,0,0.8,0,1
		c0,0.4,0,0.6,0,1l-2.3,22.6h-4.8l3.8-34.7h2.9C44.1,108,44.3,108,44.5,108z"/>
	<path class="st0" d="M91.2,142.6H87c-0.4,0-0.8-0.2-1.3-0.4c-0.2-0.2-0.4-0.6-0.4-1l-1.3-7.3H72.8l-2.9,7.3c-0.2,0.4-0.4,0.6-0.8,1
		c-0.4,0.2-0.8,0.4-1.3,0.4h-4.4L78,107.8h5.6L91.2,142.6z M74.4,129.6h8.8l-2.1-11.9c0-0.6-0.2-1.3-0.4-1.9
		c-0.2-0.6-0.2-1.3-0.4-2.1c-0.2,0.8-0.4,1.5-0.8,2.3c-0.2,0.6-0.4,1.3-0.8,1.7L74.4,129.6z"/>
	<path class="st0" d="M114.2,107.8l-0.6,5h-8.4l-3.1,29.7h-5.4l3.1-29.7h-8.4l0.6-5.2L114.2,107.8z"/>
	<path class="st0" d="M125.5,137.6c1,0,1.9-0.2,2.7-0.6c0.8-0.4,1.5-1,2.1-1.9c0.6-0.8,1-1.7,1.5-2.7c0.4-1,0.6-2.3,0.8-3.6
		l2.3-20.9h5.4l-2.3,20.9c-0.2,2.1-0.6,4-1.5,5.6c-0.6,1.7-1.7,3.3-2.7,4.6c-1.3,1.3-2.5,2.3-4,2.9s-3.1,1-5,1
		c-1.7,0-3.1-0.2-4.4-0.8c-1.3-0.6-2.3-1.5-3.1-2.5s-1.5-2.3-2.1-3.8c-0.4-1.5-0.6-3.1-0.6-4.8c0-0.6,0-1.5,0.2-2.3l2.3-20.9h5.4
		l-2.3,20.9c0,0.2,0,0.6,0,0.8c0,0.2,0,0.6,0,0.8c0,1,0.2,2.1,0.4,2.9s0.6,1.7,1,2.3c0.4,0.6,1,1,1.7,1.5
		C123.8,137.6,124.6,137.6,125.5,137.6z"/>
	<path class="st0" d="M148.9,129l-1.5,13.6H142l3.8-34.7h8.6c1.7,0,3.3,0.2,4.6,0.6c1.3,0.4,2.3,1,3.1,1.9c0.8,0.8,1.5,1.7,1.9,2.7
		c0.4,1,0.6,2.3,0.6,3.6s-0.2,2.5-0.4,3.8c-0.4,1.3-0.8,2.3-1.5,3.1c-0.6,1-1.5,1.9-2.3,2.5c-0.8,0.6-1.9,1.3-3.1,1.7
		c0.2,0.2,0.6,0.4,0.8,0.8c0.2,0.4,0.4,0.6,0.6,1.3l5.4,13h-4.8c-0.4,0-0.8-0.2-1.3-0.4c-0.4-0.2-0.6-0.4-0.6-0.8l-4.4-11.3
		c-0.2-0.4-0.4-0.6-0.6-0.8c-0.2-0.2-0.6-0.2-1.3-0.2L148.9,129L148.9,129z M150.6,112.7l-1.3,11.7h3.1c1,0,2.1-0.2,2.9-0.6
		c0.8-0.4,1.5-0.8,1.9-1.5c0.4-0.6,0.8-1.5,1.3-2.3c0.2-0.8,0.4-1.7,0.4-2.7c0-1.5-0.4-2.7-1.3-3.6c-0.8-0.8-2.1-1.3-3.8-1.3
		L150.6,112.7z"/>
	<path class="st0" d="M192,142.6h-4.2c-0.4,0-0.8-0.2-1.3-0.4c-0.2-0.2-0.4-0.6-0.4-1l-1.3-7.3h-11.3l-2.7,7.3
		c-0.2,0.4-0.4,0.6-0.8,1c-0.4,0.2-0.8,0.4-1.3,0.4h-4.4l14.6-34.7h5.6L192,142.6z M175.1,129.4h8.8l-2.1-11.9
		c-0.2-0.6-0.2-1.3-0.4-1.9c-0.2-0.6-0.2-1.3-0.4-2.1c-0.2,0.8-0.4,1.5-0.8,2.3c-0.2,0.6-0.4,1.3-0.6,1.9L175.1,129.4z"/>
	<path class="st0" d="M200.4,137.3h11.1l-0.4,5.2h-16.5l3.8-34.7h5.4L200.4,137.3z"/>
</g>
<path id="XMLID_1_" class="st0" d="M218.6,150.9L218.6,150.9c-0.6-0.2-1-0.6-1.5-1c-0.2-0.2-0.4-0.6-0.4-1v-0.2h-0.2v-0.8l0.2-0.2
	l0,0c0.2-0.6,0.6-1.3,0.8-2.1c0.8-1.7,1.9-3.3,3.1-5c0.8-1.3,1.9-2.5,2.9-3.6c0.4-0.4,1.3-1.3,1.3-1.3l-1-1.3
	c-0.4-0.4-0.8-1-1.3-1.5c-0.6-1-1.3-2.3-1.5-3.8c-0.2-1.3-0.4-2.5-0.2-3.8c0.2-2.9,1.3-5.4,2.9-7.7c0.4-0.6,1-1.3,1.7-1.7
	c1.5-1.3,2.9-2.3,4.6-3.3c1.3-0.8,2.7-1.7,4.4-2.7l4.4-2.5c1.7-0.8,2.9-1.7,4.4-2.7c1.3-0.8,2.5-1.7,3.3-2.5c1-0.8,1.9-1.9,2.9-2.9
	c0.8-1,1.7-2.1,2.3-3.1l0.2-0.2c0.2-0.2,0.2-0.4,0.2-0.4c0.2-0.2,0.2-0.4,0.4-0.4l0.2-0.2c0,0,0.2-0.2,0.6,0s0.4,0.4,0.4,0.4
	s0.2,0.6,0.2,0.8c0,0.4,0,0.8-0.2,1.3l-0.2,1.3c0,0.4,0,0.8-0.2,1.3c0,0-0.6,5.9-0.6,6.5l-0.2,1c0,0.4,0,1-0.2,1.5c0,0.4,0,0.6,0,1
	l-0.6,5.4c0,0.4,0,0.6,0,1l-0.4,3.8c0,0.4-0.2,1.7-0.2,1.7c-0.2,0.8-0.2,1.7-0.4,2.5c-0.4,1.5-0.6,2.9-1,4.2c-0.6,1.5-1.3,2.9-1.9,4
	c-0.6,1-1.5,2.1-2.1,2.7c-1,1-2.1,1.7-3.3,2.3c-0.8,0.4-1.9,0.8-2.9,1c-0.8,0.2-1.5,0.2-2.1,0.4c-0.6,0.2-1.5,0-2.1,0
	c-0.4,0-0.8,0-1.3,0s-0.6,0-1,0s-1.9-0.2-1.9-0.2s-0.8-0.2-1-0.2l-1.5-0.2l-1.7-0.2c-0.4,0.4-0.6,0.8-0.8,1.3
	c-0.6,0.8-1,1.9-1.7,3.1c-0.8,1.9-1.7,4-2.5,6.3c-0.2,0.6-0.4,1.3-0.6,1.7c0,0.2-0.2,0.4-0.6,0.6s-0.6,0.2-1,0.4h-0.2L218.6,150.9
	L218.6,150.9z M223.2,140.1c-0.8,1-1.7,2.1-2.5,3.3c-1,1.5-1.7,2.7-2.3,4c0,0.2-0.2,0.4-0.2,0.4l-0.2,0.4c0,0,0.2,0.4,0.4,0.4
	c0.2,0.2,0.4,0.4,0.6,0.4l0,0c0.2,0,0.4,0,0.6-0.2v-0.2c0.2-0.6,0.4-1,0.6-1.7c0.8-2.3,1.7-4.4,2.5-6.3
	C223,140.5,223,140.3,223.2,140.1z M227.2,135.7c0.8,0.2,1.7,0.2,2.5,0.4c0.8,0.2,1.7,0.2,2.5,0.2c0.6,0,1.5,0,2.1,0.2
	c0.2,0,0.4,0,0.6,0c0.6,0,1.3,0,1.7,0c0.6,0,1.5-0.2,2.1-0.2c1-0.2,1.9-0.4,2.7-0.8c1-0.4,2.1-1.3,2.9-1.9c0.6-0.6,1.3-1.5,1.9-2.3
	c0.2-0.2,0.2-0.4,0.4-0.6l-16.7,0.6c-0.4,0.8-0.8,1.5-1.3,2.3C228.2,134.4,227.6,134.8,227.2,135.7z M224.6,118.9
	c-0.6,0.8-1,1.7-1.5,2.5c-0.6,1.5-1,3.1-1,5c0,1,0,1.9,0.2,2.7c0.2,1,0.6,1.9,1,2.7c0.4,0.6,0.8,1,1.3,1.7c0.2,0.2,1,1.3,1,1.3
	s0.4-0.8,0.6-1l1-1.9l0.8-1.7L224.6,118.9z M234.5,123.7c-0.4,0.6-1,1.3-1.5,2.1c-0.6,0.8-1,1.9-1.7,2.7c-0.2,0.4-0.4,0.6-0.6,1
	c0,0,13.4-0.4,14-0.4c0.4,0,2.5,0,2.5,0c0.8-1.9,1.3-3.8,1.7-6.1L234.5,123.7z M226.1,117.5c0.4,1.5,2.5,8.2,3.3,10.7l0.6-1.3
	c0.8-1.5,1.7-2.9,2.7-4.2l0.2-0.2l-2.1-8.8C229,115.2,227.4,116.2,226.1,117.5z M240.1,116.8L240.1,116.8l-0.6,0.8
	c-0.8,1-1.7,2.1-2.7,2.9c-0.4,0.4-0.6,0.8-0.8,1l13.6-1v-0.4c0-0.4,0.2-1,0.2-1.5c0-0.4,0.2-3.1,0.2-3.1
	C250,115.8,240.8,116.8,240.1,116.8z M234.3,121c0.6-0.8,1.3-1.7,2.1-2.3c0.8-1,1.7-1.9,2.5-2.9l-0.2-1.7l-0.6-4.6
	c-0.6,0.4-3.3,1.9-3.3,1.9c-0.6,0.4-1.5,0.8-2.1,1.3l-0.2,0.2C232.8,114.5,234.3,121,234.3,121z M246.2,111c-0.2,0-0.6,0-0.8,0.2
	c-0.8,1-1.9,2.3-2.9,3.3L242,115c0,0,7.1-0.8,7.5-0.8c0.2,0,0.4,0,0.6,0c0-0.8,0.2-2.7,0.4-3.8L246.2,111z M239.7,108.9
	c0.2,1,0.2,2.3,0.4,3.3l0.2,1.9c0.4-0.4,0.6-0.8,1-1c0.8-1,1.7-1.9,2.5-2.9l-0.6-3.6l-0.6,0.4C241.8,107.6,240.8,108.3,239.7,108.9z
	 M251.4,101.8c-0.2,0.6-0.4,1.3-0.6,1.7c-0.8,1.7-2.1,3.3-3.3,5c-0.2,0.2-0.4,0.4-0.6,0.8l4-0.6L251.4,101.8z M245.4,108.3
	c0.6-1,1.3-1.9,1.9-2.5c1-1.7,1.9-3.1,2.7-4.6c-0.2,0-0.2,0.2-0.2,0.2c-0.6,0.8-1.5,1.5-2.3,2.1c-0.8,0.6-1.7,1.3-2.5,1.9
	C244.9,105.5,245.4,108.3,245.4,108.3z"/>
<path class="st0" d="M55.2,209.1v27.6H36.8v-82.4h28c5.6,0,10.5,0.6,14.4,2.1c4,1.5,7.3,3.3,9.8,5.6c2.5,2.3,4.6,5.2,5.9,8.6
	c1.3,3.3,1.9,6.9,1.9,10.7c0,4.2-0.6,7.9-1.9,11.3c-1.3,3.3-3.1,6.3-5.9,8.8c-2.5,2.5-5.9,4.4-10,5.6c-4,1.5-8.8,2.1-14.2,2.1
	L55.2,209.1L55.2,209.1z M55.2,194.7h9.6c4.8,0,8.2-1.3,10.3-3.6c2.1-2.3,3.1-5.6,3.1-10c0-1.9-0.2-3.6-0.8-5.2
	c-0.6-1.5-1.5-2.9-2.5-4c-1-1-2.5-1.9-4.2-2.5c-1.7-0.6-3.8-0.8-6.1-0.8H55v26.2L55.2,194.7L55.2,194.7z"/>
<path class="st0" d="M124.4,206.2v30.5H106v-82.4H132c5.9,0,10.7,0.6,14.6,1.9c4,1.3,7.3,2.9,9.8,5c2.5,2.1,4.4,4.8,5.6,7.7
	s1.7,6.3,1.7,9.6c0,2.7-0.4,5.2-1,7.5c-0.6,2.3-1.7,4.6-3.1,6.7c-1.3,2.1-2.9,3.8-5,5.4c-2.1,1.7-4.2,2.9-6.9,4
	c1.3,0.6,2.3,1.5,3.3,2.3c1,0.8,2.1,2.1,2.9,3.3l16.9,28.7h-16.7c-3.1,0-5.2-1.3-6.7-3.6l-13.2-23.9c-0.6-1-1.3-1.7-2.1-2.3
	c-0.8-0.4-1.9-0.6-3.3-0.6L124.4,206.2L124.4,206.2z M124.4,193h7.3c2.5,0,4.6-0.4,6.5-1c1.7-0.6,3.1-1.7,4.4-2.7
	c1-1.3,1.9-2.5,2.5-4.2c0.4-1.7,0.8-3.3,0.8-5c0-3.6-1-6.5-3.3-8.4c-2.3-2.1-5.9-3.1-10.5-3.1h-7.3C124.4,168.7,124.4,193,124.4,193
	z"/>
<path class="st0" d="M254.4,195.5c0,5.9-1,11.5-2.9,16.5c-1.9,5.2-4.8,9.6-8.4,13.4c-3.6,3.8-7.9,6.7-13,9c-5,2.1-10.7,3.1-16.9,3.1
	c-6.1,0-11.9-1-16.9-3.1c-5-2.1-9.4-5.2-13-9c-3.6-3.8-6.5-8.2-8.4-13.4c-1.9-5-2.9-10.7-2.9-16.5c0-6.1,1-11.5,2.9-16.5
	c1.9-5.2,4.8-9.6,8.4-13.4c3.6-3.8,8-6.7,13-8.8c5-2.1,10.7-3.1,16.9-3.1c6.3,0,11.7,1,16.9,3.1c5,2.1,9.4,5.2,13,9
	s6.5,8.2,8.4,13.4C253.3,184,254.4,189.6,254.4,195.5z M235.5,195.5c0-4.2-0.4-7.7-1.5-11.1c-1-3.1-2.5-6.1-4.4-8.4
	c-1.9-2.3-4.2-4-6.9-5.2c-2.7-1.3-5.9-1.9-9.4-1.9s-6.7,0.6-9.4,1.9c-2.7,1.3-5,2.9-7.1,5.2c-1.9,2.3-3.3,5-4.4,8.4
	c-1,3.3-1.5,6.9-1.5,11.1c0,4.2,0.4,7.7,1.5,11.1s2.5,6.1,4.4,8.4c1.9,2.3,4.2,4,7.1,5.2c2.7,1.3,5.9,1.7,9.4,1.7s6.7-0.6,9.4-1.7
	c2.7-1.3,5-2.9,6.9-5.2c1.9-2.3,3.3-5,4.4-8.4C234.9,203.2,235.5,199.7,235.5,195.5z"/>
<path class="st0" d="M320.5,154.3v15.1h-22.4v67.4h-18.4v-67.2h-22.4v-15.1C257.3,154.3,320.5,154.3,320.5,154.3z"/>
<path class="st0" d="M380.9,154.3v14.6h-32.6v19.2h24.9v14.2h-24.9v19.7h32.6v14.6h-51v-82.4L380.9,154.3L380.9,154.3z"/>
<path class="st0" d="M410.6,236.7H392v-82.4h18.6V236.7z"/>
<path class="st0" d="M437.8,154.5c0.6,0,1,0.2,1.5,0.4c0.4,0.2,0.8,0.4,1.3,0.8c0.4,0.4,0.8,0.8,1.3,1.5l37.7,49.4
	c-0.2-1.7-0.2-3.1-0.4-4.6c0-1.5-0.2-2.9-0.2-4.2v-43.5h16.3v82.4H486c-1.5,0-2.5-0.2-3.6-0.6c-1-0.4-1.9-1.3-2.9-2.5L442,184.4
	c0.2,1.5,0.2,2.9,0.2,4.2c0,1.5,0.2,2.7,0.2,3.8v44.4h-16.3v-82.4h9.6C436.6,154.3,437.2,154.3,437.8,154.5z"/>
<path class="st0" d="M93.9,276.7c0,4.8-0.8,9-2.3,13.2c-1.5,4-3.6,7.5-6.3,10.7c-2.7,2.9-5.9,5.4-9.8,7.1c-3.8,1.7-7.9,2.5-12.6,2.5
	s-8.8-0.8-12.8-2.5c-3.8-1.7-7.1-4-9.8-7.1c-2.7-2.9-4.8-6.5-6.3-10.7c-1.5-4-2.3-8.4-2.3-13.2c0-4.8,0.8-9.2,2.3-13.2
	c1.5-4,3.6-7.5,6.3-10.7c2.7-2.9,6.1-5.2,9.8-7.1c3.8-1.9,8-2.5,12.8-2.5s8.8,0.8,12.8,2.5c3.8,1.7,7.1,4,9.8,7.1
	c2.7,2.9,4.8,6.5,6.3,10.5C93.1,267.5,93.9,271.9,93.9,276.7z M79.7,276.7c0-3.1-0.4-6.1-1.3-8.8c-0.8-2.5-1.9-4.8-3.3-6.5
	c-1.5-1.9-3.1-3.1-5.2-4.2c-2.1-1-4.4-1.5-7.1-1.5s-5,0.4-7.1,1.5c-2.1,1-3.8,2.3-5.2,4.2c-1.5,1.9-2.5,4-3.3,6.5
	c-0.8,2.5-1.3,5.4-1.3,8.8c0,3.3,0.4,6.1,1.3,8.8c0.8,2.5,1.9,4.8,3.3,6.5c1.5,1.9,3.1,3.1,5.2,4.2c2.1,1,4.4,1.5,7.1,1.5
	c2.7,0,5-0.4,7.1-1.5c2.1-0.8,3.8-2.3,5.2-4.2c1.5-1.9,2.5-4,3.3-6.5C79.2,282.7,79.7,279.8,79.7,276.7z"/>
<path class="st0" d="M110.8,244c0.4,0,0.8,0.2,1,0.4c0.4,0.2,0.6,0.4,0.8,0.6s0.6,0.6,1,1.3l28.2,39.1c0-1.3-0.2-2.5-0.2-3.6
	c0-1,0-2.3,0-3.3V244h12.1v65.3h-7.1c-1,0-1.9-0.2-2.7-0.6c-0.8-0.4-1.5-1-2.1-1.9l-28-38.9c0,1,0.2,2.3,0.2,3.3c0,1,0,2.1,0,3.1
	v34.9H102V244h7.3C109.8,244,110.4,244,110.8,244z"/>
<path class="st0" d="M234.1,244V256h-16.7v53.4h-13.8V256h-16.7V244L234.1,244L234.1,244z"/>
<path class="st0" d="M293.1,309.3h-14v-27.6h-24.3v27.6h-14V244h14v27.2H279V244h14L293.1,309.3L293.1,309.3z"/>
<path class="st0" d="M342.9,244v11.7h-24.5V271H337v11.3h-18.6v15.5h24.5v11.7h-38.3v-65.3h38.3V244z"/>
<path class="st0" d="M422.2,308.3c-3.3,1-7.1,1.7-10.9,1.7c-5,0-9.4-0.8-13.4-2.5c-4-1.7-7.5-4-10.3-6.9c-2.9-2.9-5-6.5-6.7-10.7
	c-1.5-4-2.3-8.6-2.3-13.2c0-4.8,0.8-9.4,2.3-13.4c1.5-4.2,3.6-7.5,6.3-10.5c2.7-2.9,6.1-5.2,10-6.9c4-1.7,8.2-2.5,13-2.5
	c2.5,0,4.8,0.2,6.9,0.6c2.1,0.4,4.2,1,6.1,1.9c1.9,0.8,3.6,1.7,5,2.7c1.5,1,2.9,2.3,4,3.6l-4,6.7c-0.6,1-1.5,1.7-2.5,1.9
	c-1,0.2-2.1,0-3.1-0.8c-1-0.6-2.1-1.3-3.1-1.9c-1-0.4-1.9-0.8-2.9-1.3c-1-0.4-2.1-0.6-3.1-0.6c-1-0.2-2.3-0.2-3.8-0.2
	c-2.5,0-5,0.4-6.9,1.5c-2.1,1-3.8,2.3-5.2,4.2s-2.5,4-3.3,6.5c-0.8,2.5-1.3,5.4-1.3,8.6c0,3.6,0.4,6.5,1.3,9.2
	c0.8,2.7,2.1,5,3.8,6.7c1.7,1.9,3.6,3.3,5.6,4.2c2.3,1,4.6,1.5,7.3,1.5c1.7,0,3.1-0.2,4.6-0.6c1.3-0.4,2.7-0.8,4-1.5v-9.8h-5.9
	c-0.8,0-1.5-0.2-2.1-0.8c-0.4-0.4-0.8-1.3-0.8-1.9v-8.4h21.1v27.6C428.8,305.3,425.5,307.2,422.2,308.3z"/>
<path class="st0" d="M499.6,276.7c0,4.8-0.8,9-2.3,13.2c-1.5,4-3.6,7.5-6.3,10.7c-2.7,2.9-5.9,5.4-9.8,7.1c-3.8,1.7-8,2.5-12.8,2.5
	c-4.8,0-8.8-0.8-12.8-2.5c-3.8-1.7-7.1-4-9.8-7.1c-2.7-2.9-4.8-6.5-6.3-10.7c-1.5-4-2.3-8.4-2.3-13.2c0-4.8,0.8-9.2,2.3-13.2
	c1.5-4,3.6-7.5,6.3-10.7c2.7-2.9,6.1-5.2,9.8-7.1c3.8-1.7,8.2-2.5,12.8-2.5c4.6,0,8.8,0.8,12.8,2.5c3.8,1.7,7.1,4,9.8,7.1
	c2.7,2.9,4.8,6.5,6.3,10.5C498.9,267.5,499.6,271.9,499.6,276.7z M485.5,276.7c0-3.1-0.4-6.1-1.3-8.8c-0.8-2.5-1.9-4.8-3.3-6.5
	c-1.5-1.9-3.1-3.1-5.2-4.2c-2.1-1-4.4-1.5-7.1-1.5c-2.7,0-5,0.4-7.1,1.5c-2.1,1-3.8,2.3-5.2,4.2c-1.5,1.9-2.5,4-3.3,6.5
	s-1.3,5.4-1.3,8.8c0,3.3,0.4,6.1,1.3,8.8c0.8,2.5,1.9,4.8,3.3,6.5c1.5,1.9,3.1,3.1,5.2,4.2c2.1,1,4.4,1.5,7.1,1.5s5-0.4,7.1-1.5
	c2.1-0.8,3.8-2.3,5.2-4.2c1.5-1.9,2.5-4,3.3-6.5C485.1,282.7,485.5,279.8,485.5,276.7z"/>
<g id="XMLID_40_">
</g>
<g id="XMLID_41_">
</g>
<g id="XMLID_42_">
</g>
<g id="XMLID_43_">
</g>
<g id="XMLID_44_">
</g>
<g id="XMLID_45_">
</g>
<g>
	<path class="st0" d="M32.8,362.4v-36h3.1c0.6,0,1.3,0.4,1.5,1l0.4,2.9c0.6-0.6,1-1.3,1.7-1.9c0.6-0.6,1.3-1,1.9-1.5
		c0.6-0.4,1.5-0.6,2.3-0.8c0.8-0.2,1.7-0.4,2.5-0.4c1.5,0,2.7,0.2,4,0.8c1.3,0.6,2.1,1.5,2.9,2.7s1.5,2.5,1.9,4.4
		c0.4,1.7,0.6,3.8,0.6,5.9s-0.2,3.8-0.8,5.6c-0.6,1.9-1.3,3.1-2.1,4.4s-2.1,2.3-3.3,2.9c-1.3,0.6-2.9,1-4.6,1
		c-1.5,0-2.7-0.2-3.8-0.8c-1-0.4-1.9-1.3-2.7-2.1v11.5h-5.4V362.4z M44.5,330.6c-1.5,0-2.5,0.4-3.6,0.8c-1,0.6-1.9,1.5-2.7,2.7v12.6
		c0.8,1,1.5,1.7,2.5,2.1c0.8,0.4,1.9,0.6,2.9,0.6c2.1,0,3.8-0.8,4.8-2.5c1.3-1.7,1.7-4,1.7-7.3c0-1.7-0.2-3.1-0.4-4.2
		s-0.6-2.1-1-2.9c-0.4-0.8-1-1.3-1.9-1.7C46.2,330.6,45.3,330.6,44.5,330.6z"/>
	<path class="st0" d="M61,353.4v-27h3.1c0.6,0,1,0.2,1.3,0.4s0.4,0.6,0.4,1l0.2,3.6c0.8-1.7,1.9-3.1,2.9-4c1-1,2.5-1.5,4-1.5
		c0.6,0,1,0,1.5,0.2c0.4,0.2,0.8,0.4,1.3,0.6l-0.4,4.2c0,0.2-0.2,0.4-0.2,0.6c0,0.2-0.4,0.2-0.6,0.2c-0.2,0-0.6,0-1-0.2
		c-0.4,0-1-0.2-1.5-0.2c-0.8,0-1.5,0.2-2.1,0.4c-0.6,0.2-1,0.6-1.5,1c-0.4,0.4-0.8,1-1.3,1.7c-0.4,0.6-0.6,1.3-1,2.1v16.7L61,353.4
		L61,353.4z"/>
	<path class="st0" d="M89.5,326c1.9,0,3.6,0.4,5,1c1.5,0.6,2.7,1.7,4,2.7c1,1.3,1.9,2.7,2.5,4.4c0.6,1.7,0.8,3.6,0.8,5.9
		c0,2.1-0.2,4-0.8,5.9c-0.6,1.7-1.5,3.1-2.5,4.4c-1,1.3-2.3,2.1-4,2.7c-1.5,0.6-3.1,1-5,1s-3.6-0.4-5-1c-1.5-0.6-2.7-1.7-4-2.7
		c-1.3-1-1.9-2.7-2.5-4.4c-0.6-1.7-0.8-3.6-0.8-5.9c0-2.1,0.2-4,0.8-5.9c0.6-1.7,1.5-3.1,2.5-4.4c1-1.3,2.3-2.1,4-2.7
		C85.9,326.4,87.6,326,89.5,326z M89.5,349.5c2.3,0,4-0.8,5-2.5c1-1.7,1.7-4,1.7-6.9s-0.6-5.4-1.7-7.1c-1-1.7-2.9-2.5-5-2.5
		c-2.3,0-4,0.8-5.2,2.5c-1,1.7-1.7,4-1.7,7.1c0,2.9,0.6,5.4,1.7,6.9C85.5,348.6,87.2,349.5,89.5,349.5z"/>
	<path class="st0" d="M114.6,353.8c-2.1,0-3.8-0.6-4.8-1.9s-1.7-3.1-1.7-5.2V331h-2.7c-0.2,0-0.6,0-0.8-0.2s-0.4-0.4-0.4-0.8v-2.3
		l4.2-0.6l1.3-7.7c0-0.2,0.2-0.6,0.4-0.6c0.2-0.2,0.4-0.2,0.8-0.2h2.7v8.8h7.1v4.2h-7.1v15.3c0,1,0.2,1.7,0.6,2.3
		c0.4,0.6,1,0.8,1.9,0.8c0.4,0,0.8,0,1-0.2s0.6-0.2,0.8-0.4c0.2-0.2,0.4-0.2,0.6-0.4s0.2-0.2,0.4-0.2s0.6,0.2,0.6,0.6l1.7,2.7
		c-0.8,0.8-1.9,1.5-2.9,1.9C116.9,353.6,115.9,353.8,114.6,353.8z"/>
	<path class="st0" d="M135.3,326c1.5,0,2.9,0.2,4.4,0.8c1.3,0.6,2.5,1.3,3.3,2.3c1,1,1.7,2.3,2.3,3.8c0.6,1.5,0.8,3.1,0.8,5.2
		c0,0.8,0,1.5-0.2,1.7s-0.4,0.4-1,0.4h-16.3c0,1.5,0.2,2.9,0.6,4c0.4,1,0.8,2.1,1.5,2.7c0.6,0.6,1.5,1.3,2.3,1.7
		c0.8,0.4,1.9,0.6,2.9,0.6c1,0,1.9-0.2,2.7-0.4s1.5-0.6,2.1-0.8c0.6-0.2,1-0.6,1.5-0.8s0.8-0.4,1-0.4c0.4,0,0.8,0.2,1,0.6l1.5,2.1
		c-0.6,0.8-1.3,1.5-2.1,2.1c-0.8,0.6-1.7,1-2.5,1.3c-0.8,0.4-1.9,0.6-2.7,0.8c-0.8,0.2-1.9,0.2-2.7,0.2c-1.7,0-3.3-0.2-4.8-0.8
		c-1.5-0.6-2.7-1.5-4-2.7c-1-1.3-1.9-2.7-2.5-4.6c-0.6-1.9-0.8-3.8-0.8-6.3c0-1.9,0.2-3.6,0.8-5.2s1.3-2.9,2.3-4.2
		c1-1.3,2.3-2.1,3.8-2.9C131.8,326.4,133.4,326,135.3,326z M135.3,330.2c-1.9,0-3.6,0.6-4.6,1.7c-1,1.3-1.9,2.9-2.1,5h12.6
		c0-1-0.2-1.9-0.4-2.7s-0.6-1.5-1-2.1c-0.4-0.6-1-1-1.9-1.5C137,330.2,136.4,330.2,135.3,330.2z"/>
	<path class="st0" d="M157.5,318.3c0,0.4,0,1-0.2,1.5s-0.4,0.8-0.8,1.3c-0.4,0.4-0.6,0.6-1.3,0.8c-0.6,0.2-0.8,0.2-1.5,0.2
		c-0.4,0-0.8,0-1.3-0.2c-0.4-0.2-0.8-0.4-1-0.8c-0.4-0.4-0.6-0.8-0.8-1.3c-0.2-0.4-0.2-1-0.2-1.5c0-0.6,0-1,0.2-1.5
		c0.2-0.4,0.4-0.8,0.8-1.3c0.4-0.4,0.6-0.6,1-0.8s0.8-0.2,1.3-0.2s1,0,1.5,0.2s0.8,0.4,1.3,0.8s0.6,0.8,0.8,1.3
		C157.5,317.2,157.5,317.9,157.5,318.3z M156.7,326.4v27h-5.4v-27H156.7z"/>
	<path class="st0" d="M163.3,353.4v-27h3.1c0.6,0,1.3,0.4,1.5,1l0.4,2.5c0.6-0.6,1-1,1.7-1.7c0.6-0.4,1.3-0.8,1.9-1.3
		c0.6-0.4,1.5-0.6,2.1-0.8c0.8-0.2,1.7-0.2,2.5-0.2c1.5,0,2.7,0.2,3.8,0.8c1,0.6,1.9,1.3,2.7,2.1c0.6,0.8,1.3,1.9,1.7,3.1
		s0.6,2.7,0.6,4.2v17.2h-5.2v-17.2c0-1.9-0.4-3.1-1.3-4.2c-0.8-1-2.1-1.5-3.6-1.5c-1.3,0-2.3,0.2-3.3,0.8c-1,0.6-1.9,1.5-2.9,2.3
		v19.7H163.3z"/>
	<path class="st0" d="M217.1,322.5v11.1h9.8v4.2h-9.8v11.1h-4.4v-11.1h-9.8v-4.2h9.8v-11.1H217.1z"/>
	<path class="st0" d="M255.6,326c1.5,0,2.9,0.2,4.4,0.8c1.3,0.6,2.5,1.3,3.3,2.3c1,1,1.7,2.3,2.3,3.8c0.6,1.5,0.8,3.1,0.8,5.2
		c0,0.8,0,1.5-0.2,1.7s-0.4,0.4-1,0.4h-16.3c0,1.5,0.2,2.9,0.6,4c0.4,1,0.8,2.1,1.5,2.7c0.6,0.6,1.5,1.3,2.3,1.7
		c0.8,0.4,1.9,0.6,2.9,0.6c1,0,1.9-0.2,2.7-0.4c0.8-0.2,1.5-0.6,2.1-0.8c0.6-0.2,1-0.6,1.5-0.8c0.4-0.2,0.8-0.4,1-0.4
		c0.4,0,0.8,0.2,1,0.6l1.5,2.1c-0.6,0.8-1.3,1.5-2.1,2.1c-0.8,0.6-1.7,1-2.5,1.3c-0.8,0.4-1.9,0.6-2.7,0.8c-0.8,0.2-1.9,0.2-2.7,0.2
		c-1.7,0-3.3-0.2-4.8-0.8c-1.5-0.6-2.7-1.5-4-2.7c-1-1.3-1.9-2.7-2.5-4.6c-0.6-1.9-0.8-3.8-0.8-6.3c0-1.9,0.2-3.6,0.8-5.2
		c0.6-1.7,1.3-2.9,2.3-4.2c1-1.3,2.3-2.1,3.8-2.9C252.1,326.4,253.7,326,255.6,326z M255.8,330.2c-1.9,0-3.6,0.6-4.6,1.7
		c-1,1.3-1.9,2.9-2.1,5h12.6c0-1-0.2-1.9-0.4-2.7c-0.2-0.8-0.6-1.5-1-2.1c-0.4-0.6-1-1-1.9-1.5C257.5,330.2,256.7,330.2,255.8,330.2
		z"/>
	<path class="st0" d="M277,314.3v39.1h-5.4v-39.1H277z"/>
	<path class="st0" d="M294.1,326c1.5,0,2.9,0.2,4.4,0.8c1.3,0.6,2.5,1.3,3.3,2.3c1,1,1.7,2.3,2.3,3.8c0.6,1.5,0.8,3.1,0.8,5.2
		c0,0.8,0,1.5-0.2,1.7c-0.2,0.2-0.4,0.4-1,0.4h-16.3c0,1.5,0.2,2.9,0.6,4c0.4,1,0.8,2.1,1.5,2.7c0.6,0.6,1.5,1.3,2.3,1.7
		c0.8,0.4,1.9,0.6,2.9,0.6s1.9-0.2,2.7-0.4s1.5-0.6,2.1-0.8c0.6-0.2,1-0.6,1.5-0.8c0.4-0.2,0.8-0.4,1-0.4c0.4,0,0.8,0.2,1,0.6
		l1.5,2.1c-0.6,0.8-1.3,1.5-2.1,2.1c-0.8,0.6-1.7,1-2.5,1.3c-0.8,0.4-1.9,0.6-2.7,0.8c-0.8,0.2-1.9,0.2-2.7,0.2
		c-1.7,0-3.3-0.2-4.8-0.8c-1.5-0.6-2.7-1.5-4-2.7c-1-1.3-1.9-2.7-2.5-4.6c-0.6-1.9-0.8-3.8-0.8-6.3c0-1.9,0.2-3.6,0.8-5.2
		c0.6-1.7,1.3-2.9,2.3-4.2c1-1.3,2.3-2.1,3.8-2.9C290.6,326.4,292.2,326,294.1,326z M294.3,330.2c-1.9,0-3.6,0.6-4.6,1.7
		c-1,1.3-1.9,2.9-2.1,5h12.6c0-1-0.2-1.9-0.4-2.7c-0.2-0.8-0.6-1.5-1-2.1c-0.4-0.6-1-1-1.9-1.5C296,330.2,295.2,330.2,294.3,330.2z"
		/>
	<path class="st0" d="M327.8,331.7c-0.2,0.2-0.4,0.4-0.4,0.6c-0.2,0.2-0.4,0.2-0.6,0.2s-0.6-0.2-0.8-0.4c-0.2-0.2-0.6-0.4-1-0.6
		c-0.4-0.2-0.8-0.4-1.5-0.6c-0.6-0.2-1.3-0.4-2.3-0.4c-1.3,0-2.1,0.2-3.1,0.6c-0.8,0.4-1.7,1-2.1,1.9c-0.4,0.8-1,1.9-1.3,2.9
		c-0.2,1-0.4,2.5-0.4,4s0.2,2.9,0.4,4c0.4,1.3,0.8,2.1,1.3,2.9c0.6,0.8,1.3,1.5,2.1,1.9c0.8,0.4,1.9,0.6,2.9,0.6s1.9-0.2,2.5-0.4
		c0.6-0.2,1.3-0.6,1.7-0.8c0.4-0.4,0.8-0.6,1-0.8c0.2-0.2,0.6-0.4,1-0.4c0.4,0,0.8,0.2,1,0.6l1.5,2.1c-0.6,0.8-1.3,1.5-2.1,2.1
		c-0.8,0.6-1.5,1-2.3,1.3s-1.7,0.6-2.5,0.8c-0.8,0.2-1.9,0.2-2.7,0.2c-1.7,0-3.1-0.2-4.4-0.8c-1.5-0.6-2.5-1.5-3.6-2.7
		c-1-1.3-1.9-2.7-2.5-4.4c-0.6-1.7-0.8-3.8-0.8-5.9s0.2-3.8,0.8-5.4c0.6-1.7,1.3-3.1,2.3-4.4s2.3-2.1,3.8-2.9c1.5-0.6,3.3-1,5.2-1
		s3.6,0.4,4.8,1c1.5,0.6,2.7,1.5,3.8,2.7L327.8,331.7z"/>
	<path class="st0" d="M342,353.8c-2.1,0-3.8-0.6-4.8-1.9s-1.7-3.1-1.7-5.2V331h-2.7c-0.2,0-0.6,0-0.8-0.2c-0.2-0.2-0.4-0.4-0.4-0.8
		v-2.3l4.2-0.6l1.3-7.7c0-0.2,0.2-0.6,0.4-0.6c0.2-0.2,0.4-0.2,0.8-0.2h2.7v8.8h7.1v4.2H341v15.3c0,1,0.2,1.7,0.6,2.3s1,0.8,1.9,0.8
		c0.4,0,0.8,0,1-0.2c0.2-0.2,0.6-0.2,0.8-0.4c0.2-0.2,0.4-0.2,0.6-0.4c0.2-0.2,0.2-0.2,0.4-0.2c0.2,0,0.6,0.2,0.6,0.6l1.7,2.7
		c-0.8,0.8-1.9,1.5-2.9,1.9C344.3,353.6,343.3,353.8,342,353.8z"/>
	<path class="st0" d="M352.1,353.4v-27h3.1c0.6,0,1,0.2,1.3,0.4s0.4,0.6,0.4,1l0.2,3.6c0.8-1.7,1.9-3.1,2.9-4c1-1,2.5-1.5,4-1.5
		c0.6,0,1,0,1.5,0.2c0.4,0.2,0.8,0.4,1.3,0.6l-0.4,4.2c0,0.2-0.2,0.4-0.2,0.6c0,0.2-0.4,0.2-0.6,0.2s-0.6,0-1-0.2
		c-0.4,0-1-0.2-1.5-0.2c-0.8,0-1.5,0.2-2.1,0.4c-0.6,0.2-1,0.6-1.5,1c-0.4,0.4-0.8,1-1.3,1.7c-0.4,0.6-0.6,1.3-1,2.1v16.7
		L352.1,353.4L352.1,353.4z"/>
	<path class="st0" d="M380.5,326c1.9,0,3.6,0.4,5,1c1.5,0.6,2.7,1.7,4,2.7c1.3,1,1.9,2.7,2.5,4.4c0.6,1.7,0.8,3.6,0.8,5.9
		c0,2.1-0.2,4-0.8,5.9c-0.6,1.7-1.5,3.1-2.5,4.4s-2.3,2.1-4,2.7c-1.5,0.6-3.1,1-5,1c-1.9,0-3.6-0.4-5-1c-1.5-0.6-2.7-1.7-4-2.7
		c-1-1.3-1.9-2.7-2.5-4.4c-0.6-1.7-0.8-3.6-0.8-5.9c0-2.1,0.2-4,0.8-5.9c0.6-1.7,1.5-3.1,2.5-4.4c1-1.3,2.3-2.1,4-2.7
		C377,326.4,378.6,326,380.5,326z M380.5,349.5c2.3,0,4-0.8,5-2.5c1-1.7,1.7-4,1.7-6.9s-0.6-5.4-1.7-7.1c-1-1.7-2.9-2.5-5-2.5
		c-2.3,0-4,0.8-5.2,2.5c-1,1.7-1.7,4-1.7,7.1c0,2.9,0.6,5.4,1.7,6.9C376.5,348.6,378.2,349.5,380.5,349.5z"/>
	<path class="st0" d="M403.3,314.3v39.1h-5.2v-39.1H403.3z"/>
	<path class="st0" d="M418.6,361.2c-0.2,0.4-0.4,0.6-0.6,1c-0.2,0.4-0.6,0.4-1.3,0.4h-4l4.6-10.9l-10.5-25.1h4.6
		c0.4,0,0.8,0.2,1,0.4c0.2,0.2,0.4,0.4,0.6,0.8l6.1,15.3c0.2,0.8,0.6,1.7,0.8,2.7c0.2-0.4,0.2-0.8,0.4-1.3c0.2-0.4,0.2-0.8,0.4-1.3
		l5.9-15.3c0.2-0.4,0.2-0.6,0.6-0.8c0.2-0.2,0.6-0.4,0.8-0.4h4.2L418.6,361.2z"/>
	<path class="st0" d="M444.1,353.8c-2.1,0-3.8-0.6-4.8-1.9s-1.7-3.1-1.7-5.2V331h-2.7c-0.2,0-0.6,0-0.8-0.2s-0.4-0.4-0.4-0.8v-2.3
		l4.2-0.6l1.3-7.7c0-0.2,0.2-0.6,0.4-0.6c0.2-0.2,0.4-0.2,0.8-0.2h2.7v8.8h7.1v4.2h-7.1v15.3c0,1,0.2,1.7,0.6,2.3
		c0.4,0.6,1,0.8,1.9,0.8c0.4,0,0.8,0,1-0.2c0.2-0.2,0.6-0.2,0.8-0.4c0.2-0.2,0.4-0.2,0.6-0.4s0.2-0.2,0.4-0.2c0.2,0,0.6,0.2,0.6,0.6
		l1.7,2.7c-0.8,0.8-1.9,1.5-2.9,1.9C446.6,353.6,445.4,353.8,444.1,353.8z"/>
	<path class="st0" d="M464.8,326c1.5,0,2.9,0.2,4.4,0.8c1.3,0.6,2.5,1.3,3.3,2.3c1,1,1.7,2.3,2.3,3.8c0.6,1.5,0.8,3.1,0.8,5.2
		c0,0.8,0,1.5-0.2,1.7s-0.4,0.4-1,0.4h-16.3c0,1.5,0.2,2.9,0.6,4c0.4,1,0.8,2.1,1.5,2.7c0.6,0.6,1.5,1.3,2.3,1.7
		c0.8,0.4,1.9,0.6,2.9,0.6c1,0,1.9-0.2,2.7-0.4c0.8-0.2,1.5-0.6,2.1-0.8c0.6-0.2,1-0.6,1.5-0.8c0.4-0.2,0.8-0.4,1-0.4
		c0.4,0,0.8,0.2,1,0.6l1.5,2.1c-0.6,0.8-1.3,1.5-2.1,2.1c-0.8,0.6-1.7,1-2.5,1.3c-0.8,0.4-1.9,0.6-2.7,0.8c-0.8,0.2-1.9,0.2-2.7,0.2
		c-1.7,0-3.3-0.2-4.8-0.8c-1.5-0.6-2.7-1.5-4-2.7c-1-1.3-1.9-2.7-2.5-4.6c-0.6-1.9-0.8-3.8-0.8-6.3c0-1.9,0.2-3.6,0.8-5.2
		s1.3-2.9,2.3-4.2c1-1.3,2.3-2.1,3.8-2.9C461.3,326.4,463,326,464.8,326z M465,330.2c-1.9,0-3.6,0.6-4.6,1.7c-1,1.3-1.9,2.9-2.1,5
		h12.6c0-1-0.2-1.9-0.4-2.7c-0.2-0.8-0.6-1.5-1-2.1s-1-1-1.9-1.5C466.7,330.2,465.9,330.2,465,330.2z"/>
	<path class="st0" d="M495.8,331.2c-0.2,0.2-0.2,0.4-0.4,0.6c-0.2,0-0.4,0.2-0.6,0.2s-0.6,0-0.8-0.2c-0.4-0.2-0.6-0.4-1.3-0.6
		c-0.4-0.2-1-0.4-1.7-0.6c-0.6-0.2-1.3-0.2-2.1-0.2c-0.6,0-1.3,0-1.9,0.2c-0.6,0.2-1,0.4-1.5,0.6c-0.4,0.2-0.6,0.6-0.8,1
		c-0.2,0.4-0.2,0.8-0.2,1.3c0,0.6,0.2,1.3,0.6,1.7c0.4,0.4,0.8,0.8,1.5,1c0.6,0.2,1.3,0.6,2.1,0.8s1.5,0.4,2.3,0.8
		c0.8,0.4,1.7,0.6,2.3,1c0.8,0.4,1.5,0.8,2.1,1.5c0.6,0.6,1,1.3,1.5,1.9c0.4,0.8,0.6,1.7,0.6,2.7c0,1.3-0.2,2.5-0.6,3.6
		c-0.4,1-1,2.1-1.9,2.7c-0.8,0.8-1.9,1.5-3.1,1.9c-1.3,0.4-2.7,0.6-4.2,0.6c-0.8,0-1.7,0-2.5-0.2c-0.8-0.2-1.7-0.4-2.3-0.6
		c-0.8-0.2-1.5-0.6-2.1-1c-0.6-0.4-1.3-0.8-1.7-1.3l1.3-2.1c0.2-0.2,0.4-0.4,0.6-0.6c0.2-0.2,0.4-0.2,0.8-0.2s0.6,0.2,1,0.4
		s0.8,0.4,1.3,0.8c0.4,0.2,1,0.6,1.7,0.8s1.5,0.4,2.5,0.4c0.8,0,1.5,0,2.1-0.2c0.6-0.2,1-0.4,1.5-0.8c0.4-0.4,0.6-0.8,0.8-1.3
		c0.2-0.4,0.2-0.8,0.2-1.5c0-0.6-0.2-1.3-0.6-1.7c-0.4-0.4-0.8-0.8-1.5-1c-0.6-0.4-1.3-0.6-2.1-0.8c-0.8-0.2-1.5-0.4-2.3-0.8
		c-0.8-0.4-1.7-0.6-2.3-1c-0.6-0.4-1.5-0.8-2.1-1.5c-0.6-0.6-1-1.3-1.5-2.1c-0.4-0.8-0.6-1.9-0.6-2.9s0.2-2.1,0.6-3.1
		c0.4-1,1-1.9,1.9-2.5c0.8-0.8,1.7-1.3,2.9-1.7c1.3-0.4,2.5-0.6,4-0.6c1.7,0,3.3,0.2,4.6,0.8c1.5,0.6,2.5,1.5,3.6,2.3L495.8,331.2z"
		/>
</g>
</svg>
