<svg version="1.2" baseProfile="tiny" xmlns="http://www.w3.org/2000/svg" x="0" y="0" viewBox="-2 355.32 606.04 82.68" xml:space="preserve"><path fill="#58595B" d="M48.93 400.95c-.3-7.14-.5-15.62-.5-24.35h-.2c-1.9 7.54-4.34 16.06-6.61 22.97l-7.14 23.24H24.04l-6.27-22.97c-1.9-7.04-3.77-15.42-5.3-23.24h-.2c-.22 7.97-.53 17.16-.81 24.54l-1.23 22.61H-2l3.72-59.45h17.67l5.76 19.92c1.9 6.8 3.65 14.19 4.95 21.23h.35c1.53-6.93 3.55-14.66 5.61-21.39l6.2-19.76h17.38l3.16 59.45H49.87l-.94-22.8zM86.61 408.51l-4.12 15.24H68.78l17.95-59.45h17.3l18.31 59.45h-14.3l-4.52-15.24H86.61zm14.92-10.09l-3.63-12.58c-1.01-3.5-2.02-8-2.91-11.49h-.21c-.82 3.56-1.82 8.05-2.64 11.49l-3.6 12.58h12.99zM130.2 365.18c4.89-.88 11.21-1.27 17.89-1.27 11.29 0 18.57 1.84 24.18 6.14 6.07 4.6 9.94 12.01 9.94 22.62 0 11.39-4.1 19.18-9.74 24.02-6.14 5.23-15.68 7.73-27.2 7.73-6.8 0-11.86-.46-15.06-.89l-.01-58.35zm13.25 48.45c1.13.25 3.11.25 4.63.25 12.06.11 20.03-6.65 20.03-20.77 0-12.82-7.19-18.94-18.7-18.94-2.85 0-4.84.28-5.96.56v38.9zM225.82 398.64h-21.58v14.08h24.13v11.03h-37.41V364.3h36.23v11.02h-22.96v12.36h21.58l.01 10.96zM421.58 364.3v22.96h21.87V364.3h13.28v59.45h-13.28v-24.77h-21.87v24.77h-13.24V364.3h13.24zM503.24 398.64h-21.55v14.08h24.06v11.03H468.4V364.3h36.17v11.02h-22.88v12.36h21.55v10.96zM514.87 365.18c4.29-.76 10.59-1.27 17.68-1.27 8.7 0 14.77 1.27 19 4.66 3.53 2.88 5.5 7.05 5.5 12.5 0 7.49-5.3 12.69-10.36 14.59v.22c4.04 1.7 6.3 5.57 7.86 11.02 1.76 6.81 3.52 14.55 4.69 16.86h-13.6c-.87-1.65-2.35-6.56-4.03-13.89-1.63-7.47-4.16-9.36-9.63-9.47h-3.91v23.35h-13.2v-58.57zm13.19 25.55h5.22c6.61 0 10.5-3.39 10.5-8.6 0-5.4-3.65-8.2-9.7-8.2-3.3 0-5.12.17-6.02.4v16.4zM601.49 398.64H579.9v14.08h24.16v11.03h-37.41V364.3h36.18v11.02H579.9v12.36h21.59v10.96z"/><path fill="#B22435" d="M385.66 438v-82.68H251.3V438"/><path fill="#3D3C6F" d="M251.3 355.32h57.31v44.51H251.3"/><path fill="#FFF" d="M257.64 357.93h-2l-.62-1.86-.61 1.86h-2.03l1.63 1.19-.68 1.97 1.7-1.23 1.64 1.22-.66-1.95M267.52 357.93h-2.01l-.63-1.86-.61 1.86h-2.03l1.63 1.19-.67 1.97 1.69-1.23 1.65 1.22-.66-1.95M277.38 357.93h-2l-.63-1.86-.61 1.86h-2.03l1.64 1.19-.68 1.97 1.68-1.23 1.65 1.22-.65-1.95M287.24 357.93h-2l-.62-1.86-.61 1.86h-2.03l1.63 1.19-.68 1.97 1.7-1.23 1.64 1.22-.66-1.95M297.11 357.93h-2l-.63-1.86-.61 1.86h-2.03l1.63 1.19-.67 1.97 1.69-1.23 1.64 1.22-.66-1.95M306.98 357.93h-2l-.63-1.86-.61 1.86h-2.04l1.64 1.19-.68 1.97 1.69-1.23 1.65 1.22-.65-1.95M257.64 367.51h-2l-.62-1.87-.61 1.87h-2.03l1.63 1.18-.68 1.97 1.7-1.23 1.64 1.22-.66-1.95M267.52 367.51h-2.01l-.63-1.87-.61 1.87h-2.03l1.63 1.18-.67 1.97 1.69-1.23 1.65 1.22-.66-1.95M277.38 367.51h-2l-.63-1.87-.61 1.87h-2.03l1.64 1.18-.68 1.97 1.68-1.23 1.65 1.22-.65-1.95M287.24 367.51h-2l-.62-1.87-.61 1.87h-2.03l1.63 1.18-.68 1.97 1.7-1.23 1.64 1.22-.66-1.95M297.11 367.51h-2l-.63-1.87-.61 1.87h-2.03l1.63 1.18-.67 1.97 1.69-1.23 1.64 1.22-.66-1.95M306.98 367.51h-2l-.63-1.87-.61 1.87h-2.04l1.64 1.18-.68 1.97 1.69-1.23 1.65 1.22-.65-1.95M257.64 377.08h-2l-.62-1.86-.61 1.86h-2.03l1.63 1.18-.68 1.97 1.7-1.23 1.64 1.22-.66-1.95M267.52 377.08h-2.01l-.63-1.86-.61 1.86h-2.03l1.63 1.18-.67 1.97 1.69-1.23 1.65 1.22-.66-1.95M277.38 377.08h-2l-.63-1.86-.61 1.86h-2.03l1.64 1.18-.68 1.97 1.68-1.23 1.65 1.22-.65-1.95M287.24 377.08h-2l-.62-1.86-.61 1.86h-2.03l1.63 1.18-.68 1.97 1.7-1.23 1.64 1.22-.66-1.95M297.11 377.08h-2l-.63-1.86-.61 1.86h-2.03l1.63 1.18-.67 1.97 1.69-1.23 1.64 1.22-.66-1.95M306.98 377.08h-2l-.63-1.86-.61 1.86h-2.04l1.64 1.18-.68 1.97 1.69-1.23 1.65 1.22-.65-1.95M257.64 386.65h-2l-.62-1.86-.61 1.86h-2.03l1.63 1.18-.68 1.97 1.7-1.23 1.64 1.22-.66-1.95M267.52 386.65h-2.01l-.63-1.86-.61 1.86h-2.03l1.63 1.18-.67 1.97 1.69-1.23 1.65 1.22-.66-1.95M277.38 386.65h-2l-.63-1.86-.61 1.86h-2.03l1.64 1.18-.68 1.97 1.68-1.23 1.65 1.22-.65-1.95M287.24 386.65h-2l-.62-1.86-.61 1.86h-2.03l1.63 1.18-.68 1.97 1.7-1.23 1.64 1.22-.66-1.95M297.11 386.65h-2l-.63-1.86-.61 1.86h-2.03l1.63 1.18-.67 1.97 1.69-1.23 1.64 1.22-.66-1.95M306.98 386.65h-2l-.63-1.86-.61 1.86h-2.04l1.64 1.18-.68 1.97 1.69-1.23 1.65 1.22-.65-1.95M262.35 362.72h-2.01l-.62-1.86-.61 1.86h-2.04l1.64 1.19-.68 1.97 1.69-1.23 1.64 1.21-.64-1.94M272.21 362.72h-2l-.63-1.86-.61 1.86h-2.02l1.62 1.19-.67 1.97 1.69-1.23 1.65 1.21-.66-1.94M282.08 362.72h-2.01l-.63-1.86-.6 1.86h-2.03l1.63 1.19-.68 1.97 1.7-1.23 1.64 1.21-.66-1.94M291.94 362.72h-2l-.63-1.86-.6 1.86h-2.04l1.64 1.19-.68 1.97 1.69-1.23 1.64 1.21-.65-1.94M301.81 362.72h-2.01l-.62-1.86-.61 1.86h-2.03l1.63 1.19-.68 1.97 1.7-1.23 1.64 1.21-.65-1.94M262.35 372.29h-2.01l-.62-1.86-.61 1.86h-2.04l1.64 1.19-.68 1.97 1.69-1.23 1.64 1.22-.64-1.95M272.21 372.29h-2l-.63-1.86-.61 1.86h-2.02l1.62 1.19-.67 1.97 1.69-1.23 1.65 1.22-.66-1.95M282.08 372.29h-2.01l-.63-1.86-.6 1.86h-2.03l1.63 1.19-.68 1.97 1.7-1.23 1.64 1.22-.66-1.95M291.94 372.29h-2l-.63-1.86-.6 1.86h-2.04l1.64 1.19-.68 1.97 1.69-1.23 1.64 1.22-.65-1.95M301.81 372.29h-2.01l-.62-1.86-.61 1.86h-2.03l1.63 1.19-.68 1.97 1.7-1.23 1.64 1.22-.65-1.95M262.35 381.86h-2.01l-.62-1.86-.61 1.86h-2.04l1.64 1.19-.68 1.97 1.69-1.23 1.64 1.22-.64-1.95M272.21 381.86h-2l-.63-1.86-.61 1.86h-2.02l1.62 1.19-.67 1.97 1.69-1.23 1.65 1.22-.66-1.95M282.08 381.86h-2.01l-.63-1.86-.6 1.86h-2.03l1.63 1.19-.68 1.97 1.7-1.23 1.64 1.22-.66-1.95M291.94 381.86h-2l-.63-1.86-.6 1.86h-2.04l1.64 1.19-.68 1.97 1.69-1.23 1.64 1.22-.65-1.95M301.81 381.86h-2.01l-.62-1.86-.61 1.86h-2.03l1.63 1.19-.68 1.97 1.7-1.23 1.64 1.22-.65-1.95M262.35 391.43h-2.01l-.62-1.85-.61 1.85h-2.04l1.64 1.19-.68 1.97 1.69-1.23 1.64 1.22-.64-1.95M272.21 391.43h-2l-.63-1.85-.61 1.85h-2.02l1.62 1.19-.67 1.97 1.69-1.23 1.65 1.22-.66-1.95M282.08 391.43h-2.01l-.63-1.85-.6 1.85h-2.03l1.63 1.19-.68 1.97 1.7-1.23 1.64 1.22-.66-1.95M291.94 391.43h-2l-.63-1.85-.6 1.85h-2.04l1.64 1.19-.68 1.97 1.69-1.23 1.64 1.22-.65-1.95M301.81 391.43h-2.01l-.62-1.85-.61 1.85h-2.03l1.63 1.19-.68 1.97 1.7-1.23 1.64 1.22-.65-1.95M257.64 396.22h-2l-.62-1.86-.61 1.86h-2.03l1.63 1.19-.68 1.97 1.7-1.24 1.64 1.22-.66-1.95M267.52 396.22h-2.01l-.63-1.86-.61 1.86h-2.03l1.63 1.19-.67 1.97 1.69-1.24 1.65 1.22-.66-1.95M277.38 396.22h-2l-.63-1.86-.61 1.86h-2.03l1.64 1.19-.68 1.97 1.68-1.24 1.65 1.22-.65-1.95M287.24 396.22h-2l-.62-1.86-.61 1.86h-2.03l1.63 1.19-.68 1.97 1.7-1.24 1.64 1.22-.66-1.95M297.11 396.22h-2l-.63-1.86-.61 1.86h-2.03l1.63 1.19-.67 1.97 1.69-1.24 1.64 1.22-.66-1.95M306.98 396.22h-2l-.63-1.86-.61 1.86h-2.04l1.64 1.19-.68 1.97 1.69-1.24 1.65 1.22-.65-1.95M308.67 361.68h76.99v6.36h-76.99M308.67 374.4h76.99v6.36h-76.99M308.67 387.12h76.99v6.36h-76.99M251.3 399.84h134.36v6.36H251.3M251.3 412.56h134.36v6.36H251.3M251.3 425.28h134.36v6.36H251.3"/></svg>