<svg version="1.2" baseProfile="tiny" xmlns="http://www.w3.org/2000/svg" x="0" y="0" viewBox="0 0 174.5 135.34" xml:space="preserve"><path fill="#B22234" d="M174.5 107.38V0H0v107.38"/><path fill="#3C3B6E" d="M0 0h74.43v57.81H0"/><path fill="#FFF" d="M8.24 3.39h-2.6L4.83.98l-.79 2.41H1.4l2.12 1.55-.88 2.56 2.2-1.6 2.13 1.58-.85-2.53M21.06 3.39h-2.6L17.64.98l-.79 2.41h-2.64l2.12 1.55-.88 2.56 2.2-1.6 2.14 1.58-.85-2.53M33.87 3.39h-2.6L30.45.98l-.79 2.41h-2.63l2.12 1.55-.88 2.56 2.19-1.6 2.14 1.58-.85-2.53M46.68 3.39h-2.6L43.27.98l-.79 2.41h-2.64l2.12 1.55-.88 2.56 2.2-1.6 2.13 1.58-.85-2.53M59.49 3.39h-2.6L56.08.98l-.79 2.41h-2.64l2.12 1.55-.88 2.56 2.2-1.6 2.13 1.58-.85-2.53M72.31 3.39h-2.6L68.89.98l-.79 2.41h-2.64l2.12 1.55-.88 2.56 2.2-1.6 2.14 1.58-.85-2.53M8.24 15.83h-2.6l-.81-2.42-.79 2.42H1.4l2.12 1.54-.88 2.56 2.2-1.6 2.13 1.58-.85-2.53M21.06 15.83h-2.6l-.82-2.42-.79 2.42h-2.64l2.12 1.54-.88 2.56 2.2-1.6 2.14 1.58-.85-2.53M33.87 15.83h-2.6l-.82-2.42-.79 2.42h-2.63l2.12 1.54-.88 2.56 2.19-1.6 2.14 1.58-.85-2.53M46.68 15.83h-2.6l-.81-2.42-.79 2.42h-2.64l2.12 1.54-.88 2.56 2.2-1.6 2.13 1.58-.85-2.53M59.49 15.83h-2.6l-.81-2.42-.79 2.42h-2.64l2.12 1.54-.88 2.56 2.2-1.6 2.13 1.58-.85-2.53M72.31 15.83h-2.6l-.82-2.42-.79 2.42h-2.64l2.12 1.54-.88 2.56 2.2-1.6 2.14 1.58-.85-2.53M8.24 28.26h-2.6l-.81-2.41-.79 2.41H1.4l2.12 1.54-.88 2.56 2.2-1.6 2.13 1.58-.85-2.53M21.06 28.26h-2.6l-.82-2.41-.79 2.41h-2.64l2.12 1.54-.88 2.56 2.2-1.6 2.14 1.58-.85-2.53M33.87 28.26h-2.6l-.82-2.41-.79 2.41h-2.63l2.12 1.54-.88 2.56 2.19-1.6 2.14 1.58-.85-2.53M46.68 28.26h-2.6l-.81-2.41-.79 2.41h-2.64l2.12 1.54-.88 2.56 2.2-1.6 2.13 1.58-.85-2.53M59.49 28.26h-2.6l-.81-2.41-.79 2.41h-2.64l2.12 1.54-.88 2.56 2.2-1.6 2.13 1.58-.85-2.53M72.31 28.26h-2.6l-.82-2.41-.79 2.41h-2.64l2.12 1.54-.88 2.56 2.2-1.6 2.14 1.58-.85-2.53M8.24 40.69h-2.6l-.81-2.41-.79 2.41H1.4l2.12 1.54-.88 2.56 2.2-1.6 2.13 1.58-.85-2.53M21.06 40.69h-2.6l-.82-2.41-.79 2.41h-2.64l2.12 1.54-.88 2.56 2.2-1.6 2.14 1.58-.85-2.53M33.87 40.69h-2.6l-.82-2.41-.79 2.41h-2.63l2.12 1.54-.88 2.56 2.19-1.6 2.14 1.58-.85-2.53M46.68 40.69h-2.6l-.81-2.41-.79 2.41h-2.64l2.12 1.54-.88 2.56 2.2-1.6 2.13 1.58-.85-2.53M59.49 40.69h-2.6l-.81-2.41-.79 2.41h-2.64l2.12 1.54-.88 2.56 2.2-1.6 2.13 1.58-.85-2.53M72.31 40.69h-2.6l-.82-2.41-.79 2.41h-2.64l2.12 1.54-.88 2.56 2.2-1.6 2.14 1.58-.85-2.53M14.35 9.61h-2.61l-.81-2.41-.79 2.41H7.5l2.12 1.55-.88 2.56 2.2-1.6 2.13 1.57-.84-2.52M27.16 9.61h-2.6l-.82-2.41-.79 2.41h-2.63l2.11 1.55-.87 2.56 2.19-1.6 2.14 1.57-.85-2.52M39.97 9.61h-2.6l-.82-2.41-.79 2.41h-2.63l2.12 1.55-.88 2.56 2.2-1.6 2.13 1.57-.85-2.52M52.78 9.61h-2.6l-.81-2.41-.79 2.41h-2.64l2.12 1.55-.88 2.56 2.2-1.6 2.13 1.57-.85-2.52M65.6 9.61h-2.61l-.81-2.41-.79 2.41h-2.64l2.12 1.55-.88 2.56 2.2-1.6 2.13 1.57-.84-2.52M14.35 22.04h-2.61l-.81-2.41-.79 2.41H7.5l2.12 1.55-.88 2.56 2.2-1.6 2.13 1.58-.84-2.53M27.16 22.04h-2.6l-.82-2.41-.79 2.41h-2.63l2.11 1.55-.87 2.56 2.19-1.6 2.14 1.58-.85-2.53M39.97 22.04h-2.6l-.82-2.41-.79 2.41h-2.63l2.12 1.55-.88 2.56 2.2-1.6 2.13 1.58-.85-2.53M52.78 22.04h-2.6l-.81-2.41-.79 2.41h-2.64l2.12 1.55-.88 2.56 2.2-1.6 2.13 1.58-.85-2.53M65.6 22.04h-2.61l-.81-2.41-.79 2.41h-2.64l2.12 1.55-.88 2.56 2.2-1.6 2.13 1.58-.84-2.53M14.35 34.47h-2.61l-.81-2.41-.79 2.41H7.5l2.12 1.55-.88 2.56 2.2-1.6 2.13 1.58-.84-2.53M27.16 34.47h-2.6l-.82-2.41-.79 2.41h-2.63l2.11 1.55-.87 2.56 2.19-1.6 2.14 1.58-.85-2.53M39.97 34.47h-2.6l-.82-2.41-.79 2.41h-2.63l2.12 1.55-.88 2.56 2.2-1.6 2.13 1.58-.85-2.53M52.78 34.47h-2.6l-.81-2.41-.79 2.41h-2.64l2.12 1.55-.88 2.56 2.2-1.6 2.13 1.58-.85-2.53M65.6 34.47h-2.61l-.81-2.41-.79 2.41h-2.64l2.12 1.55-.88 2.56 2.2-1.6 2.13 1.58-.84-2.53M14.35 46.9h-2.61l-.81-2.4-.79 2.4H7.5l2.12 1.55-.88 2.56 2.2-1.6 2.13 1.58-.84-2.53M27.16 46.9h-2.6l-.82-2.4-.79 2.4h-2.63l2.11 1.55-.87 2.56 2.19-1.6 2.14 1.58-.85-2.53M39.97 46.9h-2.6l-.82-2.4-.79 2.4h-2.63l2.12 1.55-.88 2.56 2.2-1.6 2.13 1.58-.85-2.53M52.78 46.9h-2.6l-.81-2.4-.79 2.4h-2.64l2.12 1.55-.88 2.56 2.2-1.6 2.13 1.58-.85-2.53M65.6 46.9h-2.61l-.81-2.4-.79 2.4h-2.64l2.12 1.55-.88 2.56 2.2-1.6 2.13 1.58-.84-2.53M8.24 53.12h-2.6l-.81-2.41-.79 2.41H1.4l2.12 1.55-.88 2.55 2.2-1.6 2.13 1.58-.85-2.53M21.06 53.12h-2.6l-.82-2.41-.79 2.41h-2.64l2.12 1.55-.88 2.55 2.2-1.6 2.14 1.58-.85-2.53M33.87 53.12h-2.6l-.82-2.41-.79 2.41h-2.63l2.12 1.55-.88 2.55 2.19-1.6 2.14 1.58-.85-2.53M46.68 53.12h-2.6l-.81-2.41-.79 2.41h-2.64l2.12 1.55-.88 2.55 2.2-1.6 2.13 1.58-.85-2.53M59.49 53.12h-2.6l-.81-2.41-.79 2.41h-2.64l2.12 1.55-.88 2.55 2.2-1.6 2.13 1.58-.85-2.53M72.31 53.12h-2.6l-.82-2.41-.79 2.41h-2.64l2.12 1.55-.88 2.55 2.2-1.6 2.14 1.58-.85-2.53M74.51 8.26h99.99v8.26H74.51M74.51 24.78h99.99v8.26H74.51M74.51 41.3h99.99v8.26H74.51M0 57.82h174.5v8.26H0M0 74.34h174.5v8.26H0M0 90.86h174.5v8.26H0"/><path d="M5.74 116.78l4.34 12.76h.05l4.11-12.76h5.74v18.56h-3.82v-13.15h-.05l-4.55 13.15H8.42l-4.55-13.02h-.05v13.02H0v-18.56h5.74zM32.85 116.78l6.94 18.56h-4.24l-1.4-4.13h-6.94l-1.46 4.13h-4.11l7.02-18.56h4.19zm.23 11.39l-2.34-6.81h-.05l-2.42 6.81h4.81zM49.43 116.78c1.2 0 2.31.19 3.34.57 1.03.38 1.92.95 2.68 1.71.75.76 1.34 1.72 1.77 2.86.42 1.14.64 2.49.64 4.03 0 1.35-.17 2.6-.52 3.74-.35 1.14-.87 2.13-1.57 2.96-.7.83-1.58 1.49-2.63 1.96-1.05.48-2.28.71-3.7.71h-8v-18.56h7.99zm-.28 15.13c.59 0 1.16-.1 1.72-.29.55-.19 1.05-.51 1.48-.95.43-.44.78-1.02 1.04-1.73s.39-1.58.39-2.6c0-.94-.09-1.78-.27-2.53-.18-.75-.48-1.4-.9-1.94-.42-.54-.97-.95-1.65-1.23-.68-.29-1.53-.43-2.53-.43h-2.91v11.7h3.63zM74.59 116.78v3.43h-9.8v3.98h8.99v3.17h-8.99v4.55H74.8v3.43H60.71v-18.56h13.88zM90.44 116.78v18.56h-4.08v-18.56h4.08zM98.11 116.78l7.75 12.45h.05v-12.45h3.82v18.56h-4.08l-7.72-12.42h-.05v12.42h-3.82v-18.56h4.05zM135.77 133.92c-1.4 1.22-3.34 1.83-5.82 1.83-2.51 0-4.46-.61-5.83-1.82-1.38-1.21-2.07-3.08-2.07-5.61v-11.54h4.08v11.54c0 .5.04 1 .13 1.48.09.49.27.91.55 1.29.28.37.66.68 1.16.91.49.23 1.16.35 1.99.35 1.46 0 2.46-.32 3.02-.97.55-.65.83-1.67.83-3.05v-11.54h4.08v11.54c-.01 2.51-.71 4.37-2.12 5.59zM144.53 130.77c.23.43.52.78.9 1.05.37.27.81.47 1.31.6s1.02.19 1.56.19c.36 0 .75-.03 1.17-.09.42-.06.81-.18 1.17-.35.36-.17.67-.41.91-.71s.36-.69.36-1.16c0-.5-.16-.91-.48-1.22-.32-.31-.74-.57-1.26-.78-.52-.21-1.11-.39-1.77-.55-.66-.16-1.33-.33-2-.52-.69-.17-1.37-.39-2.03-.64-.66-.25-1.25-.58-1.77-.97-.52-.4-.94-.9-1.26-1.49-.32-.6-.48-1.32-.48-2.17 0-.95.2-1.78.61-2.48s.94-1.29 1.6-1.75c.66-.47 1.4-.81 2.23-1.04.83-.22 1.66-.34 2.5-.34.97 0 1.9.11 2.79.32.89.22 1.69.57 2.38 1.05.69.49 1.24 1.1 1.65 1.86.41.75.61 1.67.61 2.74h-3.95c-.03-.55-.15-1.01-.35-1.38-.2-.36-.46-.65-.79-.86-.33-.21-.71-.36-1.13-.44-.42-.09-.89-.13-1.39-.13-.33 0-.66.03-.99.1-.33.07-.63.19-.9.36-.27.17-.49.39-.66.65-.17.26-.26.59-.26.99 0 .36.07.66.21.88.14.23.41.43.82.62s.97.38 1.69.57c.72.19 1.66.43 2.82.73.35.07.83.19 1.44.38.61.18 1.23.47 1.83.87.61.4 1.13.93 1.57 1.6.44.67.66 1.52.66 2.56 0 .85-.16 1.64-.49 2.36-.33.73-.82 1.36-1.47 1.88-.65.53-1.45.94-2.42 1.23-.96.29-2.08.44-3.34.44-1.02 0-2.01-.13-2.98-.38-.96-.25-1.81-.64-2.55-1.18-.74-.54-1.32-1.22-1.75-2.05-.43-.83-.64-1.82-.62-2.96h3.95c.01.64.12 1.17.35 1.61zM167.56 116.78l6.94 18.56h-4.24l-1.4-4.13h-6.94l-1.46 4.13h-4.11l7.02-18.56h4.19zm.23 11.39l-2.34-6.81h-.05l-2.42 6.81h4.81z"/></svg>