<svg version="1.2" baseProfile="tiny" xmlns="http://www.w3.org/2000/svg" x="0" y="0" viewBox="0 0 606.04 82.68" xml:space="preserve"><path fill="#FFF" d="M50.93 45.63c-.3-7.14-.5-15.62-.5-24.35h-.2c-1.9 7.54-4.34 16.06-6.61 22.97l-7.14 23.24H26.04l-6.27-22.97c-1.9-7.04-3.77-15.42-5.3-23.24h-.2c-.22 7.97-.53 17.16-.81 24.54l-1.23 22.61H0L3.72 8.98h17.67l5.76 19.92c1.9 6.8 3.65 14.19 4.95 21.23h.35c1.53-6.93 3.55-14.66 5.61-21.39l6.2-19.76h17.38l3.16 59.45H51.87l-.94-22.8zM88.61 53.19l-4.12 15.24H70.78L88.73 8.98h17.3l18.31 59.45h-14.3l-4.52-15.24H88.61zm14.92-10.09L99.9 30.52c-1.01-3.5-2.02-8-2.91-11.49h-.21c-.82 3.56-1.82 8.05-2.64 11.49l-3.6 12.58h12.99zM132.2 9.86c4.89-.88 11.21-1.27 17.89-1.27 11.29 0 18.57 1.84 24.18 6.14 6.07 4.6 9.94 12.01 9.94 22.62 0 11.39-4.1 19.18-9.74 24.02-6.14 5.23-15.68 7.73-27.2 7.73-6.8 0-11.86-.46-15.06-.89V9.86zm13.25 48.45c1.13.25 3.11.25 4.63.25 12.06.11 20.03-6.65 20.03-20.77 0-12.82-7.19-18.94-18.7-18.94-2.85 0-4.84.28-5.96.56v38.9zM227.82 43.32h-21.58V57.4h24.13v11.03h-37.41V8.98h36.23V20h-22.96v12.36h21.58v10.96zM423.58 8.98v22.96h21.87V8.98h13.28v59.45h-13.28V43.66h-21.87v24.77h-13.24V8.98h13.24zM505.24 43.32h-21.55V57.4h24.06v11.03H470.4V8.98h36.17V20h-22.88v12.36h21.55v10.96zM516.87 9.86c4.29-.76 10.59-1.27 17.68-1.27 8.7 0 14.77 1.27 19 4.66 3.53 2.88 5.5 7.05 5.5 12.5 0 7.49-5.3 12.69-10.36 14.59v.22c4.04 1.7 6.3 5.57 7.86 11.02 1.76 6.81 3.52 14.55 4.69 16.86h-13.6c-.87-1.65-2.35-6.56-4.03-13.89-1.63-7.47-4.16-9.36-9.63-9.47h-3.91v23.35h-13.2V9.86zm13.19 25.55h5.22c6.61 0 10.5-3.39 10.5-8.6 0-5.4-3.65-8.2-9.7-8.2-3.3 0-5.12.17-6.02.4v16.4zM603.49 43.32H581.9V57.4h24.16v11.03h-37.41V8.98h36.18V20H581.9v12.36h21.59v10.96z"/><path fill="#B22435" d="M387.66 82.68V0H253.3v82.68"/><path fill="#3D3C6F" d="M253.3 0h57.31v44.51H253.3"/><path fill="#FFF" d="M259.64 2.61h-2l-.62-1.86-.61 1.86h-2.03l1.63 1.19-.68 1.97 1.7-1.23 1.64 1.22-.66-1.95M269.52 2.61h-2.01l-.63-1.86-.61 1.86h-2.03l1.63 1.19-.67 1.97 1.69-1.23 1.65 1.22-.66-1.95M279.38 2.61h-2l-.63-1.86-.61 1.86h-2.03l1.64 1.19-.68 1.97 1.68-1.23 1.65 1.22-.65-1.95M289.24 2.61h-2l-.62-1.86-.61 1.86h-2.03l1.63 1.19-.68 1.97 1.7-1.23 1.64 1.22-.66-1.95M299.11 2.61h-2l-.63-1.86-.61 1.86h-2.03l1.63 1.19-.67 1.97 1.69-1.23 1.64 1.22-.66-1.95M308.98 2.61h-2l-.63-1.86-.61 1.86h-2.04l1.64 1.19-.68 1.97 1.69-1.23L308 5.76l-.65-1.95M259.64 12.19h-2l-.62-1.87-.61 1.87h-2.03l1.63 1.18-.68 1.97 1.7-1.23 1.64 1.22-.66-1.95M269.52 12.19h-2.01l-.63-1.87-.61 1.87h-2.03l1.63 1.18-.67 1.97 1.69-1.23 1.65 1.22-.66-1.95M279.38 12.19h-2l-.63-1.87-.61 1.87h-2.03l1.64 1.18-.68 1.97 1.68-1.23 1.65 1.22-.65-1.95M289.24 12.19h-2l-.62-1.87-.61 1.87h-2.03l1.63 1.18-.68 1.97 1.7-1.23 1.64 1.22-.66-1.95M299.11 12.19h-2l-.63-1.87-.61 1.87h-2.03l1.63 1.18-.67 1.97 1.69-1.23 1.64 1.22-.66-1.95M308.98 12.19h-2l-.63-1.87-.61 1.87h-2.04l1.64 1.18-.68 1.97 1.69-1.23 1.65 1.22-.65-1.95M259.64 21.76h-2l-.62-1.86-.61 1.86h-2.03l1.63 1.18-.68 1.97 1.7-1.23 1.64 1.22-.66-1.95M269.52 21.76h-2.01l-.63-1.86-.61 1.86h-2.03l1.63 1.18-.67 1.97 1.69-1.23 1.65 1.22-.66-1.95M279.38 21.76h-2l-.63-1.86-.61 1.86h-2.03l1.64 1.18-.68 1.97 1.68-1.23 1.65 1.22-.65-1.95M289.24 21.76h-2l-.62-1.86-.61 1.86h-2.03l1.63 1.18-.68 1.97 1.7-1.23 1.64 1.22-.66-1.95M299.11 21.76h-2l-.63-1.86-.61 1.86h-2.03l1.63 1.18-.67 1.97 1.69-1.23 1.64 1.22-.66-1.95M308.98 21.76h-2l-.63-1.86-.61 1.86h-2.04l1.64 1.18-.68 1.97 1.69-1.23L308 24.9l-.65-1.95M259.64 31.33h-2l-.62-1.86-.61 1.86h-2.03l1.63 1.18-.68 1.97 1.7-1.23 1.64 1.22-.66-1.95M269.52 31.33h-2.01l-.63-1.86-.61 1.86h-2.03l1.63 1.18-.67 1.97 1.69-1.23 1.65 1.22-.66-1.95M279.38 31.33h-2l-.63-1.86-.61 1.86h-2.03l1.64 1.18-.68 1.97 1.68-1.23 1.65 1.22-.65-1.95M289.24 31.33h-2l-.62-1.86-.61 1.86h-2.03l1.63 1.18-.68 1.97 1.7-1.23 1.64 1.22-.66-1.95M299.11 31.33h-2l-.63-1.86-.61 1.86h-2.03l1.63 1.18-.67 1.97 1.69-1.23 1.64 1.22-.66-1.95M308.98 31.33h-2l-.63-1.86-.61 1.86h-2.04l1.64 1.18-.68 1.97 1.69-1.23 1.65 1.22-.65-1.95M264.35 7.4h-2.01l-.62-1.86-.61 1.86h-2.04l1.64 1.19-.68 1.97 1.69-1.23 1.64 1.21-.64-1.94M274.21 7.4h-2l-.63-1.86-.61 1.86h-2.02l1.62 1.19-.67 1.97 1.69-1.23 1.65 1.21-.66-1.94M284.08 7.4h-2.01l-.63-1.86-.6 1.86h-2.03l1.63 1.19-.68 1.97 1.7-1.23 1.64 1.21-.66-1.94M293.94 7.4h-2l-.63-1.86-.6 1.86h-2.04l1.64 1.19-.68 1.97 1.69-1.23 1.64 1.21-.65-1.94M303.81 7.4h-2.01l-.62-1.86-.61 1.86h-2.03l1.63 1.19-.68 1.97 1.7-1.23 1.64 1.21-.65-1.94M264.35 16.97h-2.01l-.62-1.86-.61 1.86h-2.04l1.64 1.19-.68 1.97 1.69-1.23 1.64 1.22-.64-1.95M274.21 16.97h-2l-.63-1.86-.61 1.86h-2.02l1.62 1.19-.67 1.97 1.69-1.23 1.65 1.22-.66-1.95M284.08 16.97h-2.01l-.63-1.86-.6 1.86h-2.03l1.63 1.19-.68 1.97 1.7-1.23 1.64 1.22-.66-1.95M293.94 16.97h-2l-.63-1.86-.6 1.86h-2.04l1.64 1.19-.68 1.97 1.69-1.23 1.64 1.22-.65-1.95M303.81 16.97h-2.01l-.62-1.86-.61 1.86h-2.03l1.63 1.19-.68 1.97 1.7-1.23 1.64 1.22-.65-1.95M264.35 26.54h-2.01l-.62-1.86-.61 1.86h-2.04l1.64 1.19-.68 1.97 1.69-1.23 1.64 1.22-.64-1.95M274.21 26.54h-2l-.63-1.86-.61 1.86h-2.02l1.62 1.19-.67 1.97 1.69-1.23 1.65 1.22-.66-1.95M284.08 26.54h-2.01l-.63-1.86-.6 1.86h-2.03l1.63 1.19-.68 1.97 1.7-1.23 1.64 1.22-.66-1.95M293.94 26.54h-2l-.63-1.86-.6 1.86h-2.04l1.64 1.19-.68 1.97 1.69-1.23 1.64 1.22-.65-1.95M303.81 26.54h-2.01l-.62-1.86-.61 1.86h-2.03l1.63 1.19-.68 1.97 1.7-1.23 1.64 1.22-.65-1.95M264.35 36.11h-2.01l-.62-1.85-.61 1.85h-2.04l1.64 1.19-.68 1.97 1.69-1.23 1.64 1.22-.64-1.95M274.21 36.11h-2l-.63-1.85-.61 1.85h-2.02l1.62 1.19-.67 1.97 1.69-1.23 1.65 1.22-.66-1.95M284.08 36.11h-2.01l-.63-1.85-.6 1.85h-2.03l1.63 1.19-.68 1.97 1.7-1.23 1.64 1.22-.66-1.95M293.94 36.11h-2l-.63-1.85-.6 1.85h-2.04l1.64 1.19-.68 1.97 1.69-1.23 1.64 1.22-.65-1.95M303.81 36.11h-2.01l-.62-1.85-.61 1.85h-2.03l1.63 1.19-.68 1.97 1.7-1.23 1.64 1.22-.65-1.95M259.64 40.9h-2l-.62-1.86-.61 1.86h-2.03l1.63 1.19-.68 1.97 1.7-1.24 1.64 1.22-.66-1.95M269.52 40.9h-2.01l-.63-1.86-.61 1.86h-2.03l1.63 1.19-.67 1.97 1.69-1.24 1.65 1.22-.66-1.95M279.38 40.9h-2l-.63-1.86-.61 1.86h-2.03l1.64 1.19-.68 1.97 1.68-1.24 1.65 1.22-.65-1.95M289.24 40.9h-2l-.62-1.86-.61 1.86h-2.03l1.63 1.19-.68 1.97 1.7-1.24 1.64 1.22-.66-1.95M299.11 40.9h-2l-.63-1.86-.61 1.86h-2.03l1.63 1.19-.67 1.97 1.69-1.24 1.64 1.22-.66-1.95M308.98 40.9h-2l-.63-1.86-.61 1.86h-2.04l1.64 1.19-.68 1.97 1.69-1.24 1.65 1.22-.65-1.95M310.67 6.36h76.99v6.36h-76.99M310.67 19.08h76.99v6.36h-76.99M310.67 31.8h76.99v6.36h-76.99M253.3 44.52h134.36v6.36H253.3M253.3 57.24h134.36v6.36H253.3M253.3 69.96h134.36v6.36H253.3"/></svg>