<svg version="1.2" baseProfile="tiny" xmlns="http://www.w3.org/2000/svg" x="0" y="0" viewBox="0 0 323.56 82.72" xml:space="preserve"><linearGradient id="a" gradientUnits="userSpaceOnUse" x1="20.635" y1="71.341" x2="20.635" y2="19.319"><stop offset="0" stop-color="#3D72A2"/><stop offset=".19" stop-color="#4F82B0"/><stop offset=".553" stop-color="#6AA2CC"/><stop offset=".835" stop-color="#7CB8E0"/><stop offset="1" stop-color="#82C1EA"/></linearGradient><path fill="url(#a)" d="M10.77 19.4c.24.03.46.1.65.21.18.1.35.25.5.44.15.19.31.45.47.8L30.2 56.32c.03-.69.08-1.38.13-2.03.05-.66.11-1.27.17-1.86l3.54-33.11h7.23l-5.6 51.99-4.2.01c-.63 0-1.16-.12-1.6-.35-.45-.24-.81-.65-1.11-1.27l-17.7-35.47c-.04.57-.08 1.13-.12 1.67-.04.54-.07 1.06-.13 1.54l-3.56 33.9H.02l5.58-52h4.28c.35.01.64.02.89.06z"/><linearGradient id="b" gradientUnits="userSpaceOnUse" x1="60.109" y1="71.307" x2="60.109" y2="19.276"><stop offset="0" stop-color="#3D72A2"/><stop offset=".19" stop-color="#4F82B0"/><stop offset=".553" stop-color="#6AA2CC"/><stop offset=".835" stop-color="#7CB8E0"/><stop offset="1" stop-color="#82C1EA"/></linearGradient><path fill="url(#b)" d="M80.77 71.26h-6.35c-.72 0-1.28-.19-1.71-.58-.43-.37-.69-.89-.79-1.54l-1.9-10.85-17.01.01-4.21 10.86c-.24.56-.62 1.05-1.13 1.48-.53.43-1.12.64-1.77.64l-6.44.02 22.01-52.03h8.36l10.94 51.99zM55.55 51.72l13.29-.01-3.11-17.8c-.17-.86-.34-1.77-.5-2.73-.18-.97-.34-2.04-.49-3.23-.39 1.19-.78 2.31-1.17 3.33-.39 1.02-.75 1.91-1.08 2.67l-6.94 17.77z"/><linearGradient id="c" gradientUnits="userSpaceOnUse" x1="98.113" y1="71.237" x2="98.113" y2="19.224"><stop offset="0" stop-color="#3D72A2"/><stop offset=".19" stop-color="#4F82B0"/><stop offset=".553" stop-color="#6AA2CC"/><stop offset=".835" stop-color="#7CB8E0"/><stop offset="1" stop-color="#82C1EA"/></linearGradient><path fill="url(#c)" d="M115.13 19.22l-.83 7.65-12.5.02-4.76 44.33-8.14.01 4.73-44.34-12.53.03.82-7.66 33.21-.04z"/><linearGradient id="d" gradientUnits="userSpaceOnUse" x1="135.194" y1="71.764" x2="135.194" y2="19.172"><stop offset="0" stop-color="#3D72A2"/><stop offset=".19" stop-color="#4F82B0"/><stop offset=".553" stop-color="#6AA2CC"/><stop offset=".835" stop-color="#7CB8E0"/><stop offset="1" stop-color="#82C1EA"/></linearGradient><path fill="url(#d)" d="M132.19 63.71c1.48 0 2.82-.32 4.05-.95 1.23-.65 2.3-1.54 3.23-2.71.92-1.16 1.68-2.57 2.28-4.19.6-1.62 1.01-3.44 1.21-5.44l3.36-31.26 8.17-.01-3.32 31.26c-.34 3.06-1.04 5.92-2.15 8.52-1.09 2.6-2.49 4.87-4.2 6.76-1.71 1.91-3.7 3.37-5.99 4.44-2.29 1.07-4.78 1.61-7.49 1.61-2.46.01-4.64-.43-6.57-1.3-1.91-.88-3.53-2.11-4.84-3.68-1.32-1.57-2.32-3.46-3.01-5.65-.69-2.2-1.03-4.61-1.03-7.25 0-1.08.06-2.22.19-3.4l3.28-31.25 8.21-.02-3.35 31.22c-.05.45-.07.9-.1 1.32-.02.44-.03.84-.03 1.26 0 1.63.18 3.09.53 4.42.34 1.33.86 2.44 1.55 3.38.68.93 1.53 1.66 2.54 2.16 1.02.52 2.18.76 3.48.76z"/><linearGradient id="e" gradientUnits="userSpaceOnUse" x1="173.504" y1="71.168" x2="173.504" y2="19.154"><stop offset="0" stop-color="#3D72A2"/><stop offset=".19" stop-color="#4F82B0"/><stop offset=".553" stop-color="#6AA2CC"/><stop offset=".835" stop-color="#7CB8E0"/><stop offset="1" stop-color="#82C1EA"/></linearGradient><path fill="url(#e)" d="M167.14 50.66l-2.18 20.49-8.14.02 5.54-52 12.96-.02c2.63 0 4.89.31 6.76.94 1.87.63 3.41 1.53 4.6 2.66 1.21 1.14 2.09 2.49 2.66 4.07.57 1.59.86 3.31.86 5.21 0 2.01-.24 3.9-.74 5.66-.49 1.77-1.18 3.38-2.12 4.81-.92 1.45-2.06 2.69-3.41 3.78-1.34 1.09-2.86 1.91-4.57 2.52.48.34.93.74 1.32 1.21.41.49.75 1.06 1.04 1.74l8.16 19.37h-7.35c-.69 0-1.28-.15-1.75-.49-.48-.32-.83-.77-1.06-1.37l-6.7-16.85c-.25-.63-.57-1.07-.93-1.35-.37-.27-.95-.41-1.73-.41h-3.22zm2.63-24.31L167.86 44h4.74c1.64 0 3.05-.27 4.25-.82 1.19-.55 2.16-1.28 2.93-2.23.76-.94 1.34-2.06 1.72-3.32.37-1.27.56-2.64.56-4.11-.01-2.25-.61-4.01-1.84-5.29-1.22-1.26-3.1-1.9-5.64-1.9l-4.81.02z"/><linearGradient id="f" gradientUnits="userSpaceOnUse" x1="210.92" y1="71.121" x2="210.92" y2="19.088"><stop offset="0" stop-color="#3D72A2"/><stop offset=".19" stop-color="#4F82B0"/><stop offset=".553" stop-color="#6AA2CC"/><stop offset=".835" stop-color="#7CB8E0"/><stop offset="1" stop-color="#82C1EA"/></linearGradient><path fill="url(#f)" d="M231.57 71.07l-6.34.02c-.71 0-1.28-.2-1.71-.59-.42-.38-.69-.89-.78-1.53l-1.9-10.86-17.02.01-4.21 10.86c-.24.54-.62 1.04-1.14 1.47-.53.44-1.13.66-1.77.66h-6.43l22-52.02 8.37-.01 10.93 51.99zm-25.21-19.52l13.28-.03-3.1-17.77c-.16-.88-.34-1.79-.5-2.73-.17-.97-.33-2.04-.48-3.24-.4 1.2-.79 2.31-1.18 3.33-.39 1.02-.75 1.9-1.08 2.66l-6.94 17.78z"/><linearGradient id="g" gradientUnits="userSpaceOnUse" x1="248.013" y1="71.07" x2="248.013" y2="19.053"><stop offset="0" stop-color="#3D72A2"/><stop offset=".19" stop-color="#4F82B0"/><stop offset=".553" stop-color="#6AA2CC"/><stop offset=".835" stop-color="#7CB8E0"/><stop offset="1" stop-color="#82C1EA"/></linearGradient><path fill="url(#g)" d="M244.22 63.33l16.59-.01-.77 7.73-24.82.02 5.57-51.98 8.19-.03-4.76 44.27z"/><linearGradient id="h" gradientUnits="userSpaceOnUse" x1="295.917" y1="82.725" x2="295.917" y2=".254"><stop offset="0" stop-color="#3D72A2"/><stop offset=".19" stop-color="#4F82B0"/><stop offset=".553" stop-color="#6AA2CC"/><stop offset=".835" stop-color="#7CB8E0"/><stop offset="1" stop-color="#82C1EA"/></linearGradient><linearGradient id="i" gradientUnits="userSpaceOnUse" x1="268.399" y1="41.489" x2="323.435" y2="41.489"><stop offset="0" stop-color="#3D72A2"/><stop offset=".19" stop-color="#4F82B0"/><stop offset=".553" stop-color="#6AA2CC"/><stop offset=".835" stop-color="#7CB8E0"/><stop offset="1" stop-color="#82C1EA"/></linearGradient><path fill-rule="evenodd" fill="url(#h)" stroke="url(#i)" stroke-width=".5" d="M323.19 1.34c-.02.1-.05.18-.05.29-.05.82-.16 1.64-.23 2.47-.08.86-.19 1.72-.24 2.59-.07.68-.15 1.35-.22 2.03-.06.68-.14 1.34-.2 2.03-.07.67-.14 1.35-.2 2.03-.06.47-.09.94-.14 1.42-.07.69-.14 1.37-.2 2.06-.06.47-.1.95-.16 1.42-.06.72-.13 1.44-.21 2.15-.05.47-.1.96-.13 1.46-.05.49-.11.99-.16 1.48-.06.48-.09.98-.14 1.46-.04.53-.1 1.06-.15 1.59-.05.48-.1.97-.14 1.45-.08.72-.13 1.44-.21 2.18-.05.49-.1.98-.13 1.46-.05.56-.11 1.12-.16 1.67-.05.52-.1 1.02-.14 1.53-.07.78-.13 1.54-.21 2.31-.09.8-.2 1.61-.3 2.4-.18 1.3-.4 2.58-.65 3.84-.43 2.05-.95 4.07-1.64 6.05-.73 2.08-1.6 4.09-2.73 5.96-.89 1.49-1.91 2.84-3.12 4.03-1.43 1.39-3.04 2.47-4.8 3.3-1.32.62-2.71 1.09-4.13 1.41-1.03.23-2.07.4-3.12.49-1.56.16-3.14.2-4.71.1-.55-.02-1.1-.04-1.63-.09-.58-.05-1.13-.1-1.68-.16-.43-.04-.83-.1-1.25-.14-.53-.08-1.07-.14-1.6-.23-.71-.1-1.42-.23-2.12-.35-.88-.15-1.74-.32-2.59-.48-.14-.03-.28-.05-.39-.08-.13.09-.21.21-.31.33-.45.58-.85 1.21-1.25 1.87-.91 1.48-1.71 3.03-2.44 4.62-1.45 3.12-2.66 6.35-3.74 9.64-.28.89-.56 1.78-.82 2.66-.08.26-.21.43-.44.55-.42.23-.86.41-1.31.5-.06.01-.1.06-.17.07h-1.34c-.05-.03-.11-.06-.15-.08-.68-.19-1.24-.58-1.68-1.19-.28-.38-.49-.8-.67-1.26-.07-.17-.12-.36-.19-.54-.02-.06-.04-.12-.11-.13v-.31c.08-.03.1-.11.14-.19.38-.98.84-1.94 1.31-2.89 1.31-2.6 2.85-5.03 4.53-7.37 1.35-1.85 2.8-3.62 4.34-5.28.68-.72 1.39-1.44 2.08-2.15.07-.08.14-.15.23-.23-.08-.14-.17-.27-.25-.37-.58-.71-1.16-1.43-1.75-2.14-.6-.71-1.16-1.45-1.67-2.23-1.06-1.63-1.77-3.43-2.18-5.37-.38-1.79-.52-3.62-.4-5.46.26-4.26 1.7-8.01 4.26-11.24.76-.93 1.59-1.76 2.48-2.55 2.1-1.87 4.32-3.51 6.65-5 2.18-1.38 4.39-2.68 6.64-3.94 2.23-1.26 4.46-2.51 6.68-3.77 2.27-1.27 4.48-2.62 6.64-4.07 1.78-1.2 3.52-2.48 5.17-3.87 1.56-1.33 3.02-2.8 4.36-4.37 1.32-1.53 2.53-3.15 3.59-4.89.2-.35.42-.7.6-1.06.11-.21.23-.39.41-.54h.36c.1.11.19.22.3.32-.02.29-.02.54-.02.8zm-5.03 39c-.23-.01-.43 0-.65.02-1.02.08-2.02.15-3.04.23-.72.06-1.46.1-2.2.16-.34.03-.68.05-1.03.07-.74.05-1.48.11-2.2.17l-2.19.15c-.72.06-1.43.11-2.15.16-.75.05-1.49.11-2.23.16-1.02.07-2.03.15-3.05.22-1.03.08-2.07.14-3.1.21-.3.02-.6.04-.91.07-.22.01-.44.05-.67.06-.06.08-.12.15-.19.23-.75 1.01-1.48 2.01-2.2 3.06-.9 1.33-1.72 2.72-2.55 4.11-.49.82-.97 1.64-1.44 2.44-.04.07-.13.13-.08.24h.21c.38-.02.76-.03 1.13-.05 1.19-.03 2.35-.09 3.53-.12 1.16-.05 2.35-.09 3.52-.13 1.16-.05 2.34-.09 3.52-.13 1.17-.03 2.35-.07 3.52-.12 1.17-.03 2.36-.09 3.54-.13 1.16-.04 2.33-.08 3.48-.13.48-.01.97-.02 1.44-.04l2.9-.12c1.51-3.42 2.44-7.02 3.09-10.79zm-30.51 12.77c-.07.11-.12.19-.18.3-.66 1.16-1.32 2.33-1.96 3.51-.74 1.32-1.45 2.68-2.13 4.07-.06.1-.12.18-.12.32.09.02.17.05.26.06 1.53.28 3.06.57 4.6.82 1.22.2 2.45.35 3.67.49 1.05.1 2.12.17 3.18.22 1.28.04 2.56.01 3.82-.1 1.04-.08 2.09-.23 3.12-.45 1.4-.3 2.78-.74 4.1-1.35 1.64-.76 3.15-1.75 4.47-3.05 1.08-1.05 2.01-2.23 2.82-3.52.41-.66.8-1.33 1.15-2.03.03-.08.11-.14.05-.24-.11 0-.22-.01-.32 0-.71.02-1.43.06-2.16.09-1.17.04-2.35.08-3.53.13-1.17.05-2.35.08-3.52.12-1.18.05-2.36.09-3.54.13-1.16.03-2.34.08-3.49.13-1.17.03-2.34.09-3.5.12-.95.04-1.9.05-2.85.1-1.03.03-2.06.09-3.07.11-.28.01-.57.01-.87.02zm30.67-13.83c.06-.45.13-.87.18-1.3.09-.74.19-1.5.26-2.25.08-.79.15-1.59.21-2.37.06-.54.11-1.06.16-1.59.04-.47.09-.94.13-1.42v-.21h-.29c-.27.03-.53.06-.82.08-.54.06-1.08.12-1.64.18-.48.05-.94.1-1.42.14l-1.61.18-1.46.15c-.54.05-1.06.12-1.59.16-.47.05-.97.1-1.46.16-.51.05-1.02.1-1.53.16-.51.05-1.01.1-1.52.16-.74.07-1.49.14-2.23.23-.13.01-.24.05-.33.15-.29.32-.54.62-.82.92-1.48 1.65-2.97 3.3-4.41 5.01-.76.91-1.51 1.83-2.27 2.77-.08.08-.16.17-.22.31.13 0 .24.01.35 0 .89-.06 1.8-.14 2.72-.19.3-.02.62-.04.95-.07.75-.06 1.52-.12 2.26-.17.42-.03.83-.05 1.26-.09.71-.05 1.44-.1 2.15-.16.76-.05 1.51-.1 2.25-.16 1-.08 2.01-.16 3.03-.23.74-.05 1.47-.1 2.21-.14.34-.03.68-.05 1.02-.08.75-.05 1.48-.12 2.22-.17l2.18-.15c0 .02.03 0 .08-.01zm-37.43-5.09c-.04.01-.05.01-.06.03-.02.01-.03.03-.07.05-1.28 1.43-2.33 3.02-3.13 4.81-1.07 2.42-1.59 4.98-1.59 7.67 0 1.39.12 2.77.44 4.13.34 1.6.91 3.09 1.74 4.45.57.94 1.23 1.81 1.94 2.64.42.49.82 1 1.24 1.5.33.42.65.83.94 1.31 0 .03.02.03.05.05.49-.92.93-1.85 1.42-2.77.48-.91.97-1.82 1.47-2.74.5-.89 1.01-1.78 1.52-2.67-1.97-6.16-3.94-12.31-5.91-18.46zm.74-.82c.08.33 5.27 16.66 5.73 17.99.01.05.04.09.07.15.1-.08.14-.18.2-.25.57-1 1.16-1.98 1.74-2.97 1.24-2.12 2.6-4.16 4.06-6.11.13-.17.25-.35.38-.51.07-.08.08-.18.05-.27-.01-.07-.03-.11-.04-.16-.64-2.67-1.28-5.35-1.93-8.02-.48-2.04-.98-4.09-1.47-6.13-.01-.06-.01-.14-.1-.18-3.07 1.86-6.01 3.95-8.69 6.46zm19.68-12.77c-.06.04-.13.06-.2.1-1.95 1.11-3.92 2.19-5.87 3.29-1.25.71-2.5 1.45-3.74 2.19-.1.06-.21.09-.26.21.01.08.02.15.04.23.6 2.48 1.2 4.97 1.79 7.45l1.5 6.25c.02.07.05.12.1.22 1.29-1.64 2.61-3.23 3.94-4.78 1.35-1.53 2.71-3.06 4.09-4.59v-.19c-.44-3.44-.87-6.87-1.32-10.32-.01 0-.03-.01-.07-.06zm18.72 1.41c-.07 0-.12.01-.15.02-.38.06-.73.1-1.11.16-.62.09-1.23.18-1.85.28-.65.09-1.28.2-1.92.28-.66.11-1.34.2-1.98.3-.62.1-1.24.21-1.89.28-.19.02-.32.1-.47.25-1.39 1.7-2.83 3.33-4.28 4.95-.56.62-1.11 1.25-1.68 1.86-.05.06-.11.11-.14.22.06 0 .12 0 .15-.01.3-.02.59-.05.88-.08.48-.05.97-.1 1.44-.16.56-.05 1.08-.11 1.64-.17.47-.04.96-.1 1.44-.14.53-.06 1.05-.11 1.58-.17.49-.05.98-.1 1.48-.16.54-.05 1.08-.11 1.61-.16l1.46-.15c.52-.05 1.03-.1 1.53-.17.49-.04.97-.09 1.45-.14.04 0 .09-.03.13-.04.09-.43.71-6.79.68-7.05zm-16.51 8.19c.14-.04.2-.14.26-.22.82-.89 1.62-1.78 2.42-2.69 1.31-1.46 2.59-2.94 3.84-4.45.06-.06.11-.14.17-.2-.05-.17-.05-.32-.08-.46-.17-1.02-.33-2.04-.5-3.06-.16-1.02-.32-2.03-.47-3.05-.03-.06-.05-.12-.08-.2-.11.07-.19.13-.27.18-.54.35-1.08.71-1.63 1.07-1.52.97-3.08 1.89-4.63 2.78-.11.07-.23.1-.3.23.39 3.33.85 6.69 1.27 10.07zm-29.8 50.96c.03-.09.04-.17.08-.26.31-.96.6-1.92.92-2.88 1.06-3.2 2.26-6.34 3.68-9.39.76-1.63 1.57-3.23 2.51-4.73.3-.45.51-.95.73-1.44.01-.04.01-.08.03-.17-.12.11-.18.17-.26.23-.62.66-1.26 1.32-1.88 1.99-2.06 2.24-3.94 4.64-5.62 7.2-1.29 1.97-2.48 4.02-3.48 6.19-.21.43-.38.88-.58 1.32-.05.11-.06.19-.02.31.16.45.35.89.64 1.26.38.5.87.77 1.48.82.61.03 1.19-.15 1.77-.45zm47.91-75.25c-.05.12.67-3.54.65-3.44-.78 2.01-2.47 7.7-3.5 9.57-1.45 2.63-3.09 5.13-4.88 7.48-.63.85-1.28 1.66-1.92 2.48-.03.05-.1.08-.04.18 2.74-.42 5.47-.82 8.21-1.23.02-.03.05-.07.05-.09.5-4.96.98-9.91 1.48-14.88-.02 0-.04-.01-.05-.07zM310.99 21.6c.01.02.06.03.07.03.05-.07.09-.13.14-.19 1.33-1.65 2.6-3.34 3.8-5.08 1.79-2.61 3.39-5.35 4.7-8.28 2.79-6.16 2.87-7.69 1.33-3.26.03-.08.09-.16.05-.27h-.02c-.06.05-.09.09-.12.14-1.09 1.52-2.28 2.94-3.56 4.29-1.05 1.13-2.17 2.2-3.34 3.18-1.25 1.04-2.55 2.01-3.87 2.95-.09.06-.19.09-.24.21.08.13.12.28.15.44.07.52.17 1.05.25 1.57.16 1.04.34 2.09.51 3.13.02.4.09.77.15 1.14z"/></svg>