<svg version="1.2" baseProfile="tiny" xmlns="http://www.w3.org/2000/svg" x="0" y="0" viewBox="0 0 300 98.66" xml:space="preserve"><path fill-rule="evenodd" fill="#498DCB" d="M77.94 19.62c-1.58 1.72-3.19 3.46-5.18 5.61V8.76h15.89c-1.57 1.54-2.97 2.92-4.37 4.29 22.75 24.03 16.77 52.34 3.67 67.84-15.26 18.06-40.2 22.69-60.66 12.39C5.69 82.39-3.3 57.7 1.08 39.27 6.3 17.29 25.12.38 45.01 0v8.26C21.76 11.17 8.25 32.85 8.75 49.84 9.36 70.12 24.62 85.9 40.66 89c20.76 4.02 37.19-4.64 45.9-21.85 8.59-16.92 3.96-36.25-8.62-47.53z"/><path fill-rule="evenodd" fill="#498DCB" d="M57.21 80.16H42.24V56.8H18.65V41.81h23.36V18.09h15.04v23.6h23.69V56.7H57.21v23.46zM222.31 48.28c-.05 8.68-6.11 14.76-14.58 14.63-8.5-.14-14.49-6.36-14.37-14.96.11-8.73 6.16-14.66 14.9-14.59 8.34.07 14.11 6.19 14.05 14.92zm-4.62-.25c-.02-6.26-3.47-10.36-8.85-10.69-7.66-.48-11.16 5.04-10.76 11.73.26 4.31 1.94 7.89 6.41 9.37 7.26 2.41 13.22-2.32 13.2-10.41zM282.72 62.49h-4.38V34.07c4.18 0 8.31-.35 12.36.1 4.24.48 6.35 2.9 6.82 6.51.51 3.82-1.32 7-5.04 8.78-.37.18-.74.34-1.25.58 2.93 4.12 5.8 8.16 8.79 12.33-3.2.66-5.59.28-7.19-2.77-1.15-2.21-2.97-4.07-4.19-6.25-1.33-2.35-3.15-2.95-5.9-2.24-.02 3.69-.02 7.49-.02 11.38zm0-14.96c1.98 0 3.58.03 5.17-.02.54-.01 1.1-.18 1.63-.35 2.48-.82 3.77-2.83 3.58-5.46-.18-2.31-1.56-3.83-4.15-4.24-1.64-.25-3.33-.28-4.98-.25-.44.01-1.19.65-1.2 1.02-.09 3.03-.05 6.08-.05 9.3zM120.62 34.06c4.3 0 8.39-.36 12.36.1 4.32.49 6.49 2.98 6.9 6.68.42 3.75-1.38 6.82-5.02 8.6-.42.21-.84.42-1.27.64 2.92 4.1 5.77 8.12 8.67 12.18-4.03.91-4.72.66-6.89-2.47-1.48-2.13-3.11-4.17-4.39-6.4-1.32-2.31-3.07-3.06-5.86-2.26v11.34h-4.49c-.01-9.55-.01-19.02-.01-28.41zm4.43 13.77c2.55-.26 4.8-.24 6.92-.76 2.41-.58 3.63-2.73 3.47-5.29-.15-2.34-1.5-3.9-4.07-4.31-1.64-.27-3.33-.31-4.99-.26-.46.02-1.26.72-1.28 1.12-.1 3-.05 5.98-.05 9.5zM259.39 46.31h10.52v3.41c-2.73 0-5.49.11-8.24-.03-1.9-.09-2.64.46-2.49 2.45.16 2.14.03 4.3.03 6.74h13.28v3.62h-17.64V33.85h17.65v3.43h-13.12c.01 3.06.01 5.87.01 9.03zM151.03 46.29h10.68v3.43h-6.52c-4.16 0-4.16 0-4.16 4.26v4.96h13.29v3.54h-17.7V33.85h17.69v3.48h-7.9c-1.19 0-2.38.07-3.57-.02-1.33-.09-1.89.35-1.84 1.77.1 2.28.03 4.58.03 7.21zM223.69 33.72c.98 0 1.69.09 2.36-.01 1.8-.28 2.61.63 3.21 2.21 2.54 6.72 5.15 13.39 7.74 20.09.1.24.29.45.41.63 2.53-6.45 5.03-12.86 7.55-19.26 1.57-3.99 1.58-3.98 6.13-3.49-.98 2.42-1.93 4.8-2.9 7.17-2.7 6.65-5.45 13.28-8.05 19.97-.6 1.57-1.58 1.57-2.9 1.6-1.32.03-2.09-.22-2.65-1.63-3.33-8.42-6.78-16.8-10.19-25.19-.21-.58-.39-1.16-.71-2.09zM191.16 36.98c-1.63 3-1.63 3-4.52 1.46-6.57-3.48-13.83.5-14.39 7.92-.26 3.5.04 6.87 2.54 9.64 2.98 3.31 8.63 4.02 12.49 1.61 2.48-1.55 2.48-1.55 4.28.87-3.71 5.18-13.35 5.99-18.88 1.6-6.22-4.94-7.08-15.85-1.73-22.1 4.87-5.72 14.56-6.26 20.21-1z"/></svg>