<svg version="1.2" baseProfile="tiny" xmlns="http://www.w3.org/2000/svg" x="0" y="0" viewBox="0 0 300 99.89" xml:space="preserve"><path fill-rule="evenodd" fill="#498DCB" d="M0 49.95C0 22.33 22.47-.04 50.21 0c27.66.03 50.01 22.26 50.11 49.85.1 27.58-22.34 50.01-50.11 50.04C22.46 99.92 0 77.57 0 49.95zm91.03.1c.06-22.45-18.15-40.82-40.56-40.9C27.71 9.06 9.35 27.2 9.29 49.85c-.04 22.48 18.11 40.8 40.56 40.88 22.79.1 41.12-18.01 41.18-40.68zM177.68 58.59V30.21c4.71 0 9.4-.54 13.91.12 7.58 1.1 11.69 7.24 11.13 15.46-.48 7.13-5.74 12.35-13.16 12.75-3.86.22-7.74.05-11.88.05zm4.52-3.71c2.7 0 5.27.2 7.79-.05 3.51-.34 6.02-2.29 7.29-5.63 1.28-3.36 1.25-6.78-.09-10.12-1.12-2.82-3.22-4.82-6.23-5.19-2.83-.35-5.74-.07-8.76-.07v21.06zM208.04 30.34c4.27 0 8.37-.34 12.4.1 4.14.45 6.27 2.94 6.68 6.54.43 3.71-1.34 6.8-4.93 8.55-.43.21-.85.43-1.32.66 2.88 4.05 5.72 8.03 8.57 12.03-3.51 1.02-4.71.61-6.66-2.2-1.54-2.21-3.23-4.34-4.58-6.67-1.35-2.34-3.17-2.81-5.78-2.13v11.25h-4.39c.01-9.42.01-18.81.01-28.13zm4.38 13.61c2.52-.25 4.74-.23 6.85-.74 2.4-.58 3.61-2.71 3.46-5.24-.14-2.33-1.48-3.87-4.02-4.29-1.62-.26-3.31-.33-4.94-.24-.48.01-1.28.82-1.29 1.3-.13 2.9-.06 5.79-.06 9.21zM126.04 58.51h-4.45V30.08h4.26v12.27h14.8V30.11h4.44v28.34h-4.32V45.92h-14.73v12.59zM230.32 58.48c3.56-8.96 7.07-17.67 10.46-26.44.62-1.6 1.43-2.1 3.13-2.16 1.96-.07 2.72.66 3.38 2.4 3.12 8.14 6.4 16.23 9.62 24.33.23.57.45 1.14.69 1.72-4.19.76-4.35.67-5.82-3.21-1.51-4-1.51-4-5.72-4-1.66 0-3.32-.03-4.98 0-4.16.08-2.97-.69-4.59 3.24-.08.18-.12.39-.2.59-1.49 3.87-1.49 3.87-5.97 3.53zm18.65-10.68c-1.67-4.43-3.25-8.67-5-13.33-1.75 4.72-3.34 8.95-4.97 13.33h9.97zM297.41 45.84c-3 0-5.83.07-8.66-.03-1.43-.03-1.99.42-1.93 1.9.09 2.33.03 4.67.03 7.22h13.16v3.54H282.5V30.14H300v3.44h-13.12c0 2.79-.07 5.33.07 7.87.03.36 1.03.94 1.61.96 2.89.1 5.8.05 8.86.05-.01 1.1-.01 2.1-.01 3.38zM161.5 43.71c2.06-3.63 4.01-7.02 5.92-10.46 2.01-3.59 2-3.6 6.6-3.12-.4.72-.74 1.36-1.11 1.99-2.73 4.56-5.54 9.09-8.19 13.7-.61 1.07-.95 2.43-1 3.67-.14 2.95-.04 5.91-.04 8.99h-4.51c0-2.97.13-5.94-.06-8.88-.1-1.5-.51-3.12-1.25-4.43-2.59-4.56-5.38-9.02-8.09-13.52-.27-.46-.49-.94-.75-1.45 4.35-.69 4.43-.65 6.38 2.79 2.02 3.54 4.02 7.07 6.1 10.72zM277.9 30.13v3.52h-8.89v24.81h-4.52V33.68h-8.83v-3.55h22.24z"/><path fill-rule="evenodd" fill="#498DCB" d="M49.03 15.15c.98 2.2 1.94 4.4 2.95 6.58 4.45 9.49 9.94 18.35 16.13 26.81 2.97 4.06 5.08 8.35 4.99 13.55-.16 9.01-6.07 16.92-15.36 19.74-9.29 2.82-17.87 1.28-25.07-5.49-6.92-6.48-8.56-16.88-3.19-24.64 7.94-11.43 14.97-23.24 19.55-36.55z"/></svg>