<svg version="1.2" baseProfile="tiny" xmlns="http://www.w3.org/2000/svg" x="0" y="0" viewBox="0 0 300 98.3" xml:space="preserve"><path fill-rule="evenodd" fill="#498DCB" d="M49.3 98.3C22.09 98.35.01 76.33 0 49.14-.02 22.04 21.93.06 49.09 0c27.28-.06 49.36 21.87 49.39 49.03.01 27.23-21.93 49.22-49.18 49.27zm15.28-48.85c.05.15.09.31.14.46-13.59 10.06-27.17 20.12-40.8 30.22 15.43 13.13 41.91 12.84 56.97-6.3 14.4-18.29 8.81-42.01-3.13-52.55-10.18 9.68-20.35 19.37-30.53 29.04.07.15.14.3.2.44 5.71-.44 11.43-.87 17.15-1.31zm12.23-29.63C64.93 9.75 51.8 6.28 37.21 10.97c-15.8 5.08-25.24 16.28-27.73 32.66-2.05 13.45 2.43 24.97 12.16 34.72 5.44-6.54 10.68-12.85 16.22-19.51-6.71.53-12.84 1.03-18.95 1.51-.04-.11-.09-.2-.13-.31 19.26-13.35 38.52-26.7 58.03-40.22zM164.37 62.27c-1.98.56-3.31-.06-4.56-1.7-4.69-6.18-9.52-12.25-14.67-18.84v20.61h-3.83V34.51c2.12-.65 3.48.05 4.76 1.75 4.22 5.6 8.6 11.09 12.91 16.61.41.52.85 1.03 1.59 1.93V34.43h3.8v27.84zM207.04 50.25c2.89 4.07 5.65 7.93 8.43 11.84-3.6.95-4.63.6-6.57-2.19-1.48-2.12-3.11-4.15-4.38-6.39-1.29-2.26-3.01-2.94-5.72-2.29v11.1h-4.38V34.06c4.47.28 8.89.27 13.2.92 3.12.47 5.13 2.72 5.5 6.04.39 3.33-.72 6.03-3.57 7.9-.78.5-1.66.88-2.51 1.33zm-8.33-2.2c2.46-.25 4.65-.23 6.71-.73 2.37-.56 3.57-2.65 3.41-5.13-.13-2.29-1.43-3.83-3.93-4.23-1.59-.25-3.24-.32-4.85-.25-.47.03-1.26.81-1.28 1.26-.12 2.85-.06 5.69-.06 9.08zM241.58 37.42c-1.21 2.98-1.55 3.12-4.11 1.77-4.67-2.44-10.39-1.73-13.36 1.69-3.12 3.62-3.31 10.53-.4 14.52 2.69 3.66 9.4 5.04 13.35 2.69.39-.22.8-.78.83-1.21.09-1.54.03-3.1.03-4.66-1.69-.24-3.25-.3-4.67-.77-.32-.12-.2-1.63-.28-2.64h8.97c0 3.42.03 6.93-.03 10.43 0 .31-.34.73-.64.93-6.32 4.24-18.64 3.8-22.86-5.51-2.68-5.9-1.12-13.65 3.62-17.56 4.8-3.95 13.3-4.28 18.37-.69.42.3.79.68 1.18 1.01zM278.33 34.47c-.47 1.34-.64 2.58-1.28 3.49-4.19 6.04-8.49 12.01-12.74 18-.57.83-1.16 1.66-2 2.84h15.35v3.54H256.7c-.69-1.48-.05-2.67.82-3.87 4.4-6.14 8.77-12.31 13.15-18.46.42-.6.78-1.22 1.42-2.19-4.24 0-8.08.01-11.93 0-3.12 0-3.12 0-2.74-3.35h20.91zM300 58.82v3.49h-17.27V34.47h17.18v3.35h-12.89c0 2.73-.07 5.23.07 7.73.03.36 1 .94 1.55.96 2.86.1 5.71.05 8.73.05v3.34c-2.68 0-5.37.09-8.06-.04-1.75-.09-2.49.37-2.35 2.26.16 2.15.03 4.32.03 6.69 4.4.01 8.59.01 13.01.01zM186.26 46.57v3.34h-6.29c-4.16 0-4.16 0-4.16 4.25v4.65h12.92v3.49h-17.19V34.46h17.18v3.35h-12.9c0 2.73-.06 5.23.09 7.72.02.37 1 .96 1.54.97 2.85.12 5.7.07 8.81.07zM122.67 58.88h12.91v3.42H118.4V34.47h17.18v3.34h-12.9c0 2.73-.06 5.22.08 7.72.02.38 1 .96 1.54.98 2.85.1 5.71.05 8.73.05v3.34h-6.22c-4.15 0-4.15 0-4.15 4.24.01 1.5.01 2.98.01 4.74zM251.68 62.37h-4.12v-27.9h4.12v27.9z"/></svg>