<svg version="1.2" baseProfile="tiny" xmlns="http://www.w3.org/2000/svg" x="0" y="0" viewBox="0 0 300 79.74" xml:space="preserve"><path fill-rule="evenodd" fill="#498DCB" d="M40.09 0c22.2.09 39.93 17.87 39.88 40.02-.06 22.07-18 39.81-40.18 39.71C17.64 79.64-.09 61.78 0 39.64.09 17.64 18.02-.08 40.09 0zm-6.31 35.31c1.51 1.17 3.02 2.33 4.59 3.55.6-.49.91-2.55.19-4.65-1.36 1.85-1.8 1.97-4.05 1.24-.24-.08-.52-.07-.78-.1-.35-.39-.65-.8-1.03-1.15-2.04-1.87-3.37-4.1-3.51-6.9-.1-1.91-.1-3.82-.13-5.28.76.55 1.89 1.67 3.26 2.25 2.09.89 3.65 2.27 4.84 4.11.59.89 1 1.89 1.56 2.98.27-2.3.27-2.3-1.1-3.64-2.4-2.33-2.98-7.64-.73-10.12 1.41-1.53 2.17-3.13 2.47-5.11.25.62.31 1.23.48 1.8.26.82.38 1.85.96 2.37 1.82 1.69 2.5 3.73 2.34 6.11-.08 1.3-.35 2.6-.55 4.02 2.54-1.65 5-3.25 7.38-4.8-.64 4.02-.64 4.02-.04 5.1 3.82-3.84 7.67-7.71 11.52-11.57C50.87 5.26 30.2 3.27 16.63 17.14c-13.39 13.7-11.1 33.9-.8 44.37 2.84-2.85 5.7-5.69 8.5-8.6.69-.72 1.12-1.69 1.7-2.51.07-.1.33-.05.48-.09 1.11-.25 2.11-1.53 1.88-2.38-.6-2.21-1.19-4.42-1.68-6.24 1.74.66 3.89 1.49 6.03 2.31-2.24-1.97-4.18-3.94-4.91-6.85-.44-1.76-.87-3.52-1.23-4.92.73.4 1.89 1.14 3.14 1.68 1.29.58 2.68.95 4.04 1.4zm6.27 36.99c9.8.45 22.93-5.2 29.29-18.15 6.09-12.38 3.22-26.5-4.24-34.9-.4.37-.81.72-1.19 1.1-2.94 2.93-5.94 5.79-8.78 8.82-1.39 1.49-2.49 3.26-3.68 4.94-.24.35-.38.83-.38 1.25.01 3.87-2.18 6.37-5.23 8.28-1.72 1.07-3.54 1.93-5.64.1v6.4c1.39-2.73 3.21-4.91 5.96-6.14 2.15-.97 4.41-1.75 6.26-2.47-.33.76-1.2 1.89-1.25 3.05-.17 3.79-2.27 6.24-5.2 8.16-1.84 1.2-3.76 1.96-5.79.08v6.57c1.4-2.93 3.44-5.13 6.31-6.42 1.99-.9 4.11-1.53 5.76-2.14-.31.87-.8 2.12-1.19 3.4-.27.88-.27 1.85-.61 2.69-.97 2.41-2.81 4.07-5.04 5.32-1.77 1-3.57 1.58-5.35-.6-.01 3.75-.01 7.15-.01 10.66zM28.12 56.57c-2.96 2.96-5.76 5.79-8.57 8.61 4.54 4.14 13.66 7.57 19.15 7.1V61.95c-1.87 1.44-3.55 1.6-5.41.31-2.16-1.52-4.27-3.15-5.17-5.69zm10.57 2.58v-6.62c-1.74 2.18-3.55 1.42-4.91.82 1.58 1.84 3.29 3.87 4.91 5.8zm-1.73-11.7c.53.9 1.05 1.82 1.73 3.01v-5.14c-.72.9-1.17 1.44-1.73 2.13zm4.86-19.63c-1.89.8-2.13 1.83-1.55 3.49.52-1.18.95-2.12 1.55-3.49zM212.44 40.89V24.75h3.08v22.57c-1.65.49-2.74-.01-3.75-1.34-3.81-5.01-7.73-9.95-11.91-15.3V47.4h-3.12V24.82c1.7-.53 2.8.01 3.84 1.4 3.77 4.97 7.65 9.86 11.5 14.78.11-.04.24-.08.36-.11zM250.71 38.37v8.99h-3.53V24.88c3.29 0 6.51-.27 9.66.08 3.48.39 5.17 2.29 5.53 5.22.39 3.08-1.08 5.54-4.16 6.99-.24.11-.49.24-.81.39 2.31 3.26 4.59 6.46 6.93 9.76-2.54.52-4.44.19-5.69-2.22-.92-1.75-2.36-3.21-3.33-4.95-1.06-1.87-2.51-2.29-4.6-1.78zm-.06-2.57c2.02-.2 3.8-.19 5.49-.6 1.91-.46 2.87-2.18 2.74-4.19-.12-1.85-1.19-3.08-3.23-3.41-1.3-.2-2.63-.24-3.94-.19-.36.01-1 .57-1.01.89-.09 2.36-.05 4.72-.05 7.5zM111.55 39.19c-1.43-.21-2.69-.28-3.84-.67-.24-.08-.11-1.32-.15-2.12h7.25c0 2.79.02 5.58-.03 8.37 0 .31-.3.72-.58.89-5.67 3.72-16.57 2.84-19.08-6.12-1.39-4.98.21-10.24 3.94-12.99 3.79-2.78 10.15-3.01 14.12-.45.71.45 1.81.76.94 2.11-.73 1.16-1.43 1.23-2.58.64-1.11-.57-2.33-1.09-3.55-1.26-3.52-.46-6.73.24-8.49 3.68-1.84 3.6-1.74 7.29.67 10.65 2.11 2.94 7.71 3.93 10.71 1.98.41-.27.57-1.08.64-1.67.11-.96.03-1.96.03-3.04zM150.01 24.71h3.5c.03.47.1.95.1 1.42.01 3.98.03 7.96 0 11.94-.05 6.97-5.51 11.15-12.23 9.3-3.45-.95-5.92-3.27-6.16-6.82-.35-5.21-.09-10.47-.09-15.81h3.46v8.34c0 1.88-.03 3.76.01 5.64.08 3.52 2.2 5.77 5.44 5.86 3.37.08 5.72-1.99 5.88-5.61.18-3.92.06-7.85.08-11.78.02-.76.01-1.53.01-2.48zM285.99 24.73H300v2.77c-2.54 0-5.06-.02-7.58 0-3.35.04-2.89-.47-2.94 2.86-.01 1.33 0 2.64 0 4.16h8.46v2.78c-2.1 0-4.13 0-6.15.01-2.31 0-2.31 0-2.31 2.37 0 1.44.01 2.87.05 4.3 0 .16.1.31.21.62H300v2.8h-14.01V24.73zM271.24 34.59h8.44v2.71h-4.84c-3.62 0-3.62 0-3.62 3.71v3.59h10.52v2.8h-13.95V24.74h13.95v2.76h-6.27c-1.05 0-2.11-.07-3.15.04-.39.05-1.02.54-1.04.85-.09 1.96-.04 3.96-.04 6.2zM190.02 37.31c-2.31 0-4.47.09-6.61-.04-1.52-.09-1.93.47-1.84 1.9.11 1.75.03 3.5.03 5.41h10.52v2.81H178.1V24.74h14.01v2.75h-6.09c-4.43 0-4.43 0-4.43 4.52v2.51h8.42c.01 1.05.01 1.87.01 2.79zM229.23 24.74h14.02v2.71h-10.39v7.42h8.84v2.92h-8.91v9.61h-3.55c-.01-7.57-.01-15.06-.01-22.66zM174.8 24.76v2.82h-7.09v19.8h-3.6V27.6h-7.06v-2.84h17.75zM119.73 24.72h3.37c.02.66.08 1.29.08 1.93 0 5.35.04 10.72-.03 16.08-.02 1.38.41 1.84 1.79 1.78 2.54-.09 5.07-.02 7.73-.02v2.92h-12.94V24.72z"/></svg>